%TF.GenerationSoftware,KiCad,Pcbnew,9.0.3*%
%TF.CreationDate,2025-07-12T05:08:50-07:00*%
%TF.ProjectId,biased-CV-input,62696173-6564-42d4-9356-2d696e707574,rev?*%
%TF.SameCoordinates,Original*%
%TF.FileFunction,Copper,L1,Top*%
%TF.FilePolarity,Positive*%
%FSLAX46Y46*%
G04 Gerber Fmt 4.6, Leading zero omitted, Abs format (unit mm)*
G04 Created by KiCad (PCBNEW 9.0.3) date 2025-07-12 05:08:50*
%MOMM*%
%LPD*%
G01*
G04 APERTURE LIST*
G04 Aperture macros list*
%AMRoundRect*
0 Rectangle with rounded corners*
0 $1 Rounding radius*
0 $2 $3 $4 $5 $6 $7 $8 $9 X,Y pos of 4 corners*
0 Add a 4 corners polygon primitive as box body*
4,1,4,$2,$3,$4,$5,$6,$7,$8,$9,$2,$3,0*
0 Add four circle primitives for the rounded corners*
1,1,$1+$1,$2,$3*
1,1,$1+$1,$4,$5*
1,1,$1+$1,$6,$7*
1,1,$1+$1,$8,$9*
0 Add four rect primitives between the rounded corners*
20,1,$1+$1,$2,$3,$4,$5,0*
20,1,$1+$1,$4,$5,$6,$7,0*
20,1,$1+$1,$6,$7,$8,$9,0*
20,1,$1+$1,$8,$9,$2,$3,0*%
%AMFreePoly0*
4,1,23,0.500000,-0.750000,0.000000,-0.750000,0.000000,-0.745722,-0.065263,-0.745722,-0.191342,-0.711940,-0.304381,-0.646677,-0.396677,-0.554381,-0.461940,-0.441342,-0.495722,-0.315263,-0.495722,-0.250000,-0.500000,-0.250000,-0.500000,0.250000,-0.495722,0.250000,-0.495722,0.315263,-0.461940,0.441342,-0.396677,0.554381,-0.304381,0.646677,-0.191342,0.711940,-0.065263,0.745722,0.000000,0.745722,
0.000000,0.750000,0.500000,0.750000,0.500000,-0.750000,0.500000,-0.750000,$1*%
%AMFreePoly1*
4,1,23,0.000000,0.745722,0.065263,0.745722,0.191342,0.711940,0.304381,0.646677,0.396677,0.554381,0.461940,0.441342,0.495722,0.315263,0.495722,0.250000,0.500000,0.250000,0.500000,-0.250000,0.495722,-0.250000,0.495722,-0.315263,0.461940,-0.441342,0.396677,-0.554381,0.304381,-0.646677,0.191342,-0.711940,0.065263,-0.745722,0.000000,-0.745722,0.000000,-0.750000,-0.500000,-0.750000,
-0.500000,0.750000,0.000000,0.750000,0.000000,0.745722,0.000000,0.745722,$1*%
G04 Aperture macros list end*
%TA.AperFunction,SMDPad,CuDef*%
%ADD10RoundRect,0.250000X0.250000X0.475000X-0.250000X0.475000X-0.250000X-0.475000X0.250000X-0.475000X0*%
%TD*%
%TA.AperFunction,ComponentPad*%
%ADD11R,1.700000X1.700000*%
%TD*%
%TA.AperFunction,ComponentPad*%
%ADD12C,1.700000*%
%TD*%
%TA.AperFunction,SMDPad,CuDef*%
%ADD13RoundRect,0.250000X0.475000X-0.250000X0.475000X0.250000X-0.475000X0.250000X-0.475000X-0.250000X0*%
%TD*%
%TA.AperFunction,SMDPad,CuDef*%
%ADD14RoundRect,0.250000X-0.262500X-0.450000X0.262500X-0.450000X0.262500X0.450000X-0.262500X0.450000X0*%
%TD*%
%TA.AperFunction,SMDPad,CuDef*%
%ADD15RoundRect,0.150000X-0.512500X-0.150000X0.512500X-0.150000X0.512500X0.150000X-0.512500X0.150000X0*%
%TD*%
%TA.AperFunction,SMDPad,CuDef*%
%ADD16RoundRect,0.250000X-0.475000X0.250000X-0.475000X-0.250000X0.475000X-0.250000X0.475000X0.250000X0*%
%TD*%
%TA.AperFunction,SMDPad,CuDef*%
%ADD17RoundRect,0.150000X-0.587500X-0.150000X0.587500X-0.150000X0.587500X0.150000X-0.587500X0.150000X0*%
%TD*%
%TA.AperFunction,SMDPad,CuDef*%
%ADD18RoundRect,0.250000X-0.450000X0.262500X-0.450000X-0.262500X0.450000X-0.262500X0.450000X0.262500X0*%
%TD*%
%TA.AperFunction,SMDPad,CuDef*%
%ADD19FreePoly0,180.000000*%
%TD*%
%TA.AperFunction,SMDPad,CuDef*%
%ADD20FreePoly1,180.000000*%
%TD*%
%TA.AperFunction,SMDPad,CuDef*%
%ADD21FreePoly0,0.000000*%
%TD*%
%TA.AperFunction,SMDPad,CuDef*%
%ADD22FreePoly1,0.000000*%
%TD*%
%TA.AperFunction,SMDPad,CuDef*%
%ADD23RoundRect,0.250000X0.262500X0.450000X-0.262500X0.450000X-0.262500X-0.450000X0.262500X-0.450000X0*%
%TD*%
%TA.AperFunction,ComponentPad*%
%ADD24C,1.930400*%
%TD*%
%TA.AperFunction,ComponentPad*%
%ADD25C,1.803400*%
%TD*%
%TA.AperFunction,ComponentPad*%
%ADD26C,2.667000*%
%TD*%
%TA.AperFunction,ViaPad*%
%ADD27C,0.700000*%
%TD*%
%TA.AperFunction,ViaPad*%
%ADD28C,0.600000*%
%TD*%
%TA.AperFunction,Conductor*%
%ADD29C,0.300000*%
%TD*%
%TA.AperFunction,Conductor*%
%ADD30C,0.500000*%
%TD*%
%TA.AperFunction,Conductor*%
%ADD31C,0.700000*%
%TD*%
G04 APERTURE END LIST*
D10*
%TO.P,C3,1*%
%TO.N,GND*%
X128950000Y-62000000D03*
%TO.P,C3,2*%
%TO.N,/CV*%
X127050000Y-62000000D03*
%TD*%
D11*
%TO.P,J2,1,Pin_1*%
%TO.N,+3.3V*%
X121920000Y-62000000D03*
D12*
%TO.P,J2,2,Pin_2*%
%TO.N,/JACK_DETECT*%
X119380000Y-62000000D03*
%TO.P,J2,3,Pin_3*%
%TO.N,/CV*%
X116840000Y-62000000D03*
%TO.P,J2,4,Pin_4*%
%TO.N,GND*%
X114300000Y-62000000D03*
%TD*%
D13*
%TO.P,C1,1*%
%TO.N,Net-(C1-Pad1)*%
X118500000Y-69450000D03*
%TO.P,C1,2*%
%TO.N,/CV*%
X118500000Y-67550000D03*
%TD*%
D14*
%TO.P,R2,1*%
%TO.N,Net-(D1-COM)*%
X121087500Y-73500000D03*
%TO.P,R2,2*%
%TO.N,Net-(U1-+)*%
X122912500Y-73500000D03*
%TD*%
D15*
%TO.P,U1,1*%
%TO.N,Net-(U1--)*%
X125862500Y-69550000D03*
%TO.P,U1,2,V-*%
%TO.N,GND*%
X125862500Y-70500000D03*
%TO.P,U1,3,+*%
%TO.N,Net-(U1-+)*%
X125862500Y-71450000D03*
%TO.P,U1,4,-*%
%TO.N,Net-(U1--)*%
X128137500Y-71450000D03*
%TO.P,U1,5,V+*%
%TO.N,+3.3V*%
X128137500Y-69550000D03*
%TD*%
D16*
%TO.P,C2,1*%
%TO.N,GND*%
X129500000Y-65550000D03*
%TO.P,C2,2*%
%TO.N,+3.3V*%
X129500000Y-67450000D03*
%TD*%
D17*
%TO.P,D1,1,A*%
%TO.N,GND*%
X113562500Y-73050000D03*
%TO.P,D1,2,K*%
%TO.N,+3.3V*%
X113562500Y-74950000D03*
%TO.P,D1,3,COM*%
%TO.N,Net-(D1-COM)*%
X115437500Y-74000000D03*
%TD*%
D18*
%TO.P,R3,1*%
%TO.N,Net-(U1--)*%
X122000000Y-67587500D03*
%TO.P,R3,2*%
%TO.N,Net-(C1-Pad1)*%
X122000000Y-69412500D03*
%TD*%
D19*
%TO.P,JP2,1,A*%
%TO.N,Net-(J1-SW)*%
X108150000Y-65500000D03*
D20*
%TO.P,JP2,2,B*%
%TO.N,GND*%
X106850000Y-65500000D03*
%TD*%
D21*
%TO.P,JP3,1,A*%
%TO.N,Net-(J1-SW)*%
X113850000Y-68500000D03*
D22*
%TO.P,JP3,2,B*%
%TO.N,/JACK_DETECT*%
X115150000Y-68500000D03*
%TD*%
D23*
%TO.P,R1,1*%
%TO.N,Net-(R1-Pad1)*%
X130912500Y-73500000D03*
%TO.P,R1,2*%
%TO.N,Net-(U1-+)*%
X129087500Y-73500000D03*
%TD*%
D19*
%TO.P,JP1,1,A*%
%TO.N,Net-(J1-SW)*%
X108150000Y-71000000D03*
D20*
%TO.P,JP1,2,B*%
%TO.N,+3.3V*%
X106850000Y-71000000D03*
%TD*%
D24*
%TO.P,J1,1,SIG*%
%TO.N,Net-(D1-COM)*%
X111000000Y-74207000D03*
%TO.P,J1,2,SHEILD*%
%TO.N,GND*%
X111000000Y-63234200D03*
%TO.P,J1,3,SW*%
%TO.N,Net-(J1-SW)*%
X111000000Y-65647200D03*
%TD*%
D25*
%TO.P,RV2,1,1*%
%TO.N,+3.3V*%
X133012243Y-67460163D03*
%TO.P,RV2,2,2*%
%TO.N,Net-(R1-Pad1)*%
X133012243Y-70000163D03*
%TO.P,RV2,3,3*%
%TO.N,GND*%
X133012243Y-72540163D03*
D26*
%TO.P,RV2,4*%
%TO.N,N/C*%
X126001843Y-65605963D03*
%TO.P,RV2,5*%
X126001843Y-74394363D03*
%TD*%
D27*
%TO.N,/CV*%
X124000000Y-62376000D03*
X124000000Y-64176000D03*
D28*
%TO.N,GND*%
X113500000Y-64000000D03*
D27*
X130500000Y-62000000D03*
D28*
X132500000Y-74500000D03*
X128500000Y-75500000D03*
X106500000Y-68000000D03*
X123500000Y-71500000D03*
X132500000Y-63000000D03*
D27*
X112000000Y-72500000D03*
D28*
X123500000Y-75500000D03*
D27*
X106500000Y-63500000D03*
D28*
X120500000Y-71500000D03*
X113000000Y-66500000D03*
X110000000Y-72000000D03*
X123000000Y-66000000D03*
X116500000Y-71500000D03*
X128000000Y-66500000D03*
X118500000Y-75500000D03*
X108500000Y-61500000D03*
D27*
X124500000Y-70500000D03*
X129500000Y-64176000D03*
%TO.N,Net-(J1-SW)*%
X108346832Y-64000000D03*
%TO.N,/JACK_DETECT*%
X116140000Y-64500000D03*
X117540000Y-64500000D03*
%TD*%
D29*
%TO.N,Net-(C1-Pad1)*%
X118537500Y-69412500D02*
X118500000Y-69450000D01*
X122000000Y-69412500D02*
X118537500Y-69412500D01*
%TO.N,/CV*%
X124000000Y-62376000D02*
X124376000Y-62000000D01*
X124376000Y-62000000D02*
X127050000Y-62000000D01*
X118500000Y-67550000D02*
X121874000Y-64176000D01*
X121874000Y-64176000D02*
X124000000Y-64176000D01*
X116840000Y-65890000D02*
X116840000Y-62000000D01*
X118500000Y-67550000D02*
X116840000Y-65890000D01*
D30*
%TO.N,+3.3V*%
X130103276Y-63276000D02*
X133012243Y-66184967D01*
X129500000Y-67450000D02*
X133002080Y-67450000D01*
X106850000Y-72850000D02*
X110000000Y-76000000D01*
X112512500Y-76000000D02*
X113562500Y-74950000D01*
X106850000Y-71000000D02*
X106850000Y-72850000D01*
X121920000Y-62000000D02*
X120519000Y-60599000D01*
X128137500Y-68812500D02*
X129500000Y-67450000D01*
X110000000Y-76000000D02*
X112512500Y-76000000D01*
X123196000Y-63276000D02*
X130103276Y-63276000D01*
X111490969Y-60599000D02*
X109246832Y-62843137D01*
X109246832Y-67500000D02*
X106850000Y-69896832D01*
X133002080Y-67450000D02*
X133012243Y-67460163D01*
X109246832Y-62843137D02*
X109246832Y-67500000D01*
X120519000Y-60599000D02*
X111490969Y-60599000D01*
X121920000Y-62000000D02*
X123196000Y-63276000D01*
X133012243Y-66184967D02*
X133012243Y-67460163D01*
X128137500Y-69550000D02*
X128137500Y-68812500D01*
X106850000Y-69896832D02*
X106850000Y-71000000D01*
D31*
%TO.N,GND*%
X129500000Y-65550000D02*
X129500000Y-64176000D01*
X106850000Y-63850000D02*
X106500000Y-63500000D01*
X125862500Y-70500000D02*
X124500000Y-70500000D01*
X113562500Y-73050000D02*
X112550000Y-73050000D01*
X112550000Y-73050000D02*
X112000000Y-72500000D01*
X106850000Y-65500000D02*
X106850000Y-63850000D01*
X128950000Y-62000000D02*
X130500000Y-62000000D01*
D29*
%TO.N,Net-(D1-COM)*%
X115437500Y-74000000D02*
X120587500Y-74000000D01*
X111207000Y-74000000D02*
X115437500Y-74000000D01*
X120587500Y-74000000D02*
X121087500Y-73500000D01*
X111000000Y-74207000D02*
X111207000Y-74000000D01*
%TO.N,Net-(J1-SW)*%
X111000000Y-65647200D02*
X113850000Y-68497200D01*
X108175800Y-71025800D02*
X108150000Y-71000000D01*
X108346832Y-65303168D02*
X108150000Y-65500000D01*
X108346832Y-64000000D02*
X108346832Y-65303168D01*
X113850000Y-69014914D02*
X111839114Y-71025800D01*
X111839114Y-71025800D02*
X108175800Y-71025800D01*
X113850000Y-68497200D02*
X113850000Y-68500000D01*
X113850000Y-68500000D02*
X113850000Y-69014914D01*
%TO.N,/JACK_DETECT*%
X117540000Y-64500000D02*
X117540000Y-63840000D01*
X117540000Y-63840000D02*
X119380000Y-62000000D01*
X115150000Y-68500000D02*
X115150000Y-65490000D01*
X115150000Y-65490000D02*
X116140000Y-64500000D01*
%TO.N,Net-(U1-+)*%
X127912500Y-73500000D02*
X125862500Y-71450000D01*
X122912500Y-73500000D02*
X123812500Y-73500000D01*
X123812500Y-73500000D02*
X125862500Y-71450000D01*
X129087500Y-73500000D02*
X127912500Y-73500000D01*
%TO.N,Net-(R1-Pad1)*%
X130912500Y-73500000D02*
X130912500Y-72099906D01*
X130912500Y-72099906D02*
X133012243Y-70000163D01*
%TO.N,Net-(U1--)*%
X126537499Y-69550000D02*
X125862500Y-69550000D01*
X125550000Y-69550000D02*
X123587500Y-67587500D01*
X128137500Y-71150001D02*
X126537499Y-69550000D01*
X125862500Y-69550000D02*
X125550000Y-69550000D01*
X128137500Y-71450000D02*
X128137500Y-71150001D01*
X123587500Y-67587500D02*
X122000000Y-67587500D01*
%TD*%
%TA.AperFunction,Conductor*%
%TO.N,GND*%
G36*
X129002443Y-60300596D02*
G01*
X129022528Y-60301385D01*
X129442304Y-60317878D01*
X129451999Y-60318640D01*
X129886780Y-60370099D01*
X129896376Y-60371620D01*
X130325764Y-60457031D01*
X130335195Y-60459295D01*
X130756553Y-60578130D01*
X130765787Y-60581130D01*
X131176534Y-60732663D01*
X131185528Y-60736389D01*
X131583092Y-60919667D01*
X131591768Y-60924088D01*
X131973734Y-61138000D01*
X131982036Y-61143087D01*
X132346031Y-61386301D01*
X132353905Y-61392022D01*
X132697711Y-61663056D01*
X132705102Y-61669369D01*
X133026583Y-61966543D01*
X133033456Y-61973416D01*
X133289128Y-62250000D01*
X133330625Y-62294891D01*
X133336945Y-62302291D01*
X133507321Y-62518412D01*
X133607975Y-62646091D01*
X133613698Y-62653968D01*
X133856912Y-63017963D01*
X133861999Y-63026265D01*
X134075911Y-63408231D01*
X134080332Y-63416907D01*
X134263610Y-63814471D01*
X134267336Y-63823465D01*
X134418865Y-64234199D01*
X134421873Y-64243460D01*
X134540699Y-64664787D01*
X134542972Y-64674254D01*
X134628377Y-65103613D01*
X134629901Y-65113230D01*
X134681358Y-65547995D01*
X134682121Y-65557700D01*
X134699404Y-65997555D01*
X134699500Y-66002424D01*
X134699500Y-70997575D01*
X134699404Y-71002444D01*
X134682121Y-71442299D01*
X134681358Y-71452004D01*
X134629901Y-71886769D01*
X134628377Y-71896386D01*
X134542972Y-72325745D01*
X134540699Y-72335212D01*
X134421873Y-72756539D01*
X134418865Y-72765800D01*
X134267336Y-73176534D01*
X134263610Y-73185528D01*
X134080332Y-73583092D01*
X134075911Y-73591768D01*
X133861999Y-73973734D01*
X133856912Y-73982036D01*
X133613698Y-74346031D01*
X133607975Y-74353908D01*
X133336948Y-74697705D01*
X133330625Y-74705108D01*
X133033462Y-75026577D01*
X133026577Y-75033462D01*
X132705108Y-75330625D01*
X132697705Y-75336948D01*
X132353908Y-75607975D01*
X132346031Y-75613698D01*
X131982036Y-75856912D01*
X131973734Y-75861999D01*
X131591768Y-76075911D01*
X131583092Y-76080332D01*
X131185528Y-76263610D01*
X131176534Y-76267336D01*
X130765800Y-76418865D01*
X130756539Y-76421873D01*
X130335212Y-76540699D01*
X130325745Y-76542972D01*
X129896386Y-76628377D01*
X129886769Y-76629901D01*
X129452004Y-76681358D01*
X129442299Y-76682121D01*
X129018672Y-76698766D01*
X129002442Y-76699404D01*
X128997575Y-76699500D01*
X113173731Y-76699500D01*
X113106692Y-76679815D01*
X113060937Y-76627011D01*
X113050993Y-76557853D01*
X113080018Y-76494297D01*
X113086050Y-76487819D01*
X113787048Y-75786819D01*
X113848371Y-75753334D01*
X113874729Y-75750500D01*
X114215686Y-75750500D01*
X114215694Y-75750500D01*
X114252569Y-75747598D01*
X114252571Y-75747597D01*
X114252573Y-75747597D01*
X114294191Y-75735505D01*
X114410398Y-75701744D01*
X114551865Y-75618081D01*
X114668081Y-75501865D01*
X114751744Y-75360398D01*
X114797598Y-75202569D01*
X114800500Y-75165694D01*
X114800500Y-74924500D01*
X114820185Y-74857461D01*
X114872989Y-74811706D01*
X114924500Y-74800500D01*
X116090686Y-74800500D01*
X116090694Y-74800500D01*
X116127569Y-74797598D01*
X116127571Y-74797597D01*
X116127573Y-74797597D01*
X116169191Y-74785505D01*
X116285398Y-74751744D01*
X116389805Y-74689998D01*
X116427395Y-74667768D01*
X116490516Y-74650500D01*
X120532993Y-74650500D01*
X120571997Y-74656794D01*
X120672203Y-74689999D01*
X120774991Y-74700500D01*
X121400008Y-74700499D01*
X121400016Y-74700498D01*
X121400019Y-74700498D01*
X121456302Y-74694748D01*
X121502797Y-74689999D01*
X121669334Y-74634814D01*
X121818656Y-74542712D01*
X121912319Y-74449049D01*
X121973642Y-74415564D01*
X122043334Y-74420548D01*
X122087681Y-74449049D01*
X122181344Y-74542712D01*
X122330666Y-74634814D01*
X122497203Y-74689999D01*
X122599991Y-74700500D01*
X123225008Y-74700499D01*
X123225016Y-74700498D01*
X123225019Y-74700498D01*
X123281302Y-74694748D01*
X123327797Y-74689999D01*
X123494334Y-74634814D01*
X123643656Y-74542712D01*
X123767712Y-74418656D01*
X123859814Y-74269334D01*
X123878080Y-74214208D01*
X123883939Y-74205745D01*
X123885957Y-74195648D01*
X123903488Y-74177509D01*
X123917850Y-74156766D01*
X123928650Y-74151476D01*
X123934515Y-74145409D01*
X123961764Y-74135259D01*
X123967369Y-74132514D01*
X123969447Y-74132024D01*
X124002244Y-74125501D01*
X124008942Y-74122726D01*
X124018705Y-74120428D01*
X124043959Y-74121802D01*
X124069110Y-74119093D01*
X124078258Y-74123670D01*
X124088471Y-74124226D01*
X124108973Y-74139036D01*
X124131596Y-74150354D01*
X124136817Y-74159149D01*
X124145109Y-74165139D01*
X124154350Y-74188684D01*
X124167262Y-74210434D01*
X124168046Y-74223578D01*
X124170637Y-74230178D01*
X124168945Y-74238643D01*
X124170060Y-74257312D01*
X124167844Y-74274143D01*
X124167843Y-74274162D01*
X124167843Y-74514563D01*
X124167844Y-74514580D01*
X124199067Y-74751745D01*
X124199223Y-74752926D01*
X124214973Y-74811706D01*
X124261448Y-74985152D01*
X124353447Y-75207257D01*
X124353452Y-75207268D01*
X124473651Y-75415457D01*
X124473662Y-75415473D01*
X124620008Y-75606196D01*
X124620014Y-75606203D01*
X124790002Y-75776191D01*
X124790009Y-75776197D01*
X124898733Y-75859623D01*
X124980741Y-75922550D01*
X124980748Y-75922554D01*
X125188937Y-76042753D01*
X125188942Y-76042755D01*
X125188945Y-76042757D01*
X125411058Y-76134759D01*
X125643280Y-76196983D01*
X125881636Y-76228363D01*
X125881643Y-76228363D01*
X126122043Y-76228363D01*
X126122050Y-76228363D01*
X126360406Y-76196983D01*
X126592628Y-76134759D01*
X126814741Y-76042757D01*
X127022945Y-75922550D01*
X127213678Y-75776196D01*
X127383676Y-75606198D01*
X127530030Y-75415465D01*
X127650237Y-75207261D01*
X127742239Y-74985148D01*
X127804463Y-74752926D01*
X127835843Y-74514570D01*
X127835843Y-74274500D01*
X127838393Y-74265814D01*
X127837105Y-74256853D01*
X127848083Y-74232812D01*
X127855528Y-74207461D01*
X127862368Y-74201533D01*
X127866130Y-74193297D01*
X127888364Y-74179007D01*
X127908332Y-74161706D01*
X127918846Y-74159418D01*
X127924908Y-74155523D01*
X127959843Y-74150500D01*
X128011267Y-74150500D01*
X128078306Y-74170185D01*
X128124061Y-74222989D01*
X128128972Y-74235494D01*
X128140184Y-74269328D01*
X128140187Y-74269336D01*
X128172888Y-74322353D01*
X128232288Y-74418656D01*
X128356344Y-74542712D01*
X128505666Y-74634814D01*
X128672203Y-74689999D01*
X128774991Y-74700500D01*
X129400008Y-74700499D01*
X129400016Y-74700498D01*
X129400019Y-74700498D01*
X129456302Y-74694748D01*
X129502797Y-74689999D01*
X129669334Y-74634814D01*
X129818656Y-74542712D01*
X129912319Y-74449049D01*
X129973642Y-74415564D01*
X130043334Y-74420548D01*
X130087681Y-74449049D01*
X130181344Y-74542712D01*
X130330666Y-74634814D01*
X130497203Y-74689999D01*
X130599991Y-74700500D01*
X131225008Y-74700499D01*
X131225016Y-74700498D01*
X131225019Y-74700498D01*
X131281302Y-74694748D01*
X131327797Y-74689999D01*
X131494334Y-74634814D01*
X131643656Y-74542712D01*
X131767712Y-74418656D01*
X131859814Y-74269334D01*
X131914999Y-74102797D01*
X131925500Y-74000009D01*
X131925499Y-72999992D01*
X131914999Y-72897203D01*
X131859814Y-72730666D01*
X131767712Y-72581344D01*
X131647040Y-72460672D01*
X131613555Y-72399349D01*
X131618539Y-72329657D01*
X131647036Y-72285315D01*
X132540061Y-71392289D01*
X132601382Y-71358806D01*
X132666058Y-71362041D01*
X132670446Y-71363466D01*
X132683894Y-71367836D01*
X132901887Y-71402363D01*
X132901888Y-71402363D01*
X133122598Y-71402363D01*
X133122599Y-71402363D01*
X133340592Y-71367836D01*
X133550501Y-71299633D01*
X133747156Y-71199432D01*
X133925715Y-71069701D01*
X134081781Y-70913635D01*
X134211512Y-70735076D01*
X134311713Y-70538421D01*
X134379916Y-70328512D01*
X134414443Y-70110519D01*
X134414443Y-69889807D01*
X134379916Y-69671814D01*
X134316478Y-69476569D01*
X134311714Y-69461907D01*
X134311713Y-69461904D01*
X134246694Y-69334298D01*
X134211512Y-69265250D01*
X134081781Y-69086691D01*
X133925715Y-68930625D01*
X133895331Y-68908550D01*
X133787879Y-68830481D01*
X133745213Y-68775151D01*
X133739234Y-68705538D01*
X133771840Y-68643743D01*
X133787879Y-68629845D01*
X133837778Y-68593591D01*
X133925715Y-68529701D01*
X134081781Y-68373635D01*
X134211512Y-68195076D01*
X134311713Y-67998421D01*
X134379916Y-67788512D01*
X134414443Y-67570519D01*
X134414443Y-67349807D01*
X134379916Y-67131814D01*
X134338880Y-67005517D01*
X134311714Y-66921907D01*
X134311713Y-66921904D01*
X134226925Y-66755500D01*
X134211512Y-66725250D01*
X134081781Y-66546691D01*
X133925715Y-66390625D01*
X133925714Y-66390624D01*
X133813856Y-66309353D01*
X133812898Y-66308111D01*
X133811436Y-66307549D01*
X133791640Y-66280543D01*
X133771191Y-66254023D01*
X133770758Y-66252054D01*
X133770130Y-66251197D01*
X133768397Y-66241310D01*
X133762976Y-66216635D01*
X133762743Y-66212840D01*
X133762743Y-66111049D01*
X133755339Y-66073829D01*
X133753702Y-66065600D01*
X133753702Y-66065595D01*
X133733903Y-65966062D01*
X133733902Y-65966055D01*
X133677327Y-65829473D01*
X133677327Y-65829472D01*
X133608303Y-65726170D01*
X133600522Y-65714525D01*
X133595197Y-65706554D01*
X133595195Y-65706552D01*
X130581697Y-62693052D01*
X130581696Y-62693051D01*
X130484035Y-62627797D01*
X130484035Y-62627796D01*
X130458771Y-62610916D01*
X130458766Y-62610913D01*
X130322193Y-62554343D01*
X130322183Y-62554340D01*
X130177196Y-62525500D01*
X130177194Y-62525500D01*
X130074000Y-62525500D01*
X130006961Y-62505815D01*
X129961206Y-62453011D01*
X129950000Y-62401500D01*
X129950000Y-62250000D01*
X129074000Y-62250000D01*
X129006961Y-62230315D01*
X128961206Y-62177511D01*
X128950000Y-62126000D01*
X128950000Y-62000000D01*
X128824000Y-62000000D01*
X128756961Y-61980315D01*
X128711206Y-61927511D01*
X128700000Y-61876000D01*
X128700000Y-61750000D01*
X129200000Y-61750000D01*
X129949999Y-61750000D01*
X129949999Y-61475028D01*
X129949998Y-61475013D01*
X129939505Y-61372302D01*
X129884358Y-61205880D01*
X129884356Y-61205875D01*
X129792315Y-61056654D01*
X129668345Y-60932684D01*
X129519124Y-60840643D01*
X129519119Y-60840641D01*
X129352697Y-60785494D01*
X129352690Y-60785493D01*
X129249986Y-60775000D01*
X129200000Y-60775000D01*
X129200000Y-61750000D01*
X128700000Y-61750000D01*
X128700000Y-60775000D01*
X128699999Y-60774999D01*
X128650029Y-60775000D01*
X128650011Y-60775001D01*
X128547302Y-60785494D01*
X128380880Y-60840641D01*
X128380875Y-60840643D01*
X128231654Y-60932684D01*
X128107683Y-61056655D01*
X128107679Y-61056660D01*
X128105826Y-61059665D01*
X128104018Y-61061290D01*
X128103202Y-61062323D01*
X128103025Y-61062183D01*
X128053874Y-61106385D01*
X127984911Y-61117601D01*
X127920831Y-61089752D01*
X127894753Y-61059653D01*
X127894737Y-61059628D01*
X127892712Y-61056344D01*
X127768656Y-60932288D01*
X127619334Y-60840186D01*
X127452797Y-60785001D01*
X127452795Y-60785000D01*
X127350010Y-60774500D01*
X126749998Y-60774500D01*
X126749980Y-60774501D01*
X126647203Y-60785000D01*
X126647200Y-60785001D01*
X126480668Y-60840185D01*
X126480663Y-60840187D01*
X126331342Y-60932289D01*
X126207289Y-61056342D01*
X126115187Y-61205663D01*
X126115186Y-61205666D01*
X126095689Y-61264505D01*
X126055916Y-61321949D01*
X125991400Y-61348772D01*
X125977983Y-61349500D01*
X124311929Y-61349500D01*
X124186261Y-61374497D01*
X124186255Y-61374499D01*
X124067870Y-61423535D01*
X123961331Y-61494722D01*
X123961319Y-61494732D01*
X123960698Y-61495354D01*
X123960292Y-61495575D01*
X123956615Y-61498593D01*
X123956042Y-61497895D01*
X123899372Y-61528833D01*
X123897218Y-61529281D01*
X123751923Y-61558182D01*
X123751917Y-61558184D01*
X123597140Y-61622295D01*
X123463389Y-61711664D01*
X123396712Y-61732541D01*
X123329332Y-61714056D01*
X123282642Y-61662077D01*
X123270499Y-61608561D01*
X123270499Y-61102129D01*
X123270498Y-61102123D01*
X123269168Y-61089752D01*
X123264091Y-61042517D01*
X123222978Y-60932288D01*
X123213797Y-60907671D01*
X123213793Y-60907664D01*
X123127547Y-60792455D01*
X123127544Y-60792452D01*
X123012335Y-60706206D01*
X123012328Y-60706202D01*
X122877482Y-60655908D01*
X122877483Y-60655908D01*
X122817883Y-60649501D01*
X122817881Y-60649500D01*
X122817873Y-60649500D01*
X122817865Y-60649500D01*
X121682230Y-60649500D01*
X121652789Y-60640855D01*
X121622803Y-60634332D01*
X121617787Y-60630577D01*
X121615191Y-60629815D01*
X121594549Y-60613181D01*
X121493549Y-60512181D01*
X121460064Y-60450858D01*
X121465048Y-60381166D01*
X121506920Y-60325233D01*
X121572384Y-60300816D01*
X121581230Y-60300500D01*
X128952405Y-60300500D01*
X128997575Y-60300500D01*
X129002443Y-60300596D01*
G37*
%TD.AperFunction*%
%TA.AperFunction,Conductor*%
G36*
X110445483Y-60350596D02*
G01*
X110497127Y-60397656D01*
X110515130Y-60465167D01*
X110493777Y-60531693D01*
X110478850Y-60549749D01*
X108663879Y-62364721D01*
X108663877Y-62364723D01*
X108630509Y-62414666D01*
X108630507Y-62414669D01*
X108581751Y-62487636D01*
X108581744Y-62487648D01*
X108525175Y-62624219D01*
X108525172Y-62624229D01*
X108496332Y-62769216D01*
X108496332Y-63025500D01*
X108476647Y-63092539D01*
X108423843Y-63138294D01*
X108372332Y-63149500D01*
X108263060Y-63149500D01*
X108098757Y-63182182D01*
X108098749Y-63182184D01*
X107943971Y-63246295D01*
X107804669Y-63339373D01*
X107686205Y-63457837D01*
X107593127Y-63597139D01*
X107529016Y-63751917D01*
X107529014Y-63751925D01*
X107496332Y-63916228D01*
X107496332Y-64083771D01*
X107510139Y-64153183D01*
X107503912Y-64222775D01*
X107461049Y-64277952D01*
X107440046Y-64290163D01*
X107440010Y-64290179D01*
X107318969Y-64367967D01*
X107318965Y-64367971D01*
X107224750Y-64476700D01*
X107224744Y-64476709D01*
X107164976Y-64607580D01*
X107164975Y-64607585D01*
X107144500Y-64749999D01*
X107144500Y-66250002D01*
X107149644Y-66321940D01*
X107172989Y-66401443D01*
X107187100Y-66449500D01*
X107190182Y-66459994D01*
X107267967Y-66581030D01*
X107267971Y-66581034D01*
X107336237Y-66640187D01*
X107376706Y-66675254D01*
X107417174Y-66693735D01*
X107507580Y-66735023D01*
X107507583Y-66735023D01*
X107507584Y-66735024D01*
X107650000Y-66755500D01*
X107650003Y-66755500D01*
X108215819Y-66755500D01*
X108215826Y-66755500D01*
X108346662Y-66738275D01*
X108346676Y-66738271D01*
X108348121Y-66737984D01*
X108348567Y-66738023D01*
X108350686Y-66737745D01*
X108350748Y-66738218D01*
X108417713Y-66744200D01*
X108472898Y-66787054D01*
X108496153Y-66852940D01*
X108496332Y-66859597D01*
X108496332Y-67137769D01*
X108476647Y-67204808D01*
X108460013Y-67225450D01*
X106267052Y-69418410D01*
X106267049Y-69418413D01*
X106228191Y-69476568D01*
X106228192Y-69476569D01*
X106184914Y-69541340D01*
X106128343Y-69677914D01*
X106128340Y-69677924D01*
X106099500Y-69822911D01*
X106099500Y-70034282D01*
X106079815Y-70101321D01*
X106073875Y-70109769D01*
X106012132Y-70190232D01*
X106012120Y-70190250D01*
X105946303Y-70304248D01*
X105946302Y-70304249D01*
X105895800Y-70426170D01*
X105861724Y-70553341D01*
X105844500Y-70684166D01*
X105844500Y-71315833D01*
X105861724Y-71446658D01*
X105895800Y-71573829D01*
X105946302Y-71695750D01*
X105946303Y-71695751D01*
X106012120Y-71809749D01*
X106012132Y-71809767D01*
X106073875Y-71890230D01*
X106099070Y-71955399D01*
X106099500Y-71965717D01*
X106099500Y-72923918D01*
X106099500Y-72923920D01*
X106099499Y-72923920D01*
X106128340Y-73068907D01*
X106128343Y-73068917D01*
X106184913Y-73205490D01*
X106184919Y-73205501D01*
X106199920Y-73227950D01*
X106199921Y-73227954D01*
X106199923Y-73227954D01*
X106248061Y-73300000D01*
X106267051Y-73328420D01*
X106267052Y-73328421D01*
X109029945Y-76091313D01*
X109034176Y-76099062D01*
X109041266Y-76104330D01*
X109050665Y-76129260D01*
X109063430Y-76152636D01*
X109062800Y-76161443D01*
X109065916Y-76169707D01*
X109060346Y-76195756D01*
X109058446Y-76222328D01*
X109053152Y-76229398D01*
X109051307Y-76238032D01*
X109032538Y-76256935D01*
X109016574Y-76278261D01*
X109008301Y-76281346D01*
X109002079Y-76287614D01*
X108976065Y-76293369D01*
X108951110Y-76302678D01*
X108940686Y-76301198D01*
X108933859Y-76302709D01*
X108899345Y-76295330D01*
X108823465Y-76267336D01*
X108814471Y-76263610D01*
X108416907Y-76080332D01*
X108408231Y-76075911D01*
X108026265Y-75861999D01*
X108017963Y-75856912D01*
X107653968Y-75613698D01*
X107646091Y-75607975D01*
X107401893Y-75415465D01*
X107302291Y-75336945D01*
X107294891Y-75330625D01*
X107207131Y-75249500D01*
X106973416Y-75033456D01*
X106966543Y-75026583D01*
X106669369Y-74705102D01*
X106663051Y-74697705D01*
X106656975Y-74689998D01*
X106392022Y-74353905D01*
X106386301Y-74346031D01*
X106338505Y-74274500D01*
X106255651Y-74150500D01*
X106143087Y-73982036D01*
X106138000Y-73973734D01*
X105924088Y-73591768D01*
X105919667Y-73583092D01*
X105736389Y-73185528D01*
X105732663Y-73176534D01*
X105581130Y-72765787D01*
X105578130Y-72756553D01*
X105459295Y-72335195D01*
X105457031Y-72325764D01*
X105371620Y-71896376D01*
X105370098Y-71886769D01*
X105366976Y-71860393D01*
X105318640Y-71451999D01*
X105317878Y-71442298D01*
X105314952Y-71367836D01*
X105300596Y-71002443D01*
X105300500Y-70997575D01*
X105300500Y-66002424D01*
X105300596Y-65997556D01*
X105307200Y-65829472D01*
X105317878Y-65557693D01*
X105318641Y-65547995D01*
X105370100Y-65113215D01*
X105371619Y-65103627D01*
X105457032Y-64674230D01*
X105459294Y-64664810D01*
X105578132Y-64243438D01*
X105581127Y-64234219D01*
X105732666Y-63823456D01*
X105736389Y-63814471D01*
X105798980Y-63678700D01*
X105919673Y-63416894D01*
X105924088Y-63408231D01*
X106138000Y-63026265D01*
X106143087Y-63017963D01*
X106145676Y-63014089D01*
X106386311Y-62653953D01*
X106392012Y-62646106D01*
X106663066Y-62302275D01*
X106669357Y-62294909D01*
X106966556Y-61973402D01*
X106973402Y-61966556D01*
X107294909Y-61669357D01*
X107302275Y-61663066D01*
X107646106Y-61392012D01*
X107653953Y-61386311D01*
X108017965Y-61143085D01*
X108026265Y-61138000D01*
X108408231Y-60924088D01*
X108416894Y-60919673D01*
X108814471Y-60736389D01*
X108823456Y-60732666D01*
X109234219Y-60581127D01*
X109243438Y-60578132D01*
X109664810Y-60459294D01*
X109674230Y-60457032D01*
X110103627Y-60371619D01*
X110113215Y-60370100D01*
X110376597Y-60338927D01*
X110445483Y-60350596D01*
G37*
%TD.AperFunction*%
%TA.AperFunction,Conductor*%
G36*
X116108834Y-65553626D02*
G01*
X116164767Y-65595498D01*
X116189184Y-65660962D01*
X116189500Y-65669808D01*
X116189500Y-65954069D01*
X116210314Y-66058705D01*
X116214499Y-66079744D01*
X116263535Y-66198127D01*
X116318603Y-66280543D01*
X116334726Y-66304673D01*
X116334727Y-66304674D01*
X117238181Y-67208127D01*
X117271666Y-67269450D01*
X117274500Y-67295808D01*
X117274500Y-67850001D01*
X117274501Y-67850019D01*
X117285000Y-67952796D01*
X117285001Y-67952799D01*
X117300118Y-67998418D01*
X117340186Y-68119334D01*
X117430795Y-68266236D01*
X117432289Y-68268657D01*
X117556346Y-68392714D01*
X117559182Y-68394463D01*
X117560717Y-68396170D01*
X117562011Y-68397193D01*
X117561836Y-68397414D01*
X117605905Y-68446411D01*
X117617126Y-68515374D01*
X117589282Y-68579456D01*
X117559182Y-68605537D01*
X117556346Y-68607285D01*
X117432289Y-68731342D01*
X117340187Y-68880663D01*
X117340185Y-68880668D01*
X117323085Y-68932273D01*
X117285001Y-69047203D01*
X117285001Y-69047204D01*
X117285000Y-69047204D01*
X117274500Y-69149983D01*
X117274500Y-69750001D01*
X117274501Y-69750019D01*
X117285000Y-69852796D01*
X117285001Y-69852799D01*
X117340185Y-70019331D01*
X117340187Y-70019336D01*
X117355459Y-70044096D01*
X117432288Y-70168656D01*
X117556344Y-70292712D01*
X117705666Y-70384814D01*
X117872203Y-70439999D01*
X117974991Y-70450500D01*
X119025008Y-70450499D01*
X119025016Y-70450498D01*
X119025019Y-70450498D01*
X119081302Y-70444748D01*
X119127797Y-70439999D01*
X119294334Y-70384814D01*
X119443656Y-70292712D01*
X119567712Y-70168656D01*
X119596549Y-70121902D01*
X119648497Y-70075179D01*
X119702088Y-70063000D01*
X120838332Y-70063000D01*
X120905371Y-70082685D01*
X120943870Y-70121903D01*
X120957285Y-70143652D01*
X120957288Y-70143656D01*
X121081344Y-70267712D01*
X121230666Y-70359814D01*
X121397203Y-70414999D01*
X121499991Y-70425500D01*
X122500008Y-70425499D01*
X122500016Y-70425498D01*
X122500019Y-70425498D01*
X122567408Y-70418614D01*
X122602797Y-70414999D01*
X122769334Y-70359814D01*
X122918656Y-70267712D01*
X123042712Y-70143656D01*
X123134814Y-69994334D01*
X123189999Y-69827797D01*
X123200500Y-69725009D01*
X123200499Y-69099992D01*
X123197826Y-69073829D01*
X123189999Y-68997203D01*
X123189998Y-68997200D01*
X123160622Y-68908550D01*
X123134814Y-68830666D01*
X123042712Y-68681344D01*
X122949049Y-68587681D01*
X122946201Y-68582465D01*
X122941272Y-68579144D01*
X122929646Y-68552148D01*
X122915564Y-68526358D01*
X122915987Y-68520431D01*
X122913637Y-68514972D01*
X122918451Y-68485978D01*
X122920548Y-68456666D01*
X122924360Y-68450396D01*
X122925083Y-68446046D01*
X122938423Y-68427271D01*
X122944806Y-68416777D01*
X122946862Y-68414505D01*
X123042712Y-68318656D01*
X123062105Y-68287214D01*
X123069744Y-68278777D01*
X123090224Y-68266236D01*
X123108078Y-68250178D01*
X123121391Y-68247152D01*
X123129331Y-68242291D01*
X123141609Y-68242558D01*
X123161668Y-68238000D01*
X123266692Y-68238000D01*
X123333731Y-68257685D01*
X123354373Y-68274319D01*
X124663181Y-69583127D01*
X124696666Y-69644450D01*
X124699500Y-69670808D01*
X124699500Y-69765701D01*
X124702401Y-69802567D01*
X124702402Y-69802573D01*
X124748254Y-69960393D01*
X124748256Y-69960399D01*
X124749426Y-69962377D01*
X124749869Y-69964126D01*
X124751353Y-69967554D01*
X124750799Y-69967793D01*
X124766603Y-70030102D01*
X124751249Y-70082395D01*
X124751817Y-70082641D01*
X124749827Y-70087239D01*
X124749428Y-70088599D01*
X124748722Y-70089791D01*
X124748716Y-70089806D01*
X124702900Y-70247505D01*
X124702899Y-70247511D01*
X124702704Y-70249998D01*
X124702705Y-70250000D01*
X124968185Y-70250000D01*
X125031306Y-70267268D01*
X125089602Y-70301744D01*
X125116050Y-70309428D01*
X125247426Y-70347597D01*
X125247429Y-70347597D01*
X125247431Y-70347598D01*
X125284306Y-70350500D01*
X125738500Y-70350500D01*
X125747185Y-70353050D01*
X125756147Y-70351762D01*
X125780187Y-70362740D01*
X125805539Y-70370185D01*
X125811466Y-70377025D01*
X125819703Y-70380787D01*
X125833992Y-70403021D01*
X125851294Y-70422989D01*
X125853581Y-70433503D01*
X125857477Y-70439565D01*
X125862500Y-70474500D01*
X125862500Y-70525500D01*
X125842815Y-70592539D01*
X125790011Y-70638294D01*
X125738500Y-70649500D01*
X125284298Y-70649500D01*
X125247432Y-70652401D01*
X125247426Y-70652402D01*
X125089606Y-70698254D01*
X125089603Y-70698255D01*
X125031306Y-70732732D01*
X124968185Y-70750000D01*
X124702705Y-70750000D01*
X124702704Y-70750001D01*
X124702899Y-70752488D01*
X124702900Y-70752494D01*
X124748715Y-70910190D01*
X124748720Y-70910203D01*
X124749427Y-70911398D01*
X124749695Y-70912454D01*
X124751816Y-70917356D01*
X124751024Y-70917698D01*
X124766603Y-70979123D01*
X124750993Y-71032284D01*
X124751355Y-71032441D01*
X124750087Y-71035369D01*
X124749427Y-71037620D01*
X124748259Y-71039594D01*
X124748254Y-71039607D01*
X124702402Y-71197426D01*
X124702401Y-71197432D01*
X124699500Y-71234298D01*
X124699500Y-71641691D01*
X124679815Y-71708730D01*
X124663181Y-71729372D01*
X123877141Y-72515411D01*
X123815818Y-72548896D01*
X123746126Y-72543912D01*
X123701779Y-72515411D01*
X123643657Y-72457289D01*
X123643656Y-72457288D01*
X123538045Y-72392147D01*
X123494336Y-72365187D01*
X123494331Y-72365185D01*
X123492862Y-72364698D01*
X123327797Y-72310001D01*
X123327795Y-72310000D01*
X123225010Y-72299500D01*
X122599998Y-72299500D01*
X122599980Y-72299501D01*
X122497203Y-72310000D01*
X122497200Y-72310001D01*
X122330668Y-72365185D01*
X122330663Y-72365187D01*
X122181342Y-72457289D01*
X122087681Y-72550951D01*
X122026358Y-72584436D01*
X121956666Y-72579452D01*
X121912319Y-72550951D01*
X121818657Y-72457289D01*
X121818656Y-72457288D01*
X121713045Y-72392147D01*
X121669336Y-72365187D01*
X121669331Y-72365185D01*
X121667862Y-72364698D01*
X121502797Y-72310001D01*
X121502795Y-72310000D01*
X121400010Y-72299500D01*
X120774998Y-72299500D01*
X120774980Y-72299501D01*
X120672203Y-72310000D01*
X120672200Y-72310001D01*
X120505668Y-72365185D01*
X120505663Y-72365187D01*
X120356342Y-72457289D01*
X120232289Y-72581342D01*
X120140187Y-72730663D01*
X120140185Y-72730668D01*
X120130054Y-72761242D01*
X120085001Y-72897203D01*
X120085001Y-72897204D01*
X120085000Y-72897204D01*
X120074500Y-72999983D01*
X120074500Y-73225500D01*
X120054815Y-73292539D01*
X120002011Y-73338294D01*
X119950500Y-73349500D01*
X116490516Y-73349500D01*
X116427395Y-73332232D01*
X116292001Y-73252161D01*
X116285398Y-73248256D01*
X116285397Y-73248255D01*
X116285396Y-73248255D01*
X116285393Y-73248254D01*
X116127573Y-73202402D01*
X116127567Y-73202401D01*
X116090701Y-73199500D01*
X116090694Y-73199500D01*
X114784306Y-73199500D01*
X114784298Y-73199500D01*
X114747432Y-73202401D01*
X114747426Y-73202402D01*
X114589606Y-73248254D01*
X114589603Y-73248255D01*
X114531306Y-73282732D01*
X114468185Y-73300000D01*
X112323992Y-73300000D01*
X112272330Y-73330900D01*
X112202497Y-73328653D01*
X112144964Y-73289009D01*
X112140931Y-73283761D01*
X112117973Y-73252161D01*
X111954839Y-73089027D01*
X111768194Y-72953421D01*
X111657859Y-72897203D01*
X111562637Y-72848685D01*
X111562636Y-72848684D01*
X111562633Y-72848683D01*
X111472264Y-72819320D01*
X111412798Y-72799998D01*
X112327704Y-72799998D01*
X112327705Y-72800000D01*
X113312500Y-72800000D01*
X113812500Y-72800000D01*
X114797295Y-72800000D01*
X114797295Y-72799998D01*
X114797100Y-72797513D01*
X114751281Y-72639801D01*
X114667685Y-72498447D01*
X114667678Y-72498438D01*
X114551561Y-72382321D01*
X114551552Y-72382314D01*
X114410196Y-72298717D01*
X114410193Y-72298716D01*
X114252495Y-72252900D01*
X114252489Y-72252899D01*
X114215649Y-72250000D01*
X113812500Y-72250000D01*
X113812500Y-72800000D01*
X113312500Y-72800000D01*
X113312500Y-72250000D01*
X112909350Y-72250000D01*
X112872510Y-72252899D01*
X112872504Y-72252900D01*
X112714806Y-72298716D01*
X112714803Y-72298717D01*
X112573447Y-72382314D01*
X112573438Y-72382321D01*
X112457321Y-72498438D01*
X112457314Y-72498447D01*
X112373718Y-72639801D01*
X112327899Y-72797513D01*
X112327704Y-72799998D01*
X111412798Y-72799998D01*
X111343219Y-72777390D01*
X111146508Y-72746234D01*
X111115353Y-72741300D01*
X110884647Y-72741300D01*
X110857239Y-72745641D01*
X110656780Y-72777390D01*
X110485805Y-72832944D01*
X110437367Y-72848683D01*
X110437364Y-72848684D01*
X110437362Y-72848685D01*
X110231805Y-72953421D01*
X110167698Y-72999998D01*
X110045161Y-73089027D01*
X110045159Y-73089029D01*
X110045158Y-73089029D01*
X109882029Y-73252158D01*
X109882029Y-73252159D01*
X109882027Y-73252161D01*
X109852691Y-73292539D01*
X109746421Y-73438805D01*
X109641685Y-73644362D01*
X109570390Y-73863780D01*
X109534300Y-74091647D01*
X109534300Y-74173570D01*
X109514615Y-74240609D01*
X109461811Y-74286364D01*
X109392653Y-74296308D01*
X109329097Y-74267283D01*
X109322619Y-74261251D01*
X107636819Y-72575451D01*
X107622115Y-72548523D01*
X107605523Y-72522705D01*
X107604631Y-72516504D01*
X107603334Y-72514128D01*
X107600500Y-72487770D01*
X107600500Y-72379500D01*
X107620185Y-72312461D01*
X107672989Y-72266706D01*
X107724500Y-72255500D01*
X108215819Y-72255500D01*
X108215826Y-72255500D01*
X108346662Y-72238275D01*
X108473829Y-72204200D01*
X108595743Y-72153701D01*
X108709757Y-72087875D01*
X108814449Y-72007541D01*
X108907541Y-71914449D01*
X108987875Y-71809757D01*
X109029131Y-71738300D01*
X109079698Y-71690084D01*
X109136518Y-71676300D01*
X111903185Y-71676300D01*
X111987729Y-71659482D01*
X112028858Y-71651301D01*
X112147241Y-71602265D01*
X112156733Y-71595922D01*
X112158673Y-71594627D01*
X112190946Y-71573062D01*
X112253783Y-71531077D01*
X113993041Y-69791819D01*
X114054364Y-69758334D01*
X114080722Y-69755500D01*
X114350000Y-69755500D01*
X114421940Y-69750355D01*
X114459259Y-69739396D01*
X114511841Y-69735636D01*
X114650000Y-69755500D01*
X114650003Y-69755500D01*
X115215819Y-69755500D01*
X115215826Y-69755500D01*
X115346662Y-69738275D01*
X115473829Y-69704200D01*
X115595743Y-69653701D01*
X115709757Y-69587875D01*
X115814449Y-69507541D01*
X115907541Y-69414449D01*
X115987875Y-69309757D01*
X116053701Y-69195743D01*
X116104200Y-69073829D01*
X116138275Y-68946662D01*
X116155500Y-68815826D01*
X116155500Y-68184174D01*
X116138275Y-68053338D01*
X116104200Y-67926171D01*
X116053701Y-67804257D01*
X116053698Y-67804252D01*
X116053697Y-67804249D01*
X116053696Y-67804248D01*
X115987879Y-67690250D01*
X115987875Y-67690243D01*
X115957340Y-67650450D01*
X115907544Y-67585555D01*
X115907541Y-67585551D01*
X115836819Y-67514829D01*
X115803334Y-67453506D01*
X115800500Y-67427148D01*
X115800500Y-65810808D01*
X115809144Y-65781367D01*
X115815668Y-65751381D01*
X115819422Y-65746365D01*
X115820185Y-65743769D01*
X115836819Y-65723127D01*
X115977819Y-65582127D01*
X116039142Y-65548642D01*
X116108834Y-65553626D01*
G37*
%TD.AperFunction*%
%TA.AperFunction,Conductor*%
G36*
X129808085Y-64046185D02*
G01*
X129828727Y-64062819D01*
X130104227Y-64338319D01*
X130137712Y-64399642D01*
X130132728Y-64469334D01*
X130090856Y-64525267D01*
X130025392Y-64549684D01*
X130016546Y-64550000D01*
X129750000Y-64550000D01*
X129750000Y-65300000D01*
X130724999Y-65300000D01*
X130724999Y-65258452D01*
X130744684Y-65191413D01*
X130797488Y-65145658D01*
X130866646Y-65135714D01*
X130930202Y-65164739D01*
X130936672Y-65170764D01*
X131013308Y-65247399D01*
X132039971Y-66274062D01*
X132073456Y-66335385D01*
X132068472Y-66405077D01*
X132039972Y-66449424D01*
X131942702Y-66546694D01*
X131868820Y-66648385D01*
X131813490Y-66691051D01*
X131768502Y-66699500D01*
X130587230Y-66699500D01*
X130559963Y-66691493D01*
X130531984Y-66686513D01*
X130524384Y-66681046D01*
X130520191Y-66679815D01*
X130502946Y-66666452D01*
X130501227Y-66664859D01*
X130443656Y-66607288D01*
X130430036Y-66598887D01*
X130421156Y-66590658D01*
X130409212Y-66570635D01*
X130393618Y-66553297D01*
X130391647Y-66541186D01*
X130385364Y-66530652D01*
X130386141Y-66507349D01*
X130382397Y-66484334D01*
X130387285Y-66473082D01*
X130387695Y-66460821D01*
X130400948Y-66441637D01*
X130410240Y-66420252D01*
X130423898Y-66408418D01*
X130427409Y-66403336D01*
X130431947Y-66401443D01*
X130440348Y-66394165D01*
X130443342Y-66392318D01*
X130567315Y-66268345D01*
X130659356Y-66119124D01*
X130659358Y-66119119D01*
X130714505Y-65952697D01*
X130714506Y-65952690D01*
X130724999Y-65849986D01*
X130725000Y-65849973D01*
X130725000Y-65800000D01*
X128275001Y-65800000D01*
X128275001Y-65849986D01*
X128285494Y-65952697D01*
X128340641Y-66119119D01*
X128340643Y-66119124D01*
X128432684Y-66268345D01*
X128556655Y-66392316D01*
X128556659Y-66392319D01*
X128559656Y-66394168D01*
X128561279Y-66395972D01*
X128562323Y-66396798D01*
X128562181Y-66396976D01*
X128606381Y-66446116D01*
X128617602Y-66515079D01*
X128589759Y-66579161D01*
X128559661Y-66605241D01*
X128556349Y-66607283D01*
X128556343Y-66607288D01*
X128432289Y-66731342D01*
X128340187Y-66880663D01*
X128340186Y-66880666D01*
X128285001Y-67047203D01*
X128285001Y-67047204D01*
X128285000Y-67047204D01*
X128274500Y-67149983D01*
X128274500Y-67562769D01*
X128254815Y-67629808D01*
X128238181Y-67650450D01*
X127554548Y-68334083D01*
X127532621Y-68366900D01*
X127510839Y-68399501D01*
X127499296Y-68416777D01*
X127472416Y-68457004D01*
X127472412Y-68457011D01*
X127415843Y-68593582D01*
X127415841Y-68593591D01*
X127387341Y-68736862D01*
X127354955Y-68798772D01*
X127328846Y-68819401D01*
X127223135Y-68881919D01*
X127223129Y-68881923D01*
X127106923Y-68998129D01*
X127102139Y-69004298D01*
X127100232Y-69002819D01*
X127095544Y-69012618D01*
X127075833Y-69024792D01*
X127058897Y-69040589D01*
X127046672Y-69042805D01*
X127036100Y-69049336D01*
X127012938Y-69048921D01*
X126990149Y-69053054D01*
X126976971Y-69048278D01*
X126966241Y-69048087D01*
X126934405Y-69032854D01*
X126921269Y-69024077D01*
X126898958Y-69003290D01*
X126898597Y-69003652D01*
X126893082Y-68998137D01*
X126893081Y-68998135D01*
X126776865Y-68881919D01*
X126774746Y-68880666D01*
X126665107Y-68815826D01*
X126635398Y-68798256D01*
X126635397Y-68798255D01*
X126635396Y-68798255D01*
X126635393Y-68798254D01*
X126477573Y-68752402D01*
X126477567Y-68752401D01*
X126440701Y-68749500D01*
X126440694Y-68749500D01*
X125720808Y-68749500D01*
X125653769Y-68729815D01*
X125633127Y-68713181D01*
X124002174Y-67082227D01*
X124002173Y-67082226D01*
X123994066Y-67076809D01*
X123895627Y-67011035D01*
X123882305Y-67005517D01*
X123777244Y-66961999D01*
X123777238Y-66961997D01*
X123651571Y-66937000D01*
X123651569Y-66937000D01*
X123161668Y-66937000D01*
X123094629Y-66917315D01*
X123056130Y-66878097D01*
X123042714Y-66856347D01*
X123042711Y-66856343D01*
X122918657Y-66732289D01*
X122918656Y-66732288D01*
X122769334Y-66640186D01*
X122602797Y-66585001D01*
X122602795Y-66585000D01*
X122500010Y-66574500D01*
X121499998Y-66574500D01*
X121499980Y-66574501D01*
X121397203Y-66585000D01*
X121397200Y-66585001D01*
X121230668Y-66640185D01*
X121230663Y-66640187D01*
X121081342Y-66732289D01*
X120957289Y-66856342D01*
X120865187Y-67005663D01*
X120865185Y-67005668D01*
X120839817Y-67082223D01*
X120810001Y-67172203D01*
X120810001Y-67172204D01*
X120810000Y-67172204D01*
X120799500Y-67274983D01*
X120799500Y-67900001D01*
X120799501Y-67900019D01*
X120810000Y-68002796D01*
X120810001Y-68002799D01*
X120848618Y-68119336D01*
X120865186Y-68169334D01*
X120941284Y-68292710D01*
X120957289Y-68318657D01*
X121050951Y-68412319D01*
X121053798Y-68417534D01*
X121058728Y-68420856D01*
X121070353Y-68447851D01*
X121084436Y-68473642D01*
X121084012Y-68479568D01*
X121086363Y-68485028D01*
X121081548Y-68514021D01*
X121079452Y-68543334D01*
X121075639Y-68549603D01*
X121074917Y-68553954D01*
X121061576Y-68572728D01*
X121055194Y-68583223D01*
X121053137Y-68585494D01*
X120957288Y-68681344D01*
X120937894Y-68712785D01*
X120930256Y-68721223D01*
X120909775Y-68733763D01*
X120891922Y-68749822D01*
X120878608Y-68752847D01*
X120870669Y-68757709D01*
X120858390Y-68757441D01*
X120838332Y-68762000D01*
X119649730Y-68762000D01*
X119582691Y-68742315D01*
X119562049Y-68725681D01*
X119443658Y-68607290D01*
X119443656Y-68607288D01*
X119440819Y-68605538D01*
X119439283Y-68603830D01*
X119437989Y-68602807D01*
X119438163Y-68602585D01*
X119394096Y-68553594D01*
X119382872Y-68484632D01*
X119410713Y-68420549D01*
X119440817Y-68394462D01*
X119443656Y-68392712D01*
X119567712Y-68268656D01*
X119659814Y-68119334D01*
X119714999Y-67952797D01*
X119725500Y-67850009D01*
X119725499Y-67295806D01*
X119745183Y-67228768D01*
X119761813Y-67208131D01*
X122107127Y-64862819D01*
X122168450Y-64829334D01*
X122194808Y-64826500D01*
X123405068Y-64826500D01*
X123472107Y-64846185D01*
X123473959Y-64847398D01*
X123597137Y-64929703D01*
X123751918Y-64993816D01*
X123915700Y-65026394D01*
X123916228Y-65026499D01*
X123916232Y-65026500D01*
X123916233Y-65026500D01*
X124083762Y-65026500D01*
X124083767Y-65026500D01*
X124083771Y-65026499D01*
X124084837Y-65026394D01*
X124085396Y-65026500D01*
X124089859Y-65026500D01*
X124089859Y-65027345D01*
X124153484Y-65039407D01*
X124204198Y-65087468D01*
X124220878Y-65155318D01*
X124216776Y-65181888D01*
X124199223Y-65247399D01*
X124199223Y-65247400D01*
X124167844Y-65485745D01*
X124167843Y-65485762D01*
X124167843Y-65726170D01*
X124199222Y-65964522D01*
X124261448Y-66196752D01*
X124353447Y-66418857D01*
X124353452Y-66418868D01*
X124473651Y-66627057D01*
X124473662Y-66627073D01*
X124620008Y-66817796D01*
X124620014Y-66817803D01*
X124790002Y-66987791D01*
X124790009Y-66987797D01*
X124813299Y-67005668D01*
X124980741Y-67134150D01*
X124980748Y-67134154D01*
X125188937Y-67254353D01*
X125188942Y-67254355D01*
X125188945Y-67254357D01*
X125411058Y-67346359D01*
X125643280Y-67408583D01*
X125881636Y-67439963D01*
X125881643Y-67439963D01*
X126122043Y-67439963D01*
X126122050Y-67439963D01*
X126360406Y-67408583D01*
X126592628Y-67346359D01*
X126814741Y-67254357D01*
X127022945Y-67134150D01*
X127213678Y-66987796D01*
X127383676Y-66817798D01*
X127530030Y-66627065D01*
X127650237Y-66418861D01*
X127742239Y-66196748D01*
X127804463Y-65964526D01*
X127835843Y-65726170D01*
X127835843Y-65485756D01*
X127804807Y-65250013D01*
X128275000Y-65250013D01*
X128275000Y-65300000D01*
X129250000Y-65300000D01*
X129250000Y-64550000D01*
X128975029Y-64550000D01*
X128975012Y-64550001D01*
X128872302Y-64560494D01*
X128705880Y-64615641D01*
X128705875Y-64615643D01*
X128556654Y-64707684D01*
X128432684Y-64831654D01*
X128340643Y-64980875D01*
X128340641Y-64980880D01*
X128285494Y-65147302D01*
X128285493Y-65147309D01*
X128275000Y-65250013D01*
X127804807Y-65250013D01*
X127804463Y-65247400D01*
X127742239Y-65015178D01*
X127650237Y-64793065D01*
X127650235Y-64793062D01*
X127650233Y-64793057D01*
X127530034Y-64584868D01*
X127530030Y-64584861D01*
X127447040Y-64476706D01*
X127383677Y-64394129D01*
X127383671Y-64394122D01*
X127227730Y-64238181D01*
X127194245Y-64176858D01*
X127199229Y-64107166D01*
X127241101Y-64051233D01*
X127306565Y-64026816D01*
X127315411Y-64026500D01*
X129741046Y-64026500D01*
X129808085Y-64046185D01*
G37*
%TD.AperFunction*%
%TA.AperFunction,Conductor*%
G36*
X112988254Y-61369185D02*
G01*
X113034009Y-61421989D01*
X113043953Y-61491147D01*
X113039146Y-61511818D01*
X112983242Y-61683869D01*
X112983242Y-61683872D01*
X112950000Y-61893753D01*
X112950000Y-62106246D01*
X112983242Y-62316127D01*
X112983242Y-62316130D01*
X113048904Y-62518217D01*
X113145375Y-62707550D01*
X113184728Y-62761716D01*
X113817036Y-62129407D01*
X113834075Y-62192993D01*
X113899901Y-62307007D01*
X113992993Y-62400099D01*
X114107007Y-62465925D01*
X114170590Y-62482962D01*
X113538282Y-63115269D01*
X113538282Y-63115270D01*
X113592449Y-63154624D01*
X113781782Y-63251095D01*
X113983870Y-63316757D01*
X114193754Y-63350000D01*
X114406246Y-63350000D01*
X114616127Y-63316757D01*
X114616130Y-63316757D01*
X114818217Y-63251095D01*
X115007554Y-63154622D01*
X115061716Y-63115270D01*
X115061717Y-63115270D01*
X114429408Y-62482962D01*
X114492993Y-62465925D01*
X114607007Y-62400099D01*
X114700099Y-62307007D01*
X114765925Y-62192993D01*
X114782962Y-62129409D01*
X115415270Y-62761717D01*
X115415270Y-62761716D01*
X115454622Y-62707555D01*
X115459232Y-62698507D01*
X115507205Y-62647709D01*
X115575025Y-62630912D01*
X115641161Y-62653447D01*
X115680204Y-62698504D01*
X115684949Y-62707817D01*
X115809890Y-62879786D01*
X115809896Y-62879792D01*
X115960208Y-63030104D01*
X116132184Y-63155051D01*
X116132188Y-63155053D01*
X116136126Y-63157914D01*
X116135146Y-63159262D01*
X116177160Y-63205690D01*
X116189500Y-63259617D01*
X116189500Y-63525500D01*
X116169815Y-63592539D01*
X116117011Y-63638294D01*
X116065500Y-63649500D01*
X116056228Y-63649500D01*
X115891925Y-63682182D01*
X115891917Y-63682184D01*
X115737139Y-63746295D01*
X115597837Y-63839373D01*
X115479373Y-63957837D01*
X115386295Y-64097139D01*
X115322184Y-64251917D01*
X115322182Y-64251923D01*
X115293281Y-64397219D01*
X115260896Y-64459130D01*
X115259345Y-64460708D01*
X114644727Y-65075325D01*
X114644726Y-65075326D01*
X114587733Y-65160625D01*
X114587732Y-65160625D01*
X114573536Y-65181870D01*
X114573534Y-65181874D01*
X114524499Y-65300255D01*
X114524497Y-65300261D01*
X114499500Y-65425928D01*
X114499500Y-67122891D01*
X114479815Y-67189930D01*
X114427011Y-67235685D01*
X114357857Y-67245629D01*
X114350008Y-67244500D01*
X114350000Y-67244500D01*
X113784174Y-67244500D01*
X113784166Y-67244500D01*
X113667875Y-67259811D01*
X113653338Y-67261725D01*
X113653335Y-67261725D01*
X113653323Y-67261728D01*
X113628740Y-67268315D01*
X113558890Y-67266652D01*
X113508967Y-67236221D01*
X112442521Y-66169775D01*
X112409036Y-66108452D01*
X112412271Y-66043775D01*
X112429609Y-65990419D01*
X112465700Y-65762553D01*
X112465700Y-65531847D01*
X112436977Y-65350499D01*
X112429609Y-65303980D01*
X112393033Y-65191413D01*
X112358317Y-65084567D01*
X112253579Y-64879006D01*
X112117973Y-64692361D01*
X111954839Y-64529227D01*
X111899115Y-64488741D01*
X111885672Y-64471307D01*
X111884614Y-64472366D01*
X111084094Y-63671847D01*
X111171571Y-63648408D01*
X111272930Y-63589889D01*
X111355689Y-63507130D01*
X111414208Y-63405771D01*
X111437647Y-63318295D01*
X112197744Y-64078392D01*
X112197744Y-64078391D01*
X112253151Y-64002130D01*
X112253155Y-64002124D01*
X112357852Y-63796646D01*
X112429122Y-63577302D01*
X112465200Y-63349519D01*
X112465200Y-63118881D01*
X112460215Y-63087410D01*
X112460215Y-63087409D01*
X112429122Y-62891097D01*
X112357852Y-62671753D01*
X112253151Y-62466267D01*
X112197744Y-62390007D01*
X112197744Y-62390006D01*
X111437647Y-63150104D01*
X111414208Y-63062629D01*
X111355689Y-62961270D01*
X111272930Y-62878511D01*
X111171571Y-62819992D01*
X111084093Y-62796552D01*
X111844192Y-62036454D01*
X111844191Y-62036453D01*
X111767935Y-61981050D01*
X111562442Y-61876345D01*
X111537927Y-61868380D01*
X111480252Y-61828942D01*
X111453055Y-61764583D01*
X111464971Y-61695737D01*
X111488558Y-61662778D01*
X111765520Y-61385816D01*
X111826841Y-61352334D01*
X111853199Y-61349500D01*
X112921215Y-61349500D01*
X112988254Y-61369185D01*
G37*
%TD.AperFunction*%
%TD*%
M02*
