%TF.GenerationSoftware,KiCad,Pcbnew,9.0.3*%
%TF.CreationDate,2025-07-12T05:08:50-07:00*%
%TF.ProjectId,biased-CV-input,62696173-6564-42d4-9356-2d696e707574,rev?*%
%TF.SameCoordinates,Original*%
%TF.FileFunction,Soldermask,Bot*%
%TF.FilePolarity,Negative*%
%FSLAX46Y46*%
G04 Gerber Fmt 4.6, Leading zero omitted, Abs format (unit mm)*
G04 Created by KiCad (PCBNEW 9.0.3) date 2025-07-12 05:08:50*
%MOMM*%
%LPD*%
G01*
G04 APERTURE LIST*
G04 APERTURE END LIST*
G36*
X126322013Y-73060758D02*
G01*
X126526693Y-73127262D01*
X126718450Y-73224967D01*
X126892561Y-73351466D01*
X127044740Y-73503645D01*
X127171239Y-73677756D01*
X127268944Y-73869513D01*
X127335448Y-74074193D01*
X127369115Y-74286756D01*
X127369115Y-74501970D01*
X127335448Y-74714533D01*
X127268944Y-74919213D01*
X127171239Y-75110970D01*
X127044740Y-75285081D01*
X126892561Y-75437260D01*
X126718450Y-75563759D01*
X126526693Y-75661464D01*
X126322013Y-75727968D01*
X126109450Y-75761635D01*
X125894236Y-75761635D01*
X125681673Y-75727968D01*
X125476993Y-75661464D01*
X125285236Y-75563759D01*
X125111125Y-75437260D01*
X124958946Y-75285081D01*
X124832447Y-75110970D01*
X124734742Y-74919213D01*
X124668238Y-74714533D01*
X124634571Y-74501970D01*
X124634571Y-74286756D01*
X124668238Y-74074193D01*
X124734742Y-73869513D01*
X124832447Y-73677756D01*
X124958946Y-73503645D01*
X125111125Y-73351466D01*
X125285236Y-73224967D01*
X125476993Y-73127262D01*
X125681673Y-73060758D01*
X125894236Y-73027091D01*
X126109450Y-73027091D01*
X126322013Y-73060758D01*
G37*
G36*
X111291214Y-73246997D02*
G01*
X111472905Y-73322257D01*
X111636423Y-73431516D01*
X111775484Y-73570577D01*
X111884743Y-73734095D01*
X111960003Y-73915786D01*
X111998369Y-74108669D01*
X111998369Y-74305331D01*
X111960003Y-74498214D01*
X111884743Y-74679905D01*
X111775484Y-74843423D01*
X111636423Y-74982484D01*
X111472905Y-75091743D01*
X111291214Y-75167003D01*
X111098331Y-75205369D01*
X110901669Y-75205369D01*
X110708786Y-75167003D01*
X110527095Y-75091743D01*
X110363577Y-74982484D01*
X110224516Y-74843423D01*
X110115257Y-74679905D01*
X110039997Y-74498214D01*
X110001631Y-74305331D01*
X110001631Y-74108669D01*
X110039997Y-73915786D01*
X110115257Y-73734095D01*
X110224516Y-73570577D01*
X110363577Y-73431516D01*
X110527095Y-73322257D01*
X110708786Y-73246997D01*
X110901669Y-73208631D01*
X111098331Y-73208631D01*
X111291214Y-73246997D01*
G37*
G36*
X133285024Y-71640926D02*
G01*
X133455215Y-71711422D01*
X133608382Y-71813765D01*
X133738641Y-71944024D01*
X133840984Y-72097191D01*
X133911480Y-72267382D01*
X133947418Y-72448056D01*
X133947418Y-72632270D01*
X133911480Y-72812944D01*
X133840984Y-72983135D01*
X133738641Y-73136302D01*
X133608382Y-73266561D01*
X133455215Y-73368904D01*
X133285024Y-73439400D01*
X133104350Y-73475338D01*
X132920136Y-73475338D01*
X132739462Y-73439400D01*
X132569271Y-73368904D01*
X132416104Y-73266561D01*
X132285845Y-73136302D01*
X132183502Y-72983135D01*
X132113006Y-72812944D01*
X132077068Y-72632270D01*
X132077068Y-72448056D01*
X132113006Y-72267382D01*
X132183502Y-72097191D01*
X132285845Y-71944024D01*
X132416104Y-71813765D01*
X132569271Y-71711422D01*
X132739462Y-71640926D01*
X132920136Y-71604988D01*
X133104350Y-71604988D01*
X133285024Y-71640926D01*
G37*
G36*
X133285024Y-69100926D02*
G01*
X133455215Y-69171422D01*
X133608382Y-69273765D01*
X133738641Y-69404024D01*
X133840984Y-69557191D01*
X133911480Y-69727382D01*
X133947418Y-69908056D01*
X133947418Y-70092270D01*
X133911480Y-70272944D01*
X133840984Y-70443135D01*
X133738641Y-70596302D01*
X133608382Y-70726561D01*
X133455215Y-70828904D01*
X133285024Y-70899400D01*
X133104350Y-70935338D01*
X132920136Y-70935338D01*
X132739462Y-70899400D01*
X132569271Y-70828904D01*
X132416104Y-70726561D01*
X132285845Y-70596302D01*
X132183502Y-70443135D01*
X132113006Y-70272944D01*
X132077068Y-70092270D01*
X132077068Y-69908056D01*
X132113006Y-69727382D01*
X132183502Y-69557191D01*
X132285845Y-69404024D01*
X132416104Y-69273765D01*
X132569271Y-69171422D01*
X132739462Y-69100926D01*
X132920136Y-69064988D01*
X133104350Y-69064988D01*
X133285024Y-69100926D01*
G37*
G36*
X133285024Y-66560926D02*
G01*
X133455215Y-66631422D01*
X133608382Y-66733765D01*
X133738641Y-66864024D01*
X133840984Y-67017191D01*
X133911480Y-67187382D01*
X133947418Y-67368056D01*
X133947418Y-67552270D01*
X133911480Y-67732944D01*
X133840984Y-67903135D01*
X133738641Y-68056302D01*
X133608382Y-68186561D01*
X133455215Y-68288904D01*
X133285024Y-68359400D01*
X133104350Y-68395338D01*
X132920136Y-68395338D01*
X132739462Y-68359400D01*
X132569271Y-68288904D01*
X132416104Y-68186561D01*
X132285845Y-68056302D01*
X132183502Y-67903135D01*
X132113006Y-67732944D01*
X132077068Y-67552270D01*
X132077068Y-67368056D01*
X132113006Y-67187382D01*
X132183502Y-67017191D01*
X132285845Y-66864024D01*
X132416104Y-66733765D01*
X132569271Y-66631422D01*
X132739462Y-66560926D01*
X132920136Y-66524988D01*
X133104350Y-66524988D01*
X133285024Y-66560926D01*
G37*
G36*
X126322013Y-64272358D02*
G01*
X126526693Y-64338862D01*
X126718450Y-64436567D01*
X126892561Y-64563066D01*
X127044740Y-64715245D01*
X127171239Y-64889356D01*
X127268944Y-65081113D01*
X127335448Y-65285793D01*
X127369115Y-65498356D01*
X127369115Y-65713570D01*
X127335448Y-65926133D01*
X127268944Y-66130813D01*
X127171239Y-66322570D01*
X127044740Y-66496681D01*
X126892561Y-66648860D01*
X126718450Y-66775359D01*
X126526693Y-66873064D01*
X126322013Y-66939568D01*
X126109450Y-66973235D01*
X125894236Y-66973235D01*
X125681673Y-66939568D01*
X125476993Y-66873064D01*
X125285236Y-66775359D01*
X125111125Y-66648860D01*
X124958946Y-66496681D01*
X124832447Y-66322570D01*
X124734742Y-66130813D01*
X124668238Y-65926133D01*
X124634571Y-65713570D01*
X124634571Y-65498356D01*
X124668238Y-65285793D01*
X124734742Y-65081113D01*
X124832447Y-64889356D01*
X124958946Y-64715245D01*
X125111125Y-64563066D01*
X125285236Y-64436567D01*
X125476993Y-64338862D01*
X125681673Y-64272358D01*
X125894236Y-64238691D01*
X126109450Y-64238691D01*
X126322013Y-64272358D01*
G37*
G36*
X111291214Y-64687197D02*
G01*
X111472905Y-64762457D01*
X111636423Y-64871716D01*
X111775484Y-65010777D01*
X111884743Y-65174295D01*
X111960003Y-65355986D01*
X111998369Y-65548869D01*
X111998369Y-65745531D01*
X111960003Y-65938414D01*
X111884743Y-66120105D01*
X111775484Y-66283623D01*
X111636423Y-66422684D01*
X111472905Y-66531943D01*
X111291214Y-66607203D01*
X111098331Y-66645569D01*
X110901669Y-66645569D01*
X110708786Y-66607203D01*
X110527095Y-66531943D01*
X110363577Y-66422684D01*
X110224516Y-66283623D01*
X110115257Y-66120105D01*
X110039997Y-65938414D01*
X110001631Y-65745531D01*
X110001631Y-65548869D01*
X110039997Y-65355986D01*
X110115257Y-65174295D01*
X110224516Y-65010777D01*
X110363577Y-64871716D01*
X110527095Y-64762457D01*
X110708786Y-64687197D01*
X110901669Y-64648831D01*
X111098331Y-64648831D01*
X111291214Y-64687197D01*
G37*
G36*
X111291214Y-62274197D02*
G01*
X111472905Y-62349457D01*
X111636423Y-62458716D01*
X111775484Y-62597777D01*
X111884743Y-62761295D01*
X111960003Y-62942986D01*
X111998369Y-63135869D01*
X111998369Y-63332531D01*
X111960003Y-63525414D01*
X111884743Y-63707105D01*
X111775484Y-63870623D01*
X111636423Y-64009684D01*
X111472905Y-64118943D01*
X111291214Y-64194203D01*
X111098331Y-64232569D01*
X110901669Y-64232569D01*
X110708786Y-64194203D01*
X110527095Y-64118943D01*
X110363577Y-64009684D01*
X110224516Y-63870623D01*
X110115257Y-63707105D01*
X110039997Y-63525414D01*
X110001631Y-63332531D01*
X110001631Y-63135869D01*
X110039997Y-62942986D01*
X110115257Y-62761295D01*
X110224516Y-62597777D01*
X110363577Y-62458716D01*
X110527095Y-62349457D01*
X110708786Y-62274197D01*
X110901669Y-62235831D01*
X111098331Y-62235831D01*
X111291214Y-62274197D01*
G37*
G36*
X122784542Y-61114893D02*
G01*
X122796870Y-61123130D01*
X122805107Y-61135458D01*
X122808000Y-61150000D01*
X122808000Y-62850000D01*
X122805107Y-62864542D01*
X122796870Y-62876870D01*
X122784542Y-62885107D01*
X122770000Y-62888000D01*
X121070000Y-62888000D01*
X121055458Y-62885107D01*
X121043130Y-62876870D01*
X121034893Y-62864542D01*
X121032000Y-62850000D01*
X121032000Y-61150000D01*
X121034893Y-61135458D01*
X121043130Y-61123130D01*
X121055458Y-61114893D01*
X121070000Y-61112000D01*
X122770000Y-61112000D01*
X122784542Y-61114893D01*
G37*
G36*
X114557773Y-61150237D02*
G01*
X114718600Y-61216854D01*
X114863341Y-61313567D01*
X114986433Y-61436659D01*
X115083146Y-61581400D01*
X115149763Y-61742227D01*
X115183724Y-61912961D01*
X115183724Y-62087039D01*
X115149763Y-62257773D01*
X115083146Y-62418600D01*
X114986433Y-62563341D01*
X114863341Y-62686433D01*
X114718600Y-62783146D01*
X114557773Y-62849763D01*
X114387039Y-62883724D01*
X114212961Y-62883724D01*
X114042227Y-62849763D01*
X113881400Y-62783146D01*
X113736659Y-62686433D01*
X113613567Y-62563341D01*
X113516854Y-62418600D01*
X113450237Y-62257773D01*
X113416276Y-62087039D01*
X113416276Y-61912961D01*
X113450237Y-61742227D01*
X113516854Y-61581400D01*
X113613567Y-61436659D01*
X113736659Y-61313567D01*
X113881400Y-61216854D01*
X114042227Y-61150237D01*
X114212961Y-61116276D01*
X114387039Y-61116276D01*
X114557773Y-61150237D01*
G37*
G36*
X117097773Y-61150237D02*
G01*
X117258600Y-61216854D01*
X117403341Y-61313567D01*
X117526433Y-61436659D01*
X117623146Y-61581400D01*
X117689763Y-61742227D01*
X117723724Y-61912961D01*
X117723724Y-62087039D01*
X117689763Y-62257773D01*
X117623146Y-62418600D01*
X117526433Y-62563341D01*
X117403341Y-62686433D01*
X117258600Y-62783146D01*
X117097773Y-62849763D01*
X116927039Y-62883724D01*
X116752961Y-62883724D01*
X116582227Y-62849763D01*
X116421400Y-62783146D01*
X116276659Y-62686433D01*
X116153567Y-62563341D01*
X116056854Y-62418600D01*
X115990237Y-62257773D01*
X115956276Y-62087039D01*
X115956276Y-61912961D01*
X115990237Y-61742227D01*
X116056854Y-61581400D01*
X116153567Y-61436659D01*
X116276659Y-61313567D01*
X116421400Y-61216854D01*
X116582227Y-61150237D01*
X116752961Y-61116276D01*
X116927039Y-61116276D01*
X117097773Y-61150237D01*
G37*
G36*
X119637773Y-61150237D02*
G01*
X119798600Y-61216854D01*
X119943341Y-61313567D01*
X120066433Y-61436659D01*
X120163146Y-61581400D01*
X120229763Y-61742227D01*
X120263724Y-61912961D01*
X120263724Y-62087039D01*
X120229763Y-62257773D01*
X120163146Y-62418600D01*
X120066433Y-62563341D01*
X119943341Y-62686433D01*
X119798600Y-62783146D01*
X119637773Y-62849763D01*
X119467039Y-62883724D01*
X119292961Y-62883724D01*
X119122227Y-62849763D01*
X118961400Y-62783146D01*
X118816659Y-62686433D01*
X118693567Y-62563341D01*
X118596854Y-62418600D01*
X118530237Y-62257773D01*
X118496276Y-62087039D01*
X118496276Y-61912961D01*
X118530237Y-61742227D01*
X118596854Y-61581400D01*
X118693567Y-61436659D01*
X118816659Y-61313567D01*
X118961400Y-61216854D01*
X119122227Y-61150237D01*
X119292961Y-61116276D01*
X119467039Y-61116276D01*
X119637773Y-61150237D01*
G37*
M02*
