M48
; DRILL file {KiCad 9.0.3} date 2025-07-12T05:08:50-0700
; FORMAT={-:-/ absolute / inch / decimal}
; #@! TF.CreationDate,2025-07-12T05:08:50-07:00
; #@! TF.GenerationSoftware,Kicad,Pcbnew,9.0.3
; #@! TF.FileFunction,Plated,1,2,PTH
FMAT,2
INCH
; #@! TA.AperFunction,Plated,PTH,ViaDrill
T1C0.0118
; #@! TA.AperFunction,Plated,PTH,ComponentDrill
T2C0.0350
; #@! TA.AperFunction,Plated,PTH,ComponentDrill
T3C0.0394
; #@! TA.AperFunction,Plated,PTH,ComponentDrill
T4C0.0450
; #@! TA.AperFunction,Plated,PTH,ComponentDrill
T5C0.0810
%
G90
G05
T1
X4.1929Y-2.5
X4.1929Y-2.6772
X4.2656Y-2.5197
X4.2717Y-2.4213
X4.3307Y-2.8346
X4.4094Y-2.8543
X4.4488Y-2.6181
X4.4685Y-2.5197
X4.5724Y-2.5394
X4.5866Y-2.815
X4.6276Y-2.5394
X4.6654Y-2.9724
X4.7441Y-2.815
X4.8425Y-2.5984
X4.8622Y-2.815
X4.8622Y-2.9724
X4.8819Y-2.4557
X4.8819Y-2.5266
X4.9016Y-2.7756
X5.0394Y-2.6181
X5.0591Y-2.9724
X5.0984Y-2.5266
X5.1378Y-2.4409
X5.2165Y-2.4803
X5.2165Y-2.9331
T2
X4.3701Y-2.4895
X5.2367Y-2.6559
X5.2367Y-2.7559
X5.2367Y-2.8559
T3
X4.5Y-2.4409
X4.6Y-2.4409
X4.7Y-2.4409
X4.8Y-2.4409
T4
X4.3701Y-2.5845
X4.3701Y-2.9215
T5
X4.9607Y-2.5829
X4.9607Y-2.9289
M30
