%TF.GenerationSoftware,KiCad,Pcbnew,9.0.3*%
%TF.CreationDate,2025-07-12T05:08:50-07:00*%
%TF.ProjectId,biased-CV-input,62696173-6564-42d4-9356-2d696e707574,rev?*%
%TF.SameCoordinates,Original*%
%TF.FileFunction,Legend,Top*%
%TF.FilePolarity,Positive*%
%FSLAX46Y46*%
G04 Gerber Fmt 4.6, Leading zero omitted, Abs format (unit mm)*
G04 Created by KiCad (PCBNEW 9.0.3) date 2025-07-12 05:08:50*
%MOMM*%
%LPD*%
G01*
G04 APERTURE LIST*
%ADD10C,0.150000*%
%ADD11C,0.120000*%
G04 APERTURE END LIST*
D10*
X106809524Y-63954819D02*
X106809524Y-62954819D01*
X106809524Y-62954819D02*
X107380952Y-63954819D01*
X107380952Y-63954819D02*
X107380952Y-62954819D01*
X108333333Y-63954819D02*
X107857143Y-63954819D01*
X107857143Y-63954819D02*
X107857143Y-62954819D01*
X121374819Y-65338077D02*
X122374819Y-65004744D01*
X122374819Y-65004744D02*
X121374819Y-64671411D01*
X121993866Y-64338077D02*
X121993866Y-63576173D01*
X122374819Y-63957125D02*
X121612914Y-63957125D01*
X113906541Y-64399390D02*
X114858922Y-64399390D01*
X114097017Y-64685104D02*
X114668445Y-64685104D01*
X114382731Y-63970819D02*
X114382731Y-64399390D01*
X114477969Y-64970819D02*
X114287493Y-64970819D01*
X117199580Y-64623792D02*
X117247200Y-64671411D01*
X117247200Y-64671411D02*
X117294819Y-64814268D01*
X117294819Y-64814268D02*
X117294819Y-64909506D01*
X117294819Y-64909506D02*
X117247200Y-65052363D01*
X117247200Y-65052363D02*
X117151961Y-65147601D01*
X117151961Y-65147601D02*
X117056723Y-65195220D01*
X117056723Y-65195220D02*
X116866247Y-65242839D01*
X116866247Y-65242839D02*
X116723390Y-65242839D01*
X116723390Y-65242839D02*
X116532914Y-65195220D01*
X116532914Y-65195220D02*
X116437676Y-65147601D01*
X116437676Y-65147601D02*
X116342438Y-65052363D01*
X116342438Y-65052363D02*
X116294819Y-64909506D01*
X116294819Y-64909506D02*
X116294819Y-64814268D01*
X116294819Y-64814268D02*
X116342438Y-64671411D01*
X116342438Y-64671411D02*
X116390057Y-64623792D01*
X116294819Y-64338077D02*
X117294819Y-64004744D01*
X117294819Y-64004744D02*
X116294819Y-63671411D01*
X106690476Y-69454819D02*
X106690476Y-68454819D01*
X106690476Y-68454819D02*
X107261904Y-69454819D01*
X107261904Y-69454819D02*
X107261904Y-68454819D01*
X107738095Y-69454819D02*
X107738095Y-68454819D01*
X107738095Y-68931009D02*
X108309523Y-68931009D01*
X108309523Y-69454819D02*
X108309523Y-68454819D01*
X114278857Y-65954819D02*
X114278857Y-66669104D01*
X114278857Y-66669104D02*
X114231238Y-66811961D01*
X114231238Y-66811961D02*
X114136000Y-66907200D01*
X114136000Y-66907200D02*
X113993143Y-66954819D01*
X113993143Y-66954819D02*
X113897905Y-66954819D01*
X114755048Y-66954819D02*
X114755048Y-65954819D01*
X114755048Y-65954819D02*
X114993143Y-65954819D01*
X114993143Y-65954819D02*
X115136000Y-66002438D01*
X115136000Y-66002438D02*
X115231238Y-66097676D01*
X115231238Y-66097676D02*
X115278857Y-66192914D01*
X115278857Y-66192914D02*
X115326476Y-66383390D01*
X115326476Y-66383390D02*
X115326476Y-66526247D01*
X115326476Y-66526247D02*
X115278857Y-66716723D01*
X115278857Y-66716723D02*
X115231238Y-66811961D01*
X115231238Y-66811961D02*
X115136000Y-66907200D01*
X115136000Y-66907200D02*
X114993143Y-66954819D01*
X114993143Y-66954819D02*
X114755048Y-66954819D01*
X118834819Y-64909506D02*
X119549104Y-64909506D01*
X119549104Y-64909506D02*
X119691961Y-64957125D01*
X119691961Y-64957125D02*
X119787200Y-65052363D01*
X119787200Y-65052363D02*
X119834819Y-65195220D01*
X119834819Y-65195220D02*
X119834819Y-65290458D01*
X119834819Y-64433315D02*
X118834819Y-64433315D01*
X118834819Y-64433315D02*
X118834819Y-64195220D01*
X118834819Y-64195220D02*
X118882438Y-64052363D01*
X118882438Y-64052363D02*
X118977676Y-63957125D01*
X118977676Y-63957125D02*
X119072914Y-63909506D01*
X119072914Y-63909506D02*
X119263390Y-63861887D01*
X119263390Y-63861887D02*
X119406247Y-63861887D01*
X119406247Y-63861887D02*
X119596723Y-63909506D01*
X119596723Y-63909506D02*
X119691961Y-63957125D01*
X119691961Y-63957125D02*
X119787200Y-64052363D01*
X119787200Y-64052363D02*
X119834819Y-64195220D01*
X119834819Y-64195220D02*
X119834819Y-64433315D01*
X127833333Y-64039580D02*
X127785714Y-64087200D01*
X127785714Y-64087200D02*
X127642857Y-64134819D01*
X127642857Y-64134819D02*
X127547619Y-64134819D01*
X127547619Y-64134819D02*
X127404762Y-64087200D01*
X127404762Y-64087200D02*
X127309524Y-63991961D01*
X127309524Y-63991961D02*
X127261905Y-63896723D01*
X127261905Y-63896723D02*
X127214286Y-63706247D01*
X127214286Y-63706247D02*
X127214286Y-63563390D01*
X127214286Y-63563390D02*
X127261905Y-63372914D01*
X127261905Y-63372914D02*
X127309524Y-63277676D01*
X127309524Y-63277676D02*
X127404762Y-63182438D01*
X127404762Y-63182438D02*
X127547619Y-63134819D01*
X127547619Y-63134819D02*
X127642857Y-63134819D01*
X127642857Y-63134819D02*
X127785714Y-63182438D01*
X127785714Y-63182438D02*
X127833333Y-63230057D01*
X128166667Y-63134819D02*
X128785714Y-63134819D01*
X128785714Y-63134819D02*
X128452381Y-63515771D01*
X128452381Y-63515771D02*
X128595238Y-63515771D01*
X128595238Y-63515771D02*
X128690476Y-63563390D01*
X128690476Y-63563390D02*
X128738095Y-63611009D01*
X128738095Y-63611009D02*
X128785714Y-63706247D01*
X128785714Y-63706247D02*
X128785714Y-63944342D01*
X128785714Y-63944342D02*
X128738095Y-64039580D01*
X128738095Y-64039580D02*
X128690476Y-64087200D01*
X128690476Y-64087200D02*
X128595238Y-64134819D01*
X128595238Y-64134819D02*
X128309524Y-64134819D01*
X128309524Y-64134819D02*
X128214286Y-64087200D01*
X128214286Y-64087200D02*
X128166667Y-64039580D01*
X123754819Y-62333333D02*
X124469104Y-62333333D01*
X124469104Y-62333333D02*
X124611961Y-62380952D01*
X124611961Y-62380952D02*
X124707200Y-62476190D01*
X124707200Y-62476190D02*
X124754819Y-62619047D01*
X124754819Y-62619047D02*
X124754819Y-62714285D01*
X123850057Y-61904761D02*
X123802438Y-61857142D01*
X123802438Y-61857142D02*
X123754819Y-61761904D01*
X123754819Y-61761904D02*
X123754819Y-61523809D01*
X123754819Y-61523809D02*
X123802438Y-61428571D01*
X123802438Y-61428571D02*
X123850057Y-61380952D01*
X123850057Y-61380952D02*
X123945295Y-61333333D01*
X123945295Y-61333333D02*
X124040533Y-61333333D01*
X124040533Y-61333333D02*
X124183390Y-61380952D01*
X124183390Y-61380952D02*
X124754819Y-61952380D01*
X124754819Y-61952380D02*
X124754819Y-61333333D01*
X118333333Y-71359580D02*
X118285714Y-71407200D01*
X118285714Y-71407200D02*
X118142857Y-71454819D01*
X118142857Y-71454819D02*
X118047619Y-71454819D01*
X118047619Y-71454819D02*
X117904762Y-71407200D01*
X117904762Y-71407200D02*
X117809524Y-71311961D01*
X117809524Y-71311961D02*
X117761905Y-71216723D01*
X117761905Y-71216723D02*
X117714286Y-71026247D01*
X117714286Y-71026247D02*
X117714286Y-70883390D01*
X117714286Y-70883390D02*
X117761905Y-70692914D01*
X117761905Y-70692914D02*
X117809524Y-70597676D01*
X117809524Y-70597676D02*
X117904762Y-70502438D01*
X117904762Y-70502438D02*
X118047619Y-70454819D01*
X118047619Y-70454819D02*
X118142857Y-70454819D01*
X118142857Y-70454819D02*
X118285714Y-70502438D01*
X118285714Y-70502438D02*
X118333333Y-70550057D01*
X119285714Y-71454819D02*
X118714286Y-71454819D01*
X119000000Y-71454819D02*
X119000000Y-70454819D01*
X119000000Y-70454819D02*
X118904762Y-70597676D01*
X118904762Y-70597676D02*
X118809524Y-70692914D01*
X118809524Y-70692914D02*
X118714286Y-70740533D01*
X121833333Y-75954819D02*
X121500000Y-75478628D01*
X121261905Y-75954819D02*
X121261905Y-74954819D01*
X121261905Y-74954819D02*
X121642857Y-74954819D01*
X121642857Y-74954819D02*
X121738095Y-75002438D01*
X121738095Y-75002438D02*
X121785714Y-75050057D01*
X121785714Y-75050057D02*
X121833333Y-75145295D01*
X121833333Y-75145295D02*
X121833333Y-75288152D01*
X121833333Y-75288152D02*
X121785714Y-75383390D01*
X121785714Y-75383390D02*
X121738095Y-75431009D01*
X121738095Y-75431009D02*
X121642857Y-75478628D01*
X121642857Y-75478628D02*
X121261905Y-75478628D01*
X122214286Y-75050057D02*
X122261905Y-75002438D01*
X122261905Y-75002438D02*
X122357143Y-74954819D01*
X122357143Y-74954819D02*
X122595238Y-74954819D01*
X122595238Y-74954819D02*
X122690476Y-75002438D01*
X122690476Y-75002438D02*
X122738095Y-75050057D01*
X122738095Y-75050057D02*
X122785714Y-75145295D01*
X122785714Y-75145295D02*
X122785714Y-75240533D01*
X122785714Y-75240533D02*
X122738095Y-75383390D01*
X122738095Y-75383390D02*
X122166667Y-75954819D01*
X122166667Y-75954819D02*
X122785714Y-75954819D01*
X126238095Y-67554819D02*
X126238095Y-68364342D01*
X126238095Y-68364342D02*
X126285714Y-68459580D01*
X126285714Y-68459580D02*
X126333333Y-68507200D01*
X126333333Y-68507200D02*
X126428571Y-68554819D01*
X126428571Y-68554819D02*
X126619047Y-68554819D01*
X126619047Y-68554819D02*
X126714285Y-68507200D01*
X126714285Y-68507200D02*
X126761904Y-68459580D01*
X126761904Y-68459580D02*
X126809523Y-68364342D01*
X126809523Y-68364342D02*
X126809523Y-67554819D01*
X127809523Y-68554819D02*
X127238095Y-68554819D01*
X127523809Y-68554819D02*
X127523809Y-67554819D01*
X127523809Y-67554819D02*
X127428571Y-67697676D01*
X127428571Y-67697676D02*
X127333333Y-67792914D01*
X127333333Y-67792914D02*
X127238095Y-67840533D01*
X130333333Y-69359580D02*
X130285714Y-69407200D01*
X130285714Y-69407200D02*
X130142857Y-69454819D01*
X130142857Y-69454819D02*
X130047619Y-69454819D01*
X130047619Y-69454819D02*
X129904762Y-69407200D01*
X129904762Y-69407200D02*
X129809524Y-69311961D01*
X129809524Y-69311961D02*
X129761905Y-69216723D01*
X129761905Y-69216723D02*
X129714286Y-69026247D01*
X129714286Y-69026247D02*
X129714286Y-68883390D01*
X129714286Y-68883390D02*
X129761905Y-68692914D01*
X129761905Y-68692914D02*
X129809524Y-68597676D01*
X129809524Y-68597676D02*
X129904762Y-68502438D01*
X129904762Y-68502438D02*
X130047619Y-68454819D01*
X130047619Y-68454819D02*
X130142857Y-68454819D01*
X130142857Y-68454819D02*
X130285714Y-68502438D01*
X130285714Y-68502438D02*
X130333333Y-68550057D01*
X130714286Y-68550057D02*
X130761905Y-68502438D01*
X130761905Y-68502438D02*
X130857143Y-68454819D01*
X130857143Y-68454819D02*
X131095238Y-68454819D01*
X131095238Y-68454819D02*
X131190476Y-68502438D01*
X131190476Y-68502438D02*
X131238095Y-68550057D01*
X131238095Y-68550057D02*
X131285714Y-68645295D01*
X131285714Y-68645295D02*
X131285714Y-68740533D01*
X131285714Y-68740533D02*
X131238095Y-68883390D01*
X131238095Y-68883390D02*
X130666667Y-69454819D01*
X130666667Y-69454819D02*
X131285714Y-69454819D01*
X116761905Y-74454819D02*
X116761905Y-73454819D01*
X116761905Y-73454819D02*
X117000000Y-73454819D01*
X117000000Y-73454819D02*
X117142857Y-73502438D01*
X117142857Y-73502438D02*
X117238095Y-73597676D01*
X117238095Y-73597676D02*
X117285714Y-73692914D01*
X117285714Y-73692914D02*
X117333333Y-73883390D01*
X117333333Y-73883390D02*
X117333333Y-74026247D01*
X117333333Y-74026247D02*
X117285714Y-74216723D01*
X117285714Y-74216723D02*
X117238095Y-74311961D01*
X117238095Y-74311961D02*
X117142857Y-74407200D01*
X117142857Y-74407200D02*
X117000000Y-74454819D01*
X117000000Y-74454819D02*
X116761905Y-74454819D01*
X118285714Y-74454819D02*
X117714286Y-74454819D01*
X118000000Y-74454819D02*
X118000000Y-73454819D01*
X118000000Y-73454819D02*
X117904762Y-73597676D01*
X117904762Y-73597676D02*
X117809524Y-73692914D01*
X117809524Y-73692914D02*
X117714286Y-73740533D01*
X121833333Y-71454819D02*
X121500000Y-70978628D01*
X121261905Y-71454819D02*
X121261905Y-70454819D01*
X121261905Y-70454819D02*
X121642857Y-70454819D01*
X121642857Y-70454819D02*
X121738095Y-70502438D01*
X121738095Y-70502438D02*
X121785714Y-70550057D01*
X121785714Y-70550057D02*
X121833333Y-70645295D01*
X121833333Y-70645295D02*
X121833333Y-70788152D01*
X121833333Y-70788152D02*
X121785714Y-70883390D01*
X121785714Y-70883390D02*
X121738095Y-70931009D01*
X121738095Y-70931009D02*
X121642857Y-70978628D01*
X121642857Y-70978628D02*
X121261905Y-70978628D01*
X122166667Y-70454819D02*
X122785714Y-70454819D01*
X122785714Y-70454819D02*
X122452381Y-70835771D01*
X122452381Y-70835771D02*
X122595238Y-70835771D01*
X122595238Y-70835771D02*
X122690476Y-70883390D01*
X122690476Y-70883390D02*
X122738095Y-70931009D01*
X122738095Y-70931009D02*
X122785714Y-71026247D01*
X122785714Y-71026247D02*
X122785714Y-71264342D01*
X122785714Y-71264342D02*
X122738095Y-71359580D01*
X122738095Y-71359580D02*
X122690476Y-71407200D01*
X122690476Y-71407200D02*
X122595238Y-71454819D01*
X122595238Y-71454819D02*
X122309524Y-71454819D01*
X122309524Y-71454819D02*
X122214286Y-71407200D01*
X122214286Y-71407200D02*
X122166667Y-71359580D01*
X106666666Y-66754819D02*
X106666666Y-67469104D01*
X106666666Y-67469104D02*
X106619047Y-67611961D01*
X106619047Y-67611961D02*
X106523809Y-67707200D01*
X106523809Y-67707200D02*
X106380952Y-67754819D01*
X106380952Y-67754819D02*
X106285714Y-67754819D01*
X107142857Y-67754819D02*
X107142857Y-66754819D01*
X107142857Y-66754819D02*
X107523809Y-66754819D01*
X107523809Y-66754819D02*
X107619047Y-66802438D01*
X107619047Y-66802438D02*
X107666666Y-66850057D01*
X107666666Y-66850057D02*
X107714285Y-66945295D01*
X107714285Y-66945295D02*
X107714285Y-67088152D01*
X107714285Y-67088152D02*
X107666666Y-67183390D01*
X107666666Y-67183390D02*
X107619047Y-67231009D01*
X107619047Y-67231009D02*
X107523809Y-67278628D01*
X107523809Y-67278628D02*
X107142857Y-67278628D01*
X108095238Y-66850057D02*
X108142857Y-66802438D01*
X108142857Y-66802438D02*
X108238095Y-66754819D01*
X108238095Y-66754819D02*
X108476190Y-66754819D01*
X108476190Y-66754819D02*
X108571428Y-66802438D01*
X108571428Y-66802438D02*
X108619047Y-66850057D01*
X108619047Y-66850057D02*
X108666666Y-66945295D01*
X108666666Y-66945295D02*
X108666666Y-67040533D01*
X108666666Y-67040533D02*
X108619047Y-67183390D01*
X108619047Y-67183390D02*
X108047619Y-67754819D01*
X108047619Y-67754819D02*
X108666666Y-67754819D01*
X113666666Y-69954819D02*
X113666666Y-70669104D01*
X113666666Y-70669104D02*
X113619047Y-70811961D01*
X113619047Y-70811961D02*
X113523809Y-70907200D01*
X113523809Y-70907200D02*
X113380952Y-70954819D01*
X113380952Y-70954819D02*
X113285714Y-70954819D01*
X114142857Y-70954819D02*
X114142857Y-69954819D01*
X114142857Y-69954819D02*
X114523809Y-69954819D01*
X114523809Y-69954819D02*
X114619047Y-70002438D01*
X114619047Y-70002438D02*
X114666666Y-70050057D01*
X114666666Y-70050057D02*
X114714285Y-70145295D01*
X114714285Y-70145295D02*
X114714285Y-70288152D01*
X114714285Y-70288152D02*
X114666666Y-70383390D01*
X114666666Y-70383390D02*
X114619047Y-70431009D01*
X114619047Y-70431009D02*
X114523809Y-70478628D01*
X114523809Y-70478628D02*
X114142857Y-70478628D01*
X115047619Y-69954819D02*
X115666666Y-69954819D01*
X115666666Y-69954819D02*
X115333333Y-70335771D01*
X115333333Y-70335771D02*
X115476190Y-70335771D01*
X115476190Y-70335771D02*
X115571428Y-70383390D01*
X115571428Y-70383390D02*
X115619047Y-70431009D01*
X115619047Y-70431009D02*
X115666666Y-70526247D01*
X115666666Y-70526247D02*
X115666666Y-70764342D01*
X115666666Y-70764342D02*
X115619047Y-70859580D01*
X115619047Y-70859580D02*
X115571428Y-70907200D01*
X115571428Y-70907200D02*
X115476190Y-70954819D01*
X115476190Y-70954819D02*
X115190476Y-70954819D01*
X115190476Y-70954819D02*
X115095238Y-70907200D01*
X115095238Y-70907200D02*
X115047619Y-70859580D01*
X129833333Y-75954819D02*
X129500000Y-75478628D01*
X129261905Y-75954819D02*
X129261905Y-74954819D01*
X129261905Y-74954819D02*
X129642857Y-74954819D01*
X129642857Y-74954819D02*
X129738095Y-75002438D01*
X129738095Y-75002438D02*
X129785714Y-75050057D01*
X129785714Y-75050057D02*
X129833333Y-75145295D01*
X129833333Y-75145295D02*
X129833333Y-75288152D01*
X129833333Y-75288152D02*
X129785714Y-75383390D01*
X129785714Y-75383390D02*
X129738095Y-75431009D01*
X129738095Y-75431009D02*
X129642857Y-75478628D01*
X129642857Y-75478628D02*
X129261905Y-75478628D01*
X130785714Y-75954819D02*
X130214286Y-75954819D01*
X130500000Y-75954819D02*
X130500000Y-74954819D01*
X130500000Y-74954819D02*
X130404762Y-75097676D01*
X130404762Y-75097676D02*
X130309524Y-75192914D01*
X130309524Y-75192914D02*
X130214286Y-75240533D01*
X106666666Y-72254819D02*
X106666666Y-72969104D01*
X106666666Y-72969104D02*
X106619047Y-73111961D01*
X106619047Y-73111961D02*
X106523809Y-73207200D01*
X106523809Y-73207200D02*
X106380952Y-73254819D01*
X106380952Y-73254819D02*
X106285714Y-73254819D01*
X107142857Y-73254819D02*
X107142857Y-72254819D01*
X107142857Y-72254819D02*
X107523809Y-72254819D01*
X107523809Y-72254819D02*
X107619047Y-72302438D01*
X107619047Y-72302438D02*
X107666666Y-72350057D01*
X107666666Y-72350057D02*
X107714285Y-72445295D01*
X107714285Y-72445295D02*
X107714285Y-72588152D01*
X107714285Y-72588152D02*
X107666666Y-72683390D01*
X107666666Y-72683390D02*
X107619047Y-72731009D01*
X107619047Y-72731009D02*
X107523809Y-72778628D01*
X107523809Y-72778628D02*
X107142857Y-72778628D01*
X108666666Y-73254819D02*
X108095238Y-73254819D01*
X108380952Y-73254819D02*
X108380952Y-72254819D01*
X108380952Y-72254819D02*
X108285714Y-72397676D01*
X108285714Y-72397676D02*
X108190476Y-72492914D01*
X108190476Y-72492914D02*
X108095238Y-72540533D01*
D11*
%TO.C,C3*%
X128261252Y-61265000D02*
X127738748Y-61265000D01*
X128261252Y-62735000D02*
X127738748Y-62735000D01*
%TO.C,J2*%
X112920000Y-60620000D02*
X112920000Y-63380000D01*
X120650000Y-60620000D02*
X112920000Y-60620000D01*
X120650000Y-60620000D02*
X120650000Y-63380000D01*
X120650000Y-63380000D02*
X112920000Y-63380000D01*
X121920000Y-60620000D02*
X123300000Y-60620000D01*
X123300000Y-60620000D02*
X123300000Y-62000000D01*
%TO.C,C1*%
X117765000Y-68761252D02*
X117765000Y-68238748D01*
X119235000Y-68761252D02*
X119235000Y-68238748D01*
%TO.C,R2*%
X121772936Y-72765000D02*
X122227064Y-72765000D01*
X121772936Y-74235000D02*
X122227064Y-74235000D01*
%TO.C,U1*%
X127000000Y-68940000D02*
X126200000Y-68940000D01*
X127000000Y-68940000D02*
X127800000Y-68940000D01*
X127000000Y-72060000D02*
X126200000Y-72060000D01*
X127000000Y-72060000D02*
X127800000Y-72060000D01*
X125700000Y-68990000D02*
X125460000Y-68660000D01*
X125940000Y-68660000D01*
X125700000Y-68990000D01*
G36*
X125700000Y-68990000D02*
G01*
X125460000Y-68660000D01*
X125940000Y-68660000D01*
X125700000Y-68990000D01*
G37*
%TO.C,C2*%
X128765000Y-66238748D02*
X128765000Y-66761252D01*
X130235000Y-66238748D02*
X130235000Y-66761252D01*
%TO.C,D1*%
X114500000Y-72440000D02*
X113850000Y-72440000D01*
X114500000Y-72440000D02*
X115150000Y-72440000D01*
X114500000Y-75560000D02*
X113850000Y-75560000D01*
X114500000Y-75560000D02*
X115150000Y-75560000D01*
X113337500Y-72490000D02*
X113097500Y-72160000D01*
X113577500Y-72160000D01*
X113337500Y-72490000D01*
G36*
X113337500Y-72490000D02*
G01*
X113097500Y-72160000D01*
X113577500Y-72160000D01*
X113337500Y-72490000D01*
G37*
%TO.C,R3*%
X121265000Y-68272936D02*
X121265000Y-68727064D01*
X122735000Y-68272936D02*
X122735000Y-68727064D01*
%TO.C,JP2*%
X106100000Y-65800000D02*
X106100000Y-65200000D01*
X106800000Y-64500000D02*
X108200000Y-64500000D01*
X108200000Y-66500000D02*
X106800000Y-66500000D01*
X108900000Y-65200000D02*
X108900000Y-65800000D01*
X106100000Y-65200000D02*
G75*
G02*
X106800000Y-64500000I700000J0D01*
G01*
X106800000Y-66500000D02*
G75*
G02*
X106100000Y-65800000I0J700000D01*
G01*
X108200000Y-64500000D02*
G75*
G02*
X108900000Y-65200000I1J-699999D01*
G01*
X108900000Y-65800000D02*
G75*
G02*
X108200000Y-66500000I-699999J-1D01*
G01*
%TO.C,JP3*%
X113100000Y-68800000D02*
X113100000Y-68200000D01*
X113800000Y-67500000D02*
X115200000Y-67500000D01*
X115200000Y-69500000D02*
X113800000Y-69500000D01*
X115900000Y-68200000D02*
X115900000Y-68800000D01*
X113100000Y-68200000D02*
G75*
G02*
X113800000Y-67500000I699999J1D01*
G01*
X113800000Y-69500000D02*
G75*
G02*
X113100000Y-68800000I-1J699999D01*
G01*
X115200000Y-67500000D02*
G75*
G02*
X115900000Y-68200000I0J-700000D01*
G01*
X115900000Y-68800000D02*
G75*
G02*
X115200000Y-69500000I-700000J0D01*
G01*
%TO.C,R1*%
X130227064Y-72765000D02*
X129772936Y-72765000D01*
X130227064Y-74235000D02*
X129772936Y-74235000D01*
%TO.C,JP1*%
X106100000Y-71300000D02*
X106100000Y-70700000D01*
X106800000Y-70000000D02*
X108200000Y-70000000D01*
X108200000Y-72000000D02*
X106800000Y-72000000D01*
X108900000Y-70700000D02*
X108900000Y-71300000D01*
X106100000Y-70700000D02*
G75*
G02*
X106800000Y-70000000I700000J0D01*
G01*
X106800000Y-72000000D02*
G75*
G02*
X106100000Y-71300000I0J700000D01*
G01*
X108200000Y-70000000D02*
G75*
G02*
X108900000Y-70700000I1J-699999D01*
G01*
X108900000Y-71300000D02*
G75*
G02*
X108200000Y-72000000I-699999J-1D01*
G01*
%TD*%
%LPC*%
G36*
X126322013Y-73060758D02*
G01*
X126526693Y-73127262D01*
X126718450Y-73224967D01*
X126892561Y-73351466D01*
X127044740Y-73503645D01*
X127171239Y-73677756D01*
X127268944Y-73869513D01*
X127335448Y-74074193D01*
X127369115Y-74286756D01*
X127369115Y-74501970D01*
X127335448Y-74714533D01*
X127268944Y-74919213D01*
X127171239Y-75110970D01*
X127044740Y-75285081D01*
X126892561Y-75437260D01*
X126718450Y-75563759D01*
X126526693Y-75661464D01*
X126322013Y-75727968D01*
X126109450Y-75761635D01*
X125894236Y-75761635D01*
X125681673Y-75727968D01*
X125476993Y-75661464D01*
X125285236Y-75563759D01*
X125111125Y-75437260D01*
X124958946Y-75285081D01*
X124832447Y-75110970D01*
X124734742Y-74919213D01*
X124668238Y-74714533D01*
X124634571Y-74501970D01*
X124634571Y-74286756D01*
X124668238Y-74074193D01*
X124734742Y-73869513D01*
X124832447Y-73677756D01*
X124958946Y-73503645D01*
X125111125Y-73351466D01*
X125285236Y-73224967D01*
X125476993Y-73127262D01*
X125681673Y-73060758D01*
X125894236Y-73027091D01*
X126109450Y-73027091D01*
X126322013Y-73060758D01*
G37*
G36*
X114221944Y-74626311D02*
G01*
X114282936Y-74667064D01*
X114323689Y-74728056D01*
X114338000Y-74800000D01*
X114338000Y-75100000D01*
X114323689Y-75171944D01*
X114282936Y-75232936D01*
X114221944Y-75273689D01*
X114150000Y-75288000D01*
X112975000Y-75288000D01*
X112903056Y-75273689D01*
X112842064Y-75232936D01*
X112801311Y-75171944D01*
X112787000Y-75100000D01*
X112787000Y-74800000D01*
X112801311Y-74728056D01*
X112842064Y-74667064D01*
X112903056Y-74626311D01*
X112975000Y-74612000D01*
X114150000Y-74612000D01*
X114221944Y-74626311D01*
G37*
G36*
X111291214Y-73246997D02*
G01*
X111472905Y-73322257D01*
X111636423Y-73431516D01*
X111775484Y-73570577D01*
X111884743Y-73734095D01*
X111960003Y-73915786D01*
X111998369Y-74108669D01*
X111998369Y-74305331D01*
X111960003Y-74498214D01*
X111884743Y-74679905D01*
X111775484Y-74843423D01*
X111636423Y-74982484D01*
X111472905Y-75091743D01*
X111291214Y-75167003D01*
X111098331Y-75205369D01*
X110901669Y-75205369D01*
X110708786Y-75167003D01*
X110527095Y-75091743D01*
X110363577Y-74982484D01*
X110224516Y-74843423D01*
X110115257Y-74679905D01*
X110039997Y-74498214D01*
X110001631Y-74305331D01*
X110001631Y-74108669D01*
X110039997Y-73915786D01*
X110115257Y-73734095D01*
X110224516Y-73570577D01*
X110363577Y-73431516D01*
X110527095Y-73322257D01*
X110708786Y-73246997D01*
X110901669Y-73208631D01*
X111098331Y-73208631D01*
X111291214Y-73246997D01*
G37*
G36*
X116096944Y-73676311D02*
G01*
X116157936Y-73717064D01*
X116198689Y-73778056D01*
X116213000Y-73850000D01*
X116213000Y-74150000D01*
X116198689Y-74221944D01*
X116157936Y-74282936D01*
X116096944Y-74323689D01*
X116025000Y-74338000D01*
X114850000Y-74338000D01*
X114778056Y-74323689D01*
X114717064Y-74282936D01*
X114676311Y-74221944D01*
X114662000Y-74150000D01*
X114662000Y-73850000D01*
X114676311Y-73778056D01*
X114717064Y-73717064D01*
X114778056Y-73676311D01*
X114850000Y-73662000D01*
X116025000Y-73662000D01*
X116096944Y-73676311D01*
G37*
G36*
X121415938Y-72769650D02*
G01*
X121424871Y-72773594D01*
X121431300Y-72774531D01*
X121471498Y-72794182D01*
X121512759Y-72812401D01*
X121516578Y-72816220D01*
X121516829Y-72816343D01*
X121583656Y-72883170D01*
X121583778Y-72883420D01*
X121587599Y-72887241D01*
X121605822Y-72928512D01*
X121625468Y-72968699D01*
X121626404Y-72975126D01*
X121630350Y-72984062D01*
X121638000Y-73050000D01*
X121638000Y-73950000D01*
X121630350Y-74015938D01*
X121626404Y-74024874D01*
X121625468Y-74031300D01*
X121605826Y-74071477D01*
X121587599Y-74112759D01*
X121583777Y-74116580D01*
X121583656Y-74116829D01*
X121516829Y-74183656D01*
X121516580Y-74183777D01*
X121512759Y-74187599D01*
X121471477Y-74205826D01*
X121431300Y-74225468D01*
X121424874Y-74226404D01*
X121415938Y-74230350D01*
X121350000Y-74238000D01*
X120825000Y-74238000D01*
X120759062Y-74230350D01*
X120750126Y-74226404D01*
X120743699Y-74225468D01*
X120703512Y-74205822D01*
X120662241Y-74187599D01*
X120658420Y-74183778D01*
X120658170Y-74183656D01*
X120591343Y-74116829D01*
X120591220Y-74116578D01*
X120587401Y-74112759D01*
X120569182Y-74071498D01*
X120549531Y-74031300D01*
X120548594Y-74024871D01*
X120544650Y-74015938D01*
X120537000Y-73950000D01*
X120537000Y-73050000D01*
X120544650Y-72984062D01*
X120548594Y-72975129D01*
X120549531Y-72968699D01*
X120569186Y-72928491D01*
X120587401Y-72887241D01*
X120591219Y-72883422D01*
X120591343Y-72883170D01*
X120658170Y-72816343D01*
X120658422Y-72816219D01*
X120662241Y-72812401D01*
X120703491Y-72794186D01*
X120743699Y-72774531D01*
X120750129Y-72773594D01*
X120759062Y-72769650D01*
X120825000Y-72762000D01*
X121350000Y-72762000D01*
X121415938Y-72769650D01*
G37*
G36*
X123240938Y-72769650D02*
G01*
X123249871Y-72773594D01*
X123256300Y-72774531D01*
X123296498Y-72794182D01*
X123337759Y-72812401D01*
X123341578Y-72816220D01*
X123341829Y-72816343D01*
X123408656Y-72883170D01*
X123408778Y-72883420D01*
X123412599Y-72887241D01*
X123430822Y-72928512D01*
X123450468Y-72968699D01*
X123451404Y-72975126D01*
X123455350Y-72984062D01*
X123463000Y-73050000D01*
X123463000Y-73950000D01*
X123455350Y-74015938D01*
X123451404Y-74024874D01*
X123450468Y-74031300D01*
X123430826Y-74071477D01*
X123412599Y-74112759D01*
X123408777Y-74116580D01*
X123408656Y-74116829D01*
X123341829Y-74183656D01*
X123341580Y-74183777D01*
X123337759Y-74187599D01*
X123296477Y-74205826D01*
X123256300Y-74225468D01*
X123249874Y-74226404D01*
X123240938Y-74230350D01*
X123175000Y-74238000D01*
X122650000Y-74238000D01*
X122584062Y-74230350D01*
X122575126Y-74226404D01*
X122568699Y-74225468D01*
X122528512Y-74205822D01*
X122487241Y-74187599D01*
X122483420Y-74183778D01*
X122483170Y-74183656D01*
X122416343Y-74116829D01*
X122416220Y-74116578D01*
X122412401Y-74112759D01*
X122394182Y-74071498D01*
X122374531Y-74031300D01*
X122373594Y-74024871D01*
X122369650Y-74015938D01*
X122362000Y-73950000D01*
X122362000Y-73050000D01*
X122369650Y-72984062D01*
X122373594Y-72975129D01*
X122374531Y-72968699D01*
X122394186Y-72928491D01*
X122412401Y-72887241D01*
X122416219Y-72883422D01*
X122416343Y-72883170D01*
X122483170Y-72816343D01*
X122483422Y-72816219D01*
X122487241Y-72812401D01*
X122528491Y-72794186D01*
X122568699Y-72774531D01*
X122575129Y-72773594D01*
X122584062Y-72769650D01*
X122650000Y-72762000D01*
X123175000Y-72762000D01*
X123240938Y-72769650D01*
G37*
G36*
X129415938Y-72769650D02*
G01*
X129424871Y-72773594D01*
X129431300Y-72774531D01*
X129471498Y-72794182D01*
X129512759Y-72812401D01*
X129516578Y-72816220D01*
X129516829Y-72816343D01*
X129583656Y-72883170D01*
X129583778Y-72883420D01*
X129587599Y-72887241D01*
X129605822Y-72928512D01*
X129625468Y-72968699D01*
X129626404Y-72975126D01*
X129630350Y-72984062D01*
X129638000Y-73050000D01*
X129638000Y-73950000D01*
X129630350Y-74015938D01*
X129626404Y-74024874D01*
X129625468Y-74031300D01*
X129605826Y-74071477D01*
X129587599Y-74112759D01*
X129583777Y-74116580D01*
X129583656Y-74116829D01*
X129516829Y-74183656D01*
X129516580Y-74183777D01*
X129512759Y-74187599D01*
X129471477Y-74205826D01*
X129431300Y-74225468D01*
X129424874Y-74226404D01*
X129415938Y-74230350D01*
X129350000Y-74238000D01*
X128825000Y-74238000D01*
X128759062Y-74230350D01*
X128750126Y-74226404D01*
X128743699Y-74225468D01*
X128703512Y-74205822D01*
X128662241Y-74187599D01*
X128658420Y-74183778D01*
X128658170Y-74183656D01*
X128591343Y-74116829D01*
X128591220Y-74116578D01*
X128587401Y-74112759D01*
X128569182Y-74071498D01*
X128549531Y-74031300D01*
X128548594Y-74024871D01*
X128544650Y-74015938D01*
X128537000Y-73950000D01*
X128537000Y-73050000D01*
X128544650Y-72984062D01*
X128548594Y-72975129D01*
X128549531Y-72968699D01*
X128569186Y-72928491D01*
X128587401Y-72887241D01*
X128591219Y-72883422D01*
X128591343Y-72883170D01*
X128658170Y-72816343D01*
X128658422Y-72816219D01*
X128662241Y-72812401D01*
X128703491Y-72794186D01*
X128743699Y-72774531D01*
X128750129Y-72773594D01*
X128759062Y-72769650D01*
X128825000Y-72762000D01*
X129350000Y-72762000D01*
X129415938Y-72769650D01*
G37*
G36*
X131240938Y-72769650D02*
G01*
X131249871Y-72773594D01*
X131256300Y-72774531D01*
X131296498Y-72794182D01*
X131337759Y-72812401D01*
X131341578Y-72816220D01*
X131341829Y-72816343D01*
X131408656Y-72883170D01*
X131408778Y-72883420D01*
X131412599Y-72887241D01*
X131430822Y-72928512D01*
X131450468Y-72968699D01*
X131451404Y-72975126D01*
X131455350Y-72984062D01*
X131463000Y-73050000D01*
X131463000Y-73950000D01*
X131455350Y-74015938D01*
X131451404Y-74024874D01*
X131450468Y-74031300D01*
X131430826Y-74071477D01*
X131412599Y-74112759D01*
X131408777Y-74116580D01*
X131408656Y-74116829D01*
X131341829Y-74183656D01*
X131341580Y-74183777D01*
X131337759Y-74187599D01*
X131296477Y-74205826D01*
X131256300Y-74225468D01*
X131249874Y-74226404D01*
X131240938Y-74230350D01*
X131175000Y-74238000D01*
X130650000Y-74238000D01*
X130584062Y-74230350D01*
X130575126Y-74226404D01*
X130568699Y-74225468D01*
X130528512Y-74205822D01*
X130487241Y-74187599D01*
X130483420Y-74183778D01*
X130483170Y-74183656D01*
X130416343Y-74116829D01*
X130416220Y-74116578D01*
X130412401Y-74112759D01*
X130394182Y-74071498D01*
X130374531Y-74031300D01*
X130373594Y-74024871D01*
X130369650Y-74015938D01*
X130362000Y-73950000D01*
X130362000Y-73050000D01*
X130369650Y-72984062D01*
X130373594Y-72975129D01*
X130374531Y-72968699D01*
X130394186Y-72928491D01*
X130412401Y-72887241D01*
X130416219Y-72883422D01*
X130416343Y-72883170D01*
X130483170Y-72816343D01*
X130483422Y-72816219D01*
X130487241Y-72812401D01*
X130528491Y-72794186D01*
X130568699Y-72774531D01*
X130575129Y-72773594D01*
X130584062Y-72769650D01*
X130650000Y-72762000D01*
X131175000Y-72762000D01*
X131240938Y-72769650D01*
G37*
G36*
X133285024Y-71640926D02*
G01*
X133455215Y-71711422D01*
X133608382Y-71813765D01*
X133738641Y-71944024D01*
X133840984Y-72097191D01*
X133911480Y-72267382D01*
X133947418Y-72448056D01*
X133947418Y-72632270D01*
X133911480Y-72812944D01*
X133840984Y-72983135D01*
X133738641Y-73136302D01*
X133608382Y-73266561D01*
X133455215Y-73368904D01*
X133285024Y-73439400D01*
X133104350Y-73475338D01*
X132920136Y-73475338D01*
X132739462Y-73439400D01*
X132569271Y-73368904D01*
X132416104Y-73266561D01*
X132285845Y-73136302D01*
X132183502Y-72983135D01*
X132113006Y-72812944D01*
X132077068Y-72632270D01*
X132077068Y-72448056D01*
X132113006Y-72267382D01*
X132183502Y-72097191D01*
X132285845Y-71944024D01*
X132416104Y-71813765D01*
X132569271Y-71711422D01*
X132739462Y-71640926D01*
X132920136Y-71604988D01*
X133104350Y-71604988D01*
X133285024Y-71640926D01*
G37*
G36*
X114221944Y-72726311D02*
G01*
X114282936Y-72767064D01*
X114323689Y-72828056D01*
X114338000Y-72900000D01*
X114338000Y-73200000D01*
X114323689Y-73271944D01*
X114282936Y-73332936D01*
X114221944Y-73373689D01*
X114150000Y-73388000D01*
X112975000Y-73388000D01*
X112903056Y-73373689D01*
X112842064Y-73332936D01*
X112801311Y-73271944D01*
X112787000Y-73200000D01*
X112787000Y-72900000D01*
X112801311Y-72828056D01*
X112842064Y-72767064D01*
X112903056Y-72726311D01*
X112975000Y-72712000D01*
X114150000Y-72712000D01*
X114221944Y-72726311D01*
G37*
G36*
X107380406Y-70219594D02*
G01*
X107387347Y-70236353D01*
X107414131Y-70250000D01*
X107575013Y-70250000D01*
X107594595Y-70243637D01*
X107616110Y-70228004D01*
X107619594Y-70219594D01*
X107638415Y-70211798D01*
X107642206Y-70209044D01*
X107646834Y-70208311D01*
X107650000Y-70207000D01*
X108150000Y-70207000D01*
X108160328Y-70211278D01*
X108211002Y-70211278D01*
X108215263Y-70211278D01*
X108226392Y-70212743D01*
X108230508Y-70213845D01*
X108230509Y-70213846D01*
X108348356Y-70245422D01*
X108348358Y-70245423D01*
X108352471Y-70246525D01*
X108362842Y-70250821D01*
X108475881Y-70316084D01*
X108484787Y-70322917D01*
X108577083Y-70415213D01*
X108583916Y-70424119D01*
X108649179Y-70537158D01*
X108653475Y-70547529D01*
X108687257Y-70673608D01*
X108688722Y-70684737D01*
X108688722Y-70688997D01*
X108688722Y-70725544D01*
X108689123Y-70730636D01*
X108691688Y-70746832D01*
X108693000Y-70750000D01*
X108693000Y-71250000D01*
X108688722Y-71260328D01*
X108688722Y-71315263D01*
X108687257Y-71326392D01*
X108653475Y-71452471D01*
X108649179Y-71462842D01*
X108583916Y-71575881D01*
X108577083Y-71584787D01*
X108484787Y-71677083D01*
X108475881Y-71683916D01*
X108362842Y-71749179D01*
X108352471Y-71753475D01*
X108226392Y-71787257D01*
X108215263Y-71788722D01*
X108211002Y-71788722D01*
X108174456Y-71788722D01*
X108169364Y-71789123D01*
X108153167Y-71791688D01*
X108150000Y-71793000D01*
X108144883Y-71793000D01*
X107660296Y-71793000D01*
X107650000Y-71793000D01*
X107619594Y-71780406D01*
X107612652Y-71763646D01*
X107585869Y-71750000D01*
X107424987Y-71750000D01*
X107405405Y-71756363D01*
X107383889Y-71771994D01*
X107380406Y-71780406D01*
X107361579Y-71788203D01*
X107357793Y-71790955D01*
X107353168Y-71791687D01*
X107350000Y-71793000D01*
X107344883Y-71793000D01*
X106860295Y-71793000D01*
X106850000Y-71793000D01*
X106839672Y-71788722D01*
X106788998Y-71788722D01*
X106784737Y-71788722D01*
X106773608Y-71787257D01*
X106647529Y-71753475D01*
X106637158Y-71749179D01*
X106524119Y-71683916D01*
X106515213Y-71677083D01*
X106422917Y-71584787D01*
X106416084Y-71575881D01*
X106350821Y-71462842D01*
X106346525Y-71452471D01*
X106312743Y-71326392D01*
X106311278Y-71315263D01*
X106311278Y-71274455D01*
X106310877Y-71269363D01*
X106308312Y-71253168D01*
X106307000Y-71250000D01*
X106307000Y-70750000D01*
X106311278Y-70739671D01*
X106311278Y-70684737D01*
X106312743Y-70673608D01*
X106313846Y-70669490D01*
X106345422Y-70551643D01*
X106345423Y-70551638D01*
X106346525Y-70547529D01*
X106350821Y-70537158D01*
X106405105Y-70443135D01*
X106413953Y-70427809D01*
X106413955Y-70427805D01*
X106416084Y-70424119D01*
X106422917Y-70415213D01*
X106425928Y-70412201D01*
X106425932Y-70412197D01*
X106512197Y-70325932D01*
X106512201Y-70325928D01*
X106515213Y-70322917D01*
X106524119Y-70316084D01*
X106527805Y-70313955D01*
X106527809Y-70313953D01*
X106633470Y-70252950D01*
X106633471Y-70252949D01*
X106637158Y-70250821D01*
X106647529Y-70246525D01*
X106651638Y-70245423D01*
X106651643Y-70245422D01*
X106769490Y-70213846D01*
X106769492Y-70213845D01*
X106773608Y-70212743D01*
X106784737Y-70211278D01*
X106825544Y-70211278D01*
X106830636Y-70210877D01*
X106846832Y-70208311D01*
X106850000Y-70207000D01*
X107350000Y-70207000D01*
X107380406Y-70219594D01*
G37*
G36*
X126446944Y-71126311D02*
G01*
X126507936Y-71167064D01*
X126548689Y-71228056D01*
X126563000Y-71300000D01*
X126563000Y-71600000D01*
X126548689Y-71671944D01*
X126507936Y-71732936D01*
X126446944Y-71773689D01*
X126375000Y-71788000D01*
X125350000Y-71788000D01*
X125278056Y-71773689D01*
X125217064Y-71732936D01*
X125176311Y-71671944D01*
X125162000Y-71600000D01*
X125162000Y-71300000D01*
X125176311Y-71228056D01*
X125217064Y-71167064D01*
X125278056Y-71126311D01*
X125350000Y-71112000D01*
X126375000Y-71112000D01*
X126446944Y-71126311D01*
G37*
G36*
X128721944Y-71126311D02*
G01*
X128782936Y-71167064D01*
X128823689Y-71228056D01*
X128838000Y-71300000D01*
X128838000Y-71600000D01*
X128823689Y-71671944D01*
X128782936Y-71732936D01*
X128721944Y-71773689D01*
X128650000Y-71788000D01*
X127625000Y-71788000D01*
X127553056Y-71773689D01*
X127492064Y-71732936D01*
X127451311Y-71671944D01*
X127437000Y-71600000D01*
X127437000Y-71300000D01*
X127451311Y-71228056D01*
X127492064Y-71167064D01*
X127553056Y-71126311D01*
X127625000Y-71112000D01*
X128650000Y-71112000D01*
X128721944Y-71126311D01*
G37*
G36*
X133285024Y-69100926D02*
G01*
X133455215Y-69171422D01*
X133608382Y-69273765D01*
X133738641Y-69404024D01*
X133840984Y-69557191D01*
X133911480Y-69727382D01*
X133947418Y-69908056D01*
X133947418Y-70092270D01*
X133911480Y-70272944D01*
X133840984Y-70443135D01*
X133738641Y-70596302D01*
X133608382Y-70726561D01*
X133455215Y-70828904D01*
X133285024Y-70899400D01*
X133104350Y-70935338D01*
X132920136Y-70935338D01*
X132739462Y-70899400D01*
X132569271Y-70828904D01*
X132416104Y-70726561D01*
X132285845Y-70596302D01*
X132183502Y-70443135D01*
X132113006Y-70272944D01*
X132077068Y-70092270D01*
X132077068Y-69908056D01*
X132113006Y-69727382D01*
X132183502Y-69557191D01*
X132285845Y-69404024D01*
X132416104Y-69273765D01*
X132569271Y-69171422D01*
X132739462Y-69100926D01*
X132920136Y-69064988D01*
X133104350Y-69064988D01*
X133285024Y-69100926D01*
G37*
G36*
X126446944Y-70176311D02*
G01*
X126507936Y-70217064D01*
X126548689Y-70278056D01*
X126563000Y-70350000D01*
X126563000Y-70650000D01*
X126548689Y-70721944D01*
X126507936Y-70782936D01*
X126446944Y-70823689D01*
X126375000Y-70838000D01*
X125350000Y-70838000D01*
X125278056Y-70823689D01*
X125217064Y-70782936D01*
X125176311Y-70721944D01*
X125162000Y-70650000D01*
X125162000Y-70350000D01*
X125176311Y-70278056D01*
X125217064Y-70217064D01*
X125278056Y-70176311D01*
X125350000Y-70162000D01*
X126375000Y-70162000D01*
X126446944Y-70176311D01*
G37*
G36*
X119040938Y-68919650D02*
G01*
X119049871Y-68923594D01*
X119056300Y-68924531D01*
X119096498Y-68944182D01*
X119137759Y-68962401D01*
X119141578Y-68966220D01*
X119141829Y-68966343D01*
X119208656Y-69033170D01*
X119208778Y-69033420D01*
X119212599Y-69037241D01*
X119230822Y-69078512D01*
X119250468Y-69118699D01*
X119251404Y-69125126D01*
X119255350Y-69134062D01*
X119263000Y-69200000D01*
X119263000Y-69700000D01*
X119255350Y-69765938D01*
X119251404Y-69774874D01*
X119250468Y-69781300D01*
X119230826Y-69821477D01*
X119212599Y-69862759D01*
X119208777Y-69866580D01*
X119208656Y-69866829D01*
X119141829Y-69933656D01*
X119141580Y-69933777D01*
X119137759Y-69937599D01*
X119096477Y-69955826D01*
X119056300Y-69975468D01*
X119049874Y-69976404D01*
X119040938Y-69980350D01*
X118975000Y-69988000D01*
X118025000Y-69988000D01*
X117959062Y-69980350D01*
X117950126Y-69976404D01*
X117943699Y-69975468D01*
X117903512Y-69955822D01*
X117862241Y-69937599D01*
X117858420Y-69933778D01*
X117858170Y-69933656D01*
X117791343Y-69866829D01*
X117791220Y-69866578D01*
X117787401Y-69862759D01*
X117769182Y-69821498D01*
X117749531Y-69781300D01*
X117748594Y-69774871D01*
X117744650Y-69765938D01*
X117737000Y-69700000D01*
X117737000Y-69200000D01*
X117744650Y-69134062D01*
X117748594Y-69125129D01*
X117749531Y-69118699D01*
X117769186Y-69078491D01*
X117787401Y-69037241D01*
X117791219Y-69033422D01*
X117791343Y-69033170D01*
X117858170Y-68966343D01*
X117858422Y-68966219D01*
X117862241Y-68962401D01*
X117903491Y-68944186D01*
X117943699Y-68924531D01*
X117950129Y-68923594D01*
X117959062Y-68919650D01*
X118025000Y-68912000D01*
X118975000Y-68912000D01*
X119040938Y-68919650D01*
G37*
G36*
X122515938Y-68869650D02*
G01*
X122524871Y-68873594D01*
X122531300Y-68874531D01*
X122571498Y-68894182D01*
X122612759Y-68912401D01*
X122616578Y-68916220D01*
X122616829Y-68916343D01*
X122683656Y-68983170D01*
X122683778Y-68983420D01*
X122687599Y-68987241D01*
X122705822Y-69028512D01*
X122725468Y-69068699D01*
X122726404Y-69075126D01*
X122730350Y-69084062D01*
X122738000Y-69150000D01*
X122738000Y-69675000D01*
X122730350Y-69740938D01*
X122726404Y-69749874D01*
X122725468Y-69756300D01*
X122705826Y-69796477D01*
X122687599Y-69837759D01*
X122683777Y-69841580D01*
X122683656Y-69841829D01*
X122616829Y-69908656D01*
X122616580Y-69908777D01*
X122612759Y-69912599D01*
X122571477Y-69930826D01*
X122531300Y-69950468D01*
X122524874Y-69951404D01*
X122515938Y-69955350D01*
X122450000Y-69963000D01*
X121550000Y-69963000D01*
X121484062Y-69955350D01*
X121475126Y-69951404D01*
X121468699Y-69950468D01*
X121428512Y-69930822D01*
X121387241Y-69912599D01*
X121383420Y-69908778D01*
X121383170Y-69908656D01*
X121316343Y-69841829D01*
X121316220Y-69841578D01*
X121312401Y-69837759D01*
X121294182Y-69796498D01*
X121274531Y-69756300D01*
X121273594Y-69749871D01*
X121269650Y-69740938D01*
X121262000Y-69675000D01*
X121262000Y-69150000D01*
X121269650Y-69084062D01*
X121273594Y-69075129D01*
X121274531Y-69068699D01*
X121294186Y-69028491D01*
X121312401Y-68987241D01*
X121316219Y-68983422D01*
X121316343Y-68983170D01*
X121383170Y-68916343D01*
X121383422Y-68916219D01*
X121387241Y-68912401D01*
X121428491Y-68894186D01*
X121468699Y-68874531D01*
X121475129Y-68873594D01*
X121484062Y-68869650D01*
X121550000Y-68862000D01*
X122450000Y-68862000D01*
X122515938Y-68869650D01*
G37*
G36*
X126446944Y-69226311D02*
G01*
X126507936Y-69267064D01*
X126548689Y-69328056D01*
X126563000Y-69400000D01*
X126563000Y-69700000D01*
X126548689Y-69771944D01*
X126507936Y-69832936D01*
X126446944Y-69873689D01*
X126375000Y-69888000D01*
X125350000Y-69888000D01*
X125278056Y-69873689D01*
X125217064Y-69832936D01*
X125176311Y-69771944D01*
X125162000Y-69700000D01*
X125162000Y-69400000D01*
X125176311Y-69328056D01*
X125217064Y-69267064D01*
X125278056Y-69226311D01*
X125350000Y-69212000D01*
X126375000Y-69212000D01*
X126446944Y-69226311D01*
G37*
G36*
X128721944Y-69226311D02*
G01*
X128782936Y-69267064D01*
X128823689Y-69328056D01*
X128838000Y-69400000D01*
X128838000Y-69700000D01*
X128823689Y-69771944D01*
X128782936Y-69832936D01*
X128721944Y-69873689D01*
X128650000Y-69888000D01*
X127625000Y-69888000D01*
X127553056Y-69873689D01*
X127492064Y-69832936D01*
X127451311Y-69771944D01*
X127437000Y-69700000D01*
X127437000Y-69400000D01*
X127451311Y-69328056D01*
X127492064Y-69267064D01*
X127553056Y-69226311D01*
X127625000Y-69212000D01*
X128650000Y-69212000D01*
X128721944Y-69226311D01*
G37*
G36*
X114380406Y-67719594D02*
G01*
X114387347Y-67736353D01*
X114414131Y-67750000D01*
X114575013Y-67750000D01*
X114594595Y-67743637D01*
X114616110Y-67728004D01*
X114619594Y-67719594D01*
X114638415Y-67711798D01*
X114642206Y-67709044D01*
X114646834Y-67708311D01*
X114650000Y-67707000D01*
X115150000Y-67707000D01*
X115160328Y-67711278D01*
X115211002Y-67711278D01*
X115215263Y-67711278D01*
X115226392Y-67712743D01*
X115230508Y-67713845D01*
X115230509Y-67713846D01*
X115348356Y-67745422D01*
X115348358Y-67745423D01*
X115352471Y-67746525D01*
X115362842Y-67750821D01*
X115475881Y-67816084D01*
X115484787Y-67822917D01*
X115577083Y-67915213D01*
X115583916Y-67924119D01*
X115649179Y-68037158D01*
X115653475Y-68047529D01*
X115687257Y-68173608D01*
X115688722Y-68184737D01*
X115688722Y-68188997D01*
X115688722Y-68225544D01*
X115689123Y-68230636D01*
X115691688Y-68246832D01*
X115693000Y-68250000D01*
X115693000Y-68750000D01*
X115688722Y-68760328D01*
X115688722Y-68815263D01*
X115687257Y-68826392D01*
X115653475Y-68952471D01*
X115649179Y-68962842D01*
X115583916Y-69075881D01*
X115577083Y-69084787D01*
X115484787Y-69177083D01*
X115475881Y-69183916D01*
X115362842Y-69249179D01*
X115352471Y-69253475D01*
X115226392Y-69287257D01*
X115215263Y-69288722D01*
X115211002Y-69288722D01*
X115174456Y-69288722D01*
X115169364Y-69289123D01*
X115153167Y-69291688D01*
X115150000Y-69293000D01*
X115144883Y-69293000D01*
X114660296Y-69293000D01*
X114650000Y-69293000D01*
X114619594Y-69280406D01*
X114612652Y-69263646D01*
X114585869Y-69250000D01*
X114424987Y-69250000D01*
X114405405Y-69256363D01*
X114383889Y-69271994D01*
X114380406Y-69280406D01*
X114361579Y-69288203D01*
X114357793Y-69290955D01*
X114353168Y-69291687D01*
X114350000Y-69293000D01*
X114344883Y-69293000D01*
X113860295Y-69293000D01*
X113850000Y-69293000D01*
X113839672Y-69288722D01*
X113788998Y-69288722D01*
X113784737Y-69288722D01*
X113773608Y-69287257D01*
X113647529Y-69253475D01*
X113637158Y-69249179D01*
X113524119Y-69183916D01*
X113515213Y-69177083D01*
X113422917Y-69084787D01*
X113416084Y-69075881D01*
X113350821Y-68962842D01*
X113346525Y-68952471D01*
X113339038Y-68924531D01*
X113313846Y-68830509D01*
X113313845Y-68830508D01*
X113312743Y-68826392D01*
X113311278Y-68815263D01*
X113311278Y-68774455D01*
X113310877Y-68769363D01*
X113308312Y-68753168D01*
X113307000Y-68750000D01*
X113307000Y-68250000D01*
X113311278Y-68239671D01*
X113311278Y-68184737D01*
X113312743Y-68173608D01*
X113313846Y-68169490D01*
X113345422Y-68051643D01*
X113345423Y-68051638D01*
X113346525Y-68047529D01*
X113350821Y-68037158D01*
X113362558Y-68016829D01*
X113413953Y-67927809D01*
X113413955Y-67927805D01*
X113416084Y-67924119D01*
X113422917Y-67915213D01*
X113425928Y-67912201D01*
X113425932Y-67912197D01*
X113512197Y-67825932D01*
X113512201Y-67825928D01*
X113515213Y-67822917D01*
X113524119Y-67816084D01*
X113527805Y-67813955D01*
X113527809Y-67813953D01*
X113633470Y-67752950D01*
X113633471Y-67752949D01*
X113637158Y-67750821D01*
X113647529Y-67746525D01*
X113651638Y-67745423D01*
X113651643Y-67745422D01*
X113769490Y-67713846D01*
X113769492Y-67713845D01*
X113773608Y-67712743D01*
X113784737Y-67711278D01*
X113825544Y-67711278D01*
X113830636Y-67710877D01*
X113846832Y-67708311D01*
X113850000Y-67707000D01*
X114350000Y-67707000D01*
X114380406Y-67719594D01*
G37*
G36*
X133285024Y-66560926D02*
G01*
X133455215Y-66631422D01*
X133608382Y-66733765D01*
X133738641Y-66864024D01*
X133840984Y-67017191D01*
X133911480Y-67187382D01*
X133947418Y-67368056D01*
X133947418Y-67552270D01*
X133911480Y-67732944D01*
X133840984Y-67903135D01*
X133738641Y-68056302D01*
X133608382Y-68186561D01*
X133455215Y-68288904D01*
X133285024Y-68359400D01*
X133104350Y-68395338D01*
X132920136Y-68395338D01*
X132739462Y-68359400D01*
X132569271Y-68288904D01*
X132416104Y-68186561D01*
X132285845Y-68056302D01*
X132183502Y-67903135D01*
X132113006Y-67732944D01*
X132077068Y-67552270D01*
X132077068Y-67368056D01*
X132113006Y-67187382D01*
X132183502Y-67017191D01*
X132285845Y-66864024D01*
X132416104Y-66733765D01*
X132569271Y-66631422D01*
X132739462Y-66560926D01*
X132920136Y-66524988D01*
X133104350Y-66524988D01*
X133285024Y-66560926D01*
G37*
G36*
X122515938Y-67044650D02*
G01*
X122524871Y-67048594D01*
X122531300Y-67049531D01*
X122571498Y-67069182D01*
X122612759Y-67087401D01*
X122616578Y-67091220D01*
X122616829Y-67091343D01*
X122683656Y-67158170D01*
X122683778Y-67158420D01*
X122687599Y-67162241D01*
X122705822Y-67203512D01*
X122725468Y-67243699D01*
X122726404Y-67250126D01*
X122730350Y-67259062D01*
X122738000Y-67325000D01*
X122738000Y-67850000D01*
X122730350Y-67915938D01*
X122726404Y-67924874D01*
X122725468Y-67931300D01*
X122705826Y-67971477D01*
X122687599Y-68012759D01*
X122683777Y-68016580D01*
X122683656Y-68016829D01*
X122616829Y-68083656D01*
X122616580Y-68083777D01*
X122612759Y-68087599D01*
X122571477Y-68105826D01*
X122531300Y-68125468D01*
X122524874Y-68126404D01*
X122515938Y-68130350D01*
X122450000Y-68138000D01*
X121550000Y-68138000D01*
X121484062Y-68130350D01*
X121475126Y-68126404D01*
X121468699Y-68125468D01*
X121428512Y-68105822D01*
X121387241Y-68087599D01*
X121383420Y-68083778D01*
X121383170Y-68083656D01*
X121316343Y-68016829D01*
X121316220Y-68016578D01*
X121312401Y-68012759D01*
X121294182Y-67971498D01*
X121274531Y-67931300D01*
X121273594Y-67924871D01*
X121269650Y-67915938D01*
X121262000Y-67850000D01*
X121262000Y-67325000D01*
X121269650Y-67259062D01*
X121273594Y-67250129D01*
X121274531Y-67243699D01*
X121294186Y-67203491D01*
X121312401Y-67162241D01*
X121316219Y-67158422D01*
X121316343Y-67158170D01*
X121383170Y-67091343D01*
X121383422Y-67091219D01*
X121387241Y-67087401D01*
X121428491Y-67069186D01*
X121468699Y-67049531D01*
X121475129Y-67048594D01*
X121484062Y-67044650D01*
X121550000Y-67037000D01*
X122450000Y-67037000D01*
X122515938Y-67044650D01*
G37*
G36*
X119040938Y-67019650D02*
G01*
X119049871Y-67023594D01*
X119056300Y-67024531D01*
X119096498Y-67044182D01*
X119137759Y-67062401D01*
X119141578Y-67066220D01*
X119141829Y-67066343D01*
X119208656Y-67133170D01*
X119208778Y-67133420D01*
X119212599Y-67137241D01*
X119230822Y-67178512D01*
X119250468Y-67218699D01*
X119251404Y-67225126D01*
X119255350Y-67234062D01*
X119263000Y-67300000D01*
X119263000Y-67800000D01*
X119255350Y-67865938D01*
X119251404Y-67874874D01*
X119250468Y-67881300D01*
X119230826Y-67921477D01*
X119212599Y-67962759D01*
X119208777Y-67966580D01*
X119208656Y-67966829D01*
X119141829Y-68033656D01*
X119141580Y-68033777D01*
X119137759Y-68037599D01*
X119096477Y-68055826D01*
X119056300Y-68075468D01*
X119049874Y-68076404D01*
X119040938Y-68080350D01*
X118975000Y-68088000D01*
X118025000Y-68088000D01*
X117959062Y-68080350D01*
X117950126Y-68076404D01*
X117943699Y-68075468D01*
X117903512Y-68055822D01*
X117862241Y-68037599D01*
X117858420Y-68033778D01*
X117858170Y-68033656D01*
X117791343Y-67966829D01*
X117791220Y-67966578D01*
X117787401Y-67962759D01*
X117769182Y-67921498D01*
X117749531Y-67881300D01*
X117748594Y-67874871D01*
X117744650Y-67865938D01*
X117737000Y-67800000D01*
X117737000Y-67300000D01*
X117744650Y-67234062D01*
X117748594Y-67225129D01*
X117749531Y-67218699D01*
X117769186Y-67178491D01*
X117787401Y-67137241D01*
X117791219Y-67133422D01*
X117791343Y-67133170D01*
X117858170Y-67066343D01*
X117858422Y-67066219D01*
X117862241Y-67062401D01*
X117903491Y-67044186D01*
X117943699Y-67024531D01*
X117950129Y-67023594D01*
X117959062Y-67019650D01*
X118025000Y-67012000D01*
X118975000Y-67012000D01*
X119040938Y-67019650D01*
G37*
G36*
X130040938Y-66919650D02*
G01*
X130049871Y-66923594D01*
X130056300Y-66924531D01*
X130096498Y-66944182D01*
X130137759Y-66962401D01*
X130141578Y-66966220D01*
X130141829Y-66966343D01*
X130208656Y-67033170D01*
X130208778Y-67033420D01*
X130212599Y-67037241D01*
X130230822Y-67078512D01*
X130250468Y-67118699D01*
X130251404Y-67125126D01*
X130255350Y-67134062D01*
X130263000Y-67200000D01*
X130263000Y-67700000D01*
X130255350Y-67765938D01*
X130251404Y-67774874D01*
X130250468Y-67781300D01*
X130230826Y-67821477D01*
X130212599Y-67862759D01*
X130208777Y-67866580D01*
X130208656Y-67866829D01*
X130141829Y-67933656D01*
X130141580Y-67933777D01*
X130137759Y-67937599D01*
X130096477Y-67955826D01*
X130056300Y-67975468D01*
X130049874Y-67976404D01*
X130040938Y-67980350D01*
X129975000Y-67988000D01*
X129025000Y-67988000D01*
X128959062Y-67980350D01*
X128950126Y-67976404D01*
X128943699Y-67975468D01*
X128903512Y-67955822D01*
X128862241Y-67937599D01*
X128858420Y-67933778D01*
X128858170Y-67933656D01*
X128791343Y-67866829D01*
X128791220Y-67866578D01*
X128787401Y-67862759D01*
X128769182Y-67821498D01*
X128749531Y-67781300D01*
X128748594Y-67774871D01*
X128744650Y-67765938D01*
X128737000Y-67700000D01*
X128737000Y-67200000D01*
X128744650Y-67134062D01*
X128748594Y-67125129D01*
X128749531Y-67118699D01*
X128769186Y-67078491D01*
X128787401Y-67037241D01*
X128791219Y-67033422D01*
X128791343Y-67033170D01*
X128858170Y-66966343D01*
X128858422Y-66966219D01*
X128862241Y-66962401D01*
X128903491Y-66944186D01*
X128943699Y-66924531D01*
X128950129Y-66923594D01*
X128959062Y-66919650D01*
X129025000Y-66912000D01*
X129975000Y-66912000D01*
X130040938Y-66919650D01*
G37*
G36*
X126322013Y-64272358D02*
G01*
X126526693Y-64338862D01*
X126718450Y-64436567D01*
X126892561Y-64563066D01*
X127044740Y-64715245D01*
X127171239Y-64889356D01*
X127268944Y-65081113D01*
X127335448Y-65285793D01*
X127369115Y-65498356D01*
X127369115Y-65713570D01*
X127335448Y-65926133D01*
X127268944Y-66130813D01*
X127171239Y-66322570D01*
X127044740Y-66496681D01*
X126892561Y-66648860D01*
X126718450Y-66775359D01*
X126526693Y-66873064D01*
X126322013Y-66939568D01*
X126109450Y-66973235D01*
X125894236Y-66973235D01*
X125681673Y-66939568D01*
X125476993Y-66873064D01*
X125285236Y-66775359D01*
X125111125Y-66648860D01*
X124958946Y-66496681D01*
X124832447Y-66322570D01*
X124734742Y-66130813D01*
X124668238Y-65926133D01*
X124634571Y-65713570D01*
X124634571Y-65498356D01*
X124668238Y-65285793D01*
X124734742Y-65081113D01*
X124832447Y-64889356D01*
X124958946Y-64715245D01*
X125111125Y-64563066D01*
X125285236Y-64436567D01*
X125476993Y-64338862D01*
X125681673Y-64272358D01*
X125894236Y-64238691D01*
X126109450Y-64238691D01*
X126322013Y-64272358D01*
G37*
G36*
X111291214Y-64687197D02*
G01*
X111472905Y-64762457D01*
X111636423Y-64871716D01*
X111775484Y-65010777D01*
X111884743Y-65174295D01*
X111960003Y-65355986D01*
X111998369Y-65548869D01*
X111998369Y-65745531D01*
X111960003Y-65938414D01*
X111884743Y-66120105D01*
X111775484Y-66283623D01*
X111636423Y-66422684D01*
X111472905Y-66531943D01*
X111291214Y-66607203D01*
X111098331Y-66645569D01*
X110901669Y-66645569D01*
X110708786Y-66607203D01*
X110527095Y-66531943D01*
X110363577Y-66422684D01*
X110224516Y-66283623D01*
X110115257Y-66120105D01*
X110039997Y-65938414D01*
X110001631Y-65745531D01*
X110001631Y-65548869D01*
X110039997Y-65355986D01*
X110115257Y-65174295D01*
X110224516Y-65010777D01*
X110363577Y-64871716D01*
X110527095Y-64762457D01*
X110708786Y-64687197D01*
X110901669Y-64648831D01*
X111098331Y-64648831D01*
X111291214Y-64687197D01*
G37*
G36*
X107380406Y-64719594D02*
G01*
X107387347Y-64736353D01*
X107414131Y-64750000D01*
X107575013Y-64750000D01*
X107594595Y-64743637D01*
X107616110Y-64728004D01*
X107619594Y-64719594D01*
X107638415Y-64711798D01*
X107642206Y-64709044D01*
X107646834Y-64708311D01*
X107650000Y-64707000D01*
X108150000Y-64707000D01*
X108160328Y-64711278D01*
X108211002Y-64711278D01*
X108215263Y-64711278D01*
X108226392Y-64712743D01*
X108230508Y-64713845D01*
X108230509Y-64713846D01*
X108348356Y-64745422D01*
X108348358Y-64745423D01*
X108352471Y-64746525D01*
X108362842Y-64750821D01*
X108475881Y-64816084D01*
X108484787Y-64822917D01*
X108577083Y-64915213D01*
X108583916Y-64924119D01*
X108649179Y-65037158D01*
X108653475Y-65047529D01*
X108687257Y-65173608D01*
X108688722Y-65184737D01*
X108688722Y-65188997D01*
X108688722Y-65225544D01*
X108689123Y-65230636D01*
X108691688Y-65246832D01*
X108693000Y-65250000D01*
X108693000Y-65750000D01*
X108688722Y-65760328D01*
X108688722Y-65815263D01*
X108687257Y-65826392D01*
X108653475Y-65952471D01*
X108649179Y-65962842D01*
X108583916Y-66075881D01*
X108577083Y-66084787D01*
X108484787Y-66177083D01*
X108475881Y-66183916D01*
X108362842Y-66249179D01*
X108352471Y-66253475D01*
X108226392Y-66287257D01*
X108215263Y-66288722D01*
X108211002Y-66288722D01*
X108174456Y-66288722D01*
X108169364Y-66289123D01*
X108153167Y-66291688D01*
X108150000Y-66293000D01*
X108144883Y-66293000D01*
X107660296Y-66293000D01*
X107650000Y-66293000D01*
X107619594Y-66280406D01*
X107612652Y-66263646D01*
X107585869Y-66250000D01*
X107424987Y-66250000D01*
X107405405Y-66256363D01*
X107383889Y-66271994D01*
X107380406Y-66280406D01*
X107361579Y-66288203D01*
X107357793Y-66290955D01*
X107353168Y-66291687D01*
X107350000Y-66293000D01*
X107344883Y-66293000D01*
X106860295Y-66293000D01*
X106850000Y-66293000D01*
X106839672Y-66288722D01*
X106788998Y-66288722D01*
X106784737Y-66288722D01*
X106773608Y-66287257D01*
X106647529Y-66253475D01*
X106637158Y-66249179D01*
X106524119Y-66183916D01*
X106515213Y-66177083D01*
X106422917Y-66084787D01*
X106416084Y-66075881D01*
X106350821Y-65962842D01*
X106346525Y-65952471D01*
X106342758Y-65938414D01*
X106313846Y-65830509D01*
X106313845Y-65830508D01*
X106312743Y-65826392D01*
X106311278Y-65815263D01*
X106311278Y-65774455D01*
X106310877Y-65769363D01*
X106308312Y-65753168D01*
X106307000Y-65750000D01*
X106307000Y-65250000D01*
X106311278Y-65239671D01*
X106311278Y-65184737D01*
X106312743Y-65173608D01*
X106323578Y-65133170D01*
X106345422Y-65051643D01*
X106345423Y-65051638D01*
X106346525Y-65047529D01*
X106350821Y-65037158D01*
X106366052Y-65010777D01*
X106413953Y-64927809D01*
X106413955Y-64927805D01*
X106416084Y-64924119D01*
X106422917Y-64915213D01*
X106425928Y-64912201D01*
X106425932Y-64912197D01*
X106512197Y-64825932D01*
X106512201Y-64825928D01*
X106515213Y-64822917D01*
X106524119Y-64816084D01*
X106527805Y-64813955D01*
X106527809Y-64813953D01*
X106633470Y-64752950D01*
X106633471Y-64752949D01*
X106637158Y-64750821D01*
X106647529Y-64746525D01*
X106651638Y-64745423D01*
X106651643Y-64745422D01*
X106769490Y-64713846D01*
X106769492Y-64713845D01*
X106773608Y-64712743D01*
X106784737Y-64711278D01*
X106825544Y-64711278D01*
X106830636Y-64710877D01*
X106846832Y-64708311D01*
X106850000Y-64707000D01*
X107350000Y-64707000D01*
X107380406Y-64719594D01*
G37*
G36*
X130040938Y-65019650D02*
G01*
X130049871Y-65023594D01*
X130056300Y-65024531D01*
X130096498Y-65044182D01*
X130137759Y-65062401D01*
X130141578Y-65066220D01*
X130141829Y-65066343D01*
X130208656Y-65133170D01*
X130208778Y-65133420D01*
X130212599Y-65137241D01*
X130230822Y-65178512D01*
X130250468Y-65218699D01*
X130251404Y-65225126D01*
X130255350Y-65234062D01*
X130263000Y-65300000D01*
X130263000Y-65800000D01*
X130255350Y-65865938D01*
X130251404Y-65874874D01*
X130250468Y-65881300D01*
X130230826Y-65921477D01*
X130212599Y-65962759D01*
X130208777Y-65966580D01*
X130208656Y-65966829D01*
X130141829Y-66033656D01*
X130141580Y-66033777D01*
X130137759Y-66037599D01*
X130096477Y-66055826D01*
X130056300Y-66075468D01*
X130049874Y-66076404D01*
X130040938Y-66080350D01*
X129975000Y-66088000D01*
X129025000Y-66088000D01*
X128959062Y-66080350D01*
X128950126Y-66076404D01*
X128943699Y-66075468D01*
X128903512Y-66055822D01*
X128862241Y-66037599D01*
X128858420Y-66033778D01*
X128858170Y-66033656D01*
X128791343Y-65966829D01*
X128791220Y-65966578D01*
X128787401Y-65962759D01*
X128769182Y-65921498D01*
X128749531Y-65881300D01*
X128748594Y-65874871D01*
X128744650Y-65865938D01*
X128737000Y-65800000D01*
X128737000Y-65300000D01*
X128744650Y-65234062D01*
X128748594Y-65225129D01*
X128749531Y-65218699D01*
X128769186Y-65178491D01*
X128787401Y-65137241D01*
X128791219Y-65133422D01*
X128791343Y-65133170D01*
X128858170Y-65066343D01*
X128858422Y-65066219D01*
X128862241Y-65062401D01*
X128903491Y-65044186D01*
X128943699Y-65024531D01*
X128950129Y-65023594D01*
X128959062Y-65019650D01*
X129025000Y-65012000D01*
X129975000Y-65012000D01*
X130040938Y-65019650D01*
G37*
G36*
X111291214Y-62274197D02*
G01*
X111472905Y-62349457D01*
X111636423Y-62458716D01*
X111775484Y-62597777D01*
X111884743Y-62761295D01*
X111960003Y-62942986D01*
X111998369Y-63135869D01*
X111998369Y-63332531D01*
X111960003Y-63525414D01*
X111884743Y-63707105D01*
X111775484Y-63870623D01*
X111636423Y-64009684D01*
X111472905Y-64118943D01*
X111291214Y-64194203D01*
X111098331Y-64232569D01*
X110901669Y-64232569D01*
X110708786Y-64194203D01*
X110527095Y-64118943D01*
X110363577Y-64009684D01*
X110224516Y-63870623D01*
X110115257Y-63707105D01*
X110039997Y-63525414D01*
X110001631Y-63332531D01*
X110001631Y-63135869D01*
X110039997Y-62942986D01*
X110115257Y-62761295D01*
X110224516Y-62597777D01*
X110363577Y-62458716D01*
X110527095Y-62349457D01*
X110708786Y-62274197D01*
X110901669Y-62235831D01*
X111098331Y-62235831D01*
X111291214Y-62274197D01*
G37*
G36*
X122784542Y-61114893D02*
G01*
X122796870Y-61123130D01*
X122805107Y-61135458D01*
X122808000Y-61150000D01*
X122808000Y-62850000D01*
X122805107Y-62864542D01*
X122796870Y-62876870D01*
X122784542Y-62885107D01*
X122770000Y-62888000D01*
X121070000Y-62888000D01*
X121055458Y-62885107D01*
X121043130Y-62876870D01*
X121034893Y-62864542D01*
X121032000Y-62850000D01*
X121032000Y-61150000D01*
X121034893Y-61135458D01*
X121043130Y-61123130D01*
X121055458Y-61114893D01*
X121070000Y-61112000D01*
X122770000Y-61112000D01*
X122784542Y-61114893D01*
G37*
G36*
X114557773Y-61150237D02*
G01*
X114718600Y-61216854D01*
X114863341Y-61313567D01*
X114986433Y-61436659D01*
X115083146Y-61581400D01*
X115149763Y-61742227D01*
X115183724Y-61912961D01*
X115183724Y-62087039D01*
X115149763Y-62257773D01*
X115083146Y-62418600D01*
X114986433Y-62563341D01*
X114863341Y-62686433D01*
X114718600Y-62783146D01*
X114557773Y-62849763D01*
X114387039Y-62883724D01*
X114212961Y-62883724D01*
X114042227Y-62849763D01*
X113881400Y-62783146D01*
X113736659Y-62686433D01*
X113613567Y-62563341D01*
X113516854Y-62418600D01*
X113450237Y-62257773D01*
X113416276Y-62087039D01*
X113416276Y-61912961D01*
X113450237Y-61742227D01*
X113516854Y-61581400D01*
X113613567Y-61436659D01*
X113736659Y-61313567D01*
X113881400Y-61216854D01*
X114042227Y-61150237D01*
X114212961Y-61116276D01*
X114387039Y-61116276D01*
X114557773Y-61150237D01*
G37*
G36*
X117097773Y-61150237D02*
G01*
X117258600Y-61216854D01*
X117403341Y-61313567D01*
X117526433Y-61436659D01*
X117623146Y-61581400D01*
X117689763Y-61742227D01*
X117723724Y-61912961D01*
X117723724Y-62087039D01*
X117689763Y-62257773D01*
X117623146Y-62418600D01*
X117526433Y-62563341D01*
X117403341Y-62686433D01*
X117258600Y-62783146D01*
X117097773Y-62849763D01*
X116927039Y-62883724D01*
X116752961Y-62883724D01*
X116582227Y-62849763D01*
X116421400Y-62783146D01*
X116276659Y-62686433D01*
X116153567Y-62563341D01*
X116056854Y-62418600D01*
X115990237Y-62257773D01*
X115956276Y-62087039D01*
X115956276Y-61912961D01*
X115990237Y-61742227D01*
X116056854Y-61581400D01*
X116153567Y-61436659D01*
X116276659Y-61313567D01*
X116421400Y-61216854D01*
X116582227Y-61150237D01*
X116752961Y-61116276D01*
X116927039Y-61116276D01*
X117097773Y-61150237D01*
G37*
G36*
X119637773Y-61150237D02*
G01*
X119798600Y-61216854D01*
X119943341Y-61313567D01*
X120066433Y-61436659D01*
X120163146Y-61581400D01*
X120229763Y-61742227D01*
X120263724Y-61912961D01*
X120263724Y-62087039D01*
X120229763Y-62257773D01*
X120163146Y-62418600D01*
X120066433Y-62563341D01*
X119943341Y-62686433D01*
X119798600Y-62783146D01*
X119637773Y-62849763D01*
X119467039Y-62883724D01*
X119292961Y-62883724D01*
X119122227Y-62849763D01*
X118961400Y-62783146D01*
X118816659Y-62686433D01*
X118693567Y-62563341D01*
X118596854Y-62418600D01*
X118530237Y-62257773D01*
X118496276Y-62087039D01*
X118496276Y-61912961D01*
X118530237Y-61742227D01*
X118596854Y-61581400D01*
X118693567Y-61436659D01*
X118816659Y-61313567D01*
X118961400Y-61216854D01*
X119122227Y-61150237D01*
X119292961Y-61116276D01*
X119467039Y-61116276D01*
X119637773Y-61150237D01*
G37*
G36*
X127365938Y-61244650D02*
G01*
X127374871Y-61248594D01*
X127381300Y-61249531D01*
X127421498Y-61269182D01*
X127462759Y-61287401D01*
X127466578Y-61291220D01*
X127466829Y-61291343D01*
X127533656Y-61358170D01*
X127533778Y-61358420D01*
X127537599Y-61362241D01*
X127555822Y-61403512D01*
X127575468Y-61443699D01*
X127576404Y-61450126D01*
X127580350Y-61459062D01*
X127588000Y-61525000D01*
X127588000Y-62475000D01*
X127580350Y-62540938D01*
X127576404Y-62549874D01*
X127575468Y-62556300D01*
X127555826Y-62596477D01*
X127537599Y-62637759D01*
X127533777Y-62641580D01*
X127533656Y-62641829D01*
X127466829Y-62708656D01*
X127466580Y-62708777D01*
X127462759Y-62712599D01*
X127421477Y-62730826D01*
X127381300Y-62750468D01*
X127374874Y-62751404D01*
X127365938Y-62755350D01*
X127300000Y-62763000D01*
X126800000Y-62763000D01*
X126734062Y-62755350D01*
X126725126Y-62751404D01*
X126718699Y-62750468D01*
X126678512Y-62730822D01*
X126637241Y-62712599D01*
X126633420Y-62708778D01*
X126633170Y-62708656D01*
X126566343Y-62641829D01*
X126566220Y-62641578D01*
X126562401Y-62637759D01*
X126544182Y-62596498D01*
X126524531Y-62556300D01*
X126523594Y-62549871D01*
X126519650Y-62540938D01*
X126512000Y-62475000D01*
X126512000Y-61525000D01*
X126519650Y-61459062D01*
X126523594Y-61450129D01*
X126524531Y-61443699D01*
X126544186Y-61403491D01*
X126562401Y-61362241D01*
X126566219Y-61358422D01*
X126566343Y-61358170D01*
X126633170Y-61291343D01*
X126633422Y-61291219D01*
X126637241Y-61287401D01*
X126678491Y-61269186D01*
X126718699Y-61249531D01*
X126725129Y-61248594D01*
X126734062Y-61244650D01*
X126800000Y-61237000D01*
X127300000Y-61237000D01*
X127365938Y-61244650D01*
G37*
G36*
X129265938Y-61244650D02*
G01*
X129274871Y-61248594D01*
X129281300Y-61249531D01*
X129321498Y-61269182D01*
X129362759Y-61287401D01*
X129366578Y-61291220D01*
X129366829Y-61291343D01*
X129433656Y-61358170D01*
X129433778Y-61358420D01*
X129437599Y-61362241D01*
X129455822Y-61403512D01*
X129475468Y-61443699D01*
X129476404Y-61450126D01*
X129480350Y-61459062D01*
X129488000Y-61525000D01*
X129488000Y-62475000D01*
X129480350Y-62540938D01*
X129476404Y-62549874D01*
X129475468Y-62556300D01*
X129455826Y-62596477D01*
X129437599Y-62637759D01*
X129433777Y-62641580D01*
X129433656Y-62641829D01*
X129366829Y-62708656D01*
X129366580Y-62708777D01*
X129362759Y-62712599D01*
X129321477Y-62730826D01*
X129281300Y-62750468D01*
X129274874Y-62751404D01*
X129265938Y-62755350D01*
X129200000Y-62763000D01*
X128700000Y-62763000D01*
X128634062Y-62755350D01*
X128625126Y-62751404D01*
X128618699Y-62750468D01*
X128578512Y-62730822D01*
X128537241Y-62712599D01*
X128533420Y-62708778D01*
X128533170Y-62708656D01*
X128466343Y-62641829D01*
X128466220Y-62641578D01*
X128462401Y-62637759D01*
X128444182Y-62596498D01*
X128424531Y-62556300D01*
X128423594Y-62549871D01*
X128419650Y-62540938D01*
X128412000Y-62475000D01*
X128412000Y-61525000D01*
X128419650Y-61459062D01*
X128423594Y-61450129D01*
X128424531Y-61443699D01*
X128444186Y-61403491D01*
X128462401Y-61362241D01*
X128466219Y-61358422D01*
X128466343Y-61358170D01*
X128533170Y-61291343D01*
X128533422Y-61291219D01*
X128537241Y-61287401D01*
X128578491Y-61269186D01*
X128618699Y-61249531D01*
X128625129Y-61248594D01*
X128634062Y-61244650D01*
X128700000Y-61237000D01*
X129200000Y-61237000D01*
X129265938Y-61244650D01*
G37*
%LPD*%
M02*
