%TF.GenerationSoftware,KiCad,Pcbnew,9.0.3*%
%TF.CreationDate,2025-07-19T03:53:29-07:00*%
%TF.ProjectId,flex-cv-in,666c6578-2d63-4762-9d69-6e2e6b696361,rev?*%
%TF.SameCoordinates,Original*%
%TF.FileFunction,Soldermask,Top*%
%TF.FilePolarity,Negative*%
%FSLAX46Y46*%
G04 Gerber Fmt 4.6, Leading zero omitted, Abs format (unit mm)*
G04 Created by KiCad (PCBNEW 9.0.3) date 2025-07-19 03:53:29*
%MOMM*%
%LPD*%
G01*
G04 APERTURE LIST*
G04 APERTURE END LIST*
G36*
X116480406Y-74219594D02*
G01*
X116487347Y-74236353D01*
X116514131Y-74250000D01*
X116675013Y-74250000D01*
X116694595Y-74243637D01*
X116716110Y-74228004D01*
X116719594Y-74219594D01*
X116738415Y-74211798D01*
X116742206Y-74209044D01*
X116746834Y-74208311D01*
X116750000Y-74207000D01*
X117250000Y-74207000D01*
X117260328Y-74211278D01*
X117311002Y-74211278D01*
X117315263Y-74211278D01*
X117326392Y-74212743D01*
X117330508Y-74213845D01*
X117330509Y-74213846D01*
X117448356Y-74245422D01*
X117448358Y-74245423D01*
X117452471Y-74246525D01*
X117462842Y-74250821D01*
X117575881Y-74316084D01*
X117584787Y-74322917D01*
X117677083Y-74415213D01*
X117683916Y-74424119D01*
X117749179Y-74537158D01*
X117753475Y-74547529D01*
X117787257Y-74673608D01*
X117788722Y-74684737D01*
X117788722Y-74688997D01*
X117788722Y-74725544D01*
X117789123Y-74730636D01*
X117791688Y-74746832D01*
X117793000Y-74750000D01*
X117793000Y-75250000D01*
X117788722Y-75260328D01*
X117788722Y-75315263D01*
X117787257Y-75326392D01*
X117753475Y-75452471D01*
X117749179Y-75462842D01*
X117683916Y-75575881D01*
X117677083Y-75584787D01*
X117584787Y-75677083D01*
X117575881Y-75683916D01*
X117462842Y-75749179D01*
X117452471Y-75753475D01*
X117326392Y-75787257D01*
X117315263Y-75788722D01*
X117311002Y-75788722D01*
X117274456Y-75788722D01*
X117269364Y-75789123D01*
X117253167Y-75791688D01*
X117250000Y-75793000D01*
X117244883Y-75793000D01*
X116760296Y-75793000D01*
X116750000Y-75793000D01*
X116719594Y-75780406D01*
X116712652Y-75763646D01*
X116685869Y-75750000D01*
X116524987Y-75750000D01*
X116505405Y-75756363D01*
X116483889Y-75771994D01*
X116480406Y-75780406D01*
X116461579Y-75788203D01*
X116457793Y-75790955D01*
X116453168Y-75791687D01*
X116450000Y-75793000D01*
X116444883Y-75793000D01*
X115960295Y-75793000D01*
X115950000Y-75793000D01*
X115939672Y-75788722D01*
X115888998Y-75788722D01*
X115884737Y-75788722D01*
X115873608Y-75787257D01*
X115747529Y-75753475D01*
X115737158Y-75749179D01*
X115624119Y-75683916D01*
X115615213Y-75677083D01*
X115522917Y-75584787D01*
X115516084Y-75575881D01*
X115450821Y-75462842D01*
X115446525Y-75452471D01*
X115444600Y-75445289D01*
X115413846Y-75330509D01*
X115413845Y-75330508D01*
X115412743Y-75326392D01*
X115411278Y-75315263D01*
X115411278Y-75274455D01*
X115410877Y-75269363D01*
X115408312Y-75253168D01*
X115407000Y-75250000D01*
X115407000Y-74750000D01*
X115411278Y-74739671D01*
X115411278Y-74684737D01*
X115412743Y-74673608D01*
X115413846Y-74669490D01*
X115445422Y-74551643D01*
X115445423Y-74551638D01*
X115446525Y-74547529D01*
X115450821Y-74537158D01*
X115452950Y-74533470D01*
X115513953Y-74427809D01*
X115513955Y-74427805D01*
X115516084Y-74424119D01*
X115522917Y-74415213D01*
X115525928Y-74412201D01*
X115525932Y-74412197D01*
X115612197Y-74325932D01*
X115612201Y-74325928D01*
X115615213Y-74322917D01*
X115624119Y-74316084D01*
X115627805Y-74313955D01*
X115627809Y-74313953D01*
X115733470Y-74252950D01*
X115733471Y-74252949D01*
X115737158Y-74250821D01*
X115747529Y-74246525D01*
X115751638Y-74245423D01*
X115751643Y-74245422D01*
X115869490Y-74213846D01*
X115869492Y-74213845D01*
X115873608Y-74212743D01*
X115884737Y-74211278D01*
X115925544Y-74211278D01*
X115930636Y-74210877D01*
X115946832Y-74208311D01*
X115950000Y-74207000D01*
X116450000Y-74207000D01*
X116480406Y-74219594D01*
G37*
G36*
X126322013Y-73060758D02*
G01*
X126526693Y-73127262D01*
X126718450Y-73224967D01*
X126892561Y-73351466D01*
X127044740Y-73503645D01*
X127171239Y-73677756D01*
X127268944Y-73869513D01*
X127335448Y-74074193D01*
X127369115Y-74286756D01*
X127369115Y-74501970D01*
X127335448Y-74714533D01*
X127268944Y-74919213D01*
X127171239Y-75110970D01*
X127044740Y-75285081D01*
X126892561Y-75437260D01*
X126718450Y-75563759D01*
X126526693Y-75661464D01*
X126322013Y-75727968D01*
X126109450Y-75761635D01*
X125894236Y-75761635D01*
X125681673Y-75727968D01*
X125476993Y-75661464D01*
X125285236Y-75563759D01*
X125111125Y-75437260D01*
X124958946Y-75285081D01*
X124832447Y-75110970D01*
X124734742Y-74919213D01*
X124668238Y-74714533D01*
X124634571Y-74501970D01*
X124634571Y-74286756D01*
X124668238Y-74074193D01*
X124734742Y-73869513D01*
X124832447Y-73677756D01*
X124958946Y-73503645D01*
X125111125Y-73351466D01*
X125285236Y-73224967D01*
X125476993Y-73127262D01*
X125681673Y-73060758D01*
X125894236Y-73027091D01*
X126109450Y-73027091D01*
X126322013Y-73060758D01*
G37*
G36*
X119615938Y-74269650D02*
G01*
X119624871Y-74273594D01*
X119631300Y-74274531D01*
X119671498Y-74294182D01*
X119712759Y-74312401D01*
X119716578Y-74316220D01*
X119716829Y-74316343D01*
X119783656Y-74383170D01*
X119783778Y-74383420D01*
X119787599Y-74387241D01*
X119805822Y-74428512D01*
X119825468Y-74468699D01*
X119826404Y-74475126D01*
X119830350Y-74484062D01*
X119838000Y-74550000D01*
X119838000Y-75450000D01*
X119830350Y-75515938D01*
X119826404Y-75524874D01*
X119825468Y-75531300D01*
X119805826Y-75571477D01*
X119787599Y-75612759D01*
X119783777Y-75616580D01*
X119783656Y-75616829D01*
X119716829Y-75683656D01*
X119716580Y-75683777D01*
X119712759Y-75687599D01*
X119671477Y-75705826D01*
X119631300Y-75725468D01*
X119624874Y-75726404D01*
X119615938Y-75730350D01*
X119550000Y-75738000D01*
X119025000Y-75738000D01*
X118959062Y-75730350D01*
X118950126Y-75726404D01*
X118943699Y-75725468D01*
X118903512Y-75705822D01*
X118862241Y-75687599D01*
X118858420Y-75683778D01*
X118858170Y-75683656D01*
X118791343Y-75616829D01*
X118791220Y-75616578D01*
X118787401Y-75612759D01*
X118769182Y-75571498D01*
X118749531Y-75531300D01*
X118748594Y-75524871D01*
X118744650Y-75515938D01*
X118737000Y-75450000D01*
X118737000Y-74550000D01*
X118744650Y-74484062D01*
X118748594Y-74475129D01*
X118749531Y-74468699D01*
X118769186Y-74428491D01*
X118787401Y-74387241D01*
X118791219Y-74383422D01*
X118791343Y-74383170D01*
X118858170Y-74316343D01*
X118858422Y-74316219D01*
X118862241Y-74312401D01*
X118903491Y-74294186D01*
X118943699Y-74274531D01*
X118950129Y-74273594D01*
X118959062Y-74269650D01*
X119025000Y-74262000D01*
X119550000Y-74262000D01*
X119615938Y-74269650D01*
G37*
G36*
X121440938Y-74269650D02*
G01*
X121449871Y-74273594D01*
X121456300Y-74274531D01*
X121496498Y-74294182D01*
X121537759Y-74312401D01*
X121541578Y-74316220D01*
X121541829Y-74316343D01*
X121608656Y-74383170D01*
X121608778Y-74383420D01*
X121612599Y-74387241D01*
X121630822Y-74428512D01*
X121650468Y-74468699D01*
X121651404Y-74475126D01*
X121655350Y-74484062D01*
X121663000Y-74550000D01*
X121663000Y-75450000D01*
X121655350Y-75515938D01*
X121651404Y-75524874D01*
X121650468Y-75531300D01*
X121630826Y-75571477D01*
X121612599Y-75612759D01*
X121608777Y-75616580D01*
X121608656Y-75616829D01*
X121541829Y-75683656D01*
X121541580Y-75683777D01*
X121537759Y-75687599D01*
X121496477Y-75705826D01*
X121456300Y-75725468D01*
X121449874Y-75726404D01*
X121440938Y-75730350D01*
X121375000Y-75738000D01*
X120850000Y-75738000D01*
X120784062Y-75730350D01*
X120775126Y-75726404D01*
X120768699Y-75725468D01*
X120728512Y-75705822D01*
X120687241Y-75687599D01*
X120683420Y-75683778D01*
X120683170Y-75683656D01*
X120616343Y-75616829D01*
X120616220Y-75616578D01*
X120612401Y-75612759D01*
X120594182Y-75571498D01*
X120574531Y-75531300D01*
X120573594Y-75524871D01*
X120569650Y-75515938D01*
X120562000Y-75450000D01*
X120562000Y-74550000D01*
X120569650Y-74484062D01*
X120573594Y-74475129D01*
X120574531Y-74468699D01*
X120594186Y-74428491D01*
X120612401Y-74387241D01*
X120616219Y-74383422D01*
X120616343Y-74383170D01*
X120683170Y-74316343D01*
X120683422Y-74316219D01*
X120687241Y-74312401D01*
X120728491Y-74294186D01*
X120768699Y-74274531D01*
X120775129Y-74273594D01*
X120784062Y-74269650D01*
X120850000Y-74262000D01*
X121375000Y-74262000D01*
X121440938Y-74269650D01*
G37*
G36*
X111291214Y-73246997D02*
G01*
X111472905Y-73322257D01*
X111636423Y-73431516D01*
X111775484Y-73570577D01*
X111884743Y-73734095D01*
X111960003Y-73915786D01*
X111998369Y-74108669D01*
X111998369Y-74305331D01*
X111960003Y-74498214D01*
X111884743Y-74679905D01*
X111775484Y-74843423D01*
X111636423Y-74982484D01*
X111472905Y-75091743D01*
X111291214Y-75167003D01*
X111098331Y-75205369D01*
X110901669Y-75205369D01*
X110708786Y-75167003D01*
X110527095Y-75091743D01*
X110363577Y-74982484D01*
X110224516Y-74843423D01*
X110115257Y-74679905D01*
X110039997Y-74498214D01*
X110001631Y-74305331D01*
X110001631Y-74108669D01*
X110039997Y-73915786D01*
X110115257Y-73734095D01*
X110224516Y-73570577D01*
X110363577Y-73431516D01*
X110527095Y-73322257D01*
X110708786Y-73246997D01*
X110901669Y-73208631D01*
X111098331Y-73208631D01*
X111291214Y-73246997D01*
G37*
G36*
X129960328Y-70661278D02*
G01*
X130011002Y-70661278D01*
X130015263Y-70661278D01*
X130026392Y-70662743D01*
X130030508Y-70663845D01*
X130030509Y-70663846D01*
X130148356Y-70695422D01*
X130148358Y-70695423D01*
X130152471Y-70696525D01*
X130162842Y-70700821D01*
X130275881Y-70766084D01*
X130284787Y-70772917D01*
X130377083Y-70865213D01*
X130383916Y-70874119D01*
X130449179Y-70987158D01*
X130453475Y-70997529D01*
X130487257Y-71123608D01*
X130488722Y-71134737D01*
X130488722Y-71138997D01*
X130488722Y-71175544D01*
X130489123Y-71180636D01*
X130491688Y-71196832D01*
X130493000Y-71200000D01*
X130493000Y-71750000D01*
X130480406Y-71780406D01*
X130463646Y-71787347D01*
X130450000Y-71814130D01*
X130450000Y-71938215D01*
X130464225Y-71964829D01*
X130464542Y-71964893D01*
X130476870Y-71973130D01*
X130485107Y-71985458D01*
X130488000Y-72000000D01*
X130488000Y-73000000D01*
X130485107Y-73014542D01*
X130476870Y-73026870D01*
X130464542Y-73035107D01*
X130464224Y-73035170D01*
X130450000Y-73061782D01*
X130450000Y-73175012D01*
X130456363Y-73194594D01*
X130471995Y-73216110D01*
X130480406Y-73219594D01*
X130488203Y-73238418D01*
X130490954Y-73242205D01*
X130491686Y-73246829D01*
X130493000Y-73250000D01*
X130493000Y-73800000D01*
X130488722Y-73810328D01*
X130488722Y-73865263D01*
X130487257Y-73876392D01*
X130453475Y-74002471D01*
X130449179Y-74012842D01*
X130383916Y-74125881D01*
X130377083Y-74134787D01*
X130284787Y-74227083D01*
X130275881Y-74233916D01*
X130162842Y-74299179D01*
X130152471Y-74303475D01*
X130026392Y-74337257D01*
X130015263Y-74338722D01*
X130011002Y-74338722D01*
X129974456Y-74338722D01*
X129969364Y-74339123D01*
X129953167Y-74341688D01*
X129950000Y-74343000D01*
X129944883Y-74343000D01*
X129460295Y-74343000D01*
X129450000Y-74343000D01*
X129439672Y-74338722D01*
X129388998Y-74338722D01*
X129384737Y-74338722D01*
X129373608Y-74337257D01*
X129247529Y-74303475D01*
X129237158Y-74299179D01*
X129124119Y-74233916D01*
X129115213Y-74227083D01*
X129022917Y-74134787D01*
X129016084Y-74125881D01*
X128950821Y-74012842D01*
X128946525Y-74002471D01*
X128912743Y-73876392D01*
X128911278Y-73865263D01*
X128911278Y-73824455D01*
X128910877Y-73819363D01*
X128908312Y-73803168D01*
X128907000Y-73800000D01*
X128907000Y-73250000D01*
X128919594Y-73219594D01*
X128936353Y-73212652D01*
X128950000Y-73185869D01*
X128950000Y-73061782D01*
X128935775Y-73035170D01*
X128935458Y-73035107D01*
X128923130Y-73026870D01*
X128914893Y-73014542D01*
X128912000Y-73000000D01*
X128912000Y-72000000D01*
X128914893Y-71985458D01*
X128923130Y-71973130D01*
X128935458Y-71964893D01*
X128935774Y-71964829D01*
X128950000Y-71938215D01*
X128950000Y-71824987D01*
X128943637Y-71805405D01*
X128928004Y-71783889D01*
X128919594Y-71780406D01*
X128911797Y-71761582D01*
X128909044Y-71757793D01*
X128908311Y-71753166D01*
X128907000Y-71750000D01*
X128907000Y-71200000D01*
X128911278Y-71189671D01*
X128911278Y-71134737D01*
X128912743Y-71123608D01*
X128913846Y-71119490D01*
X128945422Y-71001643D01*
X128945423Y-71001638D01*
X128946525Y-70997529D01*
X128950821Y-70987158D01*
X128952950Y-70983470D01*
X129013953Y-70877809D01*
X129013955Y-70877805D01*
X129016084Y-70874119D01*
X129022917Y-70865213D01*
X129025928Y-70862201D01*
X129025932Y-70862197D01*
X129112197Y-70775932D01*
X129112201Y-70775928D01*
X129115213Y-70772917D01*
X129124119Y-70766084D01*
X129127805Y-70763955D01*
X129127809Y-70763953D01*
X129233470Y-70702950D01*
X129233471Y-70702949D01*
X129237158Y-70700821D01*
X129247529Y-70696525D01*
X129251638Y-70695423D01*
X129251643Y-70695422D01*
X129369490Y-70663846D01*
X129369492Y-70663845D01*
X129373608Y-70662743D01*
X129384737Y-70661278D01*
X129425544Y-70661278D01*
X129430636Y-70660877D01*
X129446832Y-70658311D01*
X129450000Y-70657000D01*
X129950000Y-70657000D01*
X129960328Y-70661278D01*
G37*
G36*
X119615938Y-72169650D02*
G01*
X119624871Y-72173594D01*
X119631300Y-72174531D01*
X119671498Y-72194182D01*
X119712759Y-72212401D01*
X119716578Y-72216220D01*
X119716829Y-72216343D01*
X119783656Y-72283170D01*
X119783778Y-72283420D01*
X119787599Y-72287241D01*
X119805822Y-72328512D01*
X119825468Y-72368699D01*
X119826404Y-72375126D01*
X119830350Y-72384062D01*
X119838000Y-72450000D01*
X119838000Y-73350000D01*
X119830350Y-73415938D01*
X119826404Y-73424874D01*
X119825468Y-73431300D01*
X119805826Y-73471477D01*
X119787599Y-73512759D01*
X119783777Y-73516580D01*
X119783656Y-73516829D01*
X119716829Y-73583656D01*
X119716580Y-73583777D01*
X119712759Y-73587599D01*
X119671477Y-73605826D01*
X119631300Y-73625468D01*
X119624874Y-73626404D01*
X119615938Y-73630350D01*
X119550000Y-73638000D01*
X119025000Y-73638000D01*
X118959062Y-73630350D01*
X118950126Y-73626404D01*
X118943699Y-73625468D01*
X118903512Y-73605822D01*
X118862241Y-73587599D01*
X118858420Y-73583778D01*
X118858170Y-73583656D01*
X118791343Y-73516829D01*
X118791220Y-73516578D01*
X118787401Y-73512759D01*
X118769182Y-73471498D01*
X118749531Y-73431300D01*
X118748594Y-73424871D01*
X118744650Y-73415938D01*
X118737000Y-73350000D01*
X118737000Y-72450000D01*
X118744650Y-72384062D01*
X118748594Y-72375129D01*
X118749531Y-72368699D01*
X118769186Y-72328491D01*
X118787401Y-72287241D01*
X118791219Y-72283422D01*
X118791343Y-72283170D01*
X118858170Y-72216343D01*
X118858422Y-72216219D01*
X118862241Y-72212401D01*
X118903491Y-72194186D01*
X118943699Y-72174531D01*
X118950129Y-72173594D01*
X118959062Y-72169650D01*
X119025000Y-72162000D01*
X119550000Y-72162000D01*
X119615938Y-72169650D01*
G37*
G36*
X121440938Y-72169650D02*
G01*
X121449871Y-72173594D01*
X121456300Y-72174531D01*
X121496498Y-72194182D01*
X121537759Y-72212401D01*
X121541578Y-72216220D01*
X121541829Y-72216343D01*
X121608656Y-72283170D01*
X121608778Y-72283420D01*
X121612599Y-72287241D01*
X121630822Y-72328512D01*
X121650468Y-72368699D01*
X121651404Y-72375126D01*
X121655350Y-72384062D01*
X121663000Y-72450000D01*
X121663000Y-73350000D01*
X121655350Y-73415938D01*
X121651404Y-73424874D01*
X121650468Y-73431300D01*
X121630826Y-73471477D01*
X121612599Y-73512759D01*
X121608777Y-73516580D01*
X121608656Y-73516829D01*
X121541829Y-73583656D01*
X121541580Y-73583777D01*
X121537759Y-73587599D01*
X121496477Y-73605826D01*
X121456300Y-73625468D01*
X121449874Y-73626404D01*
X121440938Y-73630350D01*
X121375000Y-73638000D01*
X120850000Y-73638000D01*
X120784062Y-73630350D01*
X120775126Y-73626404D01*
X120768699Y-73625468D01*
X120728512Y-73605822D01*
X120687241Y-73587599D01*
X120683420Y-73583778D01*
X120683170Y-73583656D01*
X120616343Y-73516829D01*
X120616220Y-73516578D01*
X120612401Y-73512759D01*
X120594182Y-73471498D01*
X120574531Y-73431300D01*
X120573594Y-73424871D01*
X120569650Y-73415938D01*
X120562000Y-73350000D01*
X120562000Y-72450000D01*
X120569650Y-72384062D01*
X120573594Y-72375129D01*
X120574531Y-72368699D01*
X120594186Y-72328491D01*
X120612401Y-72287241D01*
X120616219Y-72283422D01*
X120616343Y-72283170D01*
X120683170Y-72216343D01*
X120683422Y-72216219D01*
X120687241Y-72212401D01*
X120728491Y-72194186D01*
X120768699Y-72174531D01*
X120775129Y-72173594D01*
X120784062Y-72169650D01*
X120850000Y-72162000D01*
X121375000Y-72162000D01*
X121440938Y-72169650D01*
G37*
G36*
X133285024Y-71640926D02*
G01*
X133455215Y-71711422D01*
X133608382Y-71813765D01*
X133738641Y-71944024D01*
X133840984Y-72097191D01*
X133911480Y-72267382D01*
X133947418Y-72448056D01*
X133947418Y-72632270D01*
X133911480Y-72812944D01*
X133840984Y-72983135D01*
X133738641Y-73136302D01*
X133608382Y-73266561D01*
X133455215Y-73368904D01*
X133285024Y-73439400D01*
X133104350Y-73475338D01*
X132920136Y-73475338D01*
X132739462Y-73439400D01*
X132569271Y-73368904D01*
X132416104Y-73266561D01*
X132285845Y-73136302D01*
X132183502Y-72983135D01*
X132113006Y-72812944D01*
X132077068Y-72632270D01*
X132077068Y-72448056D01*
X132113006Y-72267382D01*
X132183502Y-72097191D01*
X132285845Y-71944024D01*
X132416104Y-71813765D01*
X132569271Y-71711422D01*
X132739462Y-71640926D01*
X132920136Y-71604988D01*
X133104350Y-71604988D01*
X133285024Y-71640926D01*
G37*
G36*
X114615938Y-71769650D02*
G01*
X114624871Y-71773594D01*
X114631300Y-71774531D01*
X114671498Y-71794182D01*
X114712759Y-71812401D01*
X114716578Y-71816220D01*
X114716829Y-71816343D01*
X114783656Y-71883170D01*
X114783778Y-71883420D01*
X114787599Y-71887241D01*
X114805822Y-71928512D01*
X114825468Y-71968699D01*
X114826404Y-71975126D01*
X114830350Y-71984062D01*
X114838000Y-72050000D01*
X114838000Y-72950000D01*
X114830350Y-73015938D01*
X114826404Y-73024874D01*
X114825468Y-73031300D01*
X114805826Y-73071477D01*
X114787599Y-73112759D01*
X114783777Y-73116580D01*
X114783656Y-73116829D01*
X114716829Y-73183656D01*
X114716580Y-73183777D01*
X114712759Y-73187599D01*
X114671477Y-73205826D01*
X114631300Y-73225468D01*
X114624874Y-73226404D01*
X114615938Y-73230350D01*
X114550000Y-73238000D01*
X114025000Y-73238000D01*
X113959062Y-73230350D01*
X113950126Y-73226404D01*
X113943699Y-73225468D01*
X113903512Y-73205822D01*
X113862241Y-73187599D01*
X113858420Y-73183778D01*
X113858170Y-73183656D01*
X113791343Y-73116829D01*
X113791220Y-73116578D01*
X113787401Y-73112759D01*
X113769182Y-73071498D01*
X113749531Y-73031300D01*
X113748594Y-73024871D01*
X113744650Y-73015938D01*
X113737000Y-72950000D01*
X113737000Y-72050000D01*
X113744650Y-71984062D01*
X113748594Y-71975129D01*
X113749531Y-71968699D01*
X113769186Y-71928491D01*
X113787401Y-71887241D01*
X113791219Y-71883422D01*
X113791343Y-71883170D01*
X113858170Y-71816343D01*
X113858422Y-71816219D01*
X113862241Y-71812401D01*
X113903491Y-71794186D01*
X113943699Y-71774531D01*
X113950129Y-71773594D01*
X113959062Y-71769650D01*
X114025000Y-71762000D01*
X114550000Y-71762000D01*
X114615938Y-71769650D01*
G37*
G36*
X116440938Y-71769650D02*
G01*
X116449871Y-71773594D01*
X116456300Y-71774531D01*
X116496498Y-71794182D01*
X116537759Y-71812401D01*
X116541578Y-71816220D01*
X116541829Y-71816343D01*
X116608656Y-71883170D01*
X116608778Y-71883420D01*
X116612599Y-71887241D01*
X116630822Y-71928512D01*
X116650468Y-71968699D01*
X116651404Y-71975126D01*
X116655350Y-71984062D01*
X116663000Y-72050000D01*
X116663000Y-72950000D01*
X116655350Y-73015938D01*
X116651404Y-73024874D01*
X116650468Y-73031300D01*
X116630826Y-73071477D01*
X116612599Y-73112759D01*
X116608777Y-73116580D01*
X116608656Y-73116829D01*
X116541829Y-73183656D01*
X116541580Y-73183777D01*
X116537759Y-73187599D01*
X116496477Y-73205826D01*
X116456300Y-73225468D01*
X116449874Y-73226404D01*
X116440938Y-73230350D01*
X116375000Y-73238000D01*
X115850000Y-73238000D01*
X115784062Y-73230350D01*
X115775126Y-73226404D01*
X115768699Y-73225468D01*
X115728512Y-73205822D01*
X115687241Y-73187599D01*
X115683420Y-73183778D01*
X115683170Y-73183656D01*
X115616343Y-73116829D01*
X115616220Y-73116578D01*
X115612401Y-73112759D01*
X115594182Y-73071498D01*
X115574531Y-73031300D01*
X115573594Y-73024871D01*
X115569650Y-73015938D01*
X115562000Y-72950000D01*
X115562000Y-72050000D01*
X115569650Y-71984062D01*
X115573594Y-71975129D01*
X115574531Y-71968699D01*
X115594186Y-71928491D01*
X115612401Y-71887241D01*
X115616219Y-71883422D01*
X115616343Y-71883170D01*
X115683170Y-71816343D01*
X115683422Y-71816219D01*
X115687241Y-71812401D01*
X115728491Y-71794186D01*
X115768699Y-71774531D01*
X115775129Y-71773594D01*
X115784062Y-71769650D01*
X115850000Y-71762000D01*
X116375000Y-71762000D01*
X116440938Y-71769650D01*
G37*
G36*
X123415938Y-70669650D02*
G01*
X123424871Y-70673594D01*
X123431300Y-70674531D01*
X123471498Y-70694182D01*
X123512759Y-70712401D01*
X123516578Y-70716220D01*
X123516829Y-70716343D01*
X123583656Y-70783170D01*
X123583778Y-70783420D01*
X123587599Y-70787241D01*
X123605822Y-70828512D01*
X123625468Y-70868699D01*
X123626404Y-70875126D01*
X123630350Y-70884062D01*
X123638000Y-70950000D01*
X123638000Y-71850000D01*
X123630350Y-71915938D01*
X123626404Y-71924874D01*
X123625468Y-71931300D01*
X123605826Y-71971477D01*
X123587599Y-72012759D01*
X123583777Y-72016580D01*
X123583656Y-72016829D01*
X123516829Y-72083656D01*
X123516580Y-72083777D01*
X123512759Y-72087599D01*
X123471477Y-72105826D01*
X123431300Y-72125468D01*
X123424874Y-72126404D01*
X123415938Y-72130350D01*
X123350000Y-72138000D01*
X122825000Y-72138000D01*
X122759062Y-72130350D01*
X122750126Y-72126404D01*
X122743699Y-72125468D01*
X122703512Y-72105822D01*
X122662241Y-72087599D01*
X122658420Y-72083778D01*
X122658170Y-72083656D01*
X122591343Y-72016829D01*
X122591220Y-72016578D01*
X122587401Y-72012759D01*
X122569182Y-71971498D01*
X122549531Y-71931300D01*
X122548594Y-71924871D01*
X122544650Y-71915938D01*
X122537000Y-71850000D01*
X122537000Y-70950000D01*
X122544650Y-70884062D01*
X122548594Y-70875129D01*
X122549531Y-70868699D01*
X122569186Y-70828491D01*
X122587401Y-70787241D01*
X122591219Y-70783422D01*
X122591343Y-70783170D01*
X122658170Y-70716343D01*
X122658422Y-70716219D01*
X122662241Y-70712401D01*
X122703491Y-70694186D01*
X122743699Y-70674531D01*
X122750129Y-70673594D01*
X122759062Y-70669650D01*
X122825000Y-70662000D01*
X123350000Y-70662000D01*
X123415938Y-70669650D01*
G37*
G36*
X125240938Y-70669650D02*
G01*
X125249871Y-70673594D01*
X125256300Y-70674531D01*
X125296498Y-70694182D01*
X125337759Y-70712401D01*
X125341578Y-70716220D01*
X125341829Y-70716343D01*
X125408656Y-70783170D01*
X125408778Y-70783420D01*
X125412599Y-70787241D01*
X125430822Y-70828512D01*
X125450468Y-70868699D01*
X125451404Y-70875126D01*
X125455350Y-70884062D01*
X125463000Y-70950000D01*
X125463000Y-71850000D01*
X125455350Y-71915938D01*
X125451404Y-71924874D01*
X125450468Y-71931300D01*
X125430826Y-71971477D01*
X125412599Y-72012759D01*
X125408777Y-72016580D01*
X125408656Y-72016829D01*
X125341829Y-72083656D01*
X125341580Y-72083777D01*
X125337759Y-72087599D01*
X125296477Y-72105826D01*
X125256300Y-72125468D01*
X125249874Y-72126404D01*
X125240938Y-72130350D01*
X125175000Y-72138000D01*
X124650000Y-72138000D01*
X124584062Y-72130350D01*
X124575126Y-72126404D01*
X124568699Y-72125468D01*
X124528512Y-72105822D01*
X124487241Y-72087599D01*
X124483420Y-72083778D01*
X124483170Y-72083656D01*
X124416343Y-72016829D01*
X124416220Y-72016578D01*
X124412401Y-72012759D01*
X124394182Y-71971498D01*
X124374531Y-71931300D01*
X124373594Y-71924871D01*
X124369650Y-71915938D01*
X124362000Y-71850000D01*
X124362000Y-70950000D01*
X124369650Y-70884062D01*
X124373594Y-70875129D01*
X124374531Y-70868699D01*
X124394186Y-70828491D01*
X124412401Y-70787241D01*
X124416219Y-70783422D01*
X124416343Y-70783170D01*
X124483170Y-70716343D01*
X124483422Y-70716219D01*
X124487241Y-70712401D01*
X124528491Y-70694186D01*
X124568699Y-70674531D01*
X124575129Y-70673594D01*
X124584062Y-70669650D01*
X124650000Y-70662000D01*
X125175000Y-70662000D01*
X125240938Y-70669650D01*
G37*
G36*
X119146944Y-70626311D02*
G01*
X119207936Y-70667064D01*
X119248689Y-70728056D01*
X119263000Y-70800000D01*
X119263000Y-71100000D01*
X119248689Y-71171944D01*
X119207936Y-71232936D01*
X119146944Y-71273689D01*
X119075000Y-71288000D01*
X118050000Y-71288000D01*
X117978056Y-71273689D01*
X117917064Y-71232936D01*
X117876311Y-71171944D01*
X117862000Y-71100000D01*
X117862000Y-70800000D01*
X117876311Y-70728056D01*
X117917064Y-70667064D01*
X117978056Y-70626311D01*
X118050000Y-70612000D01*
X119075000Y-70612000D01*
X119146944Y-70626311D01*
G37*
G36*
X121421944Y-70626311D02*
G01*
X121482936Y-70667064D01*
X121523689Y-70728056D01*
X121538000Y-70800000D01*
X121538000Y-71100000D01*
X121523689Y-71171944D01*
X121482936Y-71232936D01*
X121421944Y-71273689D01*
X121350000Y-71288000D01*
X120325000Y-71288000D01*
X120253056Y-71273689D01*
X120192064Y-71232936D01*
X120151311Y-71171944D01*
X120137000Y-71100000D01*
X120137000Y-70800000D01*
X120151311Y-70728056D01*
X120192064Y-70667064D01*
X120253056Y-70626311D01*
X120325000Y-70612000D01*
X121350000Y-70612000D01*
X121421944Y-70626311D01*
G37*
G36*
X133285024Y-69100926D02*
G01*
X133455215Y-69171422D01*
X133608382Y-69273765D01*
X133738641Y-69404024D01*
X133840984Y-69557191D01*
X133911480Y-69727382D01*
X133947418Y-69908056D01*
X133947418Y-70092270D01*
X133911480Y-70272944D01*
X133840984Y-70443135D01*
X133738641Y-70596302D01*
X133608382Y-70726561D01*
X133455215Y-70828904D01*
X133285024Y-70899400D01*
X133104350Y-70935338D01*
X132920136Y-70935338D01*
X132739462Y-70899400D01*
X132569271Y-70828904D01*
X132416104Y-70726561D01*
X132285845Y-70596302D01*
X132183502Y-70443135D01*
X132113006Y-70272944D01*
X132077068Y-70092270D01*
X132077068Y-69908056D01*
X132113006Y-69727382D01*
X132183502Y-69557191D01*
X132285845Y-69404024D01*
X132416104Y-69273765D01*
X132569271Y-69171422D01*
X132739462Y-69100926D01*
X132920136Y-69064988D01*
X133104350Y-69064988D01*
X133285024Y-69100926D01*
G37*
G36*
X119146944Y-69676311D02*
G01*
X119207936Y-69717064D01*
X119248689Y-69778056D01*
X119263000Y-69850000D01*
X119263000Y-70150000D01*
X119248689Y-70221944D01*
X119207936Y-70282936D01*
X119146944Y-70323689D01*
X119075000Y-70338000D01*
X118050000Y-70338000D01*
X117978056Y-70323689D01*
X117917064Y-70282936D01*
X117876311Y-70221944D01*
X117862000Y-70150000D01*
X117862000Y-69850000D01*
X117876311Y-69778056D01*
X117917064Y-69717064D01*
X117978056Y-69676311D01*
X118050000Y-69662000D01*
X119075000Y-69662000D01*
X119146944Y-69676311D01*
G37*
G36*
X116796944Y-69426311D02*
G01*
X116857936Y-69467064D01*
X116898689Y-69528056D01*
X116913000Y-69600000D01*
X116913000Y-69900000D01*
X116898689Y-69971944D01*
X116857936Y-70032936D01*
X116796944Y-70073689D01*
X116725000Y-70088000D01*
X115550000Y-70088000D01*
X115478056Y-70073689D01*
X115417064Y-70032936D01*
X115376311Y-69971944D01*
X115362000Y-69900000D01*
X115362000Y-69600000D01*
X115376311Y-69528056D01*
X115417064Y-69467064D01*
X115478056Y-69426311D01*
X115550000Y-69412000D01*
X116725000Y-69412000D01*
X116796944Y-69426311D01*
G37*
G36*
X123365938Y-68244650D02*
G01*
X123374871Y-68248594D01*
X123381300Y-68249531D01*
X123421498Y-68269182D01*
X123462759Y-68287401D01*
X123466578Y-68291220D01*
X123466829Y-68291343D01*
X123533656Y-68358170D01*
X123533778Y-68358420D01*
X123537599Y-68362241D01*
X123555822Y-68403512D01*
X123575468Y-68443699D01*
X123576404Y-68450126D01*
X123580350Y-68459062D01*
X123588000Y-68525000D01*
X123588000Y-69475000D01*
X123580350Y-69540938D01*
X123576404Y-69549874D01*
X123575468Y-69556300D01*
X123555826Y-69596477D01*
X123537599Y-69637759D01*
X123533777Y-69641580D01*
X123533656Y-69641829D01*
X123466829Y-69708656D01*
X123466580Y-69708777D01*
X123462759Y-69712599D01*
X123421477Y-69730826D01*
X123381300Y-69750468D01*
X123374874Y-69751404D01*
X123365938Y-69755350D01*
X123300000Y-69763000D01*
X122800000Y-69763000D01*
X122734062Y-69755350D01*
X122725126Y-69751404D01*
X122718699Y-69750468D01*
X122678512Y-69730822D01*
X122637241Y-69712599D01*
X122633420Y-69708778D01*
X122633170Y-69708656D01*
X122566343Y-69641829D01*
X122566220Y-69641578D01*
X122562401Y-69637759D01*
X122544182Y-69596498D01*
X122524531Y-69556300D01*
X122523594Y-69549871D01*
X122519650Y-69540938D01*
X122512000Y-69475000D01*
X122512000Y-68525000D01*
X122519650Y-68459062D01*
X122523594Y-68450129D01*
X122524531Y-68443699D01*
X122544186Y-68403491D01*
X122562401Y-68362241D01*
X122566219Y-68358422D01*
X122566343Y-68358170D01*
X122633170Y-68291343D01*
X122633422Y-68291219D01*
X122637241Y-68287401D01*
X122678491Y-68269186D01*
X122718699Y-68249531D01*
X122725129Y-68248594D01*
X122734062Y-68244650D01*
X122800000Y-68237000D01*
X123300000Y-68237000D01*
X123365938Y-68244650D01*
G37*
G36*
X125265938Y-68244650D02*
G01*
X125274871Y-68248594D01*
X125281300Y-68249531D01*
X125321498Y-68269182D01*
X125362759Y-68287401D01*
X125366578Y-68291220D01*
X125366829Y-68291343D01*
X125433656Y-68358170D01*
X125433778Y-68358420D01*
X125437599Y-68362241D01*
X125455822Y-68403512D01*
X125475468Y-68443699D01*
X125476404Y-68450126D01*
X125480350Y-68459062D01*
X125488000Y-68525000D01*
X125488000Y-69475000D01*
X125480350Y-69540938D01*
X125476404Y-69549874D01*
X125475468Y-69556300D01*
X125455826Y-69596477D01*
X125437599Y-69637759D01*
X125433777Y-69641580D01*
X125433656Y-69641829D01*
X125366829Y-69708656D01*
X125366580Y-69708777D01*
X125362759Y-69712599D01*
X125321477Y-69730826D01*
X125281300Y-69750468D01*
X125274874Y-69751404D01*
X125265938Y-69755350D01*
X125200000Y-69763000D01*
X124700000Y-69763000D01*
X124634062Y-69755350D01*
X124625126Y-69751404D01*
X124618699Y-69750468D01*
X124578512Y-69730822D01*
X124537241Y-69712599D01*
X124533420Y-69708778D01*
X124533170Y-69708656D01*
X124466343Y-69641829D01*
X124466220Y-69641578D01*
X124462401Y-69637759D01*
X124444182Y-69596498D01*
X124424531Y-69556300D01*
X124423594Y-69549871D01*
X124419650Y-69540938D01*
X124412000Y-69475000D01*
X124412000Y-68525000D01*
X124419650Y-68459062D01*
X124423594Y-68450129D01*
X124424531Y-68443699D01*
X124444186Y-68403491D01*
X124462401Y-68362241D01*
X124466219Y-68358422D01*
X124466343Y-68358170D01*
X124533170Y-68291343D01*
X124533422Y-68291219D01*
X124537241Y-68287401D01*
X124578491Y-68269186D01*
X124618699Y-68249531D01*
X124625129Y-68248594D01*
X124634062Y-68244650D01*
X124700000Y-68237000D01*
X125200000Y-68237000D01*
X125265938Y-68244650D01*
G37*
G36*
X119146944Y-68726311D02*
G01*
X119207936Y-68767064D01*
X119248689Y-68828056D01*
X119263000Y-68900000D01*
X119263000Y-69200000D01*
X119248689Y-69271944D01*
X119207936Y-69332936D01*
X119146944Y-69373689D01*
X119075000Y-69388000D01*
X118050000Y-69388000D01*
X117978056Y-69373689D01*
X117917064Y-69332936D01*
X117876311Y-69271944D01*
X117862000Y-69200000D01*
X117862000Y-68900000D01*
X117876311Y-68828056D01*
X117917064Y-68767064D01*
X117978056Y-68726311D01*
X118050000Y-68712000D01*
X119075000Y-68712000D01*
X119146944Y-68726311D01*
G37*
G36*
X121421944Y-68726311D02*
G01*
X121482936Y-68767064D01*
X121523689Y-68828056D01*
X121538000Y-68900000D01*
X121538000Y-69200000D01*
X121523689Y-69271944D01*
X121482936Y-69332936D01*
X121421944Y-69373689D01*
X121350000Y-69388000D01*
X120325000Y-69388000D01*
X120253056Y-69373689D01*
X120192064Y-69332936D01*
X120151311Y-69271944D01*
X120137000Y-69200000D01*
X120137000Y-68900000D01*
X120151311Y-68828056D01*
X120192064Y-68767064D01*
X120253056Y-68726311D01*
X120325000Y-68712000D01*
X121350000Y-68712000D01*
X121421944Y-68726311D01*
G37*
G36*
X114921944Y-68476311D02*
G01*
X114982936Y-68517064D01*
X115023689Y-68578056D01*
X115038000Y-68650000D01*
X115038000Y-68950000D01*
X115023689Y-69021944D01*
X114982936Y-69082936D01*
X114921944Y-69123689D01*
X114850000Y-69138000D01*
X113675000Y-69138000D01*
X113603056Y-69123689D01*
X113542064Y-69082936D01*
X113501311Y-69021944D01*
X113487000Y-68950000D01*
X113487000Y-68650000D01*
X113501311Y-68578056D01*
X113542064Y-68517064D01*
X113603056Y-68476311D01*
X113675000Y-68462000D01*
X114850000Y-68462000D01*
X114921944Y-68476311D01*
G37*
G36*
X129960328Y-65411278D02*
G01*
X130011002Y-65411278D01*
X130015263Y-65411278D01*
X130026392Y-65412743D01*
X130030508Y-65413845D01*
X130030509Y-65413846D01*
X130148356Y-65445422D01*
X130148358Y-65445423D01*
X130152471Y-65446525D01*
X130162842Y-65450821D01*
X130275881Y-65516084D01*
X130284787Y-65522917D01*
X130377083Y-65615213D01*
X130383916Y-65624119D01*
X130449179Y-65737158D01*
X130453475Y-65747529D01*
X130487257Y-65873608D01*
X130488722Y-65884737D01*
X130488722Y-65888997D01*
X130488722Y-65925544D01*
X130489123Y-65930636D01*
X130491688Y-65946832D01*
X130493000Y-65950000D01*
X130493000Y-66500000D01*
X130480406Y-66530406D01*
X130463646Y-66537347D01*
X130450000Y-66564130D01*
X130450000Y-66688215D01*
X130464225Y-66714829D01*
X130464542Y-66714893D01*
X130476870Y-66723130D01*
X130485107Y-66735458D01*
X130488000Y-66750000D01*
X130488000Y-67750000D01*
X130485107Y-67764542D01*
X130476870Y-67776870D01*
X130464542Y-67785107D01*
X130464224Y-67785170D01*
X130450000Y-67811782D01*
X130450000Y-67925012D01*
X130456363Y-67944594D01*
X130471995Y-67966110D01*
X130480406Y-67969594D01*
X130488203Y-67988418D01*
X130490954Y-67992205D01*
X130491686Y-67996829D01*
X130493000Y-68000000D01*
X130493000Y-68550000D01*
X130488722Y-68560328D01*
X130488722Y-68615263D01*
X130487257Y-68626392D01*
X130453475Y-68752471D01*
X130449179Y-68762842D01*
X130383916Y-68875881D01*
X130377083Y-68884787D01*
X130284787Y-68977083D01*
X130275881Y-68983916D01*
X130162842Y-69049179D01*
X130152471Y-69053475D01*
X130026392Y-69087257D01*
X130015263Y-69088722D01*
X130011002Y-69088722D01*
X129974456Y-69088722D01*
X129969364Y-69089123D01*
X129953167Y-69091688D01*
X129950000Y-69093000D01*
X129944883Y-69093000D01*
X129460295Y-69093000D01*
X129450000Y-69093000D01*
X129439672Y-69088722D01*
X129388998Y-69088722D01*
X129384737Y-69088722D01*
X129373608Y-69087257D01*
X129247529Y-69053475D01*
X129237158Y-69049179D01*
X129124119Y-68983916D01*
X129115213Y-68977083D01*
X129022917Y-68884787D01*
X129016084Y-68875881D01*
X128950821Y-68762842D01*
X128946525Y-68752471D01*
X128939515Y-68726311D01*
X128913846Y-68630509D01*
X128913845Y-68630508D01*
X128912743Y-68626392D01*
X128911278Y-68615263D01*
X128911278Y-68574455D01*
X128910877Y-68569363D01*
X128908312Y-68553168D01*
X128907000Y-68550000D01*
X128907000Y-68000000D01*
X128919594Y-67969594D01*
X128936353Y-67962652D01*
X128950000Y-67935869D01*
X128950000Y-67811782D01*
X128935775Y-67785170D01*
X128935458Y-67785107D01*
X128923130Y-67776870D01*
X128914893Y-67764542D01*
X128912000Y-67750000D01*
X128912000Y-66750000D01*
X128914893Y-66735458D01*
X128923130Y-66723130D01*
X128935458Y-66714893D01*
X128935774Y-66714829D01*
X128950000Y-66688215D01*
X128950000Y-66574987D01*
X128943637Y-66555405D01*
X128928004Y-66533889D01*
X128919594Y-66530406D01*
X128911797Y-66511582D01*
X128909044Y-66507793D01*
X128908311Y-66503166D01*
X128907000Y-66500000D01*
X128907000Y-65950000D01*
X128911278Y-65939671D01*
X128911278Y-65884737D01*
X128912743Y-65873608D01*
X128915853Y-65862000D01*
X128945422Y-65751643D01*
X128945423Y-65751638D01*
X128946525Y-65747529D01*
X128950821Y-65737158D01*
X128952950Y-65733470D01*
X129013953Y-65627809D01*
X129013955Y-65627805D01*
X129016084Y-65624119D01*
X129022917Y-65615213D01*
X129025928Y-65612201D01*
X129025932Y-65612197D01*
X129112197Y-65525932D01*
X129112201Y-65525928D01*
X129115213Y-65522917D01*
X129124119Y-65516084D01*
X129127805Y-65513955D01*
X129127809Y-65513953D01*
X129233470Y-65452950D01*
X129233471Y-65452949D01*
X129237158Y-65450821D01*
X129247529Y-65446525D01*
X129251638Y-65445423D01*
X129251643Y-65445422D01*
X129369490Y-65413846D01*
X129369492Y-65413845D01*
X129373608Y-65412743D01*
X129384737Y-65411278D01*
X129425544Y-65411278D01*
X129430636Y-65410877D01*
X129446832Y-65408311D01*
X129450000Y-65407000D01*
X129950000Y-65407000D01*
X129960328Y-65411278D01*
G37*
G36*
X133285024Y-66560926D02*
G01*
X133455215Y-66631422D01*
X133608382Y-66733765D01*
X133738641Y-66864024D01*
X133840984Y-67017191D01*
X133911480Y-67187382D01*
X133947418Y-67368056D01*
X133947418Y-67552270D01*
X133911480Y-67732944D01*
X133840984Y-67903135D01*
X133738641Y-68056302D01*
X133608382Y-68186561D01*
X133455215Y-68288904D01*
X133285024Y-68359400D01*
X133104350Y-68395338D01*
X132920136Y-68395338D01*
X132739462Y-68359400D01*
X132569271Y-68288904D01*
X132416104Y-68186561D01*
X132285845Y-68056302D01*
X132183502Y-67903135D01*
X132113006Y-67732944D01*
X132077068Y-67552270D01*
X132077068Y-67368056D01*
X132113006Y-67187382D01*
X132183502Y-67017191D01*
X132285845Y-66864024D01*
X132416104Y-66733765D01*
X132569271Y-66631422D01*
X132739462Y-66560926D01*
X132920136Y-66524988D01*
X133104350Y-66524988D01*
X133285024Y-66560926D01*
G37*
G36*
X116796944Y-67526311D02*
G01*
X116857936Y-67567064D01*
X116898689Y-67628056D01*
X116913000Y-67700000D01*
X116913000Y-68000000D01*
X116898689Y-68071944D01*
X116857936Y-68132936D01*
X116796944Y-68173689D01*
X116725000Y-68188000D01*
X115550000Y-68188000D01*
X115478056Y-68173689D01*
X115417064Y-68132936D01*
X115376311Y-68071944D01*
X115362000Y-68000000D01*
X115362000Y-67700000D01*
X115376311Y-67628056D01*
X115417064Y-67567064D01*
X115478056Y-67526311D01*
X115550000Y-67512000D01*
X116725000Y-67512000D01*
X116796944Y-67526311D01*
G37*
G36*
X122365939Y-66044650D02*
G01*
X122374872Y-66048594D01*
X122381301Y-66049531D01*
X122421499Y-66069182D01*
X122462760Y-66087401D01*
X122466579Y-66091220D01*
X122466830Y-66091343D01*
X122533657Y-66158170D01*
X122533779Y-66158420D01*
X122537600Y-66162241D01*
X122555823Y-66203512D01*
X122575469Y-66243699D01*
X122576405Y-66250126D01*
X122580351Y-66259062D01*
X122588001Y-66325000D01*
X122588001Y-67275000D01*
X122580351Y-67340938D01*
X122576405Y-67349874D01*
X122575469Y-67356300D01*
X122555827Y-67396477D01*
X122537600Y-67437759D01*
X122533778Y-67441580D01*
X122533657Y-67441829D01*
X122466830Y-67508656D01*
X122466581Y-67508777D01*
X122462760Y-67512599D01*
X122421478Y-67530826D01*
X122381301Y-67550468D01*
X122374875Y-67551404D01*
X122365939Y-67555350D01*
X122300001Y-67563000D01*
X121800001Y-67563000D01*
X121734063Y-67555350D01*
X121725127Y-67551404D01*
X121718700Y-67550468D01*
X121678513Y-67530822D01*
X121637242Y-67512599D01*
X121633421Y-67508778D01*
X121633171Y-67508656D01*
X121566344Y-67441829D01*
X121566221Y-67441578D01*
X121562402Y-67437759D01*
X121544183Y-67396498D01*
X121524532Y-67356300D01*
X121523595Y-67349871D01*
X121519651Y-67340938D01*
X121512001Y-67275000D01*
X121512001Y-66325000D01*
X121519651Y-66259062D01*
X121523595Y-66250129D01*
X121524532Y-66243699D01*
X121544187Y-66203491D01*
X121562402Y-66162241D01*
X121566220Y-66158422D01*
X121566344Y-66158170D01*
X121633171Y-66091343D01*
X121633423Y-66091219D01*
X121637242Y-66087401D01*
X121678492Y-66069186D01*
X121718700Y-66049531D01*
X121725130Y-66048594D01*
X121734063Y-66044650D01*
X121800001Y-66037000D01*
X122300001Y-66037000D01*
X122365939Y-66044650D01*
G37*
G36*
X124265937Y-66044650D02*
G01*
X124274870Y-66048594D01*
X124281299Y-66049531D01*
X124321497Y-66069182D01*
X124362758Y-66087401D01*
X124366577Y-66091220D01*
X124366828Y-66091343D01*
X124433655Y-66158170D01*
X124433777Y-66158420D01*
X124437598Y-66162241D01*
X124455821Y-66203512D01*
X124475467Y-66243699D01*
X124476403Y-66250126D01*
X124480349Y-66259062D01*
X124487999Y-66325000D01*
X124487999Y-67275000D01*
X124480349Y-67340938D01*
X124476403Y-67349874D01*
X124475467Y-67356300D01*
X124455825Y-67396477D01*
X124437598Y-67437759D01*
X124433776Y-67441580D01*
X124433655Y-67441829D01*
X124366828Y-67508656D01*
X124366579Y-67508777D01*
X124362758Y-67512599D01*
X124321476Y-67530826D01*
X124281299Y-67550468D01*
X124274873Y-67551404D01*
X124265937Y-67555350D01*
X124199999Y-67563000D01*
X123699999Y-67563000D01*
X123634061Y-67555350D01*
X123625125Y-67551404D01*
X123618698Y-67550468D01*
X123578511Y-67530822D01*
X123537240Y-67512599D01*
X123533419Y-67508778D01*
X123533169Y-67508656D01*
X123466342Y-67441829D01*
X123466219Y-67441578D01*
X123462400Y-67437759D01*
X123444181Y-67396498D01*
X123424530Y-67356300D01*
X123423593Y-67349871D01*
X123419649Y-67340938D01*
X123411999Y-67275000D01*
X123411999Y-66325000D01*
X123419649Y-66259062D01*
X123423593Y-66250129D01*
X123424530Y-66243699D01*
X123444185Y-66203491D01*
X123462400Y-66162241D01*
X123466218Y-66158422D01*
X123466342Y-66158170D01*
X123533169Y-66091343D01*
X123533421Y-66091219D01*
X123537240Y-66087401D01*
X123578490Y-66069186D01*
X123618698Y-66049531D01*
X123625128Y-66048594D01*
X123634061Y-66044650D01*
X123699999Y-66037000D01*
X124199999Y-66037000D01*
X124265937Y-66044650D01*
G37*
G36*
X118915938Y-65869650D02*
G01*
X118924871Y-65873594D01*
X118931300Y-65874531D01*
X118971498Y-65894182D01*
X119012759Y-65912401D01*
X119016578Y-65916220D01*
X119016829Y-65916343D01*
X119083656Y-65983170D01*
X119083778Y-65983420D01*
X119087599Y-65987241D01*
X119105822Y-66028512D01*
X119125468Y-66068699D01*
X119126404Y-66075126D01*
X119130350Y-66084062D01*
X119138000Y-66150000D01*
X119138000Y-67050000D01*
X119130350Y-67115938D01*
X119126404Y-67124874D01*
X119125468Y-67131300D01*
X119105826Y-67171477D01*
X119087599Y-67212759D01*
X119083777Y-67216580D01*
X119083656Y-67216829D01*
X119016829Y-67283656D01*
X119016580Y-67283777D01*
X119012759Y-67287599D01*
X118971477Y-67305826D01*
X118931300Y-67325468D01*
X118924874Y-67326404D01*
X118915938Y-67330350D01*
X118850000Y-67338000D01*
X118325000Y-67338000D01*
X118259062Y-67330350D01*
X118250126Y-67326404D01*
X118243699Y-67325468D01*
X118203512Y-67305822D01*
X118162241Y-67287599D01*
X118158420Y-67283778D01*
X118158170Y-67283656D01*
X118091343Y-67216829D01*
X118091220Y-67216578D01*
X118087401Y-67212759D01*
X118069182Y-67171498D01*
X118049531Y-67131300D01*
X118048594Y-67124871D01*
X118044650Y-67115938D01*
X118037000Y-67050000D01*
X118037000Y-66150000D01*
X118044650Y-66084062D01*
X118048594Y-66075129D01*
X118049531Y-66068699D01*
X118069186Y-66028491D01*
X118087401Y-65987241D01*
X118091219Y-65983422D01*
X118091343Y-65983170D01*
X118158170Y-65916343D01*
X118158422Y-65916219D01*
X118162241Y-65912401D01*
X118203491Y-65894186D01*
X118243699Y-65874531D01*
X118250129Y-65873594D01*
X118259062Y-65869650D01*
X118325000Y-65862000D01*
X118850000Y-65862000D01*
X118915938Y-65869650D01*
G37*
G36*
X120740938Y-65869650D02*
G01*
X120749871Y-65873594D01*
X120756300Y-65874531D01*
X120796498Y-65894182D01*
X120837759Y-65912401D01*
X120841578Y-65916220D01*
X120841829Y-65916343D01*
X120908656Y-65983170D01*
X120908778Y-65983420D01*
X120912599Y-65987241D01*
X120930822Y-66028512D01*
X120950468Y-66068699D01*
X120951404Y-66075126D01*
X120955350Y-66084062D01*
X120963000Y-66150000D01*
X120963000Y-67050000D01*
X120955350Y-67115938D01*
X120951404Y-67124874D01*
X120950468Y-67131300D01*
X120930826Y-67171477D01*
X120912599Y-67212759D01*
X120908777Y-67216580D01*
X120908656Y-67216829D01*
X120841829Y-67283656D01*
X120841580Y-67283777D01*
X120837759Y-67287599D01*
X120796477Y-67305826D01*
X120756300Y-67325468D01*
X120749874Y-67326404D01*
X120740938Y-67330350D01*
X120675000Y-67338000D01*
X120150000Y-67338000D01*
X120084062Y-67330350D01*
X120075126Y-67326404D01*
X120068699Y-67325468D01*
X120028512Y-67305822D01*
X119987241Y-67287599D01*
X119983420Y-67283778D01*
X119983170Y-67283656D01*
X119916343Y-67216829D01*
X119916220Y-67216578D01*
X119912401Y-67212759D01*
X119894182Y-67171498D01*
X119874531Y-67131300D01*
X119873594Y-67124871D01*
X119869650Y-67115938D01*
X119862000Y-67050000D01*
X119862000Y-66150000D01*
X119869650Y-66084062D01*
X119873594Y-66075129D01*
X119874531Y-66068699D01*
X119894186Y-66028491D01*
X119912401Y-65987241D01*
X119916219Y-65983422D01*
X119916343Y-65983170D01*
X119983170Y-65916343D01*
X119983422Y-65916219D01*
X119987241Y-65912401D01*
X120028491Y-65894186D01*
X120068699Y-65874531D01*
X120075129Y-65873594D01*
X120084062Y-65869650D01*
X120150000Y-65862000D01*
X120675000Y-65862000D01*
X120740938Y-65869650D01*
G37*
G36*
X126322013Y-64272358D02*
G01*
X126526693Y-64338862D01*
X126718450Y-64436567D01*
X126892561Y-64563066D01*
X127044740Y-64715245D01*
X127171239Y-64889356D01*
X127268944Y-65081113D01*
X127335448Y-65285793D01*
X127369115Y-65498356D01*
X127369115Y-65713570D01*
X127335448Y-65926133D01*
X127268944Y-66130813D01*
X127171239Y-66322570D01*
X127044740Y-66496681D01*
X126892561Y-66648860D01*
X126718450Y-66775359D01*
X126526693Y-66873064D01*
X126322013Y-66939568D01*
X126109450Y-66973235D01*
X125894236Y-66973235D01*
X125681673Y-66939568D01*
X125476993Y-66873064D01*
X125285236Y-66775359D01*
X125111125Y-66648860D01*
X124958946Y-66496681D01*
X124832447Y-66322570D01*
X124734742Y-66130813D01*
X124668238Y-65926133D01*
X124634571Y-65713570D01*
X124634571Y-65498356D01*
X124668238Y-65285793D01*
X124734742Y-65081113D01*
X124832447Y-64889356D01*
X124958946Y-64715245D01*
X125111125Y-64563066D01*
X125285236Y-64436567D01*
X125476993Y-64338862D01*
X125681673Y-64272358D01*
X125894236Y-64238691D01*
X126109450Y-64238691D01*
X126322013Y-64272358D01*
G37*
G36*
X111291214Y-64687197D02*
G01*
X111472905Y-64762457D01*
X111636423Y-64871716D01*
X111775484Y-65010777D01*
X111884743Y-65174295D01*
X111960003Y-65355986D01*
X111998369Y-65548869D01*
X111998369Y-65745531D01*
X111960003Y-65938414D01*
X111884743Y-66120105D01*
X111775484Y-66283623D01*
X111636423Y-66422684D01*
X111472905Y-66531943D01*
X111291214Y-66607203D01*
X111098331Y-66645569D01*
X110901669Y-66645569D01*
X110708786Y-66607203D01*
X110527095Y-66531943D01*
X110363577Y-66422684D01*
X110224516Y-66283623D01*
X110115257Y-66120105D01*
X110039997Y-65938414D01*
X110001631Y-65745531D01*
X110001631Y-65548869D01*
X110039997Y-65355986D01*
X110115257Y-65174295D01*
X110224516Y-65010777D01*
X110363577Y-64871716D01*
X110527095Y-64762457D01*
X110708786Y-64687197D01*
X110901669Y-64648831D01*
X111098331Y-64648831D01*
X111291214Y-64687197D01*
G37*
G36*
X111291214Y-62274197D02*
G01*
X111472905Y-62349457D01*
X111636423Y-62458716D01*
X111775484Y-62597777D01*
X111884743Y-62761295D01*
X111960003Y-62942986D01*
X111998369Y-63135869D01*
X111998369Y-63332531D01*
X111960003Y-63525414D01*
X111884743Y-63707105D01*
X111775484Y-63870623D01*
X111636423Y-64009684D01*
X111472905Y-64118943D01*
X111291214Y-64194203D01*
X111098331Y-64232569D01*
X110901669Y-64232569D01*
X110708786Y-64194203D01*
X110527095Y-64118943D01*
X110363577Y-64009684D01*
X110224516Y-63870623D01*
X110115257Y-63707105D01*
X110039997Y-63525414D01*
X110001631Y-63332531D01*
X110001631Y-63135869D01*
X110039997Y-62942986D01*
X110115257Y-62761295D01*
X110224516Y-62597777D01*
X110363577Y-62458716D01*
X110527095Y-62349457D01*
X110708786Y-62274197D01*
X110901669Y-62235831D01*
X111098331Y-62235831D01*
X111291214Y-62274197D01*
G37*
G36*
X133228744Y-62545931D02*
G01*
X133371461Y-62605046D01*
X133499902Y-62690868D01*
X133609132Y-62800098D01*
X133694954Y-62928539D01*
X133754069Y-63071256D01*
X133784206Y-63222762D01*
X133784206Y-63377238D01*
X133754069Y-63528744D01*
X133694954Y-63671461D01*
X133609132Y-63799902D01*
X133499902Y-63909132D01*
X133371461Y-63994954D01*
X133228744Y-64054069D01*
X133077238Y-64084206D01*
X132922762Y-64084206D01*
X132771256Y-64054069D01*
X132628539Y-63994954D01*
X132500098Y-63909132D01*
X132390868Y-63799902D01*
X132305046Y-63671461D01*
X132245931Y-63528744D01*
X132215794Y-63377238D01*
X132215794Y-63222762D01*
X132245931Y-63071256D01*
X132305046Y-62928539D01*
X132390868Y-62800098D01*
X132500098Y-62690868D01*
X132628539Y-62605046D01*
X132771256Y-62545931D01*
X132922762Y-62515794D01*
X133077238Y-62515794D01*
X133228744Y-62545931D01*
G37*
G36*
X127290938Y-62669650D02*
G01*
X127299871Y-62673594D01*
X127306300Y-62674531D01*
X127346498Y-62694182D01*
X127387759Y-62712401D01*
X127391578Y-62716220D01*
X127391829Y-62716343D01*
X127458656Y-62783170D01*
X127458778Y-62783420D01*
X127462599Y-62787241D01*
X127480822Y-62828512D01*
X127500468Y-62868699D01*
X127501404Y-62875126D01*
X127505350Y-62884062D01*
X127513000Y-62950000D01*
X127513000Y-63450000D01*
X127505350Y-63515938D01*
X127501404Y-63524874D01*
X127500468Y-63531300D01*
X127480826Y-63571477D01*
X127462599Y-63612759D01*
X127458777Y-63616580D01*
X127458656Y-63616829D01*
X127391829Y-63683656D01*
X127391580Y-63683777D01*
X127387759Y-63687599D01*
X127346477Y-63705826D01*
X127306300Y-63725468D01*
X127299874Y-63726404D01*
X127290938Y-63730350D01*
X127225000Y-63738000D01*
X126275000Y-63738000D01*
X126209062Y-63730350D01*
X126200126Y-63726404D01*
X126193699Y-63725468D01*
X126153512Y-63705822D01*
X126112241Y-63687599D01*
X126108420Y-63683778D01*
X126108170Y-63683656D01*
X126041343Y-63616829D01*
X126041220Y-63616578D01*
X126037401Y-63612759D01*
X126019182Y-63571498D01*
X125999531Y-63531300D01*
X125998594Y-63524871D01*
X125994650Y-63515938D01*
X125987000Y-63450000D01*
X125987000Y-62950000D01*
X125994650Y-62884062D01*
X125998594Y-62875129D01*
X125999531Y-62868699D01*
X126019186Y-62828491D01*
X126037401Y-62787241D01*
X126041219Y-62783422D01*
X126041343Y-62783170D01*
X126108170Y-62716343D01*
X126108422Y-62716219D01*
X126112241Y-62712401D01*
X126153491Y-62694186D01*
X126193699Y-62674531D01*
X126200129Y-62673594D01*
X126209062Y-62669650D01*
X126275000Y-62662000D01*
X127225000Y-62662000D01*
X127290938Y-62669650D01*
G37*
G36*
X129290938Y-62669650D02*
G01*
X129299871Y-62673594D01*
X129306300Y-62674531D01*
X129346498Y-62694182D01*
X129387759Y-62712401D01*
X129391578Y-62716220D01*
X129391829Y-62716343D01*
X129458656Y-62783170D01*
X129458778Y-62783420D01*
X129462599Y-62787241D01*
X129480822Y-62828512D01*
X129500468Y-62868699D01*
X129501404Y-62875126D01*
X129505350Y-62884062D01*
X129513000Y-62950000D01*
X129513000Y-63450000D01*
X129505350Y-63515938D01*
X129501404Y-63524874D01*
X129500468Y-63531300D01*
X129480826Y-63571477D01*
X129462599Y-63612759D01*
X129458777Y-63616580D01*
X129458656Y-63616829D01*
X129391829Y-63683656D01*
X129391580Y-63683777D01*
X129387759Y-63687599D01*
X129346477Y-63705826D01*
X129306300Y-63725468D01*
X129299874Y-63726404D01*
X129290938Y-63730350D01*
X129225000Y-63738000D01*
X128275000Y-63738000D01*
X128209062Y-63730350D01*
X128200126Y-63726404D01*
X128193699Y-63725468D01*
X128153512Y-63705822D01*
X128112241Y-63687599D01*
X128108420Y-63683778D01*
X128108170Y-63683656D01*
X128041343Y-63616829D01*
X128041220Y-63616578D01*
X128037401Y-63612759D01*
X128019182Y-63571498D01*
X127999531Y-63531300D01*
X127998594Y-63524871D01*
X127994650Y-63515938D01*
X127987000Y-63450000D01*
X127987000Y-62950000D01*
X127994650Y-62884062D01*
X127998594Y-62875129D01*
X127999531Y-62868699D01*
X128019186Y-62828491D01*
X128037401Y-62787241D01*
X128041219Y-62783422D01*
X128041343Y-62783170D01*
X128108170Y-62716343D01*
X128108422Y-62716219D01*
X128112241Y-62712401D01*
X128153491Y-62694186D01*
X128193699Y-62674531D01*
X128200129Y-62673594D01*
X128209062Y-62669650D01*
X128275000Y-62662000D01*
X129225000Y-62662000D01*
X129290938Y-62669650D01*
G37*
G36*
X125265938Y-62619650D02*
G01*
X125274871Y-62623594D01*
X125281300Y-62624531D01*
X125321498Y-62644182D01*
X125362759Y-62662401D01*
X125366578Y-62666220D01*
X125366829Y-62666343D01*
X125433656Y-62733170D01*
X125433778Y-62733420D01*
X125437599Y-62737241D01*
X125455822Y-62778512D01*
X125475468Y-62818699D01*
X125476404Y-62825126D01*
X125480350Y-62834062D01*
X125488000Y-62900000D01*
X125488000Y-63425000D01*
X125480350Y-63490938D01*
X125476404Y-63499874D01*
X125475468Y-63506300D01*
X125455826Y-63546477D01*
X125437599Y-63587759D01*
X125433777Y-63591580D01*
X125433656Y-63591829D01*
X125366829Y-63658656D01*
X125366580Y-63658777D01*
X125362759Y-63662599D01*
X125321477Y-63680826D01*
X125281300Y-63700468D01*
X125274874Y-63701404D01*
X125265938Y-63705350D01*
X125200000Y-63713000D01*
X124300000Y-63713000D01*
X124234062Y-63705350D01*
X124225126Y-63701404D01*
X124218699Y-63700468D01*
X124178512Y-63680822D01*
X124137241Y-63662599D01*
X124133420Y-63658778D01*
X124133170Y-63658656D01*
X124066343Y-63591829D01*
X124066220Y-63591578D01*
X124062401Y-63587759D01*
X124044182Y-63546498D01*
X124024531Y-63506300D01*
X124023594Y-63499871D01*
X124019650Y-63490938D01*
X124012000Y-63425000D01*
X124012000Y-62900000D01*
X124019650Y-62834062D01*
X124023594Y-62825129D01*
X124024531Y-62818699D01*
X124044186Y-62778491D01*
X124062401Y-62737241D01*
X124066219Y-62733422D01*
X124066343Y-62733170D01*
X124133170Y-62666343D01*
X124133422Y-62666219D01*
X124137241Y-62662401D01*
X124178491Y-62644186D01*
X124218699Y-62624531D01*
X124225129Y-62623594D01*
X124234062Y-62619650D01*
X124300000Y-62612000D01*
X125200000Y-62612000D01*
X125265938Y-62619650D01*
G37*
G36*
X131265938Y-62619650D02*
G01*
X131274871Y-62623594D01*
X131281300Y-62624531D01*
X131321498Y-62644182D01*
X131362759Y-62662401D01*
X131366578Y-62666220D01*
X131366829Y-62666343D01*
X131433656Y-62733170D01*
X131433778Y-62733420D01*
X131437599Y-62737241D01*
X131455822Y-62778512D01*
X131475468Y-62818699D01*
X131476404Y-62825126D01*
X131480350Y-62834062D01*
X131488000Y-62900000D01*
X131488000Y-63425000D01*
X131480350Y-63490938D01*
X131476404Y-63499874D01*
X131475468Y-63506300D01*
X131455826Y-63546477D01*
X131437599Y-63587759D01*
X131433777Y-63591580D01*
X131433656Y-63591829D01*
X131366829Y-63658656D01*
X131366580Y-63658777D01*
X131362759Y-63662599D01*
X131321477Y-63680826D01*
X131281300Y-63700468D01*
X131274874Y-63701404D01*
X131265938Y-63705350D01*
X131200000Y-63713000D01*
X130300000Y-63713000D01*
X130234062Y-63705350D01*
X130225126Y-63701404D01*
X130218699Y-63700468D01*
X130178512Y-63680822D01*
X130137241Y-63662599D01*
X130133420Y-63658778D01*
X130133170Y-63658656D01*
X130066343Y-63591829D01*
X130066220Y-63591578D01*
X130062401Y-63587759D01*
X130044182Y-63546498D01*
X130024531Y-63506300D01*
X130023594Y-63499871D01*
X130019650Y-63490938D01*
X130012000Y-63425000D01*
X130012000Y-62900000D01*
X130019650Y-62834062D01*
X130023594Y-62825129D01*
X130024531Y-62818699D01*
X130044186Y-62778491D01*
X130062401Y-62737241D01*
X130066219Y-62733422D01*
X130066343Y-62733170D01*
X130133170Y-62666343D01*
X130133422Y-62666219D01*
X130137241Y-62662401D01*
X130178491Y-62644186D01*
X130218699Y-62624531D01*
X130225129Y-62623594D01*
X130234062Y-62619650D01*
X130300000Y-62612000D01*
X131200000Y-62612000D01*
X131265938Y-62619650D01*
G37*
G36*
X122784542Y-61114893D02*
G01*
X122796870Y-61123130D01*
X122805107Y-61135458D01*
X122808000Y-61150000D01*
X122808000Y-62850000D01*
X122805107Y-62864542D01*
X122796870Y-62876870D01*
X122784542Y-62885107D01*
X122770000Y-62888000D01*
X121070000Y-62888000D01*
X121055458Y-62885107D01*
X121043130Y-62876870D01*
X121034893Y-62864542D01*
X121032000Y-62850000D01*
X121032000Y-61150000D01*
X121034893Y-61135458D01*
X121043130Y-61123130D01*
X121055458Y-61114893D01*
X121070000Y-61112000D01*
X122770000Y-61112000D01*
X122784542Y-61114893D01*
G37*
G36*
X114557773Y-61150237D02*
G01*
X114718600Y-61216854D01*
X114863341Y-61313567D01*
X114986433Y-61436659D01*
X115083146Y-61581400D01*
X115149763Y-61742227D01*
X115183724Y-61912961D01*
X115183724Y-62087039D01*
X115149763Y-62257773D01*
X115083146Y-62418600D01*
X114986433Y-62563341D01*
X114863341Y-62686433D01*
X114718600Y-62783146D01*
X114557773Y-62849763D01*
X114387039Y-62883724D01*
X114212961Y-62883724D01*
X114042227Y-62849763D01*
X113881400Y-62783146D01*
X113736659Y-62686433D01*
X113613567Y-62563341D01*
X113516854Y-62418600D01*
X113450237Y-62257773D01*
X113416276Y-62087039D01*
X113416276Y-61912961D01*
X113450237Y-61742227D01*
X113516854Y-61581400D01*
X113613567Y-61436659D01*
X113736659Y-61313567D01*
X113881400Y-61216854D01*
X114042227Y-61150237D01*
X114212961Y-61116276D01*
X114387039Y-61116276D01*
X114557773Y-61150237D01*
G37*
G36*
X117097773Y-61150237D02*
G01*
X117258600Y-61216854D01*
X117403341Y-61313567D01*
X117526433Y-61436659D01*
X117623146Y-61581400D01*
X117689763Y-61742227D01*
X117723724Y-61912961D01*
X117723724Y-62087039D01*
X117689763Y-62257773D01*
X117623146Y-62418600D01*
X117526433Y-62563341D01*
X117403341Y-62686433D01*
X117258600Y-62783146D01*
X117097773Y-62849763D01*
X116927039Y-62883724D01*
X116752961Y-62883724D01*
X116582227Y-62849763D01*
X116421400Y-62783146D01*
X116276659Y-62686433D01*
X116153567Y-62563341D01*
X116056854Y-62418600D01*
X115990237Y-62257773D01*
X115956276Y-62087039D01*
X115956276Y-61912961D01*
X115990237Y-61742227D01*
X116056854Y-61581400D01*
X116153567Y-61436659D01*
X116276659Y-61313567D01*
X116421400Y-61216854D01*
X116582227Y-61150237D01*
X116752961Y-61116276D01*
X116927039Y-61116276D01*
X117097773Y-61150237D01*
G37*
G36*
X119637773Y-61150237D02*
G01*
X119798600Y-61216854D01*
X119943341Y-61313567D01*
X120066433Y-61436659D01*
X120163146Y-61581400D01*
X120229763Y-61742227D01*
X120263724Y-61912961D01*
X120263724Y-62087039D01*
X120229763Y-62257773D01*
X120163146Y-62418600D01*
X120066433Y-62563341D01*
X119943341Y-62686433D01*
X119798600Y-62783146D01*
X119637773Y-62849763D01*
X119467039Y-62883724D01*
X119292961Y-62883724D01*
X119122227Y-62849763D01*
X118961400Y-62783146D01*
X118816659Y-62686433D01*
X118693567Y-62563341D01*
X118596854Y-62418600D01*
X118530237Y-62257773D01*
X118496276Y-62087039D01*
X118496276Y-61912961D01*
X118530237Y-61742227D01*
X118596854Y-61581400D01*
X118693567Y-61436659D01*
X118816659Y-61313567D01*
X118961400Y-61216854D01*
X119122227Y-61150237D01*
X119292961Y-61116276D01*
X119467039Y-61116276D01*
X119637773Y-61150237D01*
G37*
G36*
X125265938Y-60794650D02*
G01*
X125274871Y-60798594D01*
X125281300Y-60799531D01*
X125321498Y-60819182D01*
X125362759Y-60837401D01*
X125366578Y-60841220D01*
X125366829Y-60841343D01*
X125433656Y-60908170D01*
X125433778Y-60908420D01*
X125437599Y-60912241D01*
X125455822Y-60953512D01*
X125475468Y-60993699D01*
X125476404Y-61000126D01*
X125480350Y-61009062D01*
X125488000Y-61075000D01*
X125488000Y-61600000D01*
X125480350Y-61665938D01*
X125476404Y-61674874D01*
X125475468Y-61681300D01*
X125455826Y-61721477D01*
X125437599Y-61762759D01*
X125433777Y-61766580D01*
X125433656Y-61766829D01*
X125366829Y-61833656D01*
X125366580Y-61833777D01*
X125362759Y-61837599D01*
X125321477Y-61855826D01*
X125281300Y-61875468D01*
X125274874Y-61876404D01*
X125265938Y-61880350D01*
X125200000Y-61888000D01*
X124300000Y-61888000D01*
X124234062Y-61880350D01*
X124225126Y-61876404D01*
X124218699Y-61875468D01*
X124178512Y-61855822D01*
X124137241Y-61837599D01*
X124133420Y-61833778D01*
X124133170Y-61833656D01*
X124066343Y-61766829D01*
X124066220Y-61766578D01*
X124062401Y-61762759D01*
X124044182Y-61721498D01*
X124024531Y-61681300D01*
X124023594Y-61674871D01*
X124019650Y-61665938D01*
X124012000Y-61600000D01*
X124012000Y-61075000D01*
X124019650Y-61009062D01*
X124023594Y-61000129D01*
X124024531Y-60993699D01*
X124044186Y-60953491D01*
X124062401Y-60912241D01*
X124066219Y-60908422D01*
X124066343Y-60908170D01*
X124133170Y-60841343D01*
X124133422Y-60841219D01*
X124137241Y-60837401D01*
X124178491Y-60819186D01*
X124218699Y-60799531D01*
X124225129Y-60798594D01*
X124234062Y-60794650D01*
X124300000Y-60787000D01*
X125200000Y-60787000D01*
X125265938Y-60794650D01*
G37*
G36*
X131265938Y-60794650D02*
G01*
X131274871Y-60798594D01*
X131281300Y-60799531D01*
X131321498Y-60819182D01*
X131362759Y-60837401D01*
X131366578Y-60841220D01*
X131366829Y-60841343D01*
X131433656Y-60908170D01*
X131433778Y-60908420D01*
X131437599Y-60912241D01*
X131455822Y-60953512D01*
X131475468Y-60993699D01*
X131476404Y-61000126D01*
X131480350Y-61009062D01*
X131488000Y-61075000D01*
X131488000Y-61600000D01*
X131480350Y-61665938D01*
X131476404Y-61674874D01*
X131475468Y-61681300D01*
X131455826Y-61721477D01*
X131437599Y-61762759D01*
X131433777Y-61766580D01*
X131433656Y-61766829D01*
X131366829Y-61833656D01*
X131366580Y-61833777D01*
X131362759Y-61837599D01*
X131321477Y-61855826D01*
X131281300Y-61875468D01*
X131274874Y-61876404D01*
X131265938Y-61880350D01*
X131200000Y-61888000D01*
X130300000Y-61888000D01*
X130234062Y-61880350D01*
X130225126Y-61876404D01*
X130218699Y-61875468D01*
X130178512Y-61855822D01*
X130137241Y-61837599D01*
X130133420Y-61833778D01*
X130133170Y-61833656D01*
X130066343Y-61766829D01*
X130066220Y-61766578D01*
X130062401Y-61762759D01*
X130044182Y-61721498D01*
X130024531Y-61681300D01*
X130023594Y-61674871D01*
X130019650Y-61665938D01*
X130012000Y-61600000D01*
X130012000Y-61075000D01*
X130019650Y-61009062D01*
X130023594Y-61000129D01*
X130024531Y-60993699D01*
X130044186Y-60953491D01*
X130062401Y-60912241D01*
X130066219Y-60908422D01*
X130066343Y-60908170D01*
X130133170Y-60841343D01*
X130133422Y-60841219D01*
X130137241Y-60837401D01*
X130178491Y-60819186D01*
X130218699Y-60799531D01*
X130225129Y-60798594D01*
X130234062Y-60794650D01*
X130300000Y-60787000D01*
X131200000Y-60787000D01*
X131265938Y-60794650D01*
G37*
G36*
X127290938Y-60769650D02*
G01*
X127299871Y-60773594D01*
X127306300Y-60774531D01*
X127346498Y-60794182D01*
X127387759Y-60812401D01*
X127391578Y-60816220D01*
X127391829Y-60816343D01*
X127458656Y-60883170D01*
X127458778Y-60883420D01*
X127462599Y-60887241D01*
X127480822Y-60928512D01*
X127500468Y-60968699D01*
X127501404Y-60975126D01*
X127505350Y-60984062D01*
X127513000Y-61050000D01*
X127513000Y-61550000D01*
X127505350Y-61615938D01*
X127501404Y-61624874D01*
X127500468Y-61631300D01*
X127480826Y-61671477D01*
X127462599Y-61712759D01*
X127458777Y-61716580D01*
X127458656Y-61716829D01*
X127391829Y-61783656D01*
X127391580Y-61783777D01*
X127387759Y-61787599D01*
X127346477Y-61805826D01*
X127306300Y-61825468D01*
X127299874Y-61826404D01*
X127290938Y-61830350D01*
X127225000Y-61838000D01*
X126275000Y-61838000D01*
X126209062Y-61830350D01*
X126200126Y-61826404D01*
X126193699Y-61825468D01*
X126153512Y-61805822D01*
X126112241Y-61787599D01*
X126108420Y-61783778D01*
X126108170Y-61783656D01*
X126041343Y-61716829D01*
X126041220Y-61716578D01*
X126037401Y-61712759D01*
X126019182Y-61671498D01*
X125999531Y-61631300D01*
X125998594Y-61624871D01*
X125994650Y-61615938D01*
X125987000Y-61550000D01*
X125987000Y-61050000D01*
X125994650Y-60984062D01*
X125998594Y-60975129D01*
X125999531Y-60968699D01*
X126019186Y-60928491D01*
X126037401Y-60887241D01*
X126041219Y-60883422D01*
X126041343Y-60883170D01*
X126108170Y-60816343D01*
X126108422Y-60816219D01*
X126112241Y-60812401D01*
X126153491Y-60794186D01*
X126193699Y-60774531D01*
X126200129Y-60773594D01*
X126209062Y-60769650D01*
X126275000Y-60762000D01*
X127225000Y-60762000D01*
X127290938Y-60769650D01*
G37*
G36*
X129290938Y-60769650D02*
G01*
X129299871Y-60773594D01*
X129306300Y-60774531D01*
X129346498Y-60794182D01*
X129387759Y-60812401D01*
X129391578Y-60816220D01*
X129391829Y-60816343D01*
X129458656Y-60883170D01*
X129458778Y-60883420D01*
X129462599Y-60887241D01*
X129480822Y-60928512D01*
X129500468Y-60968699D01*
X129501404Y-60975126D01*
X129505350Y-60984062D01*
X129513000Y-61050000D01*
X129513000Y-61550000D01*
X129505350Y-61615938D01*
X129501404Y-61624874D01*
X129500468Y-61631300D01*
X129480826Y-61671477D01*
X129462599Y-61712759D01*
X129458777Y-61716580D01*
X129458656Y-61716829D01*
X129391829Y-61783656D01*
X129391580Y-61783777D01*
X129387759Y-61787599D01*
X129346477Y-61805826D01*
X129306300Y-61825468D01*
X129299874Y-61826404D01*
X129290938Y-61830350D01*
X129225000Y-61838000D01*
X128275000Y-61838000D01*
X128209062Y-61830350D01*
X128200126Y-61826404D01*
X128193699Y-61825468D01*
X128153512Y-61805822D01*
X128112241Y-61787599D01*
X128108420Y-61783778D01*
X128108170Y-61783656D01*
X128041343Y-61716829D01*
X128041220Y-61716578D01*
X128037401Y-61712759D01*
X128019182Y-61671498D01*
X127999531Y-61631300D01*
X127998594Y-61624871D01*
X127994650Y-61615938D01*
X127987000Y-61550000D01*
X127987000Y-61050000D01*
X127994650Y-60984062D01*
X127998594Y-60975129D01*
X127999531Y-60968699D01*
X128019186Y-60928491D01*
X128037401Y-60887241D01*
X128041219Y-60883422D01*
X128041343Y-60883170D01*
X128108170Y-60816343D01*
X128108422Y-60816219D01*
X128112241Y-60812401D01*
X128153491Y-60794186D01*
X128193699Y-60774531D01*
X128200129Y-60773594D01*
X128209062Y-60769650D01*
X128275000Y-60762000D01*
X129225000Y-60762000D01*
X129290938Y-60769650D01*
G37*
M02*
