%TF.GenerationSoftware,KiCad,Pcbnew,9.0.3-9.0.3-0~ubuntu22.04.1*%
%TF.CreationDate,2025-08-01T05:49:20-07:00*%
%TF.ProjectId,flex-cv-in,666c6578-2d63-4762-9d69-6e2e6b696361,rev?*%
%TF.SameCoordinates,Original*%
%TF.FileFunction,Copper,L1,Top*%
%TF.FilePolarity,Positive*%
%FSLAX46Y46*%
G04 Gerber Fmt 4.6, Leading zero omitted, Abs format (unit mm)*
G04 Created by KiCad (PCBNEW 9.0.3-9.0.3-0~ubuntu22.04.1) date 2025-08-01 05:49:20*
%MOMM*%
%LPD*%
G01*
G04 APERTURE LIST*
G04 Aperture macros list*
%AMRoundRect*
0 Rectangle with rounded corners*
0 $1 Rounding radius*
0 $2 $3 $4 $5 $6 $7 $8 $9 X,Y pos of 4 corners*
0 Add a 4 corners polygon primitive as box body*
4,1,4,$2,$3,$4,$5,$6,$7,$8,$9,$2,$3,0*
0 Add four circle primitives for the rounded corners*
1,1,$1+$1,$2,$3*
1,1,$1+$1,$4,$5*
1,1,$1+$1,$6,$7*
1,1,$1+$1,$8,$9*
0 Add four rect primitives between the rounded corners*
20,1,$1+$1,$2,$3,$4,$5,0*
20,1,$1+$1,$4,$5,$6,$7,0*
20,1,$1+$1,$6,$7,$8,$9,0*
20,1,$1+$1,$8,$9,$2,$3,0*%
%AMFreePoly0*
4,1,23,0.500000,-0.750000,0.000000,-0.750000,0.000000,-0.745722,-0.065263,-0.745722,-0.191342,-0.711940,-0.304381,-0.646677,-0.396677,-0.554381,-0.461940,-0.441342,-0.495722,-0.315263,-0.495722,-0.250000,-0.500000,-0.250000,-0.500000,0.250000,-0.495722,0.250000,-0.495722,0.315263,-0.461940,0.441342,-0.396677,0.554381,-0.304381,0.646677,-0.191342,0.711940,-0.065263,0.745722,0.000000,0.745722,
0.000000,0.750000,0.500000,0.750000,0.500000,-0.750000,0.500000,-0.750000,$1*%
%AMFreePoly1*
4,1,23,0.000000,0.745722,0.065263,0.745722,0.191342,0.711940,0.304381,0.646677,0.396677,0.554381,0.461940,0.441342,0.495722,0.315263,0.495722,0.250000,0.500000,0.250000,0.500000,-0.250000,0.495722,-0.250000,0.495722,-0.315263,0.461940,-0.441342,0.396677,-0.554381,0.304381,-0.646677,0.191342,-0.711940,0.065263,-0.745722,0.000000,-0.745722,0.000000,-0.750000,-0.500000,-0.750000,
-0.500000,0.750000,0.000000,0.750000,0.000000,0.745722,0.000000,0.745722,$1*%
%AMFreePoly2*
4,1,23,0.550000,-0.750000,0.000000,-0.750000,0.000000,-0.745722,-0.065263,-0.745722,-0.191342,-0.711940,-0.304381,-0.646677,-0.396677,-0.554381,-0.461940,-0.441342,-0.495722,-0.315263,-0.495722,-0.250000,-0.500000,-0.250000,-0.500000,0.250000,-0.495722,0.250000,-0.495722,0.315263,-0.461940,0.441342,-0.396677,0.554381,-0.304381,0.646677,-0.191342,0.711940,-0.065263,0.745722,0.000000,0.745722,
0.000000,0.750000,0.550000,0.750000,0.550000,-0.750000,0.550000,-0.750000,$1*%
%AMFreePoly3*
4,1,23,0.000000,0.745722,0.065263,0.745722,0.191342,0.711940,0.304381,0.646677,0.396677,0.554381,0.461940,0.441342,0.495722,0.315263,0.495722,0.250000,0.500000,0.250000,0.500000,-0.250000,0.495722,-0.250000,0.495722,-0.315263,0.461940,-0.441342,0.396677,-0.554381,0.304381,-0.646677,0.191342,-0.711940,0.065263,-0.745722,0.000000,-0.745722,0.000000,-0.750000,-0.550000,-0.750000,
-0.550000,0.750000,0.000000,0.750000,0.000000,0.745722,0.000000,0.745722,$1*%
G04 Aperture macros list end*
%TA.AperFunction,EtchedComponent*%
%ADD10C,0.000000*%
%TD*%
%TA.AperFunction,SMDPad,CuDef*%
%ADD11RoundRect,0.250000X0.262500X0.450000X-0.262500X0.450000X-0.262500X-0.450000X0.262500X-0.450000X0*%
%TD*%
%TA.AperFunction,SMDPad,CuDef*%
%ADD12RoundRect,0.250000X0.250000X0.475000X-0.250000X0.475000X-0.250000X-0.475000X0.250000X-0.475000X0*%
%TD*%
%TA.AperFunction,SMDPad,CuDef*%
%ADD13FreePoly0,90.000000*%
%TD*%
%TA.AperFunction,SMDPad,CuDef*%
%ADD14FreePoly1,90.000000*%
%TD*%
%TA.AperFunction,SMDPad,CuDef*%
%ADD15RoundRect,0.250000X0.475000X-0.250000X0.475000X0.250000X-0.475000X0.250000X-0.475000X-0.250000X0*%
%TD*%
%TA.AperFunction,SMDPad,CuDef*%
%ADD16RoundRect,0.250000X-0.450000X0.262500X-0.450000X-0.262500X0.450000X-0.262500X0.450000X0.262500X0*%
%TD*%
%TA.AperFunction,ComponentPad*%
%ADD17R,1.700000X1.700000*%
%TD*%
%TA.AperFunction,ComponentPad*%
%ADD18C,1.700000*%
%TD*%
%TA.AperFunction,SMDPad,CuDef*%
%ADD19FreePoly2,90.000000*%
%TD*%
%TA.AperFunction,SMDPad,CuDef*%
%ADD20R,1.500000X1.000000*%
%TD*%
%TA.AperFunction,SMDPad,CuDef*%
%ADD21FreePoly3,90.000000*%
%TD*%
%TA.AperFunction,SMDPad,CuDef*%
%ADD22RoundRect,0.250000X-0.262500X-0.450000X0.262500X-0.450000X0.262500X0.450000X-0.262500X0.450000X0*%
%TD*%
%TA.AperFunction,SMDPad,CuDef*%
%ADD23C,1.500000*%
%TD*%
%TA.AperFunction,SMDPad,CuDef*%
%ADD24RoundRect,0.150000X-0.512500X-0.150000X0.512500X-0.150000X0.512500X0.150000X-0.512500X0.150000X0*%
%TD*%
%TA.AperFunction,SMDPad,CuDef*%
%ADD25RoundRect,0.250000X0.450000X-0.262500X0.450000X0.262500X-0.450000X0.262500X-0.450000X-0.262500X0*%
%TD*%
%TA.AperFunction,SMDPad,CuDef*%
%ADD26RoundRect,0.150000X0.587500X0.150000X-0.587500X0.150000X-0.587500X-0.150000X0.587500X-0.150000X0*%
%TD*%
%TA.AperFunction,SMDPad,CuDef*%
%ADD27FreePoly2,270.000000*%
%TD*%
%TA.AperFunction,SMDPad,CuDef*%
%ADD28FreePoly3,270.000000*%
%TD*%
%TA.AperFunction,ComponentPad*%
%ADD29C,1.930400*%
%TD*%
%TA.AperFunction,ComponentPad*%
%ADD30C,1.803400*%
%TD*%
%TA.AperFunction,ComponentPad*%
%ADD31C,2.667000*%
%TD*%
%TA.AperFunction,ViaPad*%
%ADD32C,0.700000*%
%TD*%
%TA.AperFunction,ViaPad*%
%ADD33C,0.600000*%
%TD*%
%TA.AperFunction,Conductor*%
%ADD34C,0.500000*%
%TD*%
%TA.AperFunction,Conductor*%
%ADD35C,0.300000*%
%TD*%
%TA.AperFunction,Conductor*%
%ADD36C,0.400000*%
%TD*%
G04 APERTURE END LIST*
D10*
%TA.AperFunction,EtchedComponent*%
%TO.C,JP6*%
G36*
X116900000Y-75250000D02*
G01*
X116300000Y-75250000D01*
X116300000Y-74750000D01*
X116900000Y-74750000D01*
X116900000Y-75250000D01*
G37*
%TD.AperFunction*%
%TD*%
D11*
%TO.P,R4,1*%
%TO.N,/SUMMED_CV_IN*%
X121112500Y-72900000D03*
%TO.P,R4,2*%
%TO.N,Net-(R3-Pad1)*%
X119287500Y-72900000D03*
%TD*%
D12*
%TO.P,C3,1*%
%TO.N,GND*%
X123949999Y-66800000D03*
%TO.P,C3,2*%
%TO.N,/CV_OUT*%
X122050001Y-66800000D03*
%TD*%
D13*
%TO.P,JP6,1,A*%
%TO.N,/R_IN*%
X116600000Y-75650000D03*
D14*
%TO.P,JP6,2,B*%
%TO.N,/CV_IN*%
X116600000Y-74350000D03*
%TD*%
D15*
%TO.P,C1,1*%
%TO.N,/VREF_1.65V*%
X126750000Y-63200000D03*
%TO.P,C1,2*%
%TO.N,GND*%
X126750000Y-61300000D03*
%TD*%
D16*
%TO.P,R5,1*%
%TO.N,+3.3V*%
X124750000Y-61337500D03*
%TO.P,R5,2*%
%TO.N,/VREF_1.65V*%
X124750000Y-63162500D03*
%TD*%
D17*
%TO.P,J2,1,Pin_1*%
%TO.N,+3.3V*%
X121920000Y-61976000D03*
D18*
%TO.P,J2,2,Pin_2*%
%TO.N,/CV_OUT*%
X119380000Y-61976000D03*
%TO.P,J2,3,Pin_3*%
%TO.N,GND*%
X116840000Y-61976000D03*
%TD*%
D19*
%TO.P,JP4,1,A*%
%TO.N,/VREF_1.65V*%
X129700000Y-68600000D03*
D20*
%TO.P,JP4,2,C*%
%TO.N,Net-(JP4-C)*%
X129700000Y-67250000D03*
D21*
%TO.P,JP4,3,B*%
%TO.N,+3.3V*%
X129700000Y-65900000D03*
%TD*%
D22*
%TO.P,R2,1*%
%TO.N,/R_IN*%
X119287500Y-75565000D03*
%TO.P,R2,2*%
%TO.N,/SUMMED_CV_IN*%
X121112500Y-75565000D03*
%TD*%
D23*
%TO.P,TP1,1,1*%
%TO.N,/VREF_1.65V*%
X133000000Y-63300000D03*
%TD*%
D24*
%TO.P,U1,1*%
%TO.N,Net-(R3-Pad1)*%
X118562500Y-69050000D03*
%TO.P,U1,2,V-*%
%TO.N,GND*%
X118562500Y-70000000D03*
%TO.P,U1,3,+*%
%TO.N,/VREF_1.65V*%
X118562500Y-70950000D03*
%TO.P,U1,4,-*%
%TO.N,/SUMMED_CV_IN*%
X120837500Y-70950000D03*
%TO.P,U1,5,V+*%
%TO.N,+3.3V*%
X120837500Y-69050000D03*
%TD*%
D25*
%TO.P,R6,1*%
%TO.N,/VREF_1.65V*%
X130750000Y-63162500D03*
%TO.P,R6,2*%
%TO.N,GND*%
X130750000Y-61337500D03*
%TD*%
D12*
%TO.P,C2,1*%
%TO.N,GND*%
X124950000Y-69000000D03*
%TO.P,C2,2*%
%TO.N,+3.3V*%
X123050000Y-69000000D03*
%TD*%
D26*
%TO.P,D1,1,A*%
%TO.N,GND*%
X116137500Y-69750000D03*
%TO.P,D1,2,K*%
%TO.N,+3.3V*%
X116137500Y-67850000D03*
%TO.P,D1,3,COM*%
%TO.N,/CV_IN*%
X114262500Y-68800000D03*
%TD*%
D22*
%TO.P,R3,1*%
%TO.N,Net-(R3-Pad1)*%
X118587500Y-66600000D03*
%TO.P,R3,2*%
%TO.N,/CV_OUT*%
X120412500Y-66600000D03*
%TD*%
D27*
%TO.P,JP5,1,A*%
%TO.N,/CV_IN*%
X129700000Y-71150000D03*
D20*
%TO.P,JP5,2,C*%
%TO.N,Net-(JP5-C)*%
X129700000Y-72500000D03*
D28*
%TO.P,JP5,3,B*%
%TO.N,GND*%
X129700000Y-73850000D03*
%TD*%
D11*
%TO.P,R1,1*%
%TO.N,/BIAS_IN*%
X124912500Y-71400000D03*
%TO.P,R1,2*%
%TO.N,/SUMMED_CV_IN*%
X123087500Y-71400000D03*
%TD*%
D15*
%TO.P,C4,1*%
%TO.N,/VREF_1.65V*%
X128750000Y-63200000D03*
%TO.P,C4,2*%
%TO.N,GND*%
X128750000Y-61300000D03*
%TD*%
D11*
%TO.P,R7,1*%
%TO.N,/VREF_1.65V*%
X116112500Y-72136000D03*
%TO.P,R7,2*%
%TO.N,/CV_IN*%
X114287500Y-72136000D03*
%TD*%
D29*
%TO.P,J1,1,SIG*%
%TO.N,/CV_IN*%
X111000000Y-74207000D03*
%TO.P,J1,2,SHEILD*%
%TO.N,GND*%
X111000000Y-63234200D03*
%TO.P,J1,3,SW*%
%TO.N,unconnected-(J1-SW-Pad3)*%
X111000000Y-65647200D03*
%TD*%
D30*
%TO.P,RV2,1,1*%
%TO.N,Net-(JP4-C)*%
X133012243Y-67460163D03*
%TO.P,RV2,2,2*%
%TO.N,/BIAS_IN*%
X133012243Y-70000163D03*
%TO.P,RV2,3,3*%
%TO.N,Net-(JP5-C)*%
X133012243Y-72540163D03*
D31*
%TO.P,RV2,4*%
%TO.N,N/C*%
X126001843Y-65605963D03*
%TO.P,RV2,5*%
X126001843Y-74394363D03*
%TD*%
D32*
%TO.N,+3.3V*%
X119362500Y-68000000D03*
X127600000Y-64400000D03*
X117762500Y-68000000D03*
X124487442Y-64325000D03*
X121212500Y-64400000D03*
X119612500Y-64400000D03*
D33*
%TO.N,GND*%
X133100000Y-65700000D03*
X106600000Y-65800000D03*
X132200000Y-74600000D03*
X127800000Y-72400000D03*
X124000000Y-76000000D03*
X123000000Y-73200000D03*
D32*
X117000000Y-70800000D03*
D33*
X109400000Y-75600000D03*
X132200000Y-61900000D03*
X106400000Y-71000000D03*
X114400000Y-65800000D03*
X108800000Y-61800000D03*
X112600000Y-71200000D03*
X127800000Y-67400000D03*
X122800000Y-65000000D03*
D32*
%TO.N,/VREF_1.65V*%
X118100000Y-71700000D03*
X131400000Y-66760163D03*
X120600000Y-70000000D03*
X131400000Y-68160163D03*
%TO.N,/CV_IN*%
X121920000Y-74295000D03*
X120412500Y-74295000D03*
%TD*%
D34*
%TO.N,+3.3V*%
X123050000Y-69000000D02*
X120887500Y-69000000D01*
X121920000Y-62320000D02*
X121920000Y-62000000D01*
X129150000Y-65950000D02*
X127600000Y-64400000D01*
X121920000Y-62000000D02*
X124087500Y-62000000D01*
X116287500Y-68000000D02*
X116137500Y-67850000D01*
X120837500Y-69050000D02*
X120412500Y-69050000D01*
X120887500Y-69000000D02*
X120837500Y-69050000D01*
X124087500Y-62000000D02*
X124750000Y-61337500D01*
X116137500Y-67197788D02*
X118935288Y-64400000D01*
X121212500Y-64400000D02*
X121212500Y-62707500D01*
X129700000Y-65950000D02*
X129150000Y-65950000D01*
X121212500Y-62707500D02*
X121920000Y-62000000D01*
X116137500Y-67850000D02*
X116137500Y-67197788D01*
X124487442Y-64325000D02*
X123925000Y-64325000D01*
X118935288Y-64400000D02*
X119612500Y-64400000D01*
X120412500Y-69050000D02*
X119362500Y-68000000D01*
X123925000Y-64325000D02*
X121920000Y-62320000D01*
X117762500Y-68000000D02*
X116287500Y-68000000D01*
D35*
%TO.N,GND*%
X118562500Y-70000000D02*
X117800000Y-70000000D01*
X117800000Y-70000000D02*
X117000000Y-70800000D01*
%TO.N,/VREF_1.65V*%
X127123292Y-68550000D02*
X125497292Y-70176000D01*
X129700000Y-68550000D02*
X127123292Y-68550000D01*
X117300000Y-72500000D02*
X118100000Y-71700000D01*
X125497292Y-70176000D02*
X120776000Y-70176000D01*
X116112500Y-72136000D02*
X116476500Y-72500000D01*
X129700000Y-68550000D02*
X131010163Y-68550000D01*
X120776000Y-70176000D02*
X120600000Y-70000000D01*
X131010163Y-68550000D02*
X131400000Y-68160163D01*
X131400000Y-64600000D02*
X131400000Y-63812500D01*
X131600000Y-64600000D02*
X133000000Y-63200000D01*
X116476500Y-72500000D02*
X117300000Y-72500000D01*
X131400000Y-64600000D02*
X131600000Y-64600000D01*
X124750000Y-63162500D02*
X130750000Y-63162500D01*
X129700000Y-68550000D02*
X129150000Y-68550000D01*
X118100000Y-71700000D02*
X118100000Y-71412500D01*
X118100000Y-71412500D02*
X118562500Y-70950000D01*
X131400000Y-66760163D02*
X131400000Y-64600000D01*
X131400000Y-63812500D02*
X130750000Y-63162500D01*
%TO.N,/CV_OUT*%
X120412500Y-66600000D02*
X122050001Y-66600000D01*
X120412500Y-63032500D02*
X120412500Y-66600000D01*
X119380000Y-62000000D02*
X120412500Y-63032500D01*
%TO.N,/CV_IN*%
X113923500Y-72500000D02*
X112707000Y-72500000D01*
X121920000Y-74295000D02*
X123718963Y-74295000D01*
X114287500Y-72136000D02*
X114287500Y-72500000D01*
X120357500Y-74350000D02*
X120412500Y-74295000D01*
X114287500Y-72500000D02*
X116137500Y-74350000D01*
X116600000Y-74350000D02*
X120357500Y-74350000D01*
X116137500Y-74350000D02*
X116600000Y-74350000D01*
X112707000Y-72500000D02*
X111000000Y-74207000D01*
X114262500Y-72111000D02*
X114287500Y-72136000D01*
X126813963Y-71200000D02*
X129700000Y-71200000D01*
X114262500Y-68800000D02*
X114262500Y-72111000D01*
X114287500Y-72136000D02*
X113923500Y-72500000D01*
X123718963Y-74295000D02*
X126813963Y-71200000D01*
%TO.N,Net-(JP4-C)*%
X133012243Y-67460163D02*
X129910163Y-67460163D01*
X129910163Y-67460163D02*
X129700000Y-67250000D01*
%TO.N,Net-(JP5-C)*%
X133012243Y-72540163D02*
X129740163Y-72540163D01*
X129740163Y-72540163D02*
X129700000Y-72500000D01*
%TO.N,/R_IN*%
X116600000Y-75650000D02*
X119202500Y-75650000D01*
D36*
X119202500Y-75650000D02*
X119287500Y-75565000D01*
D35*
%TO.N,/BIAS_IN*%
X127000000Y-70200000D02*
X125800000Y-71400000D01*
X133012243Y-70000163D02*
X132812406Y-70200000D01*
X125800000Y-71400000D02*
X124912500Y-71400000D01*
X132812406Y-70200000D02*
X127000000Y-70200000D01*
%TO.N,Net-(R3-Pad1)*%
X118562500Y-69050000D02*
X119129100Y-69050000D01*
X119800000Y-72387500D02*
X119287500Y-72900000D01*
X118562500Y-69050000D02*
X118562500Y-66625000D01*
X119129100Y-69050000D02*
X119800000Y-69720900D01*
X119800000Y-69720900D02*
X119800000Y-72387500D01*
X118562500Y-66625000D02*
X118587500Y-66600000D01*
%TO.N,/SUMMED_CV_IN*%
X123087500Y-71600000D02*
X122887500Y-71800000D01*
X122212500Y-71800000D02*
X121112500Y-72900000D01*
X122400000Y-71800000D02*
X122212500Y-71800000D01*
X122887500Y-71800000D02*
X122400000Y-71800000D01*
X123087500Y-71400000D02*
X123087500Y-71600000D01*
X120837500Y-70950000D02*
X121550000Y-70950000D01*
X121550000Y-70950000D02*
X122400000Y-71800000D01*
X121112500Y-72900000D02*
X121112500Y-75565000D01*
%TD*%
%TA.AperFunction,Conductor*%
%TO.N,GND*%
G36*
X129001934Y-60300576D02*
G01*
X129443302Y-60317917D01*
X129451033Y-60318526D01*
X129887750Y-60370214D01*
X129895395Y-60371425D01*
X130211944Y-60434391D01*
X130265328Y-60464288D01*
X130290944Y-60519853D01*
X130279007Y-60579863D01*
X130234077Y-60621395D01*
X130221047Y-60625764D01*
X130221081Y-60625862D01*
X130087352Y-60672654D01*
X129978209Y-60753207D01*
X129978207Y-60753209D01*
X129897653Y-60862354D01*
X129860317Y-60969055D01*
X129823252Y-61017735D01*
X129764651Y-61035332D01*
X129706899Y-61015124D01*
X129673428Y-60969054D01*
X129627344Y-60837352D01*
X129546792Y-60728209D01*
X129546790Y-60728207D01*
X129437647Y-60647654D01*
X129309601Y-60602850D01*
X129279211Y-60600000D01*
X128875001Y-60600000D01*
X128875000Y-60600001D01*
X128875000Y-61174999D01*
X128875001Y-61175000D01*
X129674998Y-61175000D01*
X129680996Y-61169002D01*
X129735513Y-61141225D01*
X129795945Y-61150796D01*
X129839210Y-61194061D01*
X129842763Y-61205262D01*
X129850001Y-61212500D01*
X131649998Y-61212500D01*
X131649999Y-61212499D01*
X131649999Y-61125608D01*
X131668906Y-61067417D01*
X131718406Y-61031453D01*
X131779592Y-61031453D01*
X131797366Y-61039228D01*
X131951609Y-61125608D01*
X131974590Y-61138478D01*
X131981218Y-61142540D01*
X132346852Y-61386850D01*
X132353140Y-61391419D01*
X132698470Y-61663655D01*
X132704381Y-61668703D01*
X133027298Y-61967204D01*
X133032795Y-61972701D01*
X133181765Y-62133856D01*
X133207381Y-62189421D01*
X133195444Y-62249431D01*
X133150514Y-62290963D01*
X133103405Y-62298901D01*
X133103405Y-62299500D01*
X133099856Y-62299500D01*
X133099375Y-62299581D01*
X133098552Y-62299500D01*
X133098541Y-62299500D01*
X132901459Y-62299500D01*
X132901456Y-62299500D01*
X132708165Y-62337949D01*
X132708163Y-62337949D01*
X132526086Y-62413367D01*
X132362218Y-62522861D01*
X132362214Y-62522864D01*
X132222864Y-62662214D01*
X132222861Y-62662218D01*
X132113367Y-62826086D01*
X132037949Y-63008163D01*
X132037949Y-63008165D01*
X131999500Y-63201456D01*
X131999500Y-63398543D01*
X132028259Y-63543123D01*
X132026193Y-63560571D01*
X132028942Y-63577924D01*
X132022686Y-63590201D01*
X132021067Y-63603884D01*
X132001165Y-63632441D01*
X131937247Y-63696359D01*
X131882730Y-63724136D01*
X131822298Y-63714565D01*
X131779033Y-63671300D01*
X131775257Y-63661463D01*
X131720480Y-63566586D01*
X131718247Y-63563676D01*
X131717369Y-63561198D01*
X131717236Y-63560967D01*
X131717278Y-63560942D01*
X131697821Y-63506001D01*
X131698355Y-63492822D01*
X131700500Y-63472873D01*
X131700499Y-62852128D01*
X131694091Y-62792517D01*
X131675131Y-62741682D01*
X131643797Y-62657670D01*
X131557549Y-62542458D01*
X131557548Y-62542457D01*
X131557546Y-62542454D01*
X131557541Y-62542450D01*
X131442329Y-62456202D01*
X131307488Y-62405910D01*
X131307483Y-62405909D01*
X131307481Y-62405908D01*
X131307477Y-62405908D01*
X131276249Y-62402550D01*
X131247873Y-62399500D01*
X131247870Y-62399500D01*
X130252133Y-62399500D01*
X130252129Y-62399500D01*
X130252128Y-62399501D01*
X130245756Y-62400186D01*
X130192519Y-62405908D01*
X130192514Y-62405909D01*
X130057670Y-62456202D01*
X129942458Y-62542450D01*
X129942450Y-62542458D01*
X129856204Y-62657668D01*
X129844793Y-62688262D01*
X129806741Y-62736176D01*
X129747794Y-62752573D01*
X129690467Y-62731190D01*
X129672782Y-62712993D01*
X129582549Y-62592458D01*
X129582548Y-62592457D01*
X129582546Y-62592454D01*
X129569442Y-62582644D01*
X129467329Y-62506202D01*
X129332488Y-62455910D01*
X129332483Y-62455909D01*
X129332481Y-62455908D01*
X129332477Y-62455908D01*
X129301249Y-62452550D01*
X129272873Y-62449500D01*
X129272870Y-62449500D01*
X128227133Y-62449500D01*
X128227129Y-62449500D01*
X128227128Y-62449501D01*
X128219949Y-62450272D01*
X128167519Y-62455908D01*
X128167514Y-62455909D01*
X128032670Y-62506202D01*
X127917458Y-62592450D01*
X127917450Y-62592458D01*
X127829253Y-62710274D01*
X127779244Y-62745527D01*
X127718065Y-62744653D01*
X127670747Y-62710274D01*
X127582549Y-62592458D01*
X127582548Y-62592457D01*
X127582546Y-62592454D01*
X127569442Y-62582644D01*
X127467329Y-62506202D01*
X127332488Y-62455910D01*
X127332483Y-62455909D01*
X127332481Y-62455908D01*
X127332477Y-62455908D01*
X127301249Y-62452550D01*
X127272873Y-62449500D01*
X127272870Y-62449500D01*
X126227133Y-62449500D01*
X126227129Y-62449500D01*
X126227128Y-62449501D01*
X126219949Y-62450272D01*
X126167519Y-62455908D01*
X126167514Y-62455909D01*
X126032670Y-62506202D01*
X125917458Y-62592450D01*
X125917453Y-62592455D01*
X125827217Y-62712994D01*
X125777208Y-62748246D01*
X125716029Y-62747372D01*
X125667048Y-62710704D01*
X125655206Y-62688260D01*
X125643797Y-62657670D01*
X125557549Y-62542458D01*
X125557548Y-62542457D01*
X125557546Y-62542454D01*
X125557541Y-62542450D01*
X125442329Y-62456202D01*
X125307488Y-62405910D01*
X125307483Y-62405909D01*
X125307481Y-62405908D01*
X125307477Y-62405908D01*
X125276249Y-62402550D01*
X125247873Y-62399500D01*
X125247870Y-62399500D01*
X124634821Y-62399500D01*
X124612773Y-62392336D01*
X124589876Y-62388710D01*
X124584227Y-62383061D01*
X124576630Y-62380593D01*
X124563002Y-62361836D01*
X124546611Y-62345445D01*
X124545361Y-62337555D01*
X124540666Y-62331093D01*
X124540666Y-62307907D01*
X124537040Y-62285013D01*
X124540666Y-62277896D01*
X124540666Y-62269907D01*
X124564817Y-62230496D01*
X124665818Y-62129495D01*
X124720335Y-62101718D01*
X124735822Y-62100499D01*
X125247867Y-62100499D01*
X125247872Y-62100499D01*
X125307483Y-62094091D01*
X125425703Y-62049998D01*
X125442329Y-62043797D01*
X125442329Y-62043796D01*
X125442331Y-62043796D01*
X125557546Y-61957546D01*
X125643796Y-61842331D01*
X125680533Y-61743832D01*
X125718583Y-61695918D01*
X125777530Y-61679520D01*
X125834857Y-61700901D01*
X125866735Y-61745731D01*
X125872653Y-61762645D01*
X125953207Y-61871790D01*
X125953209Y-61871792D01*
X126062352Y-61952345D01*
X126190398Y-61997149D01*
X126220789Y-61999999D01*
X126624998Y-61999999D01*
X126625000Y-61999998D01*
X126625000Y-61425001D01*
X126875000Y-61425001D01*
X126875000Y-61999998D01*
X126875001Y-61999999D01*
X127279203Y-61999999D01*
X127309600Y-61997149D01*
X127309602Y-61997149D01*
X127437647Y-61952345D01*
X127546790Y-61871792D01*
X127546792Y-61871790D01*
X127627344Y-61762647D01*
X127656555Y-61679168D01*
X127693620Y-61630487D01*
X127752221Y-61612890D01*
X127809973Y-61633098D01*
X127843445Y-61679168D01*
X127872655Y-61762647D01*
X127953207Y-61871790D01*
X127953209Y-61871792D01*
X128062352Y-61952345D01*
X128190398Y-61997149D01*
X128220789Y-61999999D01*
X128624998Y-61999999D01*
X128625000Y-61999998D01*
X128625000Y-61425001D01*
X128875000Y-61425001D01*
X128875000Y-61999998D01*
X128875001Y-61999999D01*
X129279203Y-61999999D01*
X129309600Y-61997149D01*
X129309602Y-61997149D01*
X129437647Y-61952345D01*
X129546790Y-61871792D01*
X129546792Y-61871790D01*
X129627344Y-61762647D01*
X129661265Y-61665707D01*
X129698330Y-61617026D01*
X129756931Y-61599429D01*
X129814683Y-61619637D01*
X129849527Y-61669931D01*
X129851253Y-61678780D01*
X129851564Y-61678713D01*
X129852850Y-61684602D01*
X129897654Y-61812647D01*
X129978207Y-61921790D01*
X129978209Y-61921792D01*
X130087352Y-62002345D01*
X130215398Y-62047149D01*
X130245789Y-62049999D01*
X130624998Y-62049999D01*
X130625000Y-62049998D01*
X130625000Y-61462501D01*
X130875000Y-61462501D01*
X130875000Y-62049998D01*
X130875001Y-62049999D01*
X131254203Y-62049999D01*
X131284600Y-62047149D01*
X131284602Y-62047149D01*
X131412647Y-62002345D01*
X131521790Y-61921792D01*
X131521792Y-61921790D01*
X131602345Y-61812647D01*
X131647149Y-61684601D01*
X131649999Y-61654211D01*
X131650000Y-61654210D01*
X131650000Y-61462501D01*
X131649999Y-61462500D01*
X130875001Y-61462500D01*
X130875000Y-61462501D01*
X130625000Y-61462501D01*
X130624999Y-61462500D01*
X129850002Y-61462500D01*
X129844004Y-61468498D01*
X129829437Y-61475920D01*
X129817719Y-61487318D01*
X129802861Y-61489460D01*
X129789487Y-61496275D01*
X129773340Y-61493717D01*
X129757160Y-61496051D01*
X129743881Y-61489052D01*
X129729055Y-61486704D01*
X129717494Y-61475143D01*
X129703033Y-61467521D01*
X129696404Y-61454053D01*
X129685790Y-61443439D01*
X129683373Y-61433374D01*
X129674999Y-61425000D01*
X128875001Y-61425000D01*
X128875000Y-61425001D01*
X128625000Y-61425001D01*
X128624999Y-61425000D01*
X127825001Y-61425000D01*
X127820003Y-61429998D01*
X127799343Y-61440523D01*
X127780593Y-61454147D01*
X127772604Y-61454147D01*
X127765486Y-61457774D01*
X127742591Y-61454147D01*
X127719408Y-61454148D01*
X127711325Y-61449195D01*
X127705054Y-61448202D01*
X127697694Y-61440842D01*
X127679996Y-61429997D01*
X127674999Y-61425000D01*
X126875001Y-61425000D01*
X126875000Y-61425001D01*
X126625000Y-61425001D01*
X126625000Y-60600001D01*
X126875000Y-60600001D01*
X126875000Y-61174999D01*
X126875001Y-61175000D01*
X127674997Y-61175000D01*
X127679994Y-61170003D01*
X127700654Y-61159476D01*
X127719406Y-61145852D01*
X127727392Y-61145851D01*
X127734511Y-61142225D01*
X127757408Y-61145851D01*
X127780591Y-61145851D01*
X127787053Y-61150546D01*
X127794943Y-61151796D01*
X127820003Y-61170002D01*
X127825001Y-61175000D01*
X128624999Y-61175000D01*
X128625000Y-61174999D01*
X128625000Y-60600001D01*
X128624999Y-60600000D01*
X128220796Y-60600000D01*
X128190399Y-60602850D01*
X128190397Y-60602850D01*
X128062352Y-60647654D01*
X127953209Y-60728207D01*
X127953207Y-60728209D01*
X127872654Y-60837352D01*
X127843445Y-60920831D01*
X127806379Y-60969512D01*
X127747779Y-60987109D01*
X127690027Y-60966901D01*
X127656555Y-60920831D01*
X127627345Y-60837352D01*
X127546792Y-60728209D01*
X127546790Y-60728207D01*
X127437647Y-60647654D01*
X127309601Y-60602850D01*
X127279211Y-60600000D01*
X126875001Y-60600000D01*
X126875000Y-60600001D01*
X126625000Y-60600001D01*
X126624999Y-60600000D01*
X126220796Y-60600000D01*
X126190399Y-60602850D01*
X126190397Y-60602850D01*
X126062352Y-60647654D01*
X125953209Y-60728207D01*
X125953207Y-60728209D01*
X125872653Y-60837354D01*
X125853195Y-60892964D01*
X125816130Y-60941644D01*
X125757529Y-60959241D01*
X125699778Y-60939033D01*
X125666993Y-60894862D01*
X125643797Y-60832670D01*
X125557549Y-60717458D01*
X125557548Y-60717457D01*
X125557546Y-60717454D01*
X125557541Y-60717450D01*
X125442329Y-60631202D01*
X125307488Y-60580910D01*
X125307483Y-60580909D01*
X125307481Y-60580908D01*
X125307477Y-60580908D01*
X125276249Y-60577550D01*
X125247873Y-60574500D01*
X125247870Y-60574500D01*
X124252133Y-60574500D01*
X124252129Y-60574500D01*
X124252128Y-60574501D01*
X124244949Y-60575272D01*
X124192519Y-60580908D01*
X124192514Y-60580909D01*
X124057670Y-60631202D01*
X123942458Y-60717450D01*
X123942450Y-60717458D01*
X123856202Y-60832670D01*
X123805910Y-60967511D01*
X123805908Y-60967522D01*
X123801533Y-61008209D01*
X123799500Y-61027127D01*
X123799500Y-61259073D01*
X123799501Y-61400500D01*
X123780594Y-61458691D01*
X123731094Y-61494655D01*
X123700501Y-61499500D01*
X123119500Y-61499500D01*
X123061309Y-61480593D01*
X123025345Y-61431093D01*
X123020500Y-61400500D01*
X123020500Y-61101327D01*
X123020498Y-61101315D01*
X123013755Y-61067417D01*
X123005966Y-61028260D01*
X122966407Y-60969055D01*
X122950602Y-60945400D01*
X122950599Y-60945397D01*
X122867742Y-60890035D01*
X122867740Y-60890034D01*
X122867737Y-60890033D01*
X122867736Y-60890033D01*
X122794684Y-60875501D01*
X122794674Y-60875500D01*
X121045326Y-60875500D01*
X121045325Y-60875500D01*
X121045315Y-60875501D01*
X120972263Y-60890033D01*
X120972257Y-60890035D01*
X120889400Y-60945397D01*
X120889397Y-60945400D01*
X120834035Y-61028257D01*
X120834033Y-61028263D01*
X120819501Y-61101315D01*
X120819500Y-61101327D01*
X120819500Y-62360668D01*
X120806236Y-62410168D01*
X120746109Y-62514310D01*
X120746107Y-62514314D01*
X120730175Y-62573773D01*
X120724414Y-62582644D01*
X120722759Y-62593094D01*
X120708122Y-62607730D01*
X120696851Y-62625087D01*
X120686975Y-62628877D01*
X120679494Y-62636359D01*
X120659049Y-62639596D01*
X120639729Y-62647013D01*
X120629511Y-62644275D01*
X120619062Y-62645930D01*
X120600620Y-62636533D01*
X120580629Y-62631177D01*
X120564545Y-62618153D01*
X120429274Y-62482882D01*
X120401497Y-62428365D01*
X120405124Y-62382285D01*
X120453401Y-62233706D01*
X120453402Y-62233702D01*
X120480500Y-62062614D01*
X120480500Y-61889385D01*
X120453402Y-61718297D01*
X120453401Y-61718293D01*
X120399876Y-61553561D01*
X120399874Y-61553558D01*
X120399873Y-61553557D01*
X120399873Y-61553555D01*
X120321232Y-61399212D01*
X120219414Y-61259072D01*
X120096928Y-61136586D01*
X119956788Y-61034768D01*
X119956787Y-61034767D01*
X119956785Y-61034766D01*
X119802441Y-60956125D01*
X119802438Y-60956123D01*
X119637706Y-60902598D01*
X119637702Y-60902597D01*
X119466614Y-60875500D01*
X119466611Y-60875500D01*
X119293389Y-60875500D01*
X119293386Y-60875500D01*
X119122297Y-60902597D01*
X119122293Y-60902598D01*
X118957561Y-60956123D01*
X118957558Y-60956125D01*
X118803214Y-61034766D01*
X118663073Y-61136585D01*
X118540585Y-61259073D01*
X118438766Y-61399214D01*
X118360125Y-61553558D01*
X118360123Y-61553561D01*
X118306598Y-61718293D01*
X118306597Y-61718297D01*
X118279500Y-61889385D01*
X118279500Y-62062614D01*
X118306597Y-62233702D01*
X118306598Y-62233706D01*
X118360123Y-62398438D01*
X118360125Y-62398441D01*
X118433504Y-62542458D01*
X118438768Y-62552788D01*
X118540586Y-62692928D01*
X118663072Y-62815414D01*
X118803212Y-62917232D01*
X118957555Y-62995873D01*
X118957557Y-62995873D01*
X118957558Y-62995874D01*
X118957561Y-62995876D01*
X119122293Y-63049401D01*
X119122297Y-63049402D01*
X119293386Y-63076500D01*
X119293389Y-63076500D01*
X119466614Y-63076500D01*
X119637702Y-63049402D01*
X119709727Y-63025999D01*
X119750057Y-63012894D01*
X119773238Y-63012894D01*
X119796137Y-63009268D01*
X119803253Y-63012894D01*
X119811242Y-63012894D01*
X119850649Y-63037042D01*
X119983005Y-63169397D01*
X120010781Y-63223912D01*
X120012000Y-63239399D01*
X120012000Y-63765780D01*
X119993093Y-63823971D01*
X119943593Y-63859935D01*
X119882407Y-63859935D01*
X119863503Y-63851518D01*
X119844286Y-63840424D01*
X119844285Y-63840423D01*
X119844284Y-63840423D01*
X119691557Y-63799500D01*
X119533443Y-63799500D01*
X119380716Y-63840423D01*
X119301362Y-63886237D01*
X119251864Y-63899500D01*
X119001181Y-63899500D01*
X118869396Y-63899500D01*
X118796281Y-63919091D01*
X118742097Y-63933609D01*
X118627978Y-63999496D01*
X115830186Y-66797288D01*
X115830185Y-66797287D01*
X115737000Y-66890473D01*
X115736996Y-66890478D01*
X115671109Y-67004597D01*
X115637000Y-67131897D01*
X115637000Y-67200500D01*
X115618093Y-67258691D01*
X115568593Y-67294655D01*
X115538004Y-67299500D01*
X115518481Y-67299500D01*
X115518476Y-67299501D01*
X115424700Y-67314352D01*
X115424695Y-67314354D01*
X115311659Y-67371949D01*
X115221949Y-67461659D01*
X115164354Y-67574695D01*
X115149500Y-67668477D01*
X115149500Y-68031520D01*
X115149501Y-68031523D01*
X115164352Y-68125299D01*
X115164353Y-68125302D01*
X115164353Y-68125303D01*
X115164354Y-68125304D01*
X115186516Y-68168800D01*
X115188011Y-68171733D01*
X115197582Y-68232165D01*
X115169805Y-68286681D01*
X115115288Y-68314459D01*
X115054856Y-68304888D01*
X114975303Y-68264353D01*
X114881521Y-68249500D01*
X113643478Y-68249500D01*
X113643476Y-68249501D01*
X113549700Y-68264352D01*
X113549695Y-68264354D01*
X113436659Y-68321949D01*
X113346949Y-68411659D01*
X113289354Y-68524695D01*
X113274500Y-68618477D01*
X113274500Y-68981520D01*
X113274501Y-68981523D01*
X113289352Y-69075299D01*
X113289354Y-69075304D01*
X113346950Y-69188342D01*
X113436658Y-69278050D01*
X113549696Y-69335646D01*
X113643481Y-69350500D01*
X113763000Y-69350499D01*
X113821190Y-69369406D01*
X113857154Y-69418906D01*
X113862000Y-69449499D01*
X113862000Y-71143877D01*
X113843093Y-71202068D01*
X113797600Y-71236634D01*
X113782668Y-71242203D01*
X113782667Y-71242204D01*
X113667458Y-71328450D01*
X113667450Y-71328458D01*
X113581202Y-71443670D01*
X113530910Y-71578511D01*
X113530909Y-71578517D01*
X113524703Y-71636244D01*
X113524500Y-71638129D01*
X113524500Y-72000500D01*
X113505593Y-72058691D01*
X113456093Y-72094655D01*
X113425500Y-72099500D01*
X112765806Y-72099500D01*
X112765790Y-72099499D01*
X112759727Y-72099499D01*
X112654273Y-72099499D01*
X112654270Y-72099499D01*
X112552413Y-72126792D01*
X112552409Y-72126794D01*
X112461087Y-72179519D01*
X112386519Y-72254086D01*
X112386520Y-72254087D01*
X112386518Y-72254089D01*
X112386517Y-72254089D01*
X111579514Y-73061090D01*
X111524998Y-73088867D01*
X111470901Y-73080307D01*
X111470260Y-73081855D01*
X111466671Y-73080368D01*
X111284672Y-73021233D01*
X111095681Y-72991300D01*
X111095678Y-72991300D01*
X110904322Y-72991300D01*
X110904319Y-72991300D01*
X110715327Y-73021233D01*
X110533332Y-73080367D01*
X110362834Y-73167239D01*
X110362828Y-73167243D01*
X110208030Y-73279711D01*
X110072711Y-73415030D01*
X109960243Y-73569828D01*
X109960239Y-73569834D01*
X109873367Y-73740332D01*
X109814233Y-73922327D01*
X109784300Y-74111318D01*
X109784300Y-74302681D01*
X109814233Y-74491672D01*
X109873367Y-74673667D01*
X109960239Y-74844165D01*
X109960243Y-74844171D01*
X110072711Y-74998969D01*
X110072713Y-74998971D01*
X110072716Y-74998975D01*
X110208025Y-75134284D01*
X110208028Y-75134286D01*
X110208030Y-75134288D01*
X110362828Y-75246756D01*
X110362834Y-75246760D01*
X110533333Y-75333633D01*
X110715323Y-75392765D01*
X110715324Y-75392765D01*
X110715327Y-75392766D01*
X110904319Y-75422700D01*
X110904322Y-75422700D01*
X111095681Y-75422700D01*
X111284672Y-75392766D01*
X111284673Y-75392765D01*
X111284677Y-75392765D01*
X111466667Y-75333633D01*
X111637166Y-75246760D01*
X111791975Y-75134284D01*
X111927284Y-74998975D01*
X112039760Y-74844166D01*
X112126633Y-74673667D01*
X112185765Y-74491677D01*
X112200045Y-74401519D01*
X112215700Y-74302681D01*
X112215700Y-74111318D01*
X112185766Y-73922327D01*
X112185765Y-73922323D01*
X112126633Y-73740333D01*
X112126631Y-73740330D01*
X112126631Y-73740328D01*
X112125145Y-73736740D01*
X112126705Y-73736093D01*
X112118127Y-73682027D01*
X112145889Y-73627503D01*
X112843896Y-72929496D01*
X112898413Y-72901719D01*
X112913900Y-72900500D01*
X113585674Y-72900500D01*
X113643865Y-72919407D01*
X113664925Y-72940168D01*
X113667454Y-72943546D01*
X113667457Y-72943548D01*
X113667458Y-72943549D01*
X113782670Y-73029797D01*
X113917511Y-73080089D01*
X113917512Y-73080089D01*
X113917517Y-73080091D01*
X113977127Y-73086500D01*
X114266598Y-73086499D01*
X114324788Y-73105406D01*
X114336602Y-73115495D01*
X115565504Y-74344397D01*
X115593281Y-74398914D01*
X115594500Y-74414401D01*
X115594500Y-74850002D01*
X115613948Y-74947776D01*
X115617679Y-74956781D01*
X115615654Y-74957619D01*
X115628700Y-75003900D01*
X115616132Y-75042578D01*
X115617679Y-75043219D01*
X115613948Y-75052223D01*
X115594500Y-75149997D01*
X115594500Y-75715827D01*
X115603205Y-75781948D01*
X115603205Y-75781953D01*
X115637281Y-75909125D01*
X115662801Y-75970735D01*
X115662803Y-75970739D01*
X115662805Y-75970743D01*
X115728631Y-76084757D01*
X115728633Y-76084760D01*
X115769229Y-76137666D01*
X115769231Y-76137668D01*
X115769235Y-76137673D01*
X115862327Y-76230765D01*
X115862331Y-76230768D01*
X115862333Y-76230770D01*
X115907791Y-76265651D01*
X115915243Y-76271369D01*
X116029257Y-76337195D01*
X116029263Y-76337197D01*
X116029264Y-76337198D01*
X116090874Y-76362718D01*
X116090875Y-76362718D01*
X116090877Y-76362719D01*
X116218044Y-76396794D01*
X116284174Y-76405500D01*
X116284175Y-76405500D01*
X116915825Y-76405500D01*
X116915826Y-76405500D01*
X116981956Y-76396794D01*
X117109123Y-76362719D01*
X117170743Y-76337195D01*
X117284757Y-76271369D01*
X117337673Y-76230765D01*
X117430765Y-76137673D01*
X117446873Y-76116681D01*
X117467935Y-76089233D01*
X117518360Y-76054577D01*
X117546477Y-76050500D01*
X118435567Y-76050500D01*
X118493758Y-76069407D01*
X118528241Y-76116868D01*
X118528745Y-76116681D01*
X118529420Y-76118491D01*
X118529722Y-76118907D01*
X118530164Y-76120485D01*
X118530908Y-76122482D01*
X118530909Y-76122483D01*
X118537336Y-76139715D01*
X118581202Y-76257329D01*
X118667450Y-76372541D01*
X118667454Y-76372546D01*
X118667457Y-76372548D01*
X118667458Y-76372549D01*
X118782670Y-76458797D01*
X118913900Y-76507742D01*
X118961815Y-76545792D01*
X118978213Y-76604739D01*
X118956832Y-76662067D01*
X118905837Y-76695878D01*
X118879304Y-76699500D01*
X111001953Y-76699500D01*
X110998066Y-76699424D01*
X110556706Y-76682082D01*
X110548957Y-76681472D01*
X110112265Y-76629787D01*
X110104587Y-76628571D01*
X109673286Y-76542779D01*
X109665728Y-76540964D01*
X109242507Y-76421604D01*
X109235113Y-76419202D01*
X108822539Y-76266995D01*
X108815358Y-76264020D01*
X108541289Y-76137673D01*
X108416007Y-76079917D01*
X108409091Y-76076393D01*
X108025412Y-75861523D01*
X108018786Y-75857463D01*
X107653147Y-75613149D01*
X107646859Y-75608580D01*
X107301529Y-75336344D01*
X107295618Y-75331296D01*
X106972701Y-75032795D01*
X106967204Y-75027298D01*
X106668703Y-74704381D01*
X106663655Y-74698470D01*
X106391419Y-74353140D01*
X106386850Y-74346852D01*
X106170753Y-74023442D01*
X106142529Y-73981202D01*
X106138480Y-73974595D01*
X105923600Y-73590898D01*
X105920086Y-73584002D01*
X105735973Y-73184628D01*
X105733009Y-73177474D01*
X105580794Y-72764878D01*
X105578395Y-72757492D01*
X105574013Y-72741956D01*
X105459033Y-72334263D01*
X105457220Y-72326713D01*
X105371425Y-71895395D01*
X105370214Y-71887750D01*
X105318526Y-71451033D01*
X105317917Y-71443293D01*
X105309797Y-71236634D01*
X105300576Y-71001934D01*
X105300500Y-70998047D01*
X105300500Y-68877085D01*
X109124700Y-68877085D01*
X109124700Y-69122914D01*
X109156787Y-69366638D01*
X109218352Y-69596407D01*
X109220411Y-69604089D01*
X109229073Y-69625000D01*
X109314483Y-69831199D01*
X109314486Y-69831204D01*
X109426951Y-70026000D01*
X109437401Y-70044099D01*
X109587043Y-70239117D01*
X109587045Y-70239119D01*
X109587049Y-70239124D01*
X109760876Y-70412951D01*
X109760880Y-70412954D01*
X109760882Y-70412956D01*
X109952620Y-70560081D01*
X109955904Y-70562601D01*
X110168796Y-70685514D01*
X110168797Y-70685514D01*
X110168800Y-70685516D01*
X110222282Y-70707669D01*
X110395911Y-70779589D01*
X110633362Y-70843213D01*
X110877086Y-70875300D01*
X110877087Y-70875300D01*
X111122913Y-70875300D01*
X111122914Y-70875300D01*
X111366638Y-70843213D01*
X111604089Y-70779589D01*
X111831204Y-70685514D01*
X112044096Y-70562601D01*
X112239124Y-70412951D01*
X112412951Y-70239124D01*
X112562601Y-70044096D01*
X112685514Y-69831204D01*
X112779589Y-69604089D01*
X112843213Y-69366638D01*
X112875300Y-69122914D01*
X112875300Y-68877086D01*
X112843213Y-68633362D01*
X112779589Y-68395911D01*
X112700246Y-68204361D01*
X112685516Y-68168800D01*
X112685514Y-68168796D01*
X112562601Y-67955904D01*
X112522620Y-67903800D01*
X112412956Y-67760882D01*
X112412954Y-67760880D01*
X112412951Y-67760876D01*
X112239124Y-67587049D01*
X112239119Y-67587045D01*
X112239117Y-67587043D01*
X112044099Y-67437401D01*
X112002609Y-67413447D01*
X111831204Y-67314486D01*
X111831199Y-67314483D01*
X111630826Y-67231486D01*
X111604089Y-67220411D01*
X111604087Y-67220410D01*
X111604086Y-67220410D01*
X111366638Y-67156787D01*
X111122914Y-67124700D01*
X110877086Y-67124700D01*
X110877085Y-67124700D01*
X110633361Y-67156787D01*
X110395913Y-67220410D01*
X110395906Y-67220413D01*
X110168800Y-67314483D01*
X109955900Y-67437401D01*
X109760882Y-67587043D01*
X109587043Y-67760882D01*
X109437401Y-67955900D01*
X109314483Y-68168800D01*
X109220413Y-68395906D01*
X109220410Y-68395913D01*
X109156787Y-68633361D01*
X109124700Y-68877085D01*
X105300500Y-68877085D01*
X105300500Y-66001952D01*
X105300576Y-65998065D01*
X105304128Y-65907669D01*
X105317917Y-65556695D01*
X105318325Y-65551518D01*
X109784300Y-65551518D01*
X109784300Y-65742881D01*
X109814233Y-65931872D01*
X109873367Y-66113867D01*
X109960239Y-66284365D01*
X109960243Y-66284371D01*
X110072711Y-66439169D01*
X110072713Y-66439171D01*
X110072716Y-66439175D01*
X110208025Y-66574484D01*
X110208028Y-66574486D01*
X110208030Y-66574488D01*
X110362828Y-66686956D01*
X110362834Y-66686960D01*
X110533333Y-66773833D01*
X110715323Y-66832965D01*
X110715324Y-66832965D01*
X110715327Y-66832966D01*
X110904319Y-66862900D01*
X110904322Y-66862900D01*
X111095681Y-66862900D01*
X111284672Y-66832966D01*
X111284673Y-66832965D01*
X111284677Y-66832965D01*
X111466667Y-66773833D01*
X111637166Y-66686960D01*
X111791975Y-66574484D01*
X111927284Y-66439175D01*
X112039760Y-66284366D01*
X112126633Y-66113867D01*
X112185765Y-65931877D01*
X112189599Y-65907669D01*
X112215700Y-65742881D01*
X112215700Y-65551518D01*
X112185766Y-65362527D01*
X112185765Y-65362523D01*
X112126633Y-65180533D01*
X112039760Y-65010034D01*
X112039756Y-65010028D01*
X111927288Y-64855230D01*
X111927286Y-64855228D01*
X111927284Y-64855225D01*
X111791975Y-64719916D01*
X111791971Y-64719913D01*
X111791969Y-64719911D01*
X111637171Y-64607443D01*
X111637165Y-64607439D01*
X111466663Y-64520565D01*
X111428929Y-64508304D01*
X111379430Y-64472340D01*
X111360523Y-64414149D01*
X111379431Y-64355958D01*
X111428932Y-64319995D01*
X111428933Y-64319994D01*
X111447278Y-64314033D01*
X111610697Y-64230768D01*
X111610703Y-64230764D01*
X111731802Y-64142779D01*
X111731802Y-64142778D01*
X111213324Y-63624301D01*
X111272930Y-63589889D01*
X111355689Y-63507130D01*
X111390101Y-63447524D01*
X111908578Y-63966002D01*
X111908579Y-63966002D01*
X111996564Y-63844903D01*
X111996568Y-63844897D01*
X112079834Y-63681477D01*
X112136510Y-63507047D01*
X112165200Y-63325906D01*
X112165200Y-63142493D01*
X112136510Y-62961352D01*
X112083276Y-62797514D01*
X112083276Y-62797511D01*
X112079836Y-62786926D01*
X111996568Y-62623502D01*
X111996564Y-62623496D01*
X111908579Y-62502396D01*
X111908578Y-62502396D01*
X111390100Y-63020873D01*
X111355689Y-62961270D01*
X111272930Y-62878511D01*
X111213323Y-62844097D01*
X111731802Y-62325620D01*
X111610695Y-62237630D01*
X111447277Y-62154365D01*
X111272847Y-62097689D01*
X111091706Y-62069000D01*
X110908294Y-62069000D01*
X110727152Y-62097689D01*
X110552722Y-62154365D01*
X110389302Y-62237631D01*
X110389298Y-62237633D01*
X110268196Y-62325619D01*
X110786675Y-62844098D01*
X110727070Y-62878511D01*
X110644311Y-62961270D01*
X110609898Y-63020875D01*
X110091419Y-62502396D01*
X110003433Y-62623498D01*
X110003431Y-62623502D01*
X109920165Y-62786922D01*
X109863489Y-62961352D01*
X109834800Y-63142493D01*
X109834800Y-63325906D01*
X109863489Y-63507047D01*
X109920165Y-63681477D01*
X110003430Y-63844895D01*
X110091420Y-63966002D01*
X110609897Y-63447523D01*
X110644311Y-63507130D01*
X110727070Y-63589889D01*
X110786673Y-63624300D01*
X110268196Y-64142778D01*
X110268196Y-64142779D01*
X110389296Y-64230764D01*
X110389302Y-64230768D01*
X110552725Y-64314035D01*
X110571067Y-64319995D01*
X110620568Y-64355958D01*
X110639476Y-64414148D01*
X110620570Y-64472339D01*
X110571071Y-64508304D01*
X110533334Y-64520566D01*
X110362834Y-64607439D01*
X110362828Y-64607443D01*
X110208030Y-64719911D01*
X110072711Y-64855230D01*
X109960243Y-65010028D01*
X109960239Y-65010034D01*
X109873367Y-65180532D01*
X109814233Y-65362527D01*
X109784300Y-65551518D01*
X105318325Y-65551518D01*
X105318527Y-65548957D01*
X105320061Y-65535996D01*
X105370215Y-65112245D01*
X105371424Y-65104608D01*
X105457223Y-64673272D01*
X105459031Y-64665742D01*
X105578400Y-64242491D01*
X105580791Y-64235129D01*
X105733013Y-63822516D01*
X105735969Y-63815380D01*
X105920091Y-63415987D01*
X105923589Y-63409121D01*
X106138487Y-63025393D01*
X106142522Y-63018808D01*
X106386855Y-62653139D01*
X106391412Y-62646867D01*
X106640349Y-62331093D01*
X106663236Y-62302061D01*
X106663295Y-62301984D01*
X106663635Y-62301553D01*
X106668703Y-62295618D01*
X106678506Y-62285013D01*
X106967216Y-61972688D01*
X106972688Y-61967216D01*
X107075064Y-61872581D01*
X115790000Y-61872581D01*
X115790000Y-62079418D01*
X115830349Y-62282272D01*
X115909501Y-62473361D01*
X116012183Y-62627037D01*
X116409269Y-62229950D01*
X116439901Y-62283007D01*
X116532993Y-62376099D01*
X116586046Y-62406729D01*
X116188961Y-62803815D01*
X116342638Y-62906498D01*
X116533727Y-62985650D01*
X116736581Y-63025999D01*
X116736586Y-63026000D01*
X116943414Y-63026000D01*
X116943418Y-63025999D01*
X117146272Y-62985650D01*
X117337360Y-62906498D01*
X117491037Y-62803815D01*
X117093952Y-62406730D01*
X117147007Y-62376099D01*
X117240099Y-62283007D01*
X117270730Y-62229952D01*
X117667815Y-62627037D01*
X117770498Y-62473360D01*
X117849650Y-62282272D01*
X117889999Y-62079418D01*
X117890000Y-62079413D01*
X117890000Y-61872586D01*
X117889999Y-61872581D01*
X117849650Y-61669727D01*
X117770498Y-61478638D01*
X117667815Y-61324961D01*
X117270729Y-61722046D01*
X117240099Y-61668993D01*
X117147007Y-61575901D01*
X117093950Y-61545269D01*
X117491037Y-61148183D01*
X117337361Y-61045501D01*
X117146272Y-60966349D01*
X116943418Y-60926000D01*
X116736581Y-60926000D01*
X116533727Y-60966349D01*
X116342638Y-61045501D01*
X116188961Y-61148183D01*
X116586047Y-61545269D01*
X116532993Y-61575901D01*
X116439901Y-61668993D01*
X116409269Y-61722047D01*
X116012183Y-61324961D01*
X115909501Y-61478638D01*
X115830349Y-61669727D01*
X115790000Y-61872581D01*
X107075064Y-61872581D01*
X107295622Y-61668699D01*
X107301529Y-61663655D01*
X107313510Y-61654210D01*
X107646867Y-61391412D01*
X107653139Y-61386855D01*
X108018808Y-61142522D01*
X108025393Y-61138487D01*
X108409121Y-60923589D01*
X108415987Y-60920091D01*
X108815380Y-60735969D01*
X108822516Y-60733013D01*
X109235129Y-60580791D01*
X109242491Y-60578400D01*
X109665742Y-60459031D01*
X109673272Y-60457223D01*
X110104608Y-60371424D01*
X110112245Y-60370215D01*
X110548968Y-60318526D01*
X110556695Y-60317917D01*
X110998066Y-60300576D01*
X111001953Y-60300500D01*
X111047595Y-60300500D01*
X128952405Y-60300500D01*
X128998047Y-60300500D01*
X129001934Y-60300576D01*
G37*
%TD.AperFunction*%
%TA.AperFunction,Conductor*%
G36*
X134108035Y-63522167D02*
G01*
X134149569Y-63567094D01*
X134248893Y-63782546D01*
X134264020Y-63815358D01*
X134266995Y-63822539D01*
X134419202Y-64235113D01*
X134421604Y-64242507D01*
X134540964Y-64665728D01*
X134542779Y-64673286D01*
X134628571Y-65104587D01*
X134629787Y-65112265D01*
X134681472Y-65548957D01*
X134682082Y-65556706D01*
X134699424Y-65998065D01*
X134699500Y-66001952D01*
X134699500Y-70998047D01*
X134699424Y-71001934D01*
X134682082Y-71443293D01*
X134681472Y-71451042D01*
X134629787Y-71887734D01*
X134628571Y-71895412D01*
X134542779Y-72326713D01*
X134540964Y-72334271D01*
X134421604Y-72757492D01*
X134419202Y-72764886D01*
X134266995Y-73177460D01*
X134264020Y-73184641D01*
X134079920Y-73583987D01*
X134076391Y-73590913D01*
X133861525Y-73974584D01*
X133857463Y-73981213D01*
X133613149Y-74346852D01*
X133608580Y-74353140D01*
X133336344Y-74698470D01*
X133331296Y-74704381D01*
X133032795Y-75027298D01*
X133027298Y-75032795D01*
X132704381Y-75331296D01*
X132698470Y-75336344D01*
X132353140Y-75608580D01*
X132346852Y-75613149D01*
X131981213Y-75857463D01*
X131974584Y-75861525D01*
X131590913Y-76076391D01*
X131583987Y-76079920D01*
X131184641Y-76264020D01*
X131177460Y-76266995D01*
X130764886Y-76419202D01*
X130757492Y-76421604D01*
X130334271Y-76540964D01*
X130326713Y-76542779D01*
X129895412Y-76628571D01*
X129887734Y-76629787D01*
X129451042Y-76681472D01*
X129443293Y-76682082D01*
X129001934Y-76699424D01*
X128998047Y-76699500D01*
X121520696Y-76699500D01*
X121462505Y-76680593D01*
X121426541Y-76631093D01*
X121426541Y-76569907D01*
X121462505Y-76520407D01*
X121486100Y-76507742D01*
X121617329Y-76458797D01*
X121617329Y-76458796D01*
X121617331Y-76458796D01*
X121732546Y-76372546D01*
X121818796Y-76257331D01*
X121828705Y-76230765D01*
X121851627Y-76169305D01*
X121869091Y-76122483D01*
X121875500Y-76062873D01*
X121875499Y-75067128D01*
X121869091Y-75007517D01*
X121869090Y-75007516D01*
X121868829Y-75005081D01*
X121881409Y-74945203D01*
X121926782Y-74904154D01*
X121967262Y-74895500D01*
X121999055Y-74895500D01*
X121999057Y-74895500D01*
X122151784Y-74854577D01*
X122288716Y-74775520D01*
X122320254Y-74743982D01*
X122339741Y-74724496D01*
X122394258Y-74696719D01*
X122409744Y-74695500D01*
X123771688Y-74695500D01*
X123771690Y-74695500D01*
X123873551Y-74668207D01*
X123873553Y-74668205D01*
X123873555Y-74668205D01*
X123964871Y-74615483D01*
X123964871Y-74615482D01*
X123964876Y-74615480D01*
X124248839Y-74331515D01*
X124303356Y-74303738D01*
X124363788Y-74313309D01*
X124407053Y-74356574D01*
X124417843Y-74401519D01*
X124417843Y-74519030D01*
X124456845Y-74765285D01*
X124456846Y-74765289D01*
X124533889Y-75002401D01*
X124533891Y-75002404D01*
X124609349Y-75150500D01*
X124647085Y-75224560D01*
X124793635Y-75426270D01*
X124969936Y-75602571D01*
X125171646Y-75749121D01*
X125393798Y-75862313D01*
X125393800Y-75862313D01*
X125393801Y-75862314D01*
X125393804Y-75862316D01*
X125630916Y-75939359D01*
X125630920Y-75939360D01*
X125877176Y-75978363D01*
X125877179Y-75978363D01*
X126126510Y-75978363D01*
X126372765Y-75939360D01*
X126372769Y-75939359D01*
X126609881Y-75862316D01*
X126609883Y-75862314D01*
X126609888Y-75862313D01*
X126832040Y-75749121D01*
X127033750Y-75602571D01*
X127210051Y-75426270D01*
X127356601Y-75224560D01*
X127469793Y-75002408D01*
X127469794Y-75002403D01*
X127469796Y-75002401D01*
X127546839Y-74765289D01*
X127546840Y-74765285D01*
X127585843Y-74519030D01*
X127585843Y-74269695D01*
X127546840Y-74023440D01*
X127546839Y-74023436D01*
X127469796Y-73786324D01*
X127469794Y-73786321D01*
X127469793Y-73786320D01*
X127469793Y-73786318D01*
X127356601Y-73564166D01*
X127210051Y-73362456D01*
X127033750Y-73186155D01*
X126832040Y-73039605D01*
X126832039Y-73039604D01*
X126832037Y-73039603D01*
X126609884Y-72926411D01*
X126609881Y-72926409D01*
X126372769Y-72849366D01*
X126372765Y-72849365D01*
X126126510Y-72810363D01*
X126126507Y-72810363D01*
X126009000Y-72810363D01*
X125950809Y-72791456D01*
X125914845Y-72741956D01*
X125914845Y-72680770D01*
X125938996Y-72641359D01*
X126365083Y-72215273D01*
X126950860Y-71629496D01*
X127005377Y-71601719D01*
X127020864Y-71600500D01*
X128595500Y-71600500D01*
X128653691Y-71619407D01*
X128689655Y-71668907D01*
X128692023Y-71677493D01*
X128694500Y-71688357D01*
X128694500Y-71700000D01*
X128713949Y-71797776D01*
X128722294Y-71810266D01*
X128726355Y-71828075D01*
X128725166Y-71841243D01*
X128728756Y-71853971D01*
X128722196Y-71874159D01*
X128720856Y-71889013D01*
X128717314Y-71893064D01*
X128717766Y-71893251D01*
X128714033Y-71902263D01*
X128699501Y-71975315D01*
X128699500Y-71975327D01*
X128699500Y-73024672D01*
X128699501Y-73024684D01*
X128714033Y-73097736D01*
X128714035Y-73097742D01*
X128769397Y-73180599D01*
X128769400Y-73180602D01*
X128775445Y-73184641D01*
X128852260Y-73235966D01*
X128907808Y-73247015D01*
X128925315Y-73250498D01*
X128925320Y-73250498D01*
X128925326Y-73250500D01*
X128925327Y-73250500D01*
X130474673Y-73250500D01*
X130474674Y-73250500D01*
X130547740Y-73235966D01*
X130630601Y-73180601D01*
X130685966Y-73097740D01*
X130700500Y-73024674D01*
X130700500Y-73024671D01*
X130701360Y-73020348D01*
X130731257Y-72966964D01*
X130786823Y-72941349D01*
X130798458Y-72940663D01*
X131862496Y-72940663D01*
X131920687Y-72959570D01*
X131950706Y-72994718D01*
X132012244Y-73115495D01*
X132026793Y-73144048D01*
X132133394Y-73290771D01*
X132261635Y-73419012D01*
X132408358Y-73525613D01*
X132569952Y-73607949D01*
X132742435Y-73663992D01*
X132742436Y-73663992D01*
X132742439Y-73663993D01*
X132921560Y-73692363D01*
X132921563Y-73692363D01*
X133102926Y-73692363D01*
X133282046Y-73663993D01*
X133282047Y-73663992D01*
X133282051Y-73663992D01*
X133454534Y-73607949D01*
X133616128Y-73525613D01*
X133762851Y-73419012D01*
X133891092Y-73290771D01*
X133997693Y-73144048D01*
X134080029Y-72982454D01*
X134136072Y-72809971D01*
X134137787Y-72799142D01*
X134164443Y-72630846D01*
X134164443Y-72449479D01*
X134136073Y-72270359D01*
X134132570Y-72259577D01*
X134080029Y-72097872D01*
X133997693Y-71936278D01*
X133891092Y-71789555D01*
X133762851Y-71661314D01*
X133616128Y-71554713D01*
X133616127Y-71554712D01*
X133616125Y-71554711D01*
X133454534Y-71472377D01*
X133282046Y-71416332D01*
X133102926Y-71387963D01*
X133102923Y-71387963D01*
X132921563Y-71387963D01*
X132921560Y-71387963D01*
X132742439Y-71416332D01*
X132569951Y-71472377D01*
X132408360Y-71554711D01*
X132261636Y-71661313D01*
X132133393Y-71789556D01*
X132026791Y-71936280D01*
X131995157Y-71998367D01*
X131958019Y-72071256D01*
X131950706Y-72085608D01*
X131907441Y-72128873D01*
X131862496Y-72139663D01*
X130799500Y-72139663D01*
X130741309Y-72120756D01*
X130705345Y-72071256D01*
X130701652Y-72055723D01*
X130700500Y-72048238D01*
X130700500Y-71975326D01*
X130685966Y-71902260D01*
X130675657Y-71886832D01*
X130672319Y-71865141D01*
X130673880Y-71855552D01*
X130671243Y-71846203D01*
X130679582Y-71820538D01*
X130682154Y-71804751D01*
X130683863Y-71803056D01*
X130686046Y-71797782D01*
X130686051Y-71797776D01*
X130705500Y-71700000D01*
X130705500Y-71084174D01*
X130696794Y-71018044D01*
X130662719Y-70890877D01*
X130657804Y-70879012D01*
X130637198Y-70829264D01*
X130637197Y-70829263D01*
X130637195Y-70829257D01*
X130590857Y-70748998D01*
X130578137Y-70689152D01*
X130603024Y-70633256D01*
X130656012Y-70602663D01*
X130676595Y-70600500D01*
X131973773Y-70600500D01*
X132031964Y-70619407D01*
X132053861Y-70641304D01*
X132133394Y-70750771D01*
X132261635Y-70879012D01*
X132408358Y-70985613D01*
X132569952Y-71067949D01*
X132742435Y-71123992D01*
X132742436Y-71123992D01*
X132742439Y-71123993D01*
X132921560Y-71152363D01*
X132921563Y-71152363D01*
X133102926Y-71152363D01*
X133282046Y-71123993D01*
X133282047Y-71123992D01*
X133282051Y-71123992D01*
X133454534Y-71067949D01*
X133616128Y-70985613D01*
X133762851Y-70879012D01*
X133891092Y-70750771D01*
X133997693Y-70604048D01*
X134080029Y-70442454D01*
X134136072Y-70269971D01*
X134139235Y-70249999D01*
X134164443Y-70090846D01*
X134164443Y-69909479D01*
X134136073Y-69730359D01*
X134131840Y-69717331D01*
X134080029Y-69557872D01*
X133997693Y-69396278D01*
X133891092Y-69249555D01*
X133762851Y-69121314D01*
X133616128Y-69014713D01*
X133616127Y-69014712D01*
X133616125Y-69014711D01*
X133454534Y-68932377D01*
X133282046Y-68876332D01*
X133102926Y-68847963D01*
X133102923Y-68847963D01*
X132921563Y-68847963D01*
X132921560Y-68847963D01*
X132742439Y-68876332D01*
X132569951Y-68932377D01*
X132408360Y-69014711D01*
X132261636Y-69121313D01*
X132133393Y-69249556D01*
X132026791Y-69396280D01*
X131944457Y-69557871D01*
X131888174Y-69731093D01*
X131852210Y-69780593D01*
X131794019Y-69799500D01*
X127052727Y-69799500D01*
X126947273Y-69799500D01*
X126884929Y-69816204D01*
X126845407Y-69826794D01*
X126754091Y-69879516D01*
X126754086Y-69879520D01*
X125811159Y-70822445D01*
X125808523Y-70823787D01*
X125807032Y-70826342D01*
X125781494Y-70837559D01*
X125756643Y-70850222D01*
X125753721Y-70849759D01*
X125751013Y-70850949D01*
X125723758Y-70845013D01*
X125696211Y-70840651D01*
X125694119Y-70838559D01*
X125691229Y-70837930D01*
X125679215Y-70823655D01*
X125652946Y-70797386D01*
X125650515Y-70792256D01*
X125649387Y-70789689D01*
X125618796Y-70707669D01*
X125605637Y-70690091D01*
X125601065Y-70679682D01*
X125599095Y-70660002D01*
X125592716Y-70641283D01*
X125596120Y-70630270D01*
X125594973Y-70618801D01*
X125604946Y-70601723D01*
X125610789Y-70582827D01*
X125620535Y-70575030D01*
X125625830Y-70565966D01*
X125639225Y-70560081D01*
X125647051Y-70553821D01*
X125646261Y-70552452D01*
X125743200Y-70496483D01*
X125743200Y-70496482D01*
X125743205Y-70496480D01*
X127260189Y-68979496D01*
X127314706Y-68951719D01*
X127330193Y-68950500D01*
X128722828Y-68950500D01*
X128781019Y-68969407D01*
X128808563Y-68999999D01*
X128817059Y-69014713D01*
X128828631Y-69034757D01*
X128869229Y-69087666D01*
X128869231Y-69087668D01*
X128869235Y-69087673D01*
X128962327Y-69180765D01*
X128962331Y-69180768D01*
X128962333Y-69180770D01*
X129010708Y-69217889D01*
X129015243Y-69221369D01*
X129129257Y-69287195D01*
X129129263Y-69287197D01*
X129129264Y-69287198D01*
X129190874Y-69312718D01*
X129190875Y-69312718D01*
X129190877Y-69312719D01*
X129318044Y-69346794D01*
X129384174Y-69355500D01*
X129384175Y-69355500D01*
X130015825Y-69355500D01*
X130015826Y-69355500D01*
X130081956Y-69346794D01*
X130209123Y-69312719D01*
X130270743Y-69287195D01*
X130384757Y-69221369D01*
X130437673Y-69180765D01*
X130530765Y-69087673D01*
X130571369Y-69034757D01*
X130591435Y-69000000D01*
X130636904Y-68959059D01*
X130677172Y-68950500D01*
X131062888Y-68950500D01*
X131062890Y-68950500D01*
X131164751Y-68923207D01*
X131164753Y-68923205D01*
X131164755Y-68923205D01*
X131256071Y-68870483D01*
X131256071Y-68870482D01*
X131256076Y-68870480D01*
X131314714Y-68811842D01*
X131336898Y-68789659D01*
X131391415Y-68761882D01*
X131406901Y-68760663D01*
X131479055Y-68760663D01*
X131479057Y-68760663D01*
X131631784Y-68719740D01*
X131768716Y-68640683D01*
X131880520Y-68528879D01*
X131959577Y-68391947D01*
X131990216Y-68277599D01*
X132023538Y-68226288D01*
X132080659Y-68204361D01*
X132139760Y-68220196D01*
X132155839Y-68233216D01*
X132261635Y-68339012D01*
X132408358Y-68445613D01*
X132569952Y-68527949D01*
X132742435Y-68583992D01*
X132742436Y-68583992D01*
X132742439Y-68583993D01*
X132921560Y-68612363D01*
X132921563Y-68612363D01*
X133102926Y-68612363D01*
X133282046Y-68583993D01*
X133282047Y-68583992D01*
X133282051Y-68583992D01*
X133454534Y-68527949D01*
X133616128Y-68445613D01*
X133762851Y-68339012D01*
X133891092Y-68210771D01*
X133997693Y-68064048D01*
X134080029Y-67902454D01*
X134136072Y-67729971D01*
X134136073Y-67729966D01*
X134164443Y-67550846D01*
X134164443Y-67369479D01*
X134136073Y-67190359D01*
X134136072Y-67190355D01*
X134080029Y-67017872D01*
X133997693Y-66856278D01*
X133891092Y-66709555D01*
X133762851Y-66581314D01*
X133616128Y-66474713D01*
X133616127Y-66474712D01*
X133616125Y-66474711D01*
X133454534Y-66392377D01*
X133282046Y-66336332D01*
X133102926Y-66307963D01*
X133102923Y-66307963D01*
X132921563Y-66307963D01*
X132921560Y-66307963D01*
X132742439Y-66336332D01*
X132569951Y-66392377D01*
X132408360Y-66474711D01*
X132261632Y-66581316D01*
X132155844Y-66687104D01*
X132101328Y-66714881D01*
X132040896Y-66705309D01*
X131997631Y-66662045D01*
X131990217Y-66642731D01*
X131959577Y-66528379D01*
X131880520Y-66391447D01*
X131858471Y-66369398D01*
X131829496Y-66340422D01*
X131801719Y-66285905D01*
X131800500Y-66270419D01*
X131800500Y-65003856D01*
X131819407Y-64945665D01*
X131841678Y-64925616D01*
X131840767Y-64924429D01*
X131845906Y-64920485D01*
X131845908Y-64920482D01*
X131845913Y-64920480D01*
X132517267Y-64249124D01*
X132571782Y-64221349D01*
X132625151Y-64227665D01*
X132708165Y-64262051D01*
X132901459Y-64300500D01*
X132901460Y-64300500D01*
X133098540Y-64300500D01*
X133098541Y-64300500D01*
X133291835Y-64262051D01*
X133473914Y-64186632D01*
X133637782Y-64077139D01*
X133777139Y-63937782D01*
X133886632Y-63773914D01*
X133962051Y-63591835D01*
X133962567Y-63589236D01*
X133963159Y-63588178D01*
X133963464Y-63587177D01*
X133963683Y-63587243D01*
X133992461Y-63535852D01*
X134048025Y-63510234D01*
X134108035Y-63522167D01*
G37*
%TD.AperFunction*%
%TA.AperFunction,Conductor*%
G36*
X124114646Y-70577184D02*
G01*
X124116779Y-70576591D01*
X124143551Y-70586575D01*
X124170731Y-70595407D01*
X124172032Y-70597198D01*
X124174107Y-70597972D01*
X124189893Y-70621782D01*
X124206695Y-70644907D01*
X124206695Y-70647122D01*
X124207918Y-70648967D01*
X124206695Y-70677501D01*
X124206695Y-70706093D01*
X124205298Y-70710096D01*
X124155910Y-70842511D01*
X124155908Y-70842522D01*
X124149500Y-70902129D01*
X124149500Y-71897866D01*
X124149501Y-71897870D01*
X124155908Y-71957480D01*
X124155909Y-71957485D01*
X124206202Y-72092329D01*
X124292450Y-72207541D01*
X124292454Y-72207546D01*
X124292457Y-72207548D01*
X124292458Y-72207549D01*
X124407670Y-72293797D01*
X124542511Y-72344089D01*
X124542512Y-72344089D01*
X124542517Y-72344091D01*
X124602127Y-72350500D01*
X124858062Y-72350499D01*
X124916251Y-72369406D01*
X124952215Y-72418906D01*
X124952216Y-72480091D01*
X124928065Y-72519503D01*
X123582066Y-73865504D01*
X123527549Y-73893281D01*
X123512062Y-73894500D01*
X122409744Y-73894500D01*
X122351553Y-73875593D01*
X122339741Y-73865504D01*
X122288718Y-73814482D01*
X122288716Y-73814480D01*
X122151784Y-73735423D01*
X121999057Y-73694500D01*
X121923276Y-73694500D01*
X121865085Y-73675593D01*
X121829121Y-73626093D01*
X121829121Y-73564907D01*
X121830518Y-73560904D01*
X121869089Y-73457488D01*
X121869090Y-73457485D01*
X121869091Y-73457483D01*
X121875500Y-73397873D01*
X121875499Y-72744399D01*
X121894406Y-72686209D01*
X121904496Y-72674396D01*
X122349397Y-72229497D01*
X122356513Y-72225871D01*
X122361209Y-72219408D01*
X122383258Y-72212243D01*
X122403913Y-72201720D01*
X122419400Y-72200501D01*
X122425092Y-72200501D01*
X122483283Y-72219408D01*
X122484421Y-72220248D01*
X122582670Y-72293797D01*
X122717511Y-72344089D01*
X122717512Y-72344089D01*
X122717517Y-72344091D01*
X122777127Y-72350500D01*
X123397872Y-72350499D01*
X123457483Y-72344091D01*
X123550572Y-72309371D01*
X123592329Y-72293797D01*
X123592329Y-72293796D01*
X123592331Y-72293796D01*
X123707546Y-72207546D01*
X123793796Y-72092331D01*
X123795503Y-72087756D01*
X123844089Y-71957488D01*
X123844090Y-71957485D01*
X123844091Y-71957483D01*
X123850500Y-71897873D01*
X123850499Y-70902128D01*
X123844091Y-70842517D01*
X123839148Y-70829264D01*
X123794702Y-70710096D01*
X123792082Y-70648967D01*
X123825893Y-70597972D01*
X123883221Y-70576591D01*
X123887460Y-70576500D01*
X124112540Y-70576500D01*
X124114646Y-70577184D01*
G37*
%TD.AperFunction*%
%TA.AperFunction,Conductor*%
G36*
X115345141Y-68345110D02*
G01*
X115424696Y-68385646D01*
X115518481Y-68400500D01*
X115953656Y-68400499D01*
X116003156Y-68413762D01*
X116065465Y-68449736D01*
X116094314Y-68466392D01*
X116221608Y-68500500D01*
X117401864Y-68500500D01*
X117451362Y-68513762D01*
X117530716Y-68559577D01*
X117626654Y-68585283D01*
X117677967Y-68618606D01*
X117699894Y-68675727D01*
X117689240Y-68725854D01*
X117664354Y-68774696D01*
X117649500Y-68868477D01*
X117649500Y-69231520D01*
X117649501Y-69231523D01*
X117664352Y-69325299D01*
X117664354Y-69325304D01*
X117721950Y-69438342D01*
X117774314Y-69490706D01*
X117802090Y-69545221D01*
X117792519Y-69605653D01*
X117774314Y-69630710D01*
X117761216Y-69643808D01*
X117761213Y-69643812D01*
X117709912Y-69748751D01*
X117700000Y-69816784D01*
X117700000Y-69874999D01*
X117700001Y-69875000D01*
X118463500Y-69875000D01*
X118478412Y-69879845D01*
X118494093Y-69879845D01*
X118506778Y-69889061D01*
X118521691Y-69893907D01*
X118530907Y-69906592D01*
X118543593Y-69915809D01*
X118548438Y-69930721D01*
X118557655Y-69943407D01*
X118562500Y-69974000D01*
X118562500Y-70026000D01*
X118543593Y-70084191D01*
X118494093Y-70120155D01*
X118463500Y-70125000D01*
X117700002Y-70125000D01*
X117700001Y-70125001D01*
X117700001Y-70183216D01*
X117709912Y-70251250D01*
X117761214Y-70356188D01*
X117774313Y-70369287D01*
X117802090Y-70423804D01*
X117792519Y-70484236D01*
X117774313Y-70509294D01*
X117721951Y-70561656D01*
X117721950Y-70561658D01*
X117664354Y-70674695D01*
X117649500Y-70768477D01*
X117649500Y-71131520D01*
X117649501Y-71131524D01*
X117664817Y-71228235D01*
X117655245Y-71288667D01*
X117637041Y-71313722D01*
X117619482Y-71331281D01*
X117619480Y-71331283D01*
X117619480Y-71331284D01*
X117540423Y-71468216D01*
X117501224Y-71614511D01*
X117499500Y-71620944D01*
X117499500Y-71693099D01*
X117480593Y-71751290D01*
X117470504Y-71763103D01*
X117163103Y-72070504D01*
X117155985Y-72074130D01*
X117151290Y-72080593D01*
X117129241Y-72087756D01*
X117108586Y-72098281D01*
X117093099Y-72099500D01*
X116974499Y-72099500D01*
X116916308Y-72080593D01*
X116880344Y-72031093D01*
X116875499Y-72000500D01*
X116875499Y-71638133D01*
X116875499Y-71638128D01*
X116869091Y-71578517D01*
X116845514Y-71515304D01*
X116818797Y-71443670D01*
X116732549Y-71328458D01*
X116732548Y-71328457D01*
X116732546Y-71328454D01*
X116712867Y-71313722D01*
X116617329Y-71242202D01*
X116482488Y-71191910D01*
X116482483Y-71191909D01*
X116482481Y-71191908D01*
X116482477Y-71191908D01*
X116451249Y-71188550D01*
X116422873Y-71185500D01*
X116422870Y-71185500D01*
X115802133Y-71185500D01*
X115802129Y-71185500D01*
X115802128Y-71185501D01*
X115794949Y-71186272D01*
X115742519Y-71191908D01*
X115742514Y-71191909D01*
X115607670Y-71242202D01*
X115492458Y-71328450D01*
X115492450Y-71328458D01*
X115406202Y-71443670D01*
X115355910Y-71578511D01*
X115355909Y-71578517D01*
X115349703Y-71636244D01*
X115349500Y-71638129D01*
X115349500Y-72633866D01*
X115349501Y-72633870D01*
X115355908Y-72693480D01*
X115355909Y-72693485D01*
X115380398Y-72759143D01*
X115380830Y-72769243D01*
X115385421Y-72778252D01*
X115382112Y-72799142D01*
X115383018Y-72820272D01*
X115377431Y-72828697D01*
X115375850Y-72838684D01*
X115360894Y-72853639D01*
X115349207Y-72871267D01*
X115339733Y-72874800D01*
X115332585Y-72881949D01*
X115311694Y-72885257D01*
X115291879Y-72892648D01*
X115282138Y-72889938D01*
X115272153Y-72891520D01*
X115253307Y-72881918D01*
X115232932Y-72876250D01*
X115217636Y-72863743D01*
X115077901Y-72724008D01*
X115050124Y-72669491D01*
X115049473Y-72643421D01*
X115050500Y-72633873D01*
X115050499Y-71638128D01*
X115044091Y-71578517D01*
X115020514Y-71515304D01*
X114993797Y-71443670D01*
X114907549Y-71328458D01*
X114907548Y-71328457D01*
X114907546Y-71328454D01*
X114887867Y-71313722D01*
X114792333Y-71242204D01*
X114727402Y-71217986D01*
X114679488Y-71179934D01*
X114663000Y-71125228D01*
X114663000Y-69875001D01*
X115200001Y-69875001D01*
X115200001Y-69933216D01*
X115209912Y-70001250D01*
X115261214Y-70106188D01*
X115343812Y-70188786D01*
X115448751Y-70240087D01*
X115516784Y-70249999D01*
X116012498Y-70249999D01*
X116012500Y-70249998D01*
X116012500Y-69875001D01*
X116262500Y-69875001D01*
X116262500Y-70249998D01*
X116262501Y-70249999D01*
X116758213Y-70249999D01*
X116758216Y-70249998D01*
X116826250Y-70240087D01*
X116931188Y-70188785D01*
X117013786Y-70106187D01*
X117065087Y-70001248D01*
X117075000Y-69933215D01*
X117075000Y-69875001D01*
X117074999Y-69875000D01*
X116262501Y-69875000D01*
X116262500Y-69875001D01*
X116012500Y-69875001D01*
X116012499Y-69875000D01*
X115200002Y-69875000D01*
X115200001Y-69875001D01*
X114663000Y-69875001D01*
X114663000Y-69566784D01*
X115200000Y-69566784D01*
X115200000Y-69624999D01*
X115200001Y-69625000D01*
X116012499Y-69625000D01*
X116012500Y-69624999D01*
X116012500Y-69250001D01*
X116262500Y-69250001D01*
X116262500Y-69624999D01*
X116262501Y-69625000D01*
X117074998Y-69625000D01*
X117074999Y-69624999D01*
X117074999Y-69566786D01*
X117074998Y-69566783D01*
X117065087Y-69498749D01*
X117013785Y-69393811D01*
X116931187Y-69311213D01*
X116826248Y-69259912D01*
X116758216Y-69250000D01*
X116262501Y-69250000D01*
X116262500Y-69250001D01*
X116012500Y-69250001D01*
X116012499Y-69250000D01*
X115516786Y-69250000D01*
X115516783Y-69250001D01*
X115448749Y-69259912D01*
X115343811Y-69311214D01*
X115261213Y-69393812D01*
X115209912Y-69498751D01*
X115200000Y-69566784D01*
X114663000Y-69566784D01*
X114663000Y-69449499D01*
X114681907Y-69391308D01*
X114731407Y-69355344D01*
X114762000Y-69350499D01*
X114881521Y-69350499D01*
X114881522Y-69350498D01*
X114928411Y-69343072D01*
X114975299Y-69335647D01*
X114975299Y-69335646D01*
X114975304Y-69335646D01*
X115088342Y-69278050D01*
X115178050Y-69188342D01*
X115235646Y-69075304D01*
X115250500Y-68981519D01*
X115250499Y-68618482D01*
X115241170Y-68559577D01*
X115235647Y-68524700D01*
X115235646Y-68524695D01*
X115211989Y-68478267D01*
X115202417Y-68417835D01*
X115230194Y-68363318D01*
X115284710Y-68335540D01*
X115345141Y-68345110D01*
G37*
%TD.AperFunction*%
%TA.AperFunction,Conductor*%
G36*
X121985869Y-63095407D02*
G01*
X121997682Y-63105496D01*
X122778424Y-63886237D01*
X123524498Y-64632311D01*
X123524500Y-64632314D01*
X123617686Y-64725500D01*
X123699534Y-64772755D01*
X123731814Y-64791392D01*
X123859107Y-64825500D01*
X123859108Y-64825500D01*
X124126806Y-64825500D01*
X124176304Y-64838762D01*
X124255658Y-64884577D01*
X124408385Y-64925500D01*
X124408387Y-64925500D01*
X124421161Y-64925500D01*
X124479352Y-64944407D01*
X124515316Y-64993907D01*
X124515316Y-65055093D01*
X124515315Y-65055093D01*
X124456846Y-65235036D01*
X124456845Y-65235040D01*
X124417843Y-65481295D01*
X124417843Y-65730630D01*
X124424425Y-65772188D01*
X124414854Y-65832620D01*
X124371589Y-65875885D01*
X124311157Y-65885456D01*
X124293951Y-65881121D01*
X124284602Y-65877850D01*
X124284603Y-65877850D01*
X124254210Y-65875000D01*
X124075000Y-65875000D01*
X124074999Y-65875001D01*
X124074999Y-66674999D01*
X124075000Y-66675000D01*
X124649997Y-66675000D01*
X124670377Y-66654620D01*
X124724893Y-66626842D01*
X124785325Y-66636413D01*
X124810381Y-66654616D01*
X124969936Y-66814171D01*
X125171646Y-66960721D01*
X125393798Y-67073913D01*
X125393800Y-67073913D01*
X125393801Y-67073914D01*
X125393804Y-67073916D01*
X125630916Y-67150959D01*
X125630920Y-67150960D01*
X125877176Y-67189963D01*
X125877179Y-67189963D01*
X126126510Y-67189963D01*
X126372765Y-67150960D01*
X126372769Y-67150959D01*
X126609881Y-67073916D01*
X126609883Y-67073914D01*
X126609888Y-67073913D01*
X126832040Y-66960721D01*
X127033750Y-66814171D01*
X127210051Y-66637870D01*
X127356601Y-66436160D01*
X127469793Y-66214008D01*
X127469794Y-66214003D01*
X127469796Y-66214001D01*
X127546839Y-65976889D01*
X127546840Y-65976885D01*
X127585843Y-65730630D01*
X127585843Y-65481295D01*
X127560557Y-65321647D01*
X127570128Y-65261215D01*
X127613393Y-65217950D01*
X127673825Y-65208379D01*
X127728342Y-65236156D01*
X128665504Y-66173318D01*
X128693281Y-66227835D01*
X128694500Y-66243322D01*
X128694500Y-66450000D01*
X128713949Y-66547776D01*
X128713950Y-66547777D01*
X128717682Y-66556788D01*
X128715683Y-66557615D01*
X128728756Y-66603971D01*
X128716203Y-66642603D01*
X128717766Y-66643251D01*
X128714033Y-66652263D01*
X128699501Y-66725315D01*
X128699500Y-66725327D01*
X128699500Y-67774672D01*
X128699501Y-67774684D01*
X128709053Y-67822700D01*
X128714034Y-67847740D01*
X128714035Y-67847742D01*
X128717767Y-67856752D01*
X128715723Y-67857598D01*
X128728756Y-67903800D01*
X128726355Y-67921925D01*
X128722294Y-67939733D01*
X128713949Y-67952224D01*
X128694500Y-68050000D01*
X128694500Y-68061642D01*
X128692023Y-68072507D01*
X128681771Y-68089674D01*
X128675593Y-68108691D01*
X128666448Y-68115334D01*
X128660654Y-68125039D01*
X128642270Y-68132901D01*
X128626093Y-68144655D01*
X128608141Y-68147497D01*
X128604398Y-68149099D01*
X128601788Y-68148504D01*
X128595500Y-68149500D01*
X127176019Y-68149500D01*
X127070565Y-68149500D01*
X127008221Y-68166204D01*
X126968699Y-68176794D01*
X126877383Y-68229516D01*
X126877378Y-68229520D01*
X125819002Y-69287894D01*
X125764486Y-69315671D01*
X125704054Y-69306100D01*
X125660789Y-69262835D01*
X125649999Y-69217889D01*
X125649999Y-69125000D01*
X124250002Y-69125000D01*
X124250001Y-69125001D01*
X124250001Y-69529203D01*
X124252850Y-69559600D01*
X124252850Y-69559602D01*
X124282313Y-69643803D01*
X124283685Y-69704973D01*
X124248841Y-69755267D01*
X124191089Y-69775475D01*
X124188868Y-69775500D01*
X123864687Y-69775500D01*
X123806496Y-69756593D01*
X123770532Y-69707093D01*
X123770532Y-69645907D01*
X123771929Y-69641904D01*
X123794089Y-69582488D01*
X123794088Y-69582488D01*
X123794091Y-69582483D01*
X123800500Y-69522873D01*
X123800499Y-68477128D01*
X123799817Y-68470788D01*
X124250000Y-68470788D01*
X124250000Y-68874999D01*
X124250001Y-68875000D01*
X124824999Y-68875000D01*
X124825000Y-68874999D01*
X124825000Y-68075001D01*
X125075000Y-68075001D01*
X125075000Y-68874999D01*
X125075001Y-68875000D01*
X125649998Y-68875000D01*
X125649999Y-68874999D01*
X125649999Y-68470796D01*
X125647149Y-68440399D01*
X125647149Y-68440397D01*
X125602345Y-68312352D01*
X125521792Y-68203209D01*
X125521790Y-68203207D01*
X125412647Y-68122654D01*
X125284601Y-68077850D01*
X125254211Y-68075000D01*
X125075001Y-68075000D01*
X125075000Y-68075001D01*
X124825000Y-68075001D01*
X124824999Y-68075000D01*
X124645796Y-68075000D01*
X124615399Y-68077850D01*
X124615397Y-68077850D01*
X124487352Y-68122654D01*
X124378209Y-68203207D01*
X124378207Y-68203209D01*
X124297654Y-68312352D01*
X124252850Y-68440398D01*
X124250000Y-68470788D01*
X123799817Y-68470788D01*
X123794091Y-68417517D01*
X123794090Y-68417514D01*
X123743797Y-68282670D01*
X123657549Y-68167458D01*
X123657548Y-68167457D01*
X123657546Y-68167454D01*
X123633027Y-68149099D01*
X123542329Y-68081202D01*
X123407488Y-68030910D01*
X123407483Y-68030909D01*
X123407481Y-68030908D01*
X123407477Y-68030908D01*
X123376249Y-68027550D01*
X123347873Y-68024500D01*
X123347870Y-68024500D01*
X122752133Y-68024500D01*
X122752129Y-68024500D01*
X122752128Y-68024501D01*
X122744949Y-68025272D01*
X122692519Y-68030908D01*
X122692514Y-68030909D01*
X122557670Y-68081202D01*
X122442458Y-68167450D01*
X122442450Y-68167458D01*
X122356202Y-68282670D01*
X122305909Y-68417515D01*
X122304548Y-68423275D01*
X122272761Y-68475555D01*
X122216315Y-68499167D01*
X122208203Y-68499500D01*
X120610821Y-68499500D01*
X120552630Y-68480593D01*
X120540817Y-68470504D01*
X119971414Y-67901100D01*
X119945791Y-67856719D01*
X119943384Y-67847736D01*
X119922077Y-67768216D01*
X119861809Y-67663828D01*
X119849089Y-67603982D01*
X119873976Y-67548087D01*
X119926964Y-67517494D01*
X119982143Y-67521573D01*
X120042517Y-67544091D01*
X120102127Y-67550500D01*
X120722872Y-67550499D01*
X120782483Y-67544091D01*
X120902038Y-67499500D01*
X120917329Y-67493797D01*
X120917329Y-67493796D01*
X120917331Y-67493796D01*
X121032546Y-67407546D01*
X121118796Y-67292331D01*
X121118795Y-67292331D01*
X121123040Y-67286662D01*
X121125783Y-67288716D01*
X121159717Y-67256473D01*
X121220373Y-67248447D01*
X121274163Y-67277607D01*
X121300541Y-67332814D01*
X121300829Y-67335219D01*
X121305909Y-67382481D01*
X121305910Y-67382485D01*
X121356203Y-67517329D01*
X121421072Y-67603982D01*
X121442455Y-67632546D01*
X121442458Y-67632548D01*
X121442459Y-67632549D01*
X121557671Y-67718797D01*
X121692512Y-67769089D01*
X121692513Y-67769089D01*
X121692518Y-67769091D01*
X121752128Y-67775500D01*
X122347873Y-67775499D01*
X122407484Y-67769091D01*
X122474908Y-67743943D01*
X122542330Y-67718797D01*
X122542330Y-67718796D01*
X122542332Y-67718796D01*
X122657547Y-67632546D01*
X122743797Y-67517331D01*
X122750980Y-67498074D01*
X122794090Y-67382488D01*
X122794091Y-67382485D01*
X122794092Y-67382483D01*
X122800501Y-67322873D01*
X122800500Y-66925001D01*
X123250000Y-66925001D01*
X123250000Y-67329203D01*
X123252849Y-67359600D01*
X123252849Y-67359602D01*
X123297653Y-67487647D01*
X123378206Y-67596790D01*
X123378208Y-67596792D01*
X123487351Y-67677345D01*
X123615397Y-67722149D01*
X123645788Y-67724999D01*
X123824999Y-67724999D01*
X123824999Y-66925001D01*
X124074999Y-66925001D01*
X124074999Y-67724998D01*
X124075000Y-67724999D01*
X124254202Y-67724999D01*
X124284599Y-67722149D01*
X124284601Y-67722149D01*
X124412646Y-67677345D01*
X124521789Y-67596792D01*
X124521791Y-67596790D01*
X124602344Y-67487647D01*
X124647148Y-67359601D01*
X124649998Y-67329211D01*
X124649999Y-67329210D01*
X124649999Y-66925001D01*
X124649998Y-66925000D01*
X124075000Y-66925000D01*
X124074999Y-66925001D01*
X123824999Y-66925001D01*
X123824998Y-66925000D01*
X123250001Y-66925000D01*
X123250000Y-66925001D01*
X122800500Y-66925001D01*
X122800500Y-66797288D01*
X122800500Y-66277133D01*
X122800499Y-66277123D01*
X122799977Y-66272271D01*
X122799818Y-66270788D01*
X123249999Y-66270788D01*
X123249999Y-66674999D01*
X123250000Y-66675000D01*
X123824998Y-66675000D01*
X123824999Y-66674999D01*
X123824999Y-65875001D01*
X123824998Y-65875000D01*
X123645795Y-65875000D01*
X123615398Y-65877850D01*
X123615396Y-65877850D01*
X123487351Y-65922654D01*
X123378208Y-66003207D01*
X123378206Y-66003209D01*
X123297653Y-66112352D01*
X123252849Y-66240398D01*
X123249999Y-66270788D01*
X122799818Y-66270788D01*
X122794092Y-66217517D01*
X122777607Y-66173318D01*
X122743798Y-66082670D01*
X122657550Y-65967458D01*
X122657549Y-65967457D01*
X122657547Y-65967454D01*
X122648175Y-65960438D01*
X122542330Y-65881202D01*
X122407489Y-65830910D01*
X122407484Y-65830909D01*
X122407482Y-65830908D01*
X122407478Y-65830908D01*
X122376250Y-65827550D01*
X122347874Y-65824500D01*
X122347871Y-65824500D01*
X121752134Y-65824500D01*
X121752130Y-65824500D01*
X121752129Y-65824501D01*
X121744950Y-65825272D01*
X121692520Y-65830908D01*
X121692515Y-65830909D01*
X121557671Y-65881202D01*
X121442459Y-65967450D01*
X121442451Y-65967458D01*
X121356201Y-66082673D01*
X121354998Y-66084877D01*
X121353476Y-66086313D01*
X121351961Y-66088338D01*
X121351610Y-66088075D01*
X121310511Y-66126884D01*
X121249830Y-66134719D01*
X121196132Y-66105390D01*
X121169928Y-66050100D01*
X121169690Y-66048096D01*
X121169091Y-66042517D01*
X121124385Y-65922654D01*
X121118797Y-65907670D01*
X121032549Y-65792458D01*
X121032548Y-65792457D01*
X121032546Y-65792454D01*
X120999938Y-65768044D01*
X120917330Y-65706203D01*
X120877403Y-65691311D01*
X120829488Y-65653260D01*
X120813000Y-65598553D01*
X120813000Y-65034219D01*
X120831907Y-64976028D01*
X120881407Y-64940064D01*
X120942593Y-64940064D01*
X120961494Y-64948479D01*
X120980716Y-64959577D01*
X121133443Y-65000500D01*
X121133445Y-65000500D01*
X121291555Y-65000500D01*
X121291557Y-65000500D01*
X121444284Y-64959577D01*
X121581216Y-64880520D01*
X121693020Y-64768716D01*
X121772077Y-64631784D01*
X121813000Y-64479057D01*
X121813000Y-64320943D01*
X121772077Y-64168216D01*
X121754640Y-64138013D01*
X121726263Y-64088862D01*
X121713000Y-64039363D01*
X121713000Y-63175500D01*
X121717845Y-63160588D01*
X121717845Y-63144907D01*
X121727061Y-63132221D01*
X121731907Y-63117309D01*
X121744592Y-63108092D01*
X121753809Y-63095407D01*
X121768721Y-63090561D01*
X121781407Y-63081345D01*
X121812000Y-63076500D01*
X121927678Y-63076500D01*
X121985869Y-63095407D01*
G37*
%TD.AperFunction*%
%TD*%
M02*
