%TF.GenerationSoftware,KiCad,Pcbnew,9.0.3*%
%TF.CreationDate,2025-07-19T03:53:29-07:00*%
%TF.ProjectId,flex-cv-in,666c6578-2d63-4762-9d69-6e2e6b696361,rev?*%
%TF.SameCoordinates,Original*%
%TF.FileFunction,Copper,L2,Bot*%
%TF.FilePolarity,Positive*%
%FSLAX46Y46*%
G04 Gerber Fmt 4.6, Leading zero omitted, Abs format (unit mm)*
G04 Created by KiCad (PCBNEW 9.0.3) date 2025-07-19 03:53:29*
%MOMM*%
%LPD*%
G01*
G04 APERTURE LIST*
%TA.AperFunction,ComponentPad*%
%ADD10R,1.700000X1.700000*%
%TD*%
%TA.AperFunction,ComponentPad*%
%ADD11C,1.700000*%
%TD*%
%TA.AperFunction,ComponentPad*%
%ADD12C,1.930400*%
%TD*%
%TA.AperFunction,ComponentPad*%
%ADD13C,1.803400*%
%TD*%
%TA.AperFunction,ComponentPad*%
%ADD14C,2.667000*%
%TD*%
%TA.AperFunction,ViaPad*%
%ADD15C,0.600000*%
%TD*%
%TA.AperFunction,ViaPad*%
%ADD16C,0.700000*%
%TD*%
%TA.AperFunction,Conductor*%
%ADD17C,0.500000*%
%TD*%
%TA.AperFunction,Conductor*%
%ADD18C,0.300000*%
%TD*%
G04 APERTURE END LIST*
D10*
%TO.P,J2,1,Pin_1*%
%TO.N,+3.3V*%
X121920000Y-62000000D03*
D11*
%TO.P,J2,2,Pin_2*%
%TO.N,/CV_OUT*%
X119380000Y-62000000D03*
%TO.P,J2,3,Pin_3*%
%TO.N,GND*%
X116840000Y-62000000D03*
%TO.P,J2,4,Pin_4*%
%TO.N,/JACK_DETECT*%
X114300000Y-62000000D03*
%TD*%
D12*
%TO.P,J1,1,SIG*%
%TO.N,/CV_IN*%
X111000000Y-74207000D03*
%TO.P,J1,2,SHEILD*%
%TO.N,GND*%
X111000000Y-63234200D03*
%TO.P,J1,3,SW*%
%TO.N,/JACK_DETECT*%
X111000000Y-65647200D03*
%TD*%
D13*
%TO.P,RV2,1,1*%
%TO.N,Net-(JP4-C)*%
X133012243Y-67460163D03*
%TO.P,RV2,2,2*%
%TO.N,/BIAS_IN*%
X133012243Y-70000163D03*
%TO.P,RV2,3,3*%
%TO.N,Net-(JP5-C)*%
X133012243Y-72540163D03*
D14*
%TO.P,RV2,4*%
%TO.N,N/C*%
X126001843Y-65605963D03*
%TO.P,RV2,5*%
X126001843Y-74394363D03*
%TD*%
D15*
%TO.N,GND*%
X133100000Y-65700000D03*
X132200000Y-61900000D03*
D16*
%TO.N,+3.3V*%
X119362500Y-68000000D03*
X127600000Y-64400000D03*
X117762500Y-68000000D03*
X124487442Y-64325000D03*
X121212500Y-64400000D03*
X119612500Y-64400000D03*
D15*
%TO.N,GND*%
X106600000Y-65800000D03*
X132200000Y-74600000D03*
X127800000Y-72400000D03*
X124000000Y-76000000D03*
X123000000Y-73200000D03*
D16*
X117000000Y-70800000D03*
D15*
X109400000Y-75600000D03*
X106400000Y-71000000D03*
X114400000Y-65800000D03*
X108800000Y-61800000D03*
X112600000Y-71200000D03*
X127800000Y-67400000D03*
X122800000Y-65000000D03*
D16*
%TO.N,/VREF_1.65V*%
X118100000Y-71700000D03*
X131400000Y-66760163D03*
X120600000Y-70000000D03*
X131400000Y-68160163D03*
%TD*%
D17*
%TO.N,+3.3V*%
X126921463Y-63721463D02*
X125090979Y-63721463D01*
X119612500Y-64400000D02*
X121212500Y-64400000D01*
X127600000Y-64400000D02*
X126921463Y-63721463D01*
X125090979Y-63721463D02*
X124487442Y-64325000D01*
X119362500Y-68000000D02*
X117762500Y-68000000D01*
D18*
%TO.N,/VREF_1.65V*%
X131400000Y-68160163D02*
X131400000Y-66760163D01*
X119800000Y-70000000D02*
X120600000Y-70000000D01*
X118100000Y-71700000D02*
X119800000Y-70000000D01*
%TD*%
%TA.AperFunction,Conductor*%
%TO.N,GND*%
G36*
X129002443Y-60300596D02*
G01*
X129442304Y-60317878D01*
X129451999Y-60318640D01*
X129886780Y-60370099D01*
X129896376Y-60371620D01*
X130325764Y-60457031D01*
X130335195Y-60459295D01*
X130756553Y-60578130D01*
X130765787Y-60581130D01*
X131176534Y-60732663D01*
X131185528Y-60736389D01*
X131583092Y-60919667D01*
X131591768Y-60924088D01*
X131973734Y-61138000D01*
X131982036Y-61143087D01*
X132205168Y-61292179D01*
X132306360Y-61359794D01*
X132346031Y-61386301D01*
X132353905Y-61392022D01*
X132697711Y-61663056D01*
X132705102Y-61669369D01*
X133026583Y-61966543D01*
X133033456Y-61973416D01*
X133058030Y-62000000D01*
X133330625Y-62294891D01*
X133336945Y-62302291D01*
X133466215Y-62466269D01*
X133607975Y-62646091D01*
X133613698Y-62653968D01*
X133856912Y-63017963D01*
X133861999Y-63026265D01*
X134075911Y-63408231D01*
X134080332Y-63416907D01*
X134263610Y-63814471D01*
X134267336Y-63823465D01*
X134418865Y-64234199D01*
X134421873Y-64243460D01*
X134540699Y-64664787D01*
X134542972Y-64674254D01*
X134628377Y-65103613D01*
X134629901Y-65113230D01*
X134681358Y-65547995D01*
X134682121Y-65557700D01*
X134699404Y-65997555D01*
X134699500Y-66002424D01*
X134699500Y-70997575D01*
X134699404Y-71002444D01*
X134682121Y-71442299D01*
X134681358Y-71452004D01*
X134629901Y-71886769D01*
X134628377Y-71896386D01*
X134587818Y-72100289D01*
X134555433Y-72162200D01*
X134494717Y-72196774D01*
X134424948Y-72193035D01*
X134368276Y-72152168D01*
X134348270Y-72114416D01*
X134311714Y-72001907D01*
X134311713Y-72001904D01*
X134211511Y-71805249D01*
X134209718Y-71802781D01*
X134081781Y-71626691D01*
X133925715Y-71470625D01*
X133900085Y-71452004D01*
X133787879Y-71370481D01*
X133745213Y-71315151D01*
X133739234Y-71245538D01*
X133771840Y-71183743D01*
X133787879Y-71169845D01*
X133804406Y-71157837D01*
X133925715Y-71069701D01*
X134081781Y-70913635D01*
X134211512Y-70735076D01*
X134311713Y-70538421D01*
X134379916Y-70328512D01*
X134414443Y-70110519D01*
X134414443Y-69889807D01*
X134379916Y-69671814D01*
X134345814Y-69566859D01*
X134311714Y-69461907D01*
X134311713Y-69461904D01*
X134249280Y-69339373D01*
X134211512Y-69265250D01*
X134081781Y-69086691D01*
X133925715Y-68930625D01*
X133917777Y-68924858D01*
X133787879Y-68830481D01*
X133745213Y-68775151D01*
X133739234Y-68705538D01*
X133771840Y-68643743D01*
X133787879Y-68629845D01*
X133796188Y-68623808D01*
X133925715Y-68529701D01*
X134081781Y-68373635D01*
X134211512Y-68195076D01*
X134311713Y-67998421D01*
X134379916Y-67788512D01*
X134414443Y-67570519D01*
X134414443Y-67349807D01*
X134379916Y-67131814D01*
X134334687Y-66992611D01*
X134311714Y-66921907D01*
X134311713Y-66921904D01*
X134211511Y-66725249D01*
X134176017Y-66676396D01*
X134081781Y-66546691D01*
X133925715Y-66390625D01*
X133747156Y-66260894D01*
X133717205Y-66245633D01*
X133550501Y-66160692D01*
X133550498Y-66160691D01*
X133340593Y-66092490D01*
X133231595Y-66075226D01*
X133122599Y-66057963D01*
X132901887Y-66057963D01*
X132829222Y-66069472D01*
X132683892Y-66092490D01*
X132473987Y-66160691D01*
X132473984Y-66160692D01*
X132277331Y-66260893D01*
X132255075Y-66277063D01*
X132189269Y-66300541D01*
X132121215Y-66284714D01*
X132079090Y-66245633D01*
X132060629Y-66218005D01*
X132060623Y-66217997D01*
X131942162Y-66099536D01*
X131802860Y-66006458D01*
X131648082Y-65942347D01*
X131648074Y-65942345D01*
X131483771Y-65909663D01*
X131483767Y-65909663D01*
X131316233Y-65909663D01*
X131316228Y-65909663D01*
X131151925Y-65942345D01*
X131151917Y-65942347D01*
X130997139Y-66006458D01*
X130857837Y-66099536D01*
X130739373Y-66218000D01*
X130646295Y-66357302D01*
X130582184Y-66512080D01*
X130582182Y-66512088D01*
X130549500Y-66676391D01*
X130549500Y-66843934D01*
X130582182Y-67008237D01*
X130582184Y-67008245D01*
X130646295Y-67163023D01*
X130646296Y-67163025D01*
X130646297Y-67163026D01*
X130707323Y-67254358D01*
X130728602Y-67286203D01*
X130734252Y-67304249D01*
X130744477Y-67320159D01*
X130748928Y-67351118D01*
X130749480Y-67352880D01*
X130749500Y-67355094D01*
X130749500Y-67565231D01*
X130729815Y-67632270D01*
X130728602Y-67634122D01*
X130646295Y-67757302D01*
X130582184Y-67912080D01*
X130582182Y-67912088D01*
X130549500Y-68076391D01*
X130549500Y-68243934D01*
X130582182Y-68408237D01*
X130582184Y-68408245D01*
X130646295Y-68563023D01*
X130739373Y-68702325D01*
X130857837Y-68820789D01*
X130902303Y-68850500D01*
X130997137Y-68913866D01*
X131151918Y-68977979D01*
X131306626Y-69008752D01*
X131316228Y-69010662D01*
X131316232Y-69010663D01*
X131316233Y-69010663D01*
X131483768Y-69010663D01*
X131483769Y-69010662D01*
X131648082Y-68977979D01*
X131776327Y-68924857D01*
X131845793Y-68917389D01*
X131908272Y-68948663D01*
X131943925Y-69008752D01*
X131941432Y-69078577D01*
X131924095Y-69112304D01*
X131812976Y-69265246D01*
X131712772Y-69461904D01*
X131712771Y-69461907D01*
X131644570Y-69671812D01*
X131610043Y-69889807D01*
X131610043Y-70110518D01*
X131644570Y-70328513D01*
X131712771Y-70538418D01*
X131712772Y-70538421D01*
X131775342Y-70661219D01*
X131812974Y-70735076D01*
X131942705Y-70913635D01*
X132098771Y-71069701D01*
X132220080Y-71157837D01*
X132236607Y-71169845D01*
X132279272Y-71225175D01*
X132285251Y-71294789D01*
X132252645Y-71356584D01*
X132236606Y-71370481D01*
X132098771Y-71470625D01*
X132098769Y-71470627D01*
X132098768Y-71470627D01*
X131942707Y-71626688D01*
X131942707Y-71626689D01*
X131942705Y-71626691D01*
X131886990Y-71703375D01*
X131812974Y-71805249D01*
X131712772Y-72001904D01*
X131712771Y-72001907D01*
X131644570Y-72211812D01*
X131610043Y-72429807D01*
X131610043Y-72650518D01*
X131644570Y-72868513D01*
X131712771Y-73078418D01*
X131712772Y-73078421D01*
X131801297Y-73252158D01*
X131812974Y-73275076D01*
X131942705Y-73453635D01*
X132098771Y-73609701D01*
X132277330Y-73739432D01*
X132373783Y-73788577D01*
X132473984Y-73839633D01*
X132473987Y-73839634D01*
X132578939Y-73873734D01*
X132683894Y-73907836D01*
X132901887Y-73942363D01*
X132901888Y-73942363D01*
X133122598Y-73942363D01*
X133122599Y-73942363D01*
X133340592Y-73907836D01*
X133550501Y-73839633D01*
X133550501Y-73839632D01*
X133550506Y-73839631D01*
X133627013Y-73800647D01*
X133727244Y-73749577D01*
X133760534Y-73743325D01*
X133793708Y-73736480D01*
X133794781Y-73736893D01*
X133795912Y-73736681D01*
X133827319Y-73749428D01*
X133858907Y-73761597D01*
X133859585Y-73762524D01*
X133860652Y-73762957D01*
X133880181Y-73790659D01*
X133900177Y-73817975D01*
X133900246Y-73819122D01*
X133900910Y-73820063D01*
X133902360Y-73853912D01*
X133904415Y-73887716D01*
X133903870Y-73889129D01*
X133903902Y-73889869D01*
X133891727Y-73920651D01*
X133861999Y-73973734D01*
X133856912Y-73982036D01*
X133613698Y-74346031D01*
X133607975Y-74353908D01*
X133336948Y-74697705D01*
X133330625Y-74705108D01*
X133033462Y-75026577D01*
X133026577Y-75033462D01*
X132705108Y-75330625D01*
X132697705Y-75336948D01*
X132353908Y-75607975D01*
X132346031Y-75613698D01*
X131982036Y-75856912D01*
X131973734Y-75861999D01*
X131591768Y-76075911D01*
X131583092Y-76080332D01*
X131185528Y-76263610D01*
X131176534Y-76267336D01*
X130765800Y-76418865D01*
X130756539Y-76421873D01*
X130335212Y-76540699D01*
X130325745Y-76542972D01*
X129896386Y-76628377D01*
X129886769Y-76629901D01*
X129452004Y-76681358D01*
X129442299Y-76682121D01*
X129018672Y-76698766D01*
X129002442Y-76699404D01*
X128997575Y-76699500D01*
X111002425Y-76699500D01*
X110997557Y-76699404D01*
X110980399Y-76698729D01*
X110557700Y-76682121D01*
X110547995Y-76681358D01*
X110113230Y-76629901D01*
X110103613Y-76628377D01*
X109674254Y-76542972D01*
X109664787Y-76540699D01*
X109243460Y-76421873D01*
X109234199Y-76418865D01*
X108823465Y-76267336D01*
X108814471Y-76263610D01*
X108416907Y-76080332D01*
X108408231Y-76075911D01*
X108026265Y-75861999D01*
X108017963Y-75856912D01*
X107653968Y-75613698D01*
X107646091Y-75607975D01*
X107401893Y-75415465D01*
X107302291Y-75336945D01*
X107294891Y-75330625D01*
X107288777Y-75324973D01*
X106973416Y-75033456D01*
X106966543Y-75026583D01*
X106669369Y-74705102D01*
X106663051Y-74697705D01*
X106518687Y-74514580D01*
X106392022Y-74353905D01*
X106386301Y-74346031D01*
X106259103Y-74155666D01*
X106216327Y-74091647D01*
X109534300Y-74091647D01*
X109534300Y-74322352D01*
X109570390Y-74550219D01*
X109612320Y-74679264D01*
X109641683Y-74769633D01*
X109746421Y-74975194D01*
X109882027Y-75161839D01*
X110045161Y-75324973D01*
X110231806Y-75460579D01*
X110437367Y-75565317D01*
X110614850Y-75622984D01*
X110656780Y-75636609D01*
X110770714Y-75654654D01*
X110884647Y-75672700D01*
X110884648Y-75672700D01*
X111115352Y-75672700D01*
X111115353Y-75672700D01*
X111343219Y-75636609D01*
X111562633Y-75565317D01*
X111768194Y-75460579D01*
X111954839Y-75324973D01*
X112117973Y-75161839D01*
X112253579Y-74975194D01*
X112358317Y-74769633D01*
X112429609Y-74550219D01*
X112465700Y-74322353D01*
X112465700Y-74274162D01*
X124167843Y-74274162D01*
X124167843Y-74514563D01*
X124167844Y-74514580D01*
X124199222Y-74752922D01*
X124261448Y-74985152D01*
X124353447Y-75207257D01*
X124353452Y-75207268D01*
X124473651Y-75415457D01*
X124473662Y-75415473D01*
X124620008Y-75606196D01*
X124620014Y-75606203D01*
X124790002Y-75776191D01*
X124790009Y-75776197D01*
X124898733Y-75859623D01*
X124980741Y-75922550D01*
X124980748Y-75922554D01*
X125188937Y-76042753D01*
X125188942Y-76042755D01*
X125188945Y-76042757D01*
X125411058Y-76134759D01*
X125643280Y-76196983D01*
X125881636Y-76228363D01*
X125881643Y-76228363D01*
X126122043Y-76228363D01*
X126122050Y-76228363D01*
X126360406Y-76196983D01*
X126592628Y-76134759D01*
X126814741Y-76042757D01*
X127022945Y-75922550D01*
X127213678Y-75776196D01*
X127383676Y-75606198D01*
X127530030Y-75415465D01*
X127650237Y-75207261D01*
X127742239Y-74985148D01*
X127804463Y-74752926D01*
X127835843Y-74514570D01*
X127835843Y-74274156D01*
X127804463Y-74035800D01*
X127742239Y-73803578D01*
X127650237Y-73581465D01*
X127650235Y-73581462D01*
X127650233Y-73581457D01*
X127530034Y-73373268D01*
X127530030Y-73373261D01*
X127383676Y-73182528D01*
X127383671Y-73182522D01*
X127213683Y-73012534D01*
X127213676Y-73012528D01*
X127022953Y-72866182D01*
X127022951Y-72866180D01*
X127022945Y-72866176D01*
X127022940Y-72866173D01*
X127022937Y-72866171D01*
X126814748Y-72745972D01*
X126814737Y-72745967D01*
X126592632Y-72653968D01*
X126360402Y-72591742D01*
X126122060Y-72560364D01*
X126122055Y-72560363D01*
X126122050Y-72560363D01*
X125881636Y-72560363D01*
X125881630Y-72560363D01*
X125881625Y-72560364D01*
X125643283Y-72591742D01*
X125411053Y-72653968D01*
X125188948Y-72745967D01*
X125188937Y-72745972D01*
X124980748Y-72866171D01*
X124980732Y-72866182D01*
X124790009Y-73012528D01*
X124790002Y-73012534D01*
X124620014Y-73182522D01*
X124620008Y-73182529D01*
X124473662Y-73373252D01*
X124473651Y-73373268D01*
X124353452Y-73581457D01*
X124353447Y-73581468D01*
X124261448Y-73803573D01*
X124199222Y-74035803D01*
X124167844Y-74274145D01*
X124167843Y-74274162D01*
X112465700Y-74274162D01*
X112465700Y-74091647D01*
X112442055Y-73942363D01*
X112429609Y-73863780D01*
X112396849Y-73762957D01*
X112358317Y-73644367D01*
X112253579Y-73438806D01*
X112117973Y-73252161D01*
X111954839Y-73089027D01*
X111768194Y-72953421D01*
X111562633Y-72848683D01*
X111472264Y-72819320D01*
X111343219Y-72777390D01*
X111144819Y-72745967D01*
X111115353Y-72741300D01*
X110884647Y-72741300D01*
X110857239Y-72745641D01*
X110656780Y-72777390D01*
X110485805Y-72832944D01*
X110437367Y-72848683D01*
X110437364Y-72848684D01*
X110437362Y-72848685D01*
X110231805Y-72953421D01*
X110150444Y-73012534D01*
X110045161Y-73089027D01*
X110045159Y-73089029D01*
X110045158Y-73089029D01*
X109882029Y-73252158D01*
X109882029Y-73252159D01*
X109882027Y-73252161D01*
X109823789Y-73332317D01*
X109746421Y-73438805D01*
X109641685Y-73644362D01*
X109570390Y-73863780D01*
X109534300Y-74091647D01*
X106216327Y-74091647D01*
X106143087Y-73982036D01*
X106138000Y-73973734D01*
X105924088Y-73591768D01*
X105919667Y-73583092D01*
X105736389Y-73185528D01*
X105732663Y-73176534D01*
X105717930Y-73136598D01*
X105581130Y-72765787D01*
X105578130Y-72756553D01*
X105459295Y-72335195D01*
X105457031Y-72325764D01*
X105371620Y-71896376D01*
X105370099Y-71886770D01*
X105350607Y-71722091D01*
X105338077Y-71616228D01*
X117249500Y-71616228D01*
X117249500Y-71783771D01*
X117282182Y-71948074D01*
X117282184Y-71948082D01*
X117346295Y-72102860D01*
X117439373Y-72242162D01*
X117557837Y-72360626D01*
X117650494Y-72422537D01*
X117697137Y-72453703D01*
X117851918Y-72517816D01*
X118016228Y-72550499D01*
X118016232Y-72550500D01*
X118016233Y-72550500D01*
X118183768Y-72550500D01*
X118183769Y-72550499D01*
X118348082Y-72517816D01*
X118502863Y-72453703D01*
X118642162Y-72360626D01*
X118760626Y-72242162D01*
X118853703Y-72102863D01*
X118917816Y-71948082D01*
X118946718Y-71802781D01*
X118979102Y-71740870D01*
X118980598Y-71739347D01*
X119986769Y-70733175D01*
X120048090Y-70699692D01*
X120117782Y-70704676D01*
X120143338Y-70717755D01*
X120197137Y-70753703D01*
X120351918Y-70817816D01*
X120511206Y-70849500D01*
X120516228Y-70850499D01*
X120516232Y-70850500D01*
X120516233Y-70850500D01*
X120683768Y-70850500D01*
X120683769Y-70850499D01*
X120848082Y-70817816D01*
X121002863Y-70753703D01*
X121142162Y-70660626D01*
X121260626Y-70542162D01*
X121353703Y-70402863D01*
X121417816Y-70248082D01*
X121450500Y-70083767D01*
X121450500Y-69916233D01*
X121417816Y-69751918D01*
X121353703Y-69597137D01*
X121263345Y-69461907D01*
X121260626Y-69457837D01*
X121142162Y-69339373D01*
X121002860Y-69246295D01*
X120848082Y-69182184D01*
X120848074Y-69182182D01*
X120683771Y-69149500D01*
X120683767Y-69149500D01*
X120516233Y-69149500D01*
X120516228Y-69149500D01*
X120351925Y-69182182D01*
X120351917Y-69182184D01*
X120197139Y-69246295D01*
X120073959Y-69328602D01*
X120007281Y-69349480D01*
X120005068Y-69349500D01*
X119735929Y-69349500D01*
X119610261Y-69374497D01*
X119610255Y-69374499D01*
X119491874Y-69423534D01*
X119385326Y-69494726D01*
X119385325Y-69494727D01*
X118060708Y-70819345D01*
X117999385Y-70852830D01*
X117997219Y-70853281D01*
X117851923Y-70882182D01*
X117851917Y-70882184D01*
X117697139Y-70946295D01*
X117557837Y-71039373D01*
X117439373Y-71157837D01*
X117346295Y-71297139D01*
X117282184Y-71451917D01*
X117282182Y-71451925D01*
X117249500Y-71616228D01*
X105338077Y-71616228D01*
X105318640Y-71451999D01*
X105317878Y-71442298D01*
X105315056Y-71370481D01*
X105300596Y-71002443D01*
X105300500Y-70997575D01*
X105300500Y-68877092D01*
X109124700Y-68877092D01*
X109124700Y-69122907D01*
X109124701Y-69122923D01*
X109156785Y-69366627D01*
X109156786Y-69366632D01*
X109156787Y-69366638D01*
X109220411Y-69604089D01*
X109281647Y-69751925D01*
X109314489Y-69831211D01*
X109314490Y-69831212D01*
X109437398Y-70044095D01*
X109587047Y-70239122D01*
X109587053Y-70239129D01*
X109760870Y-70412946D01*
X109760877Y-70412952D01*
X109955904Y-70562601D01*
X110168787Y-70685509D01*
X110168788Y-70685510D01*
X110168791Y-70685511D01*
X110168796Y-70685514D01*
X110395911Y-70779589D01*
X110633362Y-70843213D01*
X110877086Y-70875300D01*
X110877093Y-70875300D01*
X111122907Y-70875300D01*
X111122914Y-70875300D01*
X111366638Y-70843213D01*
X111604089Y-70779589D01*
X111831204Y-70685514D01*
X112044096Y-70562601D01*
X112239124Y-70412951D01*
X112412951Y-70239124D01*
X112562601Y-70044096D01*
X112685514Y-69831204D01*
X112779589Y-69604089D01*
X112843213Y-69366638D01*
X112875300Y-69122914D01*
X112875300Y-68877086D01*
X112843213Y-68633362D01*
X112779589Y-68395911D01*
X112685514Y-68168796D01*
X112685511Y-68168791D01*
X112685510Y-68168788D01*
X112685509Y-68168787D01*
X112571977Y-67972143D01*
X112571976Y-67972142D01*
X112571913Y-67972033D01*
X112562601Y-67955904D01*
X112532157Y-67916228D01*
X116912000Y-67916228D01*
X116912000Y-68083771D01*
X116944682Y-68248074D01*
X116944684Y-68248082D01*
X117008795Y-68402860D01*
X117101873Y-68542162D01*
X117220337Y-68660626D01*
X117283038Y-68702521D01*
X117359637Y-68753703D01*
X117514418Y-68817816D01*
X117678728Y-68850499D01*
X117678732Y-68850500D01*
X117678733Y-68850500D01*
X117846268Y-68850500D01*
X117846269Y-68850499D01*
X118010582Y-68817816D01*
X118150308Y-68759938D01*
X118197761Y-68750500D01*
X118927239Y-68750500D01*
X118974691Y-68759938D01*
X119114418Y-68817816D01*
X119278728Y-68850499D01*
X119278732Y-68850500D01*
X119278733Y-68850500D01*
X119446268Y-68850500D01*
X119446269Y-68850499D01*
X119610582Y-68817816D01*
X119765363Y-68753703D01*
X119904662Y-68660626D01*
X120023126Y-68542162D01*
X120116203Y-68402863D01*
X120180316Y-68248082D01*
X120213000Y-68083767D01*
X120213000Y-67916233D01*
X120180316Y-67751918D01*
X120116203Y-67597137D01*
X120085037Y-67550494D01*
X120023126Y-67457837D01*
X119904662Y-67339373D01*
X119765360Y-67246295D01*
X119610582Y-67182184D01*
X119610574Y-67182182D01*
X119446271Y-67149500D01*
X119446267Y-67149500D01*
X119278733Y-67149500D01*
X119278728Y-67149500D01*
X119114425Y-67182182D01*
X119114417Y-67182184D01*
X118974692Y-67240061D01*
X118927239Y-67249500D01*
X118197761Y-67249500D01*
X118150308Y-67240061D01*
X118010582Y-67182184D01*
X118010574Y-67182182D01*
X117846271Y-67149500D01*
X117846267Y-67149500D01*
X117678733Y-67149500D01*
X117678728Y-67149500D01*
X117514425Y-67182182D01*
X117514417Y-67182184D01*
X117359639Y-67246295D01*
X117220337Y-67339373D01*
X117101873Y-67457837D01*
X117008795Y-67597139D01*
X116944684Y-67751917D01*
X116944682Y-67751925D01*
X116912000Y-67916228D01*
X112532157Y-67916228D01*
X112434157Y-67788512D01*
X112412952Y-67760877D01*
X112412946Y-67760870D01*
X112239129Y-67587053D01*
X112239122Y-67587047D01*
X112044095Y-67437398D01*
X111831212Y-67314490D01*
X111831211Y-67314489D01*
X111762923Y-67286203D01*
X111604089Y-67220411D01*
X111604086Y-67220410D01*
X111600339Y-67218858D01*
X111600720Y-67217936D01*
X111547230Y-67180309D01*
X111520888Y-67115596D01*
X111533714Y-67046913D01*
X111581637Y-66996069D01*
X111587953Y-66992615D01*
X111768194Y-66900779D01*
X111954839Y-66765173D01*
X112117973Y-66602039D01*
X112253579Y-66415394D01*
X112358317Y-66209833D01*
X112429609Y-65990419D01*
X112465700Y-65762553D01*
X112465700Y-65531847D01*
X112429609Y-65303981D01*
X112358317Y-65084567D01*
X112253579Y-64879006D01*
X112117973Y-64692361D01*
X111954839Y-64529227D01*
X111899114Y-64488740D01*
X111885672Y-64471307D01*
X111884614Y-64472366D01*
X111084094Y-63671847D01*
X111171571Y-63648408D01*
X111272930Y-63589889D01*
X111355689Y-63507130D01*
X111414208Y-63405771D01*
X111437647Y-63318295D01*
X112197744Y-64078392D01*
X112197744Y-64078391D01*
X112253151Y-64002130D01*
X112253155Y-64002124D01*
X112357852Y-63796646D01*
X112429122Y-63577302D01*
X112465200Y-63349519D01*
X112465200Y-63118880D01*
X112429122Y-62891097D01*
X112357852Y-62671753D01*
X112253151Y-62466267D01*
X112197744Y-62390007D01*
X112197744Y-62390006D01*
X111437647Y-63150104D01*
X111414208Y-63062629D01*
X111355689Y-62961270D01*
X111272930Y-62878511D01*
X111171571Y-62819992D01*
X111084093Y-62796552D01*
X111844192Y-62036454D01*
X111844191Y-62036452D01*
X111779120Y-61989175D01*
X111779097Y-61989160D01*
X111767931Y-61981047D01*
X111596529Y-61893713D01*
X112949500Y-61893713D01*
X112949500Y-62106286D01*
X112980544Y-62302294D01*
X112982754Y-62316243D01*
X113006721Y-62390007D01*
X113048444Y-62518414D01*
X113144951Y-62707820D01*
X113269890Y-62879786D01*
X113420213Y-63030109D01*
X113592179Y-63155048D01*
X113592181Y-63155049D01*
X113592184Y-63155051D01*
X113781588Y-63251557D01*
X113983757Y-63317246D01*
X114193713Y-63350500D01*
X114193714Y-63350500D01*
X114406286Y-63350500D01*
X114406287Y-63350500D01*
X114616243Y-63317246D01*
X114818412Y-63251557D01*
X115007816Y-63155051D01*
X115030584Y-63138509D01*
X115179786Y-63030109D01*
X115179788Y-63030106D01*
X115179792Y-63030104D01*
X115330104Y-62879792D01*
X115330106Y-62879788D01*
X115330109Y-62879786D01*
X115415890Y-62761717D01*
X115455051Y-62707816D01*
X115459793Y-62698508D01*
X115507763Y-62647711D01*
X115575583Y-62630911D01*
X115641719Y-62653445D01*
X115680763Y-62698500D01*
X115685373Y-62707547D01*
X115724728Y-62761716D01*
X116357037Y-62129408D01*
X116374075Y-62192993D01*
X116439901Y-62307007D01*
X116532993Y-62400099D01*
X116647007Y-62465925D01*
X116710590Y-62482962D01*
X116078282Y-63115269D01*
X116078282Y-63115270D01*
X116132449Y-63154624D01*
X116321782Y-63251095D01*
X116523870Y-63316757D01*
X116733754Y-63350000D01*
X116946246Y-63350000D01*
X117156127Y-63316757D01*
X117156130Y-63316757D01*
X117358217Y-63251095D01*
X117547554Y-63154622D01*
X117601716Y-63115270D01*
X117601717Y-63115270D01*
X116969408Y-62482962D01*
X117032993Y-62465925D01*
X117147007Y-62400099D01*
X117240099Y-62307007D01*
X117305925Y-62192993D01*
X117322962Y-62129408D01*
X117955270Y-62761717D01*
X117955270Y-62761716D01*
X117994622Y-62707555D01*
X117999232Y-62698507D01*
X118047205Y-62647709D01*
X118115025Y-62630912D01*
X118181161Y-62653447D01*
X118220204Y-62698504D01*
X118224949Y-62707817D01*
X118349890Y-62879786D01*
X118500213Y-63030109D01*
X118672179Y-63155048D01*
X118672181Y-63155049D01*
X118672184Y-63155051D01*
X118861588Y-63251557D01*
X119063757Y-63317246D01*
X119273713Y-63350500D01*
X119273714Y-63350500D01*
X119300363Y-63350500D01*
X119367402Y-63370185D01*
X119413157Y-63422989D01*
X119423101Y-63492147D01*
X119394076Y-63555703D01*
X119347816Y-63589061D01*
X119209639Y-63646295D01*
X119070337Y-63739373D01*
X118951873Y-63857837D01*
X118858795Y-63997139D01*
X118794684Y-64151917D01*
X118794682Y-64151925D01*
X118762000Y-64316228D01*
X118762000Y-64483771D01*
X118794682Y-64648074D01*
X118794684Y-64648082D01*
X118858795Y-64802860D01*
X118951873Y-64942162D01*
X119070337Y-65060626D01*
X119149065Y-65113230D01*
X119209637Y-65153703D01*
X119209638Y-65153703D01*
X119209639Y-65153704D01*
X119224692Y-65159939D01*
X119364418Y-65217816D01*
X119513078Y-65247386D01*
X119528728Y-65250499D01*
X119528732Y-65250500D01*
X119528733Y-65250500D01*
X119696268Y-65250500D01*
X119696269Y-65250499D01*
X119860582Y-65217816D01*
X120000308Y-65159938D01*
X120047761Y-65150500D01*
X120777239Y-65150500D01*
X120824691Y-65159938D01*
X120964418Y-65217816D01*
X121113078Y-65247386D01*
X121128728Y-65250499D01*
X121128732Y-65250500D01*
X121128733Y-65250500D01*
X121296268Y-65250500D01*
X121296269Y-65250499D01*
X121460582Y-65217816D01*
X121615363Y-65153703D01*
X121754662Y-65060626D01*
X121873126Y-64942162D01*
X121966203Y-64802863D01*
X122030316Y-64648082D01*
X122063000Y-64483767D01*
X122063000Y-64316233D01*
X122048081Y-64241228D01*
X123636942Y-64241228D01*
X123636942Y-64408771D01*
X123669624Y-64573074D01*
X123669626Y-64573082D01*
X123733737Y-64727860D01*
X123826815Y-64867162D01*
X123945276Y-64985623D01*
X123945280Y-64985626D01*
X124084572Y-65078699D01*
X124084576Y-65078701D01*
X124084579Y-65078703D01*
X124098724Y-65084562D01*
X124127988Y-65096684D01*
X124182391Y-65140525D01*
X124204456Y-65206820D01*
X124200314Y-65243324D01*
X124199226Y-65247386D01*
X124199222Y-65247403D01*
X124167844Y-65485745D01*
X124167843Y-65485762D01*
X124167843Y-65726163D01*
X124167844Y-65726180D01*
X124198684Y-65960438D01*
X124199223Y-65964526D01*
X124230335Y-66080637D01*
X124261448Y-66196752D01*
X124353447Y-66418857D01*
X124353452Y-66418868D01*
X124473651Y-66627057D01*
X124473662Y-66627073D01*
X124620008Y-66817796D01*
X124620014Y-66817803D01*
X124790002Y-66987791D01*
X124790009Y-66987797D01*
X124816647Y-67008237D01*
X124980741Y-67134150D01*
X124980748Y-67134154D01*
X125188937Y-67254353D01*
X125188942Y-67254355D01*
X125188945Y-67254357D01*
X125411058Y-67346359D01*
X125643280Y-67408583D01*
X125881636Y-67439963D01*
X125881643Y-67439963D01*
X126122043Y-67439963D01*
X126122050Y-67439963D01*
X126360406Y-67408583D01*
X126592628Y-67346359D01*
X126814741Y-67254357D01*
X127022945Y-67134150D01*
X127213678Y-66987796D01*
X127383676Y-66817798D01*
X127530030Y-66627065D01*
X127650237Y-66418861D01*
X127742239Y-66196748D01*
X127804463Y-65964526D01*
X127835843Y-65726170D01*
X127835843Y-65485756D01*
X127815444Y-65330811D01*
X127826209Y-65261778D01*
X127872589Y-65209522D01*
X127890931Y-65200067D01*
X128002858Y-65153705D01*
X128002857Y-65153705D01*
X128002863Y-65153703D01*
X128142162Y-65060626D01*
X128260626Y-64942162D01*
X128353703Y-64802863D01*
X128417816Y-64648082D01*
X128450500Y-64483767D01*
X128450500Y-64316233D01*
X128417816Y-64151918D01*
X128353703Y-63997137D01*
X128303591Y-63922139D01*
X128260626Y-63857837D01*
X128142162Y-63739373D01*
X128002860Y-63646295D01*
X127863134Y-63588419D01*
X127822906Y-63561539D01*
X127399884Y-63138515D01*
X127399877Y-63138509D01*
X127326192Y-63089275D01*
X127326192Y-63089276D01*
X127276954Y-63056376D01*
X127140380Y-62999806D01*
X127140370Y-62999803D01*
X126995383Y-62970963D01*
X126995381Y-62970963D01*
X125164896Y-62970963D01*
X125017061Y-62970963D01*
X125017059Y-62970963D01*
X124872071Y-62999803D01*
X124872061Y-62999806D01*
X124735490Y-63056375D01*
X124735477Y-63056382D01*
X124612563Y-63138511D01*
X124612559Y-63138514D01*
X124264534Y-63486539D01*
X124224306Y-63513419D01*
X124084581Y-63571295D01*
X123945279Y-63664373D01*
X123826815Y-63782837D01*
X123733737Y-63922139D01*
X123669626Y-64076917D01*
X123669624Y-64076925D01*
X123636942Y-64241228D01*
X122048081Y-64241228D01*
X122030316Y-64151918D01*
X121966203Y-63997137D01*
X121916091Y-63922139D01*
X121873126Y-63857837D01*
X121754662Y-63739373D01*
X121615360Y-63646295D01*
X121477183Y-63589060D01*
X121422779Y-63545219D01*
X121400715Y-63478924D01*
X121417995Y-63411225D01*
X121469132Y-63363615D01*
X121524632Y-63350499D01*
X122817872Y-63350499D01*
X122877483Y-63344091D01*
X123012331Y-63293796D01*
X123127546Y-63207546D01*
X123213796Y-63092331D01*
X123264091Y-62957483D01*
X123270500Y-62897873D01*
X123270499Y-61102128D01*
X123264091Y-61042517D01*
X123262810Y-61039083D01*
X123213797Y-60907671D01*
X123213793Y-60907664D01*
X123127547Y-60792455D01*
X123127544Y-60792452D01*
X123012335Y-60706206D01*
X123012328Y-60706202D01*
X122877482Y-60655908D01*
X122877483Y-60655908D01*
X122817883Y-60649501D01*
X122817881Y-60649500D01*
X122817873Y-60649500D01*
X122817864Y-60649500D01*
X121022129Y-60649500D01*
X121022123Y-60649501D01*
X120962516Y-60655908D01*
X120827671Y-60706202D01*
X120827664Y-60706206D01*
X120712455Y-60792452D01*
X120712452Y-60792455D01*
X120626206Y-60907664D01*
X120626203Y-60907669D01*
X120577189Y-61039083D01*
X120535317Y-61095016D01*
X120469853Y-61119433D01*
X120401580Y-61104581D01*
X120373326Y-61083430D01*
X120259786Y-60969890D01*
X120087820Y-60844951D01*
X119898414Y-60748444D01*
X119898413Y-60748443D01*
X119898412Y-60748443D01*
X119696243Y-60682754D01*
X119696241Y-60682753D01*
X119696240Y-60682753D01*
X119534957Y-60657208D01*
X119486287Y-60649500D01*
X119273713Y-60649500D01*
X119225042Y-60657208D01*
X119063760Y-60682753D01*
X118861585Y-60748444D01*
X118672179Y-60844951D01*
X118500213Y-60969890D01*
X118349890Y-61120213D01*
X118224949Y-61292182D01*
X118220202Y-61301499D01*
X118172227Y-61352293D01*
X118104405Y-61369087D01*
X118038271Y-61346548D01*
X117999234Y-61301495D01*
X117994626Y-61292452D01*
X117955270Y-61238282D01*
X117955269Y-61238282D01*
X117322962Y-61870590D01*
X117305925Y-61807007D01*
X117240099Y-61692993D01*
X117147007Y-61599901D01*
X117032993Y-61534075D01*
X116969409Y-61517037D01*
X117601716Y-60884728D01*
X117547550Y-60845375D01*
X117358217Y-60748904D01*
X117156129Y-60683242D01*
X116946246Y-60650000D01*
X116733754Y-60650000D01*
X116523872Y-60683242D01*
X116523869Y-60683242D01*
X116321782Y-60748904D01*
X116132439Y-60845380D01*
X116078282Y-60884727D01*
X116078282Y-60884728D01*
X116710591Y-61517037D01*
X116647007Y-61534075D01*
X116532993Y-61599901D01*
X116439901Y-61692993D01*
X116374075Y-61807007D01*
X116357037Y-61870591D01*
X115724728Y-61238282D01*
X115724727Y-61238282D01*
X115685380Y-61292440D01*
X115685376Y-61292446D01*
X115680760Y-61301505D01*
X115632781Y-61352297D01*
X115564959Y-61369087D01*
X115498826Y-61346543D01*
X115459794Y-61301493D01*
X115455051Y-61292184D01*
X115455049Y-61292181D01*
X115455048Y-61292179D01*
X115330109Y-61120213D01*
X115179786Y-60969890D01*
X115007820Y-60844951D01*
X114818414Y-60748444D01*
X114818413Y-60748443D01*
X114818412Y-60748443D01*
X114616243Y-60682754D01*
X114616241Y-60682753D01*
X114616240Y-60682753D01*
X114454957Y-60657208D01*
X114406287Y-60649500D01*
X114193713Y-60649500D01*
X114145042Y-60657208D01*
X113983760Y-60682753D01*
X113781585Y-60748444D01*
X113592179Y-60844951D01*
X113420213Y-60969890D01*
X113269890Y-61120213D01*
X113144951Y-61292179D01*
X113048444Y-61481585D01*
X112982753Y-61683760D01*
X112949500Y-61893713D01*
X111596529Y-61893713D01*
X111562446Y-61876347D01*
X111343102Y-61805077D01*
X111115319Y-61769000D01*
X110884681Y-61769000D01*
X110656897Y-61805077D01*
X110437553Y-61876347D01*
X110232069Y-61981047D01*
X110155807Y-62036454D01*
X110915906Y-62796552D01*
X110828429Y-62819992D01*
X110727070Y-62878511D01*
X110644311Y-62961270D01*
X110585792Y-63062629D01*
X110562352Y-63150105D01*
X109802254Y-62390007D01*
X109746847Y-62466269D01*
X109642147Y-62671753D01*
X109570877Y-62891097D01*
X109534800Y-63118880D01*
X109534800Y-63349519D01*
X109570877Y-63577302D01*
X109642147Y-63796646D01*
X109746850Y-64002135D01*
X109802253Y-64078391D01*
X109802254Y-64078392D01*
X110562352Y-63318294D01*
X110585792Y-63405771D01*
X110644311Y-63507130D01*
X110727070Y-63589889D01*
X110828429Y-63648408D01*
X110915905Y-63671847D01*
X110115385Y-64472366D01*
X110115273Y-64472254D01*
X110100885Y-64488740D01*
X110045161Y-64529226D01*
X109882029Y-64692358D01*
X109882029Y-64692359D01*
X109882027Y-64692361D01*
X109823789Y-64772517D01*
X109746421Y-64879005D01*
X109641685Y-65084562D01*
X109570390Y-65303980D01*
X109534300Y-65531847D01*
X109534300Y-65762552D01*
X109570390Y-65990419D01*
X109612320Y-66119464D01*
X109641683Y-66209833D01*
X109746421Y-66415394D01*
X109882027Y-66602039D01*
X110045161Y-66765173D01*
X110231806Y-66900779D01*
X110412038Y-66992611D01*
X110462834Y-67040585D01*
X110479629Y-67108406D01*
X110457092Y-67174541D01*
X110402377Y-67217993D01*
X110396155Y-67220309D01*
X110168788Y-67314489D01*
X110168787Y-67314490D01*
X109955904Y-67437398D01*
X109760877Y-67587047D01*
X109760870Y-67587053D01*
X109587053Y-67760870D01*
X109587047Y-67760877D01*
X109437398Y-67955904D01*
X109314490Y-68168787D01*
X109314489Y-68168788D01*
X109220414Y-68395904D01*
X109220409Y-68395917D01*
X109184562Y-68529703D01*
X109157730Y-68629845D01*
X109156788Y-68633359D01*
X109156785Y-68633372D01*
X109124701Y-68877076D01*
X109124700Y-68877092D01*
X105300500Y-68877092D01*
X105300500Y-66002424D01*
X105300596Y-65997556D01*
X105309829Y-65762553D01*
X105317878Y-65557693D01*
X105318641Y-65547995D01*
X105370100Y-65113215D01*
X105371619Y-65103627D01*
X105457032Y-64674230D01*
X105459294Y-64664810D01*
X105578132Y-64243438D01*
X105581127Y-64234219D01*
X105732666Y-63823456D01*
X105736389Y-63814471D01*
X105812441Y-63649500D01*
X105919673Y-63416894D01*
X105924088Y-63408231D01*
X106122790Y-63053425D01*
X106137999Y-63026266D01*
X106143087Y-63017963D01*
X106168233Y-62980330D01*
X106386311Y-62653953D01*
X106392012Y-62646106D01*
X106663066Y-62302275D01*
X106669357Y-62294909D01*
X106966556Y-61973402D01*
X106973402Y-61966556D01*
X107294909Y-61669357D01*
X107302275Y-61663066D01*
X107646106Y-61392012D01*
X107653953Y-61386311D01*
X108017965Y-61143085D01*
X108026265Y-61138000D01*
X108408231Y-60924088D01*
X108416894Y-60919673D01*
X108814471Y-60736389D01*
X108823456Y-60732666D01*
X109234219Y-60581127D01*
X109243438Y-60578132D01*
X109664810Y-60459294D01*
X109674230Y-60457032D01*
X110103627Y-60371619D01*
X110113215Y-60370100D01*
X110548002Y-60318640D01*
X110557693Y-60317878D01*
X110997557Y-60300596D01*
X111002425Y-60300500D01*
X111047595Y-60300500D01*
X128952405Y-60300500D01*
X128997575Y-60300500D01*
X129002443Y-60300596D01*
G37*
%TD.AperFunction*%
%TD*%
M02*
