M48
; DRILL file {KiCad 9.0.3} date 2025-07-19T03:53:29-0700
; FORMAT={-:-/ absolute / inch / decimal}
; #@! TF.CreationDate,2025-07-19T03:53:29-07:00
; #@! TF.GenerationSoftware,Kicad,Pcbnew,9.0.3
; #@! TF.FileFunction,Plated,1,2,PTH
FMAT,2
INCH
; #@! TA.AperFunction,Plated,PTH,ViaDrill
T1C0.0118
; #@! TA.AperFunction,Plated,PTH,ComponentDrill
T2C0.0350
; #@! TA.AperFunction,Plated,PTH,ComponentDrill
T3C0.0394
; #@! TA.AperFunction,Plated,PTH,ComponentDrill
T4C0.0450
; #@! TA.AperFunction,Plated,PTH,ComponentDrill
T5C0.0810
%
G90
G05
T1
X4.189Y-2.7953
X4.1969Y-2.5906
X4.2835Y-2.4331
X4.3071Y-2.9764
X4.4331Y-2.8031
X4.5039Y-2.5906
X4.6063Y-2.7874
X4.6363Y-2.6772
X4.6496Y-2.8228
X4.6993Y-2.6772
X4.7092Y-2.5354
X4.748Y-2.7559
X4.7721Y-2.5354
X4.8346Y-2.5591
X4.8425Y-2.8819
X4.8819Y-2.9921
X4.9011Y-2.5325
X5.0236Y-2.5354
X5.0315Y-2.6535
X5.0315Y-2.8504
X5.1732Y-2.6284
X5.1732Y-2.6835
X5.2047Y-2.437
X5.2047Y-2.937
X5.2402Y-2.5866
T2
X4.3701Y-2.4895
X5.2367Y-2.6559
X5.2367Y-2.7559
X5.2367Y-2.8559
T3
X4.5Y-2.4409
X4.6Y-2.4409
X4.7Y-2.4409
X4.8Y-2.4409
T4
X4.3701Y-2.5845
X4.3701Y-2.9215
T5
X4.9607Y-2.5829
X4.9607Y-2.9289
M30
