M48
; DRILL file {KiCad 9.0.3-9.0.3-0~ubuntu22.04.1} date 2025-07-27T07:15:49-0700
; FORMAT={-:-/ absolute / inch / decimal}
; #@! TF.CreationDate,2025-07-27T07:15:49-07:00
; #@! TF.GenerationSoftware,Kicad,Pcbnew,9.0.3-9.0.3-0~ubuntu22.04.1
; #@! TF.FileFunction,Plated,1,2,PTH
FMAT,2
INCH
; #@! TA.AperFunction,Plated,PTH,ViaDrill
T1C0.0118
; #@! TA.AperFunction,Plated,PTH,ViaDrill
T2C0.0157
; #@! TA.AperFunction,Plated,PTH,ComponentDrill
T3C0.0197
; #@! TA.AperFunction,Plated,PTH,ComponentDrill
T4C0.0394
%
G90
G05
T1
X4.9849Y-3.42
X5.03Y-2.84
X5.03Y-3.63
X5.06Y-3.42
X5.1Y-3.27
X5.12Y-3.46
X5.21Y-3.21
X5.21Y-3.56
X5.32Y-3.02
X5.35Y-3.4
X5.425Y-3.44
X5.48Y-3.0
X5.49Y-3.15
X5.56Y-3.25
X5.57Y-2.87
X5.78Y-3.04
X5.81Y-3.65
X5.82Y-3.04
X5.91Y-2.86
X5.93Y-3.37
X5.96Y-3.55
X5.97Y-3.22
X6.06Y-3.65
X6.07Y-2.86
X6.14Y-2.92
X6.14Y-3.05
X6.15Y-2.96
X6.15Y-3.0
X6.16Y-3.09
X6.24Y-2.91
X6.24Y-3.04
X6.25Y-3.62
X6.32Y-3.26
X6.32Y-3.4
T2
X5.3985Y-3.3614
X5.48Y-3.57
X5.51Y-3.36
X6.26Y-3.2
X6.26Y-3.46
T4
X4.92Y-2.9
X4.92Y-3.0
X4.92Y-3.1
X4.92Y-3.2
X4.92Y-3.3
X4.92Y-3.4
X4.92Y-3.5
X4.92Y-3.6
X5.175Y-2.9
X5.275Y-2.9
X5.375Y-2.9
X5.475Y-2.9
X5.555Y-3.095
X5.575Y-3.6
X5.77Y-3.24
X6.055Y-3.51
T3
G00X6.1681Y-3.158
M15
G01X6.1957Y-3.158
M16
G05
G00X6.1681Y-3.4981
M15
G01X6.1957Y-3.4981
M16
G05
G00X6.3177Y-3.158
M15
G01X6.3453Y-3.158
M16
G05
G00X6.3177Y-3.4981
M15
G01X6.3453Y-3.4981
M16
G05
M30
