%TF.GenerationSoftware,KiCad,Pcbnew,9.0.3-9.0.3-0~ubuntu22.04.1*%
%TF.CreationDate,2025-07-27T07:15:49-07:00*%
%TF.ProjectId,mixer-main,6d697865-722d-46d6-9169-6e2e6b696361,rev?*%
%TF.SameCoordinates,Original*%
%TF.FileFunction,Soldermask,Top*%
%TF.FilePolarity,Negative*%
%FSLAX46Y46*%
G04 Gerber Fmt 4.6, Leading zero omitted, Abs format (unit mm)*
G04 Created by KiCad (PCBNEW 9.0.3-9.0.3-0~ubuntu22.04.1) date 2025-07-27 07:15:49*
%MOMM*%
%LPD*%
G01*
G04 APERTURE LIST*
G04 APERTURE END LIST*
G36*
X141696513Y-90406998D02*
G01*
X141706742Y-90406998D01*
X141746714Y-90414949D01*
X141847268Y-90430875D01*
X141879613Y-90441384D01*
X141906315Y-90446696D01*
X141943992Y-90462302D01*
X142002147Y-90481198D01*
X142056626Y-90508957D01*
X142094310Y-90524566D01*
X142116950Y-90539694D01*
X142147253Y-90555134D01*
X142229629Y-90614983D01*
X142263500Y-90637615D01*
X142270728Y-90644843D01*
X142278996Y-90650850D01*
X142394149Y-90766003D01*
X142400155Y-90774270D01*
X142407385Y-90781500D01*
X142430019Y-90815374D01*
X142489865Y-90897746D01*
X142505303Y-90928046D01*
X142520434Y-90950690D01*
X142536045Y-90988378D01*
X142563801Y-91042852D01*
X142582694Y-91100999D01*
X142598304Y-91138685D01*
X142603616Y-91165391D01*
X142614124Y-91197731D01*
X142630049Y-91298277D01*
X142638002Y-91338258D01*
X142638002Y-91348487D01*
X142639600Y-91358577D01*
X142639600Y-91521422D01*
X142638002Y-91531511D01*
X142638002Y-91541742D01*
X142630048Y-91581725D01*
X142614124Y-91682268D01*
X142603616Y-91714605D01*
X142598304Y-91741315D01*
X142582692Y-91779004D01*
X142563801Y-91837147D01*
X142536047Y-91891616D01*
X142520434Y-91929310D01*
X142505301Y-91951957D01*
X142489865Y-91982253D01*
X142430027Y-92064612D01*
X142407385Y-92098500D01*
X142400153Y-92105731D01*
X142394149Y-92113996D01*
X142278996Y-92229149D01*
X142270731Y-92235153D01*
X142263500Y-92242385D01*
X142229612Y-92265027D01*
X142147253Y-92324865D01*
X142116957Y-92340301D01*
X142094310Y-92355434D01*
X142056616Y-92371047D01*
X142002147Y-92398801D01*
X141944004Y-92417692D01*
X141906315Y-92433304D01*
X141879605Y-92438616D01*
X141847268Y-92449124D01*
X141746723Y-92465049D01*
X141706742Y-92473002D01*
X141696512Y-92473002D01*
X141686423Y-92474600D01*
X141523577Y-92474600D01*
X141513488Y-92473002D01*
X141503258Y-92473002D01*
X141463277Y-92465049D01*
X141362731Y-92449124D01*
X141330391Y-92438616D01*
X141303685Y-92433304D01*
X141265999Y-92417694D01*
X141207852Y-92398801D01*
X141153378Y-92371045D01*
X141115690Y-92355434D01*
X141093046Y-92340303D01*
X141062746Y-92324865D01*
X140980374Y-92265019D01*
X140946500Y-92242385D01*
X140939270Y-92235155D01*
X140931003Y-92229149D01*
X140815850Y-92113996D01*
X140809843Y-92105728D01*
X140802615Y-92098500D01*
X140779983Y-92064629D01*
X140720134Y-91982253D01*
X140704694Y-91951950D01*
X140689566Y-91929310D01*
X140673957Y-91891626D01*
X140646198Y-91837147D01*
X140627302Y-91778992D01*
X140611696Y-91741315D01*
X140606384Y-91714613D01*
X140595875Y-91682268D01*
X140579949Y-91581716D01*
X140571998Y-91541742D01*
X140571998Y-91531511D01*
X140570400Y-91521422D01*
X140570400Y-91358577D01*
X140571998Y-91348487D01*
X140571998Y-91338258D01*
X140579948Y-91298287D01*
X140595875Y-91197731D01*
X140606385Y-91165383D01*
X140611696Y-91138685D01*
X140627301Y-91101010D01*
X140646198Y-91042852D01*
X140673959Y-90988368D01*
X140689566Y-90950690D01*
X140704691Y-90928052D01*
X140720134Y-90897746D01*
X140779991Y-90815357D01*
X140802615Y-90781500D01*
X140809840Y-90774274D01*
X140815850Y-90766003D01*
X140931003Y-90650850D01*
X140939274Y-90644840D01*
X140946500Y-90637615D01*
X140980357Y-90614991D01*
X141062746Y-90555134D01*
X141093052Y-90539691D01*
X141115690Y-90524566D01*
X141153368Y-90508959D01*
X141207852Y-90481198D01*
X141266010Y-90462301D01*
X141303685Y-90446696D01*
X141330383Y-90441385D01*
X141362731Y-90430875D01*
X141463287Y-90414948D01*
X141503258Y-90406998D01*
X141513487Y-90406998D01*
X141523577Y-90405400D01*
X141686423Y-90405400D01*
X141696513Y-90406998D01*
G37*
G36*
X125225773Y-90590237D02*
G01*
X125386600Y-90656854D01*
X125531341Y-90753567D01*
X125654433Y-90876659D01*
X125751146Y-91021400D01*
X125817763Y-91182227D01*
X125851724Y-91352961D01*
X125851724Y-91527039D01*
X125817763Y-91697773D01*
X125751146Y-91858600D01*
X125654433Y-92003341D01*
X125531341Y-92126433D01*
X125386600Y-92223146D01*
X125225773Y-92289763D01*
X125055039Y-92323724D01*
X124880961Y-92323724D01*
X124710227Y-92289763D01*
X124549400Y-92223146D01*
X124404659Y-92126433D01*
X124281567Y-92003341D01*
X124184854Y-91858600D01*
X124118237Y-91697773D01*
X124084276Y-91527039D01*
X124084276Y-91352961D01*
X124118237Y-91182227D01*
X124184854Y-91021400D01*
X124281567Y-90876659D01*
X124404659Y-90753567D01*
X124549400Y-90656854D01*
X124710227Y-90590237D01*
X124880961Y-90556276D01*
X125055039Y-90556276D01*
X125225773Y-90590237D01*
G37*
G36*
X135270257Y-90469045D02*
G01*
X135317111Y-90474481D01*
X135333121Y-90481550D01*
X135356079Y-90486117D01*
X135380657Y-90502540D01*
X135398868Y-90510581D01*
X135411305Y-90523018D01*
X135433291Y-90537709D01*
X135447981Y-90559694D01*
X135460418Y-90572131D01*
X135468458Y-90590339D01*
X135484883Y-90614921D01*
X135489450Y-90637881D01*
X135496518Y-90653888D01*
X135501952Y-90700731D01*
X135503000Y-90706000D01*
X135503000Y-91256000D01*
X135501951Y-91261269D01*
X135496518Y-91308111D01*
X135489450Y-91324117D01*
X135484883Y-91347079D01*
X135468456Y-91371662D01*
X135460418Y-91389868D01*
X135447983Y-91402302D01*
X135433291Y-91424291D01*
X135411302Y-91438983D01*
X135398868Y-91451418D01*
X135380662Y-91459456D01*
X135356079Y-91475883D01*
X135333117Y-91480450D01*
X135317111Y-91487518D01*
X135270269Y-91492951D01*
X135265000Y-91494000D01*
X134865000Y-91494000D01*
X134859731Y-91492952D01*
X134812888Y-91487518D01*
X134796881Y-91480450D01*
X134773921Y-91475883D01*
X134749339Y-91459458D01*
X134731131Y-91451418D01*
X134718694Y-91438981D01*
X134696709Y-91424291D01*
X134682018Y-91402305D01*
X134669581Y-91389868D01*
X134661540Y-91371657D01*
X134645117Y-91347079D01*
X134640550Y-91324121D01*
X134633481Y-91308111D01*
X134628045Y-91261257D01*
X134627000Y-91256000D01*
X134627000Y-90706000D01*
X134628045Y-90700743D01*
X134633481Y-90653888D01*
X134640550Y-90637876D01*
X134645117Y-90614921D01*
X134661538Y-90590344D01*
X134669581Y-90572131D01*
X134682020Y-90559691D01*
X134696709Y-90537709D01*
X134718691Y-90523020D01*
X134731131Y-90510581D01*
X134749344Y-90502538D01*
X134773921Y-90486117D01*
X134796876Y-90481550D01*
X134812888Y-90474481D01*
X134859743Y-90469045D01*
X134865000Y-90468000D01*
X135265000Y-90468000D01*
X135270257Y-90469045D01*
G37*
G36*
X136920257Y-90469045D02*
G01*
X136967111Y-90474481D01*
X136983121Y-90481550D01*
X137006079Y-90486117D01*
X137030657Y-90502540D01*
X137048868Y-90510581D01*
X137061305Y-90523018D01*
X137083291Y-90537709D01*
X137097981Y-90559694D01*
X137110418Y-90572131D01*
X137118458Y-90590339D01*
X137134883Y-90614921D01*
X137139450Y-90637881D01*
X137146518Y-90653888D01*
X137151952Y-90700731D01*
X137153000Y-90706000D01*
X137153000Y-91256000D01*
X137151951Y-91261269D01*
X137146518Y-91308111D01*
X137139450Y-91324117D01*
X137134883Y-91347079D01*
X137118456Y-91371662D01*
X137110418Y-91389868D01*
X137097983Y-91402302D01*
X137083291Y-91424291D01*
X137061302Y-91438983D01*
X137048868Y-91451418D01*
X137030662Y-91459456D01*
X137006079Y-91475883D01*
X136983117Y-91480450D01*
X136967111Y-91487518D01*
X136920269Y-91492951D01*
X136915000Y-91494000D01*
X136515000Y-91494000D01*
X136509731Y-91492952D01*
X136462888Y-91487518D01*
X136446881Y-91480450D01*
X136423921Y-91475883D01*
X136399339Y-91459458D01*
X136381131Y-91451418D01*
X136368694Y-91438981D01*
X136346709Y-91424291D01*
X136332018Y-91402305D01*
X136319581Y-91389868D01*
X136311540Y-91371657D01*
X136295117Y-91347079D01*
X136290550Y-91324121D01*
X136283481Y-91308111D01*
X136278045Y-91261257D01*
X136277000Y-91256000D01*
X136277000Y-90706000D01*
X136278045Y-90700743D01*
X136283481Y-90653888D01*
X136290550Y-90637876D01*
X136295117Y-90614921D01*
X136311538Y-90590344D01*
X136319581Y-90572131D01*
X136332020Y-90559691D01*
X136346709Y-90537709D01*
X136368691Y-90523020D01*
X136381131Y-90510581D01*
X136399344Y-90502538D01*
X136423921Y-90486117D01*
X136446876Y-90481550D01*
X136462888Y-90474481D01*
X136509743Y-90469045D01*
X136515000Y-90468000D01*
X136915000Y-90468000D01*
X136920257Y-90469045D01*
G37*
G36*
X145951944Y-89980811D02*
G01*
X146012936Y-90021564D01*
X146053689Y-90082556D01*
X146068000Y-90154500D01*
X146068000Y-91179500D01*
X146053689Y-91251444D01*
X146012936Y-91312436D01*
X145951944Y-91353189D01*
X145880000Y-91367500D01*
X145580000Y-91367500D01*
X145508056Y-91353189D01*
X145447064Y-91312436D01*
X145406311Y-91251444D01*
X145392000Y-91179500D01*
X145392000Y-90154500D01*
X145406311Y-90082556D01*
X145447064Y-90021564D01*
X145508056Y-89980811D01*
X145580000Y-89966500D01*
X145880000Y-89966500D01*
X145951944Y-89980811D01*
G37*
G36*
X127788257Y-90113045D02*
G01*
X127835111Y-90118481D01*
X127851121Y-90125550D01*
X127874079Y-90130117D01*
X127898657Y-90146540D01*
X127916868Y-90154581D01*
X127929305Y-90167018D01*
X127951291Y-90181709D01*
X127965981Y-90203694D01*
X127978418Y-90216131D01*
X127986458Y-90234339D01*
X128002883Y-90258921D01*
X128007450Y-90281881D01*
X128014518Y-90297888D01*
X128019952Y-90344731D01*
X128021000Y-90350000D01*
X128021000Y-90750000D01*
X128019951Y-90755269D01*
X128014518Y-90802111D01*
X128007450Y-90818117D01*
X128002883Y-90841079D01*
X127986456Y-90865662D01*
X127978418Y-90883868D01*
X127965983Y-90896302D01*
X127951291Y-90918291D01*
X127929302Y-90932983D01*
X127916868Y-90945418D01*
X127898662Y-90953456D01*
X127874079Y-90969883D01*
X127851117Y-90974450D01*
X127835111Y-90981518D01*
X127788269Y-90986951D01*
X127783000Y-90988000D01*
X127233000Y-90988000D01*
X127227731Y-90986952D01*
X127180888Y-90981518D01*
X127164881Y-90974450D01*
X127141921Y-90969883D01*
X127117339Y-90953458D01*
X127099131Y-90945418D01*
X127086694Y-90932981D01*
X127064709Y-90918291D01*
X127050018Y-90896305D01*
X127037581Y-90883868D01*
X127029540Y-90865657D01*
X127013117Y-90841079D01*
X127008550Y-90818121D01*
X127001481Y-90802111D01*
X126996045Y-90755257D01*
X126995000Y-90750000D01*
X126995000Y-90350000D01*
X126996045Y-90344743D01*
X127001481Y-90297888D01*
X127008550Y-90281876D01*
X127013117Y-90258921D01*
X127029538Y-90234344D01*
X127037581Y-90216131D01*
X127050020Y-90203691D01*
X127064709Y-90181709D01*
X127086691Y-90167020D01*
X127099131Y-90154581D01*
X127117344Y-90146538D01*
X127141921Y-90130117D01*
X127164876Y-90125550D01*
X127180888Y-90118481D01*
X127227743Y-90113045D01*
X127233000Y-90112000D01*
X127783000Y-90112000D01*
X127788257Y-90113045D01*
G37*
G36*
X148804257Y-89536545D02*
G01*
X148851111Y-89541981D01*
X148867121Y-89549050D01*
X148890079Y-89553617D01*
X148914657Y-89570040D01*
X148932868Y-89578081D01*
X148945305Y-89590518D01*
X148967291Y-89605209D01*
X148981981Y-89627194D01*
X148994418Y-89639631D01*
X149002458Y-89657839D01*
X149018883Y-89682421D01*
X149023450Y-89705381D01*
X149030518Y-89721388D01*
X149035952Y-89768231D01*
X149037000Y-89773500D01*
X149037000Y-90173500D01*
X149035951Y-90178769D01*
X149030518Y-90225611D01*
X149023450Y-90241617D01*
X149018883Y-90264579D01*
X149002456Y-90289162D01*
X148994418Y-90307368D01*
X148981983Y-90319802D01*
X148967291Y-90341791D01*
X148945302Y-90356483D01*
X148932868Y-90368918D01*
X148914662Y-90376956D01*
X148890079Y-90393383D01*
X148867117Y-90397950D01*
X148851111Y-90405018D01*
X148804269Y-90410451D01*
X148799000Y-90411500D01*
X148249000Y-90411500D01*
X148243731Y-90410452D01*
X148196888Y-90405018D01*
X148180881Y-90397950D01*
X148157921Y-90393383D01*
X148133339Y-90376958D01*
X148115131Y-90368918D01*
X148102694Y-90356481D01*
X148080709Y-90341791D01*
X148066018Y-90319805D01*
X148053581Y-90307368D01*
X148045540Y-90289157D01*
X148029117Y-90264579D01*
X148024550Y-90241621D01*
X148017481Y-90225611D01*
X148012045Y-90178757D01*
X148011000Y-90173500D01*
X148011000Y-89773500D01*
X148012045Y-89768243D01*
X148017481Y-89721388D01*
X148024550Y-89705376D01*
X148029117Y-89682421D01*
X148045538Y-89657844D01*
X148053581Y-89639631D01*
X148066020Y-89627191D01*
X148080709Y-89605209D01*
X148102691Y-89590520D01*
X148115131Y-89578081D01*
X148133344Y-89570038D01*
X148157921Y-89553617D01*
X148180876Y-89549050D01*
X148196888Y-89541981D01*
X148243743Y-89536545D01*
X148249000Y-89535500D01*
X148799000Y-89535500D01*
X148804257Y-89536545D01*
G37*
G36*
X153888513Y-88120998D02*
G01*
X153898742Y-88120998D01*
X153938714Y-88128949D01*
X154039268Y-88144875D01*
X154071613Y-88155384D01*
X154098315Y-88160696D01*
X154135992Y-88176302D01*
X154194147Y-88195198D01*
X154248626Y-88222957D01*
X154286310Y-88238566D01*
X154308950Y-88253694D01*
X154339253Y-88269134D01*
X154421629Y-88328983D01*
X154455500Y-88351615D01*
X154462728Y-88358843D01*
X154470996Y-88364850D01*
X154586149Y-88480003D01*
X154592155Y-88488270D01*
X154599385Y-88495500D01*
X154622019Y-88529374D01*
X154681865Y-88611746D01*
X154697303Y-88642046D01*
X154712434Y-88664690D01*
X154728045Y-88702378D01*
X154755801Y-88756852D01*
X154774694Y-88814999D01*
X154790304Y-88852685D01*
X154795616Y-88879391D01*
X154806124Y-88911731D01*
X154822049Y-89012277D01*
X154830002Y-89052258D01*
X154830002Y-89062487D01*
X154831600Y-89072577D01*
X154831600Y-89235422D01*
X154830002Y-89245511D01*
X154830002Y-89255742D01*
X154822048Y-89295725D01*
X154806124Y-89396268D01*
X154795616Y-89428605D01*
X154790304Y-89455315D01*
X154774692Y-89493004D01*
X154755801Y-89551147D01*
X154728047Y-89605616D01*
X154712434Y-89643310D01*
X154697301Y-89665957D01*
X154681865Y-89696253D01*
X154622027Y-89778612D01*
X154599385Y-89812500D01*
X154592153Y-89819731D01*
X154586149Y-89827996D01*
X154470996Y-89943149D01*
X154462731Y-89949153D01*
X154455500Y-89956385D01*
X154421612Y-89979027D01*
X154339253Y-90038865D01*
X154308957Y-90054301D01*
X154286310Y-90069434D01*
X154248616Y-90085047D01*
X154194147Y-90112801D01*
X154136004Y-90131692D01*
X154098315Y-90147304D01*
X154071605Y-90152616D01*
X154039268Y-90163124D01*
X153938723Y-90179049D01*
X153898742Y-90187002D01*
X153888512Y-90187002D01*
X153878423Y-90188600D01*
X153715577Y-90188600D01*
X153705488Y-90187002D01*
X153695258Y-90187002D01*
X153655277Y-90179049D01*
X153554731Y-90163124D01*
X153522391Y-90152616D01*
X153495685Y-90147304D01*
X153457999Y-90131694D01*
X153399852Y-90112801D01*
X153345378Y-90085045D01*
X153307690Y-90069434D01*
X153285046Y-90054303D01*
X153254746Y-90038865D01*
X153172374Y-89979019D01*
X153138500Y-89956385D01*
X153131270Y-89949155D01*
X153123003Y-89943149D01*
X153007850Y-89827996D01*
X153001843Y-89819728D01*
X152994615Y-89812500D01*
X152971983Y-89778629D01*
X152912134Y-89696253D01*
X152896694Y-89665950D01*
X152881566Y-89643310D01*
X152865957Y-89605626D01*
X152838198Y-89551147D01*
X152819302Y-89492992D01*
X152803696Y-89455315D01*
X152798384Y-89428613D01*
X152787875Y-89396268D01*
X152771949Y-89295716D01*
X152763998Y-89255742D01*
X152763998Y-89245511D01*
X152762400Y-89235422D01*
X152762400Y-89072577D01*
X152763998Y-89062487D01*
X152763998Y-89052258D01*
X152771948Y-89012287D01*
X152787875Y-88911731D01*
X152798385Y-88879383D01*
X152803696Y-88852685D01*
X152819301Y-88815010D01*
X152838198Y-88756852D01*
X152865959Y-88702368D01*
X152881566Y-88664690D01*
X152896691Y-88642052D01*
X152912134Y-88611746D01*
X152971991Y-88529357D01*
X152994615Y-88495500D01*
X153001840Y-88488274D01*
X153007850Y-88480003D01*
X153123003Y-88364850D01*
X153131274Y-88358840D01*
X153138500Y-88351615D01*
X153172357Y-88328991D01*
X153254746Y-88269134D01*
X153285052Y-88253691D01*
X153307690Y-88238566D01*
X153345368Y-88222959D01*
X153399852Y-88195198D01*
X153458010Y-88176301D01*
X153495685Y-88160696D01*
X153522383Y-88155385D01*
X153554731Y-88144875D01*
X153655287Y-88128948D01*
X153695258Y-88120998D01*
X153705487Y-88120998D01*
X153715577Y-88119400D01*
X153878423Y-88119400D01*
X153888513Y-88120998D01*
G37*
G36*
X135476944Y-87836311D02*
G01*
X135537936Y-87877064D01*
X135578689Y-87938056D01*
X135593000Y-88010000D01*
X135593000Y-89660000D01*
X135578689Y-89731944D01*
X135537936Y-89792936D01*
X135476944Y-89833689D01*
X135405000Y-89848000D01*
X135105000Y-89848000D01*
X135033056Y-89833689D01*
X134972064Y-89792936D01*
X134931311Y-89731944D01*
X134917000Y-89660000D01*
X134917000Y-88010000D01*
X134931311Y-87938056D01*
X134972064Y-87877064D01*
X135033056Y-87836311D01*
X135105000Y-87822000D01*
X135405000Y-87822000D01*
X135476944Y-87836311D01*
G37*
G36*
X136746944Y-87836311D02*
G01*
X136807936Y-87877064D01*
X136848689Y-87938056D01*
X136863000Y-88010000D01*
X136863000Y-89660000D01*
X136848689Y-89731944D01*
X136807936Y-89792936D01*
X136746944Y-89833689D01*
X136675000Y-89848000D01*
X136375000Y-89848000D01*
X136303056Y-89833689D01*
X136242064Y-89792936D01*
X136201311Y-89731944D01*
X136187000Y-89660000D01*
X136187000Y-88010000D01*
X136201311Y-87938056D01*
X136242064Y-87877064D01*
X136303056Y-87836311D01*
X136375000Y-87822000D01*
X136675000Y-87822000D01*
X136746944Y-87836311D01*
G37*
G36*
X138016944Y-87836311D02*
G01*
X138077936Y-87877064D01*
X138118689Y-87938056D01*
X138133000Y-88010000D01*
X138133000Y-89660000D01*
X138118689Y-89731944D01*
X138077936Y-89792936D01*
X138016944Y-89833689D01*
X137945000Y-89848000D01*
X137645000Y-89848000D01*
X137573056Y-89833689D01*
X137512064Y-89792936D01*
X137471311Y-89731944D01*
X137457000Y-89660000D01*
X137457000Y-88010000D01*
X137471311Y-87938056D01*
X137512064Y-87877064D01*
X137573056Y-87836311D01*
X137645000Y-87822000D01*
X137945000Y-87822000D01*
X138016944Y-87836311D01*
G37*
G36*
X139286944Y-87836311D02*
G01*
X139347936Y-87877064D01*
X139388689Y-87938056D01*
X139403000Y-88010000D01*
X139403000Y-89660000D01*
X139388689Y-89731944D01*
X139347936Y-89792936D01*
X139286944Y-89833689D01*
X139215000Y-89848000D01*
X138915000Y-89848000D01*
X138843056Y-89833689D01*
X138782064Y-89792936D01*
X138741311Y-89731944D01*
X138727000Y-89660000D01*
X138727000Y-88010000D01*
X138741311Y-87938056D01*
X138782064Y-87877064D01*
X138843056Y-87836311D01*
X138915000Y-87822000D01*
X139215000Y-87822000D01*
X139286944Y-87836311D01*
G37*
G36*
X125225773Y-88050237D02*
G01*
X125386600Y-88116854D01*
X125531341Y-88213567D01*
X125654433Y-88336659D01*
X125751146Y-88481400D01*
X125817763Y-88642227D01*
X125851724Y-88812961D01*
X125851724Y-88987039D01*
X125817763Y-89157773D01*
X125751146Y-89318600D01*
X125654433Y-89463341D01*
X125531341Y-89586433D01*
X125386600Y-89683146D01*
X125225773Y-89749763D01*
X125055039Y-89783724D01*
X124880961Y-89783724D01*
X124710227Y-89749763D01*
X124549400Y-89683146D01*
X124404659Y-89586433D01*
X124281567Y-89463341D01*
X124184854Y-89318600D01*
X124118237Y-89157773D01*
X124084276Y-88987039D01*
X124084276Y-88812961D01*
X124118237Y-88642227D01*
X124184854Y-88481400D01*
X124281567Y-88336659D01*
X124404659Y-88213567D01*
X124549400Y-88116854D01*
X124710227Y-88050237D01*
X124880961Y-88016276D01*
X125055039Y-88016276D01*
X125225773Y-88050237D01*
G37*
G36*
X157440223Y-88319603D02*
G01*
X157575884Y-88355953D01*
X157697514Y-88426176D01*
X157796824Y-88525486D01*
X157867047Y-88647116D01*
X157903397Y-88782777D01*
X157903397Y-88923223D01*
X157867047Y-89058884D01*
X157796824Y-89180514D01*
X157697514Y-89279824D01*
X157575884Y-89350047D01*
X157440223Y-89386397D01*
X157370000Y-89391000D01*
X157367870Y-89391000D01*
X156672130Y-89391000D01*
X156670000Y-89391000D01*
X156599777Y-89386397D01*
X156464116Y-89350047D01*
X156342486Y-89279824D01*
X156243176Y-89180514D01*
X156172953Y-89058884D01*
X156136603Y-88923223D01*
X156136603Y-88782777D01*
X156172953Y-88647116D01*
X156243176Y-88525486D01*
X156342486Y-88426176D01*
X156464116Y-88355953D01*
X156599777Y-88319603D01*
X156670000Y-88315000D01*
X157370000Y-88315000D01*
X157440223Y-88319603D01*
G37*
G36*
X161240223Y-88319603D02*
G01*
X161375884Y-88355953D01*
X161497514Y-88426176D01*
X161596824Y-88525486D01*
X161667047Y-88647116D01*
X161703397Y-88782777D01*
X161703397Y-88923223D01*
X161667047Y-89058884D01*
X161596824Y-89180514D01*
X161497514Y-89279824D01*
X161375884Y-89350047D01*
X161240223Y-89386397D01*
X161170000Y-89391000D01*
X161167870Y-89391000D01*
X160472130Y-89391000D01*
X160470000Y-89391000D01*
X160399777Y-89386397D01*
X160264116Y-89350047D01*
X160142486Y-89279824D01*
X160043176Y-89180514D01*
X159972953Y-89058884D01*
X159936603Y-88923223D01*
X159936603Y-88782777D01*
X159972953Y-88647116D01*
X160043176Y-88525486D01*
X160142486Y-88426176D01*
X160264116Y-88355953D01*
X160399777Y-88319603D01*
X160470000Y-88315000D01*
X161170000Y-88315000D01*
X161240223Y-88319603D01*
G37*
G36*
X127788257Y-88463045D02*
G01*
X127835111Y-88468481D01*
X127851121Y-88475550D01*
X127874079Y-88480117D01*
X127898657Y-88496540D01*
X127916868Y-88504581D01*
X127929305Y-88517018D01*
X127951291Y-88531709D01*
X127965981Y-88553694D01*
X127978418Y-88566131D01*
X127986458Y-88584339D01*
X128002883Y-88608921D01*
X128007450Y-88631881D01*
X128014518Y-88647888D01*
X128019952Y-88694731D01*
X128021000Y-88700000D01*
X128021000Y-89100000D01*
X128019951Y-89105269D01*
X128014518Y-89152111D01*
X128007450Y-89168117D01*
X128002883Y-89191079D01*
X127986456Y-89215662D01*
X127978418Y-89233868D01*
X127965983Y-89246302D01*
X127951291Y-89268291D01*
X127929302Y-89282983D01*
X127916868Y-89295418D01*
X127898662Y-89303456D01*
X127874079Y-89319883D01*
X127851117Y-89324450D01*
X127835111Y-89331518D01*
X127788269Y-89336951D01*
X127783000Y-89338000D01*
X127233000Y-89338000D01*
X127227731Y-89336952D01*
X127180888Y-89331518D01*
X127164881Y-89324450D01*
X127141921Y-89319883D01*
X127117339Y-89303458D01*
X127099131Y-89295418D01*
X127086694Y-89282981D01*
X127064709Y-89268291D01*
X127050018Y-89246305D01*
X127037581Y-89233868D01*
X127029540Y-89215657D01*
X127013117Y-89191079D01*
X127008550Y-89168121D01*
X127001481Y-89152111D01*
X126996045Y-89105257D01*
X126995000Y-89100000D01*
X126995000Y-88700000D01*
X126996045Y-88694743D01*
X127001481Y-88647888D01*
X127008550Y-88631876D01*
X127013117Y-88608921D01*
X127029538Y-88584344D01*
X127037581Y-88566131D01*
X127050020Y-88553691D01*
X127064709Y-88531709D01*
X127086691Y-88517020D01*
X127099131Y-88504581D01*
X127117344Y-88496538D01*
X127141921Y-88480117D01*
X127164876Y-88475550D01*
X127180888Y-88468481D01*
X127227743Y-88463045D01*
X127233000Y-88462000D01*
X127783000Y-88462000D01*
X127788257Y-88463045D01*
G37*
G36*
X133630257Y-88272045D02*
G01*
X133677111Y-88277481D01*
X133693121Y-88284550D01*
X133716079Y-88289117D01*
X133740657Y-88305540D01*
X133758868Y-88313581D01*
X133771305Y-88326018D01*
X133793291Y-88340709D01*
X133807981Y-88362694D01*
X133820418Y-88375131D01*
X133828458Y-88393339D01*
X133844883Y-88417921D01*
X133849450Y-88440881D01*
X133856518Y-88456888D01*
X133861952Y-88503731D01*
X133863000Y-88509000D01*
X133863000Y-88909000D01*
X133861951Y-88914269D01*
X133856518Y-88961111D01*
X133849450Y-88977117D01*
X133844883Y-89000079D01*
X133828456Y-89024662D01*
X133820418Y-89042868D01*
X133807983Y-89055302D01*
X133793291Y-89077291D01*
X133771302Y-89091983D01*
X133758868Y-89104418D01*
X133740662Y-89112456D01*
X133716079Y-89128883D01*
X133693117Y-89133450D01*
X133677111Y-89140518D01*
X133630269Y-89145951D01*
X133625000Y-89147000D01*
X133075000Y-89147000D01*
X133069731Y-89145952D01*
X133022888Y-89140518D01*
X133006881Y-89133450D01*
X132983921Y-89128883D01*
X132959339Y-89112458D01*
X132941131Y-89104418D01*
X132928694Y-89091981D01*
X132906709Y-89077291D01*
X132892018Y-89055305D01*
X132879581Y-89042868D01*
X132871540Y-89024657D01*
X132855117Y-89000079D01*
X132850550Y-88977121D01*
X132843481Y-88961111D01*
X132838045Y-88914257D01*
X132837000Y-88909000D01*
X132837000Y-88509000D01*
X132838045Y-88503743D01*
X132843481Y-88456888D01*
X132850550Y-88440876D01*
X132855117Y-88417921D01*
X132871538Y-88393344D01*
X132879581Y-88375131D01*
X132892020Y-88362691D01*
X132906709Y-88340709D01*
X132928691Y-88326020D01*
X132941131Y-88313581D01*
X132959344Y-88305538D01*
X132983921Y-88289117D01*
X133006876Y-88284550D01*
X133022888Y-88277481D01*
X133069743Y-88272045D01*
X133075000Y-88271000D01*
X133625000Y-88271000D01*
X133630257Y-88272045D01*
G37*
G36*
X145001944Y-87705811D02*
G01*
X145062936Y-87746564D01*
X145103689Y-87807556D01*
X145118000Y-87879500D01*
X145118000Y-88904500D01*
X145103689Y-88976444D01*
X145062936Y-89037436D01*
X145001944Y-89078189D01*
X144930000Y-89092500D01*
X144630000Y-89092500D01*
X144558056Y-89078189D01*
X144497064Y-89037436D01*
X144456311Y-88976444D01*
X144442000Y-88904500D01*
X144442000Y-87879500D01*
X144456311Y-87807556D01*
X144497064Y-87746564D01*
X144558056Y-87705811D01*
X144630000Y-87691500D01*
X144930000Y-87691500D01*
X145001944Y-87705811D01*
G37*
G36*
X146901944Y-87705811D02*
G01*
X146962936Y-87746564D01*
X147003689Y-87807556D01*
X147018000Y-87879500D01*
X147018000Y-88904500D01*
X147003689Y-88976444D01*
X146962936Y-89037436D01*
X146901944Y-89078189D01*
X146830000Y-89092500D01*
X146530000Y-89092500D01*
X146458056Y-89078189D01*
X146397064Y-89037436D01*
X146356311Y-88976444D01*
X146342000Y-88904500D01*
X146342000Y-87879500D01*
X146356311Y-87807556D01*
X146397064Y-87746564D01*
X146458056Y-87705811D01*
X146530000Y-87691500D01*
X146830000Y-87691500D01*
X146901944Y-87705811D01*
G37*
G36*
X148804257Y-87886545D02*
G01*
X148851111Y-87891981D01*
X148867121Y-87899050D01*
X148890079Y-87903617D01*
X148914657Y-87920040D01*
X148932868Y-87928081D01*
X148945305Y-87940518D01*
X148967291Y-87955209D01*
X148981981Y-87977194D01*
X148994418Y-87989631D01*
X149002458Y-88007839D01*
X149018883Y-88032421D01*
X149023450Y-88055381D01*
X149030518Y-88071388D01*
X149035952Y-88118231D01*
X149037000Y-88123500D01*
X149037000Y-88523500D01*
X149035951Y-88528769D01*
X149030518Y-88575611D01*
X149023450Y-88591617D01*
X149018883Y-88614579D01*
X149002456Y-88639162D01*
X148994418Y-88657368D01*
X148981983Y-88669802D01*
X148967291Y-88691791D01*
X148945302Y-88706483D01*
X148932868Y-88718918D01*
X148914662Y-88726956D01*
X148890079Y-88743383D01*
X148867117Y-88747950D01*
X148851111Y-88755018D01*
X148804269Y-88760451D01*
X148799000Y-88761500D01*
X148249000Y-88761500D01*
X148243731Y-88760452D01*
X148196888Y-88755018D01*
X148180881Y-88747950D01*
X148157921Y-88743383D01*
X148133339Y-88726958D01*
X148115131Y-88718918D01*
X148102694Y-88706481D01*
X148080709Y-88691791D01*
X148066018Y-88669805D01*
X148053581Y-88657368D01*
X148045540Y-88639157D01*
X148029117Y-88614579D01*
X148024550Y-88591621D01*
X148017481Y-88575611D01*
X148012045Y-88528757D01*
X148011000Y-88523500D01*
X148011000Y-88123500D01*
X148012045Y-88118243D01*
X148017481Y-88071388D01*
X148024550Y-88055376D01*
X148029117Y-88032421D01*
X148045538Y-88007844D01*
X148053581Y-87989631D01*
X148066020Y-87977191D01*
X148080709Y-87955209D01*
X148102691Y-87940520D01*
X148115131Y-87928081D01*
X148133344Y-87920038D01*
X148157921Y-87903617D01*
X148180876Y-87899050D01*
X148196888Y-87891981D01*
X148243743Y-87886545D01*
X148249000Y-87885500D01*
X148799000Y-87885500D01*
X148804257Y-87886545D01*
G37*
G36*
X157423338Y-86796658D02*
G01*
X157481489Y-86804314D01*
X157496117Y-86811135D01*
X157515646Y-86815020D01*
X157541512Y-86832303D01*
X157565275Y-86843384D01*
X157579731Y-86857840D01*
X157600969Y-86872031D01*
X157615159Y-86893268D01*
X157629615Y-86907724D01*
X157640694Y-86931485D01*
X157657980Y-86957354D01*
X157661864Y-86976884D01*
X157668685Y-86991510D01*
X157676338Y-87049648D01*
X157678000Y-87058000D01*
X157678000Y-87508000D01*
X157676338Y-87516353D01*
X157668685Y-87574489D01*
X157661865Y-87589114D01*
X157657980Y-87608646D01*
X157640693Y-87634517D01*
X157629615Y-87658275D01*
X157615161Y-87672728D01*
X157600969Y-87693969D01*
X157579728Y-87708161D01*
X157565275Y-87722615D01*
X157541517Y-87733693D01*
X157515646Y-87750980D01*
X157496114Y-87754865D01*
X157481489Y-87761685D01*
X157423353Y-87769338D01*
X157415000Y-87771000D01*
X156265000Y-87771000D01*
X156256648Y-87769338D01*
X156198510Y-87761685D01*
X156183884Y-87754864D01*
X156164354Y-87750980D01*
X156138485Y-87733694D01*
X156114724Y-87722615D01*
X156100268Y-87708159D01*
X156079031Y-87693969D01*
X156064840Y-87672731D01*
X156050384Y-87658275D01*
X156039303Y-87634512D01*
X156022020Y-87608646D01*
X156018135Y-87589117D01*
X156011314Y-87574489D01*
X156003658Y-87516338D01*
X156002000Y-87508000D01*
X156002000Y-87058000D01*
X156003658Y-87049663D01*
X156011314Y-86991510D01*
X156018135Y-86976880D01*
X156022020Y-86957354D01*
X156039301Y-86931490D01*
X156050384Y-86907724D01*
X156064842Y-86893265D01*
X156079031Y-86872031D01*
X156100265Y-86857842D01*
X156114724Y-86843384D01*
X156138490Y-86832301D01*
X156164354Y-86815020D01*
X156183880Y-86811135D01*
X156198510Y-86804314D01*
X156256663Y-86796658D01*
X156265000Y-86795000D01*
X157415000Y-86795000D01*
X157423338Y-86796658D01*
G37*
G36*
X133630257Y-86622045D02*
G01*
X133677111Y-86627481D01*
X133693121Y-86634550D01*
X133716079Y-86639117D01*
X133740657Y-86655540D01*
X133758868Y-86663581D01*
X133771305Y-86676018D01*
X133793291Y-86690709D01*
X133807981Y-86712694D01*
X133820418Y-86725131D01*
X133828458Y-86743339D01*
X133844883Y-86767921D01*
X133849450Y-86790881D01*
X133856518Y-86806888D01*
X133861952Y-86853731D01*
X133863000Y-86859000D01*
X133863000Y-87259000D01*
X133861951Y-87264269D01*
X133856518Y-87311111D01*
X133849450Y-87327117D01*
X133844883Y-87350079D01*
X133828456Y-87374662D01*
X133820418Y-87392868D01*
X133807983Y-87405302D01*
X133793291Y-87427291D01*
X133771302Y-87441983D01*
X133758868Y-87454418D01*
X133740662Y-87462456D01*
X133716079Y-87478883D01*
X133693117Y-87483450D01*
X133677111Y-87490518D01*
X133630269Y-87495951D01*
X133625000Y-87497000D01*
X133075000Y-87497000D01*
X133069731Y-87495952D01*
X133022888Y-87490518D01*
X133006881Y-87483450D01*
X132983921Y-87478883D01*
X132959339Y-87462458D01*
X132941131Y-87454418D01*
X132928694Y-87441981D01*
X132906709Y-87427291D01*
X132892018Y-87405305D01*
X132879581Y-87392868D01*
X132871540Y-87374657D01*
X132855117Y-87350079D01*
X132850550Y-87327121D01*
X132843481Y-87311111D01*
X132838045Y-87264257D01*
X132837000Y-87259000D01*
X132837000Y-86859000D01*
X132838045Y-86853743D01*
X132843481Y-86806888D01*
X132850550Y-86790876D01*
X132855117Y-86767921D01*
X132871538Y-86743344D01*
X132879581Y-86725131D01*
X132892020Y-86712691D01*
X132906709Y-86690709D01*
X132928691Y-86676020D01*
X132941131Y-86663581D01*
X132959344Y-86655538D01*
X132983921Y-86639117D01*
X133006876Y-86634550D01*
X133022888Y-86627481D01*
X133069743Y-86622045D01*
X133075000Y-86621000D01*
X133625000Y-86621000D01*
X133630257Y-86622045D01*
G37*
G36*
X125225773Y-85510237D02*
G01*
X125386600Y-85576854D01*
X125531341Y-85673567D01*
X125654433Y-85796659D01*
X125751146Y-85941400D01*
X125817763Y-86102227D01*
X125851724Y-86272961D01*
X125851724Y-86447039D01*
X125817763Y-86617773D01*
X125751146Y-86778600D01*
X125654433Y-86923341D01*
X125531341Y-87046433D01*
X125386600Y-87143146D01*
X125225773Y-87209763D01*
X125055039Y-87243724D01*
X124880961Y-87243724D01*
X124710227Y-87209763D01*
X124549400Y-87143146D01*
X124404659Y-87046433D01*
X124281567Y-86923341D01*
X124184854Y-86778600D01*
X124118237Y-86617773D01*
X124084276Y-86447039D01*
X124084276Y-86272961D01*
X124118237Y-86102227D01*
X124184854Y-85941400D01*
X124281567Y-85796659D01*
X124404659Y-85673567D01*
X124549400Y-85576854D01*
X124710227Y-85510237D01*
X124880961Y-85476276D01*
X125055039Y-85476276D01*
X125225773Y-85510237D01*
G37*
G36*
X143597257Y-86234545D02*
G01*
X143644111Y-86239981D01*
X143660121Y-86247050D01*
X143683079Y-86251617D01*
X143707657Y-86268040D01*
X143725868Y-86276081D01*
X143738305Y-86288518D01*
X143760291Y-86303209D01*
X143774981Y-86325194D01*
X143787418Y-86337631D01*
X143795458Y-86355839D01*
X143811883Y-86380421D01*
X143816450Y-86403381D01*
X143823518Y-86419388D01*
X143828952Y-86466231D01*
X143830000Y-86471500D01*
X143830000Y-86871500D01*
X143828951Y-86876769D01*
X143823518Y-86923611D01*
X143816450Y-86939617D01*
X143811883Y-86962579D01*
X143795456Y-86987162D01*
X143787418Y-87005368D01*
X143774983Y-87017802D01*
X143760291Y-87039791D01*
X143738302Y-87054483D01*
X143725868Y-87066918D01*
X143707662Y-87074956D01*
X143683079Y-87091383D01*
X143660117Y-87095950D01*
X143644111Y-87103018D01*
X143597269Y-87108451D01*
X143592000Y-87109500D01*
X143042000Y-87109500D01*
X143036731Y-87108452D01*
X142989888Y-87103018D01*
X142973881Y-87095950D01*
X142950921Y-87091383D01*
X142926339Y-87074958D01*
X142908131Y-87066918D01*
X142895694Y-87054481D01*
X142873709Y-87039791D01*
X142859018Y-87017805D01*
X142846581Y-87005368D01*
X142838540Y-86987157D01*
X142822117Y-86962579D01*
X142817550Y-86939621D01*
X142810481Y-86923611D01*
X142805045Y-86876757D01*
X142804000Y-86871500D01*
X142804000Y-86471500D01*
X142805045Y-86466243D01*
X142810481Y-86419388D01*
X142817550Y-86403376D01*
X142822117Y-86380421D01*
X142838538Y-86355844D01*
X142846581Y-86337631D01*
X142859020Y-86325191D01*
X142873709Y-86303209D01*
X142895691Y-86288520D01*
X142908131Y-86276081D01*
X142926344Y-86268038D01*
X142950921Y-86251617D01*
X142973876Y-86247050D01*
X142989888Y-86239981D01*
X143036743Y-86234545D01*
X143042000Y-86233500D01*
X143592000Y-86233500D01*
X143597257Y-86234545D01*
G37*
G36*
X145226338Y-86135158D02*
G01*
X145284489Y-86142814D01*
X145299117Y-86149635D01*
X145318646Y-86153520D01*
X145344512Y-86170803D01*
X145368275Y-86181884D01*
X145382731Y-86196340D01*
X145403969Y-86210531D01*
X145418159Y-86231768D01*
X145432615Y-86246224D01*
X145443694Y-86269985D01*
X145460980Y-86295854D01*
X145464864Y-86315384D01*
X145471685Y-86330010D01*
X145479338Y-86388148D01*
X145481000Y-86396500D01*
X145481000Y-86846500D01*
X145479338Y-86854853D01*
X145471685Y-86912989D01*
X145464865Y-86927614D01*
X145460980Y-86947146D01*
X145443693Y-86973017D01*
X145432615Y-86996775D01*
X145418161Y-87011228D01*
X145403969Y-87032469D01*
X145382728Y-87046661D01*
X145368275Y-87061115D01*
X145344517Y-87072193D01*
X145318646Y-87089480D01*
X145299114Y-87093365D01*
X145284489Y-87100185D01*
X145226353Y-87107838D01*
X145218000Y-87109500D01*
X144718000Y-87109500D01*
X144709648Y-87107838D01*
X144651510Y-87100185D01*
X144636884Y-87093364D01*
X144617354Y-87089480D01*
X144591485Y-87072194D01*
X144567724Y-87061115D01*
X144553268Y-87046659D01*
X144532031Y-87032469D01*
X144517840Y-87011231D01*
X144503384Y-86996775D01*
X144492303Y-86973012D01*
X144475020Y-86947146D01*
X144471135Y-86927617D01*
X144464314Y-86912989D01*
X144456658Y-86854838D01*
X144455000Y-86846500D01*
X144455000Y-86396500D01*
X144456658Y-86388163D01*
X144464314Y-86330010D01*
X144471135Y-86315380D01*
X144475020Y-86295854D01*
X144492301Y-86269990D01*
X144503384Y-86246224D01*
X144517842Y-86231765D01*
X144532031Y-86210531D01*
X144553265Y-86196342D01*
X144567724Y-86181884D01*
X144591490Y-86170801D01*
X144617354Y-86153520D01*
X144636880Y-86149635D01*
X144651510Y-86142814D01*
X144709663Y-86135158D01*
X144718000Y-86133500D01*
X145218000Y-86133500D01*
X145226338Y-86135158D01*
G37*
G36*
X146899257Y-86234545D02*
G01*
X146946111Y-86239981D01*
X146962121Y-86247050D01*
X146985079Y-86251617D01*
X147009657Y-86268040D01*
X147027868Y-86276081D01*
X147040305Y-86288518D01*
X147062291Y-86303209D01*
X147076981Y-86325194D01*
X147089418Y-86337631D01*
X147097458Y-86355839D01*
X147113883Y-86380421D01*
X147118450Y-86403381D01*
X147125518Y-86419388D01*
X147130952Y-86466231D01*
X147132000Y-86471500D01*
X147132000Y-86871500D01*
X147130951Y-86876769D01*
X147125518Y-86923611D01*
X147118450Y-86939617D01*
X147113883Y-86962579D01*
X147097456Y-86987162D01*
X147089418Y-87005368D01*
X147076983Y-87017802D01*
X147062291Y-87039791D01*
X147040302Y-87054483D01*
X147027868Y-87066918D01*
X147009662Y-87074956D01*
X146985079Y-87091383D01*
X146962117Y-87095950D01*
X146946111Y-87103018D01*
X146899269Y-87108451D01*
X146894000Y-87109500D01*
X146344000Y-87109500D01*
X146338731Y-87108452D01*
X146291888Y-87103018D01*
X146275881Y-87095950D01*
X146252921Y-87091383D01*
X146228339Y-87074958D01*
X146210131Y-87066918D01*
X146197694Y-87054481D01*
X146175709Y-87039791D01*
X146161018Y-87017805D01*
X146148581Y-87005368D01*
X146140540Y-86987157D01*
X146124117Y-86962579D01*
X146119550Y-86939621D01*
X146112481Y-86923611D01*
X146107045Y-86876757D01*
X146106000Y-86871500D01*
X146106000Y-86471500D01*
X146107045Y-86466243D01*
X146112481Y-86419388D01*
X146119550Y-86403376D01*
X146124117Y-86380421D01*
X146140538Y-86355844D01*
X146148581Y-86337631D01*
X146161020Y-86325191D01*
X146175709Y-86303209D01*
X146197691Y-86288520D01*
X146210131Y-86276081D01*
X146228344Y-86268038D01*
X146252921Y-86251617D01*
X146275876Y-86247050D01*
X146291888Y-86239981D01*
X146338743Y-86234545D01*
X146344000Y-86233500D01*
X146894000Y-86233500D01*
X146899257Y-86234545D01*
G37*
G36*
X148528338Y-86135158D02*
G01*
X148586489Y-86142814D01*
X148601117Y-86149635D01*
X148620646Y-86153520D01*
X148646512Y-86170803D01*
X148670275Y-86181884D01*
X148684731Y-86196340D01*
X148705969Y-86210531D01*
X148720159Y-86231768D01*
X148734615Y-86246224D01*
X148745694Y-86269985D01*
X148762980Y-86295854D01*
X148766864Y-86315384D01*
X148773685Y-86330010D01*
X148781338Y-86388148D01*
X148783000Y-86396500D01*
X148783000Y-86846500D01*
X148781338Y-86854853D01*
X148773685Y-86912989D01*
X148766865Y-86927614D01*
X148762980Y-86947146D01*
X148745693Y-86973017D01*
X148734615Y-86996775D01*
X148720161Y-87011228D01*
X148705969Y-87032469D01*
X148684728Y-87046661D01*
X148670275Y-87061115D01*
X148646517Y-87072193D01*
X148620646Y-87089480D01*
X148601114Y-87093365D01*
X148586489Y-87100185D01*
X148528353Y-87107838D01*
X148520000Y-87109500D01*
X148020000Y-87109500D01*
X148011648Y-87107838D01*
X147953510Y-87100185D01*
X147938884Y-87093364D01*
X147919354Y-87089480D01*
X147893485Y-87072194D01*
X147869724Y-87061115D01*
X147855268Y-87046659D01*
X147834031Y-87032469D01*
X147819840Y-87011231D01*
X147805384Y-86996775D01*
X147794303Y-86973012D01*
X147777020Y-86947146D01*
X147773135Y-86927617D01*
X147766314Y-86912989D01*
X147758658Y-86854838D01*
X147757000Y-86846500D01*
X147757000Y-86396500D01*
X147758658Y-86388163D01*
X147766314Y-86330010D01*
X147773135Y-86315380D01*
X147777020Y-86295854D01*
X147794301Y-86269990D01*
X147805384Y-86246224D01*
X147819842Y-86231765D01*
X147834031Y-86210531D01*
X147855265Y-86196342D01*
X147869724Y-86181884D01*
X147893490Y-86170801D01*
X147919354Y-86153520D01*
X147938880Y-86149635D01*
X147953510Y-86142814D01*
X148011663Y-86135158D01*
X148020000Y-86133500D01*
X148520000Y-86133500D01*
X148528338Y-86135158D01*
G37*
G36*
X157445257Y-85616045D02*
G01*
X157492111Y-85621481D01*
X157508121Y-85628550D01*
X157531079Y-85633117D01*
X157555657Y-85649540D01*
X157573868Y-85657581D01*
X157586305Y-85670018D01*
X157608291Y-85684709D01*
X157622981Y-85706694D01*
X157635418Y-85719131D01*
X157643458Y-85737339D01*
X157659883Y-85761921D01*
X157664450Y-85784881D01*
X157671518Y-85800888D01*
X157676952Y-85847731D01*
X157678000Y-85853000D01*
X157678000Y-86253000D01*
X157676951Y-86258269D01*
X157671518Y-86305111D01*
X157664450Y-86321117D01*
X157659883Y-86344079D01*
X157643456Y-86368662D01*
X157635418Y-86386868D01*
X157622983Y-86399302D01*
X157608291Y-86421291D01*
X157586302Y-86435983D01*
X157573868Y-86448418D01*
X157555662Y-86456456D01*
X157531079Y-86472883D01*
X157508117Y-86477450D01*
X157492111Y-86484518D01*
X157445269Y-86489951D01*
X157440000Y-86491000D01*
X156240000Y-86491000D01*
X156234731Y-86489952D01*
X156187888Y-86484518D01*
X156171881Y-86477450D01*
X156148921Y-86472883D01*
X156124339Y-86456458D01*
X156106131Y-86448418D01*
X156093694Y-86435981D01*
X156071709Y-86421291D01*
X156057018Y-86399305D01*
X156044581Y-86386868D01*
X156036540Y-86368657D01*
X156020117Y-86344079D01*
X156015550Y-86321121D01*
X156008481Y-86305111D01*
X156003045Y-86258257D01*
X156002000Y-86253000D01*
X156002000Y-85853000D01*
X156003045Y-85847743D01*
X156008481Y-85800888D01*
X156015550Y-85784876D01*
X156020117Y-85761921D01*
X156036538Y-85737344D01*
X156044581Y-85719131D01*
X156057020Y-85706691D01*
X156071709Y-85684709D01*
X156093691Y-85670020D01*
X156106131Y-85657581D01*
X156124344Y-85649538D01*
X156148921Y-85633117D01*
X156171876Y-85628550D01*
X156187888Y-85621481D01*
X156234743Y-85616045D01*
X156240000Y-85615000D01*
X157440000Y-85615000D01*
X157445257Y-85616045D01*
G37*
G36*
X127788257Y-85033045D02*
G01*
X127835111Y-85038481D01*
X127851121Y-85045550D01*
X127874079Y-85050117D01*
X127898657Y-85066540D01*
X127916868Y-85074581D01*
X127929305Y-85087018D01*
X127951291Y-85101709D01*
X127965981Y-85123694D01*
X127978418Y-85136131D01*
X127986458Y-85154339D01*
X128002883Y-85178921D01*
X128007450Y-85201881D01*
X128014518Y-85217888D01*
X128019952Y-85264731D01*
X128021000Y-85270000D01*
X128021000Y-85670000D01*
X128019951Y-85675269D01*
X128014518Y-85722111D01*
X128007450Y-85738117D01*
X128002883Y-85761079D01*
X127986456Y-85785662D01*
X127978418Y-85803868D01*
X127965983Y-85816302D01*
X127951291Y-85838291D01*
X127929302Y-85852983D01*
X127916868Y-85865418D01*
X127898662Y-85873456D01*
X127874079Y-85889883D01*
X127851117Y-85894450D01*
X127835111Y-85901518D01*
X127788269Y-85906951D01*
X127783000Y-85908000D01*
X127233000Y-85908000D01*
X127227731Y-85906952D01*
X127180888Y-85901518D01*
X127164881Y-85894450D01*
X127141921Y-85889883D01*
X127117339Y-85873458D01*
X127099131Y-85865418D01*
X127086694Y-85852981D01*
X127064709Y-85838291D01*
X127050018Y-85816305D01*
X127037581Y-85803868D01*
X127029540Y-85785657D01*
X127013117Y-85761079D01*
X127008550Y-85738121D01*
X127001481Y-85722111D01*
X126996045Y-85675257D01*
X126995000Y-85670000D01*
X126995000Y-85270000D01*
X126996045Y-85264743D01*
X127001481Y-85217888D01*
X127008550Y-85201876D01*
X127013117Y-85178921D01*
X127029538Y-85154344D01*
X127037581Y-85136131D01*
X127050020Y-85123691D01*
X127064709Y-85101709D01*
X127086691Y-85087020D01*
X127099131Y-85074581D01*
X127117344Y-85066538D01*
X127141921Y-85050117D01*
X127164876Y-85045550D01*
X127180888Y-85038481D01*
X127227743Y-85033045D01*
X127233000Y-85032000D01*
X127783000Y-85032000D01*
X127788257Y-85033045D01*
G37*
G36*
X153304257Y-84783045D02*
G01*
X153351111Y-84788481D01*
X153367121Y-84795550D01*
X153390079Y-84800117D01*
X153414657Y-84816540D01*
X153432868Y-84824581D01*
X153445305Y-84837018D01*
X153467291Y-84851709D01*
X153481981Y-84873694D01*
X153494418Y-84886131D01*
X153502458Y-84904339D01*
X153518883Y-84928921D01*
X153523450Y-84951881D01*
X153530518Y-84967888D01*
X153535952Y-85014731D01*
X153537000Y-85020000D01*
X153537000Y-85570000D01*
X153535951Y-85575269D01*
X153530518Y-85622111D01*
X153523450Y-85638117D01*
X153518883Y-85661079D01*
X153502456Y-85685662D01*
X153494418Y-85703868D01*
X153481983Y-85716302D01*
X153467291Y-85738291D01*
X153445302Y-85752983D01*
X153432868Y-85765418D01*
X153414662Y-85773456D01*
X153390079Y-85789883D01*
X153367117Y-85794450D01*
X153351111Y-85801518D01*
X153304269Y-85806951D01*
X153299000Y-85808000D01*
X152899000Y-85808000D01*
X152893731Y-85806952D01*
X152846888Y-85801518D01*
X152830881Y-85794450D01*
X152807921Y-85789883D01*
X152783339Y-85773458D01*
X152765131Y-85765418D01*
X152752694Y-85752981D01*
X152730709Y-85738291D01*
X152716018Y-85716305D01*
X152703581Y-85703868D01*
X152695540Y-85685657D01*
X152679117Y-85661079D01*
X152674550Y-85638121D01*
X152667481Y-85622111D01*
X152662045Y-85575257D01*
X152661000Y-85570000D01*
X152661000Y-85020000D01*
X152662045Y-85014743D01*
X152667481Y-84967888D01*
X152674550Y-84951876D01*
X152679117Y-84928921D01*
X152695538Y-84904344D01*
X152703581Y-84886131D01*
X152716020Y-84873691D01*
X152730709Y-84851709D01*
X152752691Y-84837020D01*
X152765131Y-84824581D01*
X152783344Y-84816538D01*
X152807921Y-84800117D01*
X152830876Y-84795550D01*
X152846888Y-84788481D01*
X152893743Y-84783045D01*
X152899000Y-84782000D01*
X153299000Y-84782000D01*
X153304257Y-84783045D01*
G37*
G36*
X154954257Y-84783045D02*
G01*
X155001111Y-84788481D01*
X155017121Y-84795550D01*
X155040079Y-84800117D01*
X155064657Y-84816540D01*
X155082868Y-84824581D01*
X155095305Y-84837018D01*
X155117291Y-84851709D01*
X155131981Y-84873694D01*
X155144418Y-84886131D01*
X155152458Y-84904339D01*
X155168883Y-84928921D01*
X155173450Y-84951881D01*
X155180518Y-84967888D01*
X155185952Y-85014731D01*
X155187000Y-85020000D01*
X155187000Y-85570000D01*
X155185951Y-85575269D01*
X155180518Y-85622111D01*
X155173450Y-85638117D01*
X155168883Y-85661079D01*
X155152456Y-85685662D01*
X155144418Y-85703868D01*
X155131983Y-85716302D01*
X155117291Y-85738291D01*
X155095302Y-85752983D01*
X155082868Y-85765418D01*
X155064662Y-85773456D01*
X155040079Y-85789883D01*
X155017117Y-85794450D01*
X155001111Y-85801518D01*
X154954269Y-85806951D01*
X154949000Y-85808000D01*
X154549000Y-85808000D01*
X154543731Y-85806952D01*
X154496888Y-85801518D01*
X154480881Y-85794450D01*
X154457921Y-85789883D01*
X154433339Y-85773458D01*
X154415131Y-85765418D01*
X154402694Y-85752981D01*
X154380709Y-85738291D01*
X154366018Y-85716305D01*
X154353581Y-85703868D01*
X154345540Y-85685657D01*
X154329117Y-85661079D01*
X154324550Y-85638121D01*
X154317481Y-85622111D01*
X154312045Y-85575257D01*
X154311000Y-85570000D01*
X154311000Y-85020000D01*
X154312045Y-85014743D01*
X154317481Y-84967888D01*
X154324550Y-84951876D01*
X154329117Y-84928921D01*
X154345538Y-84904344D01*
X154353581Y-84886131D01*
X154366020Y-84873691D01*
X154380709Y-84851709D01*
X154402691Y-84837020D01*
X154415131Y-84824581D01*
X154433344Y-84816538D01*
X154457921Y-84800117D01*
X154480876Y-84795550D01*
X154496888Y-84788481D01*
X154543743Y-84783045D01*
X154549000Y-84782000D01*
X154949000Y-84782000D01*
X154954257Y-84783045D01*
G37*
G36*
X145226338Y-84585158D02*
G01*
X145284489Y-84592814D01*
X145299117Y-84599635D01*
X145318646Y-84603520D01*
X145344512Y-84620803D01*
X145368275Y-84631884D01*
X145382731Y-84646340D01*
X145403969Y-84660531D01*
X145418159Y-84681768D01*
X145432615Y-84696224D01*
X145443694Y-84719985D01*
X145460980Y-84745854D01*
X145464864Y-84765384D01*
X145471685Y-84780010D01*
X145479338Y-84838148D01*
X145481000Y-84846500D01*
X145481000Y-85296500D01*
X145479338Y-85304853D01*
X145471685Y-85362989D01*
X145464865Y-85377614D01*
X145460980Y-85397146D01*
X145443693Y-85423017D01*
X145432615Y-85446775D01*
X145418161Y-85461228D01*
X145403969Y-85482469D01*
X145382728Y-85496661D01*
X145368275Y-85511115D01*
X145344517Y-85522193D01*
X145318646Y-85539480D01*
X145299114Y-85543365D01*
X145284489Y-85550185D01*
X145226353Y-85557838D01*
X145218000Y-85559500D01*
X144718000Y-85559500D01*
X144709648Y-85557838D01*
X144651510Y-85550185D01*
X144636884Y-85543364D01*
X144617354Y-85539480D01*
X144591485Y-85522194D01*
X144567724Y-85511115D01*
X144553268Y-85496659D01*
X144532031Y-85482469D01*
X144517840Y-85461231D01*
X144503384Y-85446775D01*
X144492303Y-85423012D01*
X144475020Y-85397146D01*
X144471135Y-85377617D01*
X144464314Y-85362989D01*
X144456658Y-85304838D01*
X144455000Y-85296500D01*
X144455000Y-84846500D01*
X144456658Y-84838163D01*
X144464314Y-84780010D01*
X144471135Y-84765380D01*
X144475020Y-84745854D01*
X144492301Y-84719990D01*
X144503384Y-84696224D01*
X144517842Y-84681765D01*
X144532031Y-84660531D01*
X144553265Y-84646342D01*
X144567724Y-84631884D01*
X144591490Y-84620801D01*
X144617354Y-84603520D01*
X144636880Y-84599635D01*
X144651510Y-84592814D01*
X144709663Y-84585158D01*
X144718000Y-84583500D01*
X145218000Y-84583500D01*
X145226338Y-84585158D01*
G37*
G36*
X148528338Y-84585158D02*
G01*
X148586489Y-84592814D01*
X148601117Y-84599635D01*
X148620646Y-84603520D01*
X148646512Y-84620803D01*
X148670275Y-84631884D01*
X148684731Y-84646340D01*
X148705969Y-84660531D01*
X148720159Y-84681768D01*
X148734615Y-84696224D01*
X148745694Y-84719985D01*
X148762980Y-84745854D01*
X148766864Y-84765384D01*
X148773685Y-84780010D01*
X148781338Y-84838148D01*
X148783000Y-84846500D01*
X148783000Y-85296500D01*
X148781338Y-85304853D01*
X148773685Y-85362989D01*
X148766865Y-85377614D01*
X148762980Y-85397146D01*
X148745693Y-85423017D01*
X148734615Y-85446775D01*
X148720161Y-85461228D01*
X148705969Y-85482469D01*
X148684728Y-85496661D01*
X148670275Y-85511115D01*
X148646517Y-85522193D01*
X148620646Y-85539480D01*
X148601114Y-85543365D01*
X148586489Y-85550185D01*
X148528353Y-85557838D01*
X148520000Y-85559500D01*
X148020000Y-85559500D01*
X148011648Y-85557838D01*
X147953510Y-85550185D01*
X147938884Y-85543364D01*
X147919354Y-85539480D01*
X147893485Y-85522194D01*
X147869724Y-85511115D01*
X147855268Y-85496659D01*
X147834031Y-85482469D01*
X147819840Y-85461231D01*
X147805384Y-85446775D01*
X147794303Y-85423012D01*
X147777020Y-85397146D01*
X147773135Y-85377617D01*
X147766314Y-85362989D01*
X147758658Y-85304838D01*
X147757000Y-85296500D01*
X147757000Y-84846500D01*
X147758658Y-84838163D01*
X147766314Y-84780010D01*
X147773135Y-84765380D01*
X147777020Y-84745854D01*
X147794301Y-84719990D01*
X147805384Y-84696224D01*
X147819842Y-84681765D01*
X147834031Y-84660531D01*
X147855265Y-84646342D01*
X147869724Y-84631884D01*
X147893490Y-84620801D01*
X147919354Y-84603520D01*
X147938880Y-84599635D01*
X147953510Y-84592814D01*
X148011663Y-84585158D01*
X148020000Y-84583500D01*
X148520000Y-84583500D01*
X148528338Y-84585158D01*
G37*
G36*
X143597257Y-84584545D02*
G01*
X143644111Y-84589981D01*
X143660121Y-84597050D01*
X143683079Y-84601617D01*
X143707657Y-84618040D01*
X143725868Y-84626081D01*
X143738305Y-84638518D01*
X143760291Y-84653209D01*
X143774981Y-84675194D01*
X143787418Y-84687631D01*
X143795458Y-84705839D01*
X143811883Y-84730421D01*
X143816450Y-84753381D01*
X143823518Y-84769388D01*
X143828952Y-84816231D01*
X143830000Y-84821500D01*
X143830000Y-85221500D01*
X143828951Y-85226769D01*
X143823518Y-85273611D01*
X143816450Y-85289617D01*
X143811883Y-85312579D01*
X143795456Y-85337162D01*
X143787418Y-85355368D01*
X143774983Y-85367802D01*
X143760291Y-85389791D01*
X143738302Y-85404483D01*
X143725868Y-85416918D01*
X143707662Y-85424956D01*
X143683079Y-85441383D01*
X143660117Y-85445950D01*
X143644111Y-85453018D01*
X143597269Y-85458451D01*
X143592000Y-85459500D01*
X143042000Y-85459500D01*
X143036731Y-85458452D01*
X142989888Y-85453018D01*
X142973881Y-85445950D01*
X142950921Y-85441383D01*
X142926339Y-85424958D01*
X142908131Y-85416918D01*
X142895694Y-85404481D01*
X142873709Y-85389791D01*
X142859018Y-85367805D01*
X142846581Y-85355368D01*
X142838540Y-85337157D01*
X142822117Y-85312579D01*
X142817550Y-85289621D01*
X142810481Y-85273611D01*
X142805045Y-85226757D01*
X142804000Y-85221500D01*
X142804000Y-84821500D01*
X142805045Y-84816243D01*
X142810481Y-84769388D01*
X142817550Y-84753376D01*
X142822117Y-84730421D01*
X142838538Y-84705844D01*
X142846581Y-84687631D01*
X142859020Y-84675191D01*
X142873709Y-84653209D01*
X142895691Y-84638520D01*
X142908131Y-84626081D01*
X142926344Y-84618038D01*
X142950921Y-84601617D01*
X142973876Y-84597050D01*
X142989888Y-84589981D01*
X143036743Y-84584545D01*
X143042000Y-84583500D01*
X143592000Y-84583500D01*
X143597257Y-84584545D01*
G37*
G36*
X146899257Y-84584545D02*
G01*
X146946111Y-84589981D01*
X146962121Y-84597050D01*
X146985079Y-84601617D01*
X147009657Y-84618040D01*
X147027868Y-84626081D01*
X147040305Y-84638518D01*
X147062291Y-84653209D01*
X147076981Y-84675194D01*
X147089418Y-84687631D01*
X147097458Y-84705839D01*
X147113883Y-84730421D01*
X147118450Y-84753381D01*
X147125518Y-84769388D01*
X147130952Y-84816231D01*
X147132000Y-84821500D01*
X147132000Y-85221500D01*
X147130951Y-85226769D01*
X147125518Y-85273611D01*
X147118450Y-85289617D01*
X147113883Y-85312579D01*
X147097456Y-85337162D01*
X147089418Y-85355368D01*
X147076983Y-85367802D01*
X147062291Y-85389791D01*
X147040302Y-85404483D01*
X147027868Y-85416918D01*
X147009662Y-85424956D01*
X146985079Y-85441383D01*
X146962117Y-85445950D01*
X146946111Y-85453018D01*
X146899269Y-85458451D01*
X146894000Y-85459500D01*
X146344000Y-85459500D01*
X146338731Y-85458452D01*
X146291888Y-85453018D01*
X146275881Y-85445950D01*
X146252921Y-85441383D01*
X146228339Y-85424958D01*
X146210131Y-85416918D01*
X146197694Y-85404481D01*
X146175709Y-85389791D01*
X146161018Y-85367805D01*
X146148581Y-85355368D01*
X146140540Y-85337157D01*
X146124117Y-85312579D01*
X146119550Y-85289621D01*
X146112481Y-85273611D01*
X146107045Y-85226757D01*
X146106000Y-85221500D01*
X146106000Y-84821500D01*
X146107045Y-84816243D01*
X146112481Y-84769388D01*
X146119550Y-84753376D01*
X146124117Y-84730421D01*
X146140538Y-84705844D01*
X146148581Y-84687631D01*
X146161020Y-84675191D01*
X146175709Y-84653209D01*
X146197691Y-84638520D01*
X146210131Y-84626081D01*
X146228344Y-84618038D01*
X146252921Y-84601617D01*
X146275876Y-84597050D01*
X146291888Y-84589981D01*
X146338743Y-84584545D01*
X146344000Y-84583500D01*
X146894000Y-84583500D01*
X146899257Y-84584545D01*
G37*
G36*
X157470257Y-84646045D02*
G01*
X157511390Y-84650817D01*
X157525446Y-84657023D01*
X157546512Y-84661214D01*
X157569067Y-84676285D01*
X157584737Y-84683204D01*
X157595437Y-84693904D01*
X157615614Y-84707386D01*
X157629095Y-84727562D01*
X157639795Y-84738262D01*
X157646713Y-84753929D01*
X157661786Y-84776488D01*
X157665976Y-84797555D01*
X157672182Y-84811609D01*
X157676952Y-84852732D01*
X157678000Y-84858000D01*
X157678000Y-85208000D01*
X157676951Y-85213269D01*
X157672182Y-85254390D01*
X157665977Y-85268442D01*
X157661786Y-85289512D01*
X157646711Y-85312072D01*
X157639795Y-85327737D01*
X157629097Y-85338434D01*
X157615614Y-85358614D01*
X157595434Y-85372097D01*
X157584737Y-85382795D01*
X157569072Y-85389711D01*
X157546512Y-85404786D01*
X157525442Y-85408977D01*
X157511390Y-85415182D01*
X157470269Y-85419951D01*
X157465000Y-85421000D01*
X156215000Y-85421000D01*
X156209732Y-85419952D01*
X156168609Y-85415182D01*
X156154555Y-85408976D01*
X156133488Y-85404786D01*
X156110929Y-85389713D01*
X156095262Y-85382795D01*
X156084562Y-85372095D01*
X156064386Y-85358614D01*
X156050904Y-85338437D01*
X156040204Y-85327737D01*
X156033285Y-85312067D01*
X156018214Y-85289512D01*
X156014023Y-85268446D01*
X156007817Y-85254390D01*
X156003045Y-85213257D01*
X156002000Y-85208000D01*
X156002000Y-84858000D01*
X156003045Y-84852744D01*
X156007817Y-84811609D01*
X156014024Y-84797551D01*
X156018214Y-84776488D01*
X156033283Y-84753934D01*
X156040204Y-84738262D01*
X156050906Y-84727559D01*
X156064386Y-84707386D01*
X156084559Y-84693906D01*
X156095262Y-84683204D01*
X156110934Y-84676283D01*
X156133488Y-84661214D01*
X156154551Y-84657024D01*
X156168609Y-84650817D01*
X156209744Y-84646045D01*
X156215000Y-84645000D01*
X157465000Y-84645000D01*
X157470257Y-84646045D01*
G37*
G36*
X135476944Y-82886311D02*
G01*
X135537936Y-82927064D01*
X135578689Y-82988056D01*
X135593000Y-83060000D01*
X135593000Y-84710000D01*
X135578689Y-84781944D01*
X135537936Y-84842936D01*
X135476944Y-84883689D01*
X135405000Y-84898000D01*
X135105000Y-84898000D01*
X135033056Y-84883689D01*
X134972064Y-84842936D01*
X134931311Y-84781944D01*
X134917000Y-84710000D01*
X134917000Y-83060000D01*
X134931311Y-82988056D01*
X134972064Y-82927064D01*
X135033056Y-82886311D01*
X135105000Y-82872000D01*
X135405000Y-82872000D01*
X135476944Y-82886311D01*
G37*
G36*
X136746944Y-82886311D02*
G01*
X136807936Y-82927064D01*
X136848689Y-82988056D01*
X136863000Y-83060000D01*
X136863000Y-84710000D01*
X136848689Y-84781944D01*
X136807936Y-84842936D01*
X136746944Y-84883689D01*
X136675000Y-84898000D01*
X136375000Y-84898000D01*
X136303056Y-84883689D01*
X136242064Y-84842936D01*
X136201311Y-84781944D01*
X136187000Y-84710000D01*
X136187000Y-83060000D01*
X136201311Y-82988056D01*
X136242064Y-82927064D01*
X136303056Y-82886311D01*
X136375000Y-82872000D01*
X136675000Y-82872000D01*
X136746944Y-82886311D01*
G37*
G36*
X138016944Y-82886311D02*
G01*
X138077936Y-82927064D01*
X138118689Y-82988056D01*
X138133000Y-83060000D01*
X138133000Y-84710000D01*
X138118689Y-84781944D01*
X138077936Y-84842936D01*
X138016944Y-84883689D01*
X137945000Y-84898000D01*
X137645000Y-84898000D01*
X137573056Y-84883689D01*
X137512064Y-84842936D01*
X137471311Y-84781944D01*
X137457000Y-84710000D01*
X137457000Y-83060000D01*
X137471311Y-82988056D01*
X137512064Y-82927064D01*
X137573056Y-82886311D01*
X137645000Y-82872000D01*
X137945000Y-82872000D01*
X138016944Y-82886311D01*
G37*
G36*
X139286944Y-82886311D02*
G01*
X139347936Y-82927064D01*
X139388689Y-82988056D01*
X139403000Y-83060000D01*
X139403000Y-84710000D01*
X139388689Y-84781944D01*
X139347936Y-84842936D01*
X139286944Y-84883689D01*
X139215000Y-84898000D01*
X138915000Y-84898000D01*
X138843056Y-84883689D01*
X138782064Y-84842936D01*
X138741311Y-84781944D01*
X138727000Y-84710000D01*
X138727000Y-83060000D01*
X138741311Y-82988056D01*
X138782064Y-82927064D01*
X138843056Y-82886311D01*
X138915000Y-82872000D01*
X139215000Y-82872000D01*
X139286944Y-82886311D01*
G37*
G36*
X125225773Y-82970237D02*
G01*
X125386600Y-83036854D01*
X125531341Y-83133567D01*
X125654433Y-83256659D01*
X125751146Y-83401400D01*
X125817763Y-83562227D01*
X125851724Y-83732961D01*
X125851724Y-83907039D01*
X125817763Y-84077773D01*
X125751146Y-84238600D01*
X125654433Y-84383341D01*
X125531341Y-84506433D01*
X125386600Y-84603146D01*
X125225773Y-84669763D01*
X125055039Y-84703724D01*
X124880961Y-84703724D01*
X124710227Y-84669763D01*
X124549400Y-84603146D01*
X124404659Y-84506433D01*
X124281567Y-84383341D01*
X124184854Y-84238600D01*
X124118237Y-84077773D01*
X124084276Y-83907039D01*
X124084276Y-83732961D01*
X124118237Y-83562227D01*
X124184854Y-83401400D01*
X124281567Y-83256659D01*
X124404659Y-83133567D01*
X124549400Y-83036854D01*
X124710227Y-82970237D01*
X124880961Y-82936276D01*
X125055039Y-82936276D01*
X125225773Y-82970237D01*
G37*
G36*
X157470257Y-83646045D02*
G01*
X157511390Y-83650817D01*
X157525446Y-83657023D01*
X157546512Y-83661214D01*
X157569067Y-83676285D01*
X157584737Y-83683204D01*
X157595437Y-83693904D01*
X157615614Y-83707386D01*
X157629095Y-83727562D01*
X157639795Y-83738262D01*
X157646713Y-83753929D01*
X157661786Y-83776488D01*
X157665976Y-83797555D01*
X157672182Y-83811609D01*
X157676952Y-83852732D01*
X157678000Y-83858000D01*
X157678000Y-84208000D01*
X157676951Y-84213269D01*
X157672182Y-84254390D01*
X157665977Y-84268442D01*
X157661786Y-84289512D01*
X157646711Y-84312072D01*
X157639795Y-84327737D01*
X157629097Y-84338434D01*
X157615614Y-84358614D01*
X157595434Y-84372097D01*
X157584737Y-84382795D01*
X157569072Y-84389711D01*
X157546512Y-84404786D01*
X157525442Y-84408977D01*
X157511390Y-84415182D01*
X157470269Y-84419951D01*
X157465000Y-84421000D01*
X156215000Y-84421000D01*
X156209732Y-84419952D01*
X156168609Y-84415182D01*
X156154555Y-84408976D01*
X156133488Y-84404786D01*
X156110929Y-84389713D01*
X156095262Y-84382795D01*
X156084562Y-84372095D01*
X156064386Y-84358614D01*
X156050904Y-84338437D01*
X156040204Y-84327737D01*
X156033285Y-84312067D01*
X156018214Y-84289512D01*
X156014023Y-84268446D01*
X156007817Y-84254390D01*
X156003045Y-84213257D01*
X156002000Y-84208000D01*
X156002000Y-83858000D01*
X156003045Y-83852744D01*
X156007817Y-83811609D01*
X156014024Y-83797551D01*
X156018214Y-83776488D01*
X156033283Y-83753934D01*
X156040204Y-83738262D01*
X156050906Y-83727559D01*
X156064386Y-83707386D01*
X156084559Y-83693906D01*
X156095262Y-83683204D01*
X156110934Y-83676283D01*
X156133488Y-83661214D01*
X156154551Y-83657024D01*
X156168609Y-83650817D01*
X156209744Y-83646045D01*
X156215000Y-83645000D01*
X157465000Y-83645000D01*
X157470257Y-83646045D01*
G37*
G36*
X153304257Y-83259045D02*
G01*
X153351111Y-83264481D01*
X153367121Y-83271550D01*
X153390079Y-83276117D01*
X153414657Y-83292540D01*
X153432868Y-83300581D01*
X153445305Y-83313018D01*
X153467291Y-83327709D01*
X153481981Y-83349694D01*
X153494418Y-83362131D01*
X153502458Y-83380339D01*
X153518883Y-83404921D01*
X153523450Y-83427881D01*
X153530518Y-83443888D01*
X153535952Y-83490731D01*
X153537000Y-83496000D01*
X153537000Y-84046000D01*
X153535951Y-84051269D01*
X153530518Y-84098111D01*
X153523450Y-84114117D01*
X153518883Y-84137079D01*
X153502456Y-84161662D01*
X153494418Y-84179868D01*
X153481983Y-84192302D01*
X153467291Y-84214291D01*
X153445302Y-84228983D01*
X153432868Y-84241418D01*
X153414662Y-84249456D01*
X153390079Y-84265883D01*
X153367117Y-84270450D01*
X153351111Y-84277518D01*
X153304269Y-84282951D01*
X153299000Y-84284000D01*
X152899000Y-84284000D01*
X152893731Y-84282952D01*
X152846888Y-84277518D01*
X152830881Y-84270450D01*
X152807921Y-84265883D01*
X152783339Y-84249458D01*
X152765131Y-84241418D01*
X152752694Y-84228981D01*
X152730709Y-84214291D01*
X152716018Y-84192305D01*
X152703581Y-84179868D01*
X152695540Y-84161657D01*
X152679117Y-84137079D01*
X152674550Y-84114121D01*
X152667481Y-84098111D01*
X152662045Y-84051257D01*
X152661000Y-84046000D01*
X152661000Y-83496000D01*
X152662045Y-83490743D01*
X152667481Y-83443888D01*
X152674550Y-83427876D01*
X152679117Y-83404921D01*
X152695538Y-83380344D01*
X152703581Y-83362131D01*
X152716020Y-83349691D01*
X152730709Y-83327709D01*
X152752691Y-83313020D01*
X152765131Y-83300581D01*
X152783344Y-83292538D01*
X152807921Y-83276117D01*
X152830876Y-83271550D01*
X152846888Y-83264481D01*
X152893743Y-83259045D01*
X152899000Y-83258000D01*
X153299000Y-83258000D01*
X153304257Y-83259045D01*
G37*
G36*
X154954257Y-83259045D02*
G01*
X155001111Y-83264481D01*
X155017121Y-83271550D01*
X155040079Y-83276117D01*
X155064657Y-83292540D01*
X155082868Y-83300581D01*
X155095305Y-83313018D01*
X155117291Y-83327709D01*
X155131981Y-83349694D01*
X155144418Y-83362131D01*
X155152458Y-83380339D01*
X155168883Y-83404921D01*
X155173450Y-83427881D01*
X155180518Y-83443888D01*
X155185952Y-83490731D01*
X155187000Y-83496000D01*
X155187000Y-84046000D01*
X155185951Y-84051269D01*
X155180518Y-84098111D01*
X155173450Y-84114117D01*
X155168883Y-84137079D01*
X155152456Y-84161662D01*
X155144418Y-84179868D01*
X155131983Y-84192302D01*
X155117291Y-84214291D01*
X155095302Y-84228983D01*
X155082868Y-84241418D01*
X155064662Y-84249456D01*
X155040079Y-84265883D01*
X155017117Y-84270450D01*
X155001111Y-84277518D01*
X154954269Y-84282951D01*
X154949000Y-84284000D01*
X154549000Y-84284000D01*
X154543731Y-84282952D01*
X154496888Y-84277518D01*
X154480881Y-84270450D01*
X154457921Y-84265883D01*
X154433339Y-84249458D01*
X154415131Y-84241418D01*
X154402694Y-84228981D01*
X154380709Y-84214291D01*
X154366018Y-84192305D01*
X154353581Y-84179868D01*
X154345540Y-84161657D01*
X154329117Y-84137079D01*
X154324550Y-84114121D01*
X154317481Y-84098111D01*
X154312045Y-84051257D01*
X154311000Y-84046000D01*
X154311000Y-83496000D01*
X154312045Y-83490743D01*
X154317481Y-83443888D01*
X154324550Y-83427876D01*
X154329117Y-83404921D01*
X154345538Y-83380344D01*
X154353581Y-83362131D01*
X154366020Y-83349691D01*
X154380709Y-83327709D01*
X154402691Y-83313020D01*
X154415131Y-83300581D01*
X154433344Y-83292538D01*
X154457921Y-83276117D01*
X154480876Y-83271550D01*
X154496888Y-83264481D01*
X154543743Y-83259045D01*
X154549000Y-83258000D01*
X154949000Y-83258000D01*
X154954257Y-83259045D01*
G37*
G36*
X127788257Y-83383045D02*
G01*
X127835111Y-83388481D01*
X127851121Y-83395550D01*
X127874079Y-83400117D01*
X127898657Y-83416540D01*
X127916868Y-83424581D01*
X127929305Y-83437018D01*
X127951291Y-83451709D01*
X127965981Y-83473694D01*
X127978418Y-83486131D01*
X127986458Y-83504339D01*
X128002883Y-83528921D01*
X128007450Y-83551881D01*
X128014518Y-83567888D01*
X128019952Y-83614731D01*
X128021000Y-83620000D01*
X128021000Y-84020000D01*
X128019951Y-84025269D01*
X128014518Y-84072111D01*
X128007450Y-84088117D01*
X128002883Y-84111079D01*
X127986456Y-84135662D01*
X127978418Y-84153868D01*
X127965983Y-84166302D01*
X127951291Y-84188291D01*
X127929302Y-84202983D01*
X127916868Y-84215418D01*
X127898662Y-84223456D01*
X127874079Y-84239883D01*
X127851117Y-84244450D01*
X127835111Y-84251518D01*
X127788269Y-84256951D01*
X127783000Y-84258000D01*
X127233000Y-84258000D01*
X127227731Y-84256952D01*
X127180888Y-84251518D01*
X127164881Y-84244450D01*
X127141921Y-84239883D01*
X127117339Y-84223458D01*
X127099131Y-84215418D01*
X127086694Y-84202981D01*
X127064709Y-84188291D01*
X127050018Y-84166305D01*
X127037581Y-84153868D01*
X127029540Y-84135657D01*
X127013117Y-84111079D01*
X127008550Y-84088121D01*
X127001481Y-84072111D01*
X126996045Y-84025257D01*
X126995000Y-84020000D01*
X126995000Y-83620000D01*
X126996045Y-83614743D01*
X127001481Y-83567888D01*
X127008550Y-83551876D01*
X127013117Y-83528921D01*
X127029538Y-83504344D01*
X127037581Y-83486131D01*
X127050020Y-83473691D01*
X127064709Y-83451709D01*
X127086691Y-83437020D01*
X127099131Y-83424581D01*
X127117344Y-83416538D01*
X127141921Y-83400117D01*
X127164876Y-83395550D01*
X127180888Y-83388481D01*
X127227743Y-83383045D01*
X127233000Y-83382000D01*
X127783000Y-83382000D01*
X127788257Y-83383045D01*
G37*
G36*
X132173338Y-82849658D02*
G01*
X132231489Y-82857314D01*
X132246117Y-82864135D01*
X132265646Y-82868020D01*
X132291512Y-82885303D01*
X132315275Y-82896384D01*
X132329731Y-82910840D01*
X132350969Y-82925031D01*
X132365159Y-82946268D01*
X132379615Y-82960724D01*
X132390694Y-82984485D01*
X132407980Y-83010354D01*
X132411864Y-83029884D01*
X132418685Y-83044510D01*
X132426338Y-83102648D01*
X132428000Y-83111000D01*
X132428000Y-83611000D01*
X132426338Y-83619353D01*
X132418685Y-83677489D01*
X132411865Y-83692114D01*
X132407980Y-83711646D01*
X132390693Y-83737517D01*
X132379615Y-83761275D01*
X132365161Y-83775728D01*
X132350969Y-83796969D01*
X132329728Y-83811161D01*
X132315275Y-83825615D01*
X132291517Y-83836693D01*
X132265646Y-83853980D01*
X132246114Y-83857865D01*
X132231489Y-83864685D01*
X132173353Y-83872338D01*
X132165000Y-83874000D01*
X131715000Y-83874000D01*
X131706648Y-83872338D01*
X131648510Y-83864685D01*
X131633884Y-83857864D01*
X131614354Y-83853980D01*
X131588485Y-83836694D01*
X131564724Y-83825615D01*
X131550268Y-83811159D01*
X131529031Y-83796969D01*
X131514840Y-83775731D01*
X131500384Y-83761275D01*
X131489303Y-83737512D01*
X131472020Y-83711646D01*
X131468135Y-83692117D01*
X131461314Y-83677489D01*
X131453658Y-83619338D01*
X131452000Y-83611000D01*
X131452000Y-83111000D01*
X131453658Y-83102663D01*
X131461314Y-83044510D01*
X131468135Y-83029880D01*
X131472020Y-83010354D01*
X131489301Y-82984490D01*
X131500384Y-82960724D01*
X131514842Y-82946265D01*
X131529031Y-82925031D01*
X131550265Y-82910842D01*
X131564724Y-82896384D01*
X131588490Y-82885301D01*
X131614354Y-82868020D01*
X131633880Y-82864135D01*
X131648510Y-82857314D01*
X131706663Y-82849658D01*
X131715000Y-82848000D01*
X132165000Y-82848000D01*
X132173338Y-82849658D01*
G37*
G36*
X133723338Y-82849658D02*
G01*
X133781489Y-82857314D01*
X133796117Y-82864135D01*
X133815646Y-82868020D01*
X133841512Y-82885303D01*
X133865275Y-82896384D01*
X133879731Y-82910840D01*
X133900969Y-82925031D01*
X133915159Y-82946268D01*
X133929615Y-82960724D01*
X133940694Y-82984485D01*
X133957980Y-83010354D01*
X133961864Y-83029884D01*
X133968685Y-83044510D01*
X133976338Y-83102648D01*
X133978000Y-83111000D01*
X133978000Y-83611000D01*
X133976338Y-83619353D01*
X133968685Y-83677489D01*
X133961865Y-83692114D01*
X133957980Y-83711646D01*
X133940693Y-83737517D01*
X133929615Y-83761275D01*
X133915161Y-83775728D01*
X133900969Y-83796969D01*
X133879728Y-83811161D01*
X133865275Y-83825615D01*
X133841517Y-83836693D01*
X133815646Y-83853980D01*
X133796114Y-83857865D01*
X133781489Y-83864685D01*
X133723353Y-83872338D01*
X133715000Y-83874000D01*
X133265000Y-83874000D01*
X133256648Y-83872338D01*
X133198510Y-83864685D01*
X133183884Y-83857864D01*
X133164354Y-83853980D01*
X133138485Y-83836694D01*
X133114724Y-83825615D01*
X133100268Y-83811159D01*
X133079031Y-83796969D01*
X133064840Y-83775731D01*
X133050384Y-83761275D01*
X133039303Y-83737512D01*
X133022020Y-83711646D01*
X133018135Y-83692117D01*
X133011314Y-83677489D01*
X133003658Y-83619338D01*
X133002000Y-83611000D01*
X133002000Y-83111000D01*
X133003658Y-83102663D01*
X133011314Y-83044510D01*
X133018135Y-83029880D01*
X133022020Y-83010354D01*
X133039301Y-82984490D01*
X133050384Y-82960724D01*
X133064842Y-82946265D01*
X133079031Y-82925031D01*
X133100265Y-82910842D01*
X133114724Y-82896384D01*
X133138490Y-82885301D01*
X133164354Y-82868020D01*
X133183880Y-82864135D01*
X133198510Y-82857314D01*
X133256663Y-82849658D01*
X133265000Y-82848000D01*
X133715000Y-82848000D01*
X133723338Y-82849658D01*
G37*
G36*
X157445257Y-82576045D02*
G01*
X157492111Y-82581481D01*
X157508121Y-82588550D01*
X157531079Y-82593117D01*
X157555657Y-82609540D01*
X157573868Y-82617581D01*
X157586305Y-82630018D01*
X157608291Y-82644709D01*
X157622981Y-82666694D01*
X157635418Y-82679131D01*
X157643458Y-82697339D01*
X157659883Y-82721921D01*
X157664450Y-82744881D01*
X157671518Y-82760888D01*
X157676952Y-82807731D01*
X157678000Y-82813000D01*
X157678000Y-83213000D01*
X157676951Y-83218269D01*
X157671518Y-83265111D01*
X157664450Y-83281117D01*
X157659883Y-83304079D01*
X157643456Y-83328662D01*
X157635418Y-83346868D01*
X157622983Y-83359302D01*
X157608291Y-83381291D01*
X157586302Y-83395983D01*
X157573868Y-83408418D01*
X157555662Y-83416456D01*
X157531079Y-83432883D01*
X157508117Y-83437450D01*
X157492111Y-83444518D01*
X157445269Y-83449951D01*
X157440000Y-83451000D01*
X156240000Y-83451000D01*
X156234731Y-83449952D01*
X156187888Y-83444518D01*
X156171881Y-83437450D01*
X156148921Y-83432883D01*
X156124339Y-83416458D01*
X156106131Y-83408418D01*
X156093694Y-83395981D01*
X156071709Y-83381291D01*
X156057018Y-83359305D01*
X156044581Y-83346868D01*
X156036540Y-83328657D01*
X156020117Y-83304079D01*
X156015550Y-83281121D01*
X156008481Y-83265111D01*
X156003045Y-83218257D01*
X156002000Y-83213000D01*
X156002000Y-82813000D01*
X156003045Y-82807743D01*
X156008481Y-82760888D01*
X156015550Y-82744876D01*
X156020117Y-82721921D01*
X156036538Y-82697344D01*
X156044581Y-82679131D01*
X156057020Y-82666691D01*
X156071709Y-82644709D01*
X156093691Y-82630020D01*
X156106131Y-82617581D01*
X156124344Y-82609538D01*
X156148921Y-82593117D01*
X156171876Y-82588550D01*
X156187888Y-82581481D01*
X156234743Y-82576045D01*
X156240000Y-82575000D01*
X157440000Y-82575000D01*
X157445257Y-82576045D01*
G37*
G36*
X146649513Y-81262998D02*
G01*
X146659742Y-81262998D01*
X146699714Y-81270949D01*
X146800268Y-81286875D01*
X146832613Y-81297384D01*
X146859315Y-81302696D01*
X146896992Y-81318302D01*
X146955147Y-81337198D01*
X147009626Y-81364957D01*
X147047310Y-81380566D01*
X147069950Y-81395694D01*
X147100253Y-81411134D01*
X147182629Y-81470983D01*
X147216500Y-81493615D01*
X147223728Y-81500843D01*
X147231996Y-81506850D01*
X147347149Y-81622003D01*
X147353155Y-81630270D01*
X147360385Y-81637500D01*
X147383019Y-81671374D01*
X147442865Y-81753746D01*
X147458303Y-81784046D01*
X147473434Y-81806690D01*
X147489045Y-81844378D01*
X147516801Y-81898852D01*
X147535694Y-81956999D01*
X147551304Y-81994685D01*
X147556616Y-82021391D01*
X147567124Y-82053731D01*
X147583049Y-82154277D01*
X147591002Y-82194258D01*
X147591002Y-82204487D01*
X147592600Y-82214577D01*
X147592600Y-82377422D01*
X147591002Y-82387511D01*
X147591002Y-82397742D01*
X147583048Y-82437725D01*
X147567124Y-82538268D01*
X147556616Y-82570605D01*
X147551304Y-82597315D01*
X147535692Y-82635004D01*
X147516801Y-82693147D01*
X147489047Y-82747616D01*
X147473434Y-82785310D01*
X147458301Y-82807957D01*
X147442865Y-82838253D01*
X147383027Y-82920612D01*
X147360385Y-82954500D01*
X147353153Y-82961731D01*
X147347149Y-82969996D01*
X147231996Y-83085149D01*
X147223731Y-83091153D01*
X147216500Y-83098385D01*
X147182612Y-83121027D01*
X147100253Y-83180865D01*
X147069957Y-83196301D01*
X147047310Y-83211434D01*
X147009616Y-83227047D01*
X146955147Y-83254801D01*
X146897004Y-83273692D01*
X146859315Y-83289304D01*
X146832605Y-83294616D01*
X146800268Y-83305124D01*
X146699723Y-83321049D01*
X146659742Y-83329002D01*
X146649512Y-83329002D01*
X146639423Y-83330600D01*
X146476577Y-83330600D01*
X146466488Y-83329002D01*
X146456258Y-83329002D01*
X146416277Y-83321049D01*
X146315731Y-83305124D01*
X146283391Y-83294616D01*
X146256685Y-83289304D01*
X146218999Y-83273694D01*
X146160852Y-83254801D01*
X146106378Y-83227045D01*
X146068690Y-83211434D01*
X146046046Y-83196303D01*
X146015746Y-83180865D01*
X145933374Y-83121019D01*
X145899500Y-83098385D01*
X145892270Y-83091155D01*
X145884003Y-83085149D01*
X145768850Y-82969996D01*
X145762843Y-82961728D01*
X145755615Y-82954500D01*
X145732983Y-82920629D01*
X145673134Y-82838253D01*
X145657694Y-82807950D01*
X145642566Y-82785310D01*
X145626957Y-82747626D01*
X145599198Y-82693147D01*
X145580302Y-82634992D01*
X145564696Y-82597315D01*
X145559384Y-82570613D01*
X145548875Y-82538268D01*
X145532949Y-82437716D01*
X145524998Y-82397742D01*
X145524998Y-82387511D01*
X145523400Y-82377422D01*
X145523400Y-82214577D01*
X145524998Y-82204487D01*
X145524998Y-82194258D01*
X145532948Y-82154287D01*
X145548875Y-82053731D01*
X145559385Y-82021383D01*
X145564696Y-81994685D01*
X145580301Y-81957010D01*
X145599198Y-81898852D01*
X145626959Y-81844368D01*
X145642566Y-81806690D01*
X145657691Y-81784052D01*
X145673134Y-81753746D01*
X145732991Y-81671357D01*
X145755615Y-81637500D01*
X145762840Y-81630274D01*
X145768850Y-81622003D01*
X145884003Y-81506850D01*
X145892274Y-81500840D01*
X145899500Y-81493615D01*
X145933357Y-81470991D01*
X146015746Y-81411134D01*
X146046052Y-81395691D01*
X146068690Y-81380566D01*
X146106368Y-81364959D01*
X146160852Y-81337198D01*
X146219010Y-81318301D01*
X146256685Y-81302696D01*
X146283383Y-81297385D01*
X146315731Y-81286875D01*
X146416287Y-81270948D01*
X146456258Y-81262998D01*
X146466487Y-81262998D01*
X146476577Y-81261400D01*
X146639423Y-81261400D01*
X146649513Y-81262998D01*
G37*
G36*
X135270257Y-81276045D02*
G01*
X135317111Y-81281481D01*
X135333121Y-81288550D01*
X135356079Y-81293117D01*
X135380657Y-81309540D01*
X135398868Y-81317581D01*
X135411305Y-81330018D01*
X135433291Y-81344709D01*
X135447981Y-81366694D01*
X135460418Y-81379131D01*
X135468458Y-81397339D01*
X135484883Y-81421921D01*
X135489450Y-81444881D01*
X135496518Y-81460888D01*
X135501952Y-81507731D01*
X135503000Y-81513000D01*
X135503000Y-82063000D01*
X135501951Y-82068269D01*
X135496518Y-82115111D01*
X135489450Y-82131117D01*
X135484883Y-82154079D01*
X135468456Y-82178662D01*
X135460418Y-82196868D01*
X135447983Y-82209302D01*
X135433291Y-82231291D01*
X135411302Y-82245983D01*
X135398868Y-82258418D01*
X135380662Y-82266456D01*
X135356079Y-82282883D01*
X135333117Y-82287450D01*
X135317111Y-82294518D01*
X135270269Y-82299951D01*
X135265000Y-82301000D01*
X134865000Y-82301000D01*
X134859731Y-82299952D01*
X134812888Y-82294518D01*
X134796881Y-82287450D01*
X134773921Y-82282883D01*
X134749339Y-82266458D01*
X134731131Y-82258418D01*
X134718694Y-82245981D01*
X134696709Y-82231291D01*
X134682018Y-82209305D01*
X134669581Y-82196868D01*
X134661540Y-82178657D01*
X134645117Y-82154079D01*
X134640550Y-82131121D01*
X134633481Y-82115111D01*
X134628045Y-82068257D01*
X134627000Y-82063000D01*
X134627000Y-81513000D01*
X134628045Y-81507743D01*
X134633481Y-81460888D01*
X134640550Y-81444876D01*
X134645117Y-81421921D01*
X134661538Y-81397344D01*
X134669581Y-81379131D01*
X134682020Y-81366691D01*
X134696709Y-81344709D01*
X134718691Y-81330020D01*
X134731131Y-81317581D01*
X134749344Y-81309538D01*
X134773921Y-81293117D01*
X134796876Y-81288550D01*
X134812888Y-81281481D01*
X134859743Y-81276045D01*
X134865000Y-81275000D01*
X135265000Y-81275000D01*
X135270257Y-81276045D01*
G37*
G36*
X136920257Y-81276045D02*
G01*
X136967111Y-81281481D01*
X136983121Y-81288550D01*
X137006079Y-81293117D01*
X137030657Y-81309540D01*
X137048868Y-81317581D01*
X137061305Y-81330018D01*
X137083291Y-81344709D01*
X137097981Y-81366694D01*
X137110418Y-81379131D01*
X137118458Y-81397339D01*
X137134883Y-81421921D01*
X137139450Y-81444881D01*
X137146518Y-81460888D01*
X137151952Y-81507731D01*
X137153000Y-81513000D01*
X137153000Y-82063000D01*
X137151951Y-82068269D01*
X137146518Y-82115111D01*
X137139450Y-82131117D01*
X137134883Y-82154079D01*
X137118456Y-82178662D01*
X137110418Y-82196868D01*
X137097983Y-82209302D01*
X137083291Y-82231291D01*
X137061302Y-82245983D01*
X137048868Y-82258418D01*
X137030662Y-82266456D01*
X137006079Y-82282883D01*
X136983117Y-82287450D01*
X136967111Y-82294518D01*
X136920269Y-82299951D01*
X136915000Y-82301000D01*
X136515000Y-82301000D01*
X136509731Y-82299952D01*
X136462888Y-82294518D01*
X136446881Y-82287450D01*
X136423921Y-82282883D01*
X136399339Y-82266458D01*
X136381131Y-82258418D01*
X136368694Y-82245981D01*
X136346709Y-82231291D01*
X136332018Y-82209305D01*
X136319581Y-82196868D01*
X136311540Y-82178657D01*
X136295117Y-82154079D01*
X136290550Y-82131121D01*
X136283481Y-82115111D01*
X136278045Y-82068257D01*
X136277000Y-82063000D01*
X136277000Y-81513000D01*
X136278045Y-81507743D01*
X136283481Y-81460888D01*
X136290550Y-81444876D01*
X136295117Y-81421921D01*
X136311538Y-81397344D01*
X136319581Y-81379131D01*
X136332020Y-81366691D01*
X136346709Y-81344709D01*
X136368691Y-81330020D01*
X136381131Y-81317581D01*
X136399344Y-81309538D01*
X136423921Y-81293117D01*
X136446876Y-81288550D01*
X136462888Y-81281481D01*
X136509743Y-81276045D01*
X136515000Y-81275000D01*
X136915000Y-81275000D01*
X136920257Y-81276045D01*
G37*
G36*
X157423338Y-81296658D02*
G01*
X157481489Y-81304314D01*
X157496117Y-81311135D01*
X157515646Y-81315020D01*
X157541512Y-81332303D01*
X157565275Y-81343384D01*
X157579731Y-81357840D01*
X157600969Y-81372031D01*
X157615159Y-81393268D01*
X157629615Y-81407724D01*
X157640694Y-81431485D01*
X157657980Y-81457354D01*
X157661864Y-81476884D01*
X157668685Y-81491510D01*
X157676338Y-81549648D01*
X157678000Y-81558000D01*
X157678000Y-82008000D01*
X157676338Y-82016353D01*
X157668685Y-82074489D01*
X157661865Y-82089114D01*
X157657980Y-82108646D01*
X157640693Y-82134517D01*
X157629615Y-82158275D01*
X157615161Y-82172728D01*
X157600969Y-82193969D01*
X157579728Y-82208161D01*
X157565275Y-82222615D01*
X157541517Y-82233693D01*
X157515646Y-82250980D01*
X157496114Y-82254865D01*
X157481489Y-82261685D01*
X157423353Y-82269338D01*
X157415000Y-82271000D01*
X156265000Y-82271000D01*
X156256648Y-82269338D01*
X156198510Y-82261685D01*
X156183884Y-82254864D01*
X156164354Y-82250980D01*
X156138485Y-82233694D01*
X156114724Y-82222615D01*
X156100268Y-82208159D01*
X156079031Y-82193969D01*
X156064840Y-82172731D01*
X156050384Y-82158275D01*
X156039303Y-82134512D01*
X156022020Y-82108646D01*
X156018135Y-82089117D01*
X156011314Y-82074489D01*
X156003658Y-82016338D01*
X156002000Y-82008000D01*
X156002000Y-81558000D01*
X156003658Y-81549663D01*
X156011314Y-81491510D01*
X156018135Y-81476880D01*
X156022020Y-81457354D01*
X156039301Y-81431490D01*
X156050384Y-81407724D01*
X156064842Y-81393265D01*
X156079031Y-81372031D01*
X156100265Y-81357842D01*
X156114724Y-81343384D01*
X156138490Y-81332301D01*
X156164354Y-81315020D01*
X156183880Y-81311135D01*
X156198510Y-81304314D01*
X156256663Y-81296658D01*
X156265000Y-81295000D01*
X157415000Y-81295000D01*
X157423338Y-81296658D01*
G37*
G36*
X125225773Y-80430237D02*
G01*
X125386600Y-80496854D01*
X125531341Y-80593567D01*
X125654433Y-80716659D01*
X125751146Y-80861400D01*
X125817763Y-81022227D01*
X125851724Y-81192961D01*
X125851724Y-81367039D01*
X125817763Y-81537773D01*
X125751146Y-81698600D01*
X125654433Y-81843341D01*
X125531341Y-81966433D01*
X125386600Y-82063146D01*
X125225773Y-82129763D01*
X125055039Y-82163724D01*
X124880961Y-82163724D01*
X124710227Y-82129763D01*
X124549400Y-82063146D01*
X124404659Y-81966433D01*
X124281567Y-81843341D01*
X124184854Y-81698600D01*
X124118237Y-81537773D01*
X124084276Y-81367039D01*
X124084276Y-81192961D01*
X124118237Y-81022227D01*
X124184854Y-80861400D01*
X124281567Y-80716659D01*
X124404659Y-80593567D01*
X124549400Y-80496854D01*
X124710227Y-80430237D01*
X124880961Y-80396276D01*
X125055039Y-80396276D01*
X125225773Y-80430237D01*
G37*
G36*
X127788257Y-79953045D02*
G01*
X127835111Y-79958481D01*
X127851121Y-79965550D01*
X127874079Y-79970117D01*
X127898657Y-79986540D01*
X127916868Y-79994581D01*
X127929305Y-80007018D01*
X127951291Y-80021709D01*
X127965981Y-80043694D01*
X127978418Y-80056131D01*
X127986458Y-80074339D01*
X128002883Y-80098921D01*
X128007450Y-80121881D01*
X128014518Y-80137888D01*
X128019952Y-80184731D01*
X128021000Y-80190000D01*
X128021000Y-80590000D01*
X128019951Y-80595269D01*
X128014518Y-80642111D01*
X128007450Y-80658117D01*
X128002883Y-80681079D01*
X127986456Y-80705662D01*
X127978418Y-80723868D01*
X127965983Y-80736302D01*
X127951291Y-80758291D01*
X127929302Y-80772983D01*
X127916868Y-80785418D01*
X127898662Y-80793456D01*
X127874079Y-80809883D01*
X127851117Y-80814450D01*
X127835111Y-80821518D01*
X127788269Y-80826951D01*
X127783000Y-80828000D01*
X127233000Y-80828000D01*
X127227731Y-80826952D01*
X127180888Y-80821518D01*
X127164881Y-80814450D01*
X127141921Y-80809883D01*
X127117339Y-80793458D01*
X127099131Y-80785418D01*
X127086694Y-80772981D01*
X127064709Y-80758291D01*
X127050018Y-80736305D01*
X127037581Y-80723868D01*
X127029540Y-80705657D01*
X127013117Y-80681079D01*
X127008550Y-80658121D01*
X127001481Y-80642111D01*
X126996045Y-80595257D01*
X126995000Y-80590000D01*
X126995000Y-80190000D01*
X126996045Y-80184743D01*
X127001481Y-80137888D01*
X127008550Y-80121876D01*
X127013117Y-80098921D01*
X127029538Y-80074344D01*
X127037581Y-80056131D01*
X127050020Y-80043691D01*
X127064709Y-80021709D01*
X127086691Y-80007020D01*
X127099131Y-79994581D01*
X127117344Y-79986538D01*
X127141921Y-79970117D01*
X127164876Y-79965550D01*
X127180888Y-79958481D01*
X127227743Y-79953045D01*
X127233000Y-79952000D01*
X127783000Y-79952000D01*
X127788257Y-79953045D01*
G37*
G36*
X157440223Y-79679603D02*
G01*
X157575884Y-79715953D01*
X157697514Y-79786176D01*
X157796824Y-79885486D01*
X157867047Y-80007116D01*
X157903397Y-80142777D01*
X157903397Y-80283223D01*
X157867047Y-80418884D01*
X157796824Y-80540514D01*
X157697514Y-80639824D01*
X157575884Y-80710047D01*
X157440223Y-80746397D01*
X157370000Y-80751000D01*
X157367870Y-80751000D01*
X156672130Y-80751000D01*
X156670000Y-80751000D01*
X156599777Y-80746397D01*
X156464116Y-80710047D01*
X156342486Y-80639824D01*
X156243176Y-80540514D01*
X156172953Y-80418884D01*
X156136603Y-80283223D01*
X156136603Y-80142777D01*
X156172953Y-80007116D01*
X156243176Y-79885486D01*
X156342486Y-79786176D01*
X156464116Y-79715953D01*
X156599777Y-79679603D01*
X156670000Y-79675000D01*
X157370000Y-79675000D01*
X157440223Y-79679603D01*
G37*
G36*
X161240223Y-79679603D02*
G01*
X161375884Y-79715953D01*
X161497514Y-79786176D01*
X161596824Y-79885486D01*
X161667047Y-80007116D01*
X161703397Y-80142777D01*
X161703397Y-80283223D01*
X161667047Y-80418884D01*
X161596824Y-80540514D01*
X161497514Y-80639824D01*
X161375884Y-80710047D01*
X161240223Y-80746397D01*
X161170000Y-80751000D01*
X161167870Y-80751000D01*
X160472130Y-80751000D01*
X160470000Y-80751000D01*
X160399777Y-80746397D01*
X160264116Y-80710047D01*
X160142486Y-80639824D01*
X160043176Y-80540514D01*
X159972953Y-80418884D01*
X159936603Y-80283223D01*
X159936603Y-80142777D01*
X159972953Y-80007116D01*
X160043176Y-79885486D01*
X160142486Y-79786176D01*
X160264116Y-79715953D01*
X160399777Y-79679603D01*
X160470000Y-79675000D01*
X161170000Y-79675000D01*
X161240223Y-79679603D01*
G37*
G36*
X130890938Y-79230650D02*
G01*
X130899871Y-79234594D01*
X130906300Y-79235531D01*
X130946498Y-79255182D01*
X130987759Y-79273401D01*
X130991578Y-79277220D01*
X130991829Y-79277343D01*
X131058656Y-79344170D01*
X131058778Y-79344420D01*
X131062599Y-79348241D01*
X131080822Y-79389512D01*
X131100468Y-79429699D01*
X131101404Y-79436126D01*
X131105350Y-79445062D01*
X131113000Y-79511000D01*
X131113000Y-80161000D01*
X131105350Y-80226938D01*
X131101404Y-80235874D01*
X131100468Y-80242300D01*
X131080826Y-80282477D01*
X131062599Y-80323759D01*
X131058777Y-80327580D01*
X131058656Y-80327829D01*
X130991829Y-80394656D01*
X130991580Y-80394777D01*
X130987759Y-80398599D01*
X130946477Y-80416826D01*
X130906300Y-80436468D01*
X130899874Y-80437404D01*
X130890938Y-80441350D01*
X130825000Y-80449000D01*
X129525000Y-80449000D01*
X129459062Y-80441350D01*
X129450126Y-80437404D01*
X129443699Y-80436468D01*
X129403512Y-80416822D01*
X129362241Y-80398599D01*
X129358420Y-80394778D01*
X129358170Y-80394656D01*
X129291343Y-80327829D01*
X129291220Y-80327578D01*
X129287401Y-80323759D01*
X129269182Y-80282498D01*
X129249531Y-80242300D01*
X129248594Y-80235871D01*
X129244650Y-80226938D01*
X129237000Y-80161000D01*
X129237000Y-79511000D01*
X129244650Y-79445062D01*
X129248594Y-79436129D01*
X129249531Y-79429699D01*
X129269186Y-79389491D01*
X129287401Y-79348241D01*
X129291219Y-79344422D01*
X129291343Y-79344170D01*
X129358170Y-79277343D01*
X129358422Y-79277219D01*
X129362241Y-79273401D01*
X129403491Y-79255186D01*
X129443699Y-79235531D01*
X129450129Y-79234594D01*
X129459062Y-79230650D01*
X129525000Y-79223000D01*
X130825000Y-79223000D01*
X130890938Y-79230650D01*
G37*
G36*
X132975328Y-76472278D02*
G01*
X133026002Y-76472278D01*
X133030263Y-76472278D01*
X133041392Y-76473743D01*
X133045508Y-76474845D01*
X133045509Y-76474846D01*
X133163356Y-76506422D01*
X133163358Y-76506423D01*
X133167471Y-76507525D01*
X133177842Y-76511821D01*
X133290881Y-76577084D01*
X133299787Y-76583917D01*
X133392083Y-76676213D01*
X133398916Y-76685119D01*
X133464179Y-76798158D01*
X133468475Y-76808529D01*
X133502257Y-76934608D01*
X133503722Y-76945737D01*
X133503722Y-76949997D01*
X133503722Y-76986544D01*
X133504123Y-76991636D01*
X133506688Y-77007832D01*
X133508000Y-77011000D01*
X133508000Y-77561000D01*
X133495406Y-77591406D01*
X133478646Y-77598347D01*
X133465000Y-77625130D01*
X133465000Y-77799215D01*
X133479225Y-77825829D01*
X133479542Y-77825893D01*
X133491870Y-77834130D01*
X133500107Y-77846458D01*
X133503000Y-77861000D01*
X133503000Y-78861000D01*
X133500107Y-78875542D01*
X133491870Y-78887870D01*
X133479542Y-78896107D01*
X133479224Y-78896170D01*
X133465000Y-78922782D01*
X133465000Y-79086012D01*
X133471363Y-79105594D01*
X133486995Y-79127110D01*
X133495406Y-79130594D01*
X133503203Y-79149418D01*
X133505954Y-79153205D01*
X133506686Y-79157829D01*
X133508000Y-79161000D01*
X133508000Y-79711000D01*
X133503722Y-79721328D01*
X133503722Y-79776263D01*
X133502257Y-79787392D01*
X133468475Y-79913471D01*
X133464179Y-79923842D01*
X133398916Y-80036881D01*
X133392083Y-80045787D01*
X133299787Y-80138083D01*
X133290881Y-80144916D01*
X133177842Y-80210179D01*
X133167471Y-80214475D01*
X133041392Y-80248257D01*
X133030263Y-80249722D01*
X133026002Y-80249722D01*
X132989456Y-80249722D01*
X132984364Y-80250123D01*
X132968167Y-80252688D01*
X132965000Y-80254000D01*
X132959883Y-80254000D01*
X132475295Y-80254000D01*
X132465000Y-80254000D01*
X132454672Y-80249722D01*
X132403998Y-80249722D01*
X132399737Y-80249722D01*
X132388608Y-80248257D01*
X132262529Y-80214475D01*
X132252158Y-80210179D01*
X132139119Y-80144916D01*
X132130213Y-80138083D01*
X132037917Y-80045787D01*
X132031084Y-80036881D01*
X131965821Y-79923842D01*
X131961525Y-79913471D01*
X131954117Y-79885826D01*
X131928846Y-79791509D01*
X131928845Y-79791508D01*
X131927743Y-79787392D01*
X131926278Y-79776263D01*
X131926278Y-79735455D01*
X131925877Y-79730363D01*
X131923312Y-79714168D01*
X131922000Y-79711000D01*
X131922000Y-79161000D01*
X131934594Y-79130594D01*
X131951353Y-79123652D01*
X131965000Y-79096869D01*
X131965000Y-78922782D01*
X131950775Y-78896170D01*
X131950458Y-78896107D01*
X131938130Y-78887870D01*
X131929893Y-78875542D01*
X131927000Y-78861000D01*
X131927000Y-77861000D01*
X131929893Y-77846458D01*
X131938130Y-77834130D01*
X131950458Y-77825893D01*
X131950774Y-77825829D01*
X131965000Y-77799215D01*
X131965000Y-77635987D01*
X131958637Y-77616405D01*
X131943004Y-77594889D01*
X131934594Y-77591406D01*
X131926797Y-77572582D01*
X131924044Y-77568793D01*
X131923311Y-77564166D01*
X131922000Y-77561000D01*
X131922000Y-77011000D01*
X131926278Y-77000671D01*
X131926278Y-76945737D01*
X131927743Y-76934608D01*
X131940717Y-76886187D01*
X131960422Y-76812643D01*
X131960423Y-76812638D01*
X131961525Y-76808529D01*
X131965821Y-76798158D01*
X131967950Y-76794470D01*
X132028953Y-76688809D01*
X132028955Y-76688805D01*
X132031084Y-76685119D01*
X132037917Y-76676213D01*
X132040928Y-76673201D01*
X132040932Y-76673197D01*
X132127197Y-76586932D01*
X132127201Y-76586928D01*
X132130213Y-76583917D01*
X132139119Y-76577084D01*
X132142805Y-76574955D01*
X132142809Y-76574953D01*
X132248470Y-76513950D01*
X132248471Y-76513949D01*
X132252158Y-76511821D01*
X132262529Y-76507525D01*
X132266638Y-76506423D01*
X132266643Y-76506422D01*
X132384490Y-76474846D01*
X132384492Y-76474845D01*
X132388608Y-76473743D01*
X132399737Y-76472278D01*
X132440544Y-76472278D01*
X132445636Y-76471877D01*
X132461832Y-76469311D01*
X132465000Y-76468000D01*
X132965000Y-76468000D01*
X132975328Y-76472278D01*
G37*
G36*
X141188513Y-77579998D02*
G01*
X141198742Y-77579998D01*
X141238714Y-77587949D01*
X141339268Y-77603875D01*
X141371613Y-77614384D01*
X141398315Y-77619696D01*
X141435992Y-77635302D01*
X141494147Y-77654198D01*
X141548626Y-77681957D01*
X141586310Y-77697566D01*
X141608950Y-77712694D01*
X141639253Y-77728134D01*
X141721629Y-77787983D01*
X141755500Y-77810615D01*
X141762728Y-77817843D01*
X141770996Y-77823850D01*
X141886149Y-77939003D01*
X141892155Y-77947270D01*
X141899385Y-77954500D01*
X141922019Y-77988374D01*
X141981865Y-78070746D01*
X141997303Y-78101046D01*
X142012434Y-78123690D01*
X142028045Y-78161378D01*
X142055801Y-78215852D01*
X142074694Y-78273999D01*
X142090304Y-78311685D01*
X142095616Y-78338391D01*
X142106124Y-78370731D01*
X142122049Y-78471277D01*
X142130002Y-78511258D01*
X142130002Y-78521487D01*
X142131600Y-78531577D01*
X142131600Y-78694422D01*
X142130002Y-78704511D01*
X142130002Y-78714742D01*
X142122048Y-78754725D01*
X142106124Y-78855268D01*
X142095616Y-78887605D01*
X142090304Y-78914315D01*
X142074692Y-78952004D01*
X142055801Y-79010147D01*
X142028047Y-79064616D01*
X142012434Y-79102310D01*
X141997301Y-79124957D01*
X141981865Y-79155253D01*
X141922027Y-79237612D01*
X141899385Y-79271500D01*
X141892153Y-79278731D01*
X141886149Y-79286996D01*
X141770996Y-79402149D01*
X141762731Y-79408153D01*
X141755500Y-79415385D01*
X141721612Y-79438027D01*
X141639253Y-79497865D01*
X141608957Y-79513301D01*
X141586310Y-79528434D01*
X141548616Y-79544047D01*
X141494147Y-79571801D01*
X141436004Y-79590692D01*
X141398315Y-79606304D01*
X141371605Y-79611616D01*
X141339268Y-79622124D01*
X141238723Y-79638049D01*
X141198742Y-79646002D01*
X141188512Y-79646002D01*
X141178423Y-79647600D01*
X141015577Y-79647600D01*
X141005488Y-79646002D01*
X140995258Y-79646002D01*
X140955277Y-79638049D01*
X140854731Y-79622124D01*
X140822391Y-79611616D01*
X140795685Y-79606304D01*
X140757999Y-79590694D01*
X140699852Y-79571801D01*
X140645378Y-79544045D01*
X140607690Y-79528434D01*
X140585046Y-79513303D01*
X140554746Y-79497865D01*
X140472374Y-79438019D01*
X140438500Y-79415385D01*
X140431270Y-79408155D01*
X140423003Y-79402149D01*
X140307850Y-79286996D01*
X140301843Y-79278728D01*
X140294615Y-79271500D01*
X140271983Y-79237629D01*
X140212134Y-79155253D01*
X140196694Y-79124950D01*
X140181566Y-79102310D01*
X140165957Y-79064626D01*
X140138198Y-79010147D01*
X140119302Y-78951992D01*
X140103696Y-78914315D01*
X140098384Y-78887613D01*
X140087875Y-78855268D01*
X140071949Y-78754716D01*
X140063998Y-78714742D01*
X140063998Y-78704511D01*
X140062400Y-78694422D01*
X140062400Y-78531577D01*
X140063998Y-78521487D01*
X140063998Y-78511258D01*
X140071948Y-78471287D01*
X140087875Y-78370731D01*
X140098385Y-78338383D01*
X140103696Y-78311685D01*
X140119301Y-78274010D01*
X140138198Y-78215852D01*
X140165959Y-78161368D01*
X140181566Y-78123690D01*
X140196691Y-78101052D01*
X140212134Y-78070746D01*
X140271991Y-77988357D01*
X140294615Y-77954500D01*
X140301840Y-77947274D01*
X140307850Y-77939003D01*
X140423003Y-77823850D01*
X140431274Y-77817840D01*
X140438500Y-77810615D01*
X140472357Y-77787991D01*
X140554746Y-77728134D01*
X140585052Y-77712691D01*
X140607690Y-77697566D01*
X140645368Y-77681959D01*
X140699852Y-77654198D01*
X140758010Y-77635301D01*
X140795685Y-77619696D01*
X140822383Y-77614385D01*
X140854731Y-77603875D01*
X140955287Y-77587948D01*
X140995258Y-77579998D01*
X141005487Y-77579998D01*
X141015577Y-77578400D01*
X141178423Y-77578400D01*
X141188513Y-77579998D01*
G37*
G36*
X125225773Y-77890237D02*
G01*
X125386600Y-77956854D01*
X125531341Y-78053567D01*
X125654433Y-78176659D01*
X125751146Y-78321400D01*
X125817763Y-78482227D01*
X125851724Y-78652961D01*
X125851724Y-78827039D01*
X125817763Y-78997773D01*
X125751146Y-79158600D01*
X125654433Y-79303341D01*
X125531341Y-79426433D01*
X125386600Y-79523146D01*
X125225773Y-79589763D01*
X125055039Y-79623724D01*
X124880961Y-79623724D01*
X124710227Y-79589763D01*
X124549400Y-79523146D01*
X124404659Y-79426433D01*
X124281567Y-79303341D01*
X124184854Y-79158600D01*
X124118237Y-78997773D01*
X124084276Y-78827039D01*
X124084276Y-78652961D01*
X124118237Y-78482227D01*
X124184854Y-78321400D01*
X124281567Y-78176659D01*
X124404659Y-78053567D01*
X124549400Y-77956854D01*
X124710227Y-77890237D01*
X124880961Y-77856276D01*
X125055039Y-77856276D01*
X125225773Y-77890237D01*
G37*
G36*
X152961588Y-78103658D02*
G01*
X153018122Y-78111101D01*
X153032343Y-78117732D01*
X153051504Y-78121544D01*
X153076884Y-78138502D01*
X153099941Y-78149254D01*
X153113966Y-78163279D01*
X153134800Y-78177200D01*
X153148720Y-78198033D01*
X153162745Y-78212058D01*
X153173495Y-78235112D01*
X153190456Y-78260496D01*
X153194267Y-78279658D01*
X153200898Y-78293877D01*
X153208338Y-78350398D01*
X153210000Y-78358750D01*
X153210000Y-79121250D01*
X153208338Y-79129603D01*
X153200898Y-79186122D01*
X153194267Y-79200340D01*
X153190456Y-79219504D01*
X153173494Y-79244889D01*
X153162745Y-79267941D01*
X153148722Y-79281963D01*
X153134800Y-79302800D01*
X153113963Y-79316722D01*
X153099941Y-79330745D01*
X153076889Y-79341494D01*
X153051504Y-79358456D01*
X153032340Y-79362267D01*
X153018122Y-79368898D01*
X152961603Y-79376338D01*
X152953250Y-79378000D01*
X152515750Y-79378000D01*
X152507398Y-79376338D01*
X152450877Y-79368898D01*
X152436658Y-79362267D01*
X152417496Y-79358456D01*
X152392112Y-79341495D01*
X152369058Y-79330745D01*
X152355033Y-79316720D01*
X152334200Y-79302800D01*
X152320279Y-79281966D01*
X152306254Y-79267941D01*
X152295502Y-79244884D01*
X152278544Y-79219504D01*
X152274732Y-79200343D01*
X152268101Y-79186122D01*
X152260658Y-79129588D01*
X152259000Y-79121250D01*
X152259000Y-78358750D01*
X152260658Y-78350413D01*
X152268101Y-78293877D01*
X152274733Y-78279654D01*
X152278544Y-78260496D01*
X152295500Y-78235117D01*
X152306254Y-78212058D01*
X152320281Y-78198030D01*
X152334200Y-78177200D01*
X152355030Y-78163281D01*
X152369058Y-78149254D01*
X152392117Y-78138500D01*
X152417496Y-78121544D01*
X152436654Y-78117733D01*
X152450877Y-78111101D01*
X152507413Y-78103658D01*
X152515750Y-78102000D01*
X152953250Y-78102000D01*
X152961588Y-78103658D01*
G37*
G36*
X155086588Y-78103658D02*
G01*
X155143122Y-78111101D01*
X155157343Y-78117732D01*
X155176504Y-78121544D01*
X155201884Y-78138502D01*
X155224941Y-78149254D01*
X155238966Y-78163279D01*
X155259800Y-78177200D01*
X155273720Y-78198033D01*
X155287745Y-78212058D01*
X155298495Y-78235112D01*
X155315456Y-78260496D01*
X155319267Y-78279658D01*
X155325898Y-78293877D01*
X155333338Y-78350398D01*
X155335000Y-78358750D01*
X155335000Y-79121250D01*
X155333338Y-79129603D01*
X155325898Y-79186122D01*
X155319267Y-79200340D01*
X155315456Y-79219504D01*
X155298494Y-79244889D01*
X155287745Y-79267941D01*
X155273722Y-79281963D01*
X155259800Y-79302800D01*
X155238963Y-79316722D01*
X155224941Y-79330745D01*
X155201889Y-79341494D01*
X155176504Y-79358456D01*
X155157340Y-79362267D01*
X155143122Y-79368898D01*
X155086603Y-79376338D01*
X155078250Y-79378000D01*
X154640750Y-79378000D01*
X154632398Y-79376338D01*
X154575877Y-79368898D01*
X154561658Y-79362267D01*
X154542496Y-79358456D01*
X154517112Y-79341495D01*
X154494058Y-79330745D01*
X154480033Y-79316720D01*
X154459200Y-79302800D01*
X154445279Y-79281966D01*
X154431254Y-79267941D01*
X154420502Y-79244884D01*
X154403544Y-79219504D01*
X154399732Y-79200343D01*
X154393101Y-79186122D01*
X154385658Y-79129588D01*
X154384000Y-79121250D01*
X154384000Y-78358750D01*
X154385658Y-78350413D01*
X154393101Y-78293877D01*
X154399733Y-78279654D01*
X154403544Y-78260496D01*
X154420500Y-78235117D01*
X154431254Y-78212058D01*
X154445281Y-78198030D01*
X154459200Y-78177200D01*
X154480030Y-78163281D01*
X154494058Y-78149254D01*
X154517117Y-78138500D01*
X154542496Y-78121544D01*
X154561654Y-78117733D01*
X154575877Y-78111101D01*
X154632413Y-78103658D01*
X154640750Y-78102000D01*
X155078250Y-78102000D01*
X155086588Y-78103658D01*
G37*
G36*
X144606938Y-78085650D02*
G01*
X144615871Y-78089594D01*
X144622300Y-78090531D01*
X144662498Y-78110182D01*
X144703759Y-78128401D01*
X144707578Y-78132220D01*
X144707829Y-78132343D01*
X144774656Y-78199170D01*
X144774778Y-78199420D01*
X144778599Y-78203241D01*
X144796822Y-78244512D01*
X144816468Y-78284699D01*
X144817404Y-78291126D01*
X144821350Y-78300062D01*
X144829000Y-78366000D01*
X144829000Y-79016000D01*
X144821350Y-79081938D01*
X144817404Y-79090874D01*
X144816468Y-79097300D01*
X144796826Y-79137477D01*
X144778599Y-79178759D01*
X144774777Y-79182580D01*
X144774656Y-79182829D01*
X144707829Y-79249656D01*
X144707580Y-79249777D01*
X144703759Y-79253599D01*
X144662477Y-79271826D01*
X144622300Y-79291468D01*
X144615874Y-79292404D01*
X144606938Y-79296350D01*
X144541000Y-79304000D01*
X143241000Y-79304000D01*
X143175062Y-79296350D01*
X143166126Y-79292404D01*
X143159699Y-79291468D01*
X143119512Y-79271822D01*
X143078241Y-79253599D01*
X143074420Y-79249778D01*
X143074170Y-79249656D01*
X143007343Y-79182829D01*
X143007220Y-79182578D01*
X143003401Y-79178759D01*
X142985182Y-79137498D01*
X142965531Y-79097300D01*
X142964594Y-79090871D01*
X142960650Y-79081938D01*
X142953000Y-79016000D01*
X142953000Y-78366000D01*
X142960650Y-78300062D01*
X142964594Y-78291129D01*
X142965531Y-78284699D01*
X142985186Y-78244491D01*
X143003401Y-78203241D01*
X143007219Y-78199422D01*
X143007343Y-78199170D01*
X143074170Y-78132343D01*
X143074422Y-78132219D01*
X143078241Y-78128401D01*
X143119491Y-78110186D01*
X143159699Y-78090531D01*
X143166129Y-78089594D01*
X143175062Y-78085650D01*
X143241000Y-78078000D01*
X144541000Y-78078000D01*
X144606938Y-78085650D01*
G37*
G36*
X127788257Y-78303045D02*
G01*
X127835111Y-78308481D01*
X127851121Y-78315550D01*
X127874079Y-78320117D01*
X127898657Y-78336540D01*
X127916868Y-78344581D01*
X127929305Y-78357018D01*
X127951291Y-78371709D01*
X127965981Y-78393694D01*
X127978418Y-78406131D01*
X127986458Y-78424339D01*
X128002883Y-78448921D01*
X128007450Y-78471881D01*
X128014518Y-78487888D01*
X128019952Y-78534731D01*
X128021000Y-78540000D01*
X128021000Y-78940000D01*
X128019951Y-78945269D01*
X128014518Y-78992111D01*
X128007450Y-79008117D01*
X128002883Y-79031079D01*
X127986456Y-79055662D01*
X127978418Y-79073868D01*
X127965983Y-79086302D01*
X127951291Y-79108291D01*
X127929302Y-79122983D01*
X127916868Y-79135418D01*
X127898662Y-79143456D01*
X127874079Y-79159883D01*
X127851117Y-79164450D01*
X127835111Y-79171518D01*
X127788269Y-79176951D01*
X127783000Y-79178000D01*
X127233000Y-79178000D01*
X127227731Y-79176952D01*
X127180888Y-79171518D01*
X127164881Y-79164450D01*
X127141921Y-79159883D01*
X127117339Y-79143458D01*
X127099131Y-79135418D01*
X127086694Y-79122981D01*
X127064709Y-79108291D01*
X127050018Y-79086305D01*
X127037581Y-79073868D01*
X127029540Y-79055657D01*
X127013117Y-79031079D01*
X127008550Y-79008121D01*
X127001481Y-78992111D01*
X126996045Y-78945257D01*
X126995000Y-78940000D01*
X126995000Y-78540000D01*
X126996045Y-78534743D01*
X127001481Y-78487888D01*
X127008550Y-78471876D01*
X127013117Y-78448921D01*
X127029538Y-78424344D01*
X127037581Y-78406131D01*
X127050020Y-78393691D01*
X127064709Y-78371709D01*
X127086691Y-78357020D01*
X127099131Y-78344581D01*
X127117344Y-78336538D01*
X127141921Y-78320117D01*
X127164876Y-78315550D01*
X127180888Y-78308481D01*
X127227743Y-78303045D01*
X127233000Y-78302000D01*
X127783000Y-78302000D01*
X127788257Y-78303045D01*
G37*
G36*
X147655944Y-77842311D02*
G01*
X147716936Y-77883064D01*
X147757689Y-77944056D01*
X147772000Y-78016000D01*
X147772000Y-78316000D01*
X147757689Y-78387944D01*
X147716936Y-78448936D01*
X147655944Y-78489689D01*
X147584000Y-78504000D01*
X146559000Y-78504000D01*
X146487056Y-78489689D01*
X146426064Y-78448936D01*
X146385311Y-78387944D01*
X146371000Y-78316000D01*
X146371000Y-78016000D01*
X146385311Y-77944056D01*
X146426064Y-77883064D01*
X146487056Y-77842311D01*
X146559000Y-77828000D01*
X147584000Y-77828000D01*
X147655944Y-77842311D01*
G37*
G36*
X149930944Y-77842311D02*
G01*
X149991936Y-77883064D01*
X150032689Y-77944056D01*
X150047000Y-78016000D01*
X150047000Y-78316000D01*
X150032689Y-78387944D01*
X149991936Y-78448936D01*
X149930944Y-78489689D01*
X149859000Y-78504000D01*
X148834000Y-78504000D01*
X148762056Y-78489689D01*
X148701064Y-78448936D01*
X148660311Y-78387944D01*
X148646000Y-78316000D01*
X148646000Y-78016000D01*
X148660311Y-77944056D01*
X148701064Y-77883064D01*
X148762056Y-77842311D01*
X148834000Y-77828000D01*
X149859000Y-77828000D01*
X149930944Y-77842311D01*
G37*
G36*
X149930944Y-76892311D02*
G01*
X149991936Y-76933064D01*
X150032689Y-76994056D01*
X150047000Y-77066000D01*
X150047000Y-77366000D01*
X150032689Y-77437944D01*
X149991936Y-77498936D01*
X149930944Y-77539689D01*
X149859000Y-77554000D01*
X148834000Y-77554000D01*
X148762056Y-77539689D01*
X148701064Y-77498936D01*
X148660311Y-77437944D01*
X148646000Y-77366000D01*
X148646000Y-77066000D01*
X148660311Y-76994056D01*
X148701064Y-76933064D01*
X148762056Y-76892311D01*
X148834000Y-76878000D01*
X149859000Y-76878000D01*
X149930944Y-76892311D01*
G37*
G36*
X130890938Y-76280650D02*
G01*
X130899871Y-76284594D01*
X130906300Y-76285531D01*
X130946498Y-76305182D01*
X130987759Y-76323401D01*
X130991578Y-76327220D01*
X130991829Y-76327343D01*
X131058656Y-76394170D01*
X131058778Y-76394420D01*
X131062599Y-76398241D01*
X131080822Y-76439512D01*
X131100468Y-76479699D01*
X131101404Y-76486126D01*
X131105350Y-76495062D01*
X131113000Y-76561000D01*
X131113000Y-77211000D01*
X131105350Y-77276938D01*
X131101404Y-77285874D01*
X131100468Y-77292300D01*
X131080826Y-77332477D01*
X131062599Y-77373759D01*
X131058777Y-77377580D01*
X131058656Y-77377829D01*
X130991829Y-77444656D01*
X130991580Y-77444777D01*
X130987759Y-77448599D01*
X130946477Y-77466826D01*
X130906300Y-77486468D01*
X130899874Y-77487404D01*
X130890938Y-77491350D01*
X130825000Y-77499000D01*
X129525000Y-77499000D01*
X129459062Y-77491350D01*
X129450126Y-77487404D01*
X129443699Y-77486468D01*
X129403512Y-77466822D01*
X129362241Y-77448599D01*
X129358420Y-77444778D01*
X129358170Y-77444656D01*
X129291343Y-77377829D01*
X129291220Y-77377578D01*
X129287401Y-77373759D01*
X129269182Y-77332498D01*
X129249531Y-77292300D01*
X129248594Y-77285871D01*
X129244650Y-77276938D01*
X129237000Y-77211000D01*
X129237000Y-76561000D01*
X129244650Y-76495062D01*
X129248594Y-76486129D01*
X129249531Y-76479699D01*
X129269186Y-76439491D01*
X129287401Y-76398241D01*
X129291219Y-76394422D01*
X129291343Y-76394170D01*
X129358170Y-76327343D01*
X129358422Y-76327219D01*
X129362241Y-76323401D01*
X129403491Y-76305186D01*
X129443699Y-76285531D01*
X129450129Y-76284594D01*
X129459062Y-76280650D01*
X129525000Y-76273000D01*
X130825000Y-76273000D01*
X130890938Y-76280650D01*
G37*
G36*
X125225773Y-75350237D02*
G01*
X125386600Y-75416854D01*
X125531341Y-75513567D01*
X125654433Y-75636659D01*
X125751146Y-75781400D01*
X125817763Y-75942227D01*
X125851724Y-76112961D01*
X125851724Y-76287039D01*
X125817763Y-76457773D01*
X125751146Y-76618600D01*
X125654433Y-76763341D01*
X125531341Y-76886433D01*
X125386600Y-76983146D01*
X125225773Y-77049763D01*
X125055039Y-77083724D01*
X124880961Y-77083724D01*
X124710227Y-77049763D01*
X124549400Y-76983146D01*
X124404659Y-76886433D01*
X124281567Y-76763341D01*
X124184854Y-76618600D01*
X124118237Y-76457773D01*
X124084276Y-76287039D01*
X124084276Y-76112961D01*
X124118237Y-75942227D01*
X124184854Y-75781400D01*
X124281567Y-75636659D01*
X124404659Y-75513567D01*
X124549400Y-75416854D01*
X124710227Y-75350237D01*
X124880961Y-75316276D01*
X125055039Y-75316276D01*
X125225773Y-75350237D01*
G37*
G36*
X152204938Y-74761650D02*
G01*
X152213871Y-74765594D01*
X152220300Y-74766531D01*
X152260498Y-74786182D01*
X152301759Y-74804401D01*
X152305578Y-74808220D01*
X152305829Y-74808343D01*
X152372656Y-74875170D01*
X152372778Y-74875420D01*
X152376599Y-74879241D01*
X152394822Y-74920512D01*
X152414468Y-74960699D01*
X152415404Y-74967126D01*
X152419350Y-74976062D01*
X152427000Y-75042000D01*
X152427000Y-76342000D01*
X152419350Y-76407938D01*
X152415404Y-76416874D01*
X152414468Y-76423300D01*
X152394826Y-76463477D01*
X152376599Y-76504759D01*
X152372777Y-76508580D01*
X152372656Y-76508829D01*
X152305829Y-76575656D01*
X152305580Y-76575777D01*
X152301759Y-76579599D01*
X152260477Y-76597826D01*
X152220300Y-76617468D01*
X152213874Y-76618404D01*
X152204938Y-76622350D01*
X152139000Y-76630000D01*
X151489000Y-76630000D01*
X151423062Y-76622350D01*
X151414126Y-76618404D01*
X151407699Y-76617468D01*
X151367512Y-76597822D01*
X151326241Y-76579599D01*
X151322420Y-76575778D01*
X151322170Y-76575656D01*
X151255343Y-76508829D01*
X151255220Y-76508578D01*
X151251401Y-76504759D01*
X151233182Y-76463498D01*
X151213531Y-76423300D01*
X151212594Y-76416871D01*
X151208650Y-76407938D01*
X151201000Y-76342000D01*
X151201000Y-75042000D01*
X151208650Y-74976062D01*
X151212594Y-74967129D01*
X151213531Y-74960699D01*
X151233186Y-74920491D01*
X151251401Y-74879241D01*
X151255219Y-74875422D01*
X151255343Y-74875170D01*
X151322170Y-74808343D01*
X151322422Y-74808219D01*
X151326241Y-74804401D01*
X151367491Y-74786186D01*
X151407699Y-74766531D01*
X151414129Y-74765594D01*
X151423062Y-74761650D01*
X151489000Y-74754000D01*
X152139000Y-74754000D01*
X152204938Y-74761650D01*
G37*
G36*
X155154938Y-74761650D02*
G01*
X155163871Y-74765594D01*
X155170300Y-74766531D01*
X155210498Y-74786182D01*
X155251759Y-74804401D01*
X155255578Y-74808220D01*
X155255829Y-74808343D01*
X155322656Y-74875170D01*
X155322778Y-74875420D01*
X155326599Y-74879241D01*
X155344822Y-74920512D01*
X155364468Y-74960699D01*
X155365404Y-74967126D01*
X155369350Y-74976062D01*
X155377000Y-75042000D01*
X155377000Y-76342000D01*
X155369350Y-76407938D01*
X155365404Y-76416874D01*
X155364468Y-76423300D01*
X155344826Y-76463477D01*
X155326599Y-76504759D01*
X155322777Y-76508580D01*
X155322656Y-76508829D01*
X155255829Y-76575656D01*
X155255580Y-76575777D01*
X155251759Y-76579599D01*
X155210477Y-76597826D01*
X155170300Y-76617468D01*
X155163874Y-76618404D01*
X155154938Y-76622350D01*
X155089000Y-76630000D01*
X154439000Y-76630000D01*
X154373062Y-76622350D01*
X154364126Y-76618404D01*
X154357699Y-76617468D01*
X154317512Y-76597822D01*
X154276241Y-76579599D01*
X154272420Y-76575778D01*
X154272170Y-76575656D01*
X154205343Y-76508829D01*
X154205220Y-76508578D01*
X154201401Y-76504759D01*
X154183182Y-76463498D01*
X154163531Y-76423300D01*
X154162594Y-76416871D01*
X154158650Y-76407938D01*
X154151000Y-76342000D01*
X154151000Y-75042000D01*
X154158650Y-74976062D01*
X154162594Y-74967129D01*
X154163531Y-74960699D01*
X154183186Y-74920491D01*
X154201401Y-74879241D01*
X154205219Y-74875422D01*
X154205343Y-74875170D01*
X154272170Y-74808343D01*
X154272422Y-74808219D01*
X154276241Y-74804401D01*
X154317491Y-74786186D01*
X154357699Y-74766531D01*
X154364129Y-74765594D01*
X154373062Y-74761650D01*
X154439000Y-74754000D01*
X155089000Y-74754000D01*
X155154938Y-74761650D01*
G37*
G36*
X147655944Y-75942311D02*
G01*
X147716936Y-75983064D01*
X147757689Y-76044056D01*
X147772000Y-76116000D01*
X147772000Y-76416000D01*
X147757689Y-76487944D01*
X147716936Y-76548936D01*
X147655944Y-76589689D01*
X147584000Y-76604000D01*
X146559000Y-76604000D01*
X146487056Y-76589689D01*
X146426064Y-76548936D01*
X146385311Y-76487944D01*
X146371000Y-76416000D01*
X146371000Y-76116000D01*
X146385311Y-76044056D01*
X146426064Y-75983064D01*
X146487056Y-75942311D01*
X146559000Y-75928000D01*
X147584000Y-75928000D01*
X147655944Y-75942311D01*
G37*
G36*
X149930944Y-75942311D02*
G01*
X149991936Y-75983064D01*
X150032689Y-76044056D01*
X150047000Y-76116000D01*
X150047000Y-76416000D01*
X150032689Y-76487944D01*
X149991936Y-76548936D01*
X149930944Y-76589689D01*
X149859000Y-76604000D01*
X148834000Y-76604000D01*
X148762056Y-76589689D01*
X148701064Y-76548936D01*
X148660311Y-76487944D01*
X148646000Y-76416000D01*
X148646000Y-76116000D01*
X148660311Y-76044056D01*
X148701064Y-75983064D01*
X148762056Y-75942311D01*
X148834000Y-75928000D01*
X149859000Y-75928000D01*
X149930944Y-75942311D01*
G37*
G36*
X144606938Y-75135650D02*
G01*
X144615871Y-75139594D01*
X144622300Y-75140531D01*
X144662498Y-75160182D01*
X144703759Y-75178401D01*
X144707578Y-75182220D01*
X144707829Y-75182343D01*
X144774656Y-75249170D01*
X144774778Y-75249420D01*
X144778599Y-75253241D01*
X144796822Y-75294512D01*
X144816468Y-75334699D01*
X144817404Y-75341126D01*
X144821350Y-75350062D01*
X144829000Y-75416000D01*
X144829000Y-76066000D01*
X144821350Y-76131938D01*
X144817404Y-76140874D01*
X144816468Y-76147300D01*
X144796826Y-76187477D01*
X144778599Y-76228759D01*
X144774777Y-76232580D01*
X144774656Y-76232829D01*
X144707829Y-76299656D01*
X144707580Y-76299777D01*
X144703759Y-76303599D01*
X144662477Y-76321826D01*
X144622300Y-76341468D01*
X144615874Y-76342404D01*
X144606938Y-76346350D01*
X144541000Y-76354000D01*
X143241000Y-76354000D01*
X143175062Y-76346350D01*
X143166126Y-76342404D01*
X143159699Y-76341468D01*
X143119512Y-76321822D01*
X143078241Y-76303599D01*
X143074420Y-76299778D01*
X143074170Y-76299656D01*
X143007343Y-76232829D01*
X143007220Y-76232578D01*
X143003401Y-76228759D01*
X142985182Y-76187498D01*
X142965531Y-76147300D01*
X142964594Y-76140871D01*
X142960650Y-76131938D01*
X142953000Y-76066000D01*
X142953000Y-75416000D01*
X142960650Y-75350062D01*
X142964594Y-75341129D01*
X142965531Y-75334699D01*
X142985186Y-75294491D01*
X143003401Y-75253241D01*
X143007219Y-75249422D01*
X143007343Y-75249170D01*
X143074170Y-75182343D01*
X143074422Y-75182219D01*
X143078241Y-75178401D01*
X143119491Y-75160186D01*
X143159699Y-75140531D01*
X143166129Y-75139594D01*
X143175062Y-75135650D01*
X143241000Y-75128000D01*
X144541000Y-75128000D01*
X144606938Y-75135650D01*
G37*
G36*
X127788257Y-74873045D02*
G01*
X127835111Y-74878481D01*
X127851121Y-74885550D01*
X127874079Y-74890117D01*
X127898657Y-74906540D01*
X127916868Y-74914581D01*
X127929305Y-74927018D01*
X127951291Y-74941709D01*
X127965981Y-74963694D01*
X127978418Y-74976131D01*
X127986458Y-74994339D01*
X128002883Y-75018921D01*
X128007450Y-75041881D01*
X128014518Y-75057888D01*
X128019952Y-75104731D01*
X128021000Y-75110000D01*
X128021000Y-75510000D01*
X128019951Y-75515269D01*
X128014518Y-75562111D01*
X128007450Y-75578117D01*
X128002883Y-75601079D01*
X127986456Y-75625662D01*
X127978418Y-75643868D01*
X127965983Y-75656302D01*
X127951291Y-75678291D01*
X127929302Y-75692983D01*
X127916868Y-75705418D01*
X127898662Y-75713456D01*
X127874079Y-75729883D01*
X127851117Y-75734450D01*
X127835111Y-75741518D01*
X127788269Y-75746951D01*
X127783000Y-75748000D01*
X127233000Y-75748000D01*
X127227731Y-75746952D01*
X127180888Y-75741518D01*
X127164881Y-75734450D01*
X127141921Y-75729883D01*
X127117339Y-75713458D01*
X127099131Y-75705418D01*
X127086694Y-75692981D01*
X127064709Y-75678291D01*
X127050018Y-75656305D01*
X127037581Y-75643868D01*
X127029540Y-75625657D01*
X127013117Y-75601079D01*
X127008550Y-75578121D01*
X127001481Y-75562111D01*
X126996045Y-75515257D01*
X126995000Y-75510000D01*
X126995000Y-75110000D01*
X126996045Y-75104743D01*
X127001481Y-75057888D01*
X127008550Y-75041876D01*
X127013117Y-75018921D01*
X127029538Y-74994344D01*
X127037581Y-74976131D01*
X127050020Y-74963691D01*
X127064709Y-74941709D01*
X127086691Y-74927020D01*
X127099131Y-74914581D01*
X127117344Y-74906538D01*
X127141921Y-74890117D01*
X127164876Y-74885550D01*
X127180888Y-74878481D01*
X127227743Y-74873045D01*
X127233000Y-74872000D01*
X127783000Y-74872000D01*
X127788257Y-74873045D01*
G37*
G36*
X125832542Y-72774893D02*
G01*
X125844870Y-72783130D01*
X125853107Y-72795458D01*
X125856000Y-72810000D01*
X125856000Y-74510000D01*
X125853107Y-74524542D01*
X125844870Y-74536870D01*
X125832542Y-74545107D01*
X125818000Y-74548000D01*
X124118000Y-74548000D01*
X124103458Y-74545107D01*
X124091130Y-74536870D01*
X124082893Y-74524542D01*
X124080000Y-74510000D01*
X124080000Y-72810000D01*
X124082893Y-72795458D01*
X124091130Y-72783130D01*
X124103458Y-72774893D01*
X124118000Y-72772000D01*
X125818000Y-72772000D01*
X125832542Y-72774893D01*
G37*
G36*
X132309542Y-72774893D02*
G01*
X132321870Y-72783130D01*
X132330107Y-72795458D01*
X132333000Y-72810000D01*
X132333000Y-74510000D01*
X132330107Y-74524542D01*
X132321870Y-74536870D01*
X132309542Y-74545107D01*
X132295000Y-74548000D01*
X130595000Y-74548000D01*
X130580458Y-74545107D01*
X130568130Y-74536870D01*
X130559893Y-74524542D01*
X130557000Y-74510000D01*
X130557000Y-72810000D01*
X130559893Y-72795458D01*
X130568130Y-72783130D01*
X130580458Y-72774893D01*
X130595000Y-72772000D01*
X132295000Y-72772000D01*
X132309542Y-72774893D01*
G37*
G36*
X134242773Y-72810237D02*
G01*
X134403600Y-72876854D01*
X134548341Y-72973567D01*
X134671433Y-73096659D01*
X134768146Y-73241400D01*
X134834763Y-73402227D01*
X134868724Y-73572961D01*
X134868724Y-73747039D01*
X134834763Y-73917773D01*
X134768146Y-74078600D01*
X134671433Y-74223341D01*
X134548341Y-74346433D01*
X134403600Y-74443146D01*
X134242773Y-74509763D01*
X134072039Y-74543724D01*
X133897961Y-74543724D01*
X133727227Y-74509763D01*
X133566400Y-74443146D01*
X133421659Y-74346433D01*
X133298567Y-74223341D01*
X133201854Y-74078600D01*
X133135237Y-73917773D01*
X133101276Y-73747039D01*
X133101276Y-73572961D01*
X133135237Y-73402227D01*
X133201854Y-73241400D01*
X133298567Y-73096659D01*
X133421659Y-72973567D01*
X133566400Y-72876854D01*
X133727227Y-72810237D01*
X133897961Y-72776276D01*
X134072039Y-72776276D01*
X134242773Y-72810237D01*
G37*
G36*
X136782773Y-72810237D02*
G01*
X136943600Y-72876854D01*
X137088341Y-72973567D01*
X137211433Y-73096659D01*
X137308146Y-73241400D01*
X137374763Y-73402227D01*
X137408724Y-73572961D01*
X137408724Y-73747039D01*
X137374763Y-73917773D01*
X137308146Y-74078600D01*
X137211433Y-74223341D01*
X137088341Y-74346433D01*
X136943600Y-74443146D01*
X136782773Y-74509763D01*
X136612039Y-74543724D01*
X136437961Y-74543724D01*
X136267227Y-74509763D01*
X136106400Y-74443146D01*
X135961659Y-74346433D01*
X135838567Y-74223341D01*
X135741854Y-74078600D01*
X135675237Y-73917773D01*
X135641276Y-73747039D01*
X135641276Y-73572961D01*
X135675237Y-73402227D01*
X135741854Y-73241400D01*
X135838567Y-73096659D01*
X135961659Y-72973567D01*
X136106400Y-72876854D01*
X136267227Y-72810237D01*
X136437961Y-72776276D01*
X136612039Y-72776276D01*
X136782773Y-72810237D01*
G37*
G36*
X139322773Y-72810237D02*
G01*
X139483600Y-72876854D01*
X139628341Y-72973567D01*
X139751433Y-73096659D01*
X139848146Y-73241400D01*
X139914763Y-73402227D01*
X139948724Y-73572961D01*
X139948724Y-73747039D01*
X139914763Y-73917773D01*
X139848146Y-74078600D01*
X139751433Y-74223341D01*
X139628341Y-74346433D01*
X139483600Y-74443146D01*
X139322773Y-74509763D01*
X139152039Y-74543724D01*
X138977961Y-74543724D01*
X138807227Y-74509763D01*
X138646400Y-74443146D01*
X138501659Y-74346433D01*
X138378567Y-74223341D01*
X138281854Y-74078600D01*
X138215237Y-73917773D01*
X138181276Y-73747039D01*
X138181276Y-73572961D01*
X138215237Y-73402227D01*
X138281854Y-73241400D01*
X138378567Y-73096659D01*
X138501659Y-72973567D01*
X138646400Y-72876854D01*
X138807227Y-72810237D01*
X138977961Y-72776276D01*
X139152039Y-72776276D01*
X139322773Y-72810237D01*
G37*
G36*
X145161938Y-72650650D02*
G01*
X145170871Y-72654594D01*
X145177300Y-72655531D01*
X145217498Y-72675182D01*
X145258759Y-72693401D01*
X145262578Y-72697220D01*
X145262829Y-72697343D01*
X145329656Y-72764170D01*
X145329778Y-72764420D01*
X145333599Y-72768241D01*
X145351822Y-72809512D01*
X145371468Y-72849699D01*
X145372404Y-72856126D01*
X145376350Y-72865062D01*
X145384000Y-72931000D01*
X145384000Y-73881000D01*
X145376350Y-73946938D01*
X145372404Y-73955874D01*
X145371468Y-73962300D01*
X145351826Y-74002477D01*
X145333599Y-74043759D01*
X145329777Y-74047580D01*
X145329656Y-74047829D01*
X145262829Y-74114656D01*
X145262580Y-74114777D01*
X145258759Y-74118599D01*
X145217477Y-74136826D01*
X145177300Y-74156468D01*
X145170874Y-74157404D01*
X145161938Y-74161350D01*
X145096000Y-74169000D01*
X144596000Y-74169000D01*
X144530062Y-74161350D01*
X144521126Y-74157404D01*
X144514699Y-74156468D01*
X144474512Y-74136822D01*
X144433241Y-74118599D01*
X144429420Y-74114778D01*
X144429170Y-74114656D01*
X144362343Y-74047829D01*
X144362220Y-74047578D01*
X144358401Y-74043759D01*
X144340182Y-74002498D01*
X144320531Y-73962300D01*
X144319594Y-73955871D01*
X144315650Y-73946938D01*
X144308000Y-73881000D01*
X144308000Y-72931000D01*
X144315650Y-72865062D01*
X144319594Y-72856129D01*
X144320531Y-72849699D01*
X144340186Y-72809491D01*
X144358401Y-72768241D01*
X144362219Y-72764422D01*
X144362343Y-72764170D01*
X144429170Y-72697343D01*
X144429422Y-72697219D01*
X144433241Y-72693401D01*
X144474491Y-72675186D01*
X144514699Y-72655531D01*
X144521129Y-72654594D01*
X144530062Y-72650650D01*
X144596000Y-72643000D01*
X145096000Y-72643000D01*
X145161938Y-72650650D01*
G37*
G36*
X147061938Y-72650650D02*
G01*
X147070871Y-72654594D01*
X147077300Y-72655531D01*
X147117498Y-72675182D01*
X147158759Y-72693401D01*
X147162578Y-72697220D01*
X147162829Y-72697343D01*
X147229656Y-72764170D01*
X147229778Y-72764420D01*
X147233599Y-72768241D01*
X147251822Y-72809512D01*
X147271468Y-72849699D01*
X147272404Y-72856126D01*
X147276350Y-72865062D01*
X147284000Y-72931000D01*
X147284000Y-73881000D01*
X147276350Y-73946938D01*
X147272404Y-73955874D01*
X147271468Y-73962300D01*
X147251826Y-74002477D01*
X147233599Y-74043759D01*
X147229777Y-74047580D01*
X147229656Y-74047829D01*
X147162829Y-74114656D01*
X147162580Y-74114777D01*
X147158759Y-74118599D01*
X147117477Y-74136826D01*
X147077300Y-74156468D01*
X147070874Y-74157404D01*
X147061938Y-74161350D01*
X146996000Y-74169000D01*
X146496000Y-74169000D01*
X146430062Y-74161350D01*
X146421126Y-74157404D01*
X146414699Y-74156468D01*
X146374512Y-74136822D01*
X146333241Y-74118599D01*
X146329420Y-74114778D01*
X146329170Y-74114656D01*
X146262343Y-74047829D01*
X146262220Y-74047578D01*
X146258401Y-74043759D01*
X146240182Y-74002498D01*
X146220531Y-73962300D01*
X146219594Y-73955871D01*
X146215650Y-73946938D01*
X146208000Y-73881000D01*
X146208000Y-72931000D01*
X146215650Y-72865062D01*
X146219594Y-72856129D01*
X146220531Y-72849699D01*
X146240186Y-72809491D01*
X146258401Y-72768241D01*
X146262219Y-72764422D01*
X146262343Y-72764170D01*
X146329170Y-72697343D01*
X146329422Y-72697219D01*
X146333241Y-72693401D01*
X146374491Y-72675186D01*
X146414699Y-72655531D01*
X146421129Y-72654594D01*
X146430062Y-72650650D01*
X146496000Y-72643000D01*
X146996000Y-72643000D01*
X147061938Y-72650650D01*
G37*
G36*
X127788257Y-73223045D02*
G01*
X127835111Y-73228481D01*
X127851121Y-73235550D01*
X127874079Y-73240117D01*
X127898657Y-73256540D01*
X127916868Y-73264581D01*
X127929305Y-73277018D01*
X127951291Y-73291709D01*
X127965981Y-73313694D01*
X127978418Y-73326131D01*
X127986458Y-73344339D01*
X128002883Y-73368921D01*
X128007450Y-73391881D01*
X128014518Y-73407888D01*
X128019952Y-73454731D01*
X128021000Y-73460000D01*
X128021000Y-73860000D01*
X128019951Y-73865269D01*
X128014518Y-73912111D01*
X128007450Y-73928117D01*
X128002883Y-73951079D01*
X127986456Y-73975662D01*
X127978418Y-73993868D01*
X127965983Y-74006302D01*
X127951291Y-74028291D01*
X127929302Y-74042983D01*
X127916868Y-74055418D01*
X127898662Y-74063456D01*
X127874079Y-74079883D01*
X127851117Y-74084450D01*
X127835111Y-74091518D01*
X127788269Y-74096951D01*
X127783000Y-74098000D01*
X127233000Y-74098000D01*
X127227731Y-74096952D01*
X127180888Y-74091518D01*
X127164881Y-74084450D01*
X127141921Y-74079883D01*
X127117339Y-74063458D01*
X127099131Y-74055418D01*
X127086694Y-74042981D01*
X127064709Y-74028291D01*
X127050018Y-74006305D01*
X127037581Y-73993868D01*
X127029540Y-73975657D01*
X127013117Y-73951079D01*
X127008550Y-73928121D01*
X127001481Y-73912111D01*
X126996045Y-73865257D01*
X126995000Y-73860000D01*
X126995000Y-73460000D01*
X126996045Y-73454743D01*
X127001481Y-73407888D01*
X127008550Y-73391876D01*
X127013117Y-73368921D01*
X127029538Y-73344344D01*
X127037581Y-73326131D01*
X127050020Y-73313691D01*
X127064709Y-73291709D01*
X127086691Y-73277020D01*
X127099131Y-73264581D01*
X127117344Y-73256538D01*
X127141921Y-73240117D01*
X127164876Y-73235550D01*
X127180888Y-73228481D01*
X127227743Y-73223045D01*
X127233000Y-73222000D01*
X127783000Y-73222000D01*
X127788257Y-73223045D01*
G37*
M02*
