%TF.GenerationSoftware,KiCad,Pcbnew,9.0.3-9.0.3-0~ubuntu22.04.1*%
%TF.CreationDate,2025-07-27T07:15:49-07:00*%
%TF.ProjectId,mixer-main,6d697865-722d-46d6-9169-6e2e6b696361,rev?*%
%TF.SameCoordinates,Original*%
%TF.FileFunction,Soldermask,Bot*%
%TF.FilePolarity,Negative*%
%FSLAX46Y46*%
G04 Gerber Fmt 4.6, Leading zero omitted, Abs format (unit mm)*
G04 Created by KiCad (PCBNEW 9.0.3-9.0.3-0~ubuntu22.04.1) date 2025-07-27 07:15:49*
%MOMM*%
%LPD*%
G01*
G04 APERTURE LIST*
G04 APERTURE END LIST*
G36*
X141696513Y-90406998D02*
G01*
X141706742Y-90406998D01*
X141746714Y-90414949D01*
X141847268Y-90430875D01*
X141879613Y-90441384D01*
X141906315Y-90446696D01*
X141943992Y-90462302D01*
X142002147Y-90481198D01*
X142056626Y-90508957D01*
X142094310Y-90524566D01*
X142116950Y-90539694D01*
X142147253Y-90555134D01*
X142229629Y-90614983D01*
X142263500Y-90637615D01*
X142270728Y-90644843D01*
X142278996Y-90650850D01*
X142394149Y-90766003D01*
X142400155Y-90774270D01*
X142407385Y-90781500D01*
X142430019Y-90815374D01*
X142489865Y-90897746D01*
X142505303Y-90928046D01*
X142520434Y-90950690D01*
X142536045Y-90988378D01*
X142563801Y-91042852D01*
X142582694Y-91100999D01*
X142598304Y-91138685D01*
X142603616Y-91165391D01*
X142614124Y-91197731D01*
X142630049Y-91298277D01*
X142638002Y-91338258D01*
X142638002Y-91348487D01*
X142639600Y-91358577D01*
X142639600Y-91521422D01*
X142638002Y-91531511D01*
X142638002Y-91541742D01*
X142630048Y-91581725D01*
X142614124Y-91682268D01*
X142603616Y-91714605D01*
X142598304Y-91741315D01*
X142582692Y-91779004D01*
X142563801Y-91837147D01*
X142536047Y-91891616D01*
X142520434Y-91929310D01*
X142505301Y-91951957D01*
X142489865Y-91982253D01*
X142430027Y-92064612D01*
X142407385Y-92098500D01*
X142400153Y-92105731D01*
X142394149Y-92113996D01*
X142278996Y-92229149D01*
X142270731Y-92235153D01*
X142263500Y-92242385D01*
X142229612Y-92265027D01*
X142147253Y-92324865D01*
X142116957Y-92340301D01*
X142094310Y-92355434D01*
X142056616Y-92371047D01*
X142002147Y-92398801D01*
X141944004Y-92417692D01*
X141906315Y-92433304D01*
X141879605Y-92438616D01*
X141847268Y-92449124D01*
X141746723Y-92465049D01*
X141706742Y-92473002D01*
X141696512Y-92473002D01*
X141686423Y-92474600D01*
X141523577Y-92474600D01*
X141513488Y-92473002D01*
X141503258Y-92473002D01*
X141463277Y-92465049D01*
X141362731Y-92449124D01*
X141330391Y-92438616D01*
X141303685Y-92433304D01*
X141265999Y-92417694D01*
X141207852Y-92398801D01*
X141153378Y-92371045D01*
X141115690Y-92355434D01*
X141093046Y-92340303D01*
X141062746Y-92324865D01*
X140980374Y-92265019D01*
X140946500Y-92242385D01*
X140939270Y-92235155D01*
X140931003Y-92229149D01*
X140815850Y-92113996D01*
X140809843Y-92105728D01*
X140802615Y-92098500D01*
X140779983Y-92064629D01*
X140720134Y-91982253D01*
X140704694Y-91951950D01*
X140689566Y-91929310D01*
X140673957Y-91891626D01*
X140646198Y-91837147D01*
X140627302Y-91778992D01*
X140611696Y-91741315D01*
X140606384Y-91714613D01*
X140595875Y-91682268D01*
X140579949Y-91581716D01*
X140571998Y-91541742D01*
X140571998Y-91531511D01*
X140570400Y-91521422D01*
X140570400Y-91358577D01*
X140571998Y-91348487D01*
X140571998Y-91338258D01*
X140579948Y-91298287D01*
X140595875Y-91197731D01*
X140606385Y-91165383D01*
X140611696Y-91138685D01*
X140627301Y-91101010D01*
X140646198Y-91042852D01*
X140673959Y-90988368D01*
X140689566Y-90950690D01*
X140704691Y-90928052D01*
X140720134Y-90897746D01*
X140779991Y-90815357D01*
X140802615Y-90781500D01*
X140809840Y-90774274D01*
X140815850Y-90766003D01*
X140931003Y-90650850D01*
X140939274Y-90644840D01*
X140946500Y-90637615D01*
X140980357Y-90614991D01*
X141062746Y-90555134D01*
X141093052Y-90539691D01*
X141115690Y-90524566D01*
X141153368Y-90508959D01*
X141207852Y-90481198D01*
X141266010Y-90462301D01*
X141303685Y-90446696D01*
X141330383Y-90441385D01*
X141362731Y-90430875D01*
X141463287Y-90414948D01*
X141503258Y-90406998D01*
X141513487Y-90406998D01*
X141523577Y-90405400D01*
X141686423Y-90405400D01*
X141696513Y-90406998D01*
G37*
G36*
X125225773Y-90590237D02*
G01*
X125386600Y-90656854D01*
X125531341Y-90753567D01*
X125654433Y-90876659D01*
X125751146Y-91021400D01*
X125817763Y-91182227D01*
X125851724Y-91352961D01*
X125851724Y-91527039D01*
X125817763Y-91697773D01*
X125751146Y-91858600D01*
X125654433Y-92003341D01*
X125531341Y-92126433D01*
X125386600Y-92223146D01*
X125225773Y-92289763D01*
X125055039Y-92323724D01*
X124880961Y-92323724D01*
X124710227Y-92289763D01*
X124549400Y-92223146D01*
X124404659Y-92126433D01*
X124281567Y-92003341D01*
X124184854Y-91858600D01*
X124118237Y-91697773D01*
X124084276Y-91527039D01*
X124084276Y-91352961D01*
X124118237Y-91182227D01*
X124184854Y-91021400D01*
X124281567Y-90876659D01*
X124404659Y-90753567D01*
X124549400Y-90656854D01*
X124710227Y-90590237D01*
X124880961Y-90556276D01*
X125055039Y-90556276D01*
X125225773Y-90590237D01*
G37*
G36*
X153888513Y-88120998D02*
G01*
X153898742Y-88120998D01*
X153938714Y-88128949D01*
X154039268Y-88144875D01*
X154071613Y-88155384D01*
X154098315Y-88160696D01*
X154135992Y-88176302D01*
X154194147Y-88195198D01*
X154248626Y-88222957D01*
X154286310Y-88238566D01*
X154308950Y-88253694D01*
X154339253Y-88269134D01*
X154421629Y-88328983D01*
X154455500Y-88351615D01*
X154462728Y-88358843D01*
X154470996Y-88364850D01*
X154586149Y-88480003D01*
X154592155Y-88488270D01*
X154599385Y-88495500D01*
X154622019Y-88529374D01*
X154681865Y-88611746D01*
X154697303Y-88642046D01*
X154712434Y-88664690D01*
X154728045Y-88702378D01*
X154755801Y-88756852D01*
X154774694Y-88814999D01*
X154790304Y-88852685D01*
X154795616Y-88879391D01*
X154806124Y-88911731D01*
X154822049Y-89012277D01*
X154830002Y-89052258D01*
X154830002Y-89062487D01*
X154831600Y-89072577D01*
X154831600Y-89235422D01*
X154830002Y-89245511D01*
X154830002Y-89255742D01*
X154822048Y-89295725D01*
X154806124Y-89396268D01*
X154795616Y-89428605D01*
X154790304Y-89455315D01*
X154774692Y-89493004D01*
X154755801Y-89551147D01*
X154728047Y-89605616D01*
X154712434Y-89643310D01*
X154697301Y-89665957D01*
X154681865Y-89696253D01*
X154622027Y-89778612D01*
X154599385Y-89812500D01*
X154592153Y-89819731D01*
X154586149Y-89827996D01*
X154470996Y-89943149D01*
X154462731Y-89949153D01*
X154455500Y-89956385D01*
X154421612Y-89979027D01*
X154339253Y-90038865D01*
X154308957Y-90054301D01*
X154286310Y-90069434D01*
X154248616Y-90085047D01*
X154194147Y-90112801D01*
X154136004Y-90131692D01*
X154098315Y-90147304D01*
X154071605Y-90152616D01*
X154039268Y-90163124D01*
X153938723Y-90179049D01*
X153898742Y-90187002D01*
X153888512Y-90187002D01*
X153878423Y-90188600D01*
X153715577Y-90188600D01*
X153705488Y-90187002D01*
X153695258Y-90187002D01*
X153655277Y-90179049D01*
X153554731Y-90163124D01*
X153522391Y-90152616D01*
X153495685Y-90147304D01*
X153457999Y-90131694D01*
X153399852Y-90112801D01*
X153345378Y-90085045D01*
X153307690Y-90069434D01*
X153285046Y-90054303D01*
X153254746Y-90038865D01*
X153172374Y-89979019D01*
X153138500Y-89956385D01*
X153131270Y-89949155D01*
X153123003Y-89943149D01*
X153007850Y-89827996D01*
X153001843Y-89819728D01*
X152994615Y-89812500D01*
X152971983Y-89778629D01*
X152912134Y-89696253D01*
X152896694Y-89665950D01*
X152881566Y-89643310D01*
X152865957Y-89605626D01*
X152838198Y-89551147D01*
X152819302Y-89492992D01*
X152803696Y-89455315D01*
X152798384Y-89428613D01*
X152787875Y-89396268D01*
X152771949Y-89295716D01*
X152763998Y-89255742D01*
X152763998Y-89245511D01*
X152762400Y-89235422D01*
X152762400Y-89072577D01*
X152763998Y-89062487D01*
X152763998Y-89052258D01*
X152771948Y-89012287D01*
X152787875Y-88911731D01*
X152798385Y-88879383D01*
X152803696Y-88852685D01*
X152819301Y-88815010D01*
X152838198Y-88756852D01*
X152865959Y-88702368D01*
X152881566Y-88664690D01*
X152896691Y-88642052D01*
X152912134Y-88611746D01*
X152971991Y-88529357D01*
X152994615Y-88495500D01*
X153001840Y-88488274D01*
X153007850Y-88480003D01*
X153123003Y-88364850D01*
X153131274Y-88358840D01*
X153138500Y-88351615D01*
X153172357Y-88328991D01*
X153254746Y-88269134D01*
X153285052Y-88253691D01*
X153307690Y-88238566D01*
X153345368Y-88222959D01*
X153399852Y-88195198D01*
X153458010Y-88176301D01*
X153495685Y-88160696D01*
X153522383Y-88155385D01*
X153554731Y-88144875D01*
X153655287Y-88128948D01*
X153695258Y-88120998D01*
X153705487Y-88120998D01*
X153715577Y-88119400D01*
X153878423Y-88119400D01*
X153888513Y-88120998D01*
G37*
G36*
X125225773Y-88050237D02*
G01*
X125386600Y-88116854D01*
X125531341Y-88213567D01*
X125654433Y-88336659D01*
X125751146Y-88481400D01*
X125817763Y-88642227D01*
X125851724Y-88812961D01*
X125851724Y-88987039D01*
X125817763Y-89157773D01*
X125751146Y-89318600D01*
X125654433Y-89463341D01*
X125531341Y-89586433D01*
X125386600Y-89683146D01*
X125225773Y-89749763D01*
X125055039Y-89783724D01*
X124880961Y-89783724D01*
X124710227Y-89749763D01*
X124549400Y-89683146D01*
X124404659Y-89586433D01*
X124281567Y-89463341D01*
X124184854Y-89318600D01*
X124118237Y-89157773D01*
X124084276Y-88987039D01*
X124084276Y-88812961D01*
X124118237Y-88642227D01*
X124184854Y-88481400D01*
X124281567Y-88336659D01*
X124404659Y-88213567D01*
X124549400Y-88116854D01*
X124710227Y-88050237D01*
X124880961Y-88016276D01*
X125055039Y-88016276D01*
X125225773Y-88050237D01*
G37*
G36*
X157440223Y-88319603D02*
G01*
X157575884Y-88355953D01*
X157697514Y-88426176D01*
X157796824Y-88525486D01*
X157867047Y-88647116D01*
X157903397Y-88782777D01*
X157903397Y-88923223D01*
X157867047Y-89058884D01*
X157796824Y-89180514D01*
X157697514Y-89279824D01*
X157575884Y-89350047D01*
X157440223Y-89386397D01*
X157370000Y-89391000D01*
X157367870Y-89391000D01*
X156672130Y-89391000D01*
X156670000Y-89391000D01*
X156599777Y-89386397D01*
X156464116Y-89350047D01*
X156342486Y-89279824D01*
X156243176Y-89180514D01*
X156172953Y-89058884D01*
X156136603Y-88923223D01*
X156136603Y-88782777D01*
X156172953Y-88647116D01*
X156243176Y-88525486D01*
X156342486Y-88426176D01*
X156464116Y-88355953D01*
X156599777Y-88319603D01*
X156670000Y-88315000D01*
X157370000Y-88315000D01*
X157440223Y-88319603D01*
G37*
G36*
X161240223Y-88319603D02*
G01*
X161375884Y-88355953D01*
X161497514Y-88426176D01*
X161596824Y-88525486D01*
X161667047Y-88647116D01*
X161703397Y-88782777D01*
X161703397Y-88923223D01*
X161667047Y-89058884D01*
X161596824Y-89180514D01*
X161497514Y-89279824D01*
X161375884Y-89350047D01*
X161240223Y-89386397D01*
X161170000Y-89391000D01*
X161167870Y-89391000D01*
X160472130Y-89391000D01*
X160470000Y-89391000D01*
X160399777Y-89386397D01*
X160264116Y-89350047D01*
X160142486Y-89279824D01*
X160043176Y-89180514D01*
X159972953Y-89058884D01*
X159936603Y-88923223D01*
X159936603Y-88782777D01*
X159972953Y-88647116D01*
X160043176Y-88525486D01*
X160142486Y-88426176D01*
X160264116Y-88355953D01*
X160399777Y-88319603D01*
X160470000Y-88315000D01*
X161170000Y-88315000D01*
X161240223Y-88319603D01*
G37*
G36*
X125225773Y-85510237D02*
G01*
X125386600Y-85576854D01*
X125531341Y-85673567D01*
X125654433Y-85796659D01*
X125751146Y-85941400D01*
X125817763Y-86102227D01*
X125851724Y-86272961D01*
X125851724Y-86447039D01*
X125817763Y-86617773D01*
X125751146Y-86778600D01*
X125654433Y-86923341D01*
X125531341Y-87046433D01*
X125386600Y-87143146D01*
X125225773Y-87209763D01*
X125055039Y-87243724D01*
X124880961Y-87243724D01*
X124710227Y-87209763D01*
X124549400Y-87143146D01*
X124404659Y-87046433D01*
X124281567Y-86923341D01*
X124184854Y-86778600D01*
X124118237Y-86617773D01*
X124084276Y-86447039D01*
X124084276Y-86272961D01*
X124118237Y-86102227D01*
X124184854Y-85941400D01*
X124281567Y-85796659D01*
X124404659Y-85673567D01*
X124549400Y-85576854D01*
X124710227Y-85510237D01*
X124880961Y-85476276D01*
X125055039Y-85476276D01*
X125225773Y-85510237D01*
G37*
G36*
X125225773Y-82970237D02*
G01*
X125386600Y-83036854D01*
X125531341Y-83133567D01*
X125654433Y-83256659D01*
X125751146Y-83401400D01*
X125817763Y-83562227D01*
X125851724Y-83732961D01*
X125851724Y-83907039D01*
X125817763Y-84077773D01*
X125751146Y-84238600D01*
X125654433Y-84383341D01*
X125531341Y-84506433D01*
X125386600Y-84603146D01*
X125225773Y-84669763D01*
X125055039Y-84703724D01*
X124880961Y-84703724D01*
X124710227Y-84669763D01*
X124549400Y-84603146D01*
X124404659Y-84506433D01*
X124281567Y-84383341D01*
X124184854Y-84238600D01*
X124118237Y-84077773D01*
X124084276Y-83907039D01*
X124084276Y-83732961D01*
X124118237Y-83562227D01*
X124184854Y-83401400D01*
X124281567Y-83256659D01*
X124404659Y-83133567D01*
X124549400Y-83036854D01*
X124710227Y-82970237D01*
X124880961Y-82936276D01*
X125055039Y-82936276D01*
X125225773Y-82970237D01*
G37*
G36*
X146649513Y-81262998D02*
G01*
X146659742Y-81262998D01*
X146699714Y-81270949D01*
X146800268Y-81286875D01*
X146832613Y-81297384D01*
X146859315Y-81302696D01*
X146896992Y-81318302D01*
X146955147Y-81337198D01*
X147009626Y-81364957D01*
X147047310Y-81380566D01*
X147069950Y-81395694D01*
X147100253Y-81411134D01*
X147182629Y-81470983D01*
X147216500Y-81493615D01*
X147223728Y-81500843D01*
X147231996Y-81506850D01*
X147347149Y-81622003D01*
X147353155Y-81630270D01*
X147360385Y-81637500D01*
X147383019Y-81671374D01*
X147442865Y-81753746D01*
X147458303Y-81784046D01*
X147473434Y-81806690D01*
X147489045Y-81844378D01*
X147516801Y-81898852D01*
X147535694Y-81956999D01*
X147551304Y-81994685D01*
X147556616Y-82021391D01*
X147567124Y-82053731D01*
X147583049Y-82154277D01*
X147591002Y-82194258D01*
X147591002Y-82204487D01*
X147592600Y-82214577D01*
X147592600Y-82377422D01*
X147591002Y-82387511D01*
X147591002Y-82397742D01*
X147583048Y-82437725D01*
X147567124Y-82538268D01*
X147556616Y-82570605D01*
X147551304Y-82597315D01*
X147535692Y-82635004D01*
X147516801Y-82693147D01*
X147489047Y-82747616D01*
X147473434Y-82785310D01*
X147458301Y-82807957D01*
X147442865Y-82838253D01*
X147383027Y-82920612D01*
X147360385Y-82954500D01*
X147353153Y-82961731D01*
X147347149Y-82969996D01*
X147231996Y-83085149D01*
X147223731Y-83091153D01*
X147216500Y-83098385D01*
X147182612Y-83121027D01*
X147100253Y-83180865D01*
X147069957Y-83196301D01*
X147047310Y-83211434D01*
X147009616Y-83227047D01*
X146955147Y-83254801D01*
X146897004Y-83273692D01*
X146859315Y-83289304D01*
X146832605Y-83294616D01*
X146800268Y-83305124D01*
X146699723Y-83321049D01*
X146659742Y-83329002D01*
X146649512Y-83329002D01*
X146639423Y-83330600D01*
X146476577Y-83330600D01*
X146466488Y-83329002D01*
X146456258Y-83329002D01*
X146416277Y-83321049D01*
X146315731Y-83305124D01*
X146283391Y-83294616D01*
X146256685Y-83289304D01*
X146218999Y-83273694D01*
X146160852Y-83254801D01*
X146106378Y-83227045D01*
X146068690Y-83211434D01*
X146046046Y-83196303D01*
X146015746Y-83180865D01*
X145933374Y-83121019D01*
X145899500Y-83098385D01*
X145892270Y-83091155D01*
X145884003Y-83085149D01*
X145768850Y-82969996D01*
X145762843Y-82961728D01*
X145755615Y-82954500D01*
X145732983Y-82920629D01*
X145673134Y-82838253D01*
X145657694Y-82807950D01*
X145642566Y-82785310D01*
X145626957Y-82747626D01*
X145599198Y-82693147D01*
X145580302Y-82634992D01*
X145564696Y-82597315D01*
X145559384Y-82570613D01*
X145548875Y-82538268D01*
X145532949Y-82437716D01*
X145524998Y-82397742D01*
X145524998Y-82387511D01*
X145523400Y-82377422D01*
X145523400Y-82214577D01*
X145524998Y-82204487D01*
X145524998Y-82194258D01*
X145532948Y-82154287D01*
X145548875Y-82053731D01*
X145559385Y-82021383D01*
X145564696Y-81994685D01*
X145580301Y-81957010D01*
X145599198Y-81898852D01*
X145626959Y-81844368D01*
X145642566Y-81806690D01*
X145657691Y-81784052D01*
X145673134Y-81753746D01*
X145732991Y-81671357D01*
X145755615Y-81637500D01*
X145762840Y-81630274D01*
X145768850Y-81622003D01*
X145884003Y-81506850D01*
X145892274Y-81500840D01*
X145899500Y-81493615D01*
X145933357Y-81470991D01*
X146015746Y-81411134D01*
X146046052Y-81395691D01*
X146068690Y-81380566D01*
X146106368Y-81364959D01*
X146160852Y-81337198D01*
X146219010Y-81318301D01*
X146256685Y-81302696D01*
X146283383Y-81297385D01*
X146315731Y-81286875D01*
X146416287Y-81270948D01*
X146456258Y-81262998D01*
X146466487Y-81262998D01*
X146476577Y-81261400D01*
X146639423Y-81261400D01*
X146649513Y-81262998D01*
G37*
G36*
X125225773Y-80430237D02*
G01*
X125386600Y-80496854D01*
X125531341Y-80593567D01*
X125654433Y-80716659D01*
X125751146Y-80861400D01*
X125817763Y-81022227D01*
X125851724Y-81192961D01*
X125851724Y-81367039D01*
X125817763Y-81537773D01*
X125751146Y-81698600D01*
X125654433Y-81843341D01*
X125531341Y-81966433D01*
X125386600Y-82063146D01*
X125225773Y-82129763D01*
X125055039Y-82163724D01*
X124880961Y-82163724D01*
X124710227Y-82129763D01*
X124549400Y-82063146D01*
X124404659Y-81966433D01*
X124281567Y-81843341D01*
X124184854Y-81698600D01*
X124118237Y-81537773D01*
X124084276Y-81367039D01*
X124084276Y-81192961D01*
X124118237Y-81022227D01*
X124184854Y-80861400D01*
X124281567Y-80716659D01*
X124404659Y-80593567D01*
X124549400Y-80496854D01*
X124710227Y-80430237D01*
X124880961Y-80396276D01*
X125055039Y-80396276D01*
X125225773Y-80430237D01*
G37*
G36*
X157440223Y-79679603D02*
G01*
X157575884Y-79715953D01*
X157697514Y-79786176D01*
X157796824Y-79885486D01*
X157867047Y-80007116D01*
X157903397Y-80142777D01*
X157903397Y-80283223D01*
X157867047Y-80418884D01*
X157796824Y-80540514D01*
X157697514Y-80639824D01*
X157575884Y-80710047D01*
X157440223Y-80746397D01*
X157370000Y-80751000D01*
X157367870Y-80751000D01*
X156672130Y-80751000D01*
X156670000Y-80751000D01*
X156599777Y-80746397D01*
X156464116Y-80710047D01*
X156342486Y-80639824D01*
X156243176Y-80540514D01*
X156172953Y-80418884D01*
X156136603Y-80283223D01*
X156136603Y-80142777D01*
X156172953Y-80007116D01*
X156243176Y-79885486D01*
X156342486Y-79786176D01*
X156464116Y-79715953D01*
X156599777Y-79679603D01*
X156670000Y-79675000D01*
X157370000Y-79675000D01*
X157440223Y-79679603D01*
G37*
G36*
X161240223Y-79679603D02*
G01*
X161375884Y-79715953D01*
X161497514Y-79786176D01*
X161596824Y-79885486D01*
X161667047Y-80007116D01*
X161703397Y-80142777D01*
X161703397Y-80283223D01*
X161667047Y-80418884D01*
X161596824Y-80540514D01*
X161497514Y-80639824D01*
X161375884Y-80710047D01*
X161240223Y-80746397D01*
X161170000Y-80751000D01*
X161167870Y-80751000D01*
X160472130Y-80751000D01*
X160470000Y-80751000D01*
X160399777Y-80746397D01*
X160264116Y-80710047D01*
X160142486Y-80639824D01*
X160043176Y-80540514D01*
X159972953Y-80418884D01*
X159936603Y-80283223D01*
X159936603Y-80142777D01*
X159972953Y-80007116D01*
X160043176Y-79885486D01*
X160142486Y-79786176D01*
X160264116Y-79715953D01*
X160399777Y-79679603D01*
X160470000Y-79675000D01*
X161170000Y-79675000D01*
X161240223Y-79679603D01*
G37*
G36*
X141188513Y-77579998D02*
G01*
X141198742Y-77579998D01*
X141238714Y-77587949D01*
X141339268Y-77603875D01*
X141371613Y-77614384D01*
X141398315Y-77619696D01*
X141435992Y-77635302D01*
X141494147Y-77654198D01*
X141548626Y-77681957D01*
X141586310Y-77697566D01*
X141608950Y-77712694D01*
X141639253Y-77728134D01*
X141721629Y-77787983D01*
X141755500Y-77810615D01*
X141762728Y-77817843D01*
X141770996Y-77823850D01*
X141886149Y-77939003D01*
X141892155Y-77947270D01*
X141899385Y-77954500D01*
X141922019Y-77988374D01*
X141981865Y-78070746D01*
X141997303Y-78101046D01*
X142012434Y-78123690D01*
X142028045Y-78161378D01*
X142055801Y-78215852D01*
X142074694Y-78273999D01*
X142090304Y-78311685D01*
X142095616Y-78338391D01*
X142106124Y-78370731D01*
X142122049Y-78471277D01*
X142130002Y-78511258D01*
X142130002Y-78521487D01*
X142131600Y-78531577D01*
X142131600Y-78694422D01*
X142130002Y-78704511D01*
X142130002Y-78714742D01*
X142122048Y-78754725D01*
X142106124Y-78855268D01*
X142095616Y-78887605D01*
X142090304Y-78914315D01*
X142074692Y-78952004D01*
X142055801Y-79010147D01*
X142028047Y-79064616D01*
X142012434Y-79102310D01*
X141997301Y-79124957D01*
X141981865Y-79155253D01*
X141922027Y-79237612D01*
X141899385Y-79271500D01*
X141892153Y-79278731D01*
X141886149Y-79286996D01*
X141770996Y-79402149D01*
X141762731Y-79408153D01*
X141755500Y-79415385D01*
X141721612Y-79438027D01*
X141639253Y-79497865D01*
X141608957Y-79513301D01*
X141586310Y-79528434D01*
X141548616Y-79544047D01*
X141494147Y-79571801D01*
X141436004Y-79590692D01*
X141398315Y-79606304D01*
X141371605Y-79611616D01*
X141339268Y-79622124D01*
X141238723Y-79638049D01*
X141198742Y-79646002D01*
X141188512Y-79646002D01*
X141178423Y-79647600D01*
X141015577Y-79647600D01*
X141005488Y-79646002D01*
X140995258Y-79646002D01*
X140955277Y-79638049D01*
X140854731Y-79622124D01*
X140822391Y-79611616D01*
X140795685Y-79606304D01*
X140757999Y-79590694D01*
X140699852Y-79571801D01*
X140645378Y-79544045D01*
X140607690Y-79528434D01*
X140585046Y-79513303D01*
X140554746Y-79497865D01*
X140472374Y-79438019D01*
X140438500Y-79415385D01*
X140431270Y-79408155D01*
X140423003Y-79402149D01*
X140307850Y-79286996D01*
X140301843Y-79278728D01*
X140294615Y-79271500D01*
X140271983Y-79237629D01*
X140212134Y-79155253D01*
X140196694Y-79124950D01*
X140181566Y-79102310D01*
X140165957Y-79064626D01*
X140138198Y-79010147D01*
X140119302Y-78951992D01*
X140103696Y-78914315D01*
X140098384Y-78887613D01*
X140087875Y-78855268D01*
X140071949Y-78754716D01*
X140063998Y-78714742D01*
X140063998Y-78704511D01*
X140062400Y-78694422D01*
X140062400Y-78531577D01*
X140063998Y-78521487D01*
X140063998Y-78511258D01*
X140071948Y-78471287D01*
X140087875Y-78370731D01*
X140098385Y-78338383D01*
X140103696Y-78311685D01*
X140119301Y-78274010D01*
X140138198Y-78215852D01*
X140165959Y-78161368D01*
X140181566Y-78123690D01*
X140196691Y-78101052D01*
X140212134Y-78070746D01*
X140271991Y-77988357D01*
X140294615Y-77954500D01*
X140301840Y-77947274D01*
X140307850Y-77939003D01*
X140423003Y-77823850D01*
X140431274Y-77817840D01*
X140438500Y-77810615D01*
X140472357Y-77787991D01*
X140554746Y-77728134D01*
X140585052Y-77712691D01*
X140607690Y-77697566D01*
X140645368Y-77681959D01*
X140699852Y-77654198D01*
X140758010Y-77635301D01*
X140795685Y-77619696D01*
X140822383Y-77614385D01*
X140854731Y-77603875D01*
X140955287Y-77587948D01*
X140995258Y-77579998D01*
X141005487Y-77579998D01*
X141015577Y-77578400D01*
X141178423Y-77578400D01*
X141188513Y-77579998D01*
G37*
G36*
X125225773Y-77890237D02*
G01*
X125386600Y-77956854D01*
X125531341Y-78053567D01*
X125654433Y-78176659D01*
X125751146Y-78321400D01*
X125817763Y-78482227D01*
X125851724Y-78652961D01*
X125851724Y-78827039D01*
X125817763Y-78997773D01*
X125751146Y-79158600D01*
X125654433Y-79303341D01*
X125531341Y-79426433D01*
X125386600Y-79523146D01*
X125225773Y-79589763D01*
X125055039Y-79623724D01*
X124880961Y-79623724D01*
X124710227Y-79589763D01*
X124549400Y-79523146D01*
X124404659Y-79426433D01*
X124281567Y-79303341D01*
X124184854Y-79158600D01*
X124118237Y-78997773D01*
X124084276Y-78827039D01*
X124084276Y-78652961D01*
X124118237Y-78482227D01*
X124184854Y-78321400D01*
X124281567Y-78176659D01*
X124404659Y-78053567D01*
X124549400Y-77956854D01*
X124710227Y-77890237D01*
X124880961Y-77856276D01*
X125055039Y-77856276D01*
X125225773Y-77890237D01*
G37*
G36*
X125225773Y-75350237D02*
G01*
X125386600Y-75416854D01*
X125531341Y-75513567D01*
X125654433Y-75636659D01*
X125751146Y-75781400D01*
X125817763Y-75942227D01*
X125851724Y-76112961D01*
X125851724Y-76287039D01*
X125817763Y-76457773D01*
X125751146Y-76618600D01*
X125654433Y-76763341D01*
X125531341Y-76886433D01*
X125386600Y-76983146D01*
X125225773Y-77049763D01*
X125055039Y-77083724D01*
X124880961Y-77083724D01*
X124710227Y-77049763D01*
X124549400Y-76983146D01*
X124404659Y-76886433D01*
X124281567Y-76763341D01*
X124184854Y-76618600D01*
X124118237Y-76457773D01*
X124084276Y-76287039D01*
X124084276Y-76112961D01*
X124118237Y-75942227D01*
X124184854Y-75781400D01*
X124281567Y-75636659D01*
X124404659Y-75513567D01*
X124549400Y-75416854D01*
X124710227Y-75350237D01*
X124880961Y-75316276D01*
X125055039Y-75316276D01*
X125225773Y-75350237D01*
G37*
G36*
X125832542Y-72774893D02*
G01*
X125844870Y-72783130D01*
X125853107Y-72795458D01*
X125856000Y-72810000D01*
X125856000Y-74510000D01*
X125853107Y-74524542D01*
X125844870Y-74536870D01*
X125832542Y-74545107D01*
X125818000Y-74548000D01*
X124118000Y-74548000D01*
X124103458Y-74545107D01*
X124091130Y-74536870D01*
X124082893Y-74524542D01*
X124080000Y-74510000D01*
X124080000Y-72810000D01*
X124082893Y-72795458D01*
X124091130Y-72783130D01*
X124103458Y-72774893D01*
X124118000Y-72772000D01*
X125818000Y-72772000D01*
X125832542Y-72774893D01*
G37*
G36*
X132309542Y-72774893D02*
G01*
X132321870Y-72783130D01*
X132330107Y-72795458D01*
X132333000Y-72810000D01*
X132333000Y-74510000D01*
X132330107Y-74524542D01*
X132321870Y-74536870D01*
X132309542Y-74545107D01*
X132295000Y-74548000D01*
X130595000Y-74548000D01*
X130580458Y-74545107D01*
X130568130Y-74536870D01*
X130559893Y-74524542D01*
X130557000Y-74510000D01*
X130557000Y-72810000D01*
X130559893Y-72795458D01*
X130568130Y-72783130D01*
X130580458Y-72774893D01*
X130595000Y-72772000D01*
X132295000Y-72772000D01*
X132309542Y-72774893D01*
G37*
G36*
X134242773Y-72810237D02*
G01*
X134403600Y-72876854D01*
X134548341Y-72973567D01*
X134671433Y-73096659D01*
X134768146Y-73241400D01*
X134834763Y-73402227D01*
X134868724Y-73572961D01*
X134868724Y-73747039D01*
X134834763Y-73917773D01*
X134768146Y-74078600D01*
X134671433Y-74223341D01*
X134548341Y-74346433D01*
X134403600Y-74443146D01*
X134242773Y-74509763D01*
X134072039Y-74543724D01*
X133897961Y-74543724D01*
X133727227Y-74509763D01*
X133566400Y-74443146D01*
X133421659Y-74346433D01*
X133298567Y-74223341D01*
X133201854Y-74078600D01*
X133135237Y-73917773D01*
X133101276Y-73747039D01*
X133101276Y-73572961D01*
X133135237Y-73402227D01*
X133201854Y-73241400D01*
X133298567Y-73096659D01*
X133421659Y-72973567D01*
X133566400Y-72876854D01*
X133727227Y-72810237D01*
X133897961Y-72776276D01*
X134072039Y-72776276D01*
X134242773Y-72810237D01*
G37*
G36*
X136782773Y-72810237D02*
G01*
X136943600Y-72876854D01*
X137088341Y-72973567D01*
X137211433Y-73096659D01*
X137308146Y-73241400D01*
X137374763Y-73402227D01*
X137408724Y-73572961D01*
X137408724Y-73747039D01*
X137374763Y-73917773D01*
X137308146Y-74078600D01*
X137211433Y-74223341D01*
X137088341Y-74346433D01*
X136943600Y-74443146D01*
X136782773Y-74509763D01*
X136612039Y-74543724D01*
X136437961Y-74543724D01*
X136267227Y-74509763D01*
X136106400Y-74443146D01*
X135961659Y-74346433D01*
X135838567Y-74223341D01*
X135741854Y-74078600D01*
X135675237Y-73917773D01*
X135641276Y-73747039D01*
X135641276Y-73572961D01*
X135675237Y-73402227D01*
X135741854Y-73241400D01*
X135838567Y-73096659D01*
X135961659Y-72973567D01*
X136106400Y-72876854D01*
X136267227Y-72810237D01*
X136437961Y-72776276D01*
X136612039Y-72776276D01*
X136782773Y-72810237D01*
G37*
G36*
X139322773Y-72810237D02*
G01*
X139483600Y-72876854D01*
X139628341Y-72973567D01*
X139751433Y-73096659D01*
X139848146Y-73241400D01*
X139914763Y-73402227D01*
X139948724Y-73572961D01*
X139948724Y-73747039D01*
X139914763Y-73917773D01*
X139848146Y-74078600D01*
X139751433Y-74223341D01*
X139628341Y-74346433D01*
X139483600Y-74443146D01*
X139322773Y-74509763D01*
X139152039Y-74543724D01*
X138977961Y-74543724D01*
X138807227Y-74509763D01*
X138646400Y-74443146D01*
X138501659Y-74346433D01*
X138378567Y-74223341D01*
X138281854Y-74078600D01*
X138215237Y-73917773D01*
X138181276Y-73747039D01*
X138181276Y-73572961D01*
X138215237Y-73402227D01*
X138281854Y-73241400D01*
X138378567Y-73096659D01*
X138501659Y-72973567D01*
X138646400Y-72876854D01*
X138807227Y-72810237D01*
X138977961Y-72776276D01*
X139152039Y-72776276D01*
X139322773Y-72810237D01*
G37*
M02*
