%TF.GenerationSoftware,KiCad,Pcbnew,9.0.3-9.0.3-0~ubuntu22.04.1*%
%TF.CreationDate,2025-07-27T07:15:49-07:00*%
%TF.ProjectId,mixer-main,6d697865-722d-46d6-9169-6e2e6b696361,rev?*%
%TF.SameCoordinates,Original*%
%TF.FileFunction,Copper,L1,Top*%
%TF.FilePolarity,Positive*%
%FSLAX46Y46*%
G04 Gerber Fmt 4.6, Leading zero omitted, Abs format (unit mm)*
G04 Created by KiCad (PCBNEW 9.0.3-9.0.3-0~ubuntu22.04.1) date 2025-07-27 07:15:49*
%MOMM*%
%LPD*%
G01*
G04 APERTURE LIST*
G04 Aperture macros list*
%AMRoundRect*
0 Rectangle with rounded corners*
0 $1 Rounding radius*
0 $2 $3 $4 $5 $6 $7 $8 $9 X,Y pos of 4 corners*
0 Add a 4 corners polygon primitive as box body*
4,1,4,$2,$3,$4,$5,$6,$7,$8,$9,$2,$3,0*
0 Add four circle primitives for the rounded corners*
1,1,$1+$1,$2,$3*
1,1,$1+$1,$4,$5*
1,1,$1+$1,$6,$7*
1,1,$1+$1,$8,$9*
0 Add four rect primitives between the rounded corners*
20,1,$1+$1,$2,$3,$4,$5,0*
20,1,$1+$1,$4,$5,$6,$7,0*
20,1,$1+$1,$6,$7,$8,$9,0*
20,1,$1+$1,$8,$9,$2,$3,0*%
%AMFreePoly0*
4,1,23,0.550000,-0.750000,0.000000,-0.750000,0.000000,-0.745722,-0.065263,-0.745722,-0.191342,-0.711940,-0.304381,-0.646677,-0.396677,-0.554381,-0.461940,-0.441342,-0.495722,-0.315263,-0.495722,-0.250000,-0.500000,-0.250000,-0.500000,0.250000,-0.495722,0.250000,-0.495722,0.315263,-0.461940,0.441342,-0.396677,0.554381,-0.304381,0.646677,-0.191342,0.711940,-0.065263,0.745722,0.000000,0.745722,
0.000000,0.750000,0.550000,0.750000,0.550000,-0.750000,0.550000,-0.750000,$1*%
%AMFreePoly1*
4,1,23,0.000000,0.745722,0.065263,0.745722,0.191342,0.711940,0.304381,0.646677,0.396677,0.554381,0.461940,0.441342,0.495722,0.315263,0.495722,0.250000,0.500000,0.250000,0.500000,-0.250000,0.495722,-0.250000,0.495722,-0.315263,0.461940,-0.441342,0.396677,-0.554381,0.304381,-0.646677,0.191342,-0.711940,0.065263,-0.745722,0.000000,-0.745722,0.000000,-0.750000,-0.550000,-0.750000,
-0.550000,0.750000,0.000000,0.750000,0.000000,0.745722,0.000000,0.745722,$1*%
G04 Aperture macros list end*
%TA.AperFunction,SMDPad,CuDef*%
%ADD10RoundRect,0.250000X0.250000X0.475000X-0.250000X0.475000X-0.250000X-0.475000X0.250000X-0.475000X0*%
%TD*%
%TA.AperFunction,SMDPad,CuDef*%
%ADD11RoundRect,0.200000X-0.275000X0.200000X-0.275000X-0.200000X0.275000X-0.200000X0.275000X0.200000X0*%
%TD*%
%TA.AperFunction,SMDPad,CuDef*%
%ADD12RoundRect,0.200000X0.200000X0.275000X-0.200000X0.275000X-0.200000X-0.275000X0.200000X-0.275000X0*%
%TD*%
%TA.AperFunction,ComponentPad*%
%ADD13R,1.700000X1.700000*%
%TD*%
%TA.AperFunction,ComponentPad*%
%ADD14C,1.700000*%
%TD*%
%TA.AperFunction,SMDPad,CuDef*%
%ADD15RoundRect,0.250000X-0.325000X-0.650000X0.325000X-0.650000X0.325000X0.650000X-0.325000X0.650000X0*%
%TD*%
%TA.AperFunction,SMDPad,CuDef*%
%ADD16RoundRect,0.250000X-0.650000X0.325000X-0.650000X-0.325000X0.650000X-0.325000X0.650000X0.325000X0*%
%TD*%
%TA.AperFunction,SMDPad,CuDef*%
%ADD17RoundRect,0.175000X0.625000X-0.175000X0.625000X0.175000X-0.625000X0.175000X-0.625000X-0.175000X0*%
%TD*%
%TA.AperFunction,SMDPad,CuDef*%
%ADD18RoundRect,0.200000X0.600000X-0.200000X0.600000X0.200000X-0.600000X0.200000X-0.600000X-0.200000X0*%
%TD*%
%TA.AperFunction,SMDPad,CuDef*%
%ADD19RoundRect,0.225000X0.575000X-0.225000X0.575000X0.225000X-0.575000X0.225000X-0.575000X-0.225000X0*%
%TD*%
%TA.AperFunction,HeatsinkPad*%
%ADD20O,1.700000X1.000000*%
%TD*%
%TA.AperFunction,ComponentPad*%
%ADD21C,2.000000*%
%TD*%
%TA.AperFunction,SMDPad,CuDef*%
%ADD22RoundRect,0.200000X0.275000X-0.200000X0.275000X0.200000X-0.275000X0.200000X-0.275000X-0.200000X0*%
%TD*%
%TA.AperFunction,SMDPad,CuDef*%
%ADD23RoundRect,0.225000X0.250000X-0.225000X0.250000X0.225000X-0.250000X0.225000X-0.250000X-0.225000X0*%
%TD*%
%TA.AperFunction,SMDPad,CuDef*%
%ADD24RoundRect,0.150000X0.150000X-0.825000X0.150000X0.825000X-0.150000X0.825000X-0.150000X-0.825000X0*%
%TD*%
%TA.AperFunction,SMDPad,CuDef*%
%ADD25RoundRect,0.150000X-0.150000X0.512500X-0.150000X-0.512500X0.150000X-0.512500X0.150000X0.512500X0*%
%TD*%
%TA.AperFunction,SMDPad,CuDef*%
%ADD26FreePoly0,270.000000*%
%TD*%
%TA.AperFunction,SMDPad,CuDef*%
%ADD27R,1.500000X1.000000*%
%TD*%
%TA.AperFunction,SMDPad,CuDef*%
%ADD28FreePoly1,270.000000*%
%TD*%
%TA.AperFunction,SMDPad,CuDef*%
%ADD29RoundRect,0.218750X0.218750X0.381250X-0.218750X0.381250X-0.218750X-0.381250X0.218750X-0.381250X0*%
%TD*%
%TA.AperFunction,SMDPad,CuDef*%
%ADD30RoundRect,0.150000X0.512500X0.150000X-0.512500X0.150000X-0.512500X-0.150000X0.512500X-0.150000X0*%
%TD*%
%TA.AperFunction,SMDPad,CuDef*%
%ADD31RoundRect,0.250000X0.650000X-0.325000X0.650000X0.325000X-0.650000X0.325000X-0.650000X-0.325000X0*%
%TD*%
%TA.AperFunction,SMDPad,CuDef*%
%ADD32RoundRect,0.225000X0.225000X0.250000X-0.225000X0.250000X-0.225000X-0.250000X0.225000X-0.250000X0*%
%TD*%
%TA.AperFunction,ViaPad*%
%ADD33C,0.600000*%
%TD*%
%TA.AperFunction,ViaPad*%
%ADD34C,0.800000*%
%TD*%
%TA.AperFunction,ViaPad*%
%ADD35C,0.700000*%
%TD*%
%TA.AperFunction,Conductor*%
%ADD36C,0.500000*%
%TD*%
%TA.AperFunction,Conductor*%
%ADD37C,0.400000*%
%TD*%
%TA.AperFunction,Conductor*%
%ADD38C,0.300000*%
%TD*%
%TA.AperFunction,Conductor*%
%ADD39C,0.700000*%
%TD*%
G04 APERTURE END LIST*
D10*
%TO.P,C6,1*%
%TO.N,/LDO_FB*%
X146746000Y-73406000D03*
%TO.P,C6,2*%
%TO.N,GND*%
X144846000Y-73406000D03*
%TD*%
D11*
%TO.P,R8,1*%
%TO.N,/IN_SIG_2*%
X127508000Y-78740000D03*
%TO.P,R8,2*%
%TO.N,Net-(U1A--)*%
X127508000Y-80390000D03*
%TD*%
D12*
%TO.P,R1,1*%
%TO.N,Net-(U1A--)*%
X136715000Y-90981000D03*
%TO.P,R1,2*%
%TO.N,Net-(R1-Pad2)*%
X135065000Y-90981000D03*
%TD*%
D11*
%TO.P,R3,1*%
%TO.N,Net-(U2-REF)*%
X148524000Y-88323500D03*
%TO.P,R3,2*%
%TO.N,GND*%
X148524000Y-89973500D03*
%TD*%
D13*
%TO.P,J2,1,Pin_1*%
%TO.N,/MIX_OUT*%
X131445000Y-73660000D03*
D14*
%TO.P,J2,2,Pin_2*%
%TO.N,GND*%
X133985000Y-73660000D03*
%TO.P,J2,3,Pin_3*%
%TO.N,/TO_OPAMP_7*%
X136525000Y-73660000D03*
%TO.P,J2,4,Pin_4*%
%TO.N,/TO_OPAMP_6*%
X139065000Y-73660000D03*
%TD*%
D15*
%TO.P,C4,1*%
%TO.N,/LDO_IN*%
X151814000Y-75692000D03*
%TO.P,C4,2*%
%TO.N,GND*%
X154764000Y-75692000D03*
%TD*%
D16*
%TO.P,C7,1*%
%TO.N,/MIX_OUT*%
X130175000Y-76886000D03*
%TO.P,C7,2*%
%TO.N,Net-(JP1-B)*%
X130175000Y-79836000D03*
%TD*%
D17*
%TO.P,J1,A5,CC1*%
%TO.N,Net-(J1-CC1)*%
X156840000Y-85033000D03*
D18*
%TO.P,J1,A9,VBUS*%
%TO.N,Net-(FB1-Pad1)*%
X156840000Y-83013000D03*
D19*
%TO.P,J1,A12,GND*%
%TO.N,GND*%
X156840000Y-81783000D03*
D17*
%TO.P,J1,B5,CC2*%
%TO.N,Net-(J1-CC2)*%
X156840000Y-84033000D03*
D18*
%TO.P,J1,B9,VBUS*%
%TO.N,Net-(FB1-Pad1)*%
X156840000Y-86053000D03*
D19*
%TO.P,J1,B12,GND*%
%TO.N,GND*%
X156840000Y-87283000D03*
D20*
%TO.P,J1,S1,SHIELD*%
X157020000Y-88853000D03*
X160820000Y-88853000D03*
X157020000Y-80213000D03*
X160820000Y-80213000D03*
%TD*%
D12*
%TO.P,R5,1*%
%TO.N,Net-(J1-CC1)*%
X154749000Y-85295000D03*
%TO.P,R5,2*%
%TO.N,GND*%
X153099000Y-85295000D03*
%TD*%
D21*
%TO.P,TP4,1,1*%
%TO.N,Net-(U1A--)*%
X141605000Y-91440000D03*
%TD*%
%TO.P,TP3,1,1*%
%TO.N,Net-(FB1-Pad1)*%
X153797000Y-89154000D03*
%TD*%
D11*
%TO.P,R10,1*%
%TO.N,/IN_SIG_4*%
X127508000Y-88900000D03*
%TO.P,R10,2*%
%TO.N,Net-(U1A--)*%
X127508000Y-90550000D03*
%TD*%
%TO.P,R12,1*%
%TO.N,+3.3V*%
X143317000Y-85021500D03*
%TO.P,R12,2*%
%TO.N,/VREF_1.65V*%
X143317000Y-86671500D03*
%TD*%
D22*
%TO.P,R2,1*%
%TO.N,Net-(R1-Pad2)*%
X133350000Y-88709000D03*
%TO.P,R2,2*%
%TO.N,/TO_OPAMP_6*%
X133350000Y-87059000D03*
%TD*%
D11*
%TO.P,R4,1*%
%TO.N,/VREF_1.65V*%
X146619000Y-85021500D03*
%TO.P,R4,2*%
%TO.N,Net-(U2-REF)*%
X146619000Y-86671500D03*
%TD*%
D12*
%TO.P,R6,1*%
%TO.N,Net-(J1-CC2)*%
X154749000Y-83771000D03*
%TO.P,R6,2*%
%TO.N,GND*%
X153099000Y-83771000D03*
%TD*%
D23*
%TO.P,C1,1*%
%TO.N,/VREF_1.65V*%
X144968000Y-86621500D03*
%TO.P,C1,2*%
%TO.N,GND*%
X144968000Y-85071500D03*
%TD*%
D24*
%TO.P,U1,1*%
%TO.N,Net-(R1-Pad2)*%
X135255000Y-88835000D03*
%TO.P,U1,2,-*%
%TO.N,Net-(U1A--)*%
X136525000Y-88835000D03*
%TO.P,U1,3,+*%
%TO.N,/VREF_1.65V*%
X137795000Y-88835000D03*
%TO.P,U1,4,V-*%
%TO.N,GND*%
X139065000Y-88835000D03*
%TO.P,U1,5,+*%
%TO.N,/VREF_1.65V*%
X139065000Y-83885000D03*
%TO.P,U1,6,-*%
%TO.N,/TO_OPAMP_6*%
X137795000Y-83885000D03*
%TO.P,U1,7*%
%TO.N,/TO_OPAMP_7*%
X136525000Y-83885000D03*
%TO.P,U1,8,V+*%
%TO.N,+3.3V*%
X135255000Y-83885000D03*
%TD*%
D11*
%TO.P,R7,1*%
%TO.N,/IN_SIG_1*%
X127508000Y-73660000D03*
%TO.P,R7,2*%
%TO.N,Net-(U1A--)*%
X127508000Y-75310000D03*
%TD*%
D13*
%TO.P,J3,1,Pin_1*%
%TO.N,/IN_SIG_1*%
X124968000Y-73660000D03*
D14*
%TO.P,J3,2,Pin_2*%
%TO.N,/VREF_1.65V*%
X124968000Y-76200000D03*
%TO.P,J3,3,Pin_3*%
%TO.N,/IN_SIG_2*%
X124968000Y-78740000D03*
%TO.P,J3,4,Pin_4*%
%TO.N,/VREF_1.65V*%
X124968000Y-81280000D03*
%TO.P,J3,5,Pin_5*%
%TO.N,/IN_SIG_3*%
X124968000Y-83820000D03*
%TO.P,J3,6,Pin_6*%
%TO.N,/VREF_1.65V*%
X124968000Y-86360000D03*
%TO.P,J3,7,Pin_7*%
%TO.N,/IN_SIG_4*%
X124968000Y-88900000D03*
%TO.P,J3,8,Pin_8*%
%TO.N,/VREF_1.65V*%
X124968000Y-91440000D03*
%TD*%
D21*
%TO.P,TP2,1,1*%
%TO.N,+3.3V*%
X141097000Y-78613000D03*
%TD*%
%TO.P,TP1,1,1*%
%TO.N,/VREF_1.65V*%
X146558000Y-82296000D03*
%TD*%
D25*
%TO.P,U2,1,REF*%
%TO.N,Net-(U2-REF)*%
X146680000Y-88392000D03*
%TO.P,U2,2,K*%
%TO.N,/VREF_1.65V*%
X144780000Y-88392000D03*
%TO.P,U2,3,A*%
%TO.N,GND*%
X145730000Y-90667000D03*
%TD*%
D11*
%TO.P,R9,1*%
%TO.N,/IN_SIG_3*%
X127508000Y-83820000D03*
%TO.P,R9,2*%
%TO.N,Net-(U1A--)*%
X127508000Y-85470000D03*
%TD*%
D26*
%TO.P,JP1,1,A*%
%TO.N,/MIX_OUT*%
X132715000Y-77011000D03*
D27*
%TO.P,JP1,2,C*%
%TO.N,Net-(JP1-C)*%
X132715000Y-78361000D03*
D28*
%TO.P,JP1,3,B*%
%TO.N,Net-(JP1-B)*%
X132715000Y-79711000D03*
%TD*%
D29*
%TO.P,FB1,1*%
%TO.N,Net-(FB1-Pad1)*%
X154859500Y-78740000D03*
%TO.P,FB1,2*%
%TO.N,/LDO_IN*%
X152734500Y-78740000D03*
%TD*%
D30*
%TO.P,U3,1,IN*%
%TO.N,/LDO_IN*%
X149346500Y-78166000D03*
%TO.P,U3,2,GND*%
%TO.N,GND*%
X149346500Y-77216000D03*
%TO.P,U3,3,EN*%
%TO.N,/LDO_IN*%
X149346500Y-76266000D03*
%TO.P,U3,4,BP*%
%TO.N,/LDO_FB*%
X147071500Y-76266000D03*
%TO.P,U3,5,OUT*%
%TO.N,+3.3V*%
X147071500Y-78166000D03*
%TD*%
D23*
%TO.P,C2,1*%
%TO.N,Net-(U2-REF)*%
X148270000Y-86621500D03*
%TO.P,C2,2*%
%TO.N,GND*%
X148270000Y-85071500D03*
%TD*%
D31*
%TO.P,C5,1*%
%TO.N,+3.3V*%
X143891000Y-78691000D03*
%TO.P,C5,2*%
%TO.N,GND*%
X143891000Y-75741000D03*
%TD*%
D32*
%TO.P,C3,1*%
%TO.N,+3.3V*%
X133490000Y-83361000D03*
%TO.P,C3,2*%
%TO.N,GND*%
X131940000Y-83361000D03*
%TD*%
D12*
%TO.P,R11,1*%
%TO.N,/TO_OPAMP_7*%
X136715000Y-81788000D03*
%TO.P,R11,2*%
%TO.N,Net-(JP1-C)*%
X135065000Y-81788000D03*
%TD*%
D33*
%TO.N,GND*%
X147828000Y-77216000D03*
X155956000Y-74168000D03*
X156210000Y-75184000D03*
X156210000Y-76200000D03*
X155956000Y-77470000D03*
X156464000Y-78486000D03*
X141478000Y-72898000D03*
X129540000Y-83058000D03*
X160528000Y-86360000D03*
X153924000Y-92710000D03*
X158496000Y-73914000D03*
X160528000Y-82804000D03*
X127762000Y-92202000D03*
D34*
X159004000Y-87884000D03*
D33*
X150114000Y-72644000D03*
D34*
X159004000Y-81280000D03*
D33*
X158496000Y-77216000D03*
X146812000Y-77216000D03*
X151638000Y-81788000D03*
X147574000Y-92710000D03*
X132334000Y-81534000D03*
X141224000Y-82550000D03*
X154178000Y-72644000D03*
X150622000Y-85598000D03*
X139446000Y-80010000D03*
X132334000Y-90424000D03*
X127762000Y-72136000D03*
X135128000Y-76708000D03*
X130048000Y-87884000D03*
D34*
X139192000Y-90678000D03*
D33*
X158750000Y-91948000D03*
X139192000Y-76200000D03*
X151384000Y-90170000D03*
D35*
%TO.N,/VREF_1.65V*%
X128524000Y-86868000D03*
D33*
X137795000Y-87376000D03*
D35*
X126617000Y-86868000D03*
X135890000Y-86360000D03*
D34*
%TO.N,+3.3V*%
X139954000Y-85344000D03*
X137122000Y-85378522D03*
%TD*%
D36*
%TO.N,GND*%
X148844000Y-77216000D02*
X146812000Y-77216000D01*
D37*
%TO.N,/VREF_1.65V*%
X135890000Y-86360000D02*
X135382000Y-86360000D01*
X135382000Y-86360000D02*
X134620000Y-85598000D01*
X134620000Y-85598000D02*
X129794000Y-85598000D01*
X129794000Y-85598000D02*
X128524000Y-86868000D01*
D38*
%TO.N,/TO_OPAMP_6*%
X139065000Y-73660000D02*
X138430000Y-74295000D01*
X138430000Y-74295000D02*
X138430000Y-82832322D01*
X138430000Y-82832322D02*
X138414000Y-82848322D01*
X138414000Y-82848322D02*
X138414000Y-83266000D01*
X138414000Y-83266000D02*
X137795000Y-83885000D01*
%TO.N,/TO_OPAMP_7*%
X136715000Y-75120000D02*
X136715000Y-81788000D01*
%TO.N,/MIX_OUT*%
X131445000Y-73660000D02*
X130175000Y-74930000D01*
%TO.N,/TO_OPAMP_7*%
X136525000Y-74930000D02*
X136715000Y-75120000D01*
%TO.N,/MIX_OUT*%
X130175000Y-74930000D02*
X130175000Y-76886000D01*
%TO.N,/TO_OPAMP_7*%
X136525000Y-73660000D02*
X136525000Y-74930000D01*
%TO.N,Net-(U1A--)*%
X136715000Y-90981000D02*
X137428000Y-91694000D01*
X137428000Y-91694000D02*
X141351000Y-91694000D01*
X141351000Y-91694000D02*
X141605000Y-91440000D01*
D39*
%TO.N,Net-(FB1-Pad1)*%
X156840000Y-86053000D02*
X155533616Y-86053000D01*
X155533616Y-86053000D02*
X153797000Y-87789616D01*
X153797000Y-87789616D02*
X153797000Y-89154000D01*
D36*
%TO.N,GND*%
X157020000Y-80213000D02*
X157937000Y-80213000D01*
X159851000Y-87884000D02*
X160820000Y-88853000D01*
X159004000Y-87884000D02*
X159851000Y-87884000D01*
X157989000Y-87884000D02*
X157020000Y-88853000D01*
D38*
X139192000Y-88962000D02*
X139065000Y-88835000D01*
D36*
X157895000Y-87283000D02*
X156840000Y-87283000D01*
D38*
X139192000Y-90678000D02*
X139192000Y-88962000D01*
D36*
X159004000Y-87884000D02*
X157989000Y-87884000D01*
X158501000Y-81783000D02*
X159004000Y-81280000D01*
X159004000Y-87884000D02*
X158496000Y-87884000D01*
X156840000Y-81783000D02*
X158501000Y-81783000D01*
X160820000Y-80213000D02*
X160071000Y-80213000D01*
X160071000Y-80213000D02*
X159004000Y-81280000D01*
X158496000Y-87884000D02*
X157895000Y-87283000D01*
X157937000Y-80213000D02*
X159004000Y-81280000D01*
D37*
%TO.N,/VREF_1.65V*%
X144918000Y-86671500D02*
X144968000Y-86621500D01*
X137795000Y-87111000D02*
X137795000Y-88835000D01*
X126109000Y-86360000D02*
X126617000Y-86868000D01*
X137806000Y-87365000D02*
X137806000Y-87122000D01*
X144780000Y-86809500D02*
X144968000Y-86621500D01*
D38*
X146558000Y-82296000D02*
X146558000Y-84960500D01*
D37*
X123717000Y-86360000D02*
X123717000Y-90189000D01*
X139065000Y-85841000D02*
X137795000Y-87111000D01*
X143317000Y-86671500D02*
X144918000Y-86671500D01*
X124968000Y-81280000D02*
X123717000Y-81280000D01*
X142612500Y-87376000D02*
X143317000Y-86671500D01*
X146619000Y-85021500D02*
X146568000Y-85021500D01*
X139065000Y-83885000D02*
X139065000Y-85841000D01*
X137795000Y-87376000D02*
X142612500Y-87376000D01*
X124968000Y-76200000D02*
X123717000Y-77451000D01*
X123717000Y-90189000D02*
X124968000Y-91440000D01*
X123717000Y-77451000D02*
X123717000Y-81280000D01*
X144780000Y-88392000D02*
X144780000Y-86809500D01*
X123717000Y-81280000D02*
X123717000Y-86360000D01*
X137806000Y-87122000D02*
X137795000Y-87111000D01*
X137795000Y-87376000D02*
X137806000Y-87365000D01*
D38*
X146558000Y-84960500D02*
X146619000Y-85021500D01*
D37*
X138938000Y-84012000D02*
X139065000Y-83885000D01*
X124968000Y-86360000D02*
X123717000Y-86360000D01*
X146568000Y-85021500D02*
X144968000Y-86621500D01*
X124968000Y-86360000D02*
X126109000Y-86360000D01*
D38*
%TO.N,Net-(U2-REF)*%
X148524000Y-88323500D02*
X148524000Y-86875500D01*
X148220000Y-86671500D02*
X148270000Y-86621500D01*
X148524000Y-86875500D02*
X148270000Y-86621500D01*
X146619000Y-86671500D02*
X146619000Y-88331000D01*
X146619000Y-86671500D02*
X148220000Y-86671500D01*
X146619000Y-88331000D02*
X146680000Y-88392000D01*
D39*
%TO.N,+3.3V*%
X143317000Y-79265000D02*
X143891000Y-78691000D01*
D36*
X135773523Y-85378522D02*
X135255000Y-84859999D01*
D39*
X143317000Y-85021500D02*
X143317000Y-79265000D01*
D36*
X135255000Y-84859999D02*
X135255000Y-83885000D01*
X142994500Y-85344000D02*
X143317000Y-85021500D01*
X139954000Y-85344000D02*
X142994500Y-85344000D01*
X137122000Y-85378522D02*
X135773523Y-85378522D01*
X133490000Y-83361000D02*
X134731000Y-83361000D01*
X134731000Y-83361000D02*
X135255000Y-83885000D01*
D38*
%TO.N,Net-(JP1-B)*%
X130300000Y-79711000D02*
X130175000Y-79836000D01*
X132715000Y-79711000D02*
X130300000Y-79711000D01*
D39*
%TO.N,Net-(FB1-Pad1)*%
X157689000Y-83013000D02*
X156840000Y-83013000D01*
X155533616Y-83013000D02*
X154859500Y-82338884D01*
X154859500Y-82338884D02*
X154859500Y-78740000D01*
X158191000Y-83515000D02*
X157689000Y-83013000D01*
X156840000Y-83013000D02*
X155533616Y-83013000D01*
X157651568Y-86053000D02*
X158191000Y-85513568D01*
X158191000Y-85513568D02*
X158191000Y-83515000D01*
X156840000Y-86053000D02*
X157651568Y-86053000D01*
D36*
%TO.N,Net-(J1-CC1)*%
X155011000Y-85033000D02*
X154749000Y-85295000D01*
X156840000Y-85033000D02*
X155011000Y-85033000D01*
%TO.N,Net-(J1-CC2)*%
X156840000Y-84033000D02*
X155011000Y-84033000D01*
X155011000Y-84033000D02*
X154749000Y-83771000D01*
D38*
%TO.N,Net-(JP1-C)*%
X135065000Y-79661000D02*
X135065000Y-81788000D01*
X133765000Y-78361000D02*
X135065000Y-79661000D01*
X132715000Y-78361000D02*
X133765000Y-78361000D01*
%TO.N,Net-(U1A--)*%
X127823000Y-87955226D02*
X128334000Y-88466226D01*
X136715000Y-91179000D02*
X136715000Y-90981000D01*
X135438000Y-92456000D02*
X136715000Y-91179000D01*
X128334000Y-88466226D02*
X128334000Y-89724000D01*
X136525000Y-90791000D02*
X136715000Y-90981000D01*
X130873000Y-92456000D02*
X135438000Y-92456000D01*
X136525000Y-88835000D02*
X136525000Y-90791000D01*
X127823000Y-85665000D02*
X127823000Y-87955226D01*
X128334000Y-80264000D02*
X128334000Y-85154000D01*
X130873000Y-92456000D02*
X128967000Y-90550000D01*
X127508000Y-75310000D02*
X128334000Y-76136000D01*
X128334000Y-89724000D02*
X127508000Y-90550000D01*
X128208000Y-80390000D02*
X128334000Y-80264000D01*
X128967000Y-90550000D02*
X127508000Y-90550000D01*
X128334000Y-76136000D02*
X128334000Y-80264000D01*
X128334000Y-85154000D02*
X127823000Y-85665000D01*
X127508000Y-80390000D02*
X128208000Y-80390000D01*
%TO.N,Net-(R1-Pad2)*%
X135129000Y-88709000D02*
X135255000Y-88835000D01*
X133350000Y-88709000D02*
X135129000Y-88709000D01*
X135255000Y-90791000D02*
X135065000Y-90981000D01*
X135255000Y-88835000D02*
X135255000Y-90791000D01*
%TO.N,/MIX_OUT*%
X132590000Y-76886000D02*
X132715000Y-77011000D01*
X130175000Y-76886000D02*
X132590000Y-76886000D01*
%TO.N,/TO_OPAMP_6*%
X137922000Y-84012000D02*
X137795000Y-83885000D01*
X133350000Y-87059000D02*
X133413000Y-87122000D01*
X136906000Y-87122000D02*
X137922000Y-86106000D01*
X137922000Y-86106000D02*
X137922000Y-84012000D01*
X133413000Y-87122000D02*
X136906000Y-87122000D01*
%TO.N,/TO_OPAMP_7*%
X136525000Y-83885000D02*
X136525000Y-81978000D01*
X136525000Y-81978000D02*
X136715000Y-81788000D01*
D37*
%TO.N,/IN_SIG_4*%
X127508000Y-88900000D02*
X124968000Y-88900000D01*
%TO.N,/IN_SIG_3*%
X124968000Y-83820000D02*
X127508000Y-83820000D01*
D38*
%TO.N,/IN_SIG_1*%
X124968000Y-73660000D02*
X127699000Y-73660000D01*
D37*
%TO.N,/IN_SIG_2*%
X124968000Y-78740000D02*
X127508000Y-78740000D01*
%TD*%
%TA.AperFunction,Conductor*%
%TO.N,+3.3V*%
G36*
X145176931Y-76982002D02*
G01*
X145197900Y-76998900D01*
X145923000Y-77724000D01*
X146124417Y-77724000D01*
X146192538Y-77744002D01*
X146213512Y-77760905D01*
X146296603Y-77843996D01*
X146296609Y-77844001D01*
X146296611Y-77844003D01*
X146429032Y-77932483D01*
X146576169Y-77993430D01*
X146732370Y-78024500D01*
X146732371Y-78024500D01*
X146891626Y-78024500D01*
X146891630Y-78024500D01*
X146892240Y-78024378D01*
X146908328Y-78022705D01*
X146908300Y-78022364D01*
X146912782Y-78021993D01*
X146912785Y-78021994D01*
X147448494Y-77977758D01*
X147470250Y-77975297D01*
X147484407Y-77974500D01*
X147521407Y-77974500D01*
X147569624Y-77984091D01*
X147592169Y-77993430D01*
X147748370Y-78024500D01*
X147748371Y-78024500D01*
X147829000Y-78024500D01*
X147897121Y-78044502D01*
X147943614Y-78098158D01*
X147955000Y-78150500D01*
X147955000Y-79630000D01*
X147934998Y-79698121D01*
X147881342Y-79744614D01*
X147829000Y-79756000D01*
X143637000Y-79756000D01*
X142132398Y-80257534D01*
X142092553Y-80264000D01*
X141223000Y-80264000D01*
X141154879Y-80243998D01*
X141108386Y-80190342D01*
X141097000Y-80138000D01*
X141097000Y-77088000D01*
X141117002Y-77019879D01*
X141170658Y-76973386D01*
X141223000Y-76962000D01*
X145108810Y-76962000D01*
X145176931Y-76982002D01*
G37*
%TD.AperFunction*%
%TD*%
%TA.AperFunction,Conductor*%
%TO.N,/LDO_IN*%
G36*
X153485121Y-74442002D02*
G01*
X153531614Y-74495658D01*
X153543000Y-74548000D01*
X153543000Y-76708001D01*
X154037698Y-77697396D01*
X154040718Y-77710190D01*
X154045896Y-77718247D01*
X154051000Y-77753745D01*
X154051000Y-77893846D01*
X154032241Y-77959992D01*
X153977152Y-78049305D01*
X153923675Y-78210690D01*
X153913500Y-78310280D01*
X153913500Y-79169708D01*
X153913501Y-79169710D01*
X153914042Y-79175009D01*
X153913834Y-79195341D01*
X153923607Y-79268638D01*
X153923804Y-79270566D01*
X153923804Y-79270568D01*
X153923938Y-79271888D01*
X153924378Y-79274426D01*
X153969568Y-79613347D01*
X153958744Y-79683514D01*
X153911704Y-79736690D01*
X153844673Y-79756000D01*
X148589000Y-79756000D01*
X148520879Y-79735998D01*
X148474386Y-79682342D01*
X148463000Y-79630000D01*
X148463000Y-78111758D01*
X148483002Y-78043637D01*
X148536658Y-77997144D01*
X148606932Y-77987040D01*
X148624141Y-77990758D01*
X148730169Y-78021562D01*
X148767488Y-78024499D01*
X148767489Y-78024500D01*
X148767498Y-78024500D01*
X149925511Y-78024500D01*
X149925511Y-78024499D01*
X149962831Y-78021562D01*
X150122601Y-77975145D01*
X150122603Y-77975143D01*
X150122605Y-77975143D01*
X150194204Y-77932799D01*
X150265807Y-77890453D01*
X150383453Y-77772807D01*
X150461004Y-77641676D01*
X150468143Y-77629605D01*
X150468143Y-77629603D01*
X150468145Y-77629601D01*
X150514562Y-77469831D01*
X150517499Y-77432511D01*
X150517500Y-77432511D01*
X150517500Y-76999489D01*
X150517499Y-76999488D01*
X150517126Y-76994754D01*
X150514562Y-76962169D01*
X150468145Y-76802399D01*
X150468143Y-76802397D01*
X150468143Y-76802394D01*
X150383455Y-76659196D01*
X150383450Y-76659189D01*
X150265810Y-76541549D01*
X150265803Y-76541544D01*
X150122605Y-76456856D01*
X149962829Y-76410437D01*
X149925511Y-76407500D01*
X149925502Y-76407500D01*
X148767498Y-76407500D01*
X148767489Y-76407500D01*
X148730171Y-76410437D01*
X148730167Y-76410438D01*
X148624152Y-76441238D01*
X148553156Y-76441035D01*
X148493540Y-76402481D01*
X148464232Y-76337816D01*
X148463000Y-76320241D01*
X148463000Y-75490190D01*
X148483002Y-75422069D01*
X148499905Y-75401095D01*
X149442095Y-74458905D01*
X149504407Y-74424879D01*
X149531190Y-74422000D01*
X153417000Y-74422000D01*
X153485121Y-74442002D01*
G37*
%TD.AperFunction*%
%TD*%
%TA.AperFunction,Conductor*%
%TO.N,/LDO_FB*%
G36*
X148659121Y-72410002D02*
G01*
X148705614Y-72463658D01*
X148717000Y-72516000D01*
X148717000Y-74369809D01*
X148696998Y-74437930D01*
X148680095Y-74458904D01*
X147955000Y-75183998D01*
X147955000Y-76281500D01*
X147934998Y-76349621D01*
X147881342Y-76396114D01*
X147829000Y-76407500D01*
X147748367Y-76407500D01*
X147592169Y-76438570D01*
X147592168Y-76438570D01*
X147584347Y-76441810D01*
X147569624Y-76447908D01*
X147561315Y-76449561D01*
X147556905Y-76452396D01*
X147521407Y-76457500D01*
X147476964Y-76457500D01*
X147452969Y-76454786D01*
X147452947Y-76454932D01*
X147449410Y-76454383D01*
X147448827Y-76454318D01*
X147448500Y-76454243D01*
X147448497Y-76454242D01*
X147448494Y-76454242D01*
X146912785Y-76410006D01*
X146912774Y-76410005D01*
X146912747Y-76410003D01*
X146907593Y-76409644D01*
X146891784Y-76407530D01*
X146891634Y-76407500D01*
X146891630Y-76407500D01*
X146732370Y-76407500D01*
X146732367Y-76407500D01*
X146615219Y-76430802D01*
X146576169Y-76438570D01*
X146576167Y-76438571D01*
X146429032Y-76499516D01*
X146384885Y-76529014D01*
X146377926Y-76531192D01*
X146372654Y-76536223D01*
X146344500Y-76541657D01*
X146317131Y-76550227D01*
X146308402Y-76548626D01*
X146302945Y-76549680D01*
X146268090Y-76541235D01*
X146129205Y-76485681D01*
X146073385Y-76441810D01*
X146050144Y-76374725D01*
X146050000Y-76368693D01*
X146050000Y-72516000D01*
X146070002Y-72447879D01*
X146123658Y-72401386D01*
X146176000Y-72390000D01*
X148591000Y-72390000D01*
X148659121Y-72410002D01*
G37*
%TD.AperFunction*%
%TD*%
%TA.AperFunction,Conductor*%
%TO.N,GND*%
G36*
X158499243Y-71420669D02*
G01*
X158829805Y-71437994D01*
X158842712Y-71439351D01*
X158985353Y-71461942D01*
X159166435Y-71490622D01*
X159179122Y-71493318D01*
X159495734Y-71578155D01*
X159508073Y-71582165D01*
X159814067Y-71699625D01*
X159825910Y-71704897D01*
X160117977Y-71853712D01*
X160129191Y-71860188D01*
X160404081Y-72038703D01*
X160414581Y-72046331D01*
X160660904Y-72245800D01*
X160669308Y-72252605D01*
X160678953Y-72261290D01*
X160910709Y-72493046D01*
X160919394Y-72502691D01*
X161125667Y-72757417D01*
X161133296Y-72767918D01*
X161140044Y-72778309D01*
X161311808Y-73042802D01*
X161318290Y-73054029D01*
X161465914Y-73343757D01*
X161467097Y-73346079D01*
X161472376Y-73357937D01*
X161589834Y-73663927D01*
X161593845Y-73676270D01*
X161678679Y-73992871D01*
X161681377Y-74005568D01*
X161732648Y-74329287D01*
X161734005Y-74342194D01*
X161751330Y-74672756D01*
X161751500Y-74679246D01*
X161751500Y-79185893D01*
X161731815Y-79252932D01*
X161679011Y-79298687D01*
X161609853Y-79308631D01*
X161580048Y-79300454D01*
X161461693Y-79251430D01*
X161461681Y-79251427D01*
X161268495Y-79213000D01*
X161070000Y-79213000D01*
X161070000Y-79963000D01*
X160570000Y-79963000D01*
X160570000Y-79213000D01*
X160371504Y-79213000D01*
X160178318Y-79251427D01*
X160178306Y-79251430D01*
X159996328Y-79326807D01*
X159996315Y-79326814D01*
X159832537Y-79436248D01*
X159832533Y-79436251D01*
X159693251Y-79575533D01*
X159693248Y-79575537D01*
X159583814Y-79739315D01*
X159583807Y-79739328D01*
X159508430Y-79921307D01*
X159508430Y-79921309D01*
X159500138Y-79963000D01*
X160420272Y-79963000D01*
X160328386Y-80001060D01*
X160258060Y-80071386D01*
X160220000Y-80163272D01*
X160220000Y-80262728D01*
X160258060Y-80354614D01*
X160328386Y-80424940D01*
X160420272Y-80463000D01*
X159500138Y-80463000D01*
X159508430Y-80504690D01*
X159508430Y-80504692D01*
X159583807Y-80686671D01*
X159583814Y-80686684D01*
X159693248Y-80850462D01*
X159693251Y-80850466D01*
X159832533Y-80989748D01*
X159832537Y-80989751D01*
X159996315Y-81099185D01*
X159996328Y-81099192D01*
X160178306Y-81174569D01*
X160178318Y-81174572D01*
X160371504Y-81212999D01*
X160371508Y-81213000D01*
X160570000Y-81213000D01*
X160570000Y-80463000D01*
X161070000Y-80463000D01*
X161070000Y-81213000D01*
X161268492Y-81213000D01*
X161268495Y-81212999D01*
X161461681Y-81174572D01*
X161461689Y-81174570D01*
X161580047Y-81125545D01*
X161649516Y-81118076D01*
X161711996Y-81149351D01*
X161747648Y-81209440D01*
X161751500Y-81240106D01*
X161751500Y-87825893D01*
X161731815Y-87892932D01*
X161679011Y-87938687D01*
X161609853Y-87948631D01*
X161580048Y-87940454D01*
X161461693Y-87891430D01*
X161461681Y-87891427D01*
X161268495Y-87853000D01*
X161070000Y-87853000D01*
X161070000Y-88603000D01*
X160570000Y-88603000D01*
X160570000Y-87853000D01*
X160371504Y-87853000D01*
X160178318Y-87891427D01*
X160178306Y-87891430D01*
X159996328Y-87966807D01*
X159996315Y-87966814D01*
X159832537Y-88076248D01*
X159832533Y-88076251D01*
X159693251Y-88215533D01*
X159693248Y-88215537D01*
X159583814Y-88379315D01*
X159583807Y-88379328D01*
X159508430Y-88561307D01*
X159508430Y-88561309D01*
X159500138Y-88603000D01*
X160420272Y-88603000D01*
X160328386Y-88641060D01*
X160258060Y-88711386D01*
X160220000Y-88803272D01*
X160220000Y-88902728D01*
X160258060Y-88994614D01*
X160328386Y-89064940D01*
X160420272Y-89103000D01*
X159500138Y-89103000D01*
X159508430Y-89144690D01*
X159508430Y-89144692D01*
X159583807Y-89326671D01*
X159583814Y-89326684D01*
X159693248Y-89490462D01*
X159693251Y-89490466D01*
X159832533Y-89629748D01*
X159832537Y-89629751D01*
X159996315Y-89739185D01*
X159996328Y-89739192D01*
X160178306Y-89814569D01*
X160178318Y-89814572D01*
X160371504Y-89852999D01*
X160371508Y-89853000D01*
X160570000Y-89853000D01*
X160570000Y-89103000D01*
X161070000Y-89103000D01*
X161070000Y-89853000D01*
X161268492Y-89853000D01*
X161268495Y-89852999D01*
X161461681Y-89814572D01*
X161461689Y-89814570D01*
X161580047Y-89765545D01*
X161649516Y-89758076D01*
X161711996Y-89789351D01*
X161747648Y-89849440D01*
X161751500Y-89880106D01*
X161751500Y-90420753D01*
X161751330Y-90427243D01*
X161734005Y-90757805D01*
X161732648Y-90770712D01*
X161681377Y-91094431D01*
X161678679Y-91107128D01*
X161593845Y-91423729D01*
X161589834Y-91436072D01*
X161472376Y-91742062D01*
X161467097Y-91753920D01*
X161318294Y-92045964D01*
X161311804Y-92057204D01*
X161133296Y-92332081D01*
X161125667Y-92342582D01*
X160919394Y-92597308D01*
X160910709Y-92606953D01*
X160678953Y-92838709D01*
X160669308Y-92847394D01*
X160414582Y-93053667D01*
X160404081Y-93061296D01*
X160129204Y-93239804D01*
X160117964Y-93246294D01*
X159825920Y-93395097D01*
X159814062Y-93400376D01*
X159508072Y-93517834D01*
X159495729Y-93521845D01*
X159179128Y-93606679D01*
X159166431Y-93609377D01*
X158842712Y-93660648D01*
X158829805Y-93662005D01*
X158499244Y-93679330D01*
X158492754Y-93679500D01*
X125987246Y-93679500D01*
X125980756Y-93679330D01*
X125650194Y-93662005D01*
X125637287Y-93660648D01*
X125313568Y-93609377D01*
X125300871Y-93606679D01*
X124984270Y-93521845D01*
X124971927Y-93517834D01*
X124665937Y-93400376D01*
X124654079Y-93395097D01*
X124362029Y-93246290D01*
X124350802Y-93239808D01*
X124075918Y-93061296D01*
X124065417Y-93053667D01*
X123810691Y-92847394D01*
X123801046Y-92838709D01*
X123734319Y-92771982D01*
X123700834Y-92710659D01*
X123698000Y-92684301D01*
X123698000Y-92371236D01*
X123717685Y-92304197D01*
X123770489Y-92258442D01*
X123839647Y-92248498D01*
X123903203Y-92277523D01*
X123922320Y-92298353D01*
X123937894Y-92319790D01*
X124088213Y-92470109D01*
X124260179Y-92595048D01*
X124260181Y-92595049D01*
X124260184Y-92595051D01*
X124449588Y-92691557D01*
X124651757Y-92757246D01*
X124861713Y-92790500D01*
X124861714Y-92790500D01*
X125074286Y-92790500D01*
X125074287Y-92790500D01*
X125284243Y-92757246D01*
X125486412Y-92691557D01*
X125675816Y-92595051D01*
X125697789Y-92579086D01*
X125847786Y-92470109D01*
X125847788Y-92470106D01*
X125847792Y-92470104D01*
X125998104Y-92319792D01*
X125998106Y-92319788D01*
X125998109Y-92319786D01*
X126123048Y-92147820D01*
X126123047Y-92147820D01*
X126123051Y-92147816D01*
X126219557Y-91958412D01*
X126285246Y-91756243D01*
X126318500Y-91546287D01*
X126318500Y-91333713D01*
X126285246Y-91123757D01*
X126219557Y-90921588D01*
X126123051Y-90732184D01*
X126123049Y-90732181D01*
X126123048Y-90732179D01*
X125998109Y-90560213D01*
X125847786Y-90409890D01*
X125675819Y-90284950D01*
X125667778Y-90280853D01*
X125616984Y-90232876D01*
X125600191Y-90165055D01*
X125622731Y-90098921D01*
X125676222Y-90055977D01*
X126574521Y-89680213D01*
X126643961Y-89672503D01*
X126706549Y-89703560D01*
X126742411Y-89763524D01*
X126740160Y-89833358D01*
X126710052Y-89882289D01*
X126677530Y-89914811D01*
X126589522Y-90060393D01*
X126538913Y-90222807D01*
X126535716Y-90257994D01*
X126533267Y-90284950D01*
X126532500Y-90293386D01*
X126532500Y-90806613D01*
X126538913Y-90877192D01*
X126589522Y-91039606D01*
X126677530Y-91185188D01*
X126797811Y-91305469D01*
X126797813Y-91305470D01*
X126797815Y-91305472D01*
X126943394Y-91393478D01*
X127105804Y-91444086D01*
X127176384Y-91450500D01*
X127176387Y-91450500D01*
X127839613Y-91450500D01*
X127839616Y-91450500D01*
X127910196Y-91444086D01*
X128072606Y-91393478D01*
X128072613Y-91393474D01*
X128077959Y-91391067D01*
X128081160Y-91389389D01*
X128252337Y-91312616D01*
X128478106Y-91211357D01*
X128488194Y-91209199D01*
X128493915Y-91205523D01*
X128528850Y-91200500D01*
X128646192Y-91200500D01*
X128713231Y-91220185D01*
X128733873Y-91236819D01*
X130458325Y-92961272D01*
X130458328Y-92961275D01*
X130458331Y-92961277D01*
X130541714Y-93016991D01*
X130541715Y-93016992D01*
X130541714Y-93016992D01*
X130564871Y-93032464D01*
X130564872Y-93032464D01*
X130564873Y-93032465D01*
X130683256Y-93081501D01*
X130683260Y-93081501D01*
X130683261Y-93081502D01*
X130808928Y-93106500D01*
X130808931Y-93106500D01*
X135502071Y-93106500D01*
X135586615Y-93089682D01*
X135627744Y-93081501D01*
X135746127Y-93032465D01*
X135769286Y-93016991D01*
X135852669Y-92961277D01*
X136563422Y-92250522D01*
X136584322Y-92233724D01*
X136750873Y-92127294D01*
X136817961Y-92107783D01*
X136868210Y-92118563D01*
X136963687Y-92161207D01*
X137000799Y-92186746D01*
X137013327Y-92199274D01*
X137113575Y-92266257D01*
X137113574Y-92266258D01*
X137113580Y-92266260D01*
X137116768Y-92268390D01*
X137119871Y-92270464D01*
X137119872Y-92270464D01*
X137119873Y-92270465D01*
X137238256Y-92319501D01*
X137238260Y-92319501D01*
X137238261Y-92319502D01*
X137363928Y-92344500D01*
X137363931Y-92344500D01*
X140344257Y-92344500D01*
X140411296Y-92364185D01*
X140444573Y-92395612D01*
X140460483Y-92417510D01*
X140627490Y-92584517D01*
X140818567Y-92723343D01*
X140914026Y-92771982D01*
X141029003Y-92830566D01*
X141029005Y-92830566D01*
X141029008Y-92830568D01*
X141149412Y-92869689D01*
X141253631Y-92903553D01*
X141486903Y-92940500D01*
X141486908Y-92940500D01*
X141723097Y-92940500D01*
X141956368Y-92903553D01*
X142180992Y-92830568D01*
X142391433Y-92723343D01*
X142582510Y-92584517D01*
X142749517Y-92417510D01*
X142888343Y-92226433D01*
X142995568Y-92015992D01*
X143068553Y-91791368D01*
X143083471Y-91697178D01*
X143105500Y-91558097D01*
X143105500Y-91321902D01*
X143093343Y-91245149D01*
X144930000Y-91245149D01*
X144932899Y-91281989D01*
X144932900Y-91281995D01*
X144978716Y-91439693D01*
X144978717Y-91439696D01*
X145062314Y-91581052D01*
X145062321Y-91581061D01*
X145178438Y-91697178D01*
X145178447Y-91697185D01*
X145319801Y-91780781D01*
X145477514Y-91826600D01*
X145477511Y-91826600D01*
X145479998Y-91826795D01*
X145480000Y-91826795D01*
X145980000Y-91826795D01*
X145980001Y-91826795D01*
X145982486Y-91826600D01*
X146140198Y-91780781D01*
X146281552Y-91697185D01*
X146281561Y-91697178D01*
X146397678Y-91581061D01*
X146397685Y-91581052D01*
X146481282Y-91439696D01*
X146481283Y-91439693D01*
X146527099Y-91281995D01*
X146527100Y-91281989D01*
X146529999Y-91245149D01*
X146530000Y-91245134D01*
X146530000Y-90917000D01*
X145980000Y-90917000D01*
X145980000Y-91826795D01*
X145480000Y-91826795D01*
X145480000Y-90917000D01*
X144930000Y-90917000D01*
X144930000Y-91245149D01*
X143093343Y-91245149D01*
X143068553Y-91088631D01*
X143008548Y-90903957D01*
X142999853Y-90877196D01*
X142995568Y-90864008D01*
X142995566Y-90864005D01*
X142995566Y-90864003D01*
X142926560Y-90728572D01*
X142888343Y-90653567D01*
X142749517Y-90462490D01*
X142582510Y-90295483D01*
X142391433Y-90156657D01*
X142180996Y-90049433D01*
X141956368Y-89976446D01*
X141723097Y-89939500D01*
X141723092Y-89939500D01*
X141486908Y-89939500D01*
X141486903Y-89939500D01*
X141253631Y-89976446D01*
X141029003Y-90049433D01*
X140818566Y-90156657D01*
X140726566Y-90223500D01*
X140627490Y-90295483D01*
X140627488Y-90295485D01*
X140627487Y-90295485D01*
X140460485Y-90462487D01*
X140460485Y-90462488D01*
X140460483Y-90462490D01*
X140418110Y-90520811D01*
X140321657Y-90653566D01*
X140214433Y-90864003D01*
X140183951Y-90957819D01*
X140144513Y-91015494D01*
X140080154Y-91042692D01*
X140066020Y-91043500D01*
X137872741Y-91043500D01*
X137805702Y-91023815D01*
X137762044Y-90975377D01*
X137753181Y-90957819D01*
X137639287Y-90732184D01*
X137628803Y-90711414D01*
X137618046Y-90680538D01*
X137615500Y-90668169D01*
X137615500Y-90649384D01*
X137609086Y-90578804D01*
X137573783Y-90465510D01*
X137572546Y-90459501D01*
X137574941Y-90430558D01*
X137574464Y-90401530D01*
X137577788Y-90396163D01*
X137578310Y-90389869D01*
X137595973Y-90366816D01*
X137611265Y-90342137D01*
X137616965Y-90339419D01*
X137620805Y-90334408D01*
X137648118Y-90324567D01*
X137674334Y-90312069D01*
X137685217Y-90311200D01*
X137686538Y-90310725D01*
X137687736Y-90310999D01*
X137694000Y-90310500D01*
X138010686Y-90310500D01*
X138010694Y-90310500D01*
X138047569Y-90307598D01*
X138047571Y-90307597D01*
X138047573Y-90307597D01*
X138089269Y-90295483D01*
X138205398Y-90261744D01*
X138346865Y-90178081D01*
X138346868Y-90178077D01*
X138353026Y-90173301D01*
X138354839Y-90175638D01*
X138403949Y-90148798D01*
X138473643Y-90153756D01*
X138505996Y-90174551D01*
X138507278Y-90172900D01*
X138513447Y-90177685D01*
X138654801Y-90261281D01*
X138812514Y-90307100D01*
X138812511Y-90307100D01*
X138814998Y-90307295D01*
X138815000Y-90307295D01*
X139315000Y-90307295D01*
X139315001Y-90307295D01*
X139317486Y-90307100D01*
X139475198Y-90261281D01*
X139616552Y-90177685D01*
X139616561Y-90177678D01*
X139732678Y-90061561D01*
X139732685Y-90061552D01*
X139816282Y-89920196D01*
X139816283Y-89920193D01*
X139862099Y-89762495D01*
X139862100Y-89762489D01*
X139864999Y-89725649D01*
X139865000Y-89725634D01*
X139865000Y-89085000D01*
X139315000Y-89085000D01*
X139315000Y-90307295D01*
X138815000Y-90307295D01*
X138815000Y-88959000D01*
X138834685Y-88891961D01*
X138887489Y-88846206D01*
X138939000Y-88835000D01*
X139065000Y-88835000D01*
X139065000Y-88709000D01*
X139084685Y-88641961D01*
X139137489Y-88596206D01*
X139189000Y-88585000D01*
X139865000Y-88585000D01*
X139865000Y-88200500D01*
X139884685Y-88133461D01*
X139937489Y-88087706D01*
X139989000Y-88076500D01*
X142681496Y-88076500D01*
X142772540Y-88058389D01*
X142816828Y-88049580D01*
X142906891Y-88012275D01*
X142944307Y-87996777D01*
X142944308Y-87996776D01*
X142944311Y-87996775D01*
X143059043Y-87920114D01*
X143086981Y-87892174D01*
X143112187Y-87872745D01*
X143600262Y-87588110D01*
X143602827Y-87587120D01*
X143603876Y-87586083D01*
X143611334Y-87583836D01*
X143637010Y-87573924D01*
X143646085Y-87572000D01*
X143648616Y-87572000D01*
X143719196Y-87565586D01*
X143810413Y-87537161D01*
X143816058Y-87535965D01*
X143816282Y-87535982D01*
X143817559Y-87535657D01*
X143844091Y-87530375D01*
X143844250Y-87530318D01*
X143844304Y-87530315D01*
X143848362Y-87529202D01*
X143848604Y-87530083D01*
X143914015Y-87526551D01*
X143974744Y-87561101D01*
X144007154Y-87623000D01*
X144006506Y-87674528D01*
X143999239Y-87706737D01*
X143993508Y-87736183D01*
X143993095Y-87738306D01*
X143990456Y-87749205D01*
X143982401Y-87776930D01*
X143979500Y-87813798D01*
X143979500Y-88970201D01*
X143982401Y-89007067D01*
X143982402Y-89007073D01*
X144028254Y-89164893D01*
X144028255Y-89164896D01*
X144028256Y-89164898D01*
X144044626Y-89192578D01*
X144111917Y-89306362D01*
X144111923Y-89306370D01*
X144228129Y-89422576D01*
X144228133Y-89422579D01*
X144228135Y-89422581D01*
X144369602Y-89506244D01*
X144411224Y-89518336D01*
X144527426Y-89552097D01*
X144527429Y-89552097D01*
X144527431Y-89552098D01*
X144564306Y-89555000D01*
X144564314Y-89555000D01*
X144962742Y-89555000D01*
X145029781Y-89574685D01*
X145075536Y-89627489D01*
X145085480Y-89696647D01*
X145064814Y-89745357D01*
X145066288Y-89746229D01*
X144978717Y-89894303D01*
X144978716Y-89894306D01*
X144932900Y-90052004D01*
X144932899Y-90052010D01*
X144930000Y-90088850D01*
X144930000Y-90417000D01*
X145480000Y-90417000D01*
X145480000Y-89507202D01*
X145453765Y-89482961D01*
X145417887Y-89423007D01*
X145420118Y-89353173D01*
X145444533Y-89313488D01*
X145443298Y-89312531D01*
X145448075Y-89306370D01*
X145448081Y-89306365D01*
X145531744Y-89164898D01*
X145577598Y-89007069D01*
X145580500Y-88970194D01*
X145580500Y-87813806D01*
X145577598Y-87776931D01*
X145565623Y-87735715D01*
X145562964Y-87724705D01*
X145561643Y-87717884D01*
X145560760Y-87706736D01*
X145551782Y-87666950D01*
X145551428Y-87665117D01*
X145554547Y-87632160D01*
X145556654Y-87599116D01*
X145557894Y-87596800D01*
X145558012Y-87595559D01*
X145559734Y-87593364D01*
X145573280Y-87568075D01*
X145669791Y-87436881D01*
X145725370Y-87394546D01*
X145795017Y-87388980D01*
X145856618Y-87421951D01*
X145877931Y-87449896D01*
X145908682Y-87504952D01*
X145924187Y-87573079D01*
X145922068Y-87589476D01*
X145892346Y-87739759D01*
X145890521Y-87748984D01*
X145882402Y-87776931D01*
X145879845Y-87809414D01*
X145878920Y-87815261D01*
X145878920Y-87815265D01*
X145878920Y-87815266D01*
X145879464Y-87837887D01*
X145879500Y-87840868D01*
X145879500Y-88970201D01*
X145882401Y-89007067D01*
X145882402Y-89007073D01*
X145928254Y-89164893D01*
X145928255Y-89164896D01*
X145928256Y-89164898D01*
X145944626Y-89192578D01*
X146011917Y-89306362D01*
X146016702Y-89312531D01*
X146015018Y-89313836D01*
X146043246Y-89365531D01*
X146038262Y-89435223D01*
X146006234Y-89482961D01*
X145980000Y-89507202D01*
X145980000Y-90417000D01*
X146530000Y-90417000D01*
X146530000Y-90230082D01*
X147549001Y-90230082D01*
X147555408Y-90300602D01*
X147555409Y-90300607D01*
X147605981Y-90462896D01*
X147693927Y-90608377D01*
X147814122Y-90728572D01*
X147959604Y-90816519D01*
X147959603Y-90816519D01*
X148121894Y-90867090D01*
X148121892Y-90867090D01*
X148192418Y-90873499D01*
X148774000Y-90873499D01*
X148855581Y-90873499D01*
X148926102Y-90867091D01*
X148926107Y-90867090D01*
X149088396Y-90816518D01*
X149233877Y-90728572D01*
X149354072Y-90608377D01*
X149442019Y-90462895D01*
X149492590Y-90300606D01*
X149499000Y-90230072D01*
X149499000Y-90223500D01*
X148774000Y-90223500D01*
X148774000Y-90873499D01*
X148192418Y-90873499D01*
X148273999Y-90873498D01*
X148274000Y-90873498D01*
X148274000Y-90223500D01*
X147549001Y-90223500D01*
X147549001Y-90230082D01*
X146530000Y-90230082D01*
X146530000Y-90088865D01*
X146529999Y-90088850D01*
X146527100Y-90052010D01*
X146527099Y-90052004D01*
X146481283Y-89894306D01*
X146481282Y-89894303D01*
X146393712Y-89746229D01*
X146395433Y-89745211D01*
X146373743Y-89689955D01*
X146387428Y-89621438D01*
X146435983Y-89571197D01*
X146497258Y-89555000D01*
X146895686Y-89555000D01*
X146895694Y-89555000D01*
X146932569Y-89552098D01*
X146932571Y-89552097D01*
X146932573Y-89552097D01*
X146974191Y-89540005D01*
X147090398Y-89506244D01*
X147231865Y-89422581D01*
X147348081Y-89306365D01*
X147431744Y-89164898D01*
X147477598Y-89007069D01*
X147477598Y-89007068D01*
X147478772Y-89003028D01*
X147481441Y-88998848D01*
X147481812Y-88993899D01*
X147500062Y-88969690D01*
X147516378Y-88944142D01*
X147520886Y-88942067D01*
X147523872Y-88938107D01*
X147552303Y-88927611D01*
X147579850Y-88914936D01*
X147584763Y-88915628D01*
X147589418Y-88913910D01*
X147619018Y-88920453D01*
X147649037Y-88924682D01*
X147654119Y-88928212D01*
X147657640Y-88928991D01*
X147668352Y-88938100D01*
X147685823Y-88950237D01*
X147692460Y-88956919D01*
X147693528Y-88958685D01*
X147796012Y-89061169D01*
X147796309Y-89061468D01*
X147812866Y-89092033D01*
X147829500Y-89122496D01*
X147829484Y-89122712D01*
X147829588Y-89122903D01*
X147826990Y-89157591D01*
X147824516Y-89192188D01*
X147824383Y-89192393D01*
X147824370Y-89192578D01*
X147823660Y-89193519D01*
X147796015Y-89236535D01*
X147693928Y-89338621D01*
X147693927Y-89338622D01*
X147605980Y-89484104D01*
X147555409Y-89646393D01*
X147549000Y-89716927D01*
X147549000Y-89723500D01*
X149498999Y-89723500D01*
X149498999Y-89716917D01*
X149492591Y-89646397D01*
X149492590Y-89646392D01*
X149442018Y-89484103D01*
X149354072Y-89338622D01*
X149251984Y-89236534D01*
X149218499Y-89175211D01*
X149223483Y-89105519D01*
X149251983Y-89061173D01*
X149354472Y-88958685D01*
X149442478Y-88813106D01*
X149493086Y-88650696D01*
X149499500Y-88580116D01*
X149499500Y-88066884D01*
X149493086Y-87996304D01*
X149442478Y-87833894D01*
X149354472Y-87688315D01*
X149354470Y-87688313D01*
X149354469Y-87688311D01*
X149345325Y-87679168D01*
X149324744Y-87651949D01*
X149212441Y-87450879D01*
X149196937Y-87382752D01*
X149197382Y-87377427D01*
X149202586Y-87328015D01*
X149246852Y-86907672D01*
X149246099Y-86795074D01*
X149246098Y-86795069D01*
X149245882Y-86791608D01*
X149246028Y-86791598D01*
X149245499Y-86782677D01*
X149245499Y-86348162D01*
X149245498Y-86348144D01*
X149235349Y-86248792D01*
X149235348Y-86248789D01*
X149223495Y-86213018D01*
X149182003Y-86087803D01*
X149181999Y-86087797D01*
X149181998Y-86087794D01*
X149092970Y-85943459D01*
X149092967Y-85943455D01*
X149083339Y-85933827D01*
X149049854Y-85872504D01*
X149054838Y-85802812D01*
X149083345Y-85758459D01*
X149092573Y-85749231D01*
X149168225Y-85626582D01*
X152199001Y-85626582D01*
X152205408Y-85697102D01*
X152205409Y-85697107D01*
X152255981Y-85859396D01*
X152343927Y-86004877D01*
X152464122Y-86125072D01*
X152609604Y-86213019D01*
X152609603Y-86213019D01*
X152771894Y-86263590D01*
X152771893Y-86263590D01*
X152842408Y-86269998D01*
X152842426Y-86269999D01*
X152848999Y-86269998D01*
X152849000Y-86269998D01*
X152849000Y-85545000D01*
X152199001Y-85545000D01*
X152199001Y-85626582D01*
X149168225Y-85626582D01*
X149181542Y-85604992D01*
X149181547Y-85604981D01*
X149231368Y-85454634D01*
X149234856Y-85444106D01*
X149244999Y-85344822D01*
X149245000Y-85344809D01*
X149245000Y-85321500D01*
X148394000Y-85321500D01*
X148326961Y-85301815D01*
X148281206Y-85249011D01*
X148273738Y-85227719D01*
X148234484Y-85071500D01*
X148144000Y-85071500D01*
X148076961Y-85051815D01*
X148031206Y-84999011D01*
X148023465Y-84963427D01*
X152199000Y-84963427D01*
X152199000Y-85045000D01*
X152849000Y-85045000D01*
X152849000Y-84021000D01*
X152199001Y-84021000D01*
X152199001Y-84102582D01*
X152205408Y-84173102D01*
X152205409Y-84173107D01*
X152255981Y-84335397D01*
X152336656Y-84468850D01*
X152354492Y-84536405D01*
X152336656Y-84597150D01*
X152255980Y-84730603D01*
X152205409Y-84892893D01*
X152199000Y-84963427D01*
X148023465Y-84963427D01*
X148020000Y-84947500D01*
X148020000Y-84821500D01*
X148520000Y-84821500D01*
X149244999Y-84821500D01*
X149244999Y-84798192D01*
X149244998Y-84798177D01*
X149234855Y-84698892D01*
X149181547Y-84538018D01*
X149181542Y-84538007D01*
X149092575Y-84393771D01*
X149092572Y-84393767D01*
X148972732Y-84273927D01*
X148972728Y-84273924D01*
X148828492Y-84184957D01*
X148828481Y-84184952D01*
X148667606Y-84131644D01*
X148568322Y-84121500D01*
X148520000Y-84121500D01*
X148520000Y-84821500D01*
X148020000Y-84821500D01*
X148020000Y-84121500D01*
X148019999Y-84121499D01*
X147971693Y-84121500D01*
X147971675Y-84121501D01*
X147872392Y-84131644D01*
X147711518Y-84184952D01*
X147711507Y-84184957D01*
X147567271Y-84273924D01*
X147542996Y-84298199D01*
X147524239Y-84308440D01*
X147508271Y-84322640D01*
X147494186Y-84324849D01*
X147481672Y-84331683D01*
X147460355Y-84330157D01*
X147439246Y-84333470D01*
X147426202Y-84327714D01*
X147411980Y-84326697D01*
X147394873Y-84313890D01*
X147375323Y-84305264D01*
X147359339Y-84287289D01*
X147356048Y-84284825D01*
X147351870Y-84278889D01*
X147229054Y-84093073D01*
X147208510Y-84026292D01*
X147208500Y-84024700D01*
X147208500Y-83724591D01*
X147228185Y-83657552D01*
X147276206Y-83614106D01*
X147344431Y-83579344D01*
X147344430Y-83579344D01*
X147344433Y-83579343D01*
X147535510Y-83440517D01*
X147536600Y-83439427D01*
X152199000Y-83439427D01*
X152199000Y-83521000D01*
X152849000Y-83521000D01*
X152849000Y-82796000D01*
X152848999Y-82795999D01*
X152842436Y-82796000D01*
X152842417Y-82796001D01*
X152771897Y-82802408D01*
X152771892Y-82802409D01*
X152609603Y-82852981D01*
X152464122Y-82940927D01*
X152343927Y-83061122D01*
X152255980Y-83206604D01*
X152205409Y-83368893D01*
X152199000Y-83439427D01*
X147536600Y-83439427D01*
X147702517Y-83273510D01*
X147841343Y-83082433D01*
X147948568Y-82871992D01*
X148021553Y-82647368D01*
X148031464Y-82584792D01*
X148058500Y-82414097D01*
X148058500Y-82177902D01*
X148021553Y-81944631D01*
X147948566Y-81720003D01*
X147885505Y-81596239D01*
X147841343Y-81509567D01*
X147702517Y-81318490D01*
X147535510Y-81151483D01*
X147344433Y-81012657D01*
X147133996Y-80905433D01*
X146909368Y-80832446D01*
X146676097Y-80795500D01*
X146676092Y-80795500D01*
X146439908Y-80795500D01*
X146439903Y-80795500D01*
X146206631Y-80832446D01*
X145982003Y-80905433D01*
X145771566Y-81012657D01*
X145703406Y-81062179D01*
X145580490Y-81151483D01*
X145580488Y-81151485D01*
X145580487Y-81151485D01*
X145413485Y-81318487D01*
X145413485Y-81318488D01*
X145413483Y-81318490D01*
X145353862Y-81400550D01*
X145274657Y-81509566D01*
X145167433Y-81720003D01*
X145094446Y-81944631D01*
X145057500Y-82177902D01*
X145057500Y-82414097D01*
X145094446Y-82647368D01*
X145167433Y-82871996D01*
X145270830Y-83074922D01*
X145274657Y-83082433D01*
X145413483Y-83273510D01*
X145580490Y-83440517D01*
X145691265Y-83521000D01*
X145771568Y-83579344D01*
X145839794Y-83614106D01*
X145890590Y-83662080D01*
X145907500Y-83724591D01*
X145907500Y-84074100D01*
X145905243Y-84084515D01*
X145906266Y-84091548D01*
X145896378Y-84125429D01*
X145852452Y-84222027D01*
X145806782Y-84274905D01*
X145739775Y-84294698D01*
X145674477Y-84276236D01*
X145526492Y-84184957D01*
X145526481Y-84184952D01*
X145365606Y-84131644D01*
X145266322Y-84121500D01*
X145218000Y-84121500D01*
X145218000Y-84947500D01*
X145198315Y-85014539D01*
X145145511Y-85060294D01*
X145094000Y-85071500D01*
X144842000Y-85071500D01*
X144774961Y-85051815D01*
X144729206Y-84999011D01*
X144718000Y-84947500D01*
X144718000Y-84121500D01*
X144717999Y-84121499D01*
X144669693Y-84121500D01*
X144669675Y-84121501D01*
X144570392Y-84131644D01*
X144409518Y-84184952D01*
X144409513Y-84184954D01*
X144356597Y-84217594D01*
X144289204Y-84236034D01*
X144222541Y-84215111D01*
X144177771Y-84161469D01*
X144167500Y-84112055D01*
X144167500Y-80393500D01*
X144187185Y-80326461D01*
X144239989Y-80280706D01*
X144291500Y-80269500D01*
X147829000Y-80269500D01*
X147938149Y-80257766D01*
X147990491Y-80246380D01*
X148094657Y-80211710D01*
X148139205Y-80183080D01*
X148206242Y-80163395D01*
X148257753Y-80174600D01*
X148334034Y-80209437D01*
X148376207Y-80228697D01*
X148376209Y-80228697D01*
X148376210Y-80228698D01*
X148444331Y-80248700D01*
X148589000Y-80269500D01*
X148589003Y-80269500D01*
X153844671Y-80269500D01*
X153844673Y-80269500D01*
X153867667Y-80266254D01*
X153936800Y-80276375D01*
X153989487Y-80322265D01*
X154009000Y-80389037D01*
X154009000Y-82422655D01*
X154041682Y-82586958D01*
X154041685Y-82586970D01*
X154052012Y-82611901D01*
X154105792Y-82741740D01*
X154105802Y-82741758D01*
X154132090Y-82781101D01*
X154141573Y-82811388D01*
X154152672Y-82841144D01*
X154151941Y-82844500D01*
X154152968Y-82847778D01*
X154144568Y-82878396D01*
X154137820Y-82909417D01*
X154135038Y-82913132D01*
X154134483Y-82915158D01*
X154116670Y-82937672D01*
X154011328Y-83043015D01*
X153950005Y-83076500D01*
X153880313Y-83071516D01*
X153835965Y-83043015D01*
X153733877Y-82940927D01*
X153588395Y-82852980D01*
X153588396Y-82852980D01*
X153426105Y-82802409D01*
X153426106Y-82802409D01*
X153355572Y-82796000D01*
X153349000Y-82796000D01*
X153349000Y-86269999D01*
X153355581Y-86269999D01*
X153426102Y-86263591D01*
X153426107Y-86263590D01*
X153588396Y-86213018D01*
X153733877Y-86125072D01*
X153733878Y-86125071D01*
X153835963Y-86022985D01*
X153843909Y-86018645D01*
X153849335Y-86011398D01*
X153874093Y-86002163D01*
X153897286Y-85989499D01*
X153906316Y-85990144D01*
X153914799Y-85986981D01*
X153940620Y-85992598D01*
X153966977Y-85994483D01*
X153976030Y-86000301D01*
X153983072Y-86001833D01*
X154011326Y-86022984D01*
X154098403Y-86110061D01*
X154131888Y-86171384D01*
X154126904Y-86241076D01*
X154098403Y-86285423D01*
X153136375Y-87247450D01*
X153136372Y-87247454D01*
X153043299Y-87386746D01*
X153043292Y-87386759D01*
X153001761Y-87487027D01*
X152979185Y-87541529D01*
X152979182Y-87541541D01*
X152946500Y-87705844D01*
X152946500Y-87854023D01*
X152926815Y-87921062D01*
X152895386Y-87954340D01*
X152819496Y-88009478D01*
X152819487Y-88009485D01*
X152652485Y-88176487D01*
X152652485Y-88176488D01*
X152652483Y-88176490D01*
X152607067Y-88239000D01*
X152513657Y-88367566D01*
X152406433Y-88578003D01*
X152333446Y-88802631D01*
X152296500Y-89035902D01*
X152296500Y-89272097D01*
X152333446Y-89505368D01*
X152406433Y-89729996D01*
X152498196Y-89910090D01*
X152513657Y-89940433D01*
X152652483Y-90131510D01*
X152819490Y-90298517D01*
X153010567Y-90437343D01*
X153054055Y-90459501D01*
X153221003Y-90544566D01*
X153221005Y-90544566D01*
X153221008Y-90544568D01*
X153341412Y-90583689D01*
X153445631Y-90617553D01*
X153678903Y-90654500D01*
X153678908Y-90654500D01*
X153915097Y-90654500D01*
X154148368Y-90617553D01*
X154160971Y-90613458D01*
X154372992Y-90544568D01*
X154583433Y-90437343D01*
X154774510Y-90298517D01*
X154941517Y-90131510D01*
X155080343Y-89940433D01*
X155187568Y-89729992D01*
X155260553Y-89505368D01*
X155279070Y-89388455D01*
X155297500Y-89272097D01*
X155297500Y-89035902D01*
X155260553Y-88802631D01*
X155211186Y-88650696D01*
X155187568Y-88578008D01*
X155187566Y-88578005D01*
X155187566Y-88578003D01*
X155097966Y-88402154D01*
X155080343Y-88367567D01*
X154941517Y-88176490D01*
X154864896Y-88099869D01*
X154831411Y-88038546D01*
X154836395Y-87968854D01*
X154864892Y-87924512D01*
X155328324Y-87461080D01*
X155389642Y-87427598D01*
X155459333Y-87432582D01*
X155515267Y-87474453D01*
X155539684Y-87539918D01*
X155540000Y-87548752D01*
X155540000Y-87556301D01*
X155540001Y-87556323D01*
X155550144Y-87655607D01*
X155603452Y-87816481D01*
X155603457Y-87816492D01*
X155692424Y-87960728D01*
X155692427Y-87960732D01*
X155812266Y-88080571D01*
X155824025Y-88087824D01*
X155870750Y-88139771D01*
X155881974Y-88208733D01*
X155862032Y-88262255D01*
X155783814Y-88379315D01*
X155783807Y-88379328D01*
X155708430Y-88561307D01*
X155708430Y-88561309D01*
X155700138Y-88603000D01*
X156620272Y-88603000D01*
X156528386Y-88641060D01*
X156458060Y-88711386D01*
X156420000Y-88803272D01*
X156420000Y-88902728D01*
X156458060Y-88994614D01*
X156528386Y-89064940D01*
X156620272Y-89103000D01*
X155700138Y-89103000D01*
X155708430Y-89144690D01*
X155708430Y-89144692D01*
X155783807Y-89326671D01*
X155783814Y-89326684D01*
X155893248Y-89490462D01*
X155893251Y-89490466D01*
X156032533Y-89629748D01*
X156032537Y-89629751D01*
X156196315Y-89739185D01*
X156196328Y-89739192D01*
X156378306Y-89814569D01*
X156378318Y-89814572D01*
X156571504Y-89852999D01*
X156571508Y-89853000D01*
X156770000Y-89853000D01*
X156770000Y-89103000D01*
X157270000Y-89103000D01*
X157270000Y-89853000D01*
X157468492Y-89853000D01*
X157468495Y-89852999D01*
X157661681Y-89814572D01*
X157661693Y-89814569D01*
X157843671Y-89739192D01*
X157843684Y-89739185D01*
X158007462Y-89629751D01*
X158007466Y-89629748D01*
X158146748Y-89490466D01*
X158146751Y-89490462D01*
X158256185Y-89326684D01*
X158256192Y-89326671D01*
X158331569Y-89144692D01*
X158331569Y-89144690D01*
X158339862Y-89103000D01*
X157419728Y-89103000D01*
X157511614Y-89064940D01*
X157581940Y-88994614D01*
X157620000Y-88902728D01*
X157620000Y-88803272D01*
X157581940Y-88711386D01*
X157511614Y-88641060D01*
X157419728Y-88603000D01*
X158339862Y-88603000D01*
X158331569Y-88561309D01*
X158331569Y-88561307D01*
X158256192Y-88379328D01*
X158256185Y-88379315D01*
X158146751Y-88215537D01*
X158146748Y-88215533D01*
X158020421Y-88089206D01*
X157986936Y-88027883D01*
X157991920Y-87958191D01*
X158002564Y-87936427D01*
X158076544Y-87816488D01*
X158076547Y-87816481D01*
X158129855Y-87655606D01*
X158139999Y-87556322D01*
X158140000Y-87556309D01*
X158140000Y-87533000D01*
X157090000Y-87533000D01*
X157090000Y-87723000D01*
X157146000Y-87723000D01*
X157213039Y-87742685D01*
X157258794Y-87795489D01*
X157270000Y-87847000D01*
X157270000Y-88603000D01*
X156770000Y-88603000D01*
X156770000Y-88363000D01*
X156714000Y-88363000D01*
X156646961Y-88343315D01*
X156601206Y-88290511D01*
X156590000Y-88239000D01*
X156590000Y-87407000D01*
X156609685Y-87339961D01*
X156662489Y-87294206D01*
X156714000Y-87283000D01*
X156840000Y-87283000D01*
X156840000Y-87157000D01*
X156859685Y-87089961D01*
X156912489Y-87044206D01*
X156964000Y-87033000D01*
X158139999Y-87033000D01*
X158139999Y-87009692D01*
X158139998Y-87009677D01*
X158129856Y-86910394D01*
X158117756Y-86873880D01*
X158115354Y-86804052D01*
X158151085Y-86744009D01*
X158166566Y-86731777D01*
X158193730Y-86713627D01*
X158851626Y-86055730D01*
X158944704Y-85916431D01*
X158994092Y-85797196D01*
X159008816Y-85761650D01*
X159041500Y-85597335D01*
X159041500Y-83431233D01*
X159008816Y-83266918D01*
X158981897Y-83201931D01*
X158944704Y-83112137D01*
X158851626Y-82972838D01*
X158851622Y-82972834D01*
X158851620Y-82972831D01*
X158851619Y-82972830D01*
X158231168Y-82352378D01*
X158231164Y-82352375D01*
X158231162Y-82352373D01*
X158173353Y-82313746D01*
X158128551Y-82260135D01*
X158119844Y-82190810D01*
X158124542Y-82171638D01*
X158129856Y-82155602D01*
X158129856Y-82155600D01*
X158139999Y-82056322D01*
X158140000Y-82056309D01*
X158140000Y-82033000D01*
X156964000Y-82033000D01*
X156896961Y-82013315D01*
X156851206Y-81960511D01*
X156840000Y-81909000D01*
X156840000Y-81783000D01*
X156714000Y-81783000D01*
X156646961Y-81763315D01*
X156601206Y-81710511D01*
X156590000Y-81659000D01*
X156590000Y-80827000D01*
X156609685Y-80759961D01*
X156662489Y-80714206D01*
X156714000Y-80703000D01*
X156770000Y-80703000D01*
X156770000Y-80463000D01*
X157270000Y-80463000D01*
X157270000Y-81219000D01*
X157264212Y-81238708D01*
X157263292Y-81259233D01*
X157254567Y-81271556D01*
X157250315Y-81286039D01*
X157234791Y-81299489D01*
X157222920Y-81316259D01*
X157200213Y-81329452D01*
X157197511Y-81331794D01*
X157195388Y-81332255D01*
X157192404Y-81333990D01*
X157090000Y-81375314D01*
X157090000Y-81533000D01*
X158139999Y-81533000D01*
X158139999Y-81509692D01*
X158139998Y-81509677D01*
X158129855Y-81410392D01*
X158076547Y-81249518D01*
X158076542Y-81249507D01*
X158002564Y-81129571D01*
X157984123Y-81062179D01*
X158005045Y-80995515D01*
X158020421Y-80976792D01*
X158146752Y-80850461D01*
X158256185Y-80686684D01*
X158256192Y-80686671D01*
X158331569Y-80504692D01*
X158331569Y-80504690D01*
X158339862Y-80463000D01*
X157419728Y-80463000D01*
X157511614Y-80424940D01*
X157581940Y-80354614D01*
X157620000Y-80262728D01*
X157620000Y-80163272D01*
X157581940Y-80071386D01*
X157511614Y-80001060D01*
X157419728Y-79963000D01*
X158339862Y-79963000D01*
X158331569Y-79921309D01*
X158331569Y-79921307D01*
X158256192Y-79739328D01*
X158256185Y-79739315D01*
X158146751Y-79575537D01*
X158146748Y-79575533D01*
X158007466Y-79436251D01*
X158007462Y-79436248D01*
X157843684Y-79326814D01*
X157843671Y-79326807D01*
X157661693Y-79251430D01*
X157661681Y-79251427D01*
X157468495Y-79213000D01*
X157270000Y-79213000D01*
X157270000Y-79963000D01*
X156770000Y-79963000D01*
X156770000Y-79213000D01*
X156571504Y-79213000D01*
X156378318Y-79251427D01*
X156378306Y-79251430D01*
X156196328Y-79326807D01*
X156196315Y-79326814D01*
X156032537Y-79436248D01*
X156032532Y-79436252D01*
X155982811Y-79485973D01*
X155921488Y-79519457D01*
X155851796Y-79514472D01*
X155795863Y-79472601D01*
X155771447Y-79407136D01*
X155772219Y-79381903D01*
X155772769Y-79377782D01*
X155797235Y-79194283D01*
X155801394Y-79144150D01*
X155801471Y-79141817D01*
X155797810Y-79090145D01*
X155797500Y-79081382D01*
X155797500Y-78310831D01*
X155797499Y-78310818D01*
X155787436Y-78212316D01*
X155787436Y-78212315D01*
X155734549Y-78052713D01*
X155734545Y-78052707D01*
X155734544Y-78052704D01*
X155646283Y-77909612D01*
X155646280Y-77909608D01*
X155527391Y-77790719D01*
X155527387Y-77790716D01*
X155384295Y-77702455D01*
X155384289Y-77702452D01*
X155384287Y-77702451D01*
X155224685Y-77649564D01*
X155224683Y-77649563D01*
X155126181Y-77639500D01*
X155126174Y-77639500D01*
X154648392Y-77639500D01*
X154631286Y-77634477D01*
X154613457Y-77634477D01*
X154598457Y-77624837D01*
X154581353Y-77619815D01*
X154569679Y-77606342D01*
X154554679Y-77596703D01*
X154535598Y-77567012D01*
X154524907Y-77543602D01*
X154521122Y-77534343D01*
X154519565Y-77530048D01*
X154496986Y-77467752D01*
X154398835Y-77271451D01*
X154386461Y-77202688D01*
X154413229Y-77138149D01*
X154470639Y-77098327D01*
X154509745Y-77091999D01*
X154513999Y-77091999D01*
X155014000Y-77091999D01*
X155138972Y-77091999D01*
X155138986Y-77091998D01*
X155241697Y-77081505D01*
X155408119Y-77026358D01*
X155408124Y-77026356D01*
X155557345Y-76934315D01*
X155681315Y-76810345D01*
X155773356Y-76661124D01*
X155773358Y-76661119D01*
X155828505Y-76494697D01*
X155828506Y-76494690D01*
X155838999Y-76391986D01*
X155839000Y-76391973D01*
X155839000Y-75942000D01*
X155014000Y-75942000D01*
X155014000Y-77091999D01*
X154513999Y-77091999D01*
X154514000Y-77091998D01*
X154514000Y-75442000D01*
X155014000Y-75442000D01*
X155838999Y-75442000D01*
X155838999Y-74992028D01*
X155838997Y-74991997D01*
X155828505Y-74889302D01*
X155773358Y-74722880D01*
X155773356Y-74722875D01*
X155681315Y-74573654D01*
X155557345Y-74449684D01*
X155408124Y-74357643D01*
X155408119Y-74357641D01*
X155241697Y-74302494D01*
X155241690Y-74302493D01*
X155138986Y-74292000D01*
X155014000Y-74292000D01*
X155014000Y-75442000D01*
X154514000Y-75442000D01*
X154514000Y-74292000D01*
X154389027Y-74292000D01*
X154389012Y-74292001D01*
X154286302Y-74302494D01*
X154150095Y-74347629D01*
X154080267Y-74350031D01*
X154020225Y-74314299D01*
X154009502Y-74301027D01*
X154000782Y-74288568D01*
X153998710Y-74282343D01*
X153919692Y-74159388D01*
X153873199Y-74105732D01*
X153873198Y-74105730D01*
X153857419Y-74092057D01*
X153762743Y-74010020D01*
X153762737Y-74010017D01*
X153629792Y-73949303D01*
X153629790Y-73949302D01*
X153567411Y-73930986D01*
X153561673Y-73929301D01*
X153561661Y-73929298D01*
X153417000Y-73908500D01*
X149531190Y-73908500D01*
X149531185Y-73908500D01*
X149476333Y-73911438D01*
X149464356Y-73912725D01*
X149449525Y-73914320D01*
X149449517Y-73914321D01*
X149449510Y-73914322D01*
X149449505Y-73914322D01*
X149395258Y-73923113D01*
X149389367Y-73924674D01*
X149388869Y-73922793D01*
X149328139Y-73927136D01*
X149266817Y-73893649D01*
X149233333Y-73832326D01*
X149230500Y-73805970D01*
X149230500Y-72516000D01*
X149218766Y-72406851D01*
X149207380Y-72354509D01*
X149172710Y-72250343D01*
X149093692Y-72127388D01*
X149049381Y-72076251D01*
X149047595Y-72074074D01*
X148936743Y-71978020D01*
X148936737Y-71978017D01*
X148803792Y-71917303D01*
X148803790Y-71917302D01*
X148755914Y-71903244D01*
X148735673Y-71897301D01*
X148735661Y-71897298D01*
X148591000Y-71876500D01*
X146176000Y-71876500D01*
X146175997Y-71876500D01*
X146066849Y-71888234D01*
X146014507Y-71899620D01*
X145910346Y-71934288D01*
X145910343Y-71934290D01*
X145787388Y-72013308D01*
X145787387Y-72013309D01*
X145745938Y-72049223D01*
X145745934Y-72049227D01*
X145733732Y-72059801D01*
X145733730Y-72059802D01*
X145638018Y-72170261D01*
X145614412Y-72221950D01*
X145606021Y-72232970D01*
X145588584Y-72245800D01*
X145574405Y-72262165D01*
X145560997Y-72266101D01*
X145549746Y-72274381D01*
X145528140Y-72275748D01*
X145507365Y-72281848D01*
X145493571Y-72277936D01*
X145480016Y-72278794D01*
X145462799Y-72269209D01*
X145442271Y-72263387D01*
X145415128Y-72246646D01*
X145415119Y-72246641D01*
X145248697Y-72191494D01*
X145248690Y-72191493D01*
X145145986Y-72181000D01*
X145096000Y-72181000D01*
X145096000Y-73282000D01*
X145076315Y-73349039D01*
X145023511Y-73394794D01*
X144972000Y-73406000D01*
X144846000Y-73406000D01*
X144846000Y-73532000D01*
X144826315Y-73599039D01*
X144773511Y-73644794D01*
X144722000Y-73656000D01*
X143846001Y-73656000D01*
X143846001Y-73930986D01*
X143856494Y-74033697D01*
X143911641Y-74200119D01*
X143911643Y-74200124D01*
X144003684Y-74349345D01*
X144127655Y-74473316D01*
X144133323Y-74477798D01*
X144131235Y-74480438D01*
X144168067Y-74520982D01*
X144179630Y-74589888D01*
X144152104Y-74654107D01*
X144144194Y-74662805D01*
X144141000Y-74665999D01*
X144141000Y-75617000D01*
X144121315Y-75684039D01*
X144068511Y-75729794D01*
X144017000Y-75741000D01*
X143891000Y-75741000D01*
X143891000Y-75867000D01*
X143871315Y-75934039D01*
X143818511Y-75979794D01*
X143767000Y-75991000D01*
X142491001Y-75991000D01*
X142491001Y-76115986D01*
X142501494Y-76218697D01*
X142523629Y-76285496D01*
X142526031Y-76355325D01*
X142490299Y-76415366D01*
X142427779Y-76446559D01*
X142405923Y-76448500D01*
X141222997Y-76448500D01*
X141113849Y-76460234D01*
X141061507Y-76471620D01*
X140957346Y-76506288D01*
X140957343Y-76506290D01*
X140834388Y-76585308D01*
X140834387Y-76585309D01*
X140783254Y-76629615D01*
X140781077Y-76631400D01*
X140685020Y-76742256D01*
X140685017Y-76742262D01*
X140624303Y-76875207D01*
X140604301Y-76943326D01*
X140604298Y-76943338D01*
X140583500Y-77087999D01*
X140583500Y-77114603D01*
X140563815Y-77181642D01*
X140515795Y-77225088D01*
X140310566Y-77329657D01*
X140205515Y-77405982D01*
X140119490Y-77468483D01*
X140119488Y-77468485D01*
X140119487Y-77468485D01*
X139952485Y-77635487D01*
X139952485Y-77635488D01*
X139952483Y-77635490D01*
X139942258Y-77649564D01*
X139813657Y-77826566D01*
X139706433Y-78037003D01*
X139633446Y-78261631D01*
X139596500Y-78494902D01*
X139596500Y-78731097D01*
X139633446Y-78964368D01*
X139706433Y-79188996D01*
X139802625Y-79377782D01*
X139813657Y-79399433D01*
X139952483Y-79590510D01*
X140119490Y-79757517D01*
X140310567Y-79896343D01*
X140515796Y-80000912D01*
X140566591Y-80048885D01*
X140583500Y-80111396D01*
X140583500Y-80138002D01*
X140595234Y-80247150D01*
X140606620Y-80299492D01*
X140641288Y-80403653D01*
X140641287Y-80403653D01*
X140720310Y-80526615D01*
X140720313Y-80526618D01*
X140764614Y-80577745D01*
X140766400Y-80579922D01*
X140877256Y-80675979D01*
X140877259Y-80675980D01*
X140877261Y-80675982D01*
X141010210Y-80736698D01*
X141078331Y-80756700D01*
X141223000Y-80777500D01*
X141223003Y-80777500D01*
X142092549Y-80777500D01*
X142092553Y-80777500D01*
X142174807Y-80770869D01*
X142214652Y-80764403D01*
X142294781Y-80744683D01*
X142303286Y-80741847D01*
X142373105Y-80739319D01*
X142433212Y-80774941D01*
X142464519Y-80837405D01*
X142466500Y-80859483D01*
X142466500Y-84148250D01*
X142463556Y-84171302D01*
X142464266Y-84171433D01*
X142463461Y-84175785D01*
X142435818Y-84423250D01*
X142425069Y-84448899D01*
X142417456Y-84475650D01*
X142410376Y-84483959D01*
X142408813Y-84487690D01*
X142394567Y-84502516D01*
X142326462Y-84562532D01*
X142263151Y-84592086D01*
X142244480Y-84593500D01*
X140833514Y-84593500D01*
X140809285Y-84591110D01*
X140534718Y-84536405D01*
X140142271Y-84458213D01*
X140142267Y-84458212D01*
X140142260Y-84458211D01*
X140102187Y-84452414D01*
X140089236Y-84450541D01*
X140084094Y-84450306D01*
X140081218Y-84450140D01*
X140073327Y-84449594D01*
X140042691Y-84443500D01*
X139985222Y-84443500D01*
X139980943Y-84443204D01*
X139952033Y-84432498D01*
X139922461Y-84423815D01*
X139919567Y-84420476D01*
X139915422Y-84418941D01*
X139896886Y-84394300D01*
X139876706Y-84371011D01*
X139875623Y-84366033D01*
X139873420Y-84363105D01*
X139872614Y-84352203D01*
X139865500Y-84319500D01*
X139865500Y-82994313D01*
X139865499Y-82994298D01*
X139863810Y-82972838D01*
X139862598Y-82957431D01*
X139862135Y-82955838D01*
X139817588Y-82802507D01*
X139816744Y-82799602D01*
X139733081Y-82658135D01*
X139733079Y-82658133D01*
X139733076Y-82658129D01*
X139616870Y-82541923D01*
X139616862Y-82541917D01*
X139484891Y-82463870D01*
X139475398Y-82458256D01*
X139475397Y-82458255D01*
X139475396Y-82458255D01*
X139475393Y-82458254D01*
X139317573Y-82412402D01*
X139317567Y-82412401D01*
X139280701Y-82409500D01*
X139280694Y-82409500D01*
X139204500Y-82409500D01*
X139137461Y-82389815D01*
X139091706Y-82337011D01*
X139080500Y-82285500D01*
X139080500Y-75400184D01*
X139081818Y-75395692D01*
X139080832Y-75391116D01*
X139090246Y-75366013D01*
X142491000Y-75366013D01*
X142491000Y-75491000D01*
X143641000Y-75491000D01*
X143641000Y-74666000D01*
X143191028Y-74666000D01*
X143191012Y-74666001D01*
X143088302Y-74676494D01*
X142921880Y-74731641D01*
X142921875Y-74731643D01*
X142772654Y-74823684D01*
X142648684Y-74947654D01*
X142556643Y-75096875D01*
X142556641Y-75096880D01*
X142501494Y-75263302D01*
X142501493Y-75263309D01*
X142491000Y-75366013D01*
X139090246Y-75366013D01*
X139091570Y-75362482D01*
X139100185Y-75333145D01*
X139104179Y-75328862D01*
X139105367Y-75325695D01*
X139130368Y-75300783D01*
X139180409Y-75263463D01*
X139830541Y-74778604D01*
X139830545Y-74778600D01*
X139830554Y-74778594D01*
X139841300Y-74769881D01*
X139862302Y-74752855D01*
X139862311Y-74752843D01*
X139866373Y-74748884D01*
X139866893Y-74749417D01*
X139880528Y-74736793D01*
X139944792Y-74690104D01*
X140095104Y-74539792D01*
X140095106Y-74539788D01*
X140095109Y-74539786D01*
X140220048Y-74367820D01*
X140220047Y-74367820D01*
X140220051Y-74367816D01*
X140316557Y-74178412D01*
X140382246Y-73976243D01*
X140415500Y-73766287D01*
X140415500Y-73553713D01*
X140382246Y-73343757D01*
X140316557Y-73141588D01*
X140220051Y-72952184D01*
X140219010Y-72950751D01*
X140219009Y-72950749D01*
X140168344Y-72881013D01*
X143846000Y-72881013D01*
X143846000Y-73156000D01*
X144596000Y-73156000D01*
X144596000Y-72181000D01*
X144595999Y-72180999D01*
X144546029Y-72181000D01*
X144546011Y-72181001D01*
X144443302Y-72191494D01*
X144276880Y-72246641D01*
X144276875Y-72246643D01*
X144127654Y-72338684D01*
X144003684Y-72462654D01*
X143911643Y-72611875D01*
X143911641Y-72611880D01*
X143856494Y-72778302D01*
X143856493Y-72778309D01*
X143846000Y-72881013D01*
X140168344Y-72881013D01*
X140095109Y-72780213D01*
X139944786Y-72629890D01*
X139772820Y-72504951D01*
X139583414Y-72408444D01*
X139583413Y-72408443D01*
X139583412Y-72408443D01*
X139381243Y-72342754D01*
X139381241Y-72342753D01*
X139381240Y-72342753D01*
X139219957Y-72317208D01*
X139171287Y-72309500D01*
X138958713Y-72309500D01*
X138910042Y-72317208D01*
X138748760Y-72342753D01*
X138660806Y-72371331D01*
X138546764Y-72408386D01*
X138546585Y-72408444D01*
X138357179Y-72504951D01*
X138185213Y-72629890D01*
X138034890Y-72780213D01*
X137909949Y-72952182D01*
X137905484Y-72960946D01*
X137857509Y-73011742D01*
X137789688Y-73028536D01*
X137723553Y-73005998D01*
X137684516Y-72960946D01*
X137680050Y-72952182D01*
X137555109Y-72780213D01*
X137404786Y-72629890D01*
X137232820Y-72504951D01*
X137043414Y-72408444D01*
X137043413Y-72408443D01*
X137043412Y-72408443D01*
X136841243Y-72342754D01*
X136841241Y-72342753D01*
X136841240Y-72342753D01*
X136679957Y-72317208D01*
X136631287Y-72309500D01*
X136418713Y-72309500D01*
X136370042Y-72317208D01*
X136208760Y-72342753D01*
X136120806Y-72371331D01*
X136006764Y-72408386D01*
X136006585Y-72408444D01*
X135817179Y-72504951D01*
X135645213Y-72629890D01*
X135494890Y-72780213D01*
X135369949Y-72952182D01*
X135365202Y-72961499D01*
X135317227Y-73012293D01*
X135249405Y-73029087D01*
X135183271Y-73006548D01*
X135144234Y-72961495D01*
X135139626Y-72952452D01*
X135100270Y-72898282D01*
X135100269Y-72898282D01*
X134467962Y-73530590D01*
X134450925Y-73467007D01*
X134385099Y-73352993D01*
X134292007Y-73259901D01*
X134177993Y-73194075D01*
X134114409Y-73177037D01*
X134746716Y-72544728D01*
X134692550Y-72505375D01*
X134503217Y-72408904D01*
X134301129Y-72343242D01*
X134091246Y-72310000D01*
X133878754Y-72310000D01*
X133668872Y-72343242D01*
X133668869Y-72343242D01*
X133466782Y-72408904D01*
X133277439Y-72505380D01*
X133223282Y-72544727D01*
X133223282Y-72544728D01*
X133855591Y-73177037D01*
X133792007Y-73194075D01*
X133677993Y-73259901D01*
X133584901Y-73352993D01*
X133519075Y-73467007D01*
X133502037Y-73530591D01*
X132831818Y-72860372D01*
X132798333Y-72799049D01*
X132798330Y-72799036D01*
X132795499Y-72786015D01*
X132795499Y-72762128D01*
X132789091Y-72702517D01*
X132755284Y-72611875D01*
X132738798Y-72567673D01*
X132738793Y-72567664D01*
X132652547Y-72452455D01*
X132652544Y-72452452D01*
X132537335Y-72366206D01*
X132537328Y-72366202D01*
X132402482Y-72315908D01*
X132402483Y-72315908D01*
X132342883Y-72309501D01*
X132342881Y-72309500D01*
X132342873Y-72309500D01*
X132342864Y-72309500D01*
X130547129Y-72309500D01*
X130547123Y-72309501D01*
X130487516Y-72315908D01*
X130352671Y-72366202D01*
X130352664Y-72366206D01*
X130237455Y-72452452D01*
X130237452Y-72452455D01*
X130151206Y-72567664D01*
X130151202Y-72567671D01*
X130100908Y-72702517D01*
X130094501Y-72762116D01*
X130094500Y-72762135D01*
X130094500Y-73240078D01*
X130088915Y-73276875D01*
X129728642Y-74436260D01*
X129726515Y-74440416D01*
X129726324Y-74443023D01*
X129720765Y-74451653D01*
X129709349Y-74473967D01*
X129704090Y-74480962D01*
X129669723Y-74515331D01*
X129603312Y-74614724D01*
X129601410Y-74617569D01*
X129601396Y-74617589D01*
X129598537Y-74621868D01*
X129598534Y-74621874D01*
X129549499Y-74740255D01*
X129549497Y-74740261D01*
X129524500Y-74865928D01*
X129524500Y-75521843D01*
X129504815Y-75588882D01*
X129500226Y-75595535D01*
X129484362Y-75617000D01*
X129344428Y-75806321D01*
X129333663Y-75815260D01*
X129328092Y-75824396D01*
X129309792Y-75835086D01*
X129298857Y-75844169D01*
X129291480Y-75847749D01*
X129205666Y-75876186D01*
X129105087Y-75938222D01*
X129099461Y-75940954D01*
X129070927Y-75945743D01*
X129043018Y-75953380D01*
X129036890Y-75951456D01*
X129030555Y-75952520D01*
X129003955Y-75941119D01*
X128976355Y-75932457D01*
X128972240Y-75927526D01*
X128966335Y-75924996D01*
X128950122Y-75901025D01*
X128931585Y-75878815D01*
X128930753Y-75876853D01*
X128926717Y-75867110D01*
X128910465Y-75827873D01*
X128908142Y-75824396D01*
X128905872Y-75820999D01*
X128905870Y-75820997D01*
X128896064Y-75806321D01*
X128839276Y-75721330D01*
X128713743Y-75595797D01*
X128688207Y-75558687D01*
X128494280Y-75124494D01*
X128483500Y-75073926D01*
X128483500Y-75053386D01*
X128482733Y-75044949D01*
X128477086Y-74982804D01*
X128426478Y-74820394D01*
X128338472Y-74674815D01*
X128338470Y-74674813D01*
X128338469Y-74674811D01*
X128236339Y-74572681D01*
X128202854Y-74511358D01*
X128207838Y-74441666D01*
X128236339Y-74397319D01*
X128338468Y-74295189D01*
X128338469Y-74295188D01*
X128338472Y-74295185D01*
X128426478Y-74149606D01*
X128477086Y-73987196D01*
X128483500Y-73916616D01*
X128483500Y-73403384D01*
X128477086Y-73332804D01*
X128426478Y-73170394D01*
X128338472Y-73024815D01*
X128338470Y-73024813D01*
X128338469Y-73024811D01*
X128218188Y-72904530D01*
X128191274Y-72888260D01*
X128072606Y-72816522D01*
X127910196Y-72765914D01*
X127910194Y-72765913D01*
X127910192Y-72765913D01*
X127860778Y-72761423D01*
X127839616Y-72759500D01*
X127176384Y-72759500D01*
X127105804Y-72765914D01*
X127066049Y-72778302D01*
X126943388Y-72816523D01*
X126938117Y-72818894D01*
X126934898Y-72820580D01*
X126805121Y-72878786D01*
X126735896Y-72888260D01*
X126675549Y-72861364D01*
X126147544Y-72426537D01*
X126124213Y-72408444D01*
X126124138Y-72408386D01*
X126124136Y-72408385D01*
X126124130Y-72408380D01*
X126098563Y-72394825D01*
X126060331Y-72366204D01*
X126007219Y-72346395D01*
X126000058Y-72342598D01*
X126000057Y-72342597D01*
X125997011Y-72340982D01*
X125989598Y-72338321D01*
X125989589Y-72338318D01*
X125989580Y-72338315D01*
X125989566Y-72338311D01*
X125989562Y-72338310D01*
X125980968Y-72336006D01*
X125969747Y-72332418D01*
X125925482Y-72315908D01*
X125925483Y-72315908D01*
X125865883Y-72309501D01*
X125865881Y-72309500D01*
X125865873Y-72309500D01*
X125865865Y-72309500D01*
X124090596Y-72309500D01*
X124063332Y-72301494D01*
X124035355Y-72296515D01*
X124030243Y-72291778D01*
X124023557Y-72289815D01*
X124004949Y-72268340D01*
X123984105Y-72249026D01*
X123982365Y-72242277D01*
X123977802Y-72237011D01*
X123973757Y-72208883D01*
X123966665Y-72181368D01*
X123968849Y-72174751D01*
X123967858Y-72167853D01*
X123979662Y-72142004D01*
X123988572Y-72115022D01*
X123995301Y-72107759D01*
X123996883Y-72104297D01*
X124012549Y-72089143D01*
X124065429Y-72046322D01*
X124075907Y-72038710D01*
X124350816Y-71860182D01*
X124362014Y-71853716D01*
X124654096Y-71704894D01*
X124665925Y-71699628D01*
X124971931Y-71582163D01*
X124984259Y-71578157D01*
X125300881Y-71493317D01*
X125313560Y-71490623D01*
X125637287Y-71439351D01*
X125650192Y-71437994D01*
X125980756Y-71420669D01*
X125987246Y-71420500D01*
X126031595Y-71420500D01*
X158448405Y-71420500D01*
X158492754Y-71420500D01*
X158499243Y-71420669D01*
G37*
%TD.AperFunction*%
%TA.AperFunction,Conductor*%
G36*
X132442465Y-86318185D02*
G01*
X132488220Y-86370989D01*
X132498164Y-86440147D01*
X132481543Y-86486650D01*
X132431522Y-86569393D01*
X132380913Y-86731807D01*
X132376291Y-86782677D01*
X132375623Y-86790032D01*
X132374500Y-86802386D01*
X132374500Y-87315613D01*
X132380913Y-87386192D01*
X132380913Y-87386194D01*
X132380914Y-87386196D01*
X132431522Y-87548606D01*
X132517052Y-87690090D01*
X132519530Y-87694188D01*
X132621661Y-87796319D01*
X132655146Y-87857642D01*
X132650162Y-87927334D01*
X132621661Y-87971681D01*
X132519531Y-88073810D01*
X132519530Y-88073811D01*
X132431522Y-88219393D01*
X132380913Y-88381807D01*
X132379064Y-88402157D01*
X132374500Y-88452384D01*
X132374500Y-88965616D01*
X132374916Y-88970194D01*
X132380913Y-89036192D01*
X132380913Y-89036194D01*
X132380914Y-89036196D01*
X132431522Y-89198606D01*
X132516164Y-89338621D01*
X132519530Y-89344188D01*
X132639811Y-89464469D01*
X132639813Y-89464470D01*
X132639815Y-89464472D01*
X132785394Y-89552478D01*
X132947804Y-89603086D01*
X133018384Y-89609500D01*
X133018387Y-89609500D01*
X133681613Y-89609500D01*
X133681616Y-89609500D01*
X133752196Y-89603086D01*
X133914606Y-89552478D01*
X133914613Y-89552474D01*
X133919959Y-89550067D01*
X133923160Y-89548389D01*
X134279756Y-89388454D01*
X134348980Y-89378982D01*
X134412337Y-89408438D01*
X134449712Y-89467471D01*
X134454500Y-89501597D01*
X134454500Y-89725701D01*
X134457401Y-89762567D01*
X134457402Y-89762570D01*
X134472510Y-89814570D01*
X134484127Y-89854556D01*
X134491067Y-89889412D01*
X134511607Y-89947602D01*
X134512531Y-89950732D01*
X134512573Y-89982549D01*
X134514282Y-90014322D01*
X134512621Y-90017718D01*
X134512625Y-90020602D01*
X134506652Y-90029922D01*
X134490190Y-90063585D01*
X134384674Y-90194652D01*
X134375768Y-90204572D01*
X134309528Y-90270814D01*
X134309526Y-90270816D01*
X134221522Y-90416393D01*
X134170913Y-90578807D01*
X134165782Y-90635275D01*
X134164500Y-90649384D01*
X134164500Y-91312616D01*
X134166417Y-91333713D01*
X134170913Y-91383192D01*
X134170913Y-91383194D01*
X134170914Y-91383196D01*
X134221522Y-91545606D01*
X134264893Y-91617350D01*
X134282729Y-91684905D01*
X134261211Y-91751379D01*
X134207171Y-91795666D01*
X134158776Y-91805500D01*
X131193808Y-91805500D01*
X131126769Y-91785815D01*
X131106127Y-91769181D01*
X129381674Y-90044727D01*
X129381673Y-90044726D01*
X129359517Y-90029922D01*
X129275127Y-89973535D01*
X129156744Y-89924499D01*
X129136127Y-89920398D01*
X129084307Y-89910090D01*
X129022396Y-89877704D01*
X128987823Y-89816988D01*
X128984500Y-89788473D01*
X128984500Y-88402154D01*
X128959502Y-88276487D01*
X128959501Y-88276486D01*
X128959501Y-88276482D01*
X128910465Y-88158099D01*
X128910464Y-88158098D01*
X128910461Y-88158092D01*
X128839277Y-88051558D01*
X128794402Y-88006683D01*
X128748669Y-87960950D01*
X128687106Y-87899387D01*
X128653622Y-87838065D01*
X128658606Y-87768373D01*
X128700478Y-87712440D01*
X128750597Y-87690090D01*
X128761507Y-87687919D01*
X128772082Y-87685816D01*
X128926863Y-87621703D01*
X129066162Y-87528626D01*
X129184626Y-87410162D01*
X129220486Y-87356491D01*
X129228962Y-87345249D01*
X129249668Y-87320809D01*
X129557962Y-86829123D01*
X129575327Y-86807329D01*
X130047838Y-86334819D01*
X130109161Y-86301334D01*
X130135519Y-86298500D01*
X132375426Y-86298500D01*
X132442465Y-86318185D01*
G37*
%TD.AperFunction*%
%TA.AperFunction,Conductor*%
G36*
X134181349Y-79697298D02*
G01*
X134181878Y-79697824D01*
X134378181Y-79894127D01*
X134411666Y-79955450D01*
X134414500Y-79981808D01*
X134414500Y-80767148D01*
X134403641Y-80817893D01*
X134225582Y-81214894D01*
X134223905Y-81218095D01*
X134221522Y-81223394D01*
X134170914Y-81385804D01*
X134164500Y-81456384D01*
X134164500Y-82119616D01*
X134170914Y-82190196D01*
X134200611Y-82285500D01*
X134206103Y-82303124D01*
X134206317Y-82316166D01*
X134211161Y-82328280D01*
X134206881Y-82350430D01*
X134207253Y-82372984D01*
X134200382Y-82384071D01*
X134197908Y-82396881D01*
X134182333Y-82413200D01*
X134170452Y-82432376D01*
X134158675Y-82437990D01*
X134149670Y-82447427D01*
X134127747Y-82452735D01*
X134107383Y-82462444D01*
X134092885Y-82461176D01*
X134081763Y-82463870D01*
X134047110Y-82457175D01*
X134030263Y-82451336D01*
X134028043Y-82450437D01*
X134020198Y-82447836D01*
X134018621Y-82447302D01*
X133986651Y-82436223D01*
X133982966Y-82435197D01*
X133982996Y-82435089D01*
X133975962Y-82433178D01*
X133862711Y-82395651D01*
X133763346Y-82385500D01*
X133216662Y-82385500D01*
X133216644Y-82385501D01*
X133117292Y-82395650D01*
X133117289Y-82395651D01*
X132956305Y-82448996D01*
X132956294Y-82449001D01*
X132811959Y-82538029D01*
X132811953Y-82538033D01*
X132802324Y-82547663D01*
X132741000Y-82581146D01*
X132671308Y-82576159D01*
X132626965Y-82547660D01*
X132617732Y-82538427D01*
X132617728Y-82538424D01*
X132473492Y-82449457D01*
X132473481Y-82449452D01*
X132312606Y-82396144D01*
X132213322Y-82386000D01*
X132190000Y-82386000D01*
X132190000Y-84335999D01*
X132213308Y-84335999D01*
X132213322Y-84335998D01*
X132312607Y-84325855D01*
X132473481Y-84272547D01*
X132473492Y-84272542D01*
X132617731Y-84183573D01*
X132626959Y-84174345D01*
X132688279Y-84140856D01*
X132757971Y-84145835D01*
X132802327Y-84174339D01*
X132811955Y-84183967D01*
X132811959Y-84183970D01*
X132956294Y-84272998D01*
X132956297Y-84272999D01*
X132956303Y-84273003D01*
X133117292Y-84326349D01*
X133216655Y-84336500D01*
X133763344Y-84336499D01*
X133763352Y-84336498D01*
X133763355Y-84336498D01*
X133786434Y-84334140D01*
X133862708Y-84326349D01*
X133983052Y-84286470D01*
X133986646Y-84285777D01*
X134019347Y-84274444D01*
X134020109Y-84274191D01*
X134020112Y-84274191D01*
X134028048Y-84271561D01*
X134030296Y-84270649D01*
X134289900Y-84180683D01*
X134359686Y-84177332D01*
X134420209Y-84212242D01*
X134452250Y-84274332D01*
X134454500Y-84297848D01*
X134454500Y-84773500D01*
X134434815Y-84840539D01*
X134382011Y-84886294D01*
X134330500Y-84897500D01*
X129725003Y-84897500D01*
X129616590Y-84919065D01*
X129616589Y-84919065D01*
X129589671Y-84924420D01*
X129462190Y-84977224D01*
X129347454Y-85053887D01*
X129347453Y-85053888D01*
X129196181Y-85205161D01*
X129134858Y-85238646D01*
X129065166Y-85233662D01*
X129009233Y-85191790D01*
X128984816Y-85126326D01*
X128984500Y-85117480D01*
X128984500Y-83659322D01*
X130990001Y-83659322D01*
X131000144Y-83758607D01*
X131053452Y-83919481D01*
X131053457Y-83919492D01*
X131142424Y-84063728D01*
X131142427Y-84063732D01*
X131262267Y-84183572D01*
X131262271Y-84183575D01*
X131406507Y-84272542D01*
X131406518Y-84272547D01*
X131567393Y-84325855D01*
X131666683Y-84335999D01*
X131690000Y-84335998D01*
X131690000Y-83611000D01*
X130990001Y-83611000D01*
X130990001Y-83659322D01*
X128984500Y-83659322D01*
X128984500Y-83062677D01*
X130990000Y-83062677D01*
X130990000Y-83111000D01*
X131690000Y-83111000D01*
X131690000Y-82385999D01*
X131666693Y-82386000D01*
X131666674Y-82386001D01*
X131567392Y-82396144D01*
X131406518Y-82449452D01*
X131406507Y-82449457D01*
X131262271Y-82538424D01*
X131262267Y-82538427D01*
X131142427Y-82658267D01*
X131142424Y-82658271D01*
X131053457Y-82802507D01*
X131053452Y-82802518D01*
X131000144Y-82963393D01*
X130990000Y-83062677D01*
X128984500Y-83062677D01*
X128984500Y-80931572D01*
X129004185Y-80864533D01*
X129056989Y-80818778D01*
X129126147Y-80808834D01*
X129173597Y-80826034D01*
X129205657Y-80845809D01*
X129205660Y-80845810D01*
X129205666Y-80845814D01*
X129372203Y-80900999D01*
X129474991Y-80911500D01*
X130875008Y-80911499D01*
X130977797Y-80900999D01*
X131144334Y-80845814D01*
X131293656Y-80753712D01*
X131298763Y-80748604D01*
X131312959Y-80736406D01*
X131665108Y-80477395D01*
X131730775Y-80453532D01*
X131798921Y-80468959D01*
X131814065Y-80478911D01*
X131905232Y-80548867D01*
X131905236Y-80548869D01*
X131905243Y-80548875D01*
X131905250Y-80548879D01*
X132019248Y-80614696D01*
X132019249Y-80614697D01*
X132019252Y-80614698D01*
X132019257Y-80614701D01*
X132141171Y-80665200D01*
X132268338Y-80699275D01*
X132399174Y-80716500D01*
X132399181Y-80716500D01*
X133030819Y-80716500D01*
X133030826Y-80716500D01*
X133161662Y-80699275D01*
X133288829Y-80665200D01*
X133410743Y-80614701D01*
X133524757Y-80548875D01*
X133629449Y-80468541D01*
X133722541Y-80375449D01*
X133802875Y-80270757D01*
X133868701Y-80156743D01*
X133919200Y-80034829D01*
X133953275Y-79907662D01*
X133970500Y-79776826D01*
X133971030Y-79772801D01*
X133972095Y-79772941D01*
X133994485Y-79711793D01*
X134050166Y-79669586D01*
X134119826Y-79664182D01*
X134181349Y-79697298D01*
G37*
%TD.AperFunction*%
%TA.AperFunction,Conductor*%
G36*
X133519075Y-73852993D02*
G01*
X133584901Y-73967007D01*
X133677993Y-74060099D01*
X133792007Y-74125925D01*
X133855590Y-74142962D01*
X133223282Y-74775269D01*
X133223282Y-74775270D01*
X133277449Y-74814624D01*
X133466782Y-74911095D01*
X133668870Y-74976757D01*
X133878754Y-75010000D01*
X134091246Y-75010000D01*
X134301127Y-74976757D01*
X134301130Y-74976757D01*
X134503217Y-74911095D01*
X134692554Y-74814622D01*
X134746716Y-74775270D01*
X134746717Y-74775270D01*
X134114408Y-74142962D01*
X134177993Y-74125925D01*
X134292007Y-74060099D01*
X134385099Y-73967007D01*
X134450925Y-73852993D01*
X134467962Y-73789409D01*
X135100270Y-74421717D01*
X135100270Y-74421716D01*
X135139622Y-74367555D01*
X135144232Y-74358507D01*
X135147968Y-74354550D01*
X135149424Y-74349307D01*
X135171701Y-74329420D01*
X135192205Y-74307709D01*
X135197487Y-74306400D01*
X135201547Y-74302777D01*
X135231038Y-74298091D01*
X135260025Y-74290912D01*
X135265175Y-74292667D01*
X135270551Y-74291813D01*
X135297898Y-74303817D01*
X135326161Y-74313447D01*
X135330868Y-74318288D01*
X135334528Y-74319895D01*
X135343900Y-74331691D01*
X135358032Y-74346225D01*
X135361973Y-74352163D01*
X135369949Y-74367816D01*
X135397874Y-74406252D01*
X135399334Y-74408451D01*
X135399649Y-74409468D01*
X135405829Y-74419420D01*
X135415679Y-74438197D01*
X135880959Y-75081866D01*
X135896983Y-75114193D01*
X135897168Y-75114117D01*
X135898297Y-75116842D01*
X135899125Y-75118513D01*
X135899497Y-75119740D01*
X135948533Y-75238125D01*
X135990400Y-75300783D01*
X136019723Y-75344669D01*
X136028179Y-75353125D01*
X136061665Y-75414445D01*
X136064500Y-75440808D01*
X136064500Y-80767148D01*
X136061949Y-80775833D01*
X136063238Y-80784796D01*
X136053641Y-80817893D01*
X136003140Y-80930489D01*
X135957744Y-80983602D01*
X135890840Y-81003741D01*
X135823668Y-80984512D01*
X135777557Y-80932019D01*
X135776857Y-80930487D01*
X135768341Y-80911500D01*
X135740966Y-80850461D01*
X135726358Y-80817890D01*
X135715500Y-80767147D01*
X135715500Y-79596928D01*
X135690502Y-79471261D01*
X135690501Y-79471260D01*
X135690501Y-79471256D01*
X135651783Y-79377782D01*
X135641466Y-79352874D01*
X135624053Y-79326814D01*
X135570278Y-79246332D01*
X135570272Y-79246325D01*
X134345632Y-78021686D01*
X134343633Y-78019687D01*
X134323546Y-77997684D01*
X134312774Y-77988828D01*
X134179669Y-77855723D01*
X134073127Y-77784535D01*
X134072334Y-77784206D01*
X134071636Y-77783787D01*
X134071221Y-77783739D01*
X134068127Y-77781862D01*
X134067751Y-77781661D01*
X134067761Y-77781640D01*
X134041045Y-77765432D01*
X134005595Y-77736287D01*
X133966311Y-77678507D01*
X133961606Y-77622855D01*
X133961743Y-77621904D01*
X133970500Y-77561000D01*
X133970500Y-76945174D01*
X133953275Y-76814338D01*
X133919200Y-76687171D01*
X133868701Y-76565257D01*
X133868698Y-76565252D01*
X133868697Y-76565249D01*
X133868696Y-76565248D01*
X133802879Y-76451250D01*
X133802875Y-76451243D01*
X133800770Y-76448500D01*
X133722544Y-76346555D01*
X133722541Y-76346551D01*
X133629449Y-76253459D01*
X133590801Y-76223803D01*
X133524767Y-76173132D01*
X133524749Y-76173120D01*
X133410751Y-76107303D01*
X133410750Y-76107302D01*
X133288829Y-76056800D01*
X133161658Y-76022724D01*
X133030833Y-76005500D01*
X133030826Y-76005500D01*
X132399174Y-76005500D01*
X132399166Y-76005500D01*
X132268341Y-76022724D01*
X132141170Y-76056800D01*
X132019249Y-76107302D01*
X132019248Y-76107303D01*
X131905250Y-76173120D01*
X131905230Y-76173133D01*
X131889890Y-76184904D01*
X131876197Y-76190768D01*
X131867271Y-76198693D01*
X131833528Y-76209043D01*
X131804714Y-76213540D01*
X131735441Y-76204428D01*
X131725284Y-76199369D01*
X131376996Y-76005500D01*
X131173137Y-75892025D01*
X131173133Y-75892023D01*
X131173131Y-75892022D01*
X131169709Y-75890504D01*
X131169709Y-75890505D01*
X131162026Y-75887098D01*
X131144334Y-75876186D01*
X131116948Y-75867111D01*
X131111418Y-75864659D01*
X131111417Y-75864658D01*
X131089540Y-75854959D01*
X131089529Y-75854955D01*
X131085618Y-75853629D01*
X131085545Y-75853605D01*
X131084164Y-75853139D01*
X131084163Y-75853138D01*
X131084155Y-75853136D01*
X131084157Y-75853136D01*
X131081516Y-75852653D01*
X131080701Y-75852242D01*
X131079834Y-75852018D01*
X131079882Y-75851829D01*
X131019120Y-75821211D01*
X131004144Y-75804392D01*
X130891568Y-75652082D01*
X130867551Y-75586473D01*
X130882819Y-75518292D01*
X130932524Y-75469188D01*
X130940805Y-75465122D01*
X131937419Y-75021227D01*
X131987871Y-75010499D01*
X132342871Y-75010499D01*
X132342872Y-75010499D01*
X132402483Y-75004091D01*
X132537331Y-74953796D01*
X132652546Y-74867546D01*
X132738796Y-74752331D01*
X132789091Y-74617483D01*
X132795500Y-74557873D01*
X132795499Y-74533979D01*
X132798330Y-74520963D01*
X132808940Y-74501525D01*
X132815179Y-74480275D01*
X132831803Y-74459643D01*
X132831808Y-74459636D01*
X132831811Y-74459634D01*
X132831818Y-74459626D01*
X133502037Y-73789408D01*
X133519075Y-73852993D01*
G37*
%TD.AperFunction*%
%TA.AperFunction,Conductor*%
G36*
X148114700Y-76907735D02*
G01*
X148162439Y-76939751D01*
X148186704Y-76966000D01*
X148452185Y-76966000D01*
X148515305Y-76983267D01*
X148573602Y-77017744D01*
X148603251Y-77026358D01*
X148731426Y-77063597D01*
X148731429Y-77063597D01*
X148731431Y-77063598D01*
X148768306Y-77066500D01*
X148768314Y-77066500D01*
X149222500Y-77066500D01*
X149231185Y-77069050D01*
X149240147Y-77067762D01*
X149264187Y-77078740D01*
X149289539Y-77086185D01*
X149295466Y-77093025D01*
X149303703Y-77096787D01*
X149317992Y-77119021D01*
X149335294Y-77138989D01*
X149337581Y-77149503D01*
X149341477Y-77155565D01*
X149346500Y-77190500D01*
X149346500Y-77241500D01*
X149326815Y-77308539D01*
X149274011Y-77354294D01*
X149222500Y-77365500D01*
X148768298Y-77365500D01*
X148731432Y-77368401D01*
X148731426Y-77368402D01*
X148573606Y-77414254D01*
X148573603Y-77414255D01*
X148515306Y-77448732D01*
X148452185Y-77466000D01*
X148186704Y-77466000D01*
X148162440Y-77492248D01*
X148102479Y-77528114D01*
X148032645Y-77525869D01*
X147992987Y-77501468D01*
X147992031Y-77502702D01*
X147985862Y-77497917D01*
X147844396Y-77414255D01*
X147844393Y-77414254D01*
X147686573Y-77368402D01*
X147686567Y-77368401D01*
X147649701Y-77365500D01*
X147649694Y-77365500D01*
X146584367Y-77365500D01*
X146567656Y-77360717D01*
X146551066Y-77360945D01*
X146525523Y-77348658D01*
X146518763Y-77346724D01*
X146515006Y-77344382D01*
X146514756Y-77344180D01*
X146470156Y-77312018D01*
X146443765Y-77299966D01*
X146436962Y-77295724D01*
X146418841Y-77275381D01*
X146398251Y-77257540D01*
X146395941Y-77249673D01*
X146390488Y-77243552D01*
X146386241Y-77216640D01*
X146378566Y-77190500D01*
X146380875Y-77182633D01*
X146379598Y-77174537D01*
X146390573Y-77149604D01*
X146398250Y-77123461D01*
X146404445Y-77118092D01*
X146407749Y-77110589D01*
X146430464Y-77095547D01*
X146451054Y-77077706D01*
X146460514Y-77075647D01*
X146466004Y-77072013D01*
X146477978Y-77071848D01*
X146502566Y-77066500D01*
X147649686Y-77066500D01*
X147649694Y-77066500D01*
X147686569Y-77063598D01*
X147686571Y-77063597D01*
X147686573Y-77063597D01*
X147737710Y-77048740D01*
X147844398Y-77017744D01*
X147985865Y-76934081D01*
X147985868Y-76934077D01*
X147992026Y-76929301D01*
X147993333Y-76930987D01*
X148045008Y-76902761D01*
X148114700Y-76907735D01*
G37*
%TD.AperFunction*%
%TD*%
%TA.AperFunction,Conductor*%
%TO.N,GND*%
G36*
X147406236Y-76966000D02*
G01*
X147406236Y-77466000D01*
X146870527Y-77510236D01*
X146811000Y-77216000D01*
X146870527Y-76921764D01*
X147406236Y-76966000D01*
G37*
%TD.AperFunction*%
%TD*%
%TA.AperFunction,Conductor*%
%TO.N,GND*%
G36*
X147833764Y-77466000D02*
G01*
X147533764Y-77274527D01*
X147833764Y-76966000D01*
X147833764Y-77466000D01*
G37*
%TD.AperFunction*%
%TD*%
%TA.AperFunction,Conductor*%
%TO.N,/VREF_1.65V*%
G36*
X135819284Y-86020599D02*
G01*
X135823940Y-86027808D01*
X135889748Y-86355926D01*
X135888014Y-86364712D01*
X135887986Y-86364754D01*
X135701192Y-86642620D01*
X135693732Y-86647575D01*
X135686429Y-86646646D01*
X135124477Y-86377550D01*
X135118495Y-86370886D01*
X135118977Y-86361944D01*
X135121254Y-86358727D01*
X135389755Y-86090226D01*
X135396118Y-86086958D01*
X135810565Y-86018565D01*
X135819284Y-86020599D01*
G37*
%TD.AperFunction*%
%TD*%
%TA.AperFunction,Conductor*%
%TO.N,/VREF_1.65V*%
G36*
X128879389Y-86242951D02*
G01*
X129149048Y-86512610D01*
X129152475Y-86520883D01*
X129150688Y-86527098D01*
X128821394Y-87052273D01*
X128814095Y-87057462D01*
X128805266Y-87055971D01*
X128805008Y-87055804D01*
X128525259Y-86870013D01*
X128521987Y-86866741D01*
X128336195Y-86586991D01*
X128334472Y-86578203D01*
X128339468Y-86570772D01*
X128339702Y-86570620D01*
X128864902Y-86241310D01*
X128873730Y-86239820D01*
X128879389Y-86242951D01*
G37*
%TD.AperFunction*%
%TD*%
%TA.AperFunction,Conductor*%
%TO.N,/TO_OPAMP_6*%
G36*
X139066104Y-73662273D02*
G01*
X139069347Y-73665515D01*
X139531072Y-74357513D01*
X139532814Y-74366297D01*
X139528335Y-74373386D01*
X138583112Y-75078321D01*
X138576117Y-75080642D01*
X138291255Y-75080642D01*
X138282982Y-75077215D01*
X138279564Y-75069395D01*
X138267352Y-74754549D01*
X138231719Y-73835793D01*
X138234822Y-73827396D01*
X138241112Y-73823870D01*
X139057321Y-73660536D01*
X139066104Y-73662273D01*
G37*
%TD.AperFunction*%
%TD*%
%TA.AperFunction,Conductor*%
%TO.N,/TO_OPAMP_6*%
G36*
X138103585Y-83170577D02*
G01*
X138107375Y-83173111D01*
X138406738Y-83472474D01*
X138410165Y-83480747D01*
X138408498Y-83486767D01*
X138100175Y-84000638D01*
X138092980Y-84005969D01*
X138085695Y-84005440D01*
X137805150Y-83890168D01*
X137798800Y-83883854D01*
X137798775Y-83874901D01*
X138088295Y-83176900D01*
X138094630Y-83170572D01*
X138103585Y-83170577D01*
G37*
%TD.AperFunction*%
%TD*%
%TA.AperFunction,Conductor*%
%TO.N,/TO_OPAMP_7*%
G36*
X136865698Y-80916427D02*
G01*
X136868100Y-80919912D01*
X137096318Y-81428754D01*
X137096577Y-81437705D01*
X137093547Y-81442169D01*
X136722904Y-81781758D01*
X136714489Y-81784820D01*
X136707096Y-81781758D01*
X136336452Y-81442169D01*
X136332667Y-81434053D01*
X136333680Y-81428756D01*
X136561900Y-80919912D01*
X136568412Y-80913766D01*
X136572575Y-80913000D01*
X136857425Y-80913000D01*
X136865698Y-80916427D01*
G37*
%TD.AperFunction*%
%TD*%
%TA.AperFunction,Conductor*%
%TO.N,/MIX_OUT*%
G36*
X130606502Y-73355883D02*
G01*
X131440434Y-73657349D01*
X131447049Y-73663384D01*
X131447055Y-73663397D01*
X131837747Y-74499205D01*
X131838146Y-74508151D01*
X131832103Y-74514759D01*
X131831908Y-74514848D01*
X130327272Y-75185018D01*
X130322512Y-75186030D01*
X130040888Y-75186030D01*
X130032615Y-75182603D01*
X130029188Y-75174330D01*
X130029715Y-75170858D01*
X130591366Y-73363420D01*
X130597094Y-73356536D01*
X130606011Y-73355719D01*
X130606502Y-73355883D01*
G37*
%TD.AperFunction*%
%TD*%
%TA.AperFunction,Conductor*%
%TO.N,/MIX_OUT*%
G36*
X130327372Y-75739427D02*
G01*
X130328508Y-75740746D01*
X130744016Y-76302904D01*
X130746178Y-76311594D01*
X130742887Y-76318124D01*
X130183280Y-76878705D01*
X130175010Y-76882139D01*
X130166734Y-76878719D01*
X130166720Y-76878705D01*
X129607112Y-76318124D01*
X129603692Y-76309848D01*
X129605982Y-76302906D01*
X130021492Y-75740745D01*
X130029165Y-75736129D01*
X130030901Y-75736000D01*
X130319099Y-75736000D01*
X130327372Y-75739427D01*
G37*
%TD.AperFunction*%
%TD*%
%TA.AperFunction,Conductor*%
%TO.N,/TO_OPAMP_7*%
G36*
X136530801Y-73663644D02*
G01*
X137223409Y-74126660D01*
X137228383Y-74134107D01*
X137227513Y-74141327D01*
X136821936Y-75012061D01*
X136819603Y-75015394D01*
X136618643Y-75216354D01*
X136610370Y-75219781D01*
X136602097Y-75216354D01*
X136600888Y-75214935D01*
X135825354Y-74142061D01*
X135823285Y-74133349D01*
X135827982Y-74125725D01*
X135828290Y-74125510D01*
X136517788Y-73663649D01*
X136526568Y-73661893D01*
X136530801Y-73663644D01*
G37*
%TD.AperFunction*%
%TD*%
%TA.AperFunction,Conductor*%
%TO.N,Net-(U1A--)*%
G36*
X137113936Y-90819457D02*
G01*
X137119881Y-90824985D01*
X137471554Y-91521680D01*
X137472223Y-91530610D01*
X137469382Y-91535225D01*
X137268931Y-91735676D01*
X137260658Y-91739103D01*
X137255887Y-91738086D01*
X136632758Y-91459771D01*
X136626601Y-91453268D01*
X136626033Y-91446916D01*
X136713114Y-90986521D01*
X136718019Y-90979030D01*
X136720147Y-90977882D01*
X137104983Y-90819438D01*
X137113936Y-90819457D01*
G37*
%TD.AperFunction*%
%TD*%
%TA.AperFunction,Conductor*%
%TO.N,Net-(FB1-Pad1)*%
G36*
X156243393Y-85655258D02*
G01*
X156826365Y-86043260D01*
X156831353Y-86050697D01*
X156829622Y-86059483D01*
X156826365Y-86062740D01*
X156243393Y-86450741D01*
X156235938Y-86452661D01*
X155650728Y-86403894D01*
X155642768Y-86399792D01*
X155640000Y-86392234D01*
X155640000Y-85713766D01*
X155643427Y-85705493D01*
X155650728Y-85702106D01*
X156235939Y-85653338D01*
X156243393Y-85655258D01*
G37*
%TD.AperFunction*%
%TD*%
%TA.AperFunction,Conductor*%
%TO.N,GND*%
G36*
X159796314Y-87634000D02*
G01*
X159796314Y-88134000D01*
X159082036Y-88276314D01*
X159003000Y-87884000D01*
X159082036Y-87491686D01*
X159796314Y-87634000D01*
G37*
%TD.AperFunction*%
%TD*%
%TA.AperFunction,Conductor*%
%TO.N,GND*%
G36*
X139584314Y-90599964D02*
G01*
X139192000Y-90679000D01*
X138799686Y-90599964D01*
X139042000Y-89885686D01*
X139342000Y-89885686D01*
X139584314Y-90599964D01*
G37*
%TD.AperFunction*%
%TD*%
%TA.AperFunction,Conductor*%
%TO.N,GND*%
G36*
X159005000Y-87884000D02*
G01*
X158925964Y-88276314D01*
X158211686Y-88134000D01*
X158211686Y-87634000D01*
X158925964Y-87491686D01*
X159005000Y-87884000D01*
G37*
%TD.AperFunction*%
%TD*%
%TA.AperFunction,Conductor*%
%TO.N,GND*%
G36*
X159005000Y-81280000D02*
G01*
X159226228Y-81612588D01*
X158420035Y-82033000D01*
X158420035Y-81533000D01*
X158671412Y-81057772D01*
X159005000Y-81280000D01*
G37*
%TD.AperFunction*%
%TD*%
%TA.AperFunction,Conductor*%
%TO.N,GND*%
G36*
X159004707Y-87884707D02*
G01*
X158781772Y-88216588D01*
X158118183Y-87859737D01*
X158471737Y-87506183D01*
X158925964Y-87491686D01*
X159004707Y-87884707D01*
G37*
%TD.AperFunction*%
%TD*%
%TA.AperFunction,Conductor*%
%TO.N,GND*%
G36*
X159741027Y-80896526D02*
G01*
X159336588Y-81502228D01*
X159003293Y-81280707D01*
X158781772Y-80947412D01*
X159387474Y-80542973D01*
X159741027Y-80896526D01*
G37*
%TD.AperFunction*%
%TD*%
%TA.AperFunction,Conductor*%
%TO.N,GND*%
G36*
X159226228Y-80947412D02*
G01*
X159004707Y-81280707D01*
X158671412Y-81502228D01*
X158266973Y-80896526D01*
X158620526Y-80542973D01*
X159226228Y-80947412D01*
G37*
%TD.AperFunction*%
%TD*%
%TA.AperFunction,Conductor*%
%TO.N,/VREF_1.65V*%
G36*
X137993919Y-87563427D02*
G01*
X137997059Y-87569125D01*
X138082872Y-87949452D01*
X138082581Y-87955660D01*
X137806122Y-88801953D01*
X137800295Y-88808753D01*
X137791367Y-88809442D01*
X137784567Y-88803615D01*
X137783878Y-88801953D01*
X137724516Y-88620235D01*
X137507417Y-87955657D01*
X137507127Y-87949454D01*
X137592941Y-87569124D01*
X137598105Y-87561809D01*
X137604354Y-87560000D01*
X137985646Y-87560000D01*
X137993919Y-87563427D01*
G37*
%TD.AperFunction*%
%TD*%
%TA.AperFunction,Conductor*%
%TO.N,/VREF_1.65V*%
G36*
X138078056Y-87432265D02*
G01*
X138085485Y-87437265D01*
X138087259Y-87445760D01*
X137996702Y-87960563D01*
X137991894Y-87968117D01*
X137985179Y-87970236D01*
X137604821Y-87970236D01*
X137596548Y-87966809D01*
X137593298Y-87960563D01*
X137502740Y-87445760D01*
X137504682Y-87437018D01*
X137511942Y-87432265D01*
X137792682Y-87375469D01*
X137797318Y-87375469D01*
X138078056Y-87432265D01*
G37*
%TD.AperFunction*%
%TD*%
%TA.AperFunction,Conductor*%
%TO.N,/VREF_1.65V*%
G36*
X126276098Y-86241311D02*
G01*
X126801273Y-86570605D01*
X126806462Y-86577904D01*
X126804971Y-86586733D01*
X126804804Y-86586991D01*
X126619013Y-86866740D01*
X126615740Y-86870013D01*
X126335991Y-87055804D01*
X126327203Y-87057527D01*
X126319772Y-87052531D01*
X126319605Y-87052273D01*
X125990311Y-86527098D01*
X125988820Y-86518269D01*
X125991949Y-86512612D01*
X126261611Y-86242950D01*
X126269883Y-86239524D01*
X126276098Y-86241311D01*
G37*
%TD.AperFunction*%
%TD*%
%TA.AperFunction,Conductor*%
%TO.N,/VREF_1.65V*%
G36*
X146709981Y-84224927D02*
G01*
X146711469Y-84226749D01*
X146986587Y-84642991D01*
X146988290Y-84651782D01*
X146985084Y-84657730D01*
X146626265Y-85015260D01*
X146617986Y-85018672D01*
X146610872Y-85016245D01*
X146359282Y-84822655D01*
X146200229Y-84700269D01*
X146195763Y-84692509D01*
X146196713Y-84686156D01*
X146404882Y-84228356D01*
X146411426Y-84222244D01*
X146415533Y-84221500D01*
X146701708Y-84221500D01*
X146709981Y-84224927D01*
G37*
%TD.AperFunction*%
%TD*%
%TA.AperFunction,Conductor*%
%TO.N,/VREF_1.65V*%
G36*
X137903236Y-86736705D02*
G01*
X137904634Y-86737899D01*
X138173314Y-87006579D01*
X138176741Y-87014852D01*
X138176493Y-87017247D01*
X138091600Y-87423218D01*
X138086553Y-87430614D01*
X138077897Y-87432304D01*
X137796613Y-87377161D01*
X137792332Y-87375387D01*
X137555619Y-87216098D01*
X137550668Y-87208636D01*
X137552444Y-87199859D01*
X137552652Y-87199560D01*
X137886896Y-86739295D01*
X137894528Y-86734616D01*
X137903236Y-86736705D01*
G37*
%TD.AperFunction*%
%TD*%
%TA.AperFunction,Conductor*%
%TO.N,/VREF_1.65V*%
G36*
X143675831Y-86289299D02*
G01*
X143852445Y-86351641D01*
X144184195Y-86468744D01*
X144190855Y-86474729D01*
X144192000Y-86479777D01*
X144192000Y-86863222D01*
X144188573Y-86871495D01*
X144184194Y-86874255D01*
X143675831Y-87053700D01*
X143666889Y-87053222D01*
X143663310Y-87050571D01*
X143501767Y-86874255D01*
X143323240Y-86679402D01*
X143320179Y-86670989D01*
X143323240Y-86663597D01*
X143663311Y-86292427D01*
X143671426Y-86288643D01*
X143675831Y-86289299D01*
G37*
%TD.AperFunction*%
%TD*%
%TA.AperFunction,Conductor*%
%TO.N,/VREF_1.65V*%
G36*
X144637007Y-86196502D02*
G01*
X144963381Y-86614308D01*
X144965774Y-86622938D01*
X144963392Y-86628700D01*
X144636868Y-87047987D01*
X144629081Y-87052409D01*
X144624167Y-87051972D01*
X144051230Y-86874055D01*
X144044346Y-86868328D01*
X144043000Y-86862881D01*
X144043000Y-86478860D01*
X144046427Y-86470587D01*
X144049632Y-86468315D01*
X144622724Y-86193157D01*
X144631664Y-86192666D01*
X144637007Y-86196502D01*
G37*
%TD.AperFunction*%
%TD*%
%TA.AperFunction,Conductor*%
%TO.N,/VREF_1.65V*%
G36*
X124270054Y-80813634D02*
G01*
X124961490Y-81274659D01*
X124966472Y-81282100D01*
X124966475Y-81286674D01*
X124805046Y-82099205D01*
X124800072Y-82106652D01*
X124791290Y-82108401D01*
X124788742Y-82107582D01*
X123917003Y-81712668D01*
X123917001Y-81712667D01*
X123917000Y-81712667D01*
X123916998Y-81712667D01*
X123541771Y-81712667D01*
X123533498Y-81709240D01*
X123530071Y-81700967D01*
X123532735Y-81693535D01*
X124254529Y-80815937D01*
X124262430Y-80811725D01*
X124270054Y-80813634D01*
G37*
%TD.AperFunction*%
%TD*%
%TA.AperFunction,Conductor*%
%TO.N,/VREF_1.65V*%
G36*
X143311476Y-86669614D02*
G01*
X143318969Y-86674519D01*
X143320121Y-86676656D01*
X143478805Y-87062074D01*
X143478786Y-87071028D01*
X143473880Y-87076635D01*
X142811907Y-87462683D01*
X142803034Y-87463890D01*
X142797740Y-87460849D01*
X142527394Y-87190503D01*
X142523967Y-87182230D01*
X142525335Y-87176740D01*
X142581258Y-87071500D01*
X142837959Y-86588419D01*
X142844865Y-86582723D01*
X142850459Y-86582415D01*
X143311476Y-86669614D01*
G37*
%TD.AperFunction*%
%TD*%
%TA.AperFunction,Conductor*%
%TO.N,/VREF_1.65V*%
G36*
X139075433Y-83916384D02*
G01*
X139076122Y-83918046D01*
X139352581Y-84764339D01*
X139352872Y-84770547D01*
X139267059Y-85150875D01*
X139261895Y-85158191D01*
X139255646Y-85160000D01*
X138874354Y-85160000D01*
X138866081Y-85156573D01*
X138862941Y-85150875D01*
X138777127Y-84770547D01*
X138777417Y-84764342D01*
X139053878Y-83918045D01*
X139059705Y-83911246D01*
X139068633Y-83910557D01*
X139075433Y-83916384D01*
G37*
%TD.AperFunction*%
%TD*%
%TA.AperFunction,Conductor*%
%TO.N,/VREF_1.65V*%
G36*
X138379563Y-87174298D02*
G01*
X138387117Y-87179106D01*
X138389236Y-87185821D01*
X138389236Y-87566178D01*
X138385809Y-87574451D01*
X138379563Y-87577701D01*
X137864760Y-87668259D01*
X137856018Y-87666317D01*
X137851265Y-87659056D01*
X137834462Y-87576000D01*
X137794469Y-87378318D01*
X137794469Y-87373680D01*
X137832475Y-87185821D01*
X137851265Y-87092942D01*
X137856265Y-87085514D01*
X137864760Y-87083740D01*
X138379563Y-87174298D01*
G37*
%TD.AperFunction*%
%TD*%
%TA.AperFunction,Conductor*%
%TO.N,/VREF_1.65V*%
G36*
X124923801Y-76190406D02*
G01*
X124961021Y-76197772D01*
X124968472Y-76202739D01*
X124970227Y-76206978D01*
X125131958Y-77024223D01*
X125130203Y-77033004D01*
X125124921Y-77037319D01*
X123926094Y-77528998D01*
X123917139Y-77528967D01*
X123913381Y-77526446D01*
X123641553Y-77254618D01*
X123638126Y-77246345D01*
X123639001Y-77241905D01*
X123722909Y-77037319D01*
X124130681Y-76043076D01*
X124136990Y-76036724D01*
X124143773Y-76036041D01*
X124923801Y-76190406D01*
G37*
%TD.AperFunction*%
%TD*%
%TA.AperFunction,Conductor*%
%TO.N,/VREF_1.65V*%
G36*
X123926093Y-90111000D02*
G01*
X125124921Y-90602680D01*
X125131275Y-90608990D01*
X125131958Y-90615776D01*
X124970227Y-91433021D01*
X124965260Y-91440472D01*
X124961021Y-91442227D01*
X124143776Y-91603958D01*
X124134995Y-91602203D01*
X124130680Y-91596921D01*
X124066611Y-91440707D01*
X123639001Y-90398093D01*
X123639032Y-90389139D01*
X123641550Y-90385384D01*
X123913382Y-90113552D01*
X123921654Y-90110126D01*
X123926093Y-90111000D01*
G37*
%TD.AperFunction*%
%TD*%
%TA.AperFunction,Conductor*%
%TO.N,/VREF_1.65V*%
G36*
X144973842Y-86626868D02*
G01*
X145336009Y-87021614D01*
X145339077Y-87030027D01*
X145336813Y-87036457D01*
X145045191Y-87432880D01*
X144987507Y-87511296D01*
X144983507Y-87516733D01*
X144975844Y-87521367D01*
X144974082Y-87521500D01*
X144590289Y-87521500D01*
X144582016Y-87518073D01*
X144578685Y-87511296D01*
X144517483Y-87036457D01*
X144494084Y-86854913D01*
X144496425Y-86846271D01*
X144500658Y-86842856D01*
X144960196Y-86624212D01*
X144969137Y-86623753D01*
X144973842Y-86626868D01*
G37*
%TD.AperFunction*%
%TD*%
%TA.AperFunction,Conductor*%
%TO.N,/VREF_1.65V*%
G36*
X144978919Y-87432927D02*
G01*
X144982059Y-87438625D01*
X145067656Y-87817995D01*
X145066685Y-87825848D01*
X144790442Y-88372342D01*
X144783651Y-88378180D01*
X144774722Y-88377506D01*
X144769558Y-88372342D01*
X144493314Y-87825848D01*
X144492343Y-87817996D01*
X144577941Y-87438624D01*
X144583105Y-87431309D01*
X144589354Y-87429500D01*
X144970646Y-87429500D01*
X144978919Y-87432927D01*
G37*
%TD.AperFunction*%
%TD*%
%TA.AperFunction,Conductor*%
%TO.N,/VREF_1.65V*%
G36*
X124804227Y-85538246D02*
G01*
X124805046Y-85540794D01*
X124966475Y-86353325D01*
X124964726Y-86362107D01*
X124961490Y-86365340D01*
X124270055Y-86826364D01*
X124261270Y-86828102D01*
X124254528Y-86824061D01*
X123877246Y-86365340D01*
X123532734Y-85946464D01*
X123530126Y-85937899D01*
X123534339Y-85929997D01*
X123541771Y-85927333D01*
X123916998Y-85927333D01*
X123917000Y-85927333D01*
X124788743Y-85532416D01*
X124797692Y-85532124D01*
X124804227Y-85538246D01*
G37*
%TD.AperFunction*%
%TD*%
%TA.AperFunction,Conductor*%
%TO.N,/VREF_1.65V*%
G36*
X145545017Y-85773896D02*
G01*
X145815682Y-86044561D01*
X145819109Y-86052834D01*
X145817801Y-86058209D01*
X145447616Y-86773970D01*
X145440772Y-86779744D01*
X145433480Y-86779680D01*
X144972338Y-86623911D01*
X144965596Y-86618016D01*
X144965264Y-86617283D01*
X144785639Y-86181293D01*
X144785656Y-86172341D01*
X144790951Y-86166516D01*
X145531242Y-85771844D01*
X145540152Y-85770976D01*
X145545017Y-85773896D01*
G37*
%TD.AperFunction*%
%TD*%
%TA.AperFunction,Conductor*%
%TO.N,/VREF_1.65V*%
G36*
X146613592Y-85019446D02*
G01*
X146620933Y-85024571D01*
X146621978Y-85026629D01*
X146771892Y-85411841D01*
X146771699Y-85420793D01*
X146766517Y-85426396D01*
X146083202Y-85792693D01*
X146074291Y-85793581D01*
X146069401Y-85790654D01*
X145799100Y-85520353D01*
X145795673Y-85512080D01*
X145797284Y-85506156D01*
X146139695Y-84923386D01*
X146146841Y-84917990D01*
X146152298Y-84917888D01*
X146613592Y-85019446D01*
G37*
%TD.AperFunction*%
%TD*%
%TA.AperFunction,Conductor*%
%TO.N,/VREF_1.65V*%
G36*
X125449402Y-85660587D02*
G01*
X125450171Y-85661149D01*
X126623878Y-86594142D01*
X126628222Y-86601973D01*
X126625757Y-86610581D01*
X126624871Y-86611574D01*
X126353580Y-86882865D01*
X126348181Y-86885934D01*
X125145764Y-87190641D01*
X125136903Y-87189351D01*
X125131548Y-87182173D01*
X125131416Y-87181589D01*
X125072248Y-86885144D01*
X124968243Y-86364054D01*
X124969984Y-86355274D01*
X125433171Y-85663796D01*
X125440622Y-85658830D01*
X125449402Y-85660587D01*
G37*
%TD.AperFunction*%
%TD*%
%TA.AperFunction,Conductor*%
%TO.N,Net-(U2-REF)*%
G36*
X148278294Y-86624446D02*
G01*
X148737523Y-86842942D01*
X148743521Y-86849591D01*
X148744132Y-86854732D01*
X148675103Y-87510229D01*
X148670828Y-87518098D01*
X148663467Y-87520704D01*
X148379014Y-87520704D01*
X148370741Y-87517277D01*
X148370542Y-87517073D01*
X147929858Y-87054388D01*
X147926633Y-87046034D01*
X147929257Y-87038932D01*
X148264199Y-86627623D01*
X148272079Y-86623373D01*
X148278294Y-86624446D01*
G37*
%TD.AperFunction*%
%TD*%
%TA.AperFunction,Conductor*%
%TO.N,Net-(U2-REF)*%
G36*
X148675406Y-87526927D02*
G01*
X148677348Y-87529495D01*
X148919402Y-87962875D01*
X148920444Y-87971769D01*
X148916934Y-87977348D01*
X148531747Y-88317655D01*
X148523278Y-88320565D01*
X148516253Y-88317655D01*
X148131065Y-87977348D01*
X148127134Y-87969302D01*
X148128597Y-87962875D01*
X148370652Y-87529495D01*
X148377678Y-87523943D01*
X148380867Y-87523500D01*
X148667133Y-87523500D01*
X148675406Y-87526927D01*
G37*
%TD.AperFunction*%
%TD*%
%TA.AperFunction,Conductor*%
%TO.N,Net-(U2-REF)*%
G36*
X146769979Y-87432927D02*
G01*
X146772210Y-87436048D01*
X146807366Y-87507753D01*
X146939565Y-87777387D01*
X146940130Y-87786324D01*
X146939813Y-87787149D01*
X146689147Y-88371669D01*
X146682737Y-88377922D01*
X146673783Y-88377811D01*
X146668292Y-88372960D01*
X146382235Y-87883326D01*
X146380859Y-87875155D01*
X146467135Y-87438930D01*
X146472102Y-87431479D01*
X146478613Y-87429500D01*
X146761706Y-87429500D01*
X146769979Y-87432927D01*
G37*
%TD.AperFunction*%
%TD*%
%TA.AperFunction,Conductor*%
%TO.N,Net-(U2-REF)*%
G36*
X146626747Y-86677344D02*
G01*
X147011934Y-87017650D01*
X147015865Y-87025696D01*
X147014402Y-87032123D01*
X146772348Y-87465505D01*
X146765322Y-87471057D01*
X146762133Y-87471500D01*
X146475867Y-87471500D01*
X146467594Y-87468073D01*
X146465652Y-87465505D01*
X146223597Y-87032123D01*
X146222555Y-87023229D01*
X146226063Y-87017652D01*
X146611253Y-86677343D01*
X146619722Y-86674434D01*
X146626747Y-86677344D01*
G37*
%TD.AperFunction*%
%TD*%
%TA.AperFunction,Conductor*%
%TO.N,Net-(U2-REF)*%
G36*
X147939413Y-86197022D02*
G01*
X148067523Y-86361021D01*
X148265381Y-86614308D01*
X148267774Y-86622938D01*
X148265392Y-86628700D01*
X147939279Y-87047459D01*
X147931492Y-87051881D01*
X147925746Y-87051150D01*
X147352398Y-86824425D01*
X147345964Y-86818196D01*
X147345000Y-86813545D01*
X147345000Y-86528326D01*
X147348427Y-86520053D01*
X147350939Y-86518143D01*
X147924441Y-86194039D01*
X147933327Y-86192953D01*
X147939413Y-86197022D01*
G37*
%TD.AperFunction*%
%TD*%
%TA.AperFunction,Conductor*%
%TO.N,Net-(U2-REF)*%
G36*
X146978244Y-86290180D02*
G01*
X147487089Y-86518400D01*
X147493234Y-86524911D01*
X147494000Y-86529074D01*
X147494000Y-86813925D01*
X147490573Y-86822198D01*
X147487088Y-86824600D01*
X146978245Y-87052818D01*
X146969294Y-87053077D01*
X146964830Y-87050047D01*
X146758272Y-86824600D01*
X146625240Y-86679402D01*
X146622179Y-86670989D01*
X146625240Y-86663597D01*
X146964831Y-86292951D01*
X146972946Y-86289167D01*
X146978244Y-86290180D01*
G37*
%TD.AperFunction*%
%TD*%
%TA.AperFunction,Conductor*%
%TO.N,+3.3V*%
G36*
X135551961Y-83865239D02*
G01*
X135555992Y-83873109D01*
X135643442Y-84889929D01*
X135640737Y-84898466D01*
X135640058Y-84899205D01*
X135302594Y-85236669D01*
X135294321Y-85240096D01*
X135286048Y-85236669D01*
X135283562Y-85232991D01*
X135125606Y-84862954D01*
X135124769Y-84856816D01*
X135253040Y-83893699D01*
X135257529Y-83885951D01*
X135263753Y-83883578D01*
X135543454Y-83862445D01*
X135551961Y-83865239D01*
G37*
%TD.AperFunction*%
%TD*%
%TA.AperFunction,Conductor*%
%TO.N,+3.3V*%
G36*
X143664807Y-84224927D02*
G01*
X143668162Y-84231901D01*
X143716325Y-84663064D01*
X143713837Y-84671667D01*
X143712444Y-84673131D01*
X143324747Y-85015655D01*
X143316278Y-85018565D01*
X143309253Y-85015655D01*
X143127328Y-84854927D01*
X142921554Y-84673129D01*
X142917624Y-84665085D01*
X142917673Y-84663074D01*
X142965838Y-84231900D01*
X142970162Y-84224060D01*
X142977466Y-84221500D01*
X143656534Y-84221500D01*
X143664807Y-84224927D01*
G37*
%TD.AperFunction*%
%TD*%
%TA.AperFunction,Conductor*%
%TO.N,+3.3V*%
G36*
X142858675Y-84777405D02*
G01*
X143313027Y-85018857D01*
X143318725Y-85025766D01*
X143319037Y-85027034D01*
X143390826Y-85410035D01*
X143388982Y-85418797D01*
X143381517Y-85423683D01*
X142501827Y-85591352D01*
X142493058Y-85589535D01*
X142488143Y-85582050D01*
X142487936Y-85579859D01*
X142487936Y-85099284D01*
X142491363Y-85091011D01*
X142491901Y-85090506D01*
X142565369Y-85025766D01*
X142845452Y-84778958D01*
X142853922Y-84776060D01*
X142858675Y-84777405D01*
G37*
%TD.AperFunction*%
%TD*%
%TA.AperFunction,Conductor*%
%TO.N,+3.3V*%
G36*
X140736900Y-85092124D02*
G01*
X140744344Y-85097101D01*
X140746314Y-85103598D01*
X140746314Y-85584401D01*
X140742887Y-85592674D01*
X140736900Y-85595875D01*
X140043486Y-85734032D01*
X140034703Y-85732288D01*
X140029730Y-85724869D01*
X140001431Y-85584401D01*
X139953465Y-85346308D01*
X139953465Y-85341691D01*
X140029730Y-84963128D01*
X140034724Y-84955697D01*
X140043485Y-84953967D01*
X140736900Y-85092124D01*
G37*
%TD.AperFunction*%
%TD*%
%TA.AperFunction,Conductor*%
%TO.N,+3.3V*%
G36*
X137041296Y-84990233D02*
G01*
X137046269Y-84997652D01*
X137122534Y-85376211D01*
X137122534Y-85380833D01*
X137046269Y-85759391D01*
X137041275Y-85766824D01*
X137032513Y-85768554D01*
X136339100Y-85630397D01*
X136331656Y-85625420D01*
X136329686Y-85618923D01*
X136329686Y-85138120D01*
X136333113Y-85129847D01*
X136339098Y-85126646D01*
X136419014Y-85110724D01*
X136421283Y-85110499D01*
X136706518Y-85110499D01*
X136800304Y-85095646D01*
X136913342Y-85038050D01*
X136943078Y-85008313D01*
X136949056Y-85005117D01*
X137032514Y-84988489D01*
X137041296Y-84990233D01*
G37*
%TD.AperFunction*%
%TD*%
%TA.AperFunction,Conductor*%
%TO.N,+3.3V*%
G36*
X133821122Y-82913854D02*
G01*
X134382132Y-83108273D01*
X134388826Y-83114219D01*
X134390000Y-83119327D01*
X134390000Y-83602672D01*
X134386573Y-83610945D01*
X134382131Y-83613727D01*
X133821122Y-83808145D01*
X133812183Y-83807616D01*
X133807795Y-83803925D01*
X133493919Y-83367835D01*
X133491867Y-83359118D01*
X133493919Y-83354165D01*
X133807795Y-82918073D01*
X133815409Y-82913361D01*
X133821122Y-82913854D01*
G37*
%TD.AperFunction*%
%TD*%
%TA.AperFunction,Conductor*%
%TO.N,+3.3V*%
G36*
X134959171Y-83173111D02*
G01*
X134961705Y-83176901D01*
X135251209Y-83874863D01*
X135251214Y-83883818D01*
X135244885Y-83890153D01*
X135244849Y-83890168D01*
X134962878Y-84006026D01*
X134953923Y-84006001D01*
X134949499Y-84002762D01*
X134761075Y-83780079D01*
X134573044Y-83557861D01*
X134570317Y-83549333D01*
X134573703Y-83542033D01*
X134919645Y-83196092D01*
X134942627Y-83173109D01*
X134950898Y-83169684D01*
X134959171Y-83173111D01*
G37*
%TD.AperFunction*%
%TD*%
%TA.AperFunction,Conductor*%
%TO.N,Net-(JP1-B)*%
G36*
X132684320Y-79700454D02*
G01*
X132691088Y-79706318D01*
X132691726Y-79715250D01*
X132685862Y-79722018D01*
X132684667Y-79722535D01*
X132040672Y-79959620D01*
X132033117Y-79959800D01*
X131727465Y-79863577D01*
X131720602Y-79857824D01*
X131719278Y-79852417D01*
X131719278Y-79568870D01*
X131722705Y-79560597D01*
X131726567Y-79558033D01*
X131960997Y-79462628D01*
X131969100Y-79462365D01*
X132684320Y-79700454D01*
G37*
%TD.AperFunction*%
%TD*%
%TA.AperFunction,Conductor*%
%TO.N,Net-(JP1-B)*%
G36*
X130926683Y-79282346D02*
G01*
X131642507Y-79558113D01*
X131648994Y-79564284D01*
X131650000Y-79569030D01*
X131650000Y-79855081D01*
X131646573Y-79863354D01*
X131645232Y-79864506D01*
X131008081Y-80333140D01*
X130999386Y-80335281D01*
X130995084Y-80333720D01*
X130188862Y-79845009D01*
X130183564Y-79837790D01*
X130184922Y-79828939D01*
X130187936Y-79825623D01*
X130915498Y-79283881D01*
X130924179Y-79281689D01*
X130926683Y-79282346D01*
G37*
%TD.AperFunction*%
%TD*%
%TA.AperFunction,Conductor*%
%TO.N,Net-(FB1-Pad1)*%
G36*
X157637699Y-82783882D02*
G01*
X158042165Y-82953826D01*
X158168625Y-83006961D01*
X158174925Y-83013325D01*
X158174880Y-83022280D01*
X158172366Y-83026021D01*
X157693663Y-83504724D01*
X157685390Y-83508151D01*
X157684142Y-83508084D01*
X157583781Y-83497319D01*
X157579891Y-83496197D01*
X157573625Y-83493134D01*
X157500638Y-83482500D01*
X157500636Y-83482500D01*
X157446235Y-83482500D01*
X157444987Y-83482433D01*
X156809232Y-83414243D01*
X156801372Y-83409954D01*
X156798843Y-83401402D01*
X156838478Y-83020129D01*
X156842742Y-83012256D01*
X156846857Y-83010103D01*
X157629919Y-82783431D01*
X157637699Y-82783882D01*
G37*
%TD.AperFunction*%
%TD*%
%TA.AperFunction,Conductor*%
%TO.N,Net-(FB1-Pad1)*%
G36*
X154867196Y-78745724D02*
G01*
X155105442Y-78953883D01*
X155292270Y-79117118D01*
X155296246Y-79125142D01*
X155296169Y-79127475D01*
X155210854Y-79767346D01*
X155206364Y-79775094D01*
X155199257Y-79777500D01*
X154519743Y-79777500D01*
X154511470Y-79774073D01*
X154508146Y-79767346D01*
X154422830Y-79127475D01*
X154425133Y-79118822D01*
X154426729Y-79117118D01*
X154851803Y-78745724D01*
X154860287Y-78742862D01*
X154867196Y-78745724D01*
G37*
%TD.AperFunction*%
%TD*%
%TA.AperFunction,Conductor*%
%TO.N,Net-(FB1-Pad1)*%
G36*
X156243393Y-82615258D02*
G01*
X156826365Y-83003260D01*
X156831353Y-83010697D01*
X156829622Y-83019483D01*
X156826365Y-83022740D01*
X156243393Y-83410741D01*
X156235938Y-83412661D01*
X155650728Y-83363894D01*
X155642768Y-83359792D01*
X155640000Y-83352234D01*
X155640000Y-82673766D01*
X155643427Y-82665493D01*
X155650728Y-82662106D01*
X156235939Y-82613338D01*
X156243393Y-82615258D01*
G37*
%TD.AperFunction*%
%TD*%
%TA.AperFunction,Conductor*%
%TO.N,Net-(FB1-Pad1)*%
G36*
X157681648Y-85533909D02*
G01*
X157682854Y-85534961D01*
X158161673Y-86013780D01*
X158165100Y-86022053D01*
X158161673Y-86030326D01*
X158158152Y-86032744D01*
X157641559Y-86262375D01*
X157633827Y-86262998D01*
X156847002Y-86055737D01*
X156839874Y-86050316D01*
X156838362Y-86045789D01*
X156835573Y-86022053D01*
X156793541Y-85664388D01*
X156795979Y-85655773D01*
X156803560Y-85651435D01*
X157295835Y-85583608D01*
X157297419Y-85583500D01*
X157500633Y-85583500D01*
X157500636Y-85583500D01*
X157573625Y-85572866D01*
X157650366Y-85535349D01*
X157653894Y-85534273D01*
X157672985Y-85531643D01*
X157681648Y-85533909D01*
G37*
%TD.AperFunction*%
%TD*%
%TA.AperFunction,Conductor*%
%TO.N,Net-(J1-CC1)*%
G36*
X156218714Y-84685076D02*
G01*
X156770091Y-84993354D01*
X156822735Y-85022788D01*
X156828283Y-85029816D01*
X156827237Y-85038710D01*
X156822735Y-85043212D01*
X156218716Y-85380922D01*
X156210817Y-85382203D01*
X155699511Y-85284811D01*
X155692025Y-85279897D01*
X155690000Y-85273318D01*
X155690000Y-84792681D01*
X155693427Y-84784408D01*
X155699509Y-84781188D01*
X156210819Y-84683796D01*
X156218714Y-84685076D01*
G37*
%TD.AperFunction*%
%TD*%
%TA.AperFunction,Conductor*%
%TO.N,Net-(J1-CC1)*%
G36*
X155545078Y-84786660D02*
G01*
X155548980Y-84794720D01*
X155549000Y-84795400D01*
X155549000Y-85277154D01*
X155545573Y-85285427D01*
X155544325Y-85286510D01*
X155152804Y-85580507D01*
X155144131Y-85582734D01*
X155138876Y-85580598D01*
X154754997Y-85300112D01*
X154750339Y-85292464D01*
X154750852Y-85286815D01*
X154910969Y-84827373D01*
X154916926Y-84820690D01*
X154921330Y-84819546D01*
X155536622Y-84783720D01*
X155545078Y-84786660D01*
G37*
%TD.AperFunction*%
%TD*%
%TA.AperFunction,Conductor*%
%TO.N,Net-(J1-CC2)*%
G36*
X156218714Y-83685076D02*
G01*
X156770091Y-83993354D01*
X156822735Y-84022788D01*
X156828283Y-84029816D01*
X156827237Y-84038710D01*
X156822735Y-84043212D01*
X156218716Y-84380922D01*
X156210817Y-84382203D01*
X155699511Y-84284811D01*
X155692025Y-84279897D01*
X155690000Y-84273318D01*
X155690000Y-83792681D01*
X155693427Y-83784408D01*
X155699509Y-83781188D01*
X156210819Y-83683796D01*
X156218714Y-83685076D01*
G37*
%TD.AperFunction*%
%TD*%
%TA.AperFunction,Conductor*%
%TO.N,Net-(J1-CC2)*%
G36*
X155152804Y-83485491D02*
G01*
X155544325Y-83779489D01*
X155548883Y-83787197D01*
X155549000Y-83788845D01*
X155549000Y-84270599D01*
X155545573Y-84278872D01*
X155537300Y-84282299D01*
X155536620Y-84282279D01*
X154921336Y-84246454D01*
X154913276Y-84242552D01*
X154910968Y-84238624D01*
X154750852Y-83779184D01*
X154751365Y-83770244D01*
X154754995Y-83765888D01*
X155138876Y-83485399D01*
X155147578Y-83483286D01*
X155152804Y-83485491D01*
G37*
%TD.AperFunction*%
%TD*%
%TA.AperFunction,Conductor*%
%TO.N,Net-(JP1-C)*%
G36*
X135215698Y-80916427D02*
G01*
X135218100Y-80919912D01*
X135446318Y-81428754D01*
X135446577Y-81437705D01*
X135443547Y-81442169D01*
X135072904Y-81781758D01*
X135064489Y-81784820D01*
X135057096Y-81781758D01*
X134686452Y-81442169D01*
X134682667Y-81434053D01*
X134683680Y-81428756D01*
X134911900Y-80919912D01*
X134918412Y-80913766D01*
X134922575Y-80913000D01*
X135207425Y-80913000D01*
X135215698Y-80916427D01*
G37*
%TD.AperFunction*%
%TD*%
%TA.AperFunction,Conductor*%
%TO.N,Net-(JP1-C)*%
G36*
X133471130Y-77951292D02*
G01*
X134002523Y-78388164D01*
X134006738Y-78396065D01*
X134004131Y-78404632D01*
X134003366Y-78405475D01*
X133800938Y-78607903D01*
X133799703Y-78608977D01*
X133471627Y-78856009D01*
X133462956Y-78858248D01*
X133458097Y-78856396D01*
X133087143Y-78608977D01*
X132730307Y-78370974D01*
X132725327Y-78363533D01*
X132727066Y-78354749D01*
X132731148Y-78350996D01*
X133458050Y-77950084D01*
X133466949Y-77949090D01*
X133471130Y-77951292D01*
G37*
%TD.AperFunction*%
%TD*%
%TA.AperFunction,Conductor*%
%TO.N,Net-(U1A--)*%
G36*
X136709933Y-90978417D02*
G01*
X136716743Y-90984232D01*
X136717498Y-90986093D01*
X136859975Y-91447486D01*
X136859142Y-91456402D01*
X136855096Y-91460797D01*
X136281922Y-91827069D01*
X136273106Y-91828636D01*
X136267349Y-91825483D01*
X136066957Y-91625091D01*
X136063530Y-91616818D01*
X136064115Y-91613163D01*
X136311359Y-90861210D01*
X136317198Y-90854424D01*
X136326086Y-90853739D01*
X136709933Y-90978417D01*
G37*
%TD.AperFunction*%
%TD*%
%TA.AperFunction,Conductor*%
%TO.N,Net-(U1A--)*%
G36*
X136677671Y-90109427D02*
G01*
X136678512Y-90110363D01*
X137024321Y-90539914D01*
X137026839Y-90548507D01*
X137024685Y-90554111D01*
X136721707Y-90972732D01*
X136714080Y-90977425D01*
X136705584Y-90975502D01*
X136320684Y-90709922D01*
X136315821Y-90702403D01*
X136315687Y-90699128D01*
X136330749Y-90548507D01*
X136373946Y-90116535D01*
X136378179Y-90108645D01*
X136385588Y-90106000D01*
X136669398Y-90106000D01*
X136677671Y-90109427D01*
G37*
%TD.AperFunction*%
%TD*%
%TA.AperFunction,Conductor*%
%TO.N,Net-(U1A--)*%
G36*
X136535433Y-88866384D02*
G01*
X136536122Y-88868046D01*
X136812347Y-89713624D01*
X136812258Y-89721151D01*
X136677755Y-90102194D01*
X136671770Y-90108855D01*
X136666722Y-90110000D01*
X136383278Y-90110000D01*
X136375005Y-90106573D01*
X136372245Y-90102194D01*
X136237741Y-89721151D01*
X136237652Y-89713624D01*
X136513878Y-88868046D01*
X136519705Y-88861246D01*
X136528633Y-88860557D01*
X136535433Y-88866384D01*
G37*
%TD.AperFunction*%
%TD*%
%TA.AperFunction,Conductor*%
%TO.N,Net-(U1A--)*%
G36*
X127516862Y-85472750D02*
G01*
X127975728Y-85666923D01*
X127982011Y-85673303D01*
X127982866Y-85677896D01*
X127973194Y-86250542D01*
X127969628Y-86258756D01*
X127961496Y-86262044D01*
X127677486Y-86262044D01*
X127669664Y-86259045D01*
X127244458Y-85876812D01*
X127240597Y-85868733D01*
X127242586Y-85861559D01*
X127502610Y-85476970D01*
X127510082Y-85472038D01*
X127516862Y-85472750D01*
G37*
%TD.AperFunction*%
%TD*%
%TA.AperFunction,Conductor*%
%TO.N,Net-(U1A--)*%
G36*
X127982679Y-75222861D02*
G01*
X127986771Y-75227757D01*
X128265086Y-75850887D01*
X128265331Y-75859838D01*
X128262676Y-75863931D01*
X128062225Y-76064382D01*
X128053952Y-76067809D01*
X128048680Y-76066554D01*
X127351986Y-75714881D01*
X127346144Y-75708094D01*
X127346438Y-75699983D01*
X127504879Y-75315154D01*
X127511197Y-75308810D01*
X127513517Y-75308115D01*
X127973915Y-75221032D01*
X127982679Y-75222861D01*
G37*
%TD.AperFunction*%
%TD*%
%TA.AperFunction,Conductor*%
%TO.N,Net-(U1A--)*%
G36*
X128062225Y-89795617D02*
G01*
X128262676Y-89996068D01*
X128266103Y-90004341D01*
X128265086Y-90009112D01*
X127986771Y-90632241D01*
X127980268Y-90638398D01*
X127973914Y-90638966D01*
X127513523Y-90551885D01*
X127506030Y-90546980D01*
X127504880Y-90544848D01*
X127346439Y-90160016D01*
X127346458Y-90151063D01*
X127351985Y-90145118D01*
X128048680Y-89793444D01*
X128057610Y-89792776D01*
X128062225Y-89795617D01*
G37*
%TD.AperFunction*%
%TD*%
%TA.AperFunction,Conductor*%
%TO.N,Net-(U1A--)*%
G36*
X127867244Y-90168680D02*
G01*
X128376089Y-90396900D01*
X128382234Y-90403411D01*
X128383000Y-90407574D01*
X128383000Y-90692425D01*
X128379573Y-90700698D01*
X128376088Y-90703100D01*
X127867245Y-90931318D01*
X127858294Y-90931577D01*
X127853830Y-90928547D01*
X127647272Y-90703100D01*
X127514240Y-90557902D01*
X127511179Y-90549489D01*
X127514240Y-90542097D01*
X127853831Y-90171451D01*
X127861946Y-90167667D01*
X127867244Y-90168680D01*
G37*
%TD.AperFunction*%
%TD*%
%TA.AperFunction,Conductor*%
%TO.N,Net-(U1A--)*%
G36*
X128155775Y-85115602D02*
G01*
X128162626Y-85118942D01*
X128363728Y-85320044D01*
X128367155Y-85328317D01*
X128363821Y-85336496D01*
X127975389Y-85733816D01*
X127967155Y-85737336D01*
X127961123Y-85735740D01*
X127518174Y-85477061D01*
X127512758Y-85469930D01*
X127513971Y-85461058D01*
X127514427Y-85460338D01*
X127778980Y-85075841D01*
X127786493Y-85070969D01*
X127790038Y-85070861D01*
X128155775Y-85115602D01*
G37*
%TD.AperFunction*%
%TD*%
%TA.AperFunction,Conductor*%
%TO.N,Net-(U1A--)*%
G36*
X127867151Y-80008446D02*
G01*
X128223577Y-80159302D01*
X128227290Y-80161804D01*
X128427944Y-80362458D01*
X128431371Y-80370731D01*
X128427944Y-80379004D01*
X128426377Y-80380318D01*
X127931673Y-80726348D01*
X127922930Y-80728282D01*
X127917566Y-80725822D01*
X127516871Y-80398530D01*
X127512631Y-80390643D01*
X127515211Y-80382068D01*
X127515622Y-80381591D01*
X127853958Y-80011328D01*
X127862066Y-80007534D01*
X127867151Y-80008446D01*
G37*
%TD.AperFunction*%
%TD*%
%TA.AperFunction,Conductor*%
%TO.N,Net-(R1-Pad2)*%
G36*
X133709244Y-88327680D02*
G01*
X134218089Y-88555900D01*
X134224234Y-88562411D01*
X134225000Y-88566574D01*
X134225000Y-88851425D01*
X134221573Y-88859698D01*
X134218088Y-88862100D01*
X133709245Y-89090318D01*
X133700294Y-89090577D01*
X133695830Y-89087547D01*
X133489272Y-88862100D01*
X133356240Y-88716902D01*
X133353179Y-88708489D01*
X133356240Y-88701097D01*
X133695831Y-88330451D01*
X133703946Y-88326667D01*
X133709244Y-88327680D01*
G37*
%TD.AperFunction*%
%TD*%
%TA.AperFunction,Conductor*%
%TO.N,Net-(R1-Pad2)*%
G36*
X134956360Y-88468537D02*
G01*
X134959999Y-88471511D01*
X135248586Y-88825896D01*
X135251153Y-88834475D01*
X135246902Y-88842356D01*
X135246871Y-88842381D01*
X134961999Y-89072756D01*
X134953411Y-89075294D01*
X134947735Y-89073103D01*
X134659793Y-88862505D01*
X134655138Y-88854855D01*
X134655000Y-88853061D01*
X134655000Y-88567605D01*
X134658427Y-88559332D01*
X134663212Y-88556436D01*
X134947443Y-88467730D01*
X134956360Y-88468537D01*
G37*
%TD.AperFunction*%
%TD*%
%TA.AperFunction,Conductor*%
%TO.N,Net-(R1-Pad2)*%
G36*
X135265433Y-88866384D02*
G01*
X135266122Y-88868046D01*
X135542347Y-89713624D01*
X135542258Y-89721151D01*
X135407755Y-90102194D01*
X135401770Y-90108855D01*
X135396722Y-90110000D01*
X135113278Y-90110000D01*
X135105005Y-90106573D01*
X135102245Y-90102194D01*
X134967741Y-89721151D01*
X134967652Y-89713624D01*
X135243878Y-88868046D01*
X135249705Y-88861246D01*
X135258633Y-88860557D01*
X135265433Y-88866384D01*
G37*
%TD.AperFunction*%
%TD*%
%TA.AperFunction,Conductor*%
%TO.N,Net-(R1-Pad2)*%
G36*
X135402685Y-90109427D02*
G01*
X135406054Y-90116536D01*
X135464312Y-90699128D01*
X135461725Y-90707701D01*
X135459315Y-90709922D01*
X135074415Y-90975502D01*
X135065659Y-90977380D01*
X135058292Y-90972732D01*
X134755313Y-90554111D01*
X134753238Y-90545400D01*
X134755675Y-90539917D01*
X135101488Y-90110363D01*
X135109346Y-90106068D01*
X135110602Y-90106000D01*
X135394412Y-90106000D01*
X135402685Y-90109427D01*
G37*
%TD.AperFunction*%
%TD*%
%TA.AperFunction,Conductor*%
%TO.N,/MIX_OUT*%
G36*
X132098550Y-76681676D02*
G01*
X132219179Y-76746015D01*
X132687505Y-76995802D01*
X132693192Y-77002719D01*
X132692322Y-77011631D01*
X132685405Y-77017318D01*
X132684383Y-77017580D01*
X131969340Y-77166397D01*
X131961150Y-77165100D01*
X131741178Y-77039368D01*
X131735696Y-77032287D01*
X131735284Y-77029210D01*
X131735284Y-76746015D01*
X131738711Y-76737742D01*
X131745178Y-76734455D01*
X132091243Y-76680440D01*
X132098550Y-76681676D01*
G37*
%TD.AperFunction*%
%TD*%
%TA.AperFunction,Conductor*%
%TO.N,/MIX_OUT*%
G36*
X130927280Y-76333709D02*
G01*
X131101044Y-76430432D01*
X131643990Y-76732655D01*
X131649552Y-76739672D01*
X131650000Y-76742877D01*
X131650000Y-77029122D01*
X131646573Y-77037395D01*
X131643990Y-77039345D01*
X130927280Y-77438290D01*
X130918385Y-77439319D01*
X130914602Y-77437451D01*
X130377324Y-77037395D01*
X130186601Y-76895382D01*
X130182013Y-76887695D01*
X130184206Y-76879012D01*
X130186599Y-76876618D01*
X130914603Y-76334547D01*
X130923285Y-76332355D01*
X130927280Y-76333709D01*
G37*
%TD.AperFunction*%
%TD*%
%TA.AperFunction,Conductor*%
%TO.N,/TO_OPAMP_6*%
G36*
X137807756Y-83920003D02*
G01*
X137808938Y-83922378D01*
X138094191Y-84707773D01*
X138094879Y-84712364D01*
X138072567Y-85148897D01*
X138068722Y-85156985D01*
X138060882Y-85160000D01*
X137778702Y-85160000D01*
X137770429Y-85156573D01*
X137768610Y-85154220D01*
X137591858Y-84852888D01*
X137590506Y-84844532D01*
X137618644Y-84712364D01*
X137786498Y-83923934D01*
X137791572Y-83916557D01*
X137800377Y-83914928D01*
X137807756Y-83920003D01*
G37*
%TD.AperFunction*%
%TD*%
%TA.AperFunction,Conductor*%
%TO.N,/TO_OPAMP_6*%
G36*
X133724607Y-86688840D02*
G01*
X134219063Y-86968640D01*
X134224575Y-86975696D01*
X134225000Y-86978822D01*
X134225000Y-87263525D01*
X134221573Y-87271798D01*
X134216948Y-87274642D01*
X133708711Y-87441421D01*
X133699782Y-87440744D01*
X133696436Y-87438208D01*
X133356496Y-87067181D01*
X133353434Y-87058766D01*
X133356773Y-87051082D01*
X133710499Y-86690825D01*
X133718738Y-86687323D01*
X133724607Y-86688840D01*
G37*
%TD.AperFunction*%
%TD*%
%TA.AperFunction,Conductor*%
%TO.N,/TO_OPAMP_7*%
G36*
X136674995Y-82613427D02*
G01*
X136677755Y-82617806D01*
X136812258Y-82998848D01*
X136812347Y-83006375D01*
X136536122Y-83851953D01*
X136530295Y-83858753D01*
X136521367Y-83859442D01*
X136514567Y-83853615D01*
X136513878Y-83851953D01*
X136237652Y-83006375D01*
X136237741Y-82998848D01*
X136372245Y-82617806D01*
X136378230Y-82611145D01*
X136383278Y-82610000D01*
X136666722Y-82610000D01*
X136674995Y-82613427D01*
G37*
%TD.AperFunction*%
%TD*%
%TA.AperFunction,Conductor*%
%TO.N,/TO_OPAMP_7*%
G36*
X136721707Y-81796267D02*
G01*
X137024685Y-82214887D01*
X137026760Y-82223598D01*
X137024321Y-82229084D01*
X136678512Y-82658637D01*
X136670654Y-82662932D01*
X136669398Y-82663000D01*
X136385588Y-82663000D01*
X136377315Y-82659573D01*
X136373946Y-82652464D01*
X136315687Y-82069871D01*
X136318274Y-82061298D01*
X136320679Y-82059081D01*
X136705584Y-81793496D01*
X136714340Y-81791619D01*
X136721707Y-81796267D01*
G37*
%TD.AperFunction*%
%TD*%
%TA.AperFunction,Conductor*%
%TO.N,/IN_SIG_4*%
G36*
X125449113Y-88196964D02*
G01*
X126644482Y-88696994D01*
X126650792Y-88703348D01*
X126651667Y-88707788D01*
X126651667Y-89092211D01*
X126648240Y-89100484D01*
X126644482Y-89103005D01*
X125449115Y-89603034D01*
X125440160Y-89603065D01*
X125434880Y-89598751D01*
X124971358Y-88906509D01*
X124969604Y-88897729D01*
X124971359Y-88893490D01*
X125098677Y-88703348D01*
X125434880Y-88201247D01*
X125442329Y-88196282D01*
X125449113Y-88196964D01*
G37*
%TD.AperFunction*%
%TD*%
%TA.AperFunction,Conductor*%
%TO.N,/IN_SIG_4*%
G36*
X127158110Y-88518277D02*
G01*
X127161689Y-88520928D01*
X127501758Y-88892096D01*
X127504820Y-88900511D01*
X127501758Y-88907904D01*
X127161689Y-89279071D01*
X127153573Y-89282856D01*
X127149168Y-89282200D01*
X126640806Y-89102755D01*
X126634145Y-89096770D01*
X126633000Y-89091722D01*
X126633000Y-88708277D01*
X126636427Y-88700004D01*
X126640803Y-88697245D01*
X127149168Y-88517799D01*
X127158110Y-88518277D01*
G37*
%TD.AperFunction*%
%TD*%
%TA.AperFunction,Conductor*%
%TO.N,/IN_SIG_3*%
G36*
X125449113Y-83116964D02*
G01*
X126644482Y-83616994D01*
X126650792Y-83623348D01*
X126651667Y-83627788D01*
X126651667Y-84012211D01*
X126648240Y-84020484D01*
X126644482Y-84023005D01*
X125449115Y-84523034D01*
X125440160Y-84523065D01*
X125434880Y-84518751D01*
X124971358Y-83826509D01*
X124969604Y-83817729D01*
X124971359Y-83813490D01*
X125098677Y-83623348D01*
X125434880Y-83121247D01*
X125442329Y-83116282D01*
X125449113Y-83116964D01*
G37*
%TD.AperFunction*%
%TD*%
%TA.AperFunction,Conductor*%
%TO.N,/IN_SIG_3*%
G36*
X127158110Y-83438277D02*
G01*
X127161689Y-83440928D01*
X127501758Y-83812096D01*
X127504820Y-83820511D01*
X127501758Y-83827904D01*
X127161689Y-84199071D01*
X127153573Y-84202856D01*
X127149168Y-84202200D01*
X126640806Y-84022755D01*
X126634145Y-84016770D01*
X126633000Y-84011722D01*
X126633000Y-83628277D01*
X126636427Y-83620004D01*
X126640803Y-83617245D01*
X127149168Y-83437799D01*
X127158110Y-83438277D01*
G37*
%TD.AperFunction*%
%TD*%
%TA.AperFunction,Conductor*%
%TO.N,/IN_SIG_1*%
G36*
X127162169Y-73281452D02*
G01*
X127501758Y-73652096D01*
X127504820Y-73660511D01*
X127501758Y-73667904D01*
X127162169Y-74038547D01*
X127154053Y-74042332D01*
X127148754Y-74041318D01*
X126639912Y-73813100D01*
X126633766Y-73806588D01*
X126633000Y-73802425D01*
X126633000Y-73517574D01*
X126636427Y-73509301D01*
X126639908Y-73506901D01*
X127148755Y-73278680D01*
X127157705Y-73278422D01*
X127162169Y-73281452D01*
G37*
%TD.AperFunction*%
%TD*%
%TA.AperFunction,Conductor*%
%TO.N,/IN_SIG_1*%
G36*
X125826194Y-72816748D02*
G01*
X126663738Y-73506490D01*
X126667946Y-73514395D01*
X126668000Y-73515522D01*
X126668000Y-73804477D01*
X126664573Y-73812750D01*
X126663738Y-73813509D01*
X125826194Y-74503251D01*
X125817629Y-74505865D01*
X125810488Y-74502497D01*
X124975286Y-73668276D01*
X124971855Y-73660007D01*
X124975276Y-73651733D01*
X125810490Y-72817501D01*
X125818763Y-72814080D01*
X125826194Y-72816748D01*
G37*
%TD.AperFunction*%
%TD*%
%TA.AperFunction,Conductor*%
%TO.N,/IN_SIG_2*%
G36*
X127158110Y-78358277D02*
G01*
X127161689Y-78360928D01*
X127501758Y-78732096D01*
X127504820Y-78740511D01*
X127501758Y-78747904D01*
X127161689Y-79119071D01*
X127153573Y-79122856D01*
X127149168Y-79122200D01*
X126640806Y-78942755D01*
X126634145Y-78936770D01*
X126633000Y-78931722D01*
X126633000Y-78548277D01*
X126636427Y-78540004D01*
X126640803Y-78537245D01*
X127149168Y-78357799D01*
X127158110Y-78358277D01*
G37*
%TD.AperFunction*%
%TD*%
%TA.AperFunction,Conductor*%
%TO.N,/IN_SIG_2*%
G36*
X125449113Y-78036964D02*
G01*
X126644482Y-78536994D01*
X126650792Y-78543348D01*
X126651667Y-78547788D01*
X126651667Y-78932211D01*
X126648240Y-78940484D01*
X126644482Y-78943005D01*
X125449115Y-79443034D01*
X125440160Y-79443065D01*
X125434880Y-79438751D01*
X124971358Y-78746509D01*
X124969604Y-78737729D01*
X124971359Y-78733490D01*
X125098677Y-78543348D01*
X125434880Y-78041247D01*
X125442329Y-78036282D01*
X125449113Y-78036964D01*
G37*
%TD.AperFunction*%
%TD*%
M02*
