%TF.GenerationSoftware,KiCad,Pcbnew,9.0.3-9.0.3-0~ubuntu22.04.1*%
%TF.CreationDate,2025-07-21T05:59:17-07:00*%
%TF.ProjectId,rotary-switch-shift,726f7461-7279-42d7-9377-697463682d73,rev?*%
%TF.SameCoordinates,Original*%
%TF.FileFunction,Copper,L1,Top*%
%TF.FilePolarity,Positive*%
%FSLAX46Y46*%
G04 Gerber Fmt 4.6, Leading zero omitted, Abs format (unit mm)*
G04 Created by KiCad (PCBNEW 9.0.3-9.0.3-0~ubuntu22.04.1) date 2025-07-21 05:59:17*
%MOMM*%
%LPD*%
G01*
G04 APERTURE LIST*
G04 Aperture macros list*
%AMRoundRect*
0 Rectangle with rounded corners*
0 $1 Rounding radius*
0 $2 $3 $4 $5 $6 $7 $8 $9 X,Y pos of 4 corners*
0 Add a 4 corners polygon primitive as box body*
4,1,4,$2,$3,$4,$5,$6,$7,$8,$9,$2,$3,0*
0 Add four circle primitives for the rounded corners*
1,1,$1+$1,$2,$3*
1,1,$1+$1,$4,$5*
1,1,$1+$1,$6,$7*
1,1,$1+$1,$8,$9*
0 Add four rect primitives between the rounded corners*
20,1,$1+$1,$2,$3,$4,$5,0*
20,1,$1+$1,$4,$5,$6,$7,0*
20,1,$1+$1,$6,$7,$8,$9,0*
20,1,$1+$1,$8,$9,$2,$3,0*%
%AMRotRect*
0 Rectangle, with rotation*
0 The origin of the aperture is its center*
0 $1 length*
0 $2 width*
0 $3 Rotation angle, in degrees counterclockwise*
0 Add horizontal line*
21,1,$1,$2,0,0,$3*%
G04 Aperture macros list end*
%TA.AperFunction,SMDPad,CuDef*%
%ADD10RoundRect,0.250000X-0.262500X-0.450000X0.262500X-0.450000X0.262500X0.450000X-0.262500X0.450000X0*%
%TD*%
%TA.AperFunction,SMDPad,CuDef*%
%ADD11RoundRect,0.062500X0.203293X-0.291682X0.291682X-0.203293X-0.203293X0.291682X-0.291682X0.203293X0*%
%TD*%
%TA.AperFunction,SMDPad,CuDef*%
%ADD12RoundRect,0.062500X-0.203293X-0.291682X0.291682X0.203293X0.203293X0.291682X-0.291682X-0.203293X0*%
%TD*%
%TA.AperFunction,HeatsinkPad*%
%ADD13RotRect,1.000000X2.000000X45.000000*%
%TD*%
%TA.AperFunction,SMDPad,CuDef*%
%ADD14RoundRect,0.250000X0.503814X0.132583X0.132583X0.503814X-0.503814X-0.132583X-0.132583X-0.503814X0*%
%TD*%
%TA.AperFunction,SMDPad,CuDef*%
%ADD15RoundRect,0.250000X-0.503814X-0.132583X-0.132583X-0.503814X0.503814X0.132583X0.132583X0.503814X0*%
%TD*%
%TA.AperFunction,SMDPad,CuDef*%
%ADD16RoundRect,0.250000X-0.132583X0.503814X-0.503814X0.132583X0.132583X-0.503814X0.503814X-0.132583X0*%
%TD*%
%TA.AperFunction,SMDPad,CuDef*%
%ADD17RoundRect,0.250000X-0.450000X0.262500X-0.450000X-0.262500X0.450000X-0.262500X0.450000X0.262500X0*%
%TD*%
%TA.AperFunction,SMDPad,CuDef*%
%ADD18RoundRect,0.250000X0.132583X-0.503814X0.503814X-0.132583X-0.132583X0.503814X-0.503814X0.132583X0*%
%TD*%
%TA.AperFunction,SMDPad,CuDef*%
%ADD19RoundRect,0.250000X0.450000X-0.262500X0.450000X0.262500X-0.450000X0.262500X-0.450000X-0.262500X0*%
%TD*%
%TA.AperFunction,ComponentPad*%
%ADD20R,1.700000X1.700000*%
%TD*%
%TA.AperFunction,ComponentPad*%
%ADD21C,1.700000*%
%TD*%
%TA.AperFunction,SMDPad,CuDef*%
%ADD22RoundRect,0.250000X-0.512652X-0.159099X-0.159099X-0.512652X0.512652X0.159099X0.159099X0.512652X0*%
%TD*%
%TA.AperFunction,ComponentPad*%
%ADD23C,1.600000*%
%TD*%
%TA.AperFunction,ViaPad*%
%ADD24C,0.600000*%
%TD*%
%TA.AperFunction,ViaPad*%
%ADD25C,0.800000*%
%TD*%
%TA.AperFunction,ViaPad*%
%ADD26C,0.700000*%
%TD*%
%TA.AperFunction,Conductor*%
%ADD27C,0.250000*%
%TD*%
%TA.AperFunction,Conductor*%
%ADD28C,0.200000*%
%TD*%
G04 APERTURE END LIST*
D10*
%TO.P,R2,1*%
%TO.N,Net-(U1-D1)*%
X147087500Y-75000000D03*
%TO.P,R2,2*%
%TO.N,+3.3V*%
X148912500Y-75000000D03*
%TD*%
D11*
%TO.P,U1,1,~{PL}*%
%TO.N,/GP_PL*%
X138379981Y-70233534D03*
D12*
%TO.P,U1,2,CP*%
%TO.N,/GP_CP*%
X138026427Y-71205806D03*
%TO.P,U1,3,D4*%
%TO.N,Net-(U1-D4)*%
X138379981Y-71559359D03*
%TO.P,U1,4,D5*%
%TO.N,Net-(U1-D5)*%
X138733534Y-71912913D03*
%TO.P,U1,5,D6*%
%TO.N,Net-(U1-D6)*%
X139087087Y-72266466D03*
%TO.P,U1,6,D7*%
%TO.N,Net-(U1-D7)*%
X139440641Y-72620019D03*
%TO.P,U1,7,~{Q7}*%
%TO.N,unconnected-(U1-~{Q7}-Pad7)*%
X139794194Y-72973573D03*
D11*
%TO.P,U1,8,GND*%
%TO.N,GND*%
X140766466Y-72620019D03*
%TO.P,U1,9,Q7*%
%TO.N,/GP_Q7*%
X141120019Y-72266466D03*
D12*
%TO.P,U1,10,DS*%
%TO.N,GND*%
X141473573Y-71294194D03*
%TO.P,U1,11,D0*%
%TO.N,Net-(U1-D0)*%
X141120019Y-70940641D03*
%TO.P,U1,12,D1*%
%TO.N,Net-(U1-D1)*%
X140766466Y-70587087D03*
%TO.P,U1,13,D2*%
%TO.N,Net-(U1-D2)*%
X140412913Y-70233534D03*
%TO.P,U1,14,D3*%
%TO.N,Net-(U1-D3)*%
X140059359Y-69879981D03*
%TO.P,U1,15,~{CE}*%
%TO.N,GND*%
X139705806Y-69526427D03*
D11*
%TO.P,U1,16,VCC*%
%TO.N,+3.3V*%
X138733534Y-69879981D03*
D13*
%TO.P,U1,17*%
%TO.N,N/C*%
X139750000Y-71250000D03*
%TD*%
D14*
%TO.P,R5,1*%
%TO.N,Net-(U1-D4)*%
X135145235Y-68645235D03*
%TO.P,R5,2*%
%TO.N,+3.3V*%
X133854765Y-67354765D03*
%TD*%
D15*
%TO.P,R1,1*%
%TO.N,Net-(U1-D0)*%
X144854765Y-79854765D03*
%TO.P,R1,2*%
%TO.N,+3.3V*%
X146145235Y-81145235D03*
%TD*%
D16*
%TO.P,R7,1*%
%TO.N,Net-(U1-D6)*%
X135145235Y-79854765D03*
%TO.P,R7,2*%
%TO.N,+3.3V*%
X133854765Y-81145235D03*
%TD*%
D17*
%TO.P,R6,1*%
%TO.N,Net-(U1-D5)*%
X132000000Y-74087500D03*
%TO.P,R6,2*%
%TO.N,+3.3V*%
X132000000Y-75912500D03*
%TD*%
D18*
%TO.P,R3,1*%
%TO.N,Net-(U1-D2)*%
X145104765Y-71145235D03*
%TO.P,R3,2*%
%TO.N,+3.3V*%
X146395235Y-69854765D03*
%TD*%
D19*
%TO.P,R4,1*%
%TO.N,Net-(U1-D3)*%
X141000000Y-67162500D03*
%TO.P,R4,2*%
%TO.N,+3.3V*%
X141000000Y-65337500D03*
%TD*%
D20*
%TO.P,J1,1,Pin_1*%
%TO.N,GND*%
X134920000Y-61000000D03*
D21*
%TO.P,J1,2,Pin_2*%
%TO.N,/GP_CP*%
X137460000Y-61000000D03*
%TO.P,J1,3,Pin_3*%
%TO.N,/GP_PL*%
X140000000Y-61000000D03*
%TO.P,J1,4,Pin_4*%
%TO.N,/GP_Q7*%
X142540000Y-61000000D03*
%TO.P,J1,5,Pin_5*%
%TO.N,+3.3V*%
X145080000Y-61000000D03*
%TD*%
D22*
%TO.P,C1,1*%
%TO.N,+3.3V*%
X132328249Y-68828249D03*
%TO.P,C1,2*%
%TO.N,GND*%
X133671751Y-70171751D03*
%TD*%
D10*
%TO.P,R8,1*%
%TO.N,Net-(U1-D7)*%
X139087500Y-82500000D03*
%TO.P,R8,2*%
%TO.N,+3.3V*%
X140912500Y-82500000D03*
%TD*%
D23*
%TO.P,SW1,1*%
%TO.N,Net-(U1-D0)*%
X143061467Y-82391036D03*
%TO.P,SW1,2*%
%TO.N,Net-(U1-D1)*%
X147391036Y-78061467D03*
%TO.P,SW1,3*%
%TO.N,Net-(U1-D2)*%
X147391036Y-71938533D03*
%TO.P,SW1,4*%
%TO.N,Net-(U1-D3)*%
X143061467Y-67608964D03*
%TO.P,SW1,5*%
%TO.N,Net-(U1-D4)*%
X136938533Y-67608964D03*
%TO.P,SW1,6*%
%TO.N,Net-(U1-D5)*%
X132608964Y-71938533D03*
%TO.P,SW1,7*%
%TO.N,Net-(U1-D6)*%
X132608964Y-78061467D03*
%TO.P,SW1,8*%
%TO.N,Net-(U1-D7)*%
X136938533Y-82391036D03*
%TO.P,SW1,A,Common*%
%TO.N,GND*%
X142750000Y-75000000D03*
%TO.P,SW1,B,Common*%
X140000000Y-75000000D03*
%TO.P,SW1,C,Common*%
X137250000Y-75000000D03*
%TD*%
D24*
%TO.N,GND*%
X148000000Y-68000000D03*
D25*
X142163880Y-72036120D03*
X140950000Y-68325000D03*
D24*
X137000000Y-78000000D03*
D25*
X141250000Y-73750000D03*
D24*
X142000000Y-63500000D03*
X132000000Y-63000000D03*
D25*
X134500000Y-71000000D03*
D24*
X148000000Y-63000000D03*
X133750000Y-76000000D03*
X140500000Y-80500000D03*
X143500000Y-77000000D03*
X136000000Y-64000000D03*
X132000000Y-66000000D03*
D25*
%TO.N,+3.3V*%
X139822012Y-68274004D03*
X137250000Y-66000000D03*
D26*
%TO.N,/GP_Q7*%
X144102298Y-70075000D03*
X142885804Y-72728096D03*
%TD*%
D27*
%TO.N,GND*%
X140950000Y-68325000D02*
X140900663Y-68374337D01*
X140857896Y-68374337D02*
X139705806Y-69526427D01*
X140766466Y-72620019D02*
X140766466Y-73266466D01*
X140900663Y-68374337D02*
X140857896Y-68374337D01*
X133671751Y-70171751D02*
X134500000Y-71000000D01*
X140766466Y-73266466D02*
X141250000Y-73750000D01*
D28*
X142163880Y-72036120D02*
X141473573Y-71345812D01*
X141473573Y-71345812D02*
X141473573Y-71294194D01*
D27*
%TO.N,+3.3V*%
X131432964Y-78723434D02*
X131432964Y-75345464D01*
X130924000Y-74836500D02*
X132000000Y-75912500D01*
X148912500Y-78377970D02*
X148912500Y-75000000D01*
X145500000Y-68959530D02*
X146395235Y-69854765D01*
X139822012Y-68274004D02*
X139822012Y-66515488D01*
X133854765Y-67354765D02*
X130924000Y-70285530D01*
X139836500Y-83576000D02*
X143714470Y-83576000D01*
X133854765Y-81145235D02*
X136285530Y-83576000D01*
X147111132Y-69854765D02*
X146395235Y-69854765D01*
X139822012Y-66515488D02*
X141000000Y-65337500D01*
X145500000Y-64275000D02*
X145500000Y-68959530D01*
X145500000Y-61420000D02*
X145080000Y-61000000D01*
X130924000Y-70285530D02*
X130924000Y-74836500D01*
X139822012Y-68274004D02*
X139548008Y-68548008D01*
X135209530Y-66000000D02*
X133854765Y-67354765D01*
X133854765Y-81145235D02*
X131432964Y-78723434D01*
X148912500Y-75000000D02*
X148912500Y-71656133D01*
X148912500Y-71656133D02*
X147111132Y-69854765D01*
X145500000Y-64275000D02*
X145500000Y-61420000D01*
X143714470Y-83576000D02*
X146145235Y-81145235D01*
X139548008Y-68548008D02*
X139250000Y-68548008D01*
X138733534Y-69064474D02*
X138733534Y-69879981D01*
X139250000Y-68548008D02*
X138733534Y-69064474D01*
X131168750Y-75081250D02*
X132000000Y-75912500D01*
X139836500Y-83576000D02*
X140912500Y-82500000D01*
X146145235Y-81145235D02*
X148912500Y-78377970D01*
X131432964Y-75345464D02*
X131168750Y-75081250D01*
X136285530Y-83576000D02*
X139836500Y-83576000D01*
X137250000Y-66000000D02*
X135209530Y-66000000D01*
%TO.N,/GP_Q7*%
X142540000Y-61000000D02*
X144750000Y-63210000D01*
X142885804Y-72728096D02*
X142598491Y-73015409D01*
X142598491Y-73015409D02*
X141868962Y-73015409D01*
X144750000Y-69427298D02*
X144102298Y-70075000D01*
X144750000Y-63210000D02*
X144750000Y-69427298D01*
X141868962Y-73015409D02*
X141120019Y-72266466D01*
%TO.N,/GP_CP*%
X137460000Y-61000000D02*
X138250000Y-61790000D01*
X137404938Y-68734964D02*
X137404938Y-70584317D01*
X138250000Y-67889902D02*
X137404938Y-68734964D01*
X138250000Y-61790000D02*
X138250000Y-67889902D01*
X137404938Y-70584317D02*
X138026427Y-71205806D01*
%TO.N,/GP_PL*%
X138233534Y-70233534D02*
X138379981Y-70233534D01*
X139250000Y-61750000D02*
X139250000Y-67750000D01*
X138000000Y-69000000D02*
X138000000Y-70000000D01*
X139250000Y-67750000D02*
X138000000Y-69000000D01*
X138000000Y-70000000D02*
X138233534Y-70233534D01*
X140000000Y-61000000D02*
X139250000Y-61750000D01*
%TO.N,Net-(U1-D0)*%
X141610660Y-70450000D02*
X141120019Y-70940641D01*
X144854765Y-79854765D02*
X144854765Y-80597738D01*
X144854765Y-80597738D02*
X143061467Y-82391036D01*
X142212190Y-70450000D02*
X141610660Y-70450000D01*
X144854765Y-73092575D02*
X142212190Y-70450000D01*
X144854765Y-79854765D02*
X144854765Y-73092575D01*
%TO.N,Net-(U1-D1)*%
X147087500Y-75000000D02*
X147087500Y-77757931D01*
X142400000Y-70000000D02*
X147087500Y-74687500D01*
X141353553Y-70000000D02*
X142400000Y-70000000D01*
X140766466Y-70587087D02*
X141353553Y-70000000D01*
X147087500Y-77757931D02*
X147391036Y-78061467D01*
X147087500Y-74687500D02*
X147087500Y-75000000D01*
%TO.N,Net-(U1-D2)*%
X145898063Y-71938533D02*
X145104765Y-71145235D01*
X143822289Y-70751000D02*
X144382307Y-70751000D01*
X147391036Y-71938533D02*
X145898063Y-71938533D01*
X144382307Y-70751000D02*
X144383307Y-70750000D01*
X144383307Y-70750000D02*
X144709530Y-70750000D01*
X140412913Y-70233534D02*
X141096447Y-69550000D01*
X144709530Y-70750000D02*
X145104765Y-71145235D01*
X141096447Y-69550000D02*
X142621289Y-69550000D01*
X142621289Y-69550000D02*
X143822289Y-70751000D01*
%TO.N,Net-(U1-D3)*%
X142615003Y-67162500D02*
X143061467Y-67608964D01*
X142250000Y-68200000D02*
X142470431Y-68200000D01*
X141350000Y-69100000D02*
X142250000Y-68200000D01*
X140128656Y-69879981D02*
X140908637Y-69100000D01*
X140059359Y-69879981D02*
X140120019Y-69879981D01*
X140908637Y-69100000D02*
X141350000Y-69100000D01*
X140059359Y-69879981D02*
X140128656Y-69879981D01*
X141000000Y-67162500D02*
X142615003Y-67162500D01*
X143250000Y-67420431D02*
X143061467Y-67608964D01*
X142470431Y-68200000D02*
X143061467Y-67608964D01*
%TO.N,Net-(U1-D4)*%
X138052128Y-71887212D02*
X136887212Y-71887212D01*
X136181506Y-67608964D02*
X135145235Y-68645235D01*
X138379981Y-71559359D02*
X138052128Y-71887212D01*
X136887212Y-71887212D02*
X135145235Y-70145235D01*
X135145235Y-70145235D02*
X135145235Y-68645235D01*
X136938533Y-67608964D02*
X136181506Y-67608964D01*
%TO.N,Net-(U1-D5)*%
X137907915Y-72738532D02*
X134511468Y-72738532D01*
X132000000Y-74087500D02*
X132000000Y-72547497D01*
X134511468Y-72738532D02*
X133162500Y-74087500D01*
X138733534Y-71912913D02*
X137907915Y-72738532D01*
X133162500Y-74087500D02*
X132000000Y-74087500D01*
X132000000Y-72547497D02*
X132608964Y-71938533D01*
%TO.N,Net-(U1-D6)*%
X139087087Y-72266466D02*
X138103553Y-73250000D01*
X135500000Y-73250000D02*
X135000000Y-73750000D01*
X135000000Y-79709530D02*
X135145235Y-79854765D01*
X135145235Y-79854765D02*
X134402262Y-79854765D01*
X135000000Y-73750000D02*
X135000000Y-79709530D01*
X138103553Y-73250000D02*
X135500000Y-73250000D01*
X134402262Y-79854765D02*
X132608964Y-78061467D01*
%TO.N,Net-(U1-D7)*%
X136938533Y-82391036D02*
X138978536Y-82391036D01*
X138978536Y-82391036D02*
X139087500Y-82500000D01*
X139440641Y-72620019D02*
X138824000Y-73236660D01*
X138824000Y-82236500D02*
X139087500Y-82500000D01*
X138824000Y-73236660D02*
X138824000Y-82236500D01*
%TD*%
%TA.AperFunction,Conductor*%
%TO.N,GND*%
G36*
X136494730Y-73895185D02*
G01*
X136515372Y-73911819D01*
X137141002Y-74537449D01*
X137066657Y-74557370D01*
X136958343Y-74619905D01*
X136869905Y-74708343D01*
X136807370Y-74816657D01*
X136787449Y-74891002D01*
X136170524Y-74274077D01*
X136170523Y-74274077D01*
X136138143Y-74318644D01*
X136045244Y-74500968D01*
X135982009Y-74695582D01*
X135950000Y-74897682D01*
X135950000Y-75102317D01*
X135982009Y-75304417D01*
X136045244Y-75499031D01*
X136138141Y-75681350D01*
X136138147Y-75681359D01*
X136170523Y-75725921D01*
X136170524Y-75725922D01*
X136787449Y-75108997D01*
X136807370Y-75183343D01*
X136869905Y-75291657D01*
X136958343Y-75380095D01*
X137066657Y-75442630D01*
X137141001Y-75462550D01*
X136524076Y-76079474D01*
X136568650Y-76111859D01*
X136750968Y-76204755D01*
X136945582Y-76267990D01*
X137147683Y-76300000D01*
X137352317Y-76300000D01*
X137554417Y-76267990D01*
X137749031Y-76204755D01*
X137931349Y-76111859D01*
X138001614Y-76060809D01*
X138067420Y-76037329D01*
X138135474Y-76053154D01*
X138184169Y-76103260D01*
X138198500Y-76161127D01*
X138198500Y-81531055D01*
X138178815Y-81598094D01*
X138126011Y-81643849D01*
X138056853Y-81653793D01*
X137993297Y-81624768D01*
X137974182Y-81603940D01*
X137930504Y-81543823D01*
X137930500Y-81543818D01*
X137785746Y-81399064D01*
X137620146Y-81278751D01*
X137620145Y-81278750D01*
X137620143Y-81278749D01*
X137563186Y-81249727D01*
X137437756Y-81185817D01*
X137243067Y-81122558D01*
X137068528Y-81094914D01*
X137040885Y-81090536D01*
X136836181Y-81090536D01*
X136811862Y-81094387D01*
X136633998Y-81122558D01*
X136439309Y-81185817D01*
X136256919Y-81278751D01*
X136091319Y-81399064D01*
X135946561Y-81543822D01*
X135826248Y-81709422D01*
X135733308Y-81891824D01*
X135731877Y-81895282D01*
X135688038Y-81949687D01*
X135621745Y-81971754D01*
X135554045Y-81954477D01*
X135529634Y-81935514D01*
X135129386Y-81535266D01*
X135095901Y-81473943D01*
X135093411Y-81438355D01*
X135094142Y-81428555D01*
X135109079Y-81365538D01*
X135109079Y-81228457D01*
X135109423Y-81223849D01*
X135120172Y-81195298D01*
X135128764Y-81166040D01*
X135132363Y-81162921D01*
X135134043Y-81158460D01*
X135158526Y-81140250D01*
X135181568Y-81120285D01*
X135186943Y-81119115D01*
X135190107Y-81116763D01*
X135201266Y-81115999D01*
X135233079Y-81109079D01*
X135365535Y-81109079D01*
X135365538Y-81109079D01*
X135471727Y-81083911D01*
X135536248Y-81068619D01*
X135536249Y-81068618D01*
X135536251Y-81068618D01*
X135693032Y-80989881D01*
X135773139Y-80924624D01*
X136215093Y-80482669D01*
X136280351Y-80402562D01*
X136359088Y-80245781D01*
X136399549Y-80075068D01*
X136399549Y-79899627D01*
X136379031Y-79813057D01*
X136359089Y-79728916D01*
X136334030Y-79679019D01*
X136280351Y-79572133D01*
X136215094Y-79492026D01*
X135661819Y-78938751D01*
X135628334Y-78877428D01*
X135625500Y-78851070D01*
X135625500Y-74060452D01*
X135645185Y-73993413D01*
X135661819Y-73972771D01*
X135722771Y-73911819D01*
X135784094Y-73878334D01*
X135810452Y-73875500D01*
X136427691Y-73875500D01*
X136494730Y-73895185D01*
G37*
%TD.AperFunction*%
%TA.AperFunction,Conductor*%
G36*
X143829474Y-75725921D02*
G01*
X143861859Y-75681349D01*
X143954755Y-75499031D01*
X143987334Y-75398765D01*
X144026772Y-75341090D01*
X144091131Y-75313892D01*
X144159977Y-75325807D01*
X144211453Y-75373051D01*
X144229265Y-75437084D01*
X144229265Y-78996305D01*
X144209580Y-79063344D01*
X144192946Y-79083986D01*
X143784914Y-79492018D01*
X143784895Y-79492039D01*
X143719654Y-79572125D01*
X143719650Y-79572131D01*
X143640910Y-79728916D01*
X143600452Y-79899619D01*
X143600451Y-79899630D01*
X143600451Y-80075064D01*
X143600452Y-80075075D01*
X143640910Y-80245778D01*
X143640912Y-80245781D01*
X143719649Y-80402562D01*
X143769636Y-80463924D01*
X143784902Y-80482664D01*
X143784908Y-80482671D01*
X143847393Y-80545156D01*
X143880878Y-80606479D01*
X143875894Y-80676171D01*
X143847393Y-80720518D01*
X143479094Y-81088817D01*
X143417771Y-81122302D01*
X143371051Y-81121812D01*
X143370813Y-81123321D01*
X143225926Y-81100373D01*
X143163819Y-81090536D01*
X142959115Y-81090536D01*
X142934796Y-81094387D01*
X142756932Y-81122558D01*
X142562243Y-81185817D01*
X142379853Y-81278751D01*
X142214253Y-81399064D01*
X142069499Y-81543818D01*
X142069495Y-81543823D01*
X142002499Y-81636036D01*
X141947169Y-81678702D01*
X141877556Y-81684681D01*
X141815761Y-81652075D01*
X141796642Y-81628248D01*
X141778043Y-81598094D01*
X141767712Y-81581344D01*
X141643656Y-81457288D01*
X141494334Y-81365186D01*
X141327797Y-81310001D01*
X141327795Y-81310000D01*
X141225010Y-81299500D01*
X140599998Y-81299500D01*
X140599980Y-81299501D01*
X140497203Y-81310000D01*
X140497200Y-81310001D01*
X140330668Y-81365185D01*
X140330663Y-81365187D01*
X140181342Y-81457289D01*
X140087681Y-81550951D01*
X140026358Y-81584436D01*
X139956666Y-81579452D01*
X139912319Y-81550951D01*
X139818657Y-81457289D01*
X139818656Y-81457288D01*
X139669334Y-81365186D01*
X139534496Y-81320505D01*
X139477051Y-81280732D01*
X139450228Y-81216216D01*
X139449500Y-81202799D01*
X139449500Y-76358704D01*
X139469185Y-76291665D01*
X139521989Y-76245910D01*
X139591147Y-76235966D01*
X139611819Y-76240773D01*
X139695582Y-76267990D01*
X139897683Y-76300000D01*
X140102317Y-76300000D01*
X140304417Y-76267990D01*
X140499031Y-76204755D01*
X140681349Y-76111859D01*
X140725921Y-76079474D01*
X140108997Y-75462550D01*
X140183343Y-75442630D01*
X140291657Y-75380095D01*
X140380095Y-75291657D01*
X140442630Y-75183343D01*
X140462550Y-75108998D01*
X141079474Y-75725922D01*
X141079474Y-75725921D01*
X141111859Y-75681349D01*
X141204755Y-75499031D01*
X141257069Y-75338028D01*
X141296507Y-75280353D01*
X141360866Y-75253155D01*
X141429712Y-75265070D01*
X141481188Y-75312314D01*
X141492931Y-75338028D01*
X141545244Y-75499031D01*
X141638141Y-75681350D01*
X141638147Y-75681359D01*
X141670523Y-75725921D01*
X141670524Y-75725922D01*
X142287449Y-75108997D01*
X142307370Y-75183343D01*
X142369905Y-75291657D01*
X142458343Y-75380095D01*
X142566657Y-75442630D01*
X142641002Y-75462550D01*
X142024076Y-76079474D01*
X142068650Y-76111859D01*
X142250968Y-76204755D01*
X142445582Y-76267990D01*
X142647683Y-76300000D01*
X142852317Y-76300000D01*
X143054417Y-76267990D01*
X143249031Y-76204755D01*
X143431349Y-76111859D01*
X143475921Y-76079474D01*
X142858997Y-75462550D01*
X142933343Y-75442630D01*
X143041657Y-75380095D01*
X143130095Y-75291657D01*
X143192630Y-75183343D01*
X143212550Y-75108997D01*
X143829474Y-75725921D01*
G37*
%TD.AperFunction*%
%TA.AperFunction,Conductor*%
G36*
X134293834Y-73943269D02*
G01*
X134349767Y-73985141D01*
X134374184Y-74050605D01*
X134374500Y-74059451D01*
X134374500Y-78643050D01*
X134354815Y-78710089D01*
X134302011Y-78755844D01*
X134232853Y-78765788D01*
X134169297Y-78736763D01*
X134162819Y-78730731D01*
X133911182Y-78479095D01*
X133877697Y-78417772D01*
X133878205Y-78371055D01*
X133876679Y-78370814D01*
X133909464Y-78163818D01*
X133909464Y-77959115D01*
X133877441Y-77756932D01*
X133814182Y-77562243D01*
X133737714Y-77412168D01*
X133721251Y-77379857D01*
X133675204Y-77316478D01*
X133600935Y-77214253D01*
X133456177Y-77069495D01*
X133290577Y-76949182D01*
X133290576Y-76949181D01*
X133290574Y-76949180D01*
X133204594Y-76905370D01*
X133108186Y-76856248D01*
X133108183Y-76856247D01*
X133090754Y-76850584D01*
X133033081Y-76811146D01*
X133005883Y-76746788D01*
X133017798Y-76677941D01*
X133038266Y-76649344D01*
X133038234Y-76649319D01*
X133038774Y-76648636D01*
X133041398Y-76644969D01*
X133042712Y-76643656D01*
X133134814Y-76494334D01*
X133189999Y-76327797D01*
X133200500Y-76225009D01*
X133200499Y-75599992D01*
X133196441Y-75560271D01*
X133189999Y-75497203D01*
X133189998Y-75497200D01*
X133162359Y-75413792D01*
X133134814Y-75330666D01*
X133042712Y-75181344D01*
X132949049Y-75087681D01*
X132946954Y-75083845D01*
X132943269Y-75081493D01*
X132930354Y-75053445D01*
X132915564Y-75026358D01*
X132915875Y-75021998D01*
X132914047Y-75018027D01*
X132918346Y-74987451D01*
X132920548Y-74956666D01*
X132923339Y-74951945D01*
X132923776Y-74948838D01*
X132933389Y-74934946D01*
X132942766Y-74919088D01*
X132945778Y-74915589D01*
X133042712Y-74818656D01*
X133076709Y-74763537D01*
X133083124Y-74756088D01*
X133104534Y-74742234D01*
X133123497Y-74725179D01*
X133134898Y-74722587D01*
X133141785Y-74718132D01*
X133154682Y-74718091D01*
X133177088Y-74713000D01*
X133224108Y-74713000D01*
X133224108Y-74712999D01*
X133291977Y-74699500D01*
X133344952Y-74688963D01*
X133378292Y-74675152D01*
X133458786Y-74641812D01*
X133528255Y-74595393D01*
X133561233Y-74573358D01*
X133648358Y-74486233D01*
X133648359Y-74486231D01*
X133655425Y-74479165D01*
X133655427Y-74479161D01*
X134162820Y-73971769D01*
X134224142Y-73938285D01*
X134293834Y-73943269D01*
G37*
%TD.AperFunction*%
%TA.AperFunction,Conductor*%
G36*
X140500794Y-73254076D02*
G01*
X140545141Y-73282577D01*
X140598077Y-73335513D01*
X140598087Y-73335522D01*
X140686081Y-73403043D01*
X140686083Y-73403044D01*
X140822913Y-73459720D01*
X140822918Y-73459721D01*
X140969758Y-73479055D01*
X140969760Y-73479055D01*
X141116599Y-73459721D01*
X141116604Y-73459720D01*
X141260731Y-73400022D01*
X141330200Y-73392553D01*
X141392679Y-73423828D01*
X141395836Y-73426874D01*
X141448017Y-73479055D01*
X141470230Y-73501268D01*
X141572669Y-73569716D01*
X141572675Y-73569719D01*
X141572676Y-73569720D01*
X141686510Y-73616872D01*
X141746933Y-73628890D01*
X141807355Y-73640909D01*
X142037373Y-73640909D01*
X142104412Y-73660594D01*
X142150167Y-73713398D01*
X142160111Y-73782556D01*
X142131086Y-73846112D01*
X142093667Y-73875394D01*
X142068648Y-73888141D01*
X142068645Y-73888143D01*
X142024077Y-73920523D01*
X142024077Y-73920524D01*
X142641003Y-74537449D01*
X142566657Y-74557370D01*
X142458343Y-74619905D01*
X142369905Y-74708343D01*
X142307370Y-74816657D01*
X142287449Y-74891002D01*
X141670524Y-74274077D01*
X141670523Y-74274077D01*
X141638143Y-74318644D01*
X141545244Y-74500968D01*
X141492931Y-74661971D01*
X141453493Y-74719646D01*
X141389134Y-74746844D01*
X141320288Y-74734929D01*
X141268812Y-74687685D01*
X141257069Y-74661971D01*
X141204755Y-74500968D01*
X141111859Y-74318650D01*
X141079474Y-74274077D01*
X141079474Y-74274076D01*
X140462550Y-74891001D01*
X140442630Y-74816657D01*
X140380095Y-74708343D01*
X140291657Y-74619905D01*
X140183343Y-74557370D01*
X140108996Y-74537449D01*
X140725922Y-73920524D01*
X140725921Y-73920523D01*
X140681359Y-73888147D01*
X140681350Y-73888141D01*
X140499031Y-73795244D01*
X140304418Y-73732010D01*
X140213226Y-73717566D01*
X140150092Y-73687636D01*
X140113161Y-73628324D01*
X140114159Y-73558462D01*
X140144941Y-73507415D01*
X140369780Y-73282576D01*
X140431102Y-73249092D01*
X140500794Y-73254076D01*
G37*
%TD.AperFunction*%
%TA.AperFunction,Conductor*%
G36*
X143854416Y-72982263D02*
G01*
X143878820Y-73001221D01*
X143987481Y-73109881D01*
X144192946Y-73315346D01*
X144226431Y-73376669D01*
X144229265Y-73403027D01*
X144229265Y-74562915D01*
X144209580Y-74629954D01*
X144156776Y-74675709D01*
X144087618Y-74685653D01*
X144024062Y-74656628D01*
X143987334Y-74601234D01*
X143954755Y-74500968D01*
X143861859Y-74318650D01*
X143829474Y-74274077D01*
X143829474Y-74274076D01*
X143212550Y-74891001D01*
X143192630Y-74816657D01*
X143130095Y-74708343D01*
X143041657Y-74619905D01*
X142933343Y-74557370D01*
X142858996Y-74537449D01*
X143475922Y-73920524D01*
X143475921Y-73920523D01*
X143431359Y-73888147D01*
X143431350Y-73888141D01*
X143249031Y-73795244D01*
X143166837Y-73768538D01*
X143109162Y-73729100D01*
X143081964Y-73664741D01*
X143093879Y-73595895D01*
X143141123Y-73544419D01*
X143157696Y-73536049D01*
X143288667Y-73481799D01*
X143427966Y-73388722D01*
X143546430Y-73270258D01*
X143639507Y-73130959D01*
X143676582Y-73041451D01*
X143720423Y-72987049D01*
X143786717Y-72964984D01*
X143854416Y-72982263D01*
G37*
%TD.AperFunction*%
%TA.AperFunction,Conductor*%
G36*
X133891861Y-70054154D02*
G01*
X133936208Y-70082655D01*
X134532161Y-70678609D01*
X134636957Y-70632868D01*
X134649291Y-70631306D01*
X134660203Y-70625348D01*
X134683301Y-70626999D01*
X134706274Y-70624091D01*
X134717493Y-70629445D01*
X134729895Y-70630332D01*
X134760300Y-70649872D01*
X134769331Y-70654182D01*
X134770867Y-70656663D01*
X134774243Y-70658833D01*
X136016760Y-71901351D01*
X136050245Y-71962674D01*
X136045261Y-72032366D01*
X136003389Y-72088299D01*
X135937925Y-72112716D01*
X135929079Y-72113032D01*
X134573075Y-72113032D01*
X134449861Y-72113032D01*
X134429872Y-72117008D01*
X134409882Y-72120984D01*
X134409881Y-72120983D01*
X134329021Y-72137067D01*
X134329009Y-72137071D01*
X134300781Y-72148763D01*
X134300782Y-72148764D01*
X134215186Y-72184218D01*
X134215179Y-72184222D01*
X134198088Y-72195642D01*
X134189658Y-72201275D01*
X134189657Y-72201276D01*
X134189656Y-72201275D01*
X134112734Y-72252674D01*
X134112726Y-72252681D01*
X134101204Y-72264203D01*
X134039880Y-72297686D01*
X133970189Y-72292699D01*
X133914257Y-72250826D01*
X133889842Y-72185361D01*
X133891052Y-72157127D01*
X133909464Y-72040885D01*
X133909464Y-71836181D01*
X133877441Y-71633999D01*
X133828366Y-71482964D01*
X133826372Y-71413126D01*
X133862452Y-71353293D01*
X133890649Y-71333837D01*
X133927590Y-71315285D01*
X133927595Y-71315281D01*
X134007630Y-71250083D01*
X134007648Y-71250067D01*
X134202081Y-71055634D01*
X134202081Y-71055633D01*
X133582655Y-70436208D01*
X133549170Y-70374885D01*
X133554154Y-70305194D01*
X133582655Y-70260846D01*
X133760846Y-70082655D01*
X133822169Y-70049170D01*
X133891861Y-70054154D01*
G37*
%TD.AperFunction*%
%TA.AperFunction,Conductor*%
G36*
X141693993Y-71353712D02*
G01*
X141738382Y-71382228D01*
X142003901Y-71647747D01*
X142003902Y-71647747D01*
X142176944Y-71474706D01*
X142238267Y-71441221D01*
X142307959Y-71446205D01*
X142352306Y-71474706D01*
X142612675Y-71735075D01*
X142646160Y-71796398D01*
X142641176Y-71866090D01*
X142599304Y-71922023D01*
X142572448Y-71937317D01*
X142482941Y-71974392D01*
X142343641Y-72067469D01*
X142225180Y-72185930D01*
X142225177Y-72185934D01*
X142188517Y-72240800D01*
X142134904Y-72285605D01*
X142065579Y-72294312D01*
X142002552Y-72264157D01*
X141997734Y-72259590D01*
X141782577Y-72044433D01*
X141749092Y-71983110D01*
X141754076Y-71913418D01*
X141782577Y-71869070D01*
X141827125Y-71824522D01*
X141561607Y-71559004D01*
X141557279Y-71551079D01*
X141550047Y-71545669D01*
X141540794Y-71520889D01*
X141528122Y-71497681D01*
X141528766Y-71488673D01*
X141525607Y-71480213D01*
X141531219Y-71454369D01*
X141533106Y-71427989D01*
X141538910Y-71418953D01*
X141540435Y-71411935D01*
X141561573Y-71383676D01*
X141562993Y-71382256D01*
X141624300Y-71348752D01*
X141693993Y-71353712D01*
G37*
%TD.AperFunction*%
%TA.AperFunction,Conductor*%
G36*
X145912675Y-59635327D02*
G01*
X145913823Y-59635743D01*
X146162515Y-59727491D01*
X146176534Y-59732663D01*
X146185528Y-59736389D01*
X146421015Y-59844949D01*
X146579588Y-59918052D01*
X146583092Y-59919667D01*
X146591768Y-59924088D01*
X146973734Y-60138000D01*
X146982036Y-60143087D01*
X147346031Y-60386301D01*
X147353905Y-60392022D01*
X147697711Y-60663056D01*
X147705102Y-60669369D01*
X148026583Y-60966543D01*
X148033456Y-60973416D01*
X148236431Y-61192993D01*
X148330625Y-61294891D01*
X148336948Y-61302294D01*
X148607975Y-61646091D01*
X148613698Y-61653968D01*
X148856912Y-62017963D01*
X148861999Y-62026265D01*
X149075911Y-62408231D01*
X149080332Y-62416907D01*
X149263610Y-62814471D01*
X149267336Y-62823465D01*
X149418865Y-63234199D01*
X149421873Y-63243460D01*
X149540699Y-63664787D01*
X149542972Y-63674254D01*
X149628377Y-64103613D01*
X149629901Y-64113230D01*
X149681358Y-64547995D01*
X149682121Y-64557700D01*
X149699404Y-64997555D01*
X149699500Y-65002424D01*
X149699500Y-71300140D01*
X149689887Y-71332875D01*
X149680704Y-71365776D01*
X149680058Y-71366350D01*
X149679815Y-71367179D01*
X149654045Y-71389508D01*
X149628518Y-71412234D01*
X149627663Y-71412368D01*
X149627011Y-71412934D01*
X149593218Y-71417792D01*
X149559499Y-71423103D01*
X149558708Y-71422754D01*
X149557853Y-71422878D01*
X149526800Y-71408696D01*
X149495560Y-71394933D01*
X149494913Y-71394134D01*
X149494297Y-71393853D01*
X149472092Y-71368571D01*
X149467637Y-71361839D01*
X149466812Y-71359847D01*
X149415796Y-71283498D01*
X149398358Y-71257400D01*
X149398355Y-71257396D01*
X149308137Y-71167178D01*
X149308106Y-71167149D01*
X147604282Y-69463325D01*
X147596992Y-69456035D01*
X147596990Y-69456032D01*
X147509865Y-69368907D01*
X147458641Y-69334680D01*
X147407418Y-69300453D01*
X147407415Y-69300451D01*
X147407412Y-69300450D01*
X147333175Y-69269701D01*
X147333173Y-69269700D01*
X147326924Y-69267112D01*
X147293584Y-69253302D01*
X147241254Y-69242892D01*
X147236043Y-69241373D01*
X147211001Y-69225344D01*
X147184657Y-69211563D01*
X147183080Y-69210013D01*
X146757981Y-68784914D01*
X146757974Y-68784907D01*
X146757966Y-68784900D01*
X146757960Y-68784895D01*
X146677874Y-68719654D01*
X146677868Y-68719650D01*
X146677867Y-68719649D01*
X146599125Y-68680104D01*
X146521083Y-68640910D01*
X146350380Y-68600452D01*
X146350375Y-68600451D01*
X146350373Y-68600451D01*
X146249500Y-68600451D01*
X146182461Y-68580766D01*
X146136706Y-68527962D01*
X146125500Y-68476451D01*
X146125500Y-61898890D01*
X146145185Y-61831851D01*
X146149166Y-61826026D01*
X146235051Y-61707816D01*
X146331557Y-61518412D01*
X146397246Y-61316243D01*
X146430500Y-61106287D01*
X146430500Y-60893713D01*
X146397246Y-60683757D01*
X146331557Y-60481588D01*
X146235051Y-60292184D01*
X146235049Y-60292181D01*
X146235048Y-60292179D01*
X146110109Y-60120213D01*
X145959790Y-59969894D01*
X145959785Y-59969890D01*
X145798120Y-59852434D01*
X145755454Y-59797104D01*
X145749475Y-59727491D01*
X145782080Y-59665696D01*
X145842919Y-59631339D01*
X145912675Y-59635327D01*
G37*
%TD.AperFunction*%
%TA.AperFunction,Conductor*%
G36*
X133525016Y-59941767D02*
G01*
X133567484Y-59997249D01*
X133575063Y-60055079D01*
X133570000Y-60102171D01*
X133570000Y-60750000D01*
X134486988Y-60750000D01*
X134454075Y-60807007D01*
X134420000Y-60934174D01*
X134420000Y-61065826D01*
X134454075Y-61192993D01*
X134486988Y-61250000D01*
X133570000Y-61250000D01*
X133570000Y-61897844D01*
X133576401Y-61957372D01*
X133576403Y-61957379D01*
X133626645Y-62092086D01*
X133626649Y-62092093D01*
X133712809Y-62207187D01*
X133712812Y-62207190D01*
X133827906Y-62293350D01*
X133827913Y-62293354D01*
X133962620Y-62343596D01*
X133962627Y-62343598D01*
X134022155Y-62349999D01*
X134022172Y-62350000D01*
X134670000Y-62350000D01*
X134670000Y-61433012D01*
X134727007Y-61465925D01*
X134854174Y-61500000D01*
X134985826Y-61500000D01*
X135112993Y-61465925D01*
X135170000Y-61433012D01*
X135170000Y-62350000D01*
X135817828Y-62350000D01*
X135817844Y-62349999D01*
X135877372Y-62343598D01*
X135877379Y-62343596D01*
X136012086Y-62293354D01*
X136012093Y-62293350D01*
X136127187Y-62207190D01*
X136127190Y-62207187D01*
X136213350Y-62092093D01*
X136213354Y-62092086D01*
X136262422Y-61960529D01*
X136304293Y-61904595D01*
X136369757Y-61880178D01*
X136438030Y-61895030D01*
X136466285Y-61916181D01*
X136580213Y-62030109D01*
X136752179Y-62155048D01*
X136752181Y-62155049D01*
X136752184Y-62155051D01*
X136941588Y-62251557D01*
X137143757Y-62317246D01*
X137353713Y-62350500D01*
X137353714Y-62350500D01*
X137500500Y-62350500D01*
X137567539Y-62370185D01*
X137613294Y-62422989D01*
X137624500Y-62474500D01*
X137624500Y-65005256D01*
X137604815Y-65072295D01*
X137552011Y-65118050D01*
X137482853Y-65127994D01*
X137476309Y-65126873D01*
X137338695Y-65099500D01*
X137338691Y-65099500D01*
X137161309Y-65099500D01*
X137161306Y-65099500D01*
X136987341Y-65134103D01*
X136987332Y-65134106D01*
X136823459Y-65201983D01*
X136823446Y-65201990D01*
X136675965Y-65300535D01*
X136675961Y-65300538D01*
X136638321Y-65338180D01*
X136576999Y-65371666D01*
X136550639Y-65374500D01*
X135147919Y-65374500D01*
X135087501Y-65386518D01*
X135049789Y-65394019D01*
X135027080Y-65398536D01*
X135027078Y-65398537D01*
X134993737Y-65412347D01*
X134913249Y-65445684D01*
X134913235Y-65445692D01*
X134810802Y-65514138D01*
X134810794Y-65514144D01*
X134723669Y-65601270D01*
X134244795Y-66080143D01*
X134183472Y-66113628D01*
X134128516Y-66113119D01*
X134122665Y-66111732D01*
X134075073Y-66100451D01*
X134075068Y-66100451D01*
X133899627Y-66100451D01*
X133899625Y-66100451D01*
X133899619Y-66100452D01*
X133728916Y-66140910D01*
X133625770Y-66192712D01*
X133572133Y-66219649D01*
X133572132Y-66219650D01*
X133572126Y-66219654D01*
X133492036Y-66284897D01*
X133492018Y-66284913D01*
X132784914Y-66992018D01*
X132784895Y-66992039D01*
X132719654Y-67072125D01*
X132719650Y-67072131D01*
X132640910Y-67228916D01*
X132600452Y-67399619D01*
X132600451Y-67399630D01*
X132600451Y-67441096D01*
X132580766Y-67508135D01*
X132527962Y-67553890D01*
X132476451Y-67565096D01*
X132399627Y-67565096D01*
X132399625Y-67565096D01*
X132399619Y-67565097D01*
X132228917Y-67605555D01*
X132123453Y-67658520D01*
X132072134Y-67684294D01*
X132072132Y-67684295D01*
X132072127Y-67684298D01*
X131992037Y-67749541D01*
X131992019Y-67749557D01*
X131249560Y-68492018D01*
X131249549Y-68492030D01*
X131184296Y-68572131D01*
X131184295Y-68572132D01*
X131105555Y-68728917D01*
X131065097Y-68899619D01*
X131065096Y-68899630D01*
X131065096Y-69075074D01*
X131076016Y-69121144D01*
X131083156Y-69151269D01*
X131084538Y-69157097D01*
X131080846Y-69226869D01*
X131051562Y-69273376D01*
X130704049Y-69620890D01*
X130525269Y-69799670D01*
X130525267Y-69799672D01*
X130512178Y-69812761D01*
X130450853Y-69846243D01*
X130381162Y-69841256D01*
X130325230Y-69799383D01*
X130300816Y-69733917D01*
X130300500Y-69725076D01*
X130300500Y-65002424D01*
X130300596Y-64997556D01*
X130317878Y-64557701D01*
X130318641Y-64547995D01*
X130370100Y-64113215D01*
X130371619Y-64103627D01*
X130457032Y-63674230D01*
X130459294Y-63664810D01*
X130578132Y-63243438D01*
X130581127Y-63234219D01*
X130732666Y-62823456D01*
X130736389Y-62814471D01*
X130752307Y-62779941D01*
X130919673Y-62416894D01*
X130924088Y-62408231D01*
X131138000Y-62026265D01*
X131143087Y-62017963D01*
X131211096Y-61916181D01*
X131386311Y-61653953D01*
X131392012Y-61646106D01*
X131663066Y-61302275D01*
X131669357Y-61294909D01*
X131966556Y-60973402D01*
X131973402Y-60966556D01*
X132294909Y-60669357D01*
X132302275Y-60663066D01*
X132646106Y-60392012D01*
X132653953Y-60386311D01*
X133017965Y-60143085D01*
X133026265Y-60138000D01*
X133391184Y-59933635D01*
X133459294Y-59918052D01*
X133525016Y-59941767D01*
G37*
%TD.AperFunction*%
%TA.AperFunction,Conductor*%
G36*
X141287226Y-61635524D02*
G01*
X141299810Y-61634985D01*
X141319674Y-61646581D01*
X141341444Y-61653999D01*
X141350719Y-61664703D01*
X141360151Y-61670209D01*
X141380486Y-61699056D01*
X141384951Y-61707820D01*
X141509890Y-61879786D01*
X141660213Y-62030109D01*
X141832179Y-62155048D01*
X141832181Y-62155049D01*
X141832184Y-62155051D01*
X142021588Y-62251557D01*
X142223757Y-62317246D01*
X142433713Y-62350500D01*
X142433714Y-62350500D01*
X142646286Y-62350500D01*
X142646287Y-62350500D01*
X142856243Y-62317246D01*
X142871840Y-62312177D01*
X142941679Y-62310183D01*
X142997838Y-62342428D01*
X144088181Y-63432771D01*
X144121666Y-63494094D01*
X144124500Y-63520452D01*
X144124500Y-66533450D01*
X144104815Y-66600489D01*
X144052011Y-66646244D01*
X143982853Y-66656188D01*
X143919297Y-66627163D01*
X143912819Y-66621131D01*
X143908680Y-66616992D01*
X143743080Y-66496679D01*
X143743079Y-66496678D01*
X143743077Y-66496677D01*
X143686120Y-66467655D01*
X143560690Y-66403745D01*
X143366001Y-66340486D01*
X143191462Y-66312842D01*
X143163819Y-66308464D01*
X142959115Y-66308464D01*
X142934796Y-66312315D01*
X142756932Y-66340486D01*
X142562243Y-66403745D01*
X142379856Y-66496677D01*
X142356953Y-66513318D01*
X142336906Y-66520470D01*
X142319002Y-66531977D01*
X142294977Y-66535431D01*
X142291147Y-66536798D01*
X142284067Y-66537000D01*
X142177088Y-66537000D01*
X142110049Y-66517315D01*
X142071549Y-66478097D01*
X142042712Y-66431344D01*
X141949049Y-66337681D01*
X141915564Y-66276358D01*
X141920548Y-66206666D01*
X141949049Y-66162319D01*
X141982288Y-66129080D01*
X142042712Y-66068656D01*
X142134814Y-65919334D01*
X142189999Y-65752797D01*
X142200500Y-65650009D01*
X142200499Y-65024992D01*
X142197696Y-64997556D01*
X142189999Y-64922203D01*
X142189998Y-64922200D01*
X142134814Y-64755666D01*
X142042712Y-64606344D01*
X141918656Y-64482288D01*
X141769334Y-64390186D01*
X141602797Y-64335001D01*
X141602795Y-64335000D01*
X141500010Y-64324500D01*
X140499998Y-64324500D01*
X140499980Y-64324501D01*
X140397203Y-64335000D01*
X140397200Y-64335001D01*
X140230668Y-64390185D01*
X140230663Y-64390187D01*
X140081338Y-64482292D01*
X140076407Y-64486191D01*
X140011611Y-64512329D01*
X139942969Y-64499286D01*
X139892276Y-64451203D01*
X139875500Y-64388922D01*
X139875500Y-62474500D01*
X139895185Y-62407461D01*
X139947989Y-62361706D01*
X139999500Y-62350500D01*
X140106286Y-62350500D01*
X140106287Y-62350500D01*
X140316243Y-62317246D01*
X140518412Y-62251557D01*
X140707816Y-62155051D01*
X140794471Y-62092093D01*
X140879786Y-62030109D01*
X140879788Y-62030106D01*
X140879792Y-62030104D01*
X141030104Y-61879792D01*
X141030106Y-61879788D01*
X141030109Y-61879786D01*
X141155048Y-61707820D01*
X141155047Y-61707820D01*
X141155051Y-61707816D01*
X141159514Y-61699054D01*
X141168160Y-61689900D01*
X141172897Y-61678232D01*
X141191696Y-61664979D01*
X141207488Y-61648259D01*
X141219710Y-61645231D01*
X141230004Y-61637976D01*
X141252985Y-61636991D01*
X141275308Y-61631463D01*
X141287226Y-61635524D01*
G37*
%TD.AperFunction*%
%TA.AperFunction,Conductor*%
G36*
X144002443Y-59300596D02*
G01*
X144442304Y-59317878D01*
X144451999Y-59318640D01*
X144886780Y-59370099D01*
X144896372Y-59371619D01*
X145058571Y-59403883D01*
X145120482Y-59436268D01*
X145155056Y-59496984D01*
X145151316Y-59566753D01*
X145110449Y-59623425D01*
X145045431Y-59649007D01*
X145034379Y-59649500D01*
X144973713Y-59649500D01*
X144925042Y-59657208D01*
X144763760Y-59682753D01*
X144561585Y-59748444D01*
X144372179Y-59844951D01*
X144200213Y-59969890D01*
X144049890Y-60120213D01*
X143924949Y-60292182D01*
X143920484Y-60300946D01*
X143872509Y-60351742D01*
X143804688Y-60368536D01*
X143738553Y-60345998D01*
X143699516Y-60300946D01*
X143695050Y-60292182D01*
X143570109Y-60120213D01*
X143419786Y-59969890D01*
X143247820Y-59844951D01*
X143058414Y-59748444D01*
X143058413Y-59748443D01*
X143058412Y-59748443D01*
X142856243Y-59682754D01*
X142856241Y-59682753D01*
X142856240Y-59682753D01*
X142694957Y-59657208D01*
X142646287Y-59649500D01*
X142433713Y-59649500D01*
X142385042Y-59657208D01*
X142223760Y-59682753D01*
X142021585Y-59748444D01*
X141832179Y-59844951D01*
X141660213Y-59969890D01*
X141509890Y-60120213D01*
X141384949Y-60292182D01*
X141380484Y-60300946D01*
X141332509Y-60351742D01*
X141264688Y-60368536D01*
X141198553Y-60345998D01*
X141159516Y-60300946D01*
X141155050Y-60292182D01*
X141030109Y-60120213D01*
X140879786Y-59969890D01*
X140707820Y-59844951D01*
X140518414Y-59748444D01*
X140518413Y-59748443D01*
X140518412Y-59748443D01*
X140316243Y-59682754D01*
X140316241Y-59682753D01*
X140316240Y-59682753D01*
X140154957Y-59657208D01*
X140106287Y-59649500D01*
X139893713Y-59649500D01*
X139845042Y-59657208D01*
X139683760Y-59682753D01*
X139481585Y-59748444D01*
X139292179Y-59844951D01*
X139120213Y-59969890D01*
X138969890Y-60120213D01*
X138844949Y-60292182D01*
X138840484Y-60300946D01*
X138792509Y-60351742D01*
X138724688Y-60368536D01*
X138658553Y-60345998D01*
X138619516Y-60300946D01*
X138615050Y-60292182D01*
X138490109Y-60120213D01*
X138339786Y-59969890D01*
X138167820Y-59844951D01*
X137978414Y-59748444D01*
X137978413Y-59748443D01*
X137978412Y-59748443D01*
X137776243Y-59682754D01*
X137776241Y-59682753D01*
X137776240Y-59682753D01*
X137614957Y-59657208D01*
X137566287Y-59649500D01*
X137353713Y-59649500D01*
X137305042Y-59657208D01*
X137143760Y-59682753D01*
X136941585Y-59748444D01*
X136752179Y-59844951D01*
X136580215Y-59969889D01*
X136466285Y-60083819D01*
X136404962Y-60117303D01*
X136335270Y-60112319D01*
X136279337Y-60070447D01*
X136262422Y-60039470D01*
X136213354Y-59907913D01*
X136213350Y-59907906D01*
X136127190Y-59792812D01*
X136127187Y-59792809D01*
X136012093Y-59706649D01*
X136012086Y-59706645D01*
X135877379Y-59656403D01*
X135877372Y-59656401D01*
X135817844Y-59650000D01*
X135170000Y-59650000D01*
X135170000Y-60566988D01*
X135112993Y-60534075D01*
X134985826Y-60500000D01*
X134854174Y-60500000D01*
X134727007Y-60534075D01*
X134670000Y-60566988D01*
X134670000Y-59646849D01*
X134640304Y-59592466D01*
X134645288Y-59522774D01*
X134687160Y-59466841D01*
X134737277Y-59444491D01*
X135103627Y-59371619D01*
X135113215Y-59370100D01*
X135548002Y-59318640D01*
X135557693Y-59317878D01*
X135997557Y-59300596D01*
X136002425Y-59300500D01*
X136047595Y-59300500D01*
X143952405Y-59300500D01*
X143997575Y-59300500D01*
X144002443Y-59300596D01*
G37*
%TD.AperFunction*%
%TD*%
M02*
