M48
; DRILL file {KiCad 9.0.3-9.0.3-0~ubuntu22.04.1} date 2025-07-21T05:59:17-0700
; FORMAT={-:-/ absolute / inch / decimal}
; #@! TF.CreationDate,2025-07-21T05:59:17-07:00
; #@! TF.GenerationSoftware,Kicad,Pcbnew,9.0.3-9.0.3-0~ubuntu22.04.1
; #@! TF.FileFunction,Plated,1,2,PTH
FMAT,2
INCH
; #@! TA.AperFunction,Plated,PTH,ViaDrill
T1C0.0118
; #@! TA.AperFunction,Plated,PTH,ViaDrill
T2C0.0157
; #@! TA.AperFunction,Plated,PTH,ComponentDrill
T3C0.0374
; #@! TA.AperFunction,Plated,PTH,ComponentDrill
T4C0.0394
%
G90
G05
T1
X5.1969Y-2.4803
X5.1969Y-2.5984
X5.2657Y-2.9921
X5.3543Y-2.5197
X5.3937Y-3.0709
X5.5315Y-3.1693
X5.5906Y-2.5
X5.6254Y-2.8633
X5.6496Y-3.0315
X5.6733Y-2.7589
X5.8268Y-2.4803
X5.8268Y-2.6772
T2
X5.2953Y-2.7953
X5.4035Y-2.5984
X5.5048Y-2.688
X5.5492Y-2.69
X5.561Y-2.9035
X5.597Y-2.8361
T3
X5.2208Y-2.8322
X5.2208Y-3.0733
X5.3913Y-2.6618
X5.3913Y-3.2437
X5.4035Y-2.9528
X5.5118Y-2.9528
X5.6201Y-2.9528
X5.6323Y-2.6618
X5.6323Y-3.2437
X5.8028Y-2.8322
X5.8028Y-3.0733
T4
X5.3118Y-2.4016
X5.4118Y-2.4016
X5.5118Y-2.4016
X5.6118Y-2.4016
X5.7118Y-2.4016
M30
