%TF.GenerationSoftware,KiCad,Pcbnew,9.0.3-9.0.3-0~ubuntu22.04.1*%
%TF.CreationDate,2025-07-21T05:59:17-07:00*%
%TF.ProjectId,rotary-switch-shift,726f7461-7279-42d7-9377-697463682d73,rev?*%
%TF.SameCoordinates,Original*%
%TF.FileFunction,Soldermask,Top*%
%TF.FilePolarity,Negative*%
%FSLAX46Y46*%
G04 Gerber Fmt 4.6, Leading zero omitted, Abs format (unit mm)*
G04 Created by KiCad (PCBNEW 9.0.3-9.0.3-0~ubuntu22.04.1) date 2025-07-21 05:59:17*
%MOMM*%
%LPD*%
G01*
G04 APERTURE LIST*
G04 APERTURE END LIST*
G36*
X139415938Y-81769650D02*
G01*
X139424871Y-81773594D01*
X139431300Y-81774531D01*
X139471498Y-81794182D01*
X139512759Y-81812401D01*
X139516578Y-81816220D01*
X139516829Y-81816343D01*
X139583656Y-81883170D01*
X139583778Y-81883420D01*
X139587599Y-81887241D01*
X139605822Y-81928512D01*
X139625468Y-81968699D01*
X139626404Y-81975126D01*
X139630350Y-81984062D01*
X139638000Y-82050000D01*
X139638000Y-82950000D01*
X139630350Y-83015938D01*
X139626404Y-83024874D01*
X139625468Y-83031300D01*
X139605826Y-83071477D01*
X139587599Y-83112759D01*
X139583777Y-83116580D01*
X139583656Y-83116829D01*
X139516829Y-83183656D01*
X139516580Y-83183777D01*
X139512759Y-83187599D01*
X139471477Y-83205826D01*
X139431300Y-83225468D01*
X139424874Y-83226404D01*
X139415938Y-83230350D01*
X139350000Y-83238000D01*
X138825000Y-83238000D01*
X138759062Y-83230350D01*
X138750126Y-83226404D01*
X138743699Y-83225468D01*
X138703512Y-83205822D01*
X138662241Y-83187599D01*
X138658420Y-83183778D01*
X138658170Y-83183656D01*
X138591343Y-83116829D01*
X138591220Y-83116578D01*
X138587401Y-83112759D01*
X138569182Y-83071498D01*
X138549531Y-83031300D01*
X138548594Y-83024871D01*
X138544650Y-83015938D01*
X138537000Y-82950000D01*
X138537000Y-82050000D01*
X138544650Y-81984062D01*
X138548594Y-81975129D01*
X138549531Y-81968699D01*
X138569186Y-81928491D01*
X138587401Y-81887241D01*
X138591219Y-81883422D01*
X138591343Y-81883170D01*
X138658170Y-81816343D01*
X138658422Y-81816219D01*
X138662241Y-81812401D01*
X138703491Y-81794186D01*
X138743699Y-81774531D01*
X138750129Y-81773594D01*
X138759062Y-81769650D01*
X138825000Y-81762000D01*
X139350000Y-81762000D01*
X139415938Y-81769650D01*
G37*
G36*
X141240938Y-81769650D02*
G01*
X141249871Y-81773594D01*
X141256300Y-81774531D01*
X141296498Y-81794182D01*
X141337759Y-81812401D01*
X141341578Y-81816220D01*
X141341829Y-81816343D01*
X141408656Y-81883170D01*
X141408778Y-81883420D01*
X141412599Y-81887241D01*
X141430822Y-81928512D01*
X141450468Y-81968699D01*
X141451404Y-81975126D01*
X141455350Y-81984062D01*
X141463000Y-82050000D01*
X141463000Y-82950000D01*
X141455350Y-83015938D01*
X141451404Y-83024874D01*
X141450468Y-83031300D01*
X141430826Y-83071477D01*
X141412599Y-83112759D01*
X141408777Y-83116580D01*
X141408656Y-83116829D01*
X141341829Y-83183656D01*
X141341580Y-83183777D01*
X141337759Y-83187599D01*
X141296477Y-83205826D01*
X141256300Y-83225468D01*
X141249874Y-83226404D01*
X141240938Y-83230350D01*
X141175000Y-83238000D01*
X140650000Y-83238000D01*
X140584062Y-83230350D01*
X140575126Y-83226404D01*
X140568699Y-83225468D01*
X140528512Y-83205822D01*
X140487241Y-83187599D01*
X140483420Y-83183778D01*
X140483170Y-83183656D01*
X140416343Y-83116829D01*
X140416220Y-83116578D01*
X140412401Y-83112759D01*
X140394182Y-83071498D01*
X140374531Y-83031300D01*
X140373594Y-83024871D01*
X140369650Y-83015938D01*
X140362000Y-82950000D01*
X140362000Y-82050000D01*
X140369650Y-81984062D01*
X140373594Y-81975129D01*
X140374531Y-81968699D01*
X140394186Y-81928491D01*
X140412401Y-81887241D01*
X140416219Y-81883422D01*
X140416343Y-81883170D01*
X140483170Y-81816343D01*
X140483422Y-81816219D01*
X140487241Y-81812401D01*
X140528491Y-81794186D01*
X140568699Y-81774531D01*
X140575129Y-81773594D01*
X140584062Y-81769650D01*
X140650000Y-81762000D01*
X141175000Y-81762000D01*
X141240938Y-81769650D01*
G37*
G36*
X137181792Y-81589120D02*
G01*
X137333563Y-81651986D01*
X137470155Y-81743253D01*
X137586316Y-81859414D01*
X137677583Y-81996006D01*
X137740449Y-82147777D01*
X137772498Y-82308898D01*
X137772498Y-82473174D01*
X137740449Y-82634295D01*
X137677583Y-82786066D01*
X137586316Y-82922658D01*
X137470155Y-83038819D01*
X137333563Y-83130086D01*
X137181792Y-83192952D01*
X137020671Y-83225001D01*
X136856395Y-83225001D01*
X136695274Y-83192952D01*
X136543503Y-83130086D01*
X136406911Y-83038819D01*
X136290750Y-82922658D01*
X136199483Y-82786066D01*
X136136617Y-82634295D01*
X136104568Y-82473174D01*
X136104568Y-82308898D01*
X136136617Y-82147777D01*
X136199483Y-81996006D01*
X136290750Y-81859414D01*
X136406911Y-81743253D01*
X136543503Y-81651986D01*
X136695274Y-81589120D01*
X136856395Y-81557071D01*
X137020671Y-81557071D01*
X137181792Y-81589120D01*
G37*
G36*
X143304726Y-81589120D02*
G01*
X143456497Y-81651986D01*
X143593089Y-81743253D01*
X143709250Y-81859414D01*
X143800517Y-81996006D01*
X143863383Y-82147777D01*
X143895432Y-82308898D01*
X143895432Y-82473174D01*
X143863383Y-82634295D01*
X143800517Y-82786066D01*
X143709250Y-82922658D01*
X143593089Y-83038819D01*
X143456497Y-83130086D01*
X143304726Y-83192952D01*
X143143605Y-83225001D01*
X142979329Y-83225001D01*
X142818208Y-83192952D01*
X142666437Y-83130086D01*
X142529845Y-83038819D01*
X142413684Y-82922658D01*
X142322417Y-82786066D01*
X142259551Y-82634295D01*
X142227502Y-82473174D01*
X142227502Y-82308898D01*
X142259551Y-82147777D01*
X142322417Y-81996006D01*
X142413684Y-81859414D01*
X142529845Y-81743253D01*
X142666437Y-81651986D01*
X142818208Y-81589120D01*
X142979329Y-81557071D01*
X143143605Y-81557071D01*
X143304726Y-81589120D01*
G37*
G36*
X133769703Y-80358326D02*
G01*
X133775102Y-80358326D01*
X133817132Y-80374608D01*
X133859477Y-80389145D01*
X133864688Y-80393031D01*
X133873795Y-80396559D01*
X133925829Y-80437775D01*
X134091495Y-80603441D01*
X134558894Y-81070839D01*
X134558896Y-81070842D01*
X134562225Y-81074171D01*
X134603441Y-81126205D01*
X134606968Y-81135310D01*
X134610853Y-81140520D01*
X134625388Y-81182859D01*
X134641674Y-81224898D01*
X134641674Y-81230295D01*
X134641765Y-81230561D01*
X134641765Y-81325073D01*
X134641674Y-81325338D01*
X134641674Y-81330737D01*
X134625385Y-81372782D01*
X134610853Y-81415114D01*
X134606969Y-81420322D01*
X134603441Y-81429430D01*
X134562225Y-81481464D01*
X134454569Y-81589120D01*
X134194327Y-81849363D01*
X134194323Y-81849365D01*
X134190994Y-81852695D01*
X134138960Y-81893911D01*
X134129852Y-81897439D01*
X134124644Y-81901323D01*
X134082312Y-81915855D01*
X134040267Y-81932144D01*
X134034868Y-81932144D01*
X134034603Y-81932235D01*
X133940092Y-81932235D01*
X133939827Y-81932144D01*
X133934428Y-81932144D01*
X133892389Y-81915858D01*
X133850052Y-81901324D01*
X133844842Y-81897439D01*
X133835735Y-81893911D01*
X133783701Y-81852695D01*
X133346120Y-81415114D01*
X133150635Y-81219630D01*
X133150632Y-81219626D01*
X133147305Y-81216299D01*
X133106089Y-81164265D01*
X133102561Y-81155160D01*
X133098676Y-81149949D01*
X133084139Y-81107605D01*
X133067856Y-81065572D01*
X133067856Y-81060173D01*
X133067765Y-81059908D01*
X133067765Y-80965396D01*
X133067856Y-80965130D01*
X133067856Y-80959733D01*
X133084136Y-80917706D01*
X133098676Y-80875355D01*
X133102562Y-80870142D01*
X133106089Y-80861040D01*
X133147305Y-80809006D01*
X133150634Y-80805676D01*
X133150637Y-80805673D01*
X133515202Y-80441106D01*
X133515213Y-80441097D01*
X133518536Y-80437775D01*
X133570570Y-80396559D01*
X133579672Y-80393032D01*
X133584885Y-80389146D01*
X133627233Y-80374608D01*
X133669263Y-80358326D01*
X133674662Y-80358326D01*
X133674927Y-80358235D01*
X133769438Y-80358235D01*
X133769703Y-80358326D01*
G37*
G36*
X146325338Y-80358326D02*
G01*
X146330737Y-80358326D01*
X146372770Y-80374609D01*
X146415114Y-80389146D01*
X146420325Y-80393031D01*
X146429430Y-80396559D01*
X146481464Y-80437775D01*
X146484795Y-80441106D01*
X146484796Y-80441107D01*
X146849363Y-80805672D01*
X146849368Y-80805679D01*
X146852695Y-80809006D01*
X146893911Y-80861040D01*
X146897438Y-80870145D01*
X146901323Y-80875355D01*
X146915858Y-80917694D01*
X146932144Y-80959733D01*
X146932144Y-80965130D01*
X146932235Y-80965396D01*
X146932235Y-81059908D01*
X146932144Y-81060173D01*
X146932144Y-81065572D01*
X146915857Y-81107614D01*
X146901324Y-81149947D01*
X146897439Y-81155155D01*
X146893911Y-81164265D01*
X146852695Y-81216299D01*
X146216299Y-81852695D01*
X146164265Y-81893911D01*
X146155157Y-81897439D01*
X146149949Y-81901323D01*
X146107617Y-81915855D01*
X146065572Y-81932144D01*
X146060173Y-81932144D01*
X146059908Y-81932235D01*
X145965397Y-81932235D01*
X145965132Y-81932144D01*
X145959733Y-81932144D01*
X145917691Y-81915857D01*
X145875355Y-81901323D01*
X145870145Y-81897438D01*
X145861040Y-81893911D01*
X145809006Y-81852695D01*
X145718311Y-81762000D01*
X145441106Y-81484797D01*
X145441100Y-81484789D01*
X145437775Y-81481464D01*
X145396559Y-81429430D01*
X145393031Y-81420325D01*
X145389146Y-81415114D01*
X145374609Y-81372770D01*
X145358326Y-81330737D01*
X145358326Y-81325338D01*
X145358235Y-81325073D01*
X145358235Y-81230561D01*
X145358326Y-81230295D01*
X145358326Y-81224898D01*
X145374605Y-81182875D01*
X145389145Y-81140522D01*
X145393031Y-81135309D01*
X145396559Y-81126205D01*
X145437775Y-81074171D01*
X145552213Y-80959733D01*
X146070839Y-80441105D01*
X146070846Y-80441099D01*
X146074171Y-80437775D01*
X146126205Y-80396559D01*
X146135307Y-80393032D01*
X146140520Y-80389146D01*
X146182868Y-80374608D01*
X146224898Y-80358326D01*
X146230297Y-80358326D01*
X146230562Y-80358235D01*
X146325073Y-80358235D01*
X146325338Y-80358326D01*
G37*
G36*
X135060173Y-79067856D02*
G01*
X135065572Y-79067856D01*
X135107602Y-79084138D01*
X135149947Y-79098675D01*
X135155158Y-79102561D01*
X135164265Y-79106089D01*
X135216299Y-79147305D01*
X135534498Y-79465504D01*
X135849364Y-79780369D01*
X135849366Y-79780372D01*
X135852695Y-79783701D01*
X135893911Y-79835735D01*
X135897438Y-79844840D01*
X135901323Y-79850050D01*
X135915858Y-79892389D01*
X135932144Y-79934428D01*
X135932144Y-79939825D01*
X135932235Y-79940091D01*
X135932235Y-80034603D01*
X135932144Y-80034868D01*
X135932144Y-80040267D01*
X135915855Y-80082312D01*
X135901323Y-80124644D01*
X135897439Y-80129852D01*
X135893911Y-80138960D01*
X135852695Y-80190994D01*
X135685454Y-80358235D01*
X135484797Y-80558893D01*
X135484793Y-80558895D01*
X135481464Y-80562225D01*
X135429430Y-80603441D01*
X135420322Y-80606969D01*
X135415114Y-80610853D01*
X135372782Y-80625385D01*
X135330737Y-80641674D01*
X135325338Y-80641674D01*
X135325073Y-80641765D01*
X135230562Y-80641765D01*
X135230297Y-80641674D01*
X135224898Y-80641674D01*
X135182859Y-80625388D01*
X135140522Y-80610854D01*
X135135312Y-80606969D01*
X135126205Y-80603441D01*
X135074171Y-80562225D01*
X134636590Y-80124644D01*
X134441105Y-79929160D01*
X134441102Y-79929156D01*
X134437775Y-79925829D01*
X134396559Y-79873795D01*
X134393031Y-79864690D01*
X134389146Y-79859479D01*
X134374609Y-79817135D01*
X134358326Y-79775102D01*
X134358326Y-79769703D01*
X134358235Y-79769438D01*
X134358235Y-79674926D01*
X134358326Y-79674660D01*
X134358326Y-79669263D01*
X134374606Y-79627236D01*
X134389146Y-79584885D01*
X134393032Y-79579672D01*
X134396559Y-79570570D01*
X134437775Y-79518536D01*
X134441104Y-79515206D01*
X134441107Y-79515203D01*
X134805672Y-79150636D01*
X134805683Y-79150627D01*
X134809006Y-79147305D01*
X134861040Y-79106089D01*
X134870142Y-79102562D01*
X134875355Y-79098676D01*
X134917703Y-79084138D01*
X134959733Y-79067856D01*
X134965132Y-79067856D01*
X134965397Y-79067765D01*
X135059908Y-79067765D01*
X135060173Y-79067856D01*
G37*
G36*
X145034868Y-79067856D02*
G01*
X145040267Y-79067856D01*
X145082300Y-79084139D01*
X145124644Y-79098676D01*
X145129855Y-79102561D01*
X145138960Y-79106089D01*
X145190994Y-79147305D01*
X145194325Y-79150636D01*
X145194326Y-79150637D01*
X145558893Y-79515202D01*
X145558898Y-79515209D01*
X145562225Y-79518536D01*
X145603441Y-79570570D01*
X145606968Y-79579675D01*
X145610853Y-79584885D01*
X145625388Y-79627224D01*
X145641674Y-79669263D01*
X145641674Y-79674660D01*
X145641765Y-79674926D01*
X145641765Y-79769438D01*
X145641674Y-79769703D01*
X145641674Y-79775102D01*
X145625387Y-79817144D01*
X145610854Y-79859477D01*
X145606969Y-79864685D01*
X145603441Y-79873795D01*
X145562225Y-79925829D01*
X144925829Y-80562225D01*
X144873795Y-80603441D01*
X144864687Y-80606969D01*
X144859479Y-80610853D01*
X144817147Y-80625385D01*
X144775102Y-80641674D01*
X144769703Y-80641674D01*
X144769438Y-80641765D01*
X144674927Y-80641765D01*
X144674662Y-80641674D01*
X144669263Y-80641674D01*
X144627221Y-80625387D01*
X144584885Y-80610853D01*
X144579675Y-80606968D01*
X144570570Y-80603441D01*
X144518536Y-80562225D01*
X144515200Y-80558889D01*
X144150636Y-80194327D01*
X144150630Y-80194319D01*
X144147305Y-80190994D01*
X144106089Y-80138960D01*
X144102561Y-80129855D01*
X144098676Y-80124644D01*
X144084139Y-80082300D01*
X144067856Y-80040267D01*
X144067856Y-80034868D01*
X144067765Y-80034603D01*
X144067765Y-79940091D01*
X144067856Y-79939825D01*
X144067856Y-79934428D01*
X144084135Y-79892405D01*
X144098675Y-79850052D01*
X144102561Y-79844839D01*
X144106089Y-79835735D01*
X144147305Y-79783701D01*
X144261743Y-79669263D01*
X144780369Y-79150635D01*
X144780376Y-79150629D01*
X144783701Y-79147305D01*
X144835735Y-79106089D01*
X144844837Y-79102562D01*
X144850050Y-79098676D01*
X144892398Y-79084138D01*
X144934428Y-79067856D01*
X144939827Y-79067856D01*
X144940092Y-79067765D01*
X145034603Y-79067765D01*
X145034868Y-79067856D01*
G37*
G36*
X132852223Y-77259551D02*
G01*
X133003994Y-77322417D01*
X133140586Y-77413684D01*
X133256747Y-77529845D01*
X133348014Y-77666437D01*
X133410880Y-77818208D01*
X133442929Y-77979329D01*
X133442929Y-78143605D01*
X133410880Y-78304726D01*
X133348014Y-78456497D01*
X133256747Y-78593089D01*
X133140586Y-78709250D01*
X133003994Y-78800517D01*
X132852223Y-78863383D01*
X132691102Y-78895432D01*
X132526826Y-78895432D01*
X132365705Y-78863383D01*
X132213934Y-78800517D01*
X132077342Y-78709250D01*
X131961181Y-78593089D01*
X131869914Y-78456497D01*
X131807048Y-78304726D01*
X131774999Y-78143605D01*
X131774999Y-77979329D01*
X131807048Y-77818208D01*
X131869914Y-77666437D01*
X131961181Y-77529845D01*
X132077342Y-77413684D01*
X132213934Y-77322417D01*
X132365705Y-77259551D01*
X132526826Y-77227502D01*
X132691102Y-77227502D01*
X132852223Y-77259551D01*
G37*
G36*
X147634295Y-77259551D02*
G01*
X147786066Y-77322417D01*
X147922658Y-77413684D01*
X148038819Y-77529845D01*
X148130086Y-77666437D01*
X148192952Y-77818208D01*
X148225001Y-77979329D01*
X148225001Y-78143605D01*
X148192952Y-78304726D01*
X148130086Y-78456497D01*
X148038819Y-78593089D01*
X147922658Y-78709250D01*
X147786066Y-78800517D01*
X147634295Y-78863383D01*
X147473174Y-78895432D01*
X147308898Y-78895432D01*
X147147777Y-78863383D01*
X146996006Y-78800517D01*
X146859414Y-78709250D01*
X146743253Y-78593089D01*
X146651986Y-78456497D01*
X146589120Y-78304726D01*
X146557071Y-78143605D01*
X146557071Y-77979329D01*
X146589120Y-77818208D01*
X146651986Y-77666437D01*
X146743253Y-77529845D01*
X146859414Y-77413684D01*
X146996006Y-77322417D01*
X147147777Y-77259551D01*
X147308898Y-77227502D01*
X147473174Y-77227502D01*
X147634295Y-77259551D01*
G37*
G36*
X132515938Y-75369650D02*
G01*
X132524871Y-75373594D01*
X132531300Y-75374531D01*
X132571498Y-75394182D01*
X132612759Y-75412401D01*
X132616578Y-75416220D01*
X132616829Y-75416343D01*
X132683656Y-75483170D01*
X132683778Y-75483420D01*
X132687599Y-75487241D01*
X132705822Y-75528512D01*
X132725468Y-75568699D01*
X132726404Y-75575126D01*
X132730350Y-75584062D01*
X132738000Y-75650000D01*
X132738000Y-76175000D01*
X132730350Y-76240938D01*
X132726404Y-76249874D01*
X132725468Y-76256300D01*
X132705826Y-76296477D01*
X132687599Y-76337759D01*
X132683777Y-76341580D01*
X132683656Y-76341829D01*
X132616829Y-76408656D01*
X132616580Y-76408777D01*
X132612759Y-76412599D01*
X132571477Y-76430826D01*
X132531300Y-76450468D01*
X132524874Y-76451404D01*
X132515938Y-76455350D01*
X132450000Y-76463000D01*
X131550000Y-76463000D01*
X131484062Y-76455350D01*
X131475126Y-76451404D01*
X131468699Y-76450468D01*
X131428512Y-76430822D01*
X131387241Y-76412599D01*
X131383420Y-76408778D01*
X131383170Y-76408656D01*
X131316343Y-76341829D01*
X131316220Y-76341578D01*
X131312401Y-76337759D01*
X131294182Y-76296498D01*
X131274531Y-76256300D01*
X131273594Y-76249871D01*
X131269650Y-76240938D01*
X131262000Y-76175000D01*
X131262000Y-75650000D01*
X131269650Y-75584062D01*
X131273594Y-75575129D01*
X131274531Y-75568699D01*
X131294186Y-75528491D01*
X131312401Y-75487241D01*
X131316219Y-75483422D01*
X131316343Y-75483170D01*
X131383170Y-75416343D01*
X131383422Y-75416219D01*
X131387241Y-75412401D01*
X131428491Y-75394186D01*
X131468699Y-75374531D01*
X131475129Y-75373594D01*
X131484062Y-75369650D01*
X131550000Y-75362000D01*
X132450000Y-75362000D01*
X132515938Y-75369650D01*
G37*
G36*
X137493259Y-74198084D02*
G01*
X137645030Y-74260950D01*
X137781622Y-74352217D01*
X137897783Y-74468378D01*
X137989050Y-74604970D01*
X138051916Y-74756741D01*
X138083965Y-74917862D01*
X138083965Y-75082138D01*
X138051916Y-75243259D01*
X137989050Y-75395030D01*
X137897783Y-75531622D01*
X137781622Y-75647783D01*
X137645030Y-75739050D01*
X137493259Y-75801916D01*
X137332138Y-75833965D01*
X137167862Y-75833965D01*
X137006741Y-75801916D01*
X136854970Y-75739050D01*
X136718378Y-75647783D01*
X136602217Y-75531622D01*
X136510950Y-75395030D01*
X136448084Y-75243259D01*
X136416035Y-75082138D01*
X136416035Y-74917862D01*
X136448084Y-74756741D01*
X136510950Y-74604970D01*
X136602217Y-74468378D01*
X136718378Y-74352217D01*
X136854970Y-74260950D01*
X137006741Y-74198084D01*
X137167862Y-74166035D01*
X137332138Y-74166035D01*
X137493259Y-74198084D01*
G37*
G36*
X140243259Y-74198084D02*
G01*
X140395030Y-74260950D01*
X140531622Y-74352217D01*
X140647783Y-74468378D01*
X140739050Y-74604970D01*
X140801916Y-74756741D01*
X140833965Y-74917862D01*
X140833965Y-75082138D01*
X140801916Y-75243259D01*
X140739050Y-75395030D01*
X140647783Y-75531622D01*
X140531622Y-75647783D01*
X140395030Y-75739050D01*
X140243259Y-75801916D01*
X140082138Y-75833965D01*
X139917862Y-75833965D01*
X139756741Y-75801916D01*
X139604970Y-75739050D01*
X139468378Y-75647783D01*
X139352217Y-75531622D01*
X139260950Y-75395030D01*
X139198084Y-75243259D01*
X139166035Y-75082138D01*
X139166035Y-74917862D01*
X139198084Y-74756741D01*
X139260950Y-74604970D01*
X139352217Y-74468378D01*
X139468378Y-74352217D01*
X139604970Y-74260950D01*
X139756741Y-74198084D01*
X139917862Y-74166035D01*
X140082138Y-74166035D01*
X140243259Y-74198084D01*
G37*
G36*
X142993259Y-74198084D02*
G01*
X143145030Y-74260950D01*
X143281622Y-74352217D01*
X143397783Y-74468378D01*
X143489050Y-74604970D01*
X143551916Y-74756741D01*
X143583965Y-74917862D01*
X143583965Y-75082138D01*
X143551916Y-75243259D01*
X143489050Y-75395030D01*
X143397783Y-75531622D01*
X143281622Y-75647783D01*
X143145030Y-75739050D01*
X142993259Y-75801916D01*
X142832138Y-75833965D01*
X142667862Y-75833965D01*
X142506741Y-75801916D01*
X142354970Y-75739050D01*
X142218378Y-75647783D01*
X142102217Y-75531622D01*
X142010950Y-75395030D01*
X141948084Y-75243259D01*
X141916035Y-75082138D01*
X141916035Y-74917862D01*
X141948084Y-74756741D01*
X142010950Y-74604970D01*
X142102217Y-74468378D01*
X142218378Y-74352217D01*
X142354970Y-74260950D01*
X142506741Y-74198084D01*
X142667862Y-74166035D01*
X142832138Y-74166035D01*
X142993259Y-74198084D01*
G37*
G36*
X147415938Y-74269650D02*
G01*
X147424871Y-74273594D01*
X147431300Y-74274531D01*
X147471498Y-74294182D01*
X147512759Y-74312401D01*
X147516578Y-74316220D01*
X147516829Y-74316343D01*
X147583656Y-74383170D01*
X147583778Y-74383420D01*
X147587599Y-74387241D01*
X147605822Y-74428512D01*
X147625468Y-74468699D01*
X147626404Y-74475126D01*
X147630350Y-74484062D01*
X147638000Y-74550000D01*
X147638000Y-75450000D01*
X147630350Y-75515938D01*
X147626404Y-75524874D01*
X147625468Y-75531300D01*
X147605826Y-75571477D01*
X147587599Y-75612759D01*
X147583777Y-75616580D01*
X147583656Y-75616829D01*
X147516829Y-75683656D01*
X147516580Y-75683777D01*
X147512759Y-75687599D01*
X147471477Y-75705826D01*
X147431300Y-75725468D01*
X147424874Y-75726404D01*
X147415938Y-75730350D01*
X147350000Y-75738000D01*
X146825000Y-75738000D01*
X146759062Y-75730350D01*
X146750126Y-75726404D01*
X146743699Y-75725468D01*
X146703512Y-75705822D01*
X146662241Y-75687599D01*
X146658420Y-75683778D01*
X146658170Y-75683656D01*
X146591343Y-75616829D01*
X146591220Y-75616578D01*
X146587401Y-75612759D01*
X146569182Y-75571498D01*
X146549531Y-75531300D01*
X146548594Y-75524871D01*
X146544650Y-75515938D01*
X146537000Y-75450000D01*
X146537000Y-74550000D01*
X146544650Y-74484062D01*
X146548594Y-74475129D01*
X146549531Y-74468699D01*
X146569186Y-74428491D01*
X146587401Y-74387241D01*
X146591219Y-74383422D01*
X146591343Y-74383170D01*
X146658170Y-74316343D01*
X146658422Y-74316219D01*
X146662241Y-74312401D01*
X146703491Y-74294186D01*
X146743699Y-74274531D01*
X146750129Y-74273594D01*
X146759062Y-74269650D01*
X146825000Y-74262000D01*
X147350000Y-74262000D01*
X147415938Y-74269650D01*
G37*
G36*
X149240938Y-74269650D02*
G01*
X149249871Y-74273594D01*
X149256300Y-74274531D01*
X149296498Y-74294182D01*
X149337759Y-74312401D01*
X149341578Y-74316220D01*
X149341829Y-74316343D01*
X149408656Y-74383170D01*
X149408778Y-74383420D01*
X149412599Y-74387241D01*
X149430822Y-74428512D01*
X149450468Y-74468699D01*
X149451404Y-74475126D01*
X149455350Y-74484062D01*
X149463000Y-74550000D01*
X149463000Y-75450000D01*
X149455350Y-75515938D01*
X149451404Y-75524874D01*
X149450468Y-75531300D01*
X149430826Y-75571477D01*
X149412599Y-75612759D01*
X149408777Y-75616580D01*
X149408656Y-75616829D01*
X149341829Y-75683656D01*
X149341580Y-75683777D01*
X149337759Y-75687599D01*
X149296477Y-75705826D01*
X149256300Y-75725468D01*
X149249874Y-75726404D01*
X149240938Y-75730350D01*
X149175000Y-75738000D01*
X148650000Y-75738000D01*
X148584062Y-75730350D01*
X148575126Y-75726404D01*
X148568699Y-75725468D01*
X148528512Y-75705822D01*
X148487241Y-75687599D01*
X148483420Y-75683778D01*
X148483170Y-75683656D01*
X148416343Y-75616829D01*
X148416220Y-75616578D01*
X148412401Y-75612759D01*
X148394182Y-75571498D01*
X148374531Y-75531300D01*
X148373594Y-75524871D01*
X148369650Y-75515938D01*
X148362000Y-75450000D01*
X148362000Y-74550000D01*
X148369650Y-74484062D01*
X148373594Y-74475129D01*
X148374531Y-74468699D01*
X148394186Y-74428491D01*
X148412401Y-74387241D01*
X148416219Y-74383422D01*
X148416343Y-74383170D01*
X148483170Y-74316343D01*
X148483422Y-74316219D01*
X148487241Y-74312401D01*
X148528491Y-74294186D01*
X148568699Y-74274531D01*
X148575129Y-74273594D01*
X148584062Y-74269650D01*
X148650000Y-74262000D01*
X149175000Y-74262000D01*
X149240938Y-74269650D01*
G37*
G36*
X132515938Y-73544650D02*
G01*
X132524871Y-73548594D01*
X132531300Y-73549531D01*
X132571498Y-73569182D01*
X132612759Y-73587401D01*
X132616578Y-73591220D01*
X132616829Y-73591343D01*
X132683656Y-73658170D01*
X132683778Y-73658420D01*
X132687599Y-73662241D01*
X132705822Y-73703512D01*
X132725468Y-73743699D01*
X132726404Y-73750126D01*
X132730350Y-73759062D01*
X132738000Y-73825000D01*
X132738000Y-74350000D01*
X132730350Y-74415938D01*
X132726404Y-74424874D01*
X132725468Y-74431300D01*
X132705826Y-74471477D01*
X132687599Y-74512759D01*
X132683777Y-74516580D01*
X132683656Y-74516829D01*
X132616829Y-74583656D01*
X132616580Y-74583777D01*
X132612759Y-74587599D01*
X132571477Y-74605826D01*
X132531300Y-74625468D01*
X132524874Y-74626404D01*
X132515938Y-74630350D01*
X132450000Y-74638000D01*
X131550000Y-74638000D01*
X131484062Y-74630350D01*
X131475126Y-74626404D01*
X131468699Y-74625468D01*
X131428512Y-74605822D01*
X131387241Y-74587599D01*
X131383420Y-74583778D01*
X131383170Y-74583656D01*
X131316343Y-74516829D01*
X131316220Y-74516578D01*
X131312401Y-74512759D01*
X131294182Y-74471498D01*
X131274531Y-74431300D01*
X131273594Y-74424871D01*
X131269650Y-74415938D01*
X131262000Y-74350000D01*
X131262000Y-73825000D01*
X131269650Y-73759062D01*
X131273594Y-73750129D01*
X131274531Y-73743699D01*
X131294186Y-73703491D01*
X131312401Y-73662241D01*
X131316219Y-73658422D01*
X131316343Y-73658170D01*
X131383170Y-73591343D01*
X131383422Y-73591219D01*
X131387241Y-73587401D01*
X131428491Y-73569186D01*
X131468699Y-73549531D01*
X131475129Y-73548594D01*
X131484062Y-73544650D01*
X131550000Y-73537000D01*
X132450000Y-73537000D01*
X132515938Y-73544650D01*
G37*
G36*
X140035947Y-72589041D02*
G01*
X140068551Y-72610827D01*
X140073078Y-72615354D01*
X140152410Y-72694685D01*
X140152412Y-72694688D01*
X140156940Y-72699216D01*
X140178726Y-72731820D01*
X140186375Y-72770280D01*
X140178726Y-72808739D01*
X140156940Y-72841344D01*
X139661965Y-73336319D01*
X139629360Y-73358105D01*
X139590901Y-73365754D01*
X139552441Y-73358105D01*
X139519837Y-73336319D01*
X139515307Y-73331789D01*
X139435977Y-73252460D01*
X139435974Y-73252456D01*
X139431448Y-73247930D01*
X139409662Y-73215326D01*
X139402013Y-73176866D01*
X139409662Y-73138407D01*
X139431448Y-73105802D01*
X139675967Y-72861283D01*
X139921893Y-72615356D01*
X139921896Y-72615353D01*
X139926423Y-72610827D01*
X139959028Y-72589041D01*
X139997487Y-72581392D01*
X140035947Y-72589041D01*
G37*
G36*
X139682394Y-72235487D02*
G01*
X139714998Y-72257273D01*
X139719525Y-72261800D01*
X139798857Y-72341131D01*
X139798859Y-72341134D01*
X139803387Y-72345662D01*
X139825173Y-72378266D01*
X139832822Y-72416726D01*
X139825173Y-72455185D01*
X139803387Y-72487790D01*
X139308412Y-72982765D01*
X139275807Y-73004551D01*
X139237348Y-73012200D01*
X139198888Y-73004551D01*
X139166284Y-72982765D01*
X139161754Y-72978235D01*
X139082424Y-72898906D01*
X139082421Y-72898902D01*
X139077895Y-72894376D01*
X139056109Y-72861772D01*
X139048460Y-72823312D01*
X139056109Y-72784853D01*
X139077895Y-72752248D01*
X139322413Y-72507730D01*
X139568340Y-72261802D01*
X139568343Y-72261799D01*
X139572870Y-72257273D01*
X139605475Y-72235487D01*
X139643934Y-72227838D01*
X139682394Y-72235487D01*
G37*
G36*
X140601632Y-72235487D02*
G01*
X140634237Y-72257273D01*
X141129212Y-72752248D01*
X141150998Y-72784853D01*
X141158647Y-72823312D01*
X141150998Y-72861772D01*
X141129212Y-72894376D01*
X141040823Y-72982765D01*
X141008219Y-73004551D01*
X140969759Y-73012200D01*
X140931300Y-73004551D01*
X140898695Y-72982765D01*
X140403720Y-72487790D01*
X140381934Y-72455185D01*
X140374285Y-72416726D01*
X140381934Y-72378266D01*
X140403720Y-72345662D01*
X140408244Y-72341137D01*
X140408247Y-72341134D01*
X140487578Y-72261802D01*
X140487584Y-72261797D01*
X140492109Y-72257273D01*
X140524713Y-72235487D01*
X140563173Y-72227838D01*
X140601632Y-72235487D01*
G37*
G36*
X132852223Y-71136617D02*
G01*
X133003994Y-71199483D01*
X133140586Y-71290750D01*
X133256747Y-71406911D01*
X133348014Y-71543503D01*
X133410880Y-71695274D01*
X133442929Y-71856395D01*
X133442929Y-72020671D01*
X133410880Y-72181792D01*
X133348014Y-72333563D01*
X133256747Y-72470155D01*
X133140586Y-72586316D01*
X133003994Y-72677583D01*
X132852223Y-72740449D01*
X132691102Y-72772498D01*
X132526826Y-72772498D01*
X132365705Y-72740449D01*
X132213934Y-72677583D01*
X132077342Y-72586316D01*
X131961181Y-72470155D01*
X131869914Y-72333563D01*
X131807048Y-72181792D01*
X131774999Y-72020671D01*
X131774999Y-71856395D01*
X131807048Y-71695274D01*
X131869914Y-71543503D01*
X131961181Y-71406911D01*
X132077342Y-71290750D01*
X132213934Y-71199483D01*
X132365705Y-71136617D01*
X132526826Y-71104568D01*
X132691102Y-71104568D01*
X132852223Y-71136617D01*
G37*
G36*
X147634295Y-71136617D02*
G01*
X147786066Y-71199483D01*
X147922658Y-71290750D01*
X148038819Y-71406911D01*
X148130086Y-71543503D01*
X148192952Y-71695274D01*
X148225001Y-71856395D01*
X148225001Y-72020671D01*
X148192952Y-72181792D01*
X148130086Y-72333563D01*
X148038819Y-72470155D01*
X147922658Y-72586316D01*
X147786066Y-72677583D01*
X147634295Y-72740449D01*
X147473174Y-72772498D01*
X147308898Y-72772498D01*
X147147777Y-72740449D01*
X146996006Y-72677583D01*
X146859414Y-72586316D01*
X146743253Y-72470155D01*
X146651986Y-72333563D01*
X146589120Y-72181792D01*
X146557071Y-72020671D01*
X146557071Y-71856395D01*
X146589120Y-71695274D01*
X146651986Y-71543503D01*
X146743253Y-71406911D01*
X146859414Y-71290750D01*
X146996006Y-71199483D01*
X147147777Y-71136617D01*
X147308898Y-71104568D01*
X147473174Y-71104568D01*
X147634295Y-71136617D01*
G37*
G36*
X139328840Y-71881934D02*
G01*
X139361444Y-71903720D01*
X139365971Y-71908247D01*
X139445303Y-71987578D01*
X139445305Y-71987581D01*
X139449833Y-71992109D01*
X139471619Y-72024713D01*
X139479268Y-72063173D01*
X139471619Y-72101632D01*
X139449833Y-72134237D01*
X138954858Y-72629212D01*
X138922253Y-72650998D01*
X138883794Y-72658647D01*
X138845334Y-72650998D01*
X138812730Y-72629212D01*
X138769590Y-72586072D01*
X138728870Y-72545353D01*
X138728867Y-72545349D01*
X138724341Y-72540823D01*
X138702555Y-72508219D01*
X138694906Y-72469759D01*
X138702555Y-72431300D01*
X138724341Y-72398695D01*
X138968859Y-72154177D01*
X139214786Y-71908249D01*
X139214789Y-71908246D01*
X139219316Y-71903720D01*
X139251921Y-71881934D01*
X139290380Y-71874285D01*
X139328840Y-71881934D01*
G37*
G36*
X140955185Y-71881934D02*
G01*
X140987790Y-71903720D01*
X141482765Y-72398695D01*
X141504551Y-72431300D01*
X141512200Y-72469759D01*
X141504551Y-72508219D01*
X141482765Y-72540823D01*
X141394376Y-72629212D01*
X141361772Y-72650998D01*
X141323312Y-72658647D01*
X141284853Y-72650998D01*
X141252248Y-72629212D01*
X140757273Y-72134237D01*
X140735487Y-72101632D01*
X140727838Y-72063173D01*
X140735487Y-72024713D01*
X140757273Y-71992109D01*
X140761797Y-71987584D01*
X140761800Y-71987581D01*
X140841131Y-71908249D01*
X140841137Y-71908244D01*
X140845662Y-71903720D01*
X140878266Y-71881934D01*
X140916726Y-71874285D01*
X140955185Y-71881934D01*
G37*
G36*
X139410988Y-70154233D02*
G01*
X139423317Y-70162470D01*
X140837530Y-71576683D01*
X140845767Y-71589012D01*
X140848660Y-71603553D01*
X140845767Y-71618095D01*
X140837530Y-71630423D01*
X140130423Y-72337530D01*
X140118095Y-72345767D01*
X140103553Y-72348660D01*
X140089012Y-72345767D01*
X140076683Y-72337530D01*
X138662470Y-70923317D01*
X138654233Y-70910988D01*
X138651340Y-70896447D01*
X138654233Y-70881905D01*
X138662470Y-70869577D01*
X138666995Y-70865051D01*
X138666998Y-70865048D01*
X139365049Y-70166996D01*
X139365055Y-70166991D01*
X139369577Y-70162470D01*
X139381905Y-70154233D01*
X139396447Y-70151340D01*
X139410988Y-70154233D01*
G37*
G36*
X138975287Y-71528381D02*
G01*
X139007891Y-71550167D01*
X139012418Y-71554694D01*
X139091750Y-71634025D01*
X139091752Y-71634028D01*
X139096280Y-71638556D01*
X139118066Y-71671160D01*
X139125715Y-71709620D01*
X139118066Y-71748079D01*
X139096280Y-71780684D01*
X138601305Y-72275659D01*
X138568700Y-72297445D01*
X138530241Y-72305094D01*
X138491781Y-72297445D01*
X138459177Y-72275659D01*
X138419005Y-72235487D01*
X138375317Y-72191800D01*
X138375314Y-72191796D01*
X138370788Y-72187270D01*
X138349002Y-72154666D01*
X138341353Y-72116206D01*
X138349002Y-72077747D01*
X138370788Y-72045142D01*
X138615307Y-71800623D01*
X138861233Y-71554696D01*
X138861236Y-71554693D01*
X138865763Y-71550167D01*
X138898368Y-71528381D01*
X138936827Y-71520732D01*
X138975287Y-71528381D01*
G37*
G36*
X138621734Y-71174827D02*
G01*
X138654338Y-71196613D01*
X138658865Y-71201140D01*
X138738197Y-71280471D01*
X138738199Y-71280474D01*
X138742727Y-71285002D01*
X138764513Y-71317606D01*
X138772162Y-71356066D01*
X138764513Y-71394525D01*
X138742727Y-71427130D01*
X138247752Y-71922105D01*
X138215147Y-71943891D01*
X138176688Y-71951540D01*
X138138228Y-71943891D01*
X138105624Y-71922105D01*
X138065453Y-71881934D01*
X138021764Y-71838246D01*
X138021761Y-71838242D01*
X138017235Y-71833716D01*
X137995449Y-71801112D01*
X137987800Y-71762652D01*
X137995449Y-71724193D01*
X138017235Y-71691588D01*
X138261753Y-71447070D01*
X138507680Y-71201142D01*
X138507683Y-71201139D01*
X138512210Y-71196613D01*
X138544815Y-71174827D01*
X138583274Y-71167178D01*
X138621734Y-71174827D01*
G37*
G36*
X145019703Y-70358326D02*
G01*
X145025102Y-70358326D01*
X145067132Y-70374608D01*
X145109477Y-70389145D01*
X145114688Y-70393031D01*
X145123795Y-70396559D01*
X145175829Y-70437775D01*
X145341495Y-70603441D01*
X145808894Y-71070839D01*
X145808896Y-71070842D01*
X145812225Y-71074171D01*
X145853441Y-71126205D01*
X145856968Y-71135310D01*
X145860853Y-71140520D01*
X145875388Y-71182859D01*
X145891674Y-71224898D01*
X145891674Y-71230295D01*
X145891765Y-71230561D01*
X145891765Y-71325073D01*
X145891674Y-71325338D01*
X145891674Y-71330737D01*
X145875385Y-71372782D01*
X145860853Y-71415114D01*
X145856969Y-71420322D01*
X145853441Y-71429430D01*
X145812225Y-71481464D01*
X145717006Y-71576683D01*
X145444327Y-71849363D01*
X145444323Y-71849365D01*
X145440994Y-71852695D01*
X145388960Y-71893911D01*
X145379852Y-71897439D01*
X145374644Y-71901323D01*
X145332312Y-71915855D01*
X145290267Y-71932144D01*
X145284868Y-71932144D01*
X145284603Y-71932235D01*
X145190092Y-71932235D01*
X145189827Y-71932144D01*
X145184428Y-71932144D01*
X145142389Y-71915858D01*
X145100052Y-71901324D01*
X145094842Y-71897439D01*
X145085735Y-71893911D01*
X145033701Y-71852695D01*
X144575043Y-71394037D01*
X144400635Y-71219630D01*
X144400632Y-71219626D01*
X144397305Y-71216299D01*
X144356089Y-71164265D01*
X144352561Y-71155160D01*
X144348676Y-71149949D01*
X144334139Y-71107605D01*
X144317856Y-71065572D01*
X144317856Y-71060173D01*
X144317765Y-71059908D01*
X144317765Y-70965396D01*
X144317856Y-70965130D01*
X144317856Y-70959733D01*
X144334136Y-70917706D01*
X144348676Y-70875355D01*
X144352562Y-70870142D01*
X144356089Y-70861040D01*
X144397305Y-70809006D01*
X144400634Y-70805676D01*
X144400637Y-70805673D01*
X144765202Y-70441106D01*
X144765213Y-70441097D01*
X144768536Y-70437775D01*
X144820570Y-70396559D01*
X144829672Y-70393032D01*
X144834885Y-70389146D01*
X144877233Y-70374608D01*
X144919263Y-70358326D01*
X144924662Y-70358326D01*
X144924927Y-70358235D01*
X145019438Y-70358235D01*
X145019703Y-70358326D01*
G37*
G36*
X141715326Y-70909662D02*
G01*
X141747930Y-70931448D01*
X141752457Y-70935975D01*
X141831789Y-71015306D01*
X141831791Y-71015309D01*
X141836319Y-71019837D01*
X141858105Y-71052441D01*
X141865754Y-71090901D01*
X141858105Y-71129360D01*
X141836319Y-71161965D01*
X141341344Y-71656940D01*
X141308739Y-71678726D01*
X141270280Y-71686375D01*
X141231820Y-71678726D01*
X141199216Y-71656940D01*
X141159883Y-71617607D01*
X141115356Y-71573081D01*
X141115353Y-71573077D01*
X141110827Y-71568551D01*
X141089041Y-71535947D01*
X141081392Y-71497487D01*
X141089041Y-71459028D01*
X141110827Y-71426423D01*
X141355345Y-71181905D01*
X141601272Y-70935977D01*
X141601275Y-70935974D01*
X141605802Y-70931448D01*
X141638407Y-70909662D01*
X141676866Y-70902013D01*
X141715326Y-70909662D01*
G37*
G36*
X138268180Y-70821274D02*
G01*
X138300784Y-70843060D01*
X138305311Y-70847587D01*
X138384643Y-70926918D01*
X138384645Y-70926921D01*
X138389173Y-70931449D01*
X138410959Y-70964053D01*
X138418608Y-71002513D01*
X138410959Y-71040972D01*
X138389173Y-71073577D01*
X137894198Y-71568552D01*
X137861593Y-71590338D01*
X137823134Y-71597987D01*
X137784674Y-71590338D01*
X137752070Y-71568552D01*
X137711899Y-71528381D01*
X137668210Y-71484693D01*
X137668207Y-71484689D01*
X137663681Y-71480163D01*
X137641895Y-71447559D01*
X137634246Y-71409099D01*
X137641895Y-71370640D01*
X137663681Y-71338035D01*
X137910816Y-71090900D01*
X138154126Y-70847589D01*
X138154129Y-70847586D01*
X138158656Y-70843060D01*
X138191261Y-70821274D01*
X138229720Y-70813625D01*
X138268180Y-70821274D01*
G37*
G36*
X141361772Y-70556109D02*
G01*
X141394376Y-70577895D01*
X141398903Y-70582422D01*
X141478235Y-70661753D01*
X141478237Y-70661756D01*
X141482765Y-70666284D01*
X141504551Y-70698888D01*
X141512200Y-70737348D01*
X141504551Y-70775807D01*
X141482765Y-70808412D01*
X140987790Y-71303387D01*
X140955185Y-71325173D01*
X140916726Y-71332822D01*
X140878266Y-71325173D01*
X140845662Y-71303387D01*
X140822746Y-71280471D01*
X140761802Y-71219528D01*
X140761799Y-71219524D01*
X140757273Y-71214998D01*
X140735487Y-71182394D01*
X140727838Y-71143934D01*
X140735487Y-71105475D01*
X140757273Y-71072870D01*
X141001792Y-70828351D01*
X141247718Y-70582424D01*
X141247721Y-70582421D01*
X141252248Y-70577895D01*
X141284853Y-70556109D01*
X141323312Y-70548460D01*
X141361772Y-70556109D01*
G37*
G36*
X141008219Y-70202555D02*
G01*
X141040823Y-70224341D01*
X141045350Y-70228868D01*
X141124682Y-70308199D01*
X141124684Y-70308202D01*
X141129212Y-70312730D01*
X141150998Y-70345334D01*
X141158647Y-70383794D01*
X141150998Y-70422253D01*
X141129212Y-70454858D01*
X140634237Y-70949833D01*
X140601632Y-70971619D01*
X140563173Y-70979268D01*
X140524713Y-70971619D01*
X140492109Y-70949833D01*
X140451938Y-70909662D01*
X140408249Y-70865974D01*
X140408246Y-70865970D01*
X140403720Y-70861444D01*
X140381934Y-70828840D01*
X140374285Y-70790380D01*
X140381934Y-70751921D01*
X140403720Y-70719316D01*
X140648238Y-70474798D01*
X140894165Y-70228870D01*
X140894168Y-70228867D01*
X140898695Y-70224341D01*
X140931300Y-70202555D01*
X140969759Y-70194906D01*
X141008219Y-70202555D01*
G37*
G36*
X133878368Y-69376003D02*
G01*
X133883770Y-69376003D01*
X133925814Y-69392291D01*
X133968146Y-69406823D01*
X133973356Y-69410708D01*
X133982462Y-69414236D01*
X134034497Y-69455452D01*
X134388050Y-69809005D01*
X134429266Y-69861040D01*
X134432793Y-69870145D01*
X134436678Y-69875355D01*
X134451209Y-69917682D01*
X134467499Y-69959732D01*
X134467499Y-69965132D01*
X134467589Y-69965395D01*
X134467589Y-70059908D01*
X134467499Y-70060170D01*
X134467499Y-70065572D01*
X134451206Y-70107628D01*
X134436678Y-70149948D01*
X134432794Y-70155156D01*
X134429266Y-70164264D01*
X134388050Y-70216299D01*
X133716299Y-70888050D01*
X133664264Y-70929266D01*
X133655156Y-70932794D01*
X133649948Y-70936678D01*
X133607628Y-70951206D01*
X133565572Y-70967499D01*
X133560170Y-70967499D01*
X133559908Y-70967589D01*
X133465396Y-70967589D01*
X133465134Y-70967499D01*
X133459732Y-70967499D01*
X133417679Y-70951207D01*
X133375355Y-70936678D01*
X133370145Y-70932793D01*
X133361040Y-70929266D01*
X133309005Y-70888050D01*
X132955452Y-70534497D01*
X132914236Y-70482462D01*
X132910708Y-70473357D01*
X132906823Y-70468146D01*
X132892291Y-70425814D01*
X132876003Y-70383770D01*
X132876003Y-70378368D01*
X132875913Y-70378106D01*
X132875913Y-70283593D01*
X132876003Y-70283330D01*
X132876003Y-70277930D01*
X132892288Y-70235892D01*
X132906823Y-70193553D01*
X132910709Y-70188340D01*
X132914236Y-70179238D01*
X132955452Y-70127203D01*
X133281871Y-69800784D01*
X133623871Y-69458783D01*
X133623874Y-69458780D01*
X133627203Y-69455452D01*
X133679238Y-69414236D01*
X133688340Y-69410709D01*
X133693553Y-69406823D01*
X133735889Y-69392289D01*
X133777930Y-69376003D01*
X133783332Y-69376003D01*
X133783594Y-69375913D01*
X133878106Y-69375913D01*
X133878368Y-69376003D01*
G37*
G36*
X146310173Y-69067856D02*
G01*
X146315572Y-69067856D01*
X146357602Y-69084138D01*
X146399947Y-69098675D01*
X146405158Y-69102561D01*
X146414265Y-69106089D01*
X146466299Y-69147305D01*
X146642127Y-69323133D01*
X147099364Y-69780369D01*
X147099366Y-69780372D01*
X147102695Y-69783701D01*
X147143911Y-69835735D01*
X147147438Y-69844840D01*
X147151323Y-69850050D01*
X147165858Y-69892389D01*
X147182144Y-69934428D01*
X147182144Y-69939825D01*
X147182235Y-69940091D01*
X147182235Y-70034603D01*
X147182144Y-70034868D01*
X147182144Y-70040267D01*
X147165855Y-70082312D01*
X147151323Y-70124644D01*
X147147439Y-70129852D01*
X147143911Y-70138960D01*
X147102695Y-70190994D01*
X146985490Y-70308199D01*
X146734797Y-70558893D01*
X146734793Y-70558895D01*
X146731464Y-70562225D01*
X146679430Y-70603441D01*
X146670322Y-70606969D01*
X146665114Y-70610853D01*
X146622782Y-70625385D01*
X146580737Y-70641674D01*
X146575338Y-70641674D01*
X146575073Y-70641765D01*
X146480562Y-70641765D01*
X146480297Y-70641674D01*
X146474898Y-70641674D01*
X146432859Y-70625388D01*
X146390522Y-70610854D01*
X146385312Y-70606969D01*
X146376205Y-70603441D01*
X146324171Y-70562225D01*
X145863251Y-70101305D01*
X145691105Y-69929160D01*
X145691102Y-69929156D01*
X145687775Y-69925829D01*
X145646559Y-69873795D01*
X145643031Y-69864690D01*
X145639146Y-69859479D01*
X145624609Y-69817135D01*
X145608326Y-69775102D01*
X145608326Y-69769703D01*
X145608235Y-69769438D01*
X145608235Y-69674926D01*
X145608326Y-69674660D01*
X145608326Y-69669263D01*
X145624606Y-69627236D01*
X145639146Y-69584885D01*
X145643032Y-69579672D01*
X145646559Y-69570570D01*
X145687775Y-69518536D01*
X145691104Y-69515206D01*
X145691107Y-69515203D01*
X146055672Y-69150636D01*
X146055683Y-69150627D01*
X146059006Y-69147305D01*
X146111040Y-69106089D01*
X146120142Y-69102562D01*
X146125355Y-69098676D01*
X146167703Y-69084138D01*
X146209733Y-69067856D01*
X146215132Y-69067856D01*
X146215397Y-69067765D01*
X146309908Y-69067765D01*
X146310173Y-69067856D01*
G37*
G36*
X138215147Y-69849002D02*
G01*
X138247752Y-69870788D01*
X138742727Y-70365763D01*
X138764513Y-70398368D01*
X138772162Y-70436827D01*
X138764513Y-70475287D01*
X138742727Y-70507891D01*
X138654338Y-70596280D01*
X138621734Y-70618066D01*
X138583274Y-70625715D01*
X138544815Y-70618066D01*
X138512210Y-70596280D01*
X138017235Y-70101305D01*
X137995449Y-70068700D01*
X137987800Y-70030241D01*
X137995449Y-69991781D01*
X138017235Y-69959177D01*
X138021759Y-69954652D01*
X138021762Y-69954649D01*
X138101093Y-69875317D01*
X138101099Y-69875312D01*
X138105624Y-69870788D01*
X138138228Y-69849002D01*
X138176688Y-69841353D01*
X138215147Y-69849002D01*
G37*
G36*
X140654666Y-69849002D02*
G01*
X140687270Y-69870788D01*
X140691797Y-69875315D01*
X140771129Y-69954646D01*
X140771131Y-69954649D01*
X140775659Y-69959177D01*
X140797445Y-69991781D01*
X140805094Y-70030241D01*
X140797445Y-70068700D01*
X140775659Y-70101305D01*
X140280684Y-70596280D01*
X140248079Y-70618066D01*
X140209620Y-70625715D01*
X140171160Y-70618066D01*
X140138556Y-70596280D01*
X140098385Y-70556109D01*
X140054696Y-70512421D01*
X140054693Y-70512417D01*
X140050167Y-70507891D01*
X140028381Y-70475287D01*
X140020732Y-70436827D01*
X140028381Y-70398368D01*
X140050167Y-70365763D01*
X140294685Y-70121245D01*
X140540612Y-69875317D01*
X140540615Y-69875314D01*
X140545142Y-69870788D01*
X140577747Y-69849002D01*
X140616206Y-69841353D01*
X140654666Y-69849002D01*
G37*
G36*
X138568700Y-69495449D02*
G01*
X138601305Y-69517235D01*
X139096280Y-70012210D01*
X139118066Y-70044815D01*
X139125715Y-70083274D01*
X139118066Y-70121734D01*
X139096280Y-70154338D01*
X139007891Y-70242727D01*
X138975287Y-70264513D01*
X138936827Y-70272162D01*
X138898368Y-70264513D01*
X138865763Y-70242727D01*
X138370788Y-69747752D01*
X138349002Y-69715147D01*
X138341353Y-69676688D01*
X138349002Y-69638228D01*
X138370788Y-69605624D01*
X138375312Y-69601099D01*
X138375315Y-69601096D01*
X138454646Y-69521764D01*
X138454652Y-69521759D01*
X138459177Y-69517235D01*
X138491781Y-69495449D01*
X138530241Y-69487800D01*
X138568700Y-69495449D01*
G37*
G36*
X140301112Y-69495449D02*
G01*
X140333716Y-69517235D01*
X140338243Y-69521762D01*
X140417575Y-69601093D01*
X140417577Y-69601096D01*
X140422105Y-69605624D01*
X140443891Y-69638228D01*
X140451540Y-69676688D01*
X140443891Y-69715147D01*
X140422105Y-69747752D01*
X139927130Y-70242727D01*
X139894525Y-70264513D01*
X139856066Y-70272162D01*
X139817606Y-70264513D01*
X139785002Y-70242727D01*
X139744830Y-70202555D01*
X139701142Y-70158868D01*
X139701139Y-70158864D01*
X139696613Y-70154338D01*
X139674827Y-70121734D01*
X139667178Y-70083274D01*
X139674827Y-70044815D01*
X139696613Y-70012210D01*
X139941132Y-69767691D01*
X140187058Y-69521764D01*
X140187061Y-69521761D01*
X140191588Y-69517235D01*
X140224193Y-69495449D01*
X140262652Y-69487800D01*
X140301112Y-69495449D01*
G37*
G36*
X139947559Y-69141895D02*
G01*
X139980163Y-69163681D01*
X139984690Y-69168208D01*
X140064022Y-69247539D01*
X140064024Y-69247542D01*
X140068552Y-69252070D01*
X140090338Y-69284674D01*
X140097987Y-69323134D01*
X140090338Y-69361593D01*
X140068552Y-69394198D01*
X139573577Y-69889173D01*
X139540972Y-69910959D01*
X139502513Y-69918608D01*
X139464053Y-69910959D01*
X139431449Y-69889173D01*
X139391278Y-69849002D01*
X139347589Y-69805314D01*
X139347586Y-69805310D01*
X139343060Y-69800784D01*
X139321274Y-69768180D01*
X139313625Y-69729720D01*
X139321274Y-69691261D01*
X139343060Y-69658656D01*
X139587480Y-69414236D01*
X139833505Y-69168210D01*
X139833508Y-69168207D01*
X139838035Y-69163681D01*
X139870640Y-69141895D01*
X139909099Y-69134246D01*
X139947559Y-69141895D01*
G37*
G36*
X132534866Y-68032501D02*
G01*
X132540268Y-68032501D01*
X132582312Y-68048789D01*
X132624644Y-68063321D01*
X132629854Y-68067206D01*
X132638960Y-68070734D01*
X132690995Y-68111950D01*
X133044548Y-68465503D01*
X133085764Y-68517538D01*
X133089291Y-68526643D01*
X133093176Y-68531853D01*
X133107707Y-68574180D01*
X133123997Y-68616230D01*
X133123997Y-68621630D01*
X133124087Y-68621893D01*
X133124087Y-68716406D01*
X133123997Y-68716668D01*
X133123997Y-68722070D01*
X133107704Y-68764126D01*
X133093176Y-68806446D01*
X133089292Y-68811654D01*
X133085764Y-68820762D01*
X133044548Y-68872797D01*
X132372797Y-69544548D01*
X132320762Y-69585764D01*
X132311654Y-69589292D01*
X132306446Y-69593176D01*
X132264126Y-69607704D01*
X132222070Y-69623997D01*
X132216668Y-69623997D01*
X132216406Y-69624087D01*
X132121894Y-69624087D01*
X132121632Y-69623997D01*
X132116230Y-69623997D01*
X132074177Y-69607705D01*
X132031853Y-69593176D01*
X132026643Y-69589291D01*
X132017538Y-69585764D01*
X131965503Y-69544548D01*
X131611950Y-69190995D01*
X131570734Y-69138960D01*
X131567206Y-69129855D01*
X131563321Y-69124644D01*
X131548789Y-69082312D01*
X131532501Y-69040268D01*
X131532501Y-69034866D01*
X131532411Y-69034604D01*
X131532411Y-68940091D01*
X131532501Y-68939828D01*
X131532501Y-68934428D01*
X131548786Y-68892390D01*
X131563321Y-68850051D01*
X131567207Y-68844838D01*
X131570734Y-68835736D01*
X131611950Y-68783701D01*
X131935918Y-68459733D01*
X132280369Y-68115281D01*
X132280372Y-68115278D01*
X132283701Y-68111950D01*
X132335736Y-68070734D01*
X132344838Y-68067207D01*
X132350051Y-68063321D01*
X132392387Y-68048787D01*
X132434428Y-68032501D01*
X132439830Y-68032501D01*
X132440092Y-68032411D01*
X132534604Y-68032411D01*
X132534866Y-68032501D01*
G37*
G36*
X135325338Y-67858326D02*
G01*
X135330737Y-67858326D01*
X135372770Y-67874609D01*
X135415114Y-67889146D01*
X135420325Y-67893031D01*
X135429430Y-67896559D01*
X135481464Y-67937775D01*
X135484796Y-67941107D01*
X135849363Y-68305672D01*
X135849368Y-68305679D01*
X135852695Y-68309006D01*
X135893911Y-68361040D01*
X135897438Y-68370145D01*
X135901323Y-68375355D01*
X135915858Y-68417694D01*
X135932144Y-68459733D01*
X135932144Y-68465130D01*
X135932235Y-68465396D01*
X135932235Y-68559908D01*
X135932144Y-68560173D01*
X135932144Y-68565572D01*
X135915857Y-68607614D01*
X135901324Y-68649947D01*
X135897439Y-68655155D01*
X135893911Y-68664265D01*
X135852695Y-68716299D01*
X135216299Y-69352695D01*
X135164265Y-69393911D01*
X135155157Y-69397439D01*
X135149949Y-69401323D01*
X135107617Y-69415855D01*
X135065572Y-69432144D01*
X135060173Y-69432144D01*
X135059908Y-69432235D01*
X134965397Y-69432235D01*
X134965132Y-69432144D01*
X134959733Y-69432144D01*
X134917691Y-69415857D01*
X134875355Y-69401323D01*
X134870145Y-69397438D01*
X134861040Y-69393911D01*
X134809006Y-69352695D01*
X134740985Y-69284674D01*
X134441106Y-68984797D01*
X134441100Y-68984789D01*
X134437775Y-68981464D01*
X134396559Y-68929430D01*
X134393031Y-68920325D01*
X134389146Y-68915114D01*
X134374609Y-68872770D01*
X134358326Y-68830737D01*
X134358326Y-68825338D01*
X134358235Y-68825073D01*
X134358235Y-68730561D01*
X134358326Y-68730295D01*
X134358326Y-68724898D01*
X134374605Y-68682875D01*
X134389145Y-68640522D01*
X134393031Y-68635309D01*
X134396559Y-68626205D01*
X134437775Y-68574171D01*
X134569330Y-68442616D01*
X135070839Y-67941105D01*
X135070846Y-67941099D01*
X135074171Y-67937775D01*
X135126205Y-67896559D01*
X135135307Y-67893032D01*
X135140520Y-67889146D01*
X135182868Y-67874608D01*
X135224898Y-67858326D01*
X135230297Y-67858326D01*
X135230562Y-67858235D01*
X135325073Y-67858235D01*
X135325338Y-67858326D01*
G37*
G36*
X137181792Y-66807048D02*
G01*
X137333563Y-66869914D01*
X137470155Y-66961181D01*
X137586316Y-67077342D01*
X137677583Y-67213934D01*
X137740449Y-67365705D01*
X137772498Y-67526826D01*
X137772498Y-67691102D01*
X137740449Y-67852223D01*
X137677583Y-68003994D01*
X137586316Y-68140586D01*
X137470155Y-68256747D01*
X137333563Y-68348014D01*
X137181792Y-68410880D01*
X137020671Y-68442929D01*
X136856395Y-68442929D01*
X136695274Y-68410880D01*
X136543503Y-68348014D01*
X136406911Y-68256747D01*
X136290750Y-68140586D01*
X136199483Y-68003994D01*
X136136617Y-67852223D01*
X136104568Y-67691102D01*
X136104568Y-67526826D01*
X136136617Y-67365705D01*
X136199483Y-67213934D01*
X136290750Y-67077342D01*
X136406911Y-66961181D01*
X136543503Y-66869914D01*
X136695274Y-66807048D01*
X136856395Y-66774999D01*
X137020671Y-66774999D01*
X137181792Y-66807048D01*
G37*
G36*
X143304726Y-66807048D02*
G01*
X143456497Y-66869914D01*
X143593089Y-66961181D01*
X143709250Y-67077342D01*
X143800517Y-67213934D01*
X143863383Y-67365705D01*
X143895432Y-67526826D01*
X143895432Y-67691102D01*
X143863383Y-67852223D01*
X143800517Y-68003994D01*
X143709250Y-68140586D01*
X143593089Y-68256747D01*
X143456497Y-68348014D01*
X143304726Y-68410880D01*
X143143605Y-68442929D01*
X142979329Y-68442929D01*
X142818208Y-68410880D01*
X142666437Y-68348014D01*
X142529845Y-68256747D01*
X142413684Y-68140586D01*
X142322417Y-68003994D01*
X142259551Y-67852223D01*
X142227502Y-67691102D01*
X142227502Y-67526826D01*
X142259551Y-67365705D01*
X142322417Y-67213934D01*
X142413684Y-67077342D01*
X142529845Y-66961181D01*
X142666437Y-66869914D01*
X142818208Y-66807048D01*
X142979329Y-66774999D01*
X143143605Y-66774999D01*
X143304726Y-66807048D01*
G37*
G36*
X134034868Y-66567856D02*
G01*
X134040267Y-66567856D01*
X134082300Y-66584139D01*
X134124644Y-66598676D01*
X134129855Y-66602561D01*
X134138960Y-66606089D01*
X134190994Y-66647305D01*
X134194326Y-66650637D01*
X134558893Y-67015202D01*
X134558898Y-67015209D01*
X134562225Y-67018536D01*
X134603441Y-67070570D01*
X134606968Y-67079675D01*
X134610853Y-67084885D01*
X134625388Y-67127224D01*
X134641674Y-67169263D01*
X134641674Y-67174660D01*
X134641765Y-67174926D01*
X134641765Y-67269438D01*
X134641674Y-67269703D01*
X134641674Y-67275102D01*
X134625387Y-67317144D01*
X134610854Y-67359477D01*
X134606969Y-67364685D01*
X134603441Y-67373795D01*
X134562225Y-67425829D01*
X133925829Y-68062225D01*
X133873795Y-68103441D01*
X133864687Y-68106969D01*
X133859479Y-68110853D01*
X133817147Y-68125385D01*
X133775102Y-68141674D01*
X133769703Y-68141674D01*
X133769438Y-68141765D01*
X133674927Y-68141765D01*
X133674662Y-68141674D01*
X133669263Y-68141674D01*
X133627221Y-68125387D01*
X133584885Y-68110853D01*
X133579675Y-68106968D01*
X133570570Y-68103441D01*
X133518536Y-68062225D01*
X133460156Y-68003845D01*
X133150636Y-67694327D01*
X133150630Y-67694319D01*
X133147305Y-67690994D01*
X133106089Y-67638960D01*
X133102561Y-67629855D01*
X133098676Y-67624644D01*
X133084139Y-67582300D01*
X133067856Y-67540267D01*
X133067856Y-67534868D01*
X133067765Y-67534603D01*
X133067765Y-67440091D01*
X133067856Y-67439825D01*
X133067856Y-67434428D01*
X133084135Y-67392405D01*
X133098675Y-67350052D01*
X133102561Y-67344839D01*
X133106089Y-67335735D01*
X133147305Y-67283701D01*
X133261743Y-67169263D01*
X133780369Y-66650635D01*
X133780376Y-66650629D01*
X133783701Y-66647305D01*
X133835735Y-66606089D01*
X133844837Y-66602562D01*
X133850050Y-66598676D01*
X133892398Y-66584138D01*
X133934428Y-66567856D01*
X133939827Y-66567856D01*
X133940092Y-66567765D01*
X134034603Y-66567765D01*
X134034868Y-66567856D01*
G37*
G36*
X141515938Y-66619650D02*
G01*
X141524871Y-66623594D01*
X141531300Y-66624531D01*
X141571498Y-66644182D01*
X141612759Y-66662401D01*
X141616578Y-66666220D01*
X141616829Y-66666343D01*
X141683656Y-66733170D01*
X141683778Y-66733420D01*
X141687599Y-66737241D01*
X141705822Y-66778512D01*
X141725468Y-66818699D01*
X141726404Y-66825126D01*
X141730350Y-66834062D01*
X141738000Y-66900000D01*
X141738000Y-67425000D01*
X141730350Y-67490938D01*
X141726404Y-67499874D01*
X141725468Y-67506300D01*
X141705826Y-67546477D01*
X141687599Y-67587759D01*
X141683777Y-67591580D01*
X141683656Y-67591829D01*
X141616829Y-67658656D01*
X141616580Y-67658777D01*
X141612759Y-67662599D01*
X141571477Y-67680826D01*
X141531300Y-67700468D01*
X141524874Y-67701404D01*
X141515938Y-67705350D01*
X141450000Y-67713000D01*
X140550000Y-67713000D01*
X140484062Y-67705350D01*
X140475126Y-67701404D01*
X140468699Y-67700468D01*
X140428512Y-67680822D01*
X140387241Y-67662599D01*
X140383420Y-67658778D01*
X140383170Y-67658656D01*
X140316343Y-67591829D01*
X140316220Y-67591578D01*
X140312401Y-67587759D01*
X140294182Y-67546498D01*
X140274531Y-67506300D01*
X140273594Y-67499871D01*
X140269650Y-67490938D01*
X140262000Y-67425000D01*
X140262000Y-66900000D01*
X140269650Y-66834062D01*
X140273594Y-66825129D01*
X140274531Y-66818699D01*
X140294186Y-66778491D01*
X140312401Y-66737241D01*
X140316219Y-66733422D01*
X140316343Y-66733170D01*
X140383170Y-66666343D01*
X140383422Y-66666219D01*
X140387241Y-66662401D01*
X140428491Y-66644186D01*
X140468699Y-66624531D01*
X140475129Y-66623594D01*
X140484062Y-66619650D01*
X140550000Y-66612000D01*
X141450000Y-66612000D01*
X141515938Y-66619650D01*
G37*
G36*
X141515938Y-64794650D02*
G01*
X141524871Y-64798594D01*
X141531300Y-64799531D01*
X141571498Y-64819182D01*
X141612759Y-64837401D01*
X141616578Y-64841220D01*
X141616829Y-64841343D01*
X141683656Y-64908170D01*
X141683778Y-64908420D01*
X141687599Y-64912241D01*
X141705822Y-64953512D01*
X141725468Y-64993699D01*
X141726404Y-65000126D01*
X141730350Y-65009062D01*
X141738000Y-65075000D01*
X141738000Y-65600000D01*
X141730350Y-65665938D01*
X141726404Y-65674874D01*
X141725468Y-65681300D01*
X141705826Y-65721477D01*
X141687599Y-65762759D01*
X141683777Y-65766580D01*
X141683656Y-65766829D01*
X141616829Y-65833656D01*
X141616580Y-65833777D01*
X141612759Y-65837599D01*
X141571477Y-65855826D01*
X141531300Y-65875468D01*
X141524874Y-65876404D01*
X141515938Y-65880350D01*
X141450000Y-65888000D01*
X140550000Y-65888000D01*
X140484062Y-65880350D01*
X140475126Y-65876404D01*
X140468699Y-65875468D01*
X140428512Y-65855822D01*
X140387241Y-65837599D01*
X140383420Y-65833778D01*
X140383170Y-65833656D01*
X140316343Y-65766829D01*
X140316220Y-65766578D01*
X140312401Y-65762759D01*
X140294182Y-65721498D01*
X140274531Y-65681300D01*
X140273594Y-65674871D01*
X140269650Y-65665938D01*
X140262000Y-65600000D01*
X140262000Y-65075000D01*
X140269650Y-65009062D01*
X140273594Y-65000129D01*
X140274531Y-64993699D01*
X140294186Y-64953491D01*
X140312401Y-64912241D01*
X140316219Y-64908422D01*
X140316343Y-64908170D01*
X140383170Y-64841343D01*
X140383422Y-64841219D01*
X140387241Y-64837401D01*
X140428491Y-64819186D01*
X140468699Y-64799531D01*
X140475129Y-64798594D01*
X140484062Y-64794650D01*
X140550000Y-64787000D01*
X141450000Y-64787000D01*
X141515938Y-64794650D01*
G37*
G36*
X135784542Y-60114893D02*
G01*
X135796870Y-60123130D01*
X135805107Y-60135458D01*
X135808000Y-60150000D01*
X135808000Y-61850000D01*
X135805107Y-61864542D01*
X135796870Y-61876870D01*
X135784542Y-61885107D01*
X135770000Y-61888000D01*
X134070000Y-61888000D01*
X134055458Y-61885107D01*
X134043130Y-61876870D01*
X134034893Y-61864542D01*
X134032000Y-61850000D01*
X134032000Y-60150000D01*
X134034893Y-60135458D01*
X134043130Y-60123130D01*
X134055458Y-60114893D01*
X134070000Y-60112000D01*
X135770000Y-60112000D01*
X135784542Y-60114893D01*
G37*
G36*
X137717773Y-60150237D02*
G01*
X137878600Y-60216854D01*
X138023341Y-60313567D01*
X138146433Y-60436659D01*
X138243146Y-60581400D01*
X138309763Y-60742227D01*
X138343724Y-60912961D01*
X138343724Y-61087039D01*
X138309763Y-61257773D01*
X138243146Y-61418600D01*
X138146433Y-61563341D01*
X138023341Y-61686433D01*
X137878600Y-61783146D01*
X137717773Y-61849763D01*
X137547039Y-61883724D01*
X137372961Y-61883724D01*
X137202227Y-61849763D01*
X137041400Y-61783146D01*
X136896659Y-61686433D01*
X136773567Y-61563341D01*
X136676854Y-61418600D01*
X136610237Y-61257773D01*
X136576276Y-61087039D01*
X136576276Y-60912961D01*
X136610237Y-60742227D01*
X136676854Y-60581400D01*
X136773567Y-60436659D01*
X136896659Y-60313567D01*
X137041400Y-60216854D01*
X137202227Y-60150237D01*
X137372961Y-60116276D01*
X137547039Y-60116276D01*
X137717773Y-60150237D01*
G37*
G36*
X140257773Y-60150237D02*
G01*
X140418600Y-60216854D01*
X140563341Y-60313567D01*
X140686433Y-60436659D01*
X140783146Y-60581400D01*
X140849763Y-60742227D01*
X140883724Y-60912961D01*
X140883724Y-61087039D01*
X140849763Y-61257773D01*
X140783146Y-61418600D01*
X140686433Y-61563341D01*
X140563341Y-61686433D01*
X140418600Y-61783146D01*
X140257773Y-61849763D01*
X140087039Y-61883724D01*
X139912961Y-61883724D01*
X139742227Y-61849763D01*
X139581400Y-61783146D01*
X139436659Y-61686433D01*
X139313567Y-61563341D01*
X139216854Y-61418600D01*
X139150237Y-61257773D01*
X139116276Y-61087039D01*
X139116276Y-60912961D01*
X139150237Y-60742227D01*
X139216854Y-60581400D01*
X139313567Y-60436659D01*
X139436659Y-60313567D01*
X139581400Y-60216854D01*
X139742227Y-60150237D01*
X139912961Y-60116276D01*
X140087039Y-60116276D01*
X140257773Y-60150237D01*
G37*
G36*
X142797773Y-60150237D02*
G01*
X142958600Y-60216854D01*
X143103341Y-60313567D01*
X143226433Y-60436659D01*
X143323146Y-60581400D01*
X143389763Y-60742227D01*
X143423724Y-60912961D01*
X143423724Y-61087039D01*
X143389763Y-61257773D01*
X143323146Y-61418600D01*
X143226433Y-61563341D01*
X143103341Y-61686433D01*
X142958600Y-61783146D01*
X142797773Y-61849763D01*
X142627039Y-61883724D01*
X142452961Y-61883724D01*
X142282227Y-61849763D01*
X142121400Y-61783146D01*
X141976659Y-61686433D01*
X141853567Y-61563341D01*
X141756854Y-61418600D01*
X141690237Y-61257773D01*
X141656276Y-61087039D01*
X141656276Y-60912961D01*
X141690237Y-60742227D01*
X141756854Y-60581400D01*
X141853567Y-60436659D01*
X141976659Y-60313567D01*
X142121400Y-60216854D01*
X142282227Y-60150237D01*
X142452961Y-60116276D01*
X142627039Y-60116276D01*
X142797773Y-60150237D01*
G37*
G36*
X145337773Y-60150237D02*
G01*
X145498600Y-60216854D01*
X145643341Y-60313567D01*
X145766433Y-60436659D01*
X145863146Y-60581400D01*
X145929763Y-60742227D01*
X145963724Y-60912961D01*
X145963724Y-61087039D01*
X145929763Y-61257773D01*
X145863146Y-61418600D01*
X145766433Y-61563341D01*
X145643341Y-61686433D01*
X145498600Y-61783146D01*
X145337773Y-61849763D01*
X145167039Y-61883724D01*
X144992961Y-61883724D01*
X144822227Y-61849763D01*
X144661400Y-61783146D01*
X144516659Y-61686433D01*
X144393567Y-61563341D01*
X144296854Y-61418600D01*
X144230237Y-61257773D01*
X144196276Y-61087039D01*
X144196276Y-60912961D01*
X144230237Y-60742227D01*
X144296854Y-60581400D01*
X144393567Y-60436659D01*
X144516659Y-60313567D01*
X144661400Y-60216854D01*
X144822227Y-60150237D01*
X144992961Y-60116276D01*
X145167039Y-60116276D01*
X145337773Y-60150237D01*
G37*
M02*
