%TF.GenerationSoftware,KiCad,Pcbnew,9.0.3-9.0.3-0~ubuntu22.04.1*%
%TF.CreationDate,2025-07-21T05:59:17-07:00*%
%TF.ProjectId,rotary-switch-shift,726f7461-7279-42d7-9377-697463682d73,rev?*%
%TF.SameCoordinates,Original*%
%TF.FileFunction,Copper,L2,Bot*%
%TF.FilePolarity,Positive*%
%FSLAX46Y46*%
G04 Gerber Fmt 4.6, Leading zero omitted, Abs format (unit mm)*
G04 Created by KiCad (PCBNEW 9.0.3-9.0.3-0~ubuntu22.04.1) date 2025-07-21 05:59:17*
%MOMM*%
%LPD*%
G01*
G04 APERTURE LIST*
%TA.AperFunction,ComponentPad*%
%ADD10R,1.700000X1.700000*%
%TD*%
%TA.AperFunction,ComponentPad*%
%ADD11C,1.700000*%
%TD*%
%TA.AperFunction,ComponentPad*%
%ADD12C,1.600000*%
%TD*%
%TA.AperFunction,ViaPad*%
%ADD13C,0.600000*%
%TD*%
%TA.AperFunction,ViaPad*%
%ADD14C,0.800000*%
%TD*%
%TA.AperFunction,ViaPad*%
%ADD15C,0.700000*%
%TD*%
%TA.AperFunction,Conductor*%
%ADD16C,0.250000*%
%TD*%
G04 APERTURE END LIST*
D10*
%TO.P,J1,1,Pin_1*%
%TO.N,GND*%
X134920000Y-61000000D03*
D11*
%TO.P,J1,2,Pin_2*%
%TO.N,/GP_CP*%
X137460000Y-61000000D03*
%TO.P,J1,3,Pin_3*%
%TO.N,/GP_PL*%
X140000000Y-61000000D03*
%TO.P,J1,4,Pin_4*%
%TO.N,/GP_Q7*%
X142540000Y-61000000D03*
%TO.P,J1,5,Pin_5*%
%TO.N,+3.3V*%
X145080000Y-61000000D03*
%TD*%
D12*
%TO.P,SW1,1*%
%TO.N,Net-(U1-D0)*%
X143061467Y-82391036D03*
%TO.P,SW1,2*%
%TO.N,Net-(U1-D1)*%
X147391036Y-78061467D03*
%TO.P,SW1,3*%
%TO.N,Net-(U1-D2)*%
X147391036Y-71938533D03*
%TO.P,SW1,4*%
%TO.N,Net-(U1-D3)*%
X143061467Y-67608964D03*
%TO.P,SW1,5*%
%TO.N,Net-(U1-D4)*%
X136938533Y-67608964D03*
%TO.P,SW1,6*%
%TO.N,Net-(U1-D5)*%
X132608964Y-71938533D03*
%TO.P,SW1,7*%
%TO.N,Net-(U1-D6)*%
X132608964Y-78061467D03*
%TO.P,SW1,8*%
%TO.N,Net-(U1-D7)*%
X136938533Y-82391036D03*
%TO.P,SW1,A,Common*%
%TO.N,GND*%
X142750000Y-75000000D03*
%TO.P,SW1,B,Common*%
X140000000Y-75000000D03*
%TO.P,SW1,C,Common*%
X137250000Y-75000000D03*
%TD*%
D13*
%TO.N,GND*%
X148000000Y-68000000D03*
D14*
X142163880Y-72036120D03*
X140950000Y-68325000D03*
D13*
X137000000Y-78000000D03*
D14*
X141250000Y-73750000D03*
D13*
X142000000Y-63500000D03*
X132000000Y-63000000D03*
D14*
X134500000Y-71000000D03*
D13*
X148000000Y-63000000D03*
X133750000Y-76000000D03*
X140500000Y-80500000D03*
X143500000Y-77000000D03*
X136000000Y-64000000D03*
X132000000Y-66000000D03*
D14*
%TO.N,+3.3V*%
X139822012Y-68274004D03*
X137250000Y-66000000D03*
D15*
%TO.N,/GP_Q7*%
X144102298Y-70075000D03*
X142885804Y-72728096D03*
%TD*%
D16*
%TO.N,+3.3V*%
X137975000Y-66000000D02*
X139475000Y-67500000D01*
X139475000Y-67500000D02*
X139475000Y-67500317D01*
X139548008Y-68000000D02*
X139822012Y-68274004D01*
X139548008Y-67573325D02*
X139548008Y-68000000D01*
X139475000Y-67500317D02*
X139548008Y-67573325D01*
X137250000Y-66000000D02*
X137975000Y-66000000D01*
%TO.N,/GP_Q7*%
X144102298Y-70397702D02*
X144102298Y-70075000D01*
X143284591Y-72329309D02*
X143284591Y-71215409D01*
X142885804Y-72728096D02*
X143284591Y-72329309D01*
X143284591Y-71215409D02*
X144102298Y-70397702D01*
%TD*%
%TA.AperFunction,Conductor*%
%TO.N,GND*%
G36*
X145912675Y-59635327D02*
G01*
X145913823Y-59635743D01*
X146162515Y-59727491D01*
X146176534Y-59732663D01*
X146185528Y-59736389D01*
X146421015Y-59844949D01*
X146579588Y-59918052D01*
X146583092Y-59919667D01*
X146591768Y-59924088D01*
X146973734Y-60138000D01*
X146982036Y-60143087D01*
X147346031Y-60386301D01*
X147353905Y-60392022D01*
X147697711Y-60663056D01*
X147705102Y-60669369D01*
X148026583Y-60966543D01*
X148033456Y-60973416D01*
X148236431Y-61192993D01*
X148330625Y-61294891D01*
X148336948Y-61302294D01*
X148607975Y-61646091D01*
X148613698Y-61653968D01*
X148856912Y-62017963D01*
X148861999Y-62026265D01*
X149075911Y-62408231D01*
X149080332Y-62416907D01*
X149263610Y-62814471D01*
X149267336Y-62823465D01*
X149418865Y-63234199D01*
X149421873Y-63243460D01*
X149540699Y-63664787D01*
X149542972Y-63674254D01*
X149628377Y-64103613D01*
X149629901Y-64113230D01*
X149681358Y-64547995D01*
X149682121Y-64557700D01*
X149699404Y-64997555D01*
X149699500Y-65002424D01*
X149699500Y-74998046D01*
X149699439Y-75001941D01*
X149680482Y-75605140D01*
X149679993Y-75612914D01*
X149623382Y-76211799D01*
X149622405Y-76219528D01*
X149528306Y-76813645D01*
X149526847Y-76821297D01*
X149395619Y-77408376D01*
X149393681Y-77415921D01*
X149225861Y-77993562D01*
X149223454Y-78000970D01*
X149019688Y-78566952D01*
X149016821Y-78574195D01*
X148777917Y-79126269D01*
X148774600Y-79133318D01*
X148501503Y-79669302D01*
X148497750Y-79676128D01*
X148191541Y-80193899D01*
X148187367Y-80200476D01*
X147849248Y-80698003D01*
X147844669Y-80704306D01*
X147475989Y-81179604D01*
X147471024Y-81185606D01*
X147073200Y-81636850D01*
X147067867Y-81642528D01*
X146642528Y-82067867D01*
X146636850Y-82073200D01*
X146185606Y-82471024D01*
X146179604Y-82475989D01*
X145896523Y-82695570D01*
X145704297Y-82844675D01*
X145698003Y-82849248D01*
X145200476Y-83187367D01*
X145193899Y-83191541D01*
X144676128Y-83497750D01*
X144669302Y-83501503D01*
X144133318Y-83774600D01*
X144126269Y-83777917D01*
X143574195Y-84016821D01*
X143566952Y-84019688D01*
X143000970Y-84223454D01*
X142993562Y-84225861D01*
X142415921Y-84393681D01*
X142408376Y-84395619D01*
X141821297Y-84526847D01*
X141813645Y-84528306D01*
X141219528Y-84622405D01*
X141211799Y-84623382D01*
X140612914Y-84679993D01*
X140605140Y-84680482D01*
X140003895Y-84699377D01*
X139996105Y-84699377D01*
X139394859Y-84680482D01*
X139387085Y-84679993D01*
X138788200Y-84623382D01*
X138780471Y-84622405D01*
X138186354Y-84528306D01*
X138178702Y-84526847D01*
X137591623Y-84395619D01*
X137584078Y-84393681D01*
X137006437Y-84225861D01*
X136999029Y-84223454D01*
X136433047Y-84019688D01*
X136425804Y-84016821D01*
X135873730Y-83777917D01*
X135866681Y-83774600D01*
X135330697Y-83501503D01*
X135323871Y-83497750D01*
X134806100Y-83191541D01*
X134799523Y-83187367D01*
X134580293Y-83038378D01*
X134301988Y-82849242D01*
X134295717Y-82844686D01*
X133820395Y-82475989D01*
X133814393Y-82471024D01*
X133707546Y-82376826D01*
X133607568Y-82288684D01*
X135638033Y-82288684D01*
X135638033Y-82493387D01*
X135670055Y-82695570D01*
X135733314Y-82890259D01*
X135826248Y-83072649D01*
X135946561Y-83238249D01*
X136091319Y-83383007D01*
X136246282Y-83495592D01*
X136256923Y-83503323D01*
X136373140Y-83562539D01*
X136439309Y-83596254D01*
X136439311Y-83596254D01*
X136439314Y-83596256D01*
X136543670Y-83630163D01*
X136633998Y-83659513D01*
X136735090Y-83675524D01*
X136836181Y-83691536D01*
X136836182Y-83691536D01*
X137040884Y-83691536D01*
X137040885Y-83691536D01*
X137243067Y-83659513D01*
X137437752Y-83596256D01*
X137620143Y-83503323D01*
X137713123Y-83435768D01*
X137785746Y-83383007D01*
X137785748Y-83383004D01*
X137785752Y-83383002D01*
X137930499Y-83238255D01*
X137930501Y-83238251D01*
X137930504Y-83238249D01*
X137983265Y-83165626D01*
X138050820Y-83072646D01*
X138143753Y-82890255D01*
X138207010Y-82695570D01*
X138239033Y-82493388D01*
X138239033Y-82288684D01*
X141760967Y-82288684D01*
X141760967Y-82493387D01*
X141792989Y-82695570D01*
X141856248Y-82890259D01*
X141949182Y-83072649D01*
X142069495Y-83238249D01*
X142214253Y-83383007D01*
X142369216Y-83495592D01*
X142379857Y-83503323D01*
X142496074Y-83562539D01*
X142562243Y-83596254D01*
X142562245Y-83596254D01*
X142562248Y-83596256D01*
X142666604Y-83630163D01*
X142756932Y-83659513D01*
X142858024Y-83675524D01*
X142959115Y-83691536D01*
X142959116Y-83691536D01*
X143163818Y-83691536D01*
X143163819Y-83691536D01*
X143366001Y-83659513D01*
X143560686Y-83596256D01*
X143743077Y-83503323D01*
X143836057Y-83435768D01*
X143908680Y-83383007D01*
X143908682Y-83383004D01*
X143908686Y-83383002D01*
X144053433Y-83238255D01*
X144053435Y-83238251D01*
X144053438Y-83238249D01*
X144106199Y-83165626D01*
X144173754Y-83072646D01*
X144266687Y-82890255D01*
X144329944Y-82695570D01*
X144361967Y-82493388D01*
X144361967Y-82288684D01*
X144329944Y-82086502D01*
X144322459Y-82063467D01*
X144266685Y-81891812D01*
X144232970Y-81825643D01*
X144173754Y-81709426D01*
X144166023Y-81698785D01*
X144053438Y-81543822D01*
X143908680Y-81399064D01*
X143743080Y-81278751D01*
X143743079Y-81278750D01*
X143743077Y-81278749D01*
X143686120Y-81249727D01*
X143560690Y-81185817D01*
X143366001Y-81122558D01*
X143191462Y-81094914D01*
X143163819Y-81090536D01*
X142959115Y-81090536D01*
X142934796Y-81094387D01*
X142756932Y-81122558D01*
X142562243Y-81185817D01*
X142379853Y-81278751D01*
X142214253Y-81399064D01*
X142069495Y-81543822D01*
X141949182Y-81709422D01*
X141856248Y-81891812D01*
X141792989Y-82086501D01*
X141760967Y-82288684D01*
X138239033Y-82288684D01*
X138207010Y-82086502D01*
X138199525Y-82063467D01*
X138143751Y-81891812D01*
X138110036Y-81825643D01*
X138050820Y-81709426D01*
X138043089Y-81698785D01*
X137930504Y-81543822D01*
X137785746Y-81399064D01*
X137620146Y-81278751D01*
X137620145Y-81278750D01*
X137620143Y-81278749D01*
X137563186Y-81249727D01*
X137437756Y-81185817D01*
X137243067Y-81122558D01*
X137068528Y-81094914D01*
X137040885Y-81090536D01*
X136836181Y-81090536D01*
X136811862Y-81094387D01*
X136633998Y-81122558D01*
X136439309Y-81185817D01*
X136256919Y-81278751D01*
X136091319Y-81399064D01*
X135946561Y-81543822D01*
X135826248Y-81709422D01*
X135733314Y-81891812D01*
X135670055Y-82086501D01*
X135638033Y-82288684D01*
X133607568Y-82288684D01*
X133363149Y-82073200D01*
X133357471Y-82067867D01*
X132932132Y-81642528D01*
X132926799Y-81636850D01*
X132528975Y-81185606D01*
X132524010Y-81179604D01*
X132155309Y-80704277D01*
X132150761Y-80698017D01*
X131812631Y-80200475D01*
X131808458Y-80193899D01*
X131502249Y-79676128D01*
X131498496Y-79669302D01*
X131225399Y-79133318D01*
X131222082Y-79126269D01*
X131143047Y-78943630D01*
X130983174Y-78574186D01*
X130980311Y-78566952D01*
X130776545Y-78000970D01*
X130774135Y-77993551D01*
X130772763Y-77988827D01*
X130764131Y-77959115D01*
X131308464Y-77959115D01*
X131308464Y-78163818D01*
X131340486Y-78366001D01*
X131403745Y-78560690D01*
X131496679Y-78743080D01*
X131616992Y-78908680D01*
X131761750Y-79053438D01*
X131866919Y-79129846D01*
X131927354Y-79173754D01*
X132043571Y-79232970D01*
X132109740Y-79266685D01*
X132109742Y-79266685D01*
X132109745Y-79266687D01*
X132214101Y-79300594D01*
X132304429Y-79329944D01*
X132405521Y-79345955D01*
X132506612Y-79361967D01*
X132506613Y-79361967D01*
X132711315Y-79361967D01*
X132711316Y-79361967D01*
X132913498Y-79329944D01*
X133108183Y-79266687D01*
X133290574Y-79173754D01*
X133383554Y-79106199D01*
X133456177Y-79053438D01*
X133456179Y-79053435D01*
X133456183Y-79053433D01*
X133600930Y-78908686D01*
X133600932Y-78908682D01*
X133600935Y-78908680D01*
X133653696Y-78836057D01*
X133721251Y-78743077D01*
X133814184Y-78560686D01*
X133877441Y-78366001D01*
X133909464Y-78163819D01*
X133909464Y-77959115D01*
X146090536Y-77959115D01*
X146090536Y-78163818D01*
X146122558Y-78366001D01*
X146185817Y-78560690D01*
X146278751Y-78743080D01*
X146399064Y-78908680D01*
X146543822Y-79053438D01*
X146648991Y-79129846D01*
X146709426Y-79173754D01*
X146825643Y-79232970D01*
X146891812Y-79266685D01*
X146891814Y-79266685D01*
X146891817Y-79266687D01*
X146996173Y-79300594D01*
X147086501Y-79329944D01*
X147187593Y-79345955D01*
X147288684Y-79361967D01*
X147288685Y-79361967D01*
X147493387Y-79361967D01*
X147493388Y-79361967D01*
X147695570Y-79329944D01*
X147890255Y-79266687D01*
X148072646Y-79173754D01*
X148165626Y-79106199D01*
X148238249Y-79053438D01*
X148238251Y-79053435D01*
X148238255Y-79053433D01*
X148383002Y-78908686D01*
X148383004Y-78908682D01*
X148383007Y-78908680D01*
X148435768Y-78836057D01*
X148503323Y-78743077D01*
X148596256Y-78560686D01*
X148659513Y-78366001D01*
X148691536Y-78163819D01*
X148691536Y-77959115D01*
X148659513Y-77756933D01*
X148596256Y-77562248D01*
X148596254Y-77562245D01*
X148596254Y-77562243D01*
X148562539Y-77496074D01*
X148503323Y-77379857D01*
X148495592Y-77369216D01*
X148383007Y-77214253D01*
X148238249Y-77069495D01*
X148072649Y-76949182D01*
X148072648Y-76949181D01*
X148072646Y-76949180D01*
X148015689Y-76920158D01*
X147890259Y-76856248D01*
X147695570Y-76792989D01*
X147521031Y-76765345D01*
X147493388Y-76760967D01*
X147288684Y-76760967D01*
X147264365Y-76764818D01*
X147086501Y-76792989D01*
X146891812Y-76856248D01*
X146709422Y-76949182D01*
X146543822Y-77069495D01*
X146399064Y-77214253D01*
X146278751Y-77379853D01*
X146185817Y-77562243D01*
X146122558Y-77756932D01*
X146090536Y-77959115D01*
X133909464Y-77959115D01*
X133877441Y-77756933D01*
X133814184Y-77562248D01*
X133814182Y-77562245D01*
X133814182Y-77562243D01*
X133780467Y-77496074D01*
X133721251Y-77379857D01*
X133713520Y-77369216D01*
X133600935Y-77214253D01*
X133456177Y-77069495D01*
X133290577Y-76949182D01*
X133290576Y-76949181D01*
X133290574Y-76949180D01*
X133233617Y-76920158D01*
X133108187Y-76856248D01*
X132913498Y-76792989D01*
X132738959Y-76765345D01*
X132711316Y-76760967D01*
X132506612Y-76760967D01*
X132482293Y-76764818D01*
X132304429Y-76792989D01*
X132109740Y-76856248D01*
X131927350Y-76949182D01*
X131761750Y-77069495D01*
X131616992Y-77214253D01*
X131496679Y-77379853D01*
X131403745Y-77562243D01*
X131340486Y-77756932D01*
X131308464Y-77959115D01*
X130764131Y-77959115D01*
X130606318Y-77415921D01*
X130604380Y-77408376D01*
X130473148Y-76821278D01*
X130471696Y-76813664D01*
X130377593Y-76219526D01*
X130376617Y-76211800D01*
X130367170Y-76111859D01*
X130320005Y-75612898D01*
X130319518Y-75605156D01*
X130300561Y-75001941D01*
X130300500Y-74998046D01*
X130300500Y-74897682D01*
X135950000Y-74897682D01*
X135950000Y-75102317D01*
X135982009Y-75304417D01*
X136045244Y-75499031D01*
X136138141Y-75681350D01*
X136138147Y-75681359D01*
X136170523Y-75725921D01*
X136170524Y-75725922D01*
X136787449Y-75108997D01*
X136807370Y-75183343D01*
X136869905Y-75291657D01*
X136958343Y-75380095D01*
X137066657Y-75442630D01*
X137141002Y-75462550D01*
X136524076Y-76079474D01*
X136568650Y-76111859D01*
X136750968Y-76204755D01*
X136945582Y-76267990D01*
X137147683Y-76300000D01*
X137352317Y-76300000D01*
X137554417Y-76267990D01*
X137749031Y-76204755D01*
X137931349Y-76111859D01*
X137975921Y-76079474D01*
X137358997Y-75462550D01*
X137433343Y-75442630D01*
X137541657Y-75380095D01*
X137630095Y-75291657D01*
X137692630Y-75183343D01*
X137712550Y-75108997D01*
X138329474Y-75725921D01*
X138361859Y-75681349D01*
X138454755Y-75499031D01*
X138507069Y-75338028D01*
X138546507Y-75280353D01*
X138610866Y-75253155D01*
X138679712Y-75265070D01*
X138731188Y-75312314D01*
X138742931Y-75338028D01*
X138795244Y-75499031D01*
X138888141Y-75681350D01*
X138888147Y-75681359D01*
X138920523Y-75725921D01*
X138920524Y-75725922D01*
X139537449Y-75108997D01*
X139557370Y-75183343D01*
X139619905Y-75291657D01*
X139708343Y-75380095D01*
X139816657Y-75442630D01*
X139891002Y-75462550D01*
X139274076Y-76079474D01*
X139318650Y-76111859D01*
X139500968Y-76204755D01*
X139695582Y-76267990D01*
X139897683Y-76300000D01*
X140102317Y-76300000D01*
X140304417Y-76267990D01*
X140499031Y-76204755D01*
X140681349Y-76111859D01*
X140725921Y-76079474D01*
X140108997Y-75462550D01*
X140183343Y-75442630D01*
X140291657Y-75380095D01*
X140380095Y-75291657D01*
X140442630Y-75183343D01*
X140462550Y-75108998D01*
X141079474Y-75725922D01*
X141079474Y-75725921D01*
X141111859Y-75681349D01*
X141204755Y-75499031D01*
X141257069Y-75338028D01*
X141296507Y-75280353D01*
X141360866Y-75253155D01*
X141429712Y-75265070D01*
X141481188Y-75312314D01*
X141492931Y-75338028D01*
X141545244Y-75499031D01*
X141638141Y-75681350D01*
X141638147Y-75681359D01*
X141670523Y-75725921D01*
X141670524Y-75725922D01*
X142287449Y-75108997D01*
X142307370Y-75183343D01*
X142369905Y-75291657D01*
X142458343Y-75380095D01*
X142566657Y-75442630D01*
X142641002Y-75462550D01*
X142024076Y-76079474D01*
X142068650Y-76111859D01*
X142250968Y-76204755D01*
X142445582Y-76267990D01*
X142647683Y-76300000D01*
X142852317Y-76300000D01*
X143054417Y-76267990D01*
X143249031Y-76204755D01*
X143431349Y-76111859D01*
X143475921Y-76079474D01*
X142858997Y-75462550D01*
X142933343Y-75442630D01*
X143041657Y-75380095D01*
X143130095Y-75291657D01*
X143192630Y-75183343D01*
X143212550Y-75108997D01*
X143829474Y-75725921D01*
X143861859Y-75681349D01*
X143954755Y-75499031D01*
X144017990Y-75304417D01*
X144050000Y-75102317D01*
X144050000Y-74897682D01*
X144017990Y-74695582D01*
X143954755Y-74500968D01*
X143861859Y-74318650D01*
X143829474Y-74274077D01*
X143829474Y-74274076D01*
X143212550Y-74891001D01*
X143192630Y-74816657D01*
X143130095Y-74708343D01*
X143041657Y-74619905D01*
X142933343Y-74557370D01*
X142858996Y-74537449D01*
X143475922Y-73920524D01*
X143475921Y-73920523D01*
X143431359Y-73888147D01*
X143431350Y-73888141D01*
X143249031Y-73795244D01*
X143166837Y-73768538D01*
X143109162Y-73729100D01*
X143081964Y-73664741D01*
X143093879Y-73595895D01*
X143141123Y-73544419D01*
X143157696Y-73536049D01*
X143288667Y-73481799D01*
X143427966Y-73388722D01*
X143546430Y-73270258D01*
X143639507Y-73130959D01*
X143703620Y-72976178D01*
X143736304Y-72811863D01*
X143736304Y-72811856D01*
X143736901Y-72805802D01*
X143738531Y-72805962D01*
X143755989Y-72746510D01*
X143758708Y-72742456D01*
X143764937Y-72733553D01*
X143770449Y-72728042D01*
X143804675Y-72676818D01*
X143838903Y-72625595D01*
X143872243Y-72545101D01*
X143886054Y-72511761D01*
X143904312Y-72419969D01*
X143910091Y-72390916D01*
X143910091Y-72267702D01*
X143910091Y-71836181D01*
X146090536Y-71836181D01*
X146090536Y-72040884D01*
X146122558Y-72243067D01*
X146185817Y-72437756D01*
X146278751Y-72620146D01*
X146399064Y-72785746D01*
X146543822Y-72930504D01*
X146698785Y-73043089D01*
X146709426Y-73050820D01*
X146825643Y-73110036D01*
X146891812Y-73143751D01*
X146891814Y-73143751D01*
X146891817Y-73143753D01*
X146996173Y-73177660D01*
X147086501Y-73207010D01*
X147187593Y-73223021D01*
X147288684Y-73239033D01*
X147288685Y-73239033D01*
X147493387Y-73239033D01*
X147493388Y-73239033D01*
X147695570Y-73207010D01*
X147890255Y-73143753D01*
X148072646Y-73050820D01*
X148175394Y-72976170D01*
X148238249Y-72930504D01*
X148238251Y-72930501D01*
X148238255Y-72930499D01*
X148383002Y-72785752D01*
X148383004Y-72785748D01*
X148383007Y-72785746D01*
X148435768Y-72713123D01*
X148503323Y-72620143D01*
X148596256Y-72437752D01*
X148659513Y-72243067D01*
X148691536Y-72040885D01*
X148691536Y-71836181D01*
X148659513Y-71633999D01*
X148596256Y-71439314D01*
X148596254Y-71439311D01*
X148596254Y-71439309D01*
X148562539Y-71373140D01*
X148503323Y-71256923D01*
X148428403Y-71153803D01*
X148383007Y-71091319D01*
X148238249Y-70946561D01*
X148072649Y-70826248D01*
X148072648Y-70826247D01*
X148072646Y-70826246D01*
X148014137Y-70796434D01*
X147890259Y-70733314D01*
X147695570Y-70670055D01*
X147521031Y-70642411D01*
X147493388Y-70638033D01*
X147288684Y-70638033D01*
X147264365Y-70641884D01*
X147086501Y-70670055D01*
X146891812Y-70733314D01*
X146709422Y-70826248D01*
X146543822Y-70946561D01*
X146399064Y-71091319D01*
X146278751Y-71256919D01*
X146185817Y-71439309D01*
X146122558Y-71633998D01*
X146090536Y-71836181D01*
X143910091Y-71836181D01*
X143910091Y-71525861D01*
X143929776Y-71458822D01*
X143946410Y-71438180D01*
X144230792Y-71153798D01*
X144588155Y-70796436D01*
X144602439Y-70775056D01*
X144636655Y-70740840D01*
X144644460Y-70735626D01*
X144762924Y-70617162D01*
X144856001Y-70477863D01*
X144920114Y-70323082D01*
X144952798Y-70158767D01*
X144952798Y-69991233D01*
X144920114Y-69826918D01*
X144856001Y-69672137D01*
X144824835Y-69625494D01*
X144762924Y-69532837D01*
X144644460Y-69414373D01*
X144505158Y-69321295D01*
X144350380Y-69257184D01*
X144350372Y-69257182D01*
X144186069Y-69224500D01*
X144186065Y-69224500D01*
X144018531Y-69224500D01*
X144018526Y-69224500D01*
X143854223Y-69257182D01*
X143854215Y-69257184D01*
X143699437Y-69321295D01*
X143560135Y-69414373D01*
X143441671Y-69532837D01*
X143348593Y-69672139D01*
X143284482Y-69826917D01*
X143284480Y-69826925D01*
X143251798Y-69991228D01*
X143251798Y-69991232D01*
X143251798Y-69991233D01*
X143251798Y-70158767D01*
X143251799Y-70158771D01*
X143272853Y-70264620D01*
X143266624Y-70334211D01*
X143238916Y-70376491D01*
X142885860Y-70729549D01*
X142798735Y-70816673D01*
X142798729Y-70816681D01*
X142730281Y-70919117D01*
X142730279Y-70919122D01*
X142697125Y-70999165D01*
X142683129Y-71032953D01*
X142683126Y-71032965D01*
X142659091Y-71153798D01*
X142659091Y-71818574D01*
X142639406Y-71885613D01*
X142586602Y-71931368D01*
X142582545Y-71933135D01*
X142482941Y-71974392D01*
X142343641Y-72067469D01*
X142225177Y-72185933D01*
X142132099Y-72325235D01*
X142067988Y-72480013D01*
X142067986Y-72480021D01*
X142035304Y-72644324D01*
X142035304Y-72811867D01*
X142067986Y-72976170D01*
X142067988Y-72976178D01*
X142132099Y-73130956D01*
X142225177Y-73270258D01*
X142343641Y-73388722D01*
X142436298Y-73450633D01*
X142482941Y-73481799D01*
X142482942Y-73481799D01*
X142482943Y-73481800D01*
X142503379Y-73490265D01*
X142557782Y-73534106D01*
X142579847Y-73600401D01*
X142562568Y-73668100D01*
X142511430Y-73715710D01*
X142475325Y-73727299D01*
X142445581Y-73732010D01*
X142250968Y-73795244D01*
X142068644Y-73888143D01*
X142024077Y-73920523D01*
X142024077Y-73920524D01*
X142641003Y-74537449D01*
X142566657Y-74557370D01*
X142458343Y-74619905D01*
X142369905Y-74708343D01*
X142307370Y-74816657D01*
X142287449Y-74891002D01*
X141670524Y-74274077D01*
X141670523Y-74274077D01*
X141638143Y-74318644D01*
X141545244Y-74500968D01*
X141492931Y-74661971D01*
X141453493Y-74719646D01*
X141389134Y-74746844D01*
X141320288Y-74734929D01*
X141268812Y-74687685D01*
X141257069Y-74661971D01*
X141204755Y-74500968D01*
X141111859Y-74318650D01*
X141079474Y-74274077D01*
X141079474Y-74274076D01*
X140462550Y-74891001D01*
X140442630Y-74816657D01*
X140380095Y-74708343D01*
X140291657Y-74619905D01*
X140183343Y-74557370D01*
X140108996Y-74537449D01*
X140725922Y-73920524D01*
X140725921Y-73920523D01*
X140681359Y-73888147D01*
X140681350Y-73888141D01*
X140499031Y-73795244D01*
X140304417Y-73732009D01*
X140102317Y-73700000D01*
X139897683Y-73700000D01*
X139695582Y-73732009D01*
X139500968Y-73795244D01*
X139318644Y-73888143D01*
X139274077Y-73920523D01*
X139274077Y-73920524D01*
X139891003Y-74537449D01*
X139816657Y-74557370D01*
X139708343Y-74619905D01*
X139619905Y-74708343D01*
X139557370Y-74816657D01*
X139537449Y-74891002D01*
X138920524Y-74274077D01*
X138920523Y-74274077D01*
X138888143Y-74318644D01*
X138795244Y-74500968D01*
X138742931Y-74661971D01*
X138703493Y-74719646D01*
X138639134Y-74746844D01*
X138570288Y-74734929D01*
X138518812Y-74687685D01*
X138507069Y-74661971D01*
X138454755Y-74500968D01*
X138361859Y-74318650D01*
X138329474Y-74274077D01*
X138329474Y-74274076D01*
X137712550Y-74891001D01*
X137692630Y-74816657D01*
X137630095Y-74708343D01*
X137541657Y-74619905D01*
X137433343Y-74557370D01*
X137358996Y-74537449D01*
X137975922Y-73920524D01*
X137975921Y-73920523D01*
X137931359Y-73888147D01*
X137931350Y-73888141D01*
X137749031Y-73795244D01*
X137554417Y-73732009D01*
X137352317Y-73700000D01*
X137147683Y-73700000D01*
X136945582Y-73732009D01*
X136750968Y-73795244D01*
X136568644Y-73888143D01*
X136524077Y-73920523D01*
X136524077Y-73920524D01*
X137141003Y-74537449D01*
X137066657Y-74557370D01*
X136958343Y-74619905D01*
X136869905Y-74708343D01*
X136807370Y-74816657D01*
X136787449Y-74891002D01*
X136170524Y-74274077D01*
X136170523Y-74274077D01*
X136138143Y-74318644D01*
X136045244Y-74500968D01*
X135982009Y-74695582D01*
X135950000Y-74897682D01*
X130300500Y-74897682D01*
X130300500Y-71836181D01*
X131308464Y-71836181D01*
X131308464Y-72040884D01*
X131340486Y-72243067D01*
X131403745Y-72437756D01*
X131496679Y-72620146D01*
X131616992Y-72785746D01*
X131761750Y-72930504D01*
X131916713Y-73043089D01*
X131927354Y-73050820D01*
X132043571Y-73110036D01*
X132109740Y-73143751D01*
X132109742Y-73143751D01*
X132109745Y-73143753D01*
X132214101Y-73177660D01*
X132304429Y-73207010D01*
X132405521Y-73223021D01*
X132506612Y-73239033D01*
X132506613Y-73239033D01*
X132711315Y-73239033D01*
X132711316Y-73239033D01*
X132913498Y-73207010D01*
X133108183Y-73143753D01*
X133290574Y-73050820D01*
X133393322Y-72976170D01*
X133456177Y-72930504D01*
X133456179Y-72930501D01*
X133456183Y-72930499D01*
X133600930Y-72785752D01*
X133600932Y-72785748D01*
X133600935Y-72785746D01*
X133653696Y-72713123D01*
X133721251Y-72620143D01*
X133814184Y-72437752D01*
X133877441Y-72243067D01*
X133909464Y-72040885D01*
X133909464Y-71836181D01*
X133877441Y-71633999D01*
X133814184Y-71439314D01*
X133814182Y-71439311D01*
X133814182Y-71439309D01*
X133780467Y-71373140D01*
X133721251Y-71256923D01*
X133646331Y-71153803D01*
X133600935Y-71091319D01*
X133456177Y-70946561D01*
X133290577Y-70826248D01*
X133290576Y-70826247D01*
X133290574Y-70826246D01*
X133232065Y-70796434D01*
X133108187Y-70733314D01*
X132913498Y-70670055D01*
X132738959Y-70642411D01*
X132711316Y-70638033D01*
X132506612Y-70638033D01*
X132482293Y-70641884D01*
X132304429Y-70670055D01*
X132109740Y-70733314D01*
X131927350Y-70826248D01*
X131761750Y-70946561D01*
X131616992Y-71091319D01*
X131496679Y-71256919D01*
X131403745Y-71439309D01*
X131340486Y-71633998D01*
X131308464Y-71836181D01*
X130300500Y-71836181D01*
X130300500Y-67506612D01*
X135638033Y-67506612D01*
X135638033Y-67711315D01*
X135670055Y-67913498D01*
X135733314Y-68108187D01*
X135826248Y-68290577D01*
X135946561Y-68456177D01*
X136091319Y-68600935D01*
X136228440Y-68700557D01*
X136256923Y-68721251D01*
X136373140Y-68780467D01*
X136439309Y-68814182D01*
X136439311Y-68814182D01*
X136439314Y-68814184D01*
X136543506Y-68848038D01*
X136633998Y-68877441D01*
X136735090Y-68893452D01*
X136836181Y-68909464D01*
X136836182Y-68909464D01*
X137040884Y-68909464D01*
X137040885Y-68909464D01*
X137243067Y-68877441D01*
X137437752Y-68814184D01*
X137620143Y-68721251D01*
X137713123Y-68653696D01*
X137785746Y-68600935D01*
X137785748Y-68600932D01*
X137785752Y-68600930D01*
X137930499Y-68456183D01*
X137930501Y-68456179D01*
X137930504Y-68456177D01*
X137983265Y-68383554D01*
X138050820Y-68290574D01*
X138143753Y-68108183D01*
X138207010Y-67913498D01*
X138239033Y-67711316D01*
X138239033Y-67506612D01*
X138231362Y-67458183D01*
X138240316Y-67388893D01*
X138285311Y-67335440D01*
X138352063Y-67314800D01*
X138419377Y-67333524D01*
X138441516Y-67351106D01*
X138886189Y-67795779D01*
X138899767Y-67820645D01*
X138916014Y-67843859D01*
X138917546Y-67853206D01*
X138919674Y-67857102D01*
X138922411Y-67878568D01*
X138922508Y-67881025D01*
X138922508Y-67938393D01*
X138922508Y-68061607D01*
X138931402Y-68106324D01*
X138931787Y-68116065D01*
X138929501Y-68125164D01*
X138929501Y-68145149D01*
X138921512Y-68185311D01*
X138921512Y-68362699D01*
X138956115Y-68536662D01*
X138956118Y-68536671D01*
X139023995Y-68700544D01*
X139024002Y-68700557D01*
X139122547Y-68848038D01*
X139122550Y-68848042D01*
X139247973Y-68973465D01*
X139247977Y-68973468D01*
X139395458Y-69072013D01*
X139395471Y-69072020D01*
X139518375Y-69122927D01*
X139559346Y-69139898D01*
X139559348Y-69139898D01*
X139559353Y-69139900D01*
X139733316Y-69174503D01*
X139733319Y-69174504D01*
X139733321Y-69174504D01*
X139910705Y-69174504D01*
X139910706Y-69174503D01*
X139968694Y-69162968D01*
X140084670Y-69139900D01*
X140084673Y-69139898D01*
X140084678Y-69139898D01*
X140248559Y-69072017D01*
X140396047Y-68973468D01*
X140521476Y-68848039D01*
X140620025Y-68700551D01*
X140687906Y-68536670D01*
X140722512Y-68362695D01*
X140722512Y-68185313D01*
X140722512Y-68185311D01*
X140722512Y-68185310D01*
X140722511Y-68185308D01*
X140687908Y-68011345D01*
X140687905Y-68011336D01*
X140620028Y-67847463D01*
X140620021Y-67847450D01*
X140521476Y-67699969D01*
X140521473Y-67699965D01*
X140396050Y-67574542D01*
X140396046Y-67574539D01*
X140294387Y-67506612D01*
X141760967Y-67506612D01*
X141760967Y-67711315D01*
X141792989Y-67913498D01*
X141856248Y-68108187D01*
X141949182Y-68290577D01*
X142069495Y-68456177D01*
X142214253Y-68600935D01*
X142351374Y-68700557D01*
X142379857Y-68721251D01*
X142496074Y-68780467D01*
X142562243Y-68814182D01*
X142562245Y-68814182D01*
X142562248Y-68814184D01*
X142666440Y-68848038D01*
X142756932Y-68877441D01*
X142858024Y-68893452D01*
X142959115Y-68909464D01*
X142959116Y-68909464D01*
X143163818Y-68909464D01*
X143163819Y-68909464D01*
X143366001Y-68877441D01*
X143560686Y-68814184D01*
X143743077Y-68721251D01*
X143836057Y-68653696D01*
X143908680Y-68600935D01*
X143908682Y-68600932D01*
X143908686Y-68600930D01*
X144053433Y-68456183D01*
X144053435Y-68456179D01*
X144053438Y-68456177D01*
X144106199Y-68383554D01*
X144173754Y-68290574D01*
X144266687Y-68108183D01*
X144329944Y-67913498D01*
X144361967Y-67711316D01*
X144361967Y-67506612D01*
X144344542Y-67396594D01*
X144329944Y-67304429D01*
X144266685Y-67109740D01*
X144208094Y-66994750D01*
X144173754Y-66927354D01*
X144166023Y-66916713D01*
X144053438Y-66761750D01*
X143908680Y-66616992D01*
X143743080Y-66496679D01*
X143743079Y-66496678D01*
X143743077Y-66496677D01*
X143660151Y-66454424D01*
X143560690Y-66403745D01*
X143366001Y-66340486D01*
X143191462Y-66312842D01*
X143163819Y-66308464D01*
X142959115Y-66308464D01*
X142934796Y-66312315D01*
X142756932Y-66340486D01*
X142562243Y-66403745D01*
X142379853Y-66496679D01*
X142214253Y-66616992D01*
X142069495Y-66761750D01*
X141949182Y-66927350D01*
X141856248Y-67109740D01*
X141792989Y-67304429D01*
X141760967Y-67506612D01*
X140294387Y-67506612D01*
X140248562Y-67475992D01*
X140248559Y-67475991D01*
X140218946Y-67463725D01*
X140195043Y-67444463D01*
X140169831Y-67426951D01*
X140167256Y-67422072D01*
X140164542Y-67419885D01*
X140151828Y-67396594D01*
X140149481Y-67390925D01*
X140149471Y-67390873D01*
X140129940Y-67343722D01*
X140102320Y-67277040D01*
X140085264Y-67251515D01*
X140033866Y-67174592D01*
X139966472Y-67107198D01*
X139961461Y-67102170D01*
X139960858Y-67101267D01*
X139873733Y-67014142D01*
X139873732Y-67014141D01*
X138467927Y-65608337D01*
X138467925Y-65608334D01*
X138467925Y-65608335D01*
X138460858Y-65601268D01*
X138460858Y-65601267D01*
X138373733Y-65514142D01*
X138373732Y-65514141D01*
X138373731Y-65514140D01*
X138328325Y-65483801D01*
X138328324Y-65483800D01*
X138322509Y-65479915D01*
X138271286Y-65445688D01*
X138190792Y-65412347D01*
X138175457Y-65405995D01*
X138157453Y-65398537D01*
X138147427Y-65396543D01*
X138097029Y-65386518D01*
X138036610Y-65374500D01*
X138036607Y-65374500D01*
X138036606Y-65374500D01*
X137949361Y-65374500D01*
X137882322Y-65354815D01*
X137861679Y-65338180D01*
X137824038Y-65300538D01*
X137824034Y-65300535D01*
X137676553Y-65201990D01*
X137676540Y-65201983D01*
X137512667Y-65134106D01*
X137512658Y-65134103D01*
X137338694Y-65099500D01*
X137338691Y-65099500D01*
X137161309Y-65099500D01*
X137161306Y-65099500D01*
X136987341Y-65134103D01*
X136987332Y-65134106D01*
X136823459Y-65201983D01*
X136823446Y-65201990D01*
X136675965Y-65300535D01*
X136675961Y-65300538D01*
X136550538Y-65425961D01*
X136550535Y-65425965D01*
X136451990Y-65573446D01*
X136451983Y-65573459D01*
X136384106Y-65737332D01*
X136384103Y-65737341D01*
X136349500Y-65911304D01*
X136349500Y-66088695D01*
X136384103Y-66262658D01*
X136384106Y-66262667D01*
X136398115Y-66296487D01*
X136405584Y-66365956D01*
X136374308Y-66428435D01*
X136339849Y-66454424D01*
X136256919Y-66496679D01*
X136091319Y-66616992D01*
X135946561Y-66761750D01*
X135826248Y-66927350D01*
X135733314Y-67109740D01*
X135670055Y-67304429D01*
X135638033Y-67506612D01*
X130300500Y-67506612D01*
X130300500Y-65002424D01*
X130300596Y-64997556D01*
X130317878Y-64557701D01*
X130318641Y-64547995D01*
X130370100Y-64113215D01*
X130371619Y-64103627D01*
X130457032Y-63674230D01*
X130459294Y-63664810D01*
X130578132Y-63243438D01*
X130581127Y-63234219D01*
X130732666Y-62823456D01*
X130736389Y-62814471D01*
X130752307Y-62779941D01*
X130919673Y-62416894D01*
X130924088Y-62408231D01*
X131138000Y-62026265D01*
X131143087Y-62017963D01*
X131211096Y-61916181D01*
X131386311Y-61653953D01*
X131392012Y-61646106D01*
X131663066Y-61302275D01*
X131669357Y-61294909D01*
X131966556Y-60973402D01*
X131973402Y-60966556D01*
X132294909Y-60669357D01*
X132302275Y-60663066D01*
X132646106Y-60392012D01*
X132653953Y-60386311D01*
X133017965Y-60143085D01*
X133026265Y-60138000D01*
X133391184Y-59933635D01*
X133459294Y-59918052D01*
X133525016Y-59941767D01*
X133567484Y-59997249D01*
X133575063Y-60055079D01*
X133570000Y-60102171D01*
X133570000Y-60750000D01*
X134486988Y-60750000D01*
X134454075Y-60807007D01*
X134420000Y-60934174D01*
X134420000Y-61065826D01*
X134454075Y-61192993D01*
X134486988Y-61250000D01*
X133570000Y-61250000D01*
X133570000Y-61897844D01*
X133576401Y-61957372D01*
X133576403Y-61957379D01*
X133626645Y-62092086D01*
X133626649Y-62092093D01*
X133712809Y-62207187D01*
X133712812Y-62207190D01*
X133827906Y-62293350D01*
X133827913Y-62293354D01*
X133962620Y-62343596D01*
X133962627Y-62343598D01*
X134022155Y-62349999D01*
X134022172Y-62350000D01*
X134670000Y-62350000D01*
X134670000Y-61433012D01*
X134727007Y-61465925D01*
X134854174Y-61500000D01*
X134985826Y-61500000D01*
X135112993Y-61465925D01*
X135170000Y-61433012D01*
X135170000Y-62350000D01*
X135817828Y-62350000D01*
X135817844Y-62349999D01*
X135877372Y-62343598D01*
X135877379Y-62343596D01*
X136012086Y-62293354D01*
X136012093Y-62293350D01*
X136127187Y-62207190D01*
X136127190Y-62207187D01*
X136213350Y-62092093D01*
X136213354Y-62092086D01*
X136262422Y-61960529D01*
X136304293Y-61904595D01*
X136369757Y-61880178D01*
X136438030Y-61895030D01*
X136466285Y-61916181D01*
X136580213Y-62030109D01*
X136752179Y-62155048D01*
X136752181Y-62155049D01*
X136752184Y-62155051D01*
X136941588Y-62251557D01*
X137143757Y-62317246D01*
X137353713Y-62350500D01*
X137353714Y-62350500D01*
X137566286Y-62350500D01*
X137566287Y-62350500D01*
X137776243Y-62317246D01*
X137978412Y-62251557D01*
X138167816Y-62155051D01*
X138254471Y-62092093D01*
X138339786Y-62030109D01*
X138339788Y-62030106D01*
X138339792Y-62030104D01*
X138490104Y-61879792D01*
X138490106Y-61879788D01*
X138490109Y-61879786D01*
X138615048Y-61707820D01*
X138615047Y-61707820D01*
X138615051Y-61707816D01*
X138619514Y-61699054D01*
X138667488Y-61648259D01*
X138735308Y-61631463D01*
X138801444Y-61653999D01*
X138840486Y-61699056D01*
X138844951Y-61707820D01*
X138969890Y-61879786D01*
X139120213Y-62030109D01*
X139292179Y-62155048D01*
X139292181Y-62155049D01*
X139292184Y-62155051D01*
X139481588Y-62251557D01*
X139683757Y-62317246D01*
X139893713Y-62350500D01*
X139893714Y-62350500D01*
X140106286Y-62350500D01*
X140106287Y-62350500D01*
X140316243Y-62317246D01*
X140518412Y-62251557D01*
X140707816Y-62155051D01*
X140794471Y-62092093D01*
X140879786Y-62030109D01*
X140879788Y-62030106D01*
X140879792Y-62030104D01*
X141030104Y-61879792D01*
X141030106Y-61879788D01*
X141030109Y-61879786D01*
X141155048Y-61707820D01*
X141155047Y-61707820D01*
X141155051Y-61707816D01*
X141159514Y-61699054D01*
X141207488Y-61648259D01*
X141275308Y-61631463D01*
X141341444Y-61653999D01*
X141380486Y-61699056D01*
X141384951Y-61707820D01*
X141509890Y-61879786D01*
X141660213Y-62030109D01*
X141832179Y-62155048D01*
X141832181Y-62155049D01*
X141832184Y-62155051D01*
X142021588Y-62251557D01*
X142223757Y-62317246D01*
X142433713Y-62350500D01*
X142433714Y-62350500D01*
X142646286Y-62350500D01*
X142646287Y-62350500D01*
X142856243Y-62317246D01*
X143058412Y-62251557D01*
X143247816Y-62155051D01*
X143334471Y-62092093D01*
X143419786Y-62030109D01*
X143419788Y-62030106D01*
X143419792Y-62030104D01*
X143570104Y-61879792D01*
X143570106Y-61879788D01*
X143570109Y-61879786D01*
X143695048Y-61707820D01*
X143695047Y-61707820D01*
X143695051Y-61707816D01*
X143699514Y-61699054D01*
X143747488Y-61648259D01*
X143815308Y-61631463D01*
X143881444Y-61653999D01*
X143920486Y-61699056D01*
X143924951Y-61707820D01*
X144049890Y-61879786D01*
X144200213Y-62030109D01*
X144372179Y-62155048D01*
X144372181Y-62155049D01*
X144372184Y-62155051D01*
X144561588Y-62251557D01*
X144763757Y-62317246D01*
X144973713Y-62350500D01*
X144973714Y-62350500D01*
X145186286Y-62350500D01*
X145186287Y-62350500D01*
X145396243Y-62317246D01*
X145598412Y-62251557D01*
X145787816Y-62155051D01*
X145874471Y-62092093D01*
X145959786Y-62030109D01*
X145959788Y-62030106D01*
X145959792Y-62030104D01*
X146110104Y-61879792D01*
X146110106Y-61879788D01*
X146110109Y-61879786D01*
X146235048Y-61707820D01*
X146235047Y-61707820D01*
X146235051Y-61707816D01*
X146331557Y-61518412D01*
X146397246Y-61316243D01*
X146430500Y-61106287D01*
X146430500Y-60893713D01*
X146397246Y-60683757D01*
X146331557Y-60481588D01*
X146235051Y-60292184D01*
X146235049Y-60292181D01*
X146235048Y-60292179D01*
X146110109Y-60120213D01*
X145959790Y-59969894D01*
X145959785Y-59969890D01*
X145798120Y-59852434D01*
X145755454Y-59797104D01*
X145749475Y-59727491D01*
X145782080Y-59665696D01*
X145842919Y-59631339D01*
X145912675Y-59635327D01*
G37*
%TD.AperFunction*%
%TA.AperFunction,Conductor*%
G36*
X144002443Y-59300596D02*
G01*
X144442304Y-59317878D01*
X144451999Y-59318640D01*
X144886780Y-59370099D01*
X144896372Y-59371619D01*
X145058571Y-59403883D01*
X145120482Y-59436268D01*
X145155056Y-59496984D01*
X145151316Y-59566753D01*
X145110449Y-59623425D01*
X145045431Y-59649007D01*
X145034379Y-59649500D01*
X144973713Y-59649500D01*
X144925042Y-59657208D01*
X144763760Y-59682753D01*
X144561585Y-59748444D01*
X144372179Y-59844951D01*
X144200213Y-59969890D01*
X144049890Y-60120213D01*
X143924949Y-60292182D01*
X143920484Y-60300946D01*
X143872509Y-60351742D01*
X143804688Y-60368536D01*
X143738553Y-60345998D01*
X143699516Y-60300946D01*
X143695050Y-60292182D01*
X143570109Y-60120213D01*
X143419786Y-59969890D01*
X143247820Y-59844951D01*
X143058414Y-59748444D01*
X143058413Y-59748443D01*
X143058412Y-59748443D01*
X142856243Y-59682754D01*
X142856241Y-59682753D01*
X142856240Y-59682753D01*
X142694957Y-59657208D01*
X142646287Y-59649500D01*
X142433713Y-59649500D01*
X142385042Y-59657208D01*
X142223760Y-59682753D01*
X142021585Y-59748444D01*
X141832179Y-59844951D01*
X141660213Y-59969890D01*
X141509890Y-60120213D01*
X141384949Y-60292182D01*
X141380484Y-60300946D01*
X141332509Y-60351742D01*
X141264688Y-60368536D01*
X141198553Y-60345998D01*
X141159516Y-60300946D01*
X141155050Y-60292182D01*
X141030109Y-60120213D01*
X140879786Y-59969890D01*
X140707820Y-59844951D01*
X140518414Y-59748444D01*
X140518413Y-59748443D01*
X140518412Y-59748443D01*
X140316243Y-59682754D01*
X140316241Y-59682753D01*
X140316240Y-59682753D01*
X140154957Y-59657208D01*
X140106287Y-59649500D01*
X139893713Y-59649500D01*
X139845042Y-59657208D01*
X139683760Y-59682753D01*
X139481585Y-59748444D01*
X139292179Y-59844951D01*
X139120213Y-59969890D01*
X138969890Y-60120213D01*
X138844949Y-60292182D01*
X138840484Y-60300946D01*
X138792509Y-60351742D01*
X138724688Y-60368536D01*
X138658553Y-60345998D01*
X138619516Y-60300946D01*
X138615050Y-60292182D01*
X138490109Y-60120213D01*
X138339786Y-59969890D01*
X138167820Y-59844951D01*
X137978414Y-59748444D01*
X137978413Y-59748443D01*
X137978412Y-59748443D01*
X137776243Y-59682754D01*
X137776241Y-59682753D01*
X137776240Y-59682753D01*
X137614957Y-59657208D01*
X137566287Y-59649500D01*
X137353713Y-59649500D01*
X137305042Y-59657208D01*
X137143760Y-59682753D01*
X136941585Y-59748444D01*
X136752179Y-59844951D01*
X136580215Y-59969889D01*
X136466285Y-60083819D01*
X136404962Y-60117303D01*
X136335270Y-60112319D01*
X136279337Y-60070447D01*
X136262422Y-60039470D01*
X136213354Y-59907913D01*
X136213350Y-59907906D01*
X136127190Y-59792812D01*
X136127187Y-59792809D01*
X136012093Y-59706649D01*
X136012086Y-59706645D01*
X135877379Y-59656403D01*
X135877372Y-59656401D01*
X135817844Y-59650000D01*
X135170000Y-59650000D01*
X135170000Y-60566988D01*
X135112993Y-60534075D01*
X134985826Y-60500000D01*
X134854174Y-60500000D01*
X134727007Y-60534075D01*
X134670000Y-60566988D01*
X134670000Y-59646849D01*
X134640304Y-59592466D01*
X134645288Y-59522774D01*
X134687160Y-59466841D01*
X134737277Y-59444491D01*
X135103627Y-59371619D01*
X135113215Y-59370100D01*
X135548002Y-59318640D01*
X135557693Y-59317878D01*
X135997557Y-59300596D01*
X136002425Y-59300500D01*
X136047595Y-59300500D01*
X143952405Y-59300500D01*
X143997575Y-59300500D01*
X144002443Y-59300596D01*
G37*
%TD.AperFunction*%
%TD*%
M02*
