%TF.GenerationSoftware,KiCad,Pcbnew,9.0.3-9.0.3-0~ubuntu22.04.1*%
%TF.CreationDate,2025-07-27T08:17:54-07:00*%
%TF.ProjectId,mixer-out,6d697865-722d-46f7-9574-2e6b69636164,rev?*%
%TF.SameCoordinates,Original*%
%TF.FileFunction,Soldermask,Top*%
%TF.FilePolarity,Negative*%
%FSLAX46Y46*%
G04 Gerber Fmt 4.6, Leading zero omitted, Abs format (unit mm)*
G04 Created by KiCad (PCBNEW 9.0.3-9.0.3-0~ubuntu22.04.1) date 2025-07-27 08:17:54*
%MOMM*%
%LPD*%
G01*
G04 APERTURE LIST*
G04 APERTURE END LIST*
G36*
X140722013Y-95770758D02*
G01*
X140926693Y-95837262D01*
X141118450Y-95934967D01*
X141292561Y-96061466D01*
X141444740Y-96213645D01*
X141571239Y-96387756D01*
X141668944Y-96579513D01*
X141735448Y-96784193D01*
X141769115Y-96996756D01*
X141769115Y-97211970D01*
X141735448Y-97424533D01*
X141668944Y-97629213D01*
X141571239Y-97820970D01*
X141444740Y-97995081D01*
X141292561Y-98147260D01*
X141118450Y-98273759D01*
X140926693Y-98371464D01*
X140722013Y-98437968D01*
X140509450Y-98471635D01*
X140294236Y-98471635D01*
X140081673Y-98437968D01*
X139876993Y-98371464D01*
X139685236Y-98273759D01*
X139511125Y-98147260D01*
X139358946Y-97995081D01*
X139232447Y-97820970D01*
X139134742Y-97629213D01*
X139068238Y-97424533D01*
X139034571Y-97211970D01*
X139034571Y-96996756D01*
X139068238Y-96784193D01*
X139134742Y-96579513D01*
X139232447Y-96387756D01*
X139358946Y-96213645D01*
X139511125Y-96061466D01*
X139685236Y-95934967D01*
X139876993Y-95837262D01*
X140081673Y-95770758D01*
X140294236Y-95737091D01*
X140509450Y-95737091D01*
X140722013Y-95770758D01*
G37*
G36*
X126021214Y-95686997D02*
G01*
X126202905Y-95762257D01*
X126366423Y-95871516D01*
X126505484Y-96010577D01*
X126614743Y-96174095D01*
X126690003Y-96355786D01*
X126728369Y-96548669D01*
X126728369Y-96745331D01*
X126690003Y-96938214D01*
X126614743Y-97119905D01*
X126505484Y-97283423D01*
X126366423Y-97422484D01*
X126202905Y-97531743D01*
X126021214Y-97607003D01*
X125828331Y-97645369D01*
X125631669Y-97645369D01*
X125438786Y-97607003D01*
X125257095Y-97531743D01*
X125093577Y-97422484D01*
X124954516Y-97283423D01*
X124845257Y-97119905D01*
X124769997Y-96938214D01*
X124731631Y-96745331D01*
X124731631Y-96548669D01*
X124769997Y-96355786D01*
X124845257Y-96174095D01*
X124954516Y-96010577D01*
X125093577Y-95871516D01*
X125257095Y-95762257D01*
X125438786Y-95686997D01*
X125631669Y-95648631D01*
X125828331Y-95648631D01*
X126021214Y-95686997D01*
G37*
G36*
X147685024Y-94350926D02*
G01*
X147855215Y-94421422D01*
X148008382Y-94523765D01*
X148138641Y-94654024D01*
X148240984Y-94807191D01*
X148311480Y-94977382D01*
X148347418Y-95158056D01*
X148347418Y-95342270D01*
X148311480Y-95522944D01*
X148240984Y-95693135D01*
X148138641Y-95846302D01*
X148008382Y-95976561D01*
X147855215Y-96078904D01*
X147685024Y-96149400D01*
X147504350Y-96185338D01*
X147320136Y-96185338D01*
X147139462Y-96149400D01*
X146969271Y-96078904D01*
X146816104Y-95976561D01*
X146685845Y-95846302D01*
X146583502Y-95693135D01*
X146513006Y-95522944D01*
X146477068Y-95342270D01*
X146477068Y-95158056D01*
X146513006Y-94977382D01*
X146583502Y-94807191D01*
X146685845Y-94654024D01*
X146816104Y-94523765D01*
X146969271Y-94421422D01*
X147139462Y-94350926D01*
X147320136Y-94314988D01*
X147504350Y-94314988D01*
X147685024Y-94350926D01*
G37*
G36*
X147685024Y-91810926D02*
G01*
X147855215Y-91881422D01*
X148008382Y-91983765D01*
X148138641Y-92114024D01*
X148240984Y-92267191D01*
X148311480Y-92437382D01*
X148347418Y-92618056D01*
X148347418Y-92802270D01*
X148311480Y-92982944D01*
X148240984Y-93153135D01*
X148138641Y-93306302D01*
X148008382Y-93436561D01*
X147855215Y-93538904D01*
X147685024Y-93609400D01*
X147504350Y-93645338D01*
X147320136Y-93645338D01*
X147139462Y-93609400D01*
X146969271Y-93538904D01*
X146816104Y-93436561D01*
X146685845Y-93306302D01*
X146583502Y-93153135D01*
X146513006Y-92982944D01*
X146477068Y-92802270D01*
X146477068Y-92618056D01*
X146513006Y-92437382D01*
X146583502Y-92267191D01*
X146685845Y-92114024D01*
X146816104Y-91983765D01*
X146969271Y-91881422D01*
X147139462Y-91810926D01*
X147320136Y-91774988D01*
X147504350Y-91774988D01*
X147685024Y-91810926D01*
G37*
G36*
X147685024Y-89270926D02*
G01*
X147855215Y-89341422D01*
X148008382Y-89443765D01*
X148138641Y-89574024D01*
X148240984Y-89727191D01*
X148311480Y-89897382D01*
X148347418Y-90078056D01*
X148347418Y-90262270D01*
X148311480Y-90442944D01*
X148240984Y-90613135D01*
X148138641Y-90766302D01*
X148008382Y-90896561D01*
X147855215Y-90998904D01*
X147685024Y-91069400D01*
X147504350Y-91105338D01*
X147320136Y-91105338D01*
X147139462Y-91069400D01*
X146969271Y-90998904D01*
X146816104Y-90896561D01*
X146685845Y-90766302D01*
X146583502Y-90613135D01*
X146513006Y-90442944D01*
X146477068Y-90262270D01*
X146477068Y-90078056D01*
X146513006Y-89897382D01*
X146583502Y-89727191D01*
X146685845Y-89574024D01*
X146816104Y-89443765D01*
X146969271Y-89341422D01*
X147139462Y-89270926D01*
X147320136Y-89234988D01*
X147504350Y-89234988D01*
X147685024Y-89270926D01*
G37*
G36*
X140722013Y-86982358D02*
G01*
X140926693Y-87048862D01*
X141118450Y-87146567D01*
X141292561Y-87273066D01*
X141444740Y-87425245D01*
X141571239Y-87599356D01*
X141668944Y-87791113D01*
X141735448Y-87995793D01*
X141769115Y-88208356D01*
X141769115Y-88423570D01*
X141735448Y-88636133D01*
X141668944Y-88840813D01*
X141571239Y-89032570D01*
X141444740Y-89206681D01*
X141292561Y-89358860D01*
X141118450Y-89485359D01*
X140926693Y-89583064D01*
X140722013Y-89649568D01*
X140509450Y-89683235D01*
X140294236Y-89683235D01*
X140081673Y-89649568D01*
X139876993Y-89583064D01*
X139685236Y-89485359D01*
X139511125Y-89358860D01*
X139358946Y-89206681D01*
X139232447Y-89032570D01*
X139134742Y-88840813D01*
X139068238Y-88636133D01*
X139034571Y-88423570D01*
X139034571Y-88208356D01*
X139068238Y-87995793D01*
X139134742Y-87791113D01*
X139232447Y-87599356D01*
X139358946Y-87425245D01*
X139511125Y-87273066D01*
X139685236Y-87146567D01*
X139876993Y-87048862D01*
X140081673Y-86982358D01*
X140294236Y-86948691D01*
X140509450Y-86948691D01*
X140722013Y-86982358D01*
G37*
G36*
X126021214Y-87127197D02*
G01*
X126202905Y-87202457D01*
X126366423Y-87311716D01*
X126505484Y-87450777D01*
X126614743Y-87614295D01*
X126690003Y-87795986D01*
X126728369Y-87988869D01*
X126728369Y-88185531D01*
X126690003Y-88378414D01*
X126614743Y-88560105D01*
X126505484Y-88723623D01*
X126366423Y-88862684D01*
X126202905Y-88971943D01*
X126021214Y-89047203D01*
X125828331Y-89085569D01*
X125631669Y-89085569D01*
X125438786Y-89047203D01*
X125257095Y-88971943D01*
X125093577Y-88862684D01*
X124954516Y-88723623D01*
X124845257Y-88560105D01*
X124769997Y-88378414D01*
X124731631Y-88185531D01*
X124731631Y-87988869D01*
X124769997Y-87795986D01*
X124845257Y-87614295D01*
X124954516Y-87450777D01*
X125093577Y-87311716D01*
X125257095Y-87202457D01*
X125438786Y-87127197D01*
X125631669Y-87088831D01*
X125828331Y-87088831D01*
X126021214Y-87127197D01*
G37*
G36*
X126021214Y-84714197D02*
G01*
X126202905Y-84789457D01*
X126366423Y-84898716D01*
X126505484Y-85037777D01*
X126614743Y-85201295D01*
X126690003Y-85382986D01*
X126728369Y-85575869D01*
X126728369Y-85772531D01*
X126690003Y-85965414D01*
X126614743Y-86147105D01*
X126505484Y-86310623D01*
X126366423Y-86449684D01*
X126202905Y-86558943D01*
X126021214Y-86634203D01*
X125828331Y-86672569D01*
X125631669Y-86672569D01*
X125438786Y-86634203D01*
X125257095Y-86558943D01*
X125093577Y-86449684D01*
X124954516Y-86310623D01*
X124845257Y-86147105D01*
X124769997Y-85965414D01*
X124731631Y-85772531D01*
X124731631Y-85575869D01*
X124769997Y-85382986D01*
X124845257Y-85201295D01*
X124954516Y-85037777D01*
X125093577Y-84898716D01*
X125257095Y-84789457D01*
X125438786Y-84714197D01*
X125631669Y-84675831D01*
X125828331Y-84675831D01*
X126021214Y-84714197D01*
G37*
G36*
X129896542Y-83442893D02*
G01*
X129908870Y-83451130D01*
X129917107Y-83463458D01*
X129920000Y-83478000D01*
X129920000Y-85178000D01*
X129917107Y-85192542D01*
X129908870Y-85204870D01*
X129896542Y-85213107D01*
X129882000Y-85216000D01*
X128182000Y-85216000D01*
X128167458Y-85213107D01*
X128155130Y-85204870D01*
X128146893Y-85192542D01*
X128144000Y-85178000D01*
X128144000Y-83478000D01*
X128146893Y-83463458D01*
X128155130Y-83451130D01*
X128167458Y-83442893D01*
X128182000Y-83440000D01*
X129882000Y-83440000D01*
X129896542Y-83442893D01*
G37*
G36*
X131829773Y-83478237D02*
G01*
X131990600Y-83544854D01*
X132135341Y-83641567D01*
X132258433Y-83764659D01*
X132355146Y-83909400D01*
X132421763Y-84070227D01*
X132455724Y-84240961D01*
X132455724Y-84415039D01*
X132421763Y-84585773D01*
X132355146Y-84746600D01*
X132258433Y-84891341D01*
X132135341Y-85014433D01*
X131990600Y-85111146D01*
X131829773Y-85177763D01*
X131659039Y-85211724D01*
X131484961Y-85211724D01*
X131314227Y-85177763D01*
X131153400Y-85111146D01*
X131008659Y-85014433D01*
X130885567Y-84891341D01*
X130788854Y-84746600D01*
X130722237Y-84585773D01*
X130688276Y-84415039D01*
X130688276Y-84240961D01*
X130722237Y-84070227D01*
X130788854Y-83909400D01*
X130885567Y-83764659D01*
X131008659Y-83641567D01*
X131153400Y-83544854D01*
X131314227Y-83478237D01*
X131484961Y-83444276D01*
X131659039Y-83444276D01*
X131829773Y-83478237D01*
G37*
G36*
X134369773Y-83478237D02*
G01*
X134530600Y-83544854D01*
X134675341Y-83641567D01*
X134798433Y-83764659D01*
X134895146Y-83909400D01*
X134961763Y-84070227D01*
X134995724Y-84240961D01*
X134995724Y-84415039D01*
X134961763Y-84585773D01*
X134895146Y-84746600D01*
X134798433Y-84891341D01*
X134675341Y-85014433D01*
X134530600Y-85111146D01*
X134369773Y-85177763D01*
X134199039Y-85211724D01*
X134024961Y-85211724D01*
X133854227Y-85177763D01*
X133693400Y-85111146D01*
X133548659Y-85014433D01*
X133425567Y-84891341D01*
X133328854Y-84746600D01*
X133262237Y-84585773D01*
X133228276Y-84415039D01*
X133228276Y-84240961D01*
X133262237Y-84070227D01*
X133328854Y-83909400D01*
X133425567Y-83764659D01*
X133548659Y-83641567D01*
X133693400Y-83544854D01*
X133854227Y-83478237D01*
X134024961Y-83444276D01*
X134199039Y-83444276D01*
X134369773Y-83478237D01*
G37*
G36*
X136909773Y-83478237D02*
G01*
X137070600Y-83544854D01*
X137215341Y-83641567D01*
X137338433Y-83764659D01*
X137435146Y-83909400D01*
X137501763Y-84070227D01*
X137535724Y-84240961D01*
X137535724Y-84415039D01*
X137501763Y-84585773D01*
X137435146Y-84746600D01*
X137338433Y-84891341D01*
X137215341Y-85014433D01*
X137070600Y-85111146D01*
X136909773Y-85177763D01*
X136739039Y-85211724D01*
X136564961Y-85211724D01*
X136394227Y-85177763D01*
X136233400Y-85111146D01*
X136088659Y-85014433D01*
X135965567Y-84891341D01*
X135868854Y-84746600D01*
X135802237Y-84585773D01*
X135768276Y-84415039D01*
X135768276Y-84240961D01*
X135802237Y-84070227D01*
X135868854Y-83909400D01*
X135965567Y-83764659D01*
X136088659Y-83641567D01*
X136233400Y-83544854D01*
X136394227Y-83478237D01*
X136564961Y-83444276D01*
X136739039Y-83444276D01*
X136909773Y-83478237D01*
G37*
M02*
